# Tiled2Unity generated file. Do not modify by hand.
# Wavefront file for 'lernaIsland_4_mesh_0004.obj'

# Vertices (Count = 408)
v -10 -10 0
v -11 -10 0
v -11 -9 0
v -10 -9 0
v -12 -10 0
v -13 -10 0
v -13 -9 0
v -12 -9 0
v -18 -10 0
v -19 -10 0
v -19 -9 0
v -18 -9 0
v -22 -10 0
v -23 -10 0
v -23 -9 0
v -22 -9 0
v -8 -11 0
v -9 -11 0
v -9 -10 0
v -8 -10 0
v -12 -11 0
v -13 -11 0
v -13 -10 0
v -12 -10 0
v -18 -11 0
v -19 -11 0
v -19 -10 0
v -18 -10 0
v -23 -11 0
v -24 -11 0
v -24 -10 0
v -23 -10 0
v -6 -12 0
v -7 -12 0
v -7 -11 0
v -6 -11 0
v -12 -12 0
v -13 -12 0
v -13 -11 0
v -12 -11 0
v -18 -12 0
v -19 -12 0
v -19 -11 0
v -18 -11 0
v -25 -12 0
v -26 -12 0
v -26 -11 0
v -25 -11 0
v -5 -13 0
v -6 -13 0
v -6 -12 0
v -5 -12 0
v -13 -13 0
v -14 -13 0
v -14 -12 0
v -13 -12 0
v -14 -13 0
v -15 -13 0
v -15 -12 0
v -14 -12 0
v -16 -13 0
v -17 -13 0
v -17 -12 0
v -16 -12 0
v -17 -13 0
v -18 -13 0
v -18 -12 0
v -17 -12 0
v -26 -13 0
v -27 -13 0
v -27 -12 0
v -26 -12 0
v -3 -14 0
v -4 -14 0
v -4 -13 0
v -3 -13 0
v -13 -14 0
v -14 -14 0
v -14 -13 0
v -13 -13 0
v -17 -14 0
v -18 -14 0
v -18 -13 0
v -17 -13 0
v -26 -14 0
v -27 -14 0
v -27 -13 0
v -26 -13 0
v -2 -15 0
v -3 -15 0
v -3 -14 0
v -2 -14 0
v -10 -15 0
v -11 -15 0
v -11 -14 0
v -10 -14 0
v -11 -15 0
v -12 -15 0
v -12 -14 0
v -11 -14 0
v -19 -15 0
v -20 -15 0
v -20 -14 0
v -19 -14 0
v -20 -15 0
v -21 -15 0
v -21 -14 0
v -20 -14 0
v -28 -15 0
v -29 -15 0
v -29 -14 0
v -28 -14 0
v -9 -16 0
v -10 -16 0
v -10 -15 0
v -9 -15 0
v -21 -16 0
v -22 -16 0
v -22 -15 0
v -21 -15 0
v -9 -17 0
v -10 -17 0
v -10 -16 0
v -9 -16 0
v -21 -17 0
v -22 -17 0
v -22 -16 0
v -21 -16 0
v -9 -18 0
v -10 -18 0
v -10 -17 0
v -9 -17 0
v -13 -18 0
v -14 -18 0
v -14 -17 0
v -13 -17 0
v -14 -18 0
v -15 -18 0
v -15 -17 0
v -14 -17 0
v -16 -18 0
v -17 -18 0
v -17 -17 0
v -16 -17 0
v -17 -18 0
v -18 -18 0
v -18 -17 0
v -17 -17 0
v -21 -18 0
v -22 -18 0
v -22 -17 0
v -21 -17 0
v -14 -19 0
v -15 -19 0
v -15 -18 0
v -14 -18 0
v -16 -19 0
v -17 -19 0
v -17 -18 0
v -16 -18 0
v -6 -20 0
v -7 -20 0
v -7 -19 0
v -6 -19 0
v -7 -20 0
v -8 -20 0
v -8 -19 0
v -7 -19 0
v -8 -20 0
v -9 -20 0
v -9 -19 0
v -8 -19 0
v -14 -20 0
v -15 -20 0
v -15 -19 0
v -14 -19 0
v -16 -20 0
v -17 -20 0
v -17 -19 0
v -16 -19 0
v -5 -21 0
v -6 -21 0
v -6 -20 0
v -5 -20 0
v -9 -21 0
v -10 -21 0
v -10 -20 0
v -9 -20 0
v -13 -21 0
v -14 -21 0
v -14 -20 0
v -13 -20 0
v -15 -21 0
v -16 -21 0
v -16 -20 0
v -15 -20 0
v -17 -21 0
v -18 -21 0
v -18 -20 0
v -17 -20 0
v -21 -21 0
v -22 -21 0
v -22 -20 0
v -21 -20 0
v -22 -21 0
v -23 -21 0
v -23 -20 0
v -22 -20 0
v -23 -21 0
v -24 -21 0
v -24 -20 0
v -23 -20 0
v -4 -22 0
v -5 -22 0
v -5 -21 0
v -4 -21 0
v -10 -22 0
v -11 -22 0
v -11 -21 0
v -10 -21 0
v -11 -22 0
v -12 -22 0
v -12 -21 0
v -11 -21 0
v -12 -22 0
v -13 -22 0
v -13 -21 0
v -12 -21 0
v -18 -22 0
v -19 -22 0
v -19 -21 0
v -18 -21 0
v -19 -22 0
v -20 -22 0
v -20 -21 0
v -19 -21 0
v -20 -22 0
v -21 -22 0
v -21 -21 0
v -20 -21 0
v -24 -22 0
v -25 -22 0
v -25 -21 0
v -24 -21 0
v -4 -23 0
v -5 -23 0
v -5 -22 0
v -4 -22 0
v -10 -23 0
v -11 -23 0
v -11 -22 0
v -10 -22 0
v -19 -23 0
v -20 -23 0
v -20 -22 0
v -19 -22 0
v -25 -23 0
v -26 -23 0
v -26 -22 0
v -25 -22 0
v -4 -24 0
v -5 -24 0
v -5 -23 0
v -4 -23 0
v -11 -24 0
v -12 -24 0
v -12 -23 0
v -11 -23 0
v -18 -24 0
v -19 -24 0
v -19 -23 0
v -18 -23 0
v -25 -24 0
v -26 -24 0
v -26 -23 0
v -25 -23 0
v -4 -25 0
v -5 -25 0
v -5 -24 0
v -4 -24 0
v -9 -25 0
v -10 -25 0
v -10 -24 0
v -9 -24 0
v -16 -25 0
v -17 -25 0
v -17 -24 0
v -16 -24 0
v -17 -25 0
v -18 -25 0
v -18 -24 0
v -17 -24 0
v -26 -25 0
v -27 -25 0
v -27 -24 0
v -26 -24 0
v -4 -26 0
v -5 -26 0
v -5 -25 0
v -4 -25 0
v -8 -26 0
v -9 -26 0
v -9 -25 0
v -8 -25 0
v -17 -26 0
v -18 -26 0
v -18 -25 0
v -17 -25 0
v -26 -26 0
v -27 -26 0
v -27 -25 0
v -26 -25 0
v -3 -27 0
v -4 -27 0
v -4 -26 0
v -3 -26 0
v -8 -27 0
v -9 -27 0
v -9 -26 0
v -8 -26 0
v -18 -27 0
v -19 -27 0
v -19 -26 0
v -18 -26 0
v -26 -27 0
v -27 -27 0
v -27 -26 0
v -26 -26 0
v -3 -28 0
v -4 -28 0
v -4 -27 0
v -3 -27 0
v -8 -28 0
v -9 -28 0
v -9 -27 0
v -8 -27 0
v -20 -28 0
v -21 -28 0
v -21 -27 0
v -20 -27 0
v -27 -28 0
v -28 -28 0
v -28 -27 0
v -27 -27 0
v -3 -29 0
v -4 -29 0
v -4 -28 0
v -3 -28 0
v -8 -29 0
v -9 -29 0
v -9 -28 0
v -8 -28 0
v -21 -29 0
v -22 -29 0
v -22 -28 0
v -21 -28 0
v -27 -29 0
v -28 -29 0
v -28 -28 0
v -27 -28 0
v -3 -30 0
v -4 -30 0
v -4 -29 0
v -3 -29 0
v -7 -30 0
v -8 -30 0
v -8 -29 0
v -7 -29 0
v -22 -30 0
v -23 -30 0
v -23 -29 0
v -22 -29 0
v -27 -30 0
v -28 -30 0
v -28 -29 0
v -27 -29 0
v -4 -31 0
v -5 -31 0
v -5 -30 0
v -4 -30 0
v -7 -31 0
v -8 -31 0
v -8 -30 0
v -7 -30 0
v -23 -31 0
v -24 -31 0
v -24 -30 0
v -23 -30 0
v -26 -31 0
v -27 -31 0
v -27 -30 0
v -26 -30 0
v -4 -32 0
v -5 -32 0
v -5 -31 0
v -4 -31 0
v -7 -32 0
v -8 -32 0
v -8 -31 0
v -7 -31 0
v -23 -32 0
v -24 -32 0
v -24 -31 0
v -23 -31 0
v -26 -32 0
v -27 -32 0
v -27 -31 0
v -26 -31 0

# Texture cooridinates (Count = 24)
vt 0.08445533 0.8752294
vt 0.1040392 0.8752294
vt 0.1040392 0.9045871
vt 0.08445533 0.9045871
vt 0.1052632 0.8752294
vt 0.124847 0.8752294
vt 0.124847 0.9045871
vt 0.1052632 0.9045871
vt 0.8335373 0.6568807
vt 0.8531212 0.6568807
vt 0.8531212 0.6862385
vt 0.8335373 0.6862385
vt 0.1468788 0.8752294
vt 0.1664627 0.8752294
vt 0.1664627 0.9045871
vt 0.1468788 0.9045871
vt 0.126071 0.8752294
vt 0.1456548 0.8752294
vt 0.1456548 0.9045871
vt 0.126071 0.9045871
vt 0.06364749 0.8752294
vt 0.08323134 0.8752294
vt 0.08323134 0.9045871
vt 0.06364749 0.9045871

# Normal
vn 0 0 -1

# Mesh description
g lernaIsland_4_mesh_0004

# Faces
f 1/1/1 2/2/1 3/3/1 4/4/1
f 5/5/1 6/6/1 7/7/1 8/8/1
f 9/1/1 10/2/1 11/3/1 12/4/1
f 13/5/1 14/6/1 15/7/1 16/8/1
f 17/1/1 18/2/1 19/3/1 20/4/1
f 21/5/1 22/6/1 23/7/1 24/8/1
f 25/1/1 26/2/1 27/3/1 28/4/1
f 29/5/1 30/6/1 31/7/1 32/8/1
f 33/1/1 34/2/1 35/3/1 36/4/1
f 37/5/1 38/6/1 39/7/1 40/8/1
f 41/1/1 42/2/1 43/3/1 44/4/1
f 45/5/1 46/6/1 47/7/1 48/8/1
f 49/1/1 50/2/1 51/3/1 52/4/1
f 53/5/1 54/6/1 55/7/1 56/8/1
f 57/9/1 58/10/1 59/11/1 60/12/1
f 61/9/1 62/10/1 63/11/1 64/12/1
f 65/1/1 66/2/1 67/3/1 68/4/1
f 69/5/1 70/6/1 71/7/1 72/8/1
f 73/1/1 74/2/1 75/3/1 76/4/1
f 77/13/1 78/14/1 79/15/1 80/16/1
f 81/17/1 82/18/1 83/19/1 84/20/1
f 85/5/1 86/6/1 87/7/1 88/8/1
f 89/1/1 90/2/1 91/3/1 92/4/1
f 93/21/1 94/22/1 95/23/1 96/24/1
f 97/13/1 98/14/1 99/15/1 100/16/1
f 101/17/1 102/18/1 103/19/1 104/20/1
f 105/21/1 106/22/1 107/23/1 108/24/1
f 109/5/1 110/6/1 111/7/1 112/8/1
f 113/5/1 114/6/1 115/7/1 116/8/1
f 117/1/1 118/2/1 119/3/1 120/4/1
f 121/5/1 122/6/1 123/7/1 124/8/1
f 125/1/1 126/2/1 127/3/1 128/4/1
f 129/5/1 130/6/1 131/7/1 132/8/1
f 133/1/1 134/2/1 135/3/1 136/4/1
f 137/5/1 138/6/1 139/7/1 140/8/1
f 141/1/1 142/2/1 143/3/1 144/4/1
f 145/5/1 146/6/1 147/7/1 148/8/1
f 149/1/1 150/2/1 151/3/1 152/4/1
f 153/5/1 154/6/1 155/7/1 156/8/1
f 157/1/1 158/2/1 159/3/1 160/4/1
f 161/21/1 162/22/1 163/23/1 164/24/1
f 165/21/1 166/22/1 167/23/1 168/24/1
f 169/21/1 170/22/1 171/23/1 172/24/1
f 173/13/1 174/14/1 175/15/1 176/16/1
f 177/17/1 178/18/1 179/19/1 180/20/1
f 181/13/1 182/14/1 183/15/1 184/16/1
f 185/17/1 186/18/1 187/19/1 188/20/1
f 189/13/1 190/14/1 191/15/1 192/16/1
f 193/9/1 194/10/1 195/11/1 196/12/1
f 197/17/1 198/18/1 199/19/1 200/20/1
f 201/21/1 202/22/1 203/23/1 204/24/1
f 205/21/1 206/22/1 207/23/1 208/24/1
f 209/21/1 210/22/1 211/23/1 212/24/1
f 213/5/1 214/6/1 215/7/1 216/8/1
f 217/17/1 218/18/1 219/19/1 220/20/1
f 221/21/1 222/22/1 223/23/1 224/24/1
f 225/13/1 226/14/1 227/15/1 228/16/1
f 229/17/1 230/18/1 231/19/1 232/20/1
f 233/21/1 234/22/1 235/23/1 236/24/1
f 237/13/1 238/14/1 239/15/1 240/16/1
f 241/17/1 242/18/1 243/19/1 244/20/1
f 245/5/1 246/6/1 247/7/1 248/8/1
f 249/9/1 250/10/1 251/11/1 252/12/1
f 253/9/1 254/10/1 255/11/1 256/12/1
f 257/1/1 258/2/1 259/3/1 260/4/1
f 261/5/1 262/6/1 263/7/1 264/8/1
f 265/9/1 266/10/1 267/11/1 268/12/1
f 269/9/1 270/10/1 271/11/1 272/12/1
f 273/17/1 274/18/1 275/19/1 276/20/1
f 277/5/1 278/6/1 279/7/1 280/8/1
f 281/1/1 282/2/1 283/3/1 284/4/1
f 285/5/1 286/6/1 287/7/1 288/8/1
f 289/9/1 290/10/1 291/11/1 292/12/1
f 293/1/1 294/2/1 295/3/1 296/4/1
f 297/13/1 298/14/1 299/15/1 300/16/1
f 301/1/1 302/2/1 303/3/1 304/4/1
f 305/5/1 306/6/1 307/7/1 308/8/1
f 309/1/1 310/2/1 311/3/1 312/4/1
f 313/5/1 314/6/1 315/7/1 316/8/1
f 317/1/1 318/2/1 319/3/1 320/4/1
f 321/5/1 322/6/1 323/7/1 324/8/1
f 325/17/1 326/18/1 327/19/1 328/20/1
f 329/5/1 330/6/1 331/7/1 332/8/1
f 333/1/1 334/2/1 335/3/1 336/4/1
f 337/5/1 338/6/1 339/7/1 340/8/1
f 341/1/1 342/2/1 343/3/1 344/4/1
f 345/5/1 346/6/1 347/7/1 348/8/1
f 349/1/1 350/2/1 351/3/1 352/4/1
f 353/5/1 354/6/1 355/7/1 356/8/1
f 357/1/1 358/2/1 359/3/1 360/4/1
f 361/5/1 362/6/1 363/7/1 364/8/1
f 365/1/1 366/2/1 367/3/1 368/4/1
f 369/5/1 370/6/1 371/7/1 372/8/1
f 373/1/1 374/2/1 375/3/1 376/4/1
f 377/5/1 378/6/1 379/7/1 380/8/1
f 381/1/1 382/2/1 383/3/1 384/4/1
f 385/5/1 386/6/1 387/7/1 388/8/1
f 389/1/1 390/2/1 391/3/1 392/4/1
f 393/5/1 394/6/1 395/7/1 396/8/1
f 397/1/1 398/2/1 399/3/1 400/4/1
f 401/5/1 402/6/1 403/7/1 404/8/1
f 405/1/1 406/2/1 407/3/1 408/4/1

