# Tiled2Unity generated file. Do not modify by hand.
# Wavefront file for 'items_1_mesh_0002.obj'

# Vertices (Count = 132)
v -5 -3 0
v -6 -3 0
v -6 -2 0
v -5 -2 0
v -6 -3 0
v -7 -3 0
v -7 -2 0
v -6 -2 0
v -10 -3 0
v -11 -3 0
v -11 -2 0
v -10 -2 0
v -12 -3 0
v -13 -3 0
v -13 -2 0
v -12 -2 0
v -5 -4 0
v -6 -4 0
v -6 -3 0
v -5 -3 0
v -6 -4 0
v -7 -4 0
v -7 -3 0
v -6 -3 0
v -7 -4 0
v -8 -4 0
v -8 -3 0
v -7 -3 0
v -9 -4 0
v -10 -4 0
v -10 -3 0
v -9 -3 0
v -10 -4 0
v -11 -4 0
v -11 -3 0
v -10 -3 0
v -11 -4 0
v -12 -4 0
v -12 -3 0
v -11 -3 0
v -12 -4 0
v -13 -4 0
v -13 -3 0
v -12 -3 0
v -5 -5 0
v -6 -5 0
v -6 -4 0
v -5 -4 0
v -6 -5 0
v -7 -5 0
v -7 -4 0
v -6 -4 0
v -7 -5 0
v -8 -5 0
v -8 -4 0
v -7 -4 0
v -9 -5 0
v -10 -5 0
v -10 -4 0
v -9 -4 0
v -10 -5 0
v -11 -5 0
v -11 -4 0
v -10 -4 0
v -11 -5 0
v -12 -5 0
v -12 -4 0
v -11 -4 0
v -12 -5 0
v -13 -5 0
v -13 -4 0
v -12 -4 0
v -5 -6 0
v -6 -6 0
v -6 -5 0
v -5 -5 0
v -7 -6 0
v -8 -6 0
v -8 -5 0
v -7 -5 0
v -9 -6 0
v -10 -6 0
v -10 -5 0
v -9 -5 0
v -11 -6 0
v -12 -6 0
v -12 -5 0
v -11 -5 0
v -8 -7 0
v -9 -7 0
v -9 -6 0
v -8 -6 0
v -5 -8 0
v -6 -8 0
v -6 -7 0
v -5 -7 0
v -6 -8 0
v -7 -8 0
v -7 -7 0
v -6 -7 0
v -10 -8 0
v -11 -8 0
v -11 -7 0
v -10 -7 0
v -11 -8 0
v -12 -8 0
v -12 -7 0
v -11 -7 0
v -5 -10 0
v -6 -10 0
v -6 -9 0
v -5 -9 0
v -6 -10 0
v -7 -10 0
v -7 -9 0
v -6 -9 0
v -10 -10 0
v -11 -10 0
v -11 -9 0
v -10 -9 0
v -11 -10 0
v -12 -10 0
v -12 -9 0
v -11 -9 0
v -12 -10 0
v -13 -10 0
v -13 -9 0
v -12 -9 0
v -12 -11 0
v -13 -11 0
v -13 -10 0
v -12 -10 0

# Texture cooridinates (Count = 76)
vt 0.1676867 0.7816514
vt 0.1872705 0.7816514
vt 0.1872705 0.8110092
vt 0.1676867 0.8110092
vt 0.8335373 0.906422
vt 0.8531212 0.906422
vt 0.8531212 0.9357798
vt 0.8335373 0.9357798
vt 0.9791921 0.8752294
vt 0.998776 0.8752294
vt 0.998776 0.9045871
vt 0.9791921 0.9045871
vt 0.02203182 0.7504587
vt 0.04161567 0.7504587
vt 0.04161567 0.7798165
vt 0.02203182 0.7798165
vt 0.06364749 0.8440367
vt 0.08323134 0.8440367
vt 0.08323134 0.8733945
vt 0.06364749 0.8733945
vt 0.1052632 0.8440367
vt 0.124847 0.8440367
vt 0.124847 0.8733945
vt 0.1052632 0.8733945
vt 0.1468788 0.8752294
vt 0.1664627 0.8752294
vt 0.1664627 0.9045871
vt 0.1468788 0.9045871
vt 0.1468788 0.8440367
vt 0.1664627 0.8440367
vt 0.1664627 0.8733945
vt 0.1468788 0.8733945
vt 0.2717258 0.8752294
vt 0.2913097 0.8752294
vt 0.2913097 0.9045871
vt 0.2717258 0.9045871
vt 0.2925337 0.8752294
vt 0.3121175 0.8752294
vt 0.3121175 0.9045871
vt 0.2925337 0.9045871
vt 0.02203182 0.8752294
vt 0.04161567 0.8752294
vt 0.04161567 0.9045871
vt 0.02203182 0.9045871
vt 0.08445533 0.8440367
vt 0.1040392 0.8440367
vt 0.1040392 0.8733945
vt 0.08445533 0.8733945
vt 0.9167687 0.8752294
vt 0.9363525 0.8752294
vt 0.9363525 0.9045871
vt 0.9167687 0.9045871
vt 0.250918 0.7816514
vt 0.2705018 0.7816514
vt 0.2705018 0.8110092
vt 0.250918 0.8110092
vt 0.3133415 0.7816514
vt 0.3329253 0.7816514
vt 0.3329253 0.8110092
vt 0.3133415 0.8110092
vt 0.3549572 0.7816514
vt 0.374541 0.7816514
vt 0.374541 0.8110092
vt 0.3549572 0.8110092
vt 0.5422277 0.6880734
vt 0.5618115 0.6880734
vt 0.5618115 0.7174312
vt 0.5422277 0.7174312
vt 0.4798042 0.7504587
vt 0.499388 0.7504587
vt 0.499388 0.7798165
vt 0.4798042 0.7798165
vt 0.500612 0.7504587
vt 0.5201958 0.7504587
vt 0.5201958 0.7798165
vt 0.500612 0.7798165

# Normal
vn 0 0 -1

# Mesh description
g items_1_mesh_0002

# Faces
f 1/1/1 2/2/1 3/3/1 4/4/1
f 5/5/1 6/6/1 7/7/1 8/8/1
f 9/5/1 10/6/1 11/7/1 12/8/1
f 13/9/1 14/10/1 15/11/1 16/12/1
f 17/13/1 18/14/1 19/15/1 20/16/1
f 21/17/1 22/18/1 23/19/1 24/20/1
f 25/5/1 26/6/1 27/7/1 28/8/1
f 29/5/1 30/6/1 31/7/1 32/8/1
f 33/21/1 34/22/1 35/23/1 36/24/1
f 37/25/1 38/26/1 39/27/1 40/28/1
f 41/29/1 42/30/1 43/31/1 44/32/1
f 45/33/1 46/34/1 47/35/1 48/36/1
f 49/37/1 50/38/1 51/39/1 52/40/1
f 53/41/1 54/42/1 55/43/1 56/44/1
f 57/45/1 58/46/1 59/47/1 60/48/1
f 61/37/1 62/38/1 63/39/1 64/40/1
f 65/37/1 66/38/1 67/39/1 68/40/1
f 69/29/1 70/30/1 71/31/1 72/32/1
f 73/49/1 74/50/1 75/51/1 76/52/1
f 77/37/1 78/38/1 79/39/1 80/40/1
f 81/37/1 82/38/1 83/39/1 84/40/1
f 85/49/1 86/50/1 87/51/1 88/52/1
f 89/53/1 90/54/1 91/55/1 92/56/1
f 93/57/1 94/58/1 95/59/1 96/60/1
f 97/61/1 98/62/1 99/63/1 100/64/1
f 101/65/1 102/66/1 103/67/1 104/68/1
f 105/61/1 106/62/1 107/63/1 108/64/1
f 109/57/1 110/58/1 111/59/1 112/60/1
f 113/61/1 114/62/1 115/63/1 116/64/1
f 117/57/1 118/58/1 119/59/1 120/60/1
f 121/61/1 122/62/1 123/63/1 124/64/1
f 125/69/1 126/70/1 127/71/1 128/72/1
f 129/73/1 130/74/1 131/75/1 132/76/1

