# Tiled2Unity generated file. Do not modify by hand.
# Wavefront file for 'prueba2_mesh_0001.obj'

# Vertices (Count = 960)
v 0 -1 0
v -1 -1 0
v -1 0 0
v 0 0 0
v -1 -1 0
v -2 -1 0
v -2 0 0
v -1 0 0
v -2 -1 0
v -3 -1 0
v -3 0 0
v -2 0 0
v -3 -1 0
v -4 -1 0
v -4 0 0
v -3 0 0
v -4 -1 0
v -5 -1 0
v -5 0 0
v -4 0 0
v -5 -1 0
v -6 -1 0
v -6 0 0
v -5 0 0
v -6 -1 0
v -7 -1 0
v -7 0 0
v -6 0 0
v -7 -1 0
v -8 -1 0
v -8 0 0
v -7 0 0
v -8 -1 0
v -9 -1 0
v -9 0 0
v -8 0 0
v -9 -1 0
v -10 -1 0
v -10 0 0
v -9 0 0
v -10 -1 0
v -11 -1 0
v -11 0 0
v -10 0 0
v -11 -1 0
v -12 -1 0
v -12 0 0
v -11 0 0
v -12 -1 0
v -13 -1 0
v -13 0 0
v -12 0 0
v -13 -1 0
v -14 -1 0
v -14 0 0
v -13 0 0
v -14 -1 0
v -15 -1 0
v -15 0 0
v -14 0 0
v -15 -1 0
v -16 -1 0
v -16 0 0
v -15 0 0
v -16 -1 0
v -17 -1 0
v -17 0 0
v -16 0 0
v -17 -1 0
v -18 -1 0
v -18 0 0
v -17 0 0
v -18 -1 0
v -19 -1 0
v -19 0 0
v -18 0 0
v -19 -1 0
v -20 -1 0
v -20 0 0
v -19 0 0
v 0 -2 0
v -1 -2 0
v -1 -1 0
v 0 -1 0
v -1 -2 0
v -2 -2 0
v -2 -1 0
v -1 -1 0
v -2 -2 0
v -3 -2 0
v -3 -1 0
v -2 -1 0
v -3 -2 0
v -4 -2 0
v -4 -1 0
v -3 -1 0
v -4 -2 0
v -5 -2 0
v -5 -1 0
v -4 -1 0
v -5 -2 0
v -6 -2 0
v -6 -1 0
v -5 -1 0
v -6 -2 0
v -7 -2 0
v -7 -1 0
v -6 -1 0
v -7 -2 0
v -8 -2 0
v -8 -1 0
v -7 -1 0
v -8 -2 0
v -9 -2 0
v -9 -1 0
v -8 -1 0
v -9 -2 0
v -10 -2 0
v -10 -1 0
v -9 -1 0
v -10 -2 0
v -11 -2 0
v -11 -1 0
v -10 -1 0
v -11 -2 0
v -12 -2 0
v -12 -1 0
v -11 -1 0
v -12 -2 0
v -13 -2 0
v -13 -1 0
v -12 -1 0
v -13 -2 0
v -14 -2 0
v -14 -1 0
v -13 -1 0
v -14 -2 0
v -15 -2 0
v -15 -1 0
v -14 -1 0
v -15 -2 0
v -16 -2 0
v -16 -1 0
v -15 -1 0
v -16 -2 0
v -17 -2 0
v -17 -1 0
v -16 -1 0
v -17 -2 0
v -18 -2 0
v -18 -1 0
v -17 -1 0
v -18 -2 0
v -19 -2 0
v -19 -1 0
v -18 -1 0
v -19 -2 0
v -20 -2 0
v -20 -1 0
v -19 -1 0
v 0 -3 0
v -1 -3 0
v -1 -2 0
v 0 -2 0
v -1 -3 0
v -2 -3 0
v -2 -2 0
v -1 -2 0
v -2 -3 0
v -3 -3 0
v -3 -2 0
v -2 -2 0
v -3 -3 0
v -4 -3 0
v -4 -2 0
v -3 -2 0
v -4 -3 0
v -5 -3 0
v -5 -2 0
v -4 -2 0
v -5 -3 0
v -6 -3 0
v -6 -2 0
v -5 -2 0
v -6 -3 0
v -7 -3 0
v -7 -2 0
v -6 -2 0
v -7 -3 0
v -8 -3 0
v -8 -2 0
v -7 -2 0
v -8 -3 0
v -9 -3 0
v -9 -2 0
v -8 -2 0
v -9 -3 0
v -10 -3 0
v -10 -2 0
v -9 -2 0
v -10 -3 0
v -11 -3 0
v -11 -2 0
v -10 -2 0
v -11 -3 0
v -12 -3 0
v -12 -2 0
v -11 -2 0
v -12 -3 0
v -13 -3 0
v -13 -2 0
v -12 -2 0
v -13 -3 0
v -14 -3 0
v -14 -2 0
v -13 -2 0
v -14 -3 0
v -15 -3 0
v -15 -2 0
v -14 -2 0
v -15 -3 0
v -16 -3 0
v -16 -2 0
v -15 -2 0
v -16 -3 0
v -17 -3 0
v -17 -2 0
v -16 -2 0
v -17 -3 0
v -18 -3 0
v -18 -2 0
v -17 -2 0
v -18 -3 0
v -19 -3 0
v -19 -2 0
v -18 -2 0
v -19 -3 0
v -20 -3 0
v -20 -2 0
v -19 -2 0
v 0 -4 0
v -1 -4 0
v -1 -3 0
v 0 -3 0
v -1 -4 0
v -2 -4 0
v -2 -3 0
v -1 -3 0
v -2 -4 0
v -3 -4 0
v -3 -3 0
v -2 -3 0
v -3 -4 0
v -4 -4 0
v -4 -3 0
v -3 -3 0
v -4 -4 0
v -5 -4 0
v -5 -3 0
v -4 -3 0
v -5 -4 0
v -6 -4 0
v -6 -3 0
v -5 -3 0
v -6 -4 0
v -7 -4 0
v -7 -3 0
v -6 -3 0
v -7 -4 0
v -8 -4 0
v -8 -3 0
v -7 -3 0
v -8 -4 0
v -9 -4 0
v -9 -3 0
v -8 -3 0
v -9 -4 0
v -10 -4 0
v -10 -3 0
v -9 -3 0
v -10 -4 0
v -11 -4 0
v -11 -3 0
v -10 -3 0
v -11 -4 0
v -12 -4 0
v -12 -3 0
v -11 -3 0
v -12 -4 0
v -13 -4 0
v -13 -3 0
v -12 -3 0
v -13 -4 0
v -14 -4 0
v -14 -3 0
v -13 -3 0
v -14 -4 0
v -15 -4 0
v -15 -3 0
v -14 -3 0
v -15 -4 0
v -16 -4 0
v -16 -3 0
v -15 -3 0
v -16 -4 0
v -17 -4 0
v -17 -3 0
v -16 -3 0
v -17 -4 0
v -18 -4 0
v -18 -3 0
v -17 -3 0
v -18 -4 0
v -19 -4 0
v -19 -3 0
v -18 -3 0
v -19 -4 0
v -20 -4 0
v -20 -3 0
v -19 -3 0
v 0 -5 0
v -1 -5 0
v -1 -4 0
v 0 -4 0
v -1 -5 0
v -2 -5 0
v -2 -4 0
v -1 -4 0
v -2 -5 0
v -3 -5 0
v -3 -4 0
v -2 -4 0
v -3 -5 0
v -4 -5 0
v -4 -4 0
v -3 -4 0
v -4 -5 0
v -5 -5 0
v -5 -4 0
v -4 -4 0
v -5 -5 0
v -6 -5 0
v -6 -4 0
v -5 -4 0
v -6 -5 0
v -7 -5 0
v -7 -4 0
v -6 -4 0
v -7 -5 0
v -8 -5 0
v -8 -4 0
v -7 -4 0
v -8 -5 0
v -9 -5 0
v -9 -4 0
v -8 -4 0
v -9 -5 0
v -10 -5 0
v -10 -4 0
v -9 -4 0
v -10 -5 0
v -11 -5 0
v -11 -4 0
v -10 -4 0
v -11 -5 0
v -12 -5 0
v -12 -4 0
v -11 -4 0
v -12 -5 0
v -13 -5 0
v -13 -4 0
v -12 -4 0
v -13 -5 0
v -14 -5 0
v -14 -4 0
v -13 -4 0
v -14 -5 0
v -15 -5 0
v -15 -4 0
v -14 -4 0
v -15 -5 0
v -16 -5 0
v -16 -4 0
v -15 -4 0
v -16 -5 0
v -17 -5 0
v -17 -4 0
v -16 -4 0
v -17 -5 0
v -18 -5 0
v -18 -4 0
v -17 -4 0
v -18 -5 0
v -19 -5 0
v -19 -4 0
v -18 -4 0
v -19 -5 0
v -20 -5 0
v -20 -4 0
v -19 -4 0
v 0 -6 0
v -1 -6 0
v -1 -5 0
v 0 -5 0
v -1 -6 0
v -2 -6 0
v -2 -5 0
v -1 -5 0
v -2 -6 0
v -3 -6 0
v -3 -5 0
v -2 -5 0
v -3 -6 0
v -4 -6 0
v -4 -5 0
v -3 -5 0
v -4 -6 0
v -5 -6 0
v -5 -5 0
v -4 -5 0
v -5 -6 0
v -6 -6 0
v -6 -5 0
v -5 -5 0
v -6 -6 0
v -7 -6 0
v -7 -5 0
v -6 -5 0
v -7 -6 0
v -8 -6 0
v -8 -5 0
v -7 -5 0
v -8 -6 0
v -9 -6 0
v -9 -5 0
v -8 -5 0
v -9 -6 0
v -10 -6 0
v -10 -5 0
v -9 -5 0
v -10 -6 0
v -11 -6 0
v -11 -5 0
v -10 -5 0
v -11 -6 0
v -12 -6 0
v -12 -5 0
v -11 -5 0
v -12 -6 0
v -13 -6 0
v -13 -5 0
v -12 -5 0
v -13 -6 0
v -14 -6 0
v -14 -5 0
v -13 -5 0
v -14 -6 0
v -15 -6 0
v -15 -5 0
v -14 -5 0
v -15 -6 0
v -16 -6 0
v -16 -5 0
v -15 -5 0
v -16 -6 0
v -17 -6 0
v -17 -5 0
v -16 -5 0
v -17 -6 0
v -18 -6 0
v -18 -5 0
v -17 -5 0
v -18 -6 0
v -19 -6 0
v -19 -5 0
v -18 -5 0
v -19 -6 0
v -20 -6 0
v -20 -5 0
v -19 -5 0
v 0 -7 0
v -1 -7 0
v -1 -6 0
v 0 -6 0
v -1 -7 0
v -2 -7 0
v -2 -6 0
v -1 -6 0
v -2 -7 0
v -3 -7 0
v -3 -6 0
v -2 -6 0
v -3 -7 0
v -4 -7 0
v -4 -6 0
v -3 -6 0
v -4 -7 0
v -5 -7 0
v -5 -6 0
v -4 -6 0
v -5 -7 0
v -6 -7 0
v -6 -6 0
v -5 -6 0
v -6 -7 0
v -7 -7 0
v -7 -6 0
v -6 -6 0
v -7 -7 0
v -8 -7 0
v -8 -6 0
v -7 -6 0
v -8 -7 0
v -9 -7 0
v -9 -6 0
v -8 -6 0
v -9 -7 0
v -10 -7 0
v -10 -6 0
v -9 -6 0
v -10 -7 0
v -11 -7 0
v -11 -6 0
v -10 -6 0
v -11 -7 0
v -12 -7 0
v -12 -6 0
v -11 -6 0
v -12 -7 0
v -13 -7 0
v -13 -6 0
v -12 -6 0
v -13 -7 0
v -14 -7 0
v -14 -6 0
v -13 -6 0
v -14 -7 0
v -15 -7 0
v -15 -6 0
v -14 -6 0
v -15 -7 0
v -16 -7 0
v -16 -6 0
v -15 -6 0
v -16 -7 0
v -17 -7 0
v -17 -6 0
v -16 -6 0
v -17 -7 0
v -18 -7 0
v -18 -6 0
v -17 -6 0
v -18 -7 0
v -19 -7 0
v -19 -6 0
v -18 -6 0
v -19 -7 0
v -20 -7 0
v -20 -6 0
v -19 -6 0
v 0 -8 0
v -1 -8 0
v -1 -7 0
v 0 -7 0
v -1 -8 0
v -2 -8 0
v -2 -7 0
v -1 -7 0
v -2 -8 0
v -3 -8 0
v -3 -7 0
v -2 -7 0
v -3 -8 0
v -4 -8 0
v -4 -7 0
v -3 -7 0
v -4 -8 0
v -5 -8 0
v -5 -7 0
v -4 -7 0
v -5 -8 0
v -6 -8 0
v -6 -7 0
v -5 -7 0
v -6 -8 0
v -7 -8 0
v -7 -7 0
v -6 -7 0
v -7 -8 0
v -8 -8 0
v -8 -7 0
v -7 -7 0
v -8 -8 0
v -9 -8 0
v -9 -7 0
v -8 -7 0
v -9 -8 0
v -10 -8 0
v -10 -7 0
v -9 -7 0
v -10 -8 0
v -11 -8 0
v -11 -7 0
v -10 -7 0
v -11 -8 0
v -12 -8 0
v -12 -7 0
v -11 -7 0
v -12 -8 0
v -13 -8 0
v -13 -7 0
v -12 -7 0
v -13 -8 0
v -14 -8 0
v -14 -7 0
v -13 -7 0
v -14 -8 0
v -15 -8 0
v -15 -7 0
v -14 -7 0
v -15 -8 0
v -16 -8 0
v -16 -7 0
v -15 -7 0
v -16 -8 0
v -17 -8 0
v -17 -7 0
v -16 -7 0
v -17 -8 0
v -18 -8 0
v -18 -7 0
v -17 -7 0
v -18 -8 0
v -19 -8 0
v -19 -7 0
v -18 -7 0
v -19 -8 0
v -20 -8 0
v -20 -7 0
v -19 -7 0
v 0 -9 0
v -1 -9 0
v -1 -8 0
v 0 -8 0
v -1 -9 0
v -2 -9 0
v -2 -8 0
v -1 -8 0
v -2 -9 0
v -3 -9 0
v -3 -8 0
v -2 -8 0
v -3 -9 0
v -4 -9 0
v -4 -8 0
v -3 -8 0
v -4 -9 0
v -5 -9 0
v -5 -8 0
v -4 -8 0
v -5 -9 0
v -6 -9 0
v -6 -8 0
v -5 -8 0
v -6 -9 0
v -7 -9 0
v -7 -8 0
v -6 -8 0
v -7 -9 0
v -8 -9 0
v -8 -8 0
v -7 -8 0
v -8 -9 0
v -9 -9 0
v -9 -8 0
v -8 -8 0
v -9 -9 0
v -10 -9 0
v -10 -8 0
v -9 -8 0
v -10 -9 0
v -11 -9 0
v -11 -8 0
v -10 -8 0
v -11 -9 0
v -12 -9 0
v -12 -8 0
v -11 -8 0
v -12 -9 0
v -13 -9 0
v -13 -8 0
v -12 -8 0
v -13 -9 0
v -14 -9 0
v -14 -8 0
v -13 -8 0
v -14 -9 0
v -15 -9 0
v -15 -8 0
v -14 -8 0
v -15 -9 0
v -16 -9 0
v -16 -8 0
v -15 -8 0
v -16 -9 0
v -17 -9 0
v -17 -8 0
v -16 -8 0
v -17 -9 0
v -18 -9 0
v -18 -8 0
v -17 -8 0
v -18 -9 0
v -19 -9 0
v -19 -8 0
v -18 -8 0
v -19 -9 0
v -20 -9 0
v -20 -8 0
v -19 -8 0
v 0 -10 0
v -1 -10 0
v -1 -9 0
v 0 -9 0
v -1 -10 0
v -2 -10 0
v -2 -9 0
v -1 -9 0
v -2 -10 0
v -3 -10 0
v -3 -9 0
v -2 -9 0
v -3 -10 0
v -4 -10 0
v -4 -9 0
v -3 -9 0
v -4 -10 0
v -5 -10 0
v -5 -9 0
v -4 -9 0
v -5 -10 0
v -6 -10 0
v -6 -9 0
v -5 -9 0
v -6 -10 0
v -7 -10 0
v -7 -9 0
v -6 -9 0
v -7 -10 0
v -8 -10 0
v -8 -9 0
v -7 -9 0
v -8 -10 0
v -9 -10 0
v -9 -9 0
v -8 -9 0
v -9 -10 0
v -10 -10 0
v -10 -9 0
v -9 -9 0
v -10 -10 0
v -11 -10 0
v -11 -9 0
v -10 -9 0
v -11 -10 0
v -12 -10 0
v -12 -9 0
v -11 -9 0
v -12 -10 0
v -13 -10 0
v -13 -9 0
v -12 -9 0
v -13 -10 0
v -14 -10 0
v -14 -9 0
v -13 -9 0
v -14 -10 0
v -15 -10 0
v -15 -9 0
v -14 -9 0
v -15 -10 0
v -16 -10 0
v -16 -9 0
v -15 -9 0
v -16 -10 0
v -17 -10 0
v -17 -9 0
v -16 -9 0
v -17 -10 0
v -18 -10 0
v -18 -9 0
v -17 -9 0
v -18 -10 0
v -19 -10 0
v -19 -9 0
v -18 -9 0
v -19 -10 0
v -20 -10 0
v -20 -9 0
v -19 -9 0
v 0 -11 0
v -1 -11 0
v -1 -10 0
v 0 -10 0
v -1 -11 0
v -2 -11 0
v -2 -10 0
v -1 -10 0
v -2 -11 0
v -3 -11 0
v -3 -10 0
v -2 -10 0
v -3 -11 0
v -4 -11 0
v -4 -10 0
v -3 -10 0
v -4 -11 0
v -5 -11 0
v -5 -10 0
v -4 -10 0
v -5 -11 0
v -6 -11 0
v -6 -10 0
v -5 -10 0
v -6 -11 0
v -7 -11 0
v -7 -10 0
v -6 -10 0
v -7 -11 0
v -8 -11 0
v -8 -10 0
v -7 -10 0
v -8 -11 0
v -9 -11 0
v -9 -10 0
v -8 -10 0
v -9 -11 0
v -10 -11 0
v -10 -10 0
v -9 -10 0
v -10 -11 0
v -11 -11 0
v -11 -10 0
v -10 -10 0
v -11 -11 0
v -12 -11 0
v -12 -10 0
v -11 -10 0
v -12 -11 0
v -13 -11 0
v -13 -10 0
v -12 -10 0
v -13 -11 0
v -14 -11 0
v -14 -10 0
v -13 -10 0
v -14 -11 0
v -15 -11 0
v -15 -10 0
v -14 -10 0
v -15 -11 0
v -16 -11 0
v -16 -10 0
v -15 -10 0
v -16 -11 0
v -17 -11 0
v -17 -10 0
v -16 -10 0
v -17 -11 0
v -18 -11 0
v -18 -10 0
v -17 -10 0
v -18 -11 0
v -19 -11 0
v -19 -10 0
v -18 -10 0
v -19 -11 0
v -20 -11 0
v -20 -10 0
v -19 -10 0
v 0 -12 0
v -1 -12 0
v -1 -11 0
v 0 -11 0
v -1 -12 0
v -2 -12 0
v -2 -11 0
v -1 -11 0
v -2 -12 0
v -3 -12 0
v -3 -11 0
v -2 -11 0
v -3 -12 0
v -4 -12 0
v -4 -11 0
v -3 -11 0
v -4 -12 0
v -5 -12 0
v -5 -11 0
v -4 -11 0
v -5 -12 0
v -6 -12 0
v -6 -11 0
v -5 -11 0
v -6 -12 0
v -7 -12 0
v -7 -11 0
v -6 -11 0
v -7 -12 0
v -8 -12 0
v -8 -11 0
v -7 -11 0
v -8 -12 0
v -9 -12 0
v -9 -11 0
v -8 -11 0
v -9 -12 0
v -10 -12 0
v -10 -11 0
v -9 -11 0
v -10 -12 0
v -11 -12 0
v -11 -11 0
v -10 -11 0
v -11 -12 0
v -12 -12 0
v -12 -11 0
v -11 -11 0
v -12 -12 0
v -13 -12 0
v -13 -11 0
v -12 -11 0
v -13 -12 0
v -14 -12 0
v -14 -11 0
v -13 -11 0
v -14 -12 0
v -15 -12 0
v -15 -11 0
v -14 -11 0
v -15 -12 0
v -16 -12 0
v -16 -11 0
v -15 -11 0
v -16 -12 0
v -17 -12 0
v -17 -11 0
v -16 -11 0
v -17 -12 0
v -18 -12 0
v -18 -11 0
v -17 -11 0
v -18 -12 0
v -19 -12 0
v -19 -11 0
v -18 -11 0
v -19 -12 0
v -20 -12 0
v -20 -11 0
v -19 -11 0

# Texture cooridinates (Count = 45)
vt 0.125 0.6944444
vt 0.15 0.6944444
vt 0.15 0.7222222
vt 0.125 0.7222222
vt 0.2 0.7222222
vt 0.225 0.7222222
vt 0.225 0.75
vt 0.2 0.75
vt 0.175 0.7222222
vt 0.175 0.75
vt 0 0.9722222
vt 0.025 0.9722222
vt 0.025 1
vt 0 1
vt 0.175 0.6944444
vt 0.2 0.6944444
vt 0.225 0.6944444
vt 0.275 0.8333333
vt 0.3 0.8333333
vt 0.3 0.8611111
vt 0.275 0.8611111
vt 0.275 0.8055556
vt 0.3 0.8055556
vt 0.325 0.8333333
vt 0.325 0.8611111
vt 0.325 0.8055556
vt 0.05 0.8055556
vt 0.075 0.8055556
vt 0.075 0.8333333
vt 0.05 0.8333333
vt 0.1 0.8055556
vt 0.1 0.8333333
vt 0.05 0.7777778
vt 0.075 0.7777778
vt 0.075 0.8611111
vt 0.1 0.8611111
vt 0.1 0.8888889
vt 0.075 0.8888889
vt 0.125 0.8888889
vt 0.15 0.8888889
vt 0.15 0.9166667
vt 0.125 0.9166667
vt 0.1 0.9166667
vt 0.125 0.8611111
vt 0.15 0.8611111

# Normal
vn 0 0 -1

# Mesh description
g prueba2_mesh_0001

# Faces
f 1/1/1 2/2/1 3/3/1 4/4/1
f 5/5/1 6/6/1 7/7/1 8/8/1
f 9/5/1 10/6/1 11/7/1 12/8/1
f 13/1/1 14/2/1 15/3/1 16/4/1
f 17/9/1 18/5/1 19/8/1 20/10/1
f 21/9/1 22/5/1 23/8/1 24/10/1
f 25/1/1 26/2/1 27/3/1 28/4/1
f 29/9/1 30/5/1 31/8/1 32/10/1
f 33/9/1 34/5/1 35/8/1 36/10/1
f 37/1/1 38/2/1 39/3/1 40/4/1
f 41/1/1 42/2/1 43/3/1 44/4/1
f 45/11/1 46/12/1 47/13/1 48/14/1
f 49/11/1 50/12/1 51/13/1 52/14/1
f 53/11/1 54/12/1 55/13/1 56/14/1
f 57/11/1 58/12/1 59/13/1 60/14/1
f 61/11/1 62/12/1 63/13/1 64/14/1
f 65/11/1 66/12/1 67/13/1 68/14/1
f 69/11/1 70/12/1 71/13/1 72/14/1
f 73/11/1 74/12/1 75/13/1 76/14/1
f 77/11/1 78/12/1 79/13/1 80/14/1
f 81/15/1 82/16/1 83/5/1 84/9/1
f 85/15/1 86/16/1 87/5/1 88/9/1
f 89/9/1 90/5/1 91/8/1 92/10/1
f 93/9/1 94/5/1 95/8/1 96/10/1
f 97/5/1 98/6/1 99/7/1 100/8/1
f 101/16/1 102/17/1 103/6/1 104/5/1
f 105/9/1 106/5/1 107/8/1 108/10/1
f 109/9/1 110/5/1 111/8/1 112/10/1
f 113/9/1 114/5/1 115/8/1 116/10/1
f 117/16/1 118/17/1 119/6/1 120/5/1
f 121/5/1 122/6/1 123/7/1 124/8/1
f 125/9/1 126/5/1 127/8/1 128/10/1
f 129/9/1 130/5/1 131/8/1 132/10/1
f 133/9/1 134/5/1 135/8/1 136/10/1
f 137/9/1 138/5/1 139/8/1 140/10/1
f 141/5/1 142/6/1 143/7/1 144/8/1
f 145/11/1 146/12/1 147/13/1 148/14/1
f 149/9/1 150/5/1 151/8/1 152/10/1
f 153/11/1 154/12/1 155/13/1 156/14/1
f 157/11/1 158/12/1 159/13/1 160/14/1
f 161/1/1 162/2/1 163/3/1 164/4/1
f 165/9/1 166/5/1 167/8/1 168/10/1
f 169/15/1 170/16/1 171/5/1 172/9/1
f 173/16/1 174/17/1 175/6/1 176/5/1
f 177/16/1 178/17/1 179/6/1 180/5/1
f 181/15/1 182/16/1 183/5/1 184/9/1
f 185/16/1 186/17/1 187/6/1 188/5/1
f 189/16/1 190/17/1 191/6/1 192/5/1
f 193/18/1 194/19/1 195/20/1 196/21/1
f 197/16/1 198/17/1 199/6/1 200/5/1
f 201/15/1 202/16/1 203/5/1 204/9/1
f 205/5/1 206/6/1 207/7/1 208/8/1
f 209/16/1 210/17/1 211/6/1 212/5/1
f 213/16/1 214/17/1 215/6/1 216/5/1
f 217/16/1 218/17/1 219/6/1 220/5/1
f 221/16/1 222/17/1 223/6/1 224/5/1
f 225/11/1 226/12/1 227/13/1 228/14/1
f 229/5/1 230/6/1 231/7/1 232/8/1
f 233/16/1 234/17/1 235/6/1 236/5/1
f 237/5/1 238/6/1 239/7/1 240/8/1
f 241/1/1 242/2/1 243/3/1 244/4/1
f 245/9/1 246/5/1 247/8/1 248/10/1
f 249/16/1 250/17/1 251/6/1 252/5/1
f 253/5/1 254/6/1 255/7/1 256/8/1
f 257/5/1 258/6/1 259/7/1 260/8/1
f 261/9/1 262/5/1 263/8/1 264/10/1
f 265/1/1 266/2/1 267/3/1 268/4/1
f 269/1/1 270/2/1 271/3/1 272/4/1
f 273/22/1 274/23/1 275/19/1 276/18/1
f 277/11/1 278/12/1 279/13/1 280/14/1
f 281/15/1 282/16/1 283/5/1 284/9/1
f 285/15/1 286/16/1 287/5/1 288/9/1
f 289/9/1 290/5/1 291/8/1 292/10/1
f 293/9/1 294/5/1 295/8/1 296/10/1
f 297/11/1 298/12/1 299/13/1 300/14/1
f 301/11/1 302/12/1 303/13/1 304/14/1
f 305/15/1 306/16/1 307/5/1 308/9/1
f 309/11/1 310/12/1 311/13/1 312/14/1
f 313/15/1 314/16/1 315/5/1 316/9/1
f 317/5/1 318/6/1 319/7/1 320/8/1
f 321/1/1 322/2/1 323/3/1 324/4/1
f 325/1/1 326/2/1 327/3/1 328/4/1
f 329/16/1 330/17/1 331/6/1 332/5/1
f 333/15/1 334/16/1 335/5/1 336/9/1
f 337/1/1 338/2/1 339/3/1 340/4/1
f 341/9/1 342/5/1 343/8/1 344/10/1
f 345/16/1 346/17/1 347/6/1 348/5/1
f 349/1/1 350/2/1 351/3/1 352/4/1
f 353/22/1 354/23/1 355/19/1 356/18/1
f 357/19/1 358/24/1 359/25/1 360/20/1
f 361/1/1 362/2/1 363/3/1 364/4/1
f 365/15/1 366/16/1 367/5/1 368/9/1
f 369/5/1 370/6/1 371/7/1 372/8/1
f 373/16/1 374/17/1 375/6/1 376/5/1
f 377/16/1 378/17/1 379/6/1 380/5/1
f 381/9/1 382/5/1 383/8/1 384/10/1
f 385/11/1 386/12/1 387/13/1 388/14/1
f 389/9/1 390/5/1 391/8/1 392/10/1
f 393/15/1 394/16/1 395/5/1 396/9/1
f 397/11/1 398/12/1 399/13/1 400/14/1
f 401/1/1 402/2/1 403/3/1 404/4/1
f 405/1/1 406/2/1 407/3/1 408/4/1
f 409/9/1 410/5/1 411/8/1 412/10/1
f 413/1/1 414/2/1 415/3/1 416/4/1
f 417/5/1 418/6/1 419/7/1 420/8/1
f 421/9/1 422/5/1 423/8/1 424/10/1
f 425/16/1 426/17/1 427/6/1 428/5/1
f 429/1/1 430/2/1 431/3/1 432/4/1
f 433/23/1 434/26/1 435/24/1 436/19/1
f 437/23/1 438/26/1 439/24/1 440/19/1
f 441/1/1 442/2/1 443/3/1 444/4/1
f 445/15/1 446/16/1 447/5/1 448/9/1
f 449/15/1 450/16/1 451/5/1 452/9/1
f 453/9/1 454/5/1 455/8/1 456/10/1
f 457/16/1 458/17/1 459/6/1 460/5/1
f 461/9/1 462/5/1 463/8/1 464/10/1
f 465/16/1 466/17/1 467/6/1 468/5/1
f 469/5/1 470/6/1 471/7/1 472/8/1
f 473/16/1 474/17/1 475/6/1 476/5/1
f 477/1/1 478/2/1 479/3/1 480/4/1
f 481/1/1 482/2/1 483/3/1 484/4/1
f 485/15/1 486/16/1 487/5/1 488/9/1
f 489/1/1 490/2/1 491/3/1 492/4/1
f 493/16/1 494/17/1 495/6/1 496/5/1
f 497/1/1 498/2/1 499/3/1 500/4/1
f 501/15/1 502/16/1 503/5/1 504/9/1
f 505/16/1 506/17/1 507/6/1 508/5/1
f 509/5/1 510/6/1 511/7/1 512/8/1
f 513/19/1 514/24/1 515/25/1 516/20/1
f 517/19/1 518/24/1 519/25/1 520/20/1
f 521/1/1 522/2/1 523/3/1 524/4/1
f 525/11/1 526/12/1 527/13/1 528/14/1
f 529/15/1 530/16/1 531/5/1 532/9/1
f 533/5/1 534/6/1 535/7/1 536/8/1
f 537/16/1 538/17/1 539/6/1 540/5/1
f 541/16/1 542/17/1 543/6/1 544/5/1
f 545/16/1 546/17/1 547/6/1 548/5/1
f 549/15/1 550/16/1 551/5/1 552/9/1
f 553/1/1 554/2/1 555/3/1 556/4/1
f 557/19/1 558/24/1 559/25/1 560/20/1
f 561/1/1 562/2/1 563/3/1 564/4/1
f 565/1/1 566/2/1 567/3/1 568/4/1
f 569/1/1 570/2/1 571/3/1 572/4/1
f 573/1/1 574/2/1 575/3/1 576/4/1
f 577/1/1 578/2/1 579/3/1 580/4/1
f 581/15/1 582/16/1 583/5/1 584/9/1
f 585/15/1 586/16/1 587/5/1 588/9/1
f 589/1/1 590/2/1 591/3/1 592/4/1
f 593/23/1 594/26/1 595/24/1 596/19/1
f 597/23/1 598/26/1 599/24/1 600/19/1
f 601/1/1 602/2/1 603/3/1 604/4/1
f 605/1/1 606/2/1 607/3/1 608/4/1
f 609/15/1 610/16/1 611/5/1 612/9/1
f 613/15/1 614/16/1 615/5/1 616/9/1
f 617/1/1 618/2/1 619/3/1 620/4/1
f 621/15/1 622/16/1 623/5/1 624/9/1
f 625/1/1 626/2/1 627/3/1 628/4/1
f 629/1/1 630/2/1 631/3/1 632/4/1
f 633/19/1 634/24/1 635/25/1 636/20/1
f 637/19/1 638/24/1 639/25/1 640/20/1
f 641/19/1 642/24/1 643/25/1 644/20/1
f 645/19/1 646/24/1 647/25/1 648/20/1
f 649/19/1 650/24/1 651/25/1 652/20/1
f 653/19/1 654/24/1 655/25/1 656/20/1
f 657/19/1 658/24/1 659/25/1 660/20/1
f 661/19/1 662/24/1 663/25/1 664/20/1
f 665/19/1 666/24/1 667/25/1 668/20/1
f 669/19/1 670/24/1 671/25/1 672/20/1
f 673/19/1 674/24/1 675/25/1 676/20/1
f 677/19/1 678/24/1 679/25/1 680/20/1
f 681/19/1 682/24/1 683/25/1 684/20/1
f 685/19/1 686/24/1 687/25/1 688/20/1
f 689/19/1 690/24/1 691/25/1 692/20/1
f 693/19/1 694/24/1 695/25/1 696/20/1
f 697/19/1 698/24/1 699/25/1 700/20/1
f 701/19/1 702/24/1 703/25/1 704/20/1
f 705/19/1 706/24/1 707/25/1 708/20/1
f 709/19/1 710/24/1 711/25/1 712/20/1
f 713/19/1 714/24/1 715/25/1 716/20/1
f 717/23/1 718/26/1 719/24/1 720/19/1
f 721/23/1 722/26/1 723/24/1 724/19/1
f 725/23/1 726/26/1 727/24/1 728/19/1
f 729/23/1 730/26/1 731/24/1 732/19/1
f 733/23/1 734/26/1 735/24/1 736/19/1
f 737/23/1 738/26/1 739/24/1 740/19/1
f 741/23/1 742/26/1 743/24/1 744/19/1
f 745/23/1 746/26/1 747/24/1 748/19/1
f 749/23/1 750/26/1 751/24/1 752/19/1
f 753/23/1 754/26/1 755/24/1 756/19/1
f 757/23/1 758/26/1 759/24/1 760/19/1
f 761/23/1 762/26/1 763/24/1 764/19/1
f 765/23/1 766/26/1 767/24/1 768/19/1
f 769/23/1 770/26/1 771/24/1 772/19/1
f 773/23/1 774/26/1 775/24/1 776/19/1
f 777/27/1 778/28/1 779/29/1 780/30/1
f 781/28/1 782/31/1 783/32/1 784/29/1
f 785/28/1 786/31/1 787/32/1 788/29/1
f 789/28/1 790/31/1 791/32/1 792/29/1
f 793/28/1 794/31/1 795/32/1 796/29/1
f 797/28/1 798/31/1 799/32/1 800/29/1
f 801/9/1 802/5/1 803/8/1 804/10/1
f 805/9/1 806/5/1 807/8/1 808/10/1
f 809/5/1 810/6/1 811/7/1 812/8/1
f 813/5/1 814/6/1 815/7/1 816/8/1
f 817/5/1 818/6/1 819/7/1 820/8/1
f 821/9/1 822/5/1 823/8/1 824/10/1
f 825/16/1 826/17/1 827/6/1 828/5/1
f 829/16/1 830/17/1 831/6/1 832/5/1
f 833/9/1 834/5/1 835/8/1 836/10/1
f 837/16/1 838/17/1 839/6/1 840/5/1
f 841/16/1 842/17/1 843/6/1 844/5/1
f 845/9/1 846/5/1 847/8/1 848/10/1
f 849/9/1 850/5/1 851/8/1 852/10/1
f 853/5/1 854/6/1 855/7/1 856/8/1
f 857/33/1 858/34/1 859/28/1 860/27/1
f 861/35/1 862/36/1 863/37/1 864/38/1
f 865/39/1 866/40/1 867/41/1 868/42/1
f 869/37/1 870/39/1 871/42/1 872/43/1
f 873/44/1 874/45/1 875/40/1 876/39/1
f 877/37/1 878/39/1 879/42/1 880/43/1
f 881/15/1 882/16/1 883/5/1 884/9/1
f 885/16/1 886/17/1 887/6/1 888/5/1
f 889/15/1 890/16/1 891/5/1 892/9/1
f 893/15/1 894/16/1 895/5/1 896/9/1
f 897/16/1 898/17/1 899/6/1 900/5/1
f 901/15/1 902/16/1 903/5/1 904/9/1
f 905/16/1 906/17/1 907/6/1 908/5/1
f 909/15/1 910/16/1 911/5/1 912/9/1
f 913/16/1 914/17/1 915/6/1 916/5/1
f 917/16/1 918/17/1 919/6/1 920/5/1
f 921/16/1 922/17/1 923/6/1 924/5/1
f 925/15/1 926/16/1 927/5/1 928/9/1
f 929/15/1 930/16/1 931/5/1 932/9/1
f 933/16/1 934/17/1 935/6/1 936/5/1
f 937/33/1 938/34/1 939/28/1 940/27/1
f 941/37/1 942/39/1 943/42/1 944/43/1
f 945/39/1 946/40/1 947/41/1 948/42/1
f 949/35/1 950/36/1 951/37/1 952/38/1
f 953/35/1 954/36/1 955/37/1 956/38/1
f 957/44/1 958/45/1 959/40/1 960/39/1

