# Tiled2Unity generated file. Do not modify by hand.
# Wavefront file for 'prueba2_mesh_0002.obj'

# Vertices (Count = 424)
v -19 -1 0
v -20 -1 0
v -20 0 0
v -19 0 0
v -19 -2 0
v -20 -2 0
v -20 -1 0
v -19 -1 0
v 0 -3 0
v -1 -3 0
v -1 -2 0
v 0 -2 0
v -1 -3 0
v -2 -3 0
v -2 -2 0
v -1 -2 0
v -2 -3 0
v -3 -3 0
v -3 -2 0
v -2 -2 0
v -3 -3 0
v -4 -3 0
v -4 -2 0
v -3 -2 0
v -4 -3 0
v -5 -3 0
v -5 -2 0
v -4 -2 0
v -5 -3 0
v -6 -3 0
v -6 -2 0
v -5 -2 0
v -6 -3 0
v -7 -3 0
v -7 -2 0
v -6 -2 0
v -7 -3 0
v -8 -3 0
v -8 -2 0
v -7 -2 0
v -10 -3 0
v -11 -3 0
v -11 -2 0
v -10 -2 0
v -16 -3 0
v -17 -3 0
v -17 -2 0
v -16 -2 0
v -17 -3 0
v -18 -3 0
v -18 -2 0
v -17 -2 0
v -18 -3 0
v -19 -3 0
v -19 -2 0
v -18 -2 0
v -19 -3 0
v -20 -3 0
v -20 -2 0
v -19 -2 0
v 0 -4 0
v -1 -4 0
v -1 -3 0
v 0 -3 0
v -1 -4 0
v -2 -4 0
v -2 -3 0
v -1 -3 0
v -2 -4 0
v -3 -4 0
v -3 -3 0
v -2 -3 0
v -3 -4 0
v -4 -4 0
v -4 -3 0
v -3 -3 0
v -4 -4 0
v -5 -4 0
v -5 -3 0
v -4 -3 0
v -5 -4 0
v -6 -4 0
v -6 -3 0
v -5 -3 0
v -6 -4 0
v -7 -4 0
v -7 -3 0
v -6 -3 0
v -7 -4 0
v -8 -4 0
v -8 -3 0
v -7 -3 0
v -10 -4 0
v -11 -4 0
v -11 -3 0
v -10 -3 0
v -11 -4 0
v -12 -4 0
v -12 -3 0
v -11 -3 0
v -12 -4 0
v -13 -4 0
v -13 -3 0
v -12 -3 0
v -14 -4 0
v -15 -4 0
v -15 -3 0
v -14 -3 0
v -15 -4 0
v -16 -4 0
v -16 -3 0
v -15 -3 0
v -16 -4 0
v -17 -4 0
v -17 -3 0
v -16 -3 0
v -17 -4 0
v -18 -4 0
v -18 -3 0
v -17 -3 0
v -18 -4 0
v -19 -4 0
v -19 -3 0
v -18 -3 0
v -19 -4 0
v -20 -4 0
v -20 -3 0
v -19 -3 0
v 0 -5 0
v -1 -5 0
v -1 -4 0
v 0 -4 0
v -1 -5 0
v -2 -5 0
v -2 -4 0
v -1 -4 0
v -2 -5 0
v -3 -5 0
v -3 -4 0
v -2 -4 0
v -3 -5 0
v -4 -5 0
v -4 -4 0
v -3 -4 0
v -4 -5 0
v -5 -5 0
v -5 -4 0
v -4 -4 0
v -5 -5 0
v -6 -5 0
v -6 -4 0
v -5 -4 0
v -6 -5 0
v -7 -5 0
v -7 -4 0
v -6 -4 0
v -7 -5 0
v -8 -5 0
v -8 -4 0
v -7 -4 0
v -10 -5 0
v -11 -5 0
v -11 -4 0
v -10 -4 0
v -11 -5 0
v -12 -5 0
v -12 -4 0
v -11 -4 0
v -12 -5 0
v -13 -5 0
v -13 -4 0
v -12 -4 0
v -13 -5 0
v -14 -5 0
v -14 -4 0
v -13 -4 0
v -14 -5 0
v -15 -5 0
v -15 -4 0
v -14 -4 0
v -15 -5 0
v -16 -5 0
v -16 -4 0
v -15 -4 0
v -16 -5 0
v -17 -5 0
v -17 -4 0
v -16 -4 0
v -17 -5 0
v -18 -5 0
v -18 -4 0
v -17 -4 0
v -18 -5 0
v -19 -5 0
v -19 -4 0
v -18 -4 0
v -19 -5 0
v -20 -5 0
v -20 -4 0
v -19 -4 0
v 0 -6 0
v -1 -6 0
v -1 -5 0
v 0 -5 0
v -1 -6 0
v -2 -6 0
v -2 -5 0
v -1 -5 0
v -2 -6 0
v -3 -6 0
v -3 -5 0
v -2 -5 0
v -3 -6 0
v -4 -6 0
v -4 -5 0
v -3 -5 0
v -4 -6 0
v -5 -6 0
v -5 -5 0
v -4 -5 0
v -5 -6 0
v -6 -6 0
v -6 -5 0
v -5 -5 0
v -6 -6 0
v -7 -6 0
v -7 -5 0
v -6 -5 0
v -7 -6 0
v -8 -6 0
v -8 -5 0
v -7 -5 0
v -8 -6 0
v -9 -6 0
v -9 -5 0
v -8 -5 0
v -10 -6 0
v -11 -6 0
v -11 -5 0
v -10 -5 0
v -11 -6 0
v -12 -6 0
v -12 -5 0
v -11 -5 0
v -12 -6 0
v -13 -6 0
v -13 -5 0
v -12 -5 0
v -13 -6 0
v -14 -6 0
v -14 -5 0
v -13 -5 0
v -14 -6 0
v -15 -6 0
v -15 -5 0
v -14 -5 0
v -15 -6 0
v -16 -6 0
v -16 -5 0
v -15 -5 0
v -16 -6 0
v -17 -6 0
v -17 -5 0
v -16 -5 0
v -17 -6 0
v -18 -6 0
v -18 -5 0
v -17 -5 0
v -18 -6 0
v -19 -6 0
v -19 -5 0
v -18 -5 0
v -19 -6 0
v -20 -6 0
v -20 -5 0
v -19 -5 0
v -2 -7 0
v -3 -7 0
v -3 -6 0
v -2 -6 0
v -3 -7 0
v -4 -7 0
v -4 -6 0
v -3 -6 0
v -4 -7 0
v -5 -7 0
v -5 -6 0
v -4 -6 0
v -5 -7 0
v -6 -7 0
v -6 -6 0
v -5 -6 0
v -6 -7 0
v -7 -7 0
v -7 -6 0
v -6 -6 0
v -10 -7 0
v -11 -7 0
v -11 -6 0
v -10 -6 0
v -11 -7 0
v -12 -7 0
v -12 -6 0
v -11 -6 0
v -12 -7 0
v -13 -7 0
v -13 -6 0
v -12 -6 0
v -13 -7 0
v -14 -7 0
v -14 -6 0
v -13 -6 0
v -14 -7 0
v -15 -7 0
v -15 -6 0
v -14 -6 0
v -15 -7 0
v -16 -7 0
v -16 -6 0
v -15 -6 0
v -16 -7 0
v -17 -7 0
v -17 -6 0
v -16 -6 0
v -17 -7 0
v -18 -7 0
v -18 -6 0
v -17 -6 0
v -2 -8 0
v -3 -8 0
v -3 -7 0
v -2 -7 0
v -3 -8 0
v -4 -8 0
v -4 -7 0
v -3 -7 0
v -4 -8 0
v -5 -8 0
v -5 -7 0
v -4 -7 0
v -5 -8 0
v -6 -8 0
v -6 -7 0
v -5 -7 0
v -6 -8 0
v -7 -8 0
v -7 -7 0
v -6 -7 0
v -7 -8 0
v -8 -8 0
v -8 -7 0
v -7 -7 0
v -10 -8 0
v -11 -8 0
v -11 -7 0
v -10 -7 0
v -12 -8 0
v -13 -8 0
v -13 -7 0
v -12 -7 0
v -13 -8 0
v -14 -8 0
v -14 -7 0
v -13 -7 0
v -14 -8 0
v -15 -8 0
v -15 -7 0
v -14 -7 0
v -15 -8 0
v -16 -8 0
v -16 -7 0
v -15 -7 0
v 0 -11 0
v -1 -11 0
v -1 -10 0
v 0 -10 0
v -1 -11 0
v -2 -11 0
v -2 -10 0
v -1 -10 0
v -2 -11 0
v -3 -11 0
v -3 -10 0
v -2 -10 0
v -9 -11 0
v -10 -11 0
v -10 -10 0
v -9 -10 0
v -12 -11 0
v -13 -11 0
v -13 -10 0
v -12 -10 0
v -19 -11 0
v -20 -11 0
v -20 -10 0
v -19 -10 0
v 0 -12 0
v -1 -12 0
v -1 -11 0
v 0 -11 0
v -1 -12 0
v -2 -12 0
v -2 -11 0
v -1 -11 0
v -2 -12 0
v -3 -12 0
v -3 -11 0
v -2 -11 0
v -3 -12 0
v -4 -12 0
v -4 -11 0
v -3 -11 0
v -4 -12 0
v -5 -12 0
v -5 -11 0
v -4 -11 0
v -5 -12 0
v -6 -12 0
v -6 -11 0
v -5 -11 0
v -17 -12 0
v -18 -12 0
v -18 -11 0
v -17 -11 0

# Texture cooridinates (Count = 70)
vt 0.15 0.7222222
vt 0.175 0.7222222
vt 0.175 0.75
vt 0.15 0.75
vt 0.15 0.6944444
vt 0.175 0.6944444
vt 0.125 0.6666666
vt 0.15 0.6666666
vt 0.125 0.6944444
vt 0.175 0.6666666
vt 0.1 0.7222222
vt 0.125 0.7222222
vt 0.125 0.75
vt 0.1 0.75
vt 0.1 0.6388889
vt 0.125 0.6388889
vt 0.1 0.6666666
vt 0.15 0.6388889
vt 0.125 0.6111111
vt 0.15 0.6111111
vt 0.175 0.6111111
vt 0.175 0.6388889
vt 0.1 0.6944444
vt 0.1 0.5833334
vt 0.125 0.5833334
vt 0.1 0.6111111
vt 0.15 0.5833334
vt 0.175 0.5833334
vt 0.1 0.5555556
vt 0.125 0.5555556
vt 0.15 0.5555556
vt 0.175 0.5555556
vt 0.2 0.5555556
vt 0.2 0.5833334
vt 0.25 0.7222222
vt 0.275 0.7222222
vt 0.275 0.75
vt 0.25 0.75
vt 0.15 0.8888889
vt 0.175 0.8888889
vt 0.175 0.9166667
vt 0.15 0.9166667
vt 0.2 0.8888889
vt 0.2 0.9166667
vt 0.225 0.8888889
vt 0.225 0.9166667
vt 0.25 0.8888889
vt 0.25 0.9166667
vt 0.275 0.8888889
vt 0.275 0.9166667
vt 0.15 0.8611111
vt 0.175 0.8611111
vt 0.2 0.8611111
vt 0.225 0.8611111
vt 0.25 0.8611111
vt 0.275 0.8611111
vt 0.05 0.5833334
vt 0.075 0.5833334
vt 0.075 0.6111111
vt 0.05 0.6111111
vt 0.075 0.8333333
vt 0.1 0.8333333
vt 0.1 0.8611111
vt 0.075 0.8611111
vt 0.125 0.8333333
vt 0.125 0.8611111
vt 0.15 0.8333333
vt 0.275 0.6944444
vt 0.3 0.6944444
vt 0.3 0.7222222

# Normal
vn 0 0 -1

# Mesh description
g prueba2_mesh_0002

# Faces
f 1/1/1 2/2/1 3/3/1 4/4/1
f 5/5/1 6/6/1 7/2/1 8/1/1
f 9/7/1 10/8/1 11/5/1 12/9/1
f 13/7/1 14/8/1 15/5/1 16/9/1
f 17/7/1 18/8/1 19/5/1 20/9/1
f 21/7/1 22/8/1 23/5/1 24/9/1
f 25/7/1 26/8/1 27/5/1 28/9/1
f 29/7/1 30/8/1 31/5/1 32/9/1
f 33/7/1 34/8/1 35/5/1 36/9/1
f 37/8/1 38/10/1 39/6/1 40/5/1
f 41/11/1 42/12/1 43/13/1 44/14/1
f 45/1/1 46/2/1 47/3/1 48/4/1
f 49/7/1 50/8/1 51/5/1 52/9/1
f 53/7/1 54/8/1 55/5/1 56/9/1
f 57/8/1 58/10/1 59/6/1 60/5/1
f 61/15/1 62/16/1 63/7/1 64/17/1
f 65/16/1 66/18/1 67/8/1 68/7/1
f 69/19/1 70/20/1 71/18/1 72/16/1
f 73/19/1 74/20/1 75/18/1 76/16/1
f 77/19/1 78/20/1 79/18/1 80/16/1
f 81/19/1 82/20/1 83/18/1 84/16/1
f 85/16/1 86/18/1 87/8/1 88/7/1
f 89/20/1 90/21/1 91/22/1 92/18/1
f 93/17/1 94/7/1 95/9/1 96/23/1
f 97/7/1 98/8/1 99/5/1 100/9/1
f 101/11/1 102/12/1 103/13/1 104/14/1
f 105/1/1 106/2/1 107/3/1 108/4/1
f 109/7/1 110/8/1 111/5/1 112/9/1
f 113/8/1 114/10/1 115/6/1 116/5/1
f 117/15/1 118/16/1 119/7/1 120/17/1
f 121/16/1 122/18/1 123/8/1 124/7/1
f 125/18/1 126/22/1 127/10/1 128/8/1
f 129/24/1 130/25/1 131/19/1 132/26/1
f 133/25/1 134/27/1 135/20/1 136/19/1
f 137/25/1 138/27/1 139/20/1 140/19/1
f 141/25/1 142/27/1 143/20/1 144/19/1
f 145/25/1 146/27/1 147/20/1 148/19/1
f 149/25/1 150/27/1 151/20/1 152/19/1
f 153/25/1 154/27/1 155/20/1 156/19/1
f 157/27/1 158/28/1 159/21/1 160/20/1
f 161/15/1 162/16/1 163/7/1 164/17/1
f 165/16/1 166/18/1 167/8/1 168/7/1
f 169/17/1 170/7/1 171/9/1 172/23/1
f 173/7/1 174/8/1 175/5/1 176/9/1
f 177/8/1 178/10/1 179/6/1 180/5/1
f 181/19/1 182/20/1 183/18/1 184/16/1
f 185/20/1 186/21/1 187/22/1 188/18/1
f 189/25/1 190/27/1 191/20/1 192/19/1
f 193/25/1 194/27/1 195/20/1 196/19/1
f 197/27/1 198/28/1 199/21/1 200/20/1
f 201/29/1 202/30/1 203/25/1 204/24/1
f 205/30/1 206/31/1 207/27/1 208/25/1
f 209/30/1 210/31/1 211/27/1 212/25/1
f 213/30/1 214/31/1 215/27/1 216/25/1
f 217/30/1 218/31/1 219/27/1 220/25/1
f 221/31/1 222/32/1 223/28/1 224/27/1
f 225/31/1 226/32/1 227/28/1 228/27/1
f 229/31/1 230/32/1 231/28/1 232/27/1
f 233/32/1 234/33/1 235/34/1 236/28/1
f 237/24/1 238/25/1 239/19/1 240/26/1
f 241/25/1 242/27/1 243/20/1 244/19/1
f 245/15/1 246/16/1 247/7/1 248/17/1
f 249/16/1 250/18/1 251/8/1 252/7/1
f 253/18/1 254/22/1 255/10/1 256/8/1
f 257/25/1 258/27/1 259/20/1 260/19/1
f 261/27/1 262/28/1 263/21/1 264/20/1
f 265/35/1 266/36/1 267/37/1 268/38/1
f 269/30/1 270/31/1 271/27/1 272/25/1
f 273/31/1 274/32/1 275/28/1 276/27/1
f 277/39/1 278/40/1 279/41/1 280/42/1
f 281/40/1 282/43/1 283/44/1 284/41/1
f 285/43/1 286/45/1 287/46/1 288/44/1
f 289/45/1 290/47/1 291/48/1 292/46/1
f 293/47/1 294/49/1 295/50/1 296/48/1
f 297/29/1 298/30/1 299/25/1 300/24/1
f 301/30/1 302/31/1 303/27/1 304/25/1
f 305/24/1 306/25/1 307/19/1 308/26/1
f 309/25/1 310/27/1 311/20/1 312/19/1
f 313/27/1 314/28/1 315/21/1 316/20/1
f 317/35/1 318/36/1 319/37/1 320/38/1
f 321/31/1 322/32/1 323/28/1 324/27/1
f 325/32/1 326/33/1 327/34/1 328/28/1
f 329/51/1 330/52/1 331/40/1 332/39/1
f 333/52/1 334/53/1 335/43/1 336/40/1
f 337/53/1 338/54/1 339/45/1 340/43/1
f 341/54/1 342/55/1 343/47/1 344/45/1
f 345/55/1 346/56/1 347/49/1 348/47/1
f 349/57/1 350/58/1 351/59/1 352/60/1
f 353/57/1 354/58/1 355/59/1 356/60/1
f 357/29/1 358/30/1 359/25/1 360/24/1
f 361/30/1 362/31/1 363/27/1 364/25/1
f 365/31/1 366/32/1 367/28/1 368/27/1
f 369/32/1 370/33/1 371/34/1 372/28/1
f 373/61/1 374/62/1 375/63/1 376/64/1
f 377/62/1 378/65/1 379/66/1 380/63/1
f 381/65/1 382/67/1 383/51/1 384/66/1
f 385/57/1 386/58/1 387/59/1 388/60/1
f 389/57/1 390/58/1 391/59/1 392/60/1
f 393/68/1 394/69/1 395/70/1 396/36/1
f 397/61/1 398/62/1 399/63/1 400/64/1
f 401/62/1 402/65/1 403/66/1 404/63/1
f 405/65/1 406/67/1 407/51/1 408/66/1
f 409/61/1 410/62/1 411/63/1 412/64/1
f 413/62/1 414/65/1 415/66/1 416/63/1
f 417/65/1 418/67/1 419/51/1 420/66/1
f 421/68/1 422/69/1 423/70/1 424/36/1

