# Tiled2Unity generated file. Do not modify by hand.
# Wavefront file for 'toMerix3_mesh_0003.obj'

# Vertices (Count = 464)
v -8 -1 0
v -9 -1 0
v -9 0 0
v -8 0 0
v -28 -1 0
v -29 -1 0
v -29 0 0
v -28 0 0
v -29 -1 0
v -30 -1 0
v -30 0 0
v -29 0 0
v -14 -2 0
v -15 -2 0
v -15 -1 0
v -14 -1 0
v -15 -2 0
v -16 -2 0
v -16 -1 0
v -15 -1 0
v -16 -2 0
v -17 -2 0
v -17 -1 0
v -16 -1 0
v -25 -3 0
v -26 -3 0
v -26 -2 0
v -25 -2 0
v -26 -3 0
v -27 -3 0
v -27 -2 0
v -26 -2 0
v -16 -4 0
v -17 -4 0
v -17 -3 0
v -16 -3 0
v -17 -4 0
v -18 -4 0
v -18 -3 0
v -17 -3 0
v -18 -4 0
v -19 -4 0
v -19 -3 0
v -18 -3 0
v -21 -4 0
v -22 -4 0
v -22 -3 0
v -21 -3 0
v -22 -4 0
v -23 -4 0
v -23 -3 0
v -22 -3 0
v -23 -4 0
v -24 -4 0
v -24 -3 0
v -23 -3 0
v -11 -5 0
v -12 -5 0
v -12 -4 0
v -11 -4 0
v -12 -5 0
v -13 -5 0
v -13 -4 0
v -12 -4 0
v -13 -5 0
v -14 -5 0
v -14 -4 0
v -13 -4 0
v -29 -5 0
v -30 -5 0
v -30 -4 0
v -29 -4 0
v -30 -5 0
v -31 -5 0
v -31 -4 0
v -30 -4 0
v -11 -6 0
v -12 -6 0
v -12 -5 0
v -11 -5 0
v -12 -6 0
v -13 -6 0
v -13 -5 0
v -12 -5 0
v -13 -6 0
v -14 -6 0
v -14 -5 0
v -13 -5 0
v -14 -6 0
v -15 -6 0
v -15 -5 0
v -14 -5 0
v -15 -6 0
v -16 -6 0
v -16 -5 0
v -15 -5 0
v -16 -6 0
v -17 -6 0
v -17 -5 0
v -16 -5 0
v -22 -6 0
v -23 -6 0
v -23 -5 0
v -22 -5 0
v -23 -6 0
v -24 -6 0
v -24 -5 0
v -23 -5 0
v -24 -6 0
v -25 -6 0
v -25 -5 0
v -24 -5 0
v -25 -6 0
v -26 -6 0
v -26 -5 0
v -25 -5 0
v -26 -6 0
v -27 -6 0
v -27 -5 0
v -26 -5 0
v -13 -7 0
v -14 -7 0
v -14 -6 0
v -13 -6 0
v -17 -7 0
v -18 -7 0
v -18 -6 0
v -17 -6 0
v -18 -7 0
v -19 -7 0
v -19 -6 0
v -18 -6 0
v -19 -7 0
v -20 -7 0
v -20 -6 0
v -19 -6 0
v -20 -7 0
v -21 -7 0
v -21 -6 0
v -20 -6 0
v -21 -7 0
v -22 -7 0
v -22 -6 0
v -21 -6 0
v -24 -7 0
v -25 -7 0
v -25 -6 0
v -24 -6 0
v -25 -7 0
v -26 -7 0
v -26 -6 0
v -25 -6 0
v -11 -8 0
v -12 -8 0
v -12 -7 0
v -11 -7 0
v -14 -8 0
v -15 -8 0
v -15 -7 0
v -14 -7 0
v -17 -8 0
v -18 -8 0
v -18 -7 0
v -17 -7 0
v -18 -8 0
v -19 -8 0
v -19 -7 0
v -18 -7 0
v -19 -8 0
v -20 -8 0
v -20 -7 0
v -19 -7 0
v -20 -8 0
v -21 -8 0
v -21 -7 0
v -20 -7 0
v -21 -8 0
v -22 -8 0
v -22 -7 0
v -21 -7 0
v -23 -8 0
v -24 -8 0
v -24 -7 0
v -23 -7 0
v -24 -8 0
v -25 -8 0
v -25 -7 0
v -24 -7 0
v -27 -8 0
v -28 -8 0
v -28 -7 0
v -27 -7 0
v -28 -8 0
v -29 -8 0
v -29 -7 0
v -28 -7 0
v -4 -9 0
v -5 -9 0
v -5 -8 0
v -4 -8 0
v -6 -9 0
v -7 -9 0
v -7 -8 0
v -6 -8 0
v -7 -9 0
v -8 -9 0
v -8 -8 0
v -7 -8 0
v -8 -9 0
v -9 -9 0
v -9 -8 0
v -8 -8 0
v -9 -9 0
v -10 -9 0
v -10 -8 0
v -9 -8 0
v -11 -9 0
v -12 -9 0
v -12 -8 0
v -11 -8 0
v -7 -10 0
v -8 -10 0
v -8 -9 0
v -7 -9 0
v -8 -10 0
v -9 -10 0
v -9 -9 0
v -8 -9 0
v -9 -10 0
v -10 -10 0
v -10 -9 0
v -9 -9 0
v -13 -10 0
v -14 -10 0
v -14 -9 0
v -13 -9 0
v -14 -10 0
v -15 -10 0
v -15 -9 0
v -14 -9 0
v -24 -10 0
v -25 -10 0
v -25 -9 0
v -24 -9 0
v -28 -10 0
v -29 -10 0
v -29 -9 0
v -28 -9 0
v -29 -10 0
v -30 -10 0
v -30 -9 0
v -29 -9 0
v -30 -10 0
v -31 -10 0
v -31 -9 0
v -30 -9 0
v -9 -11 0
v -10 -11 0
v -10 -10 0
v -9 -10 0
v -11 -11 0
v -12 -11 0
v -12 -10 0
v -11 -10 0
v -10 -12 0
v -11 -12 0
v -11 -11 0
v -10 -11 0
v -30 -12 0
v -31 -12 0
v -31 -11 0
v -30 -11 0
v -31 -12 0
v -32 -12 0
v -32 -11 0
v -31 -11 0
v -21 -13 0
v -22 -13 0
v -22 -12 0
v -21 -12 0
v -27 -13 0
v -28 -13 0
v -28 -12 0
v -27 -12 0
v -21 -15 0
v -22 -15 0
v -22 -14 0
v -21 -14 0
v -27 -16 0
v -28 -16 0
v -28 -15 0
v -27 -15 0
v -1 -17 0
v -2 -17 0
v -2 -16 0
v -1 -16 0
v -3 -17 0
v -4 -17 0
v -4 -16 0
v -3 -16 0
v -14 -18 0
v -15 -18 0
v -15 -17 0
v -14 -17 0
v -22 -18 0
v -23 -18 0
v -23 -17 0
v -22 -17 0
v -13 -19 0
v -14 -19 0
v -14 -18 0
v -13 -18 0
v -24 -19 0
v -25 -19 0
v -25 -18 0
v -24 -18 0
v -13 -20 0
v -14 -20 0
v -14 -19 0
v -13 -19 0
v -14 -20 0
v -15 -20 0
v -15 -19 0
v -14 -19 0
v -13 -21 0
v -14 -21 0
v -14 -20 0
v -13 -20 0
v -16 -21 0
v -17 -21 0
v -17 -20 0
v -16 -20 0
v -16 -22 0
v -17 -22 0
v -17 -21 0
v -16 -21 0
v -17 -22 0
v -18 -22 0
v -18 -21 0
v -17 -21 0
v -1 -23 0
v -2 -23 0
v -2 -22 0
v -1 -22 0
v -5 -23 0
v -6 -23 0
v -6 -22 0
v -5 -22 0
v -14 -23 0
v -15 -23 0
v -15 -22 0
v -14 -22 0
v -16 -23 0
v -17 -23 0
v -17 -22 0
v -16 -22 0
v -18 -23 0
v -19 -23 0
v -19 -22 0
v -18 -22 0
v -19 -23 0
v -20 -23 0
v -20 -22 0
v -19 -22 0
v -2 -24 0
v -3 -24 0
v -3 -23 0
v -2 -23 0
v -4 -24 0
v -5 -24 0
v -5 -23 0
v -4 -23 0
v -16 -24 0
v -17 -24 0
v -17 -23 0
v -16 -23 0
v -17 -24 0
v -18 -24 0
v -18 -23 0
v -17 -23 0
v -20 -24 0
v -21 -24 0
v -21 -23 0
v -20 -23 0
v -21 -24 0
v -22 -24 0
v -22 -23 0
v -21 -23 0
v -22 -24 0
v -23 -24 0
v -23 -23 0
v -22 -23 0
v -23 -24 0
v -24 -24 0
v -24 -23 0
v -23 -23 0
v -24 -24 0
v -25 -24 0
v -25 -23 0
v -24 -23 0
v -25 -24 0
v -26 -24 0
v -26 -23 0
v -25 -23 0
v -16 -25 0
v -17 -25 0
v -17 -24 0
v -16 -24 0
v -19 -25 0
v -20 -25 0
v -20 -24 0
v -19 -24 0
v -22 -25 0
v -23 -25 0
v -23 -24 0
v -22 -24 0
v -24 -25 0
v -25 -25 0
v -25 -24 0
v -24 -24 0
v -2 -26 0
v -3 -26 0
v -3 -25 0
v -2 -25 0
v -3 -26 0
v -4 -26 0
v -4 -25 0
v -3 -25 0
v -21 -26 0
v -22 -26 0
v -22 -25 0
v -21 -25 0
v -22 -26 0
v -23 -26 0
v -23 -25 0
v -22 -25 0
v -3 -27 0
v -4 -27 0
v -4 -26 0
v -3 -26 0
v -19 -27 0
v -20 -27 0
v -20 -26 0
v -19 -26 0
v -22 -27 0
v -23 -27 0
v -23 -26 0
v -22 -26 0
v -23 -28 0
v -24 -28 0
v -24 -27 0
v -23 -27 0
v -3 -29 0
v -4 -29 0
v -4 -28 0
v -3 -28 0
v -3 -30 0
v -4 -30 0
v -4 -29 0
v -3 -29 0
v -3 -31 0
v -4 -31 0
v -4 -30 0
v -3 -30 0

# Texture cooridinates (Count = 92)
vt 0.3341493 0.812844
vt 0.3537332 0.812844
vt 0.3537332 0.8422018
vt 0.3341493 0.8422018
vt 0.06364749 0.9688073
vt 0.08323134 0.9688073
vt 0.08323134 0.9981651
vt 0.06364749 0.9981651
vt 0.08445533 0.9688073
vt 0.1040392 0.9688073
vt 0.1040392 0.9981651
vt 0.08445533 0.9981651
vt 0.04283966 0.9688073
vt 0.0624235 0.9688073
vt 0.0624235 0.9981651
vt 0.04283966 0.9981651
vt 0.1052632 0.9688073
vt 0.124847 0.9688073
vt 0.124847 0.9981651
vt 0.1052632 0.9981651
vt 0.126071 0.9688073
vt 0.1456548 0.9688073
vt 0.1456548 0.9981651
vt 0.126071 0.9981651
vt 0.1468788 0.9688073
vt 0.1664627 0.9688073
vt 0.1664627 0.9981651
vt 0.1468788 0.9981651
vt 0.7919217 0.9376147
vt 0.8115055 0.9376147
vt 0.8115055 0.9669725
vt 0.7919217 0.9669725
vt 0.8127295 0.9376147
vt 0.8323134 0.9376147
vt 0.8323134 0.9669725
vt 0.8127295 0.9669725
vt 0.8335373 0.9376147
vt 0.8531212 0.9376147
vt 0.8531212 0.9669725
vt 0.8335373 0.9669725
vt 0.7711138 0.9376147
vt 0.7906977 0.9376147
vt 0.7906977 0.9669725
vt 0.7711138 0.9669725
vt 0.5214198 0.9376147
vt 0.5410036 0.9376147
vt 0.5410036 0.9669725
vt 0.5214198 0.9669725
vt 0.08445533 0.812844
vt 0.1040392 0.812844
vt 0.1040392 0.8422018
vt 0.08445533 0.8422018
vt 0.1676867 0.7504587
vt 0.1872705 0.7504587
vt 0.1872705 0.7798165
vt 0.1676867 0.7798165
vt 0.2301102 0.8752294
vt 0.249694 0.8752294
vt 0.249694 0.9045871
vt 0.2301102 0.9045871
vt 0.5214198 0.906422
vt 0.5410036 0.906422
vt 0.5410036 0.9357798
vt 0.5214198 0.9357798
vt 0.1884945 0.7504587
vt 0.2080783 0.7504587
vt 0.2080783 0.7798165
vt 0.1884945 0.7798165
vt 0.2093023 0.8440367
vt 0.2288862 0.8440367
vt 0.2288862 0.8733945
vt 0.2093023 0.8733945
vt 0.1052632 0.812844
vt 0.124847 0.812844
vt 0.124847 0.8422018
vt 0.1052632 0.8422018
vt 0.00122399 0.8752294
vt 0.02080783 0.8752294
vt 0.02080783 0.9045871
vt 0.00122399 0.9045871
vt 0.00122399 0.7504587
vt 0.02080783 0.7504587
vt 0.02080783 0.7798165
vt 0.00122399 0.7798165
vt 0.2717258 0.7504587
vt 0.2913097 0.7504587
vt 0.2913097 0.7798165
vt 0.2717258 0.7798165
vt 0.126071 0.7816514
vt 0.1456548 0.7816514
vt 0.1456548 0.8110092
vt 0.126071 0.8110092

# Normal
vn 0 0 -1

# Mesh description
g toMerix3_mesh_0003

# Faces
f 1/1/1 2/2/1 3/3/1 4/4/1
f 5/5/1 6/6/1 7/7/1 8/8/1
f 9/9/1 10/10/1 11/11/1 12/12/1
f 13/13/1 14/14/1 15/15/1 16/16/1
f 17/5/1 18/6/1 19/7/1 20/8/1
f 21/9/1 22/10/1 23/11/1 24/12/1
f 25/5/1 26/6/1 27/7/1 28/8/1
f 29/9/1 30/10/1 31/11/1 32/12/1
f 33/13/1 34/14/1 35/15/1 36/16/1
f 37/5/1 38/6/1 39/7/1 40/8/1
f 41/9/1 42/10/1 43/11/1 44/12/1
f 45/13/1 46/14/1 47/15/1 48/16/1
f 49/5/1 50/6/1 51/7/1 52/8/1
f 53/9/1 54/10/1 55/11/1 56/12/1
f 57/17/1 58/18/1 59/19/1 60/20/1
f 61/21/1 62/22/1 63/23/1 64/24/1
f 65/25/1 66/26/1 67/27/1 68/28/1
f 69/5/1 70/6/1 71/7/1 72/8/1
f 73/9/1 74/10/1 75/11/1 76/12/1
f 77/29/1 78/30/1 79/31/1 80/32/1
f 81/33/1 82/34/1 83/35/1 84/36/1
f 85/29/1 86/30/1 87/31/1 88/32/1
f 89/33/1 90/34/1 91/35/1 92/36/1
f 93/29/1 94/30/1 95/31/1 96/32/1
f 97/37/1 98/38/1 99/39/1 100/40/1
f 101/41/1 102/42/1 103/43/1 104/44/1
f 105/29/1 106/30/1 107/31/1 108/32/1
f 109/33/1 110/34/1 111/35/1 112/36/1
f 113/29/1 114/30/1 115/31/1 116/32/1
f 117/37/1 118/38/1 119/39/1 120/40/1
f 121/1/1 122/2/1 123/3/1 124/4/1
f 125/45/1 126/46/1 127/47/1 128/48/1
f 129/45/1 130/46/1 131/47/1 132/48/1
f 133/45/1 134/46/1 135/47/1 136/48/1
f 137/45/1 138/46/1 139/47/1 140/48/1
f 141/45/1 142/46/1 143/47/1 144/48/1
f 145/49/1 146/50/1 147/51/1 148/52/1
f 149/53/1 150/54/1 151/55/1 152/56/1
f 153/57/1 154/58/1 155/59/1 156/60/1
f 157/49/1 158/50/1 159/51/1 160/52/1
f 161/61/1 162/62/1 163/63/1 164/64/1
f 165/61/1 166/62/1 167/63/1 168/64/1
f 169/61/1 170/62/1 171/63/1 172/64/1
f 173/61/1 174/62/1 175/63/1 176/64/1
f 177/61/1 178/62/1 179/63/1 180/64/1
f 181/57/1 182/58/1 183/59/1 184/60/1
f 185/65/1 186/66/1 187/67/1 188/68/1
f 189/5/1 190/6/1 191/7/1 192/8/1
f 193/9/1 194/10/1 195/11/1 196/12/1
f 197/69/1 198/70/1 199/71/1 200/72/1
f 201/65/1 202/66/1 203/67/1 204/68/1
f 205/65/1 206/66/1 207/67/1 208/68/1
f 209/49/1 210/50/1 211/51/1 212/52/1
f 213/65/1 214/66/1 215/67/1 216/68/1
f 217/49/1 218/50/1 219/51/1 220/52/1
f 221/73/1 222/74/1 223/75/1 224/76/1
f 225/57/1 226/58/1 227/59/1 228/60/1
f 229/77/1 230/78/1 231/79/1 232/80/1
f 233/81/1 234/82/1 235/83/1 236/84/1
f 237/49/1 238/50/1 239/51/1 240/52/1
f 241/85/1 242/86/1 243/87/1 244/88/1
f 245/17/1 246/18/1 247/19/1 248/20/1
f 249/21/1 250/22/1 251/23/1 252/24/1
f 253/25/1 254/26/1 255/27/1 256/28/1
f 257/89/1 258/90/1 259/91/1 260/92/1
f 261/1/1 262/2/1 263/3/1 264/4/1
f 265/77/1 266/78/1 267/79/1 268/80/1
f 269/5/1 270/6/1 271/7/1 272/8/1
f 273/9/1 274/10/1 275/11/1 276/12/1
f 277/41/1 278/42/1 279/43/1 280/44/1
f 281/37/1 282/38/1 283/39/1 284/40/1
f 285/1/1 286/2/1 287/3/1 288/4/1
f 289/1/1 290/2/1 291/3/1 292/4/1
f 293/1/1 294/2/1 295/3/1 296/4/1
f 297/73/1 298/74/1 299/75/1 300/76/1
f 301/77/1 302/78/1 303/79/1 304/80/1
f 305/1/1 306/2/1 307/3/1 308/4/1
f 309/57/1 310/58/1 311/59/1 312/60/1
f 313/1/1 314/2/1 315/3/1 316/4/1
f 317/49/1 318/50/1 319/51/1 320/52/1
f 321/1/1 322/2/1 323/3/1 324/4/1
f 325/77/1 326/78/1 327/79/1 328/80/1
f 329/37/1 330/38/1 331/39/1 332/40/1
f 333/1/1 334/2/1 335/3/1 336/4/1
f 337/37/1 338/38/1 339/39/1 340/40/1
f 341/38/1 342/37/1 343/40/1 344/39/1
f 345/37/1 346/38/1 347/39/1 348/40/1
f 349/57/1 350/58/1 351/59/1 352/60/1
f 353/65/1 354/66/1 355/67/1 356/68/1
f 357/29/1 358/30/1 359/31/1 360/32/1
f 361/37/1 362/38/1 363/39/1 364/40/1
f 365/73/1 366/74/1 367/75/1 368/76/1
f 369/85/1 370/86/1 371/87/1 372/88/1
f 373/49/1 374/50/1 375/51/1 376/52/1
f 377/57/1 378/58/1 379/59/1 380/60/1
f 381/29/1 382/30/1 383/31/1 384/32/1
f 385/33/1 386/34/1 387/35/1 388/36/1
f 389/29/1 390/30/1 391/31/1 392/32/1
f 393/33/1 394/34/1 395/35/1 396/36/1
f 397/29/1 398/30/1 399/31/1 400/32/1
f 401/37/1 402/38/1 403/39/1 404/40/1
f 405/1/1 406/2/1 407/3/1 408/4/1
f 409/69/1 410/70/1 411/71/1 412/72/1
f 413/57/1 414/58/1 415/59/1 416/60/1
f 417/1/1 418/2/1 419/3/1 420/4/1
f 421/89/1 422/90/1 423/91/1 424/92/1
f 425/1/1 426/2/1 427/3/1 428/4/1
f 429/89/1 430/90/1 431/91/1 432/92/1
f 433/81/1 434/82/1 435/83/1 436/84/1
f 437/49/1 438/50/1 439/51/1 440/52/1
f 441/1/1 442/2/1 443/3/1 444/4/1
f 445/53/1 446/54/1 447/55/1 448/56/1
f 449/49/1 450/50/1 451/51/1 452/52/1
f 453/77/1 454/78/1 455/79/1 456/80/1
f 457/81/1 458/82/1 459/83/1 460/84/1
f 461/85/1 462/86/1 463/87/1 464/88/1

