# Tiled2Unity generated file. Do not modify by hand.
# Wavefront file for 'inn_1_mesh_0004.obj'

# Vertices (Count = 256)
v -1 -3 0
v -2 -3 0
v -2 -2 0
v -1 -2 0
v -2 -3 0
v -3 -3 0
v -3 -2 0
v -2 -2 0
v -3 -3 0
v -4 -3 0
v -4 -2 0
v -3 -2 0
v -4 -3 0
v -5 -3 0
v -5 -2 0
v -4 -2 0
v -5 -3 0
v -6 -3 0
v -6 -2 0
v -5 -2 0
v -6 -3 0
v -7 -3 0
v -7 -2 0
v -6 -2 0
v -7 -3 0
v -8 -3 0
v -8 -2 0
v -7 -2 0
v -8 -3 0
v -9 -3 0
v -9 -2 0
v -8 -2 0
v -9 -3 0
v -10 -3 0
v -10 -2 0
v -9 -2 0
v -10 -3 0
v -11 -3 0
v -11 -2 0
v -10 -2 0
v -11 -3 0
v -12 -3 0
v -12 -2 0
v -11 -2 0
v -12 -3 0
v -13 -3 0
v -13 -2 0
v -12 -2 0
v -13 -3 0
v -14 -3 0
v -14 -2 0
v -13 -2 0
v -14 -3 0
v -15 -3 0
v -15 -2 0
v -14 -2 0
v -15 -3 0
v -16 -3 0
v -16 -2 0
v -15 -2 0
v -16 -3 0
v -17 -3 0
v -17 -2 0
v -16 -2 0
v -17 -3 0
v -18 -3 0
v -18 -2 0
v -17 -2 0
v -18 -3 0
v -19 -3 0
v -19 -2 0
v -18 -2 0
v -1 -4 0
v -2 -4 0
v -2 -3 0
v -1 -3 0
v -13 -4 0
v -14 -4 0
v -14 -3 0
v -13 -3 0
v -14 -4 0
v -15 -4 0
v -15 -3 0
v -14 -3 0
v -18 -4 0
v -19 -4 0
v -19 -3 0
v -18 -3 0
v -1 -5 0
v -2 -5 0
v -2 -4 0
v -1 -4 0
v -13 -5 0
v -14 -5 0
v -14 -4 0
v -13 -4 0
v -14 -5 0
v -15 -5 0
v -15 -4 0
v -14 -4 0
v -18 -5 0
v -19 -5 0
v -19 -4 0
v -18 -4 0
v -1 -6 0
v -2 -6 0
v -2 -5 0
v -1 -5 0
v -18 -6 0
v -19 -6 0
v -19 -5 0
v -18 -5 0
v -1 -7 0
v -2 -7 0
v -2 -6 0
v -1 -6 0
v -8 -7 0
v -9 -7 0
v -9 -6 0
v -8 -6 0
v -9 -7 0
v -10 -7 0
v -10 -6 0
v -9 -6 0
v -10 -7 0
v -11 -7 0
v -11 -6 0
v -10 -6 0
v -11 -7 0
v -12 -7 0
v -12 -6 0
v -11 -6 0
v -18 -7 0
v -19 -7 0
v -19 -6 0
v -18 -6 0
v -1 -8 0
v -2 -8 0
v -2 -7 0
v -1 -7 0
v -2 -8 0
v -3 -8 0
v -3 -7 0
v -2 -7 0
v -3 -8 0
v -4 -8 0
v -4 -7 0
v -3 -7 0
v -18 -8 0
v -19 -8 0
v -19 -7 0
v -18 -7 0
v -3 -9 0
v -4 -9 0
v -4 -8 0
v -3 -8 0
v -18 -9 0
v -19 -9 0
v -19 -8 0
v -18 -8 0
v -3 -10 0
v -4 -10 0
v -4 -9 0
v -3 -9 0
v -13 -10 0
v -14 -10 0
v -14 -9 0
v -13 -9 0
v -14 -10 0
v -15 -10 0
v -15 -9 0
v -14 -9 0
v -18 -10 0
v -19 -10 0
v -19 -9 0
v -18 -9 0
v -3 -11 0
v -4 -11 0
v -4 -10 0
v -3 -10 0
v -4 -11 0
v -5 -11 0
v -5 -10 0
v -4 -10 0
v -5 -11 0
v -6 -11 0
v -6 -10 0
v -5 -10 0
v -6 -11 0
v -7 -11 0
v -7 -10 0
v -6 -10 0
v -7 -11 0
v -8 -11 0
v -8 -10 0
v -7 -10 0
v -9 -11 0
v -10 -11 0
v -10 -10 0
v -9 -10 0
v -10 -11 0
v -11 -11 0
v -11 -10 0
v -10 -10 0
v -11 -11 0
v -12 -11 0
v -12 -10 0
v -11 -10 0
v -12 -11 0
v -13 -11 0
v -13 -10 0
v -12 -10 0
v -13 -11 0
v -14 -11 0
v -14 -10 0
v -13 -10 0
v -14 -11 0
v -15 -11 0
v -15 -10 0
v -14 -10 0
v -18 -11 0
v -19 -11 0
v -19 -10 0
v -18 -10 0
v -7 -12 0
v -8 -12 0
v -8 -11 0
v -7 -11 0
v -8 -12 0
v -9 -12 0
v -9 -11 0
v -8 -11 0
v -9 -12 0
v -10 -12 0
v -10 -11 0
v -9 -11 0
v -14 -12 0
v -15 -12 0
v -15 -11 0
v -14 -11 0
v -15 -12 0
v -16 -12 0
v -16 -11 0
v -15 -11 0
v -16 -12 0
v -17 -12 0
v -17 -11 0
v -16 -11 0
v -17 -12 0
v -18 -12 0
v -18 -11 0
v -17 -11 0
v -18 -12 0
v -19 -12 0
v -19 -11 0
v -18 -11 0

# Texture cooridinates (Count = 44)
vt 0.500612 0.906422
vt 0.5201958 0.906422
vt 0.5201958 0.9357798
vt 0.500612 0.9357798
vt 0.6046512 0.906422
vt 0.624235 0.906422
vt 0.624235 0.9357798
vt 0.6046512 0.9357798
vt 0.7919217 0.8752294
vt 0.8115055 0.8752294
vt 0.8115055 0.9045871
vt 0.7919217 0.9045871
vt 0.7711138 0.8752294
vt 0.7906977 0.8752294
vt 0.7906977 0.9045871
vt 0.7711138 0.9045871
vt 0.2705018 0.8440367
vt 0.2705018 0.8733945
vt 0.250918 0.8733945
vt 0.250918 0.8440367
vt 0.8543451 0.8752294
vt 0.873929 0.8752294
vt 0.873929 0.9045871
vt 0.8543451 0.9045871
vt 0.8127295 0.8752294
vt 0.8323134 0.8752294
vt 0.8323134 0.9045871
vt 0.8127295 0.9045871
vt 0.1676867 0.9376147
vt 0.1872705 0.9376147
vt 0.1872705 0.9669725
vt 0.1676867 0.9669725
vt 0.1456548 0.8440367
vt 0.126071 0.8440367
vt 0.126071 0.8733945
vt 0.1456548 0.8733945
vt 0.08323134 0.7816514
vt 0.06364749 0.7816514
vt 0.06364749 0.8110092
vt 0.08323134 0.8110092
vt 0.2093023 0.8440367
vt 0.2288862 0.8440367
vt 0.2288862 0.8733945
vt 0.2093023 0.8733945

# Normal
vn 0 0 -1

# Mesh description
g inn_1_mesh_0004

# Faces
f 1/1/1 2/2/1 3/3/1 4/4/1
f 5/5/1 6/6/1 7/7/1 8/8/1
f 9/9/1 10/10/1 11/11/1 12/12/1
f 13/5/1 14/6/1 15/7/1 16/8/1
f 17/9/1 18/10/1 19/11/1 20/12/1
f 21/13/1 22/14/1 23/15/1 24/16/1
f 25/9/1 26/10/1 27/11/1 28/12/1
f 29/9/1 30/10/1 31/11/1 32/12/1
f 33/13/1 34/14/1 35/15/1 36/16/1
f 37/9/1 38/10/1 39/11/1 40/12/1
f 41/5/1 42/6/1 43/7/1 44/8/1
f 45/9/1 46/10/1 47/11/1 48/12/1
f 49/2/1 50/1/1 51/4/1 52/3/1
f 53/1/1 54/2/1 55/3/1 56/4/1
f 57/5/1 58/6/1 59/7/1 60/8/1
f 61/9/1 62/10/1 63/11/1 64/12/1
f 65/13/1 66/14/1 67/15/1 68/16/1
f 69/2/1 70/1/1 71/4/1 72/3/1
f 73/17/1 74/18/1 75/19/1 76/20/1
f 77/18/1 78/17/1 79/20/1 80/19/1
f 81/17/1 82/18/1 83/19/1 84/20/1
f 85/18/1 86/17/1 87/20/1 88/19/1
f 89/17/1 90/18/1 91/19/1 92/20/1
f 93/21/1 94/22/1 95/23/1 96/24/1
f 97/25/1 98/26/1 99/27/1 100/28/1
f 101/18/1 102/17/1 103/20/1 104/19/1
f 105/17/1 106/18/1 107/19/1 108/20/1
f 109/18/1 110/17/1 111/20/1 112/19/1
f 113/17/1 114/18/1 115/19/1 116/20/1
f 117/29/1 118/30/1 119/31/1 120/32/1
f 121/29/1 122/30/1 123/31/1 124/32/1
f 125/29/1 126/30/1 127/31/1 128/32/1
f 129/29/1 130/30/1 131/31/1 132/32/1
f 133/18/1 134/17/1 135/20/1 136/19/1
f 137/33/1 138/34/1 139/35/1 140/36/1
f 141/20/1 142/17/1 143/18/1 144/19/1
f 145/37/1 146/38/1 147/39/1 148/40/1
f 149/18/1 150/17/1 151/20/1 152/19/1
f 153/17/1 154/18/1 155/19/1 156/20/1
f 157/18/1 158/17/1 159/20/1 160/19/1
f 161/17/1 162/18/1 163/19/1 164/20/1
f 165/38/1 166/37/1 167/40/1 168/39/1
f 169/37/1 170/38/1 171/39/1 172/40/1
f 173/18/1 174/17/1 175/20/1 176/19/1
f 177/33/1 178/34/1 179/35/1 180/36/1
f 181/20/1 182/17/1 183/18/1 184/19/1
f 185/20/1 186/17/1 187/18/1 188/19/1
f 189/20/1 190/17/1 191/18/1 192/19/1
f 193/37/1 194/38/1 195/39/1 196/40/1
f 197/38/1 198/37/1 199/40/1 200/39/1
f 201/20/1 202/17/1 203/18/1 204/19/1
f 205/20/1 206/17/1 207/18/1 208/19/1
f 209/20/1 210/17/1 211/18/1 212/19/1
f 213/34/1 214/33/1 215/36/1 216/35/1
f 217/17/1 218/18/1 219/19/1 220/20/1
f 221/18/1 222/17/1 223/20/1 224/19/1
f 225/33/1 226/34/1 227/35/1 228/36/1
f 229/41/1 230/42/1 231/43/1 232/44/1
f 233/34/1 234/33/1 235/36/1 236/35/1
f 237/33/1 238/34/1 239/35/1 240/36/1
f 241/20/1 242/17/1 243/18/1 244/19/1
f 245/20/1 246/17/1 247/18/1 248/19/1
f 249/20/1 250/17/1 251/18/1 252/19/1
f 253/34/1 254/33/1 255/36/1 256/35/1

