# Tiled2Unity generated file. Do not modify by hand.
# Wavefront file for 'waterTemple_3_mesh_0001.obj'

# Vertices (Count = 720)
v -3 -4 0
v -4 -4 0
v -4 -3 0
v -3 -3 0
v -4 -4 0
v -5 -4 0
v -5 -3 0
v -4 -3 0
v -5 -4 0
v -6 -4 0
v -6 -3 0
v -5 -3 0
v -6 -4 0
v -7 -4 0
v -7 -3 0
v -6 -3 0
v -7 -4 0
v -8 -4 0
v -8 -3 0
v -7 -3 0
v -8 -4 0
v -9 -4 0
v -9 -3 0
v -8 -3 0
v -9 -4 0
v -10 -4 0
v -10 -3 0
v -9 -3 0
v -10 -4 0
v -11 -4 0
v -11 -3 0
v -10 -3 0
v -11 -4 0
v -12 -4 0
v -12 -3 0
v -11 -3 0
v -12 -4 0
v -13 -4 0
v -13 -3 0
v -12 -3 0
v -13 -4 0
v -14 -4 0
v -14 -3 0
v -13 -3 0
v -14 -4 0
v -15 -4 0
v -15 -3 0
v -14 -3 0
v -15 -4 0
v -16 -4 0
v -16 -3 0
v -15 -3 0
v -16 -4 0
v -17 -4 0
v -17 -3 0
v -16 -3 0
v -17 -4 0
v -18 -4 0
v -18 -3 0
v -17 -3 0
v -3 -5 0
v -4 -5 0
v -4 -4 0
v -3 -4 0
v -4 -5 0
v -5 -5 0
v -5 -4 0
v -4 -4 0
v -5 -5 0
v -6 -5 0
v -6 -4 0
v -5 -4 0
v -6 -5 0
v -7 -5 0
v -7 -4 0
v -6 -4 0
v -7 -5 0
v -8 -5 0
v -8 -4 0
v -7 -4 0
v -8 -5 0
v -9 -5 0
v -9 -4 0
v -8 -4 0
v -9 -5 0
v -10 -5 0
v -10 -4 0
v -9 -4 0
v -10 -5 0
v -11 -5 0
v -11 -4 0
v -10 -4 0
v -11 -5 0
v -12 -5 0
v -12 -4 0
v -11 -4 0
v -12 -5 0
v -13 -5 0
v -13 -4 0
v -12 -4 0
v -13 -5 0
v -14 -5 0
v -14 -4 0
v -13 -4 0
v -14 -5 0
v -15 -5 0
v -15 -4 0
v -14 -4 0
v -15 -5 0
v -16 -5 0
v -16 -4 0
v -15 -4 0
v -16 -5 0
v -17 -5 0
v -17 -4 0
v -16 -4 0
v -17 -5 0
v -18 -5 0
v -18 -4 0
v -17 -4 0
v -3 -6 0
v -4 -6 0
v -4 -5 0
v -3 -5 0
v -4 -6 0
v -5 -6 0
v -5 -5 0
v -4 -5 0
v -5 -6 0
v -6 -6 0
v -6 -5 0
v -5 -5 0
v -6 -6 0
v -7 -6 0
v -7 -5 0
v -6 -5 0
v -7 -6 0
v -8 -6 0
v -8 -5 0
v -7 -5 0
v -8 -6 0
v -9 -6 0
v -9 -5 0
v -8 -5 0
v -9 -6 0
v -10 -6 0
v -10 -5 0
v -9 -5 0
v -10 -6 0
v -11 -6 0
v -11 -5 0
v -10 -5 0
v -11 -6 0
v -12 -6 0
v -12 -5 0
v -11 -5 0
v -12 -6 0
v -13 -6 0
v -13 -5 0
v -12 -5 0
v -13 -6 0
v -14 -6 0
v -14 -5 0
v -13 -5 0
v -14 -6 0
v -15 -6 0
v -15 -5 0
v -14 -5 0
v -15 -6 0
v -16 -6 0
v -16 -5 0
v -15 -5 0
v -16 -6 0
v -17 -6 0
v -17 -5 0
v -16 -5 0
v -17 -6 0
v -18 -6 0
v -18 -5 0
v -17 -5 0
v -3 -7 0
v -4 -7 0
v -4 -6 0
v -3 -6 0
v -4 -7 0
v -5 -7 0
v -5 -6 0
v -4 -6 0
v -5 -7 0
v -6 -7 0
v -6 -6 0
v -5 -6 0
v -6 -7 0
v -7 -7 0
v -7 -6 0
v -6 -6 0
v -7 -7 0
v -8 -7 0
v -8 -6 0
v -7 -6 0
v -8 -7 0
v -9 -7 0
v -9 -6 0
v -8 -6 0
v -9 -7 0
v -10 -7 0
v -10 -6 0
v -9 -6 0
v -10 -7 0
v -11 -7 0
v -11 -6 0
v -10 -6 0
v -11 -7 0
v -12 -7 0
v -12 -6 0
v -11 -6 0
v -12 -7 0
v -13 -7 0
v -13 -6 0
v -12 -6 0
v -13 -7 0
v -14 -7 0
v -14 -6 0
v -13 -6 0
v -14 -7 0
v -15 -7 0
v -15 -6 0
v -14 -6 0
v -15 -7 0
v -16 -7 0
v -16 -6 0
v -15 -6 0
v -16 -7 0
v -17 -7 0
v -17 -6 0
v -16 -6 0
v -17 -7 0
v -18 -7 0
v -18 -6 0
v -17 -6 0
v -3 -8 0
v -4 -8 0
v -4 -7 0
v -3 -7 0
v -4 -8 0
v -5 -8 0
v -5 -7 0
v -4 -7 0
v -16 -8 0
v -17 -8 0
v -17 -7 0
v -16 -7 0
v -17 -8 0
v -18 -8 0
v -18 -7 0
v -17 -7 0
v -3 -9 0
v -4 -9 0
v -4 -8 0
v -3 -8 0
v -4 -9 0
v -5 -9 0
v -5 -8 0
v -4 -8 0
v -6 -9 0
v -7 -9 0
v -7 -8 0
v -6 -8 0
v -7 -9 0
v -8 -9 0
v -8 -8 0
v -7 -8 0
v -8 -9 0
v -9 -9 0
v -9 -8 0
v -8 -8 0
v -9 -9 0
v -10 -9 0
v -10 -8 0
v -9 -8 0
v -10 -9 0
v -11 -9 0
v -11 -8 0
v -10 -8 0
v -11 -9 0
v -12 -9 0
v -12 -8 0
v -11 -8 0
v -12 -9 0
v -13 -9 0
v -13 -8 0
v -12 -8 0
v -13 -9 0
v -14 -9 0
v -14 -8 0
v -13 -8 0
v -14 -9 0
v -15 -9 0
v -15 -8 0
v -14 -8 0
v -16 -9 0
v -17 -9 0
v -17 -8 0
v -16 -8 0
v -17 -9 0
v -18 -9 0
v -18 -8 0
v -17 -8 0
v -3 -10 0
v -4 -10 0
v -4 -9 0
v -3 -9 0
v -4 -10 0
v -5 -10 0
v -5 -9 0
v -4 -9 0
v -6 -10 0
v -7 -10 0
v -7 -9 0
v -6 -9 0
v -7 -10 0
v -8 -10 0
v -8 -9 0
v -7 -9 0
v -8 -10 0
v -9 -10 0
v -9 -9 0
v -8 -9 0
v -9 -10 0
v -10 -10 0
v -10 -9 0
v -9 -9 0
v -10 -10 0
v -11 -10 0
v -11 -9 0
v -10 -9 0
v -11 -10 0
v -12 -10 0
v -12 -9 0
v -11 -9 0
v -12 -10 0
v -13 -10 0
v -13 -9 0
v -12 -9 0
v -13 -10 0
v -14 -10 0
v -14 -9 0
v -13 -9 0
v -14 -10 0
v -15 -10 0
v -15 -9 0
v -14 -9 0
v -16 -10 0
v -17 -10 0
v -17 -9 0
v -16 -9 0
v -17 -10 0
v -18 -10 0
v -18 -9 0
v -17 -9 0
v -3 -11 0
v -4 -11 0
v -4 -10 0
v -3 -10 0
v -4 -11 0
v -5 -11 0
v -5 -10 0
v -4 -10 0
v -6 -11 0
v -7 -11 0
v -7 -10 0
v -6 -10 0
v -7 -11 0
v -8 -11 0
v -8 -10 0
v -7 -10 0
v -8 -11 0
v -9 -11 0
v -9 -10 0
v -8 -10 0
v -9 -11 0
v -10 -11 0
v -10 -10 0
v -9 -10 0
v -10 -11 0
v -11 -11 0
v -11 -10 0
v -10 -10 0
v -11 -11 0
v -12 -11 0
v -12 -10 0
v -11 -10 0
v -12 -11 0
v -13 -11 0
v -13 -10 0
v -12 -10 0
v -13 -11 0
v -14 -11 0
v -14 -10 0
v -13 -10 0
v -14 -11 0
v -15 -11 0
v -15 -10 0
v -14 -10 0
v -16 -11 0
v -17 -11 0
v -17 -10 0
v -16 -10 0
v -17 -11 0
v -18 -11 0
v -18 -10 0
v -17 -10 0
v -3 -12 0
v -4 -12 0
v -4 -11 0
v -3 -11 0
v -4 -12 0
v -5 -12 0
v -5 -11 0
v -4 -11 0
v -6 -12 0
v -7 -12 0
v -7 -11 0
v -6 -11 0
v -7 -12 0
v -8 -12 0
v -8 -11 0
v -7 -11 0
v -8 -12 0
v -9 -12 0
v -9 -11 0
v -8 -11 0
v -9 -12 0
v -10 -12 0
v -10 -11 0
v -9 -11 0
v -10 -12 0
v -11 -12 0
v -11 -11 0
v -10 -11 0
v -11 -12 0
v -12 -12 0
v -12 -11 0
v -11 -11 0
v -12 -12 0
v -13 -12 0
v -13 -11 0
v -12 -11 0
v -13 -12 0
v -14 -12 0
v -14 -11 0
v -13 -11 0
v -14 -12 0
v -15 -12 0
v -15 -11 0
v -14 -11 0
v -16 -12 0
v -17 -12 0
v -17 -11 0
v -16 -11 0
v -17 -12 0
v -18 -12 0
v -18 -11 0
v -17 -11 0
v -3 -13 0
v -4 -13 0
v -4 -12 0
v -3 -12 0
v -4 -13 0
v -5 -13 0
v -5 -12 0
v -4 -12 0
v -6 -13 0
v -7 -13 0
v -7 -12 0
v -6 -12 0
v -7 -13 0
v -8 -13 0
v -8 -12 0
v -7 -12 0
v -8 -13 0
v -9 -13 0
v -9 -12 0
v -8 -12 0
v -9 -13 0
v -10 -13 0
v -10 -12 0
v -9 -12 0
v -10 -13 0
v -11 -13 0
v -11 -12 0
v -10 -12 0
v -11 -13 0
v -12 -13 0
v -12 -12 0
v -11 -12 0
v -12 -13 0
v -13 -13 0
v -13 -12 0
v -12 -12 0
v -13 -13 0
v -14 -13 0
v -14 -12 0
v -13 -12 0
v -14 -13 0
v -15 -13 0
v -15 -12 0
v -14 -12 0
v -16 -13 0
v -17 -13 0
v -17 -12 0
v -16 -12 0
v -17 -13 0
v -18 -13 0
v -18 -12 0
v -17 -12 0
v -3 -14 0
v -4 -14 0
v -4 -13 0
v -3 -13 0
v -4 -14 0
v -5 -14 0
v -5 -13 0
v -4 -13 0
v -10 -14 0
v -11 -14 0
v -11 -13 0
v -10 -13 0
v -16 -14 0
v -17 -14 0
v -17 -13 0
v -16 -13 0
v -17 -14 0
v -18 -14 0
v -18 -13 0
v -17 -13 0
v -3 -15 0
v -4 -15 0
v -4 -14 0
v -3 -14 0
v -4 -15 0
v -5 -15 0
v -5 -14 0
v -4 -14 0
v -5 -15 0
v -6 -15 0
v -6 -14 0
v -5 -14 0
v -6 -15 0
v -7 -15 0
v -7 -14 0
v -6 -14 0
v -7 -15 0
v -8 -15 0
v -8 -14 0
v -7 -14 0
v -8 -15 0
v -9 -15 0
v -9 -14 0
v -8 -14 0
v -9 -15 0
v -10 -15 0
v -10 -14 0
v -9 -14 0
v -10 -15 0
v -11 -15 0
v -11 -14 0
v -10 -14 0
v -11 -15 0
v -12 -15 0
v -12 -14 0
v -11 -14 0
v -12 -15 0
v -13 -15 0
v -13 -14 0
v -12 -14 0
v -13 -15 0
v -14 -15 0
v -14 -14 0
v -13 -14 0
v -14 -15 0
v -15 -15 0
v -15 -14 0
v -14 -14 0
v -15 -15 0
v -16 -15 0
v -16 -14 0
v -15 -14 0
v -16 -15 0
v -17 -15 0
v -17 -14 0
v -16 -14 0
v -17 -15 0
v -18 -15 0
v -18 -14 0
v -17 -14 0
v -3 -16 0
v -4 -16 0
v -4 -15 0
v -3 -15 0
v -4 -16 0
v -5 -16 0
v -5 -15 0
v -4 -15 0
v -5 -16 0
v -6 -16 0
v -6 -15 0
v -5 -15 0
v -6 -16 0
v -7 -16 0
v -7 -15 0
v -6 -15 0
v -7 -16 0
v -8 -16 0
v -8 -15 0
v -7 -15 0
v -8 -16 0
v -9 -16 0
v -9 -15 0
v -8 -15 0
v -9 -16 0
v -10 -16 0
v -10 -15 0
v -9 -15 0
v -10 -16 0
v -11 -16 0
v -11 -15 0
v -10 -15 0
v -11 -16 0
v -12 -16 0
v -12 -15 0
v -11 -15 0
v -12 -16 0
v -13 -16 0
v -13 -15 0
v -12 -15 0
v -13 -16 0
v -14 -16 0
v -14 -15 0
v -13 -15 0
v -14 -16 0
v -15 -16 0
v -15 -15 0
v -14 -15 0
v -15 -16 0
v -16 -16 0
v -16 -15 0
v -15 -15 0
v -16 -16 0
v -17 -16 0
v -17 -15 0
v -16 -15 0
v -17 -16 0
v -18 -16 0
v -18 -15 0
v -17 -15 0
v -3 -17 0
v -4 -17 0
v -4 -16 0
v -3 -16 0
v -4 -17 0
v -5 -17 0
v -5 -16 0
v -4 -16 0
v -5 -17 0
v -6 -17 0
v -6 -16 0
v -5 -16 0
v -6 -17 0
v -7 -17 0
v -7 -16 0
v -6 -16 0
v -7 -17 0
v -8 -17 0
v -8 -16 0
v -7 -16 0
v -8 -17 0
v -9 -17 0
v -9 -16 0
v -8 -16 0
v -9 -17 0
v -10 -17 0
v -10 -16 0
v -9 -16 0
v -10 -17 0
v -11 -17 0
v -11 -16 0
v -10 -16 0
v -11 -17 0
v -12 -17 0
v -12 -16 0
v -11 -16 0
v -12 -17 0
v -13 -17 0
v -13 -16 0
v -12 -16 0
v -13 -17 0
v -14 -17 0
v -14 -16 0
v -13 -16 0
v -14 -17 0
v -15 -17 0
v -15 -16 0
v -14 -16 0
v -15 -17 0
v -16 -17 0
v -16 -16 0
v -15 -16 0
v -16 -17 0
v -17 -17 0
v -17 -16 0
v -16 -16 0
v -17 -17 0
v -18 -17 0
v -18 -16 0
v -17 -16 0
v -10 -18 0
v -11 -18 0
v -11 -17 0
v -10 -17 0

# Texture cooridinates (Count = 56)
vt 0.1676867 0.9688073
vt 0.1872705 0.9688073
vt 0.1872705 0.9981651
vt 0.1676867 0.9981651
vt 0.1884945 0.9688073
vt 0.2080783 0.9688073
vt 0.2080783 0.9981651
vt 0.1884945 0.9981651
vt 0.126071 0.812844
vt 0.1456548 0.812844
vt 0.1456548 0.8422018
vt 0.126071 0.8422018
vt 0.2301102 0.9688073
vt 0.249694 0.9688073
vt 0.249694 0.9981651
vt 0.2301102 0.9981651
vt 0.3549572 0.9688073
vt 0.374541 0.9688073
vt 0.374541 0.9981651
vt 0.3549572 0.9981651
vt 0.375765 0.9688073
vt 0.3953488 0.9688073
vt 0.3953488 0.9981651
vt 0.375765 0.9981651
vt 0.3965728 0.9688073
vt 0.4161567 0.9688073
vt 0.4161567 0.9981651
vt 0.3965728 0.9981651
vt 0.4173807 0.9688073
vt 0.4369645 0.9688073
vt 0.4369645 0.9981651
vt 0.4173807 0.9981651
vt 0.625459 0.9688073
vt 0.6450428 0.9688073
vt 0.6450428 0.9981651
vt 0.625459 0.9981651
vt 0.6462668 0.9688073
vt 0.6658507 0.9688073
vt 0.6658507 0.9981651
vt 0.6462668 0.9981651
vt 0.6670747 0.9688073
vt 0.6866585 0.9688073
vt 0.6866585 0.9981651
vt 0.6670747 0.9981651
vt 0.6878825 0.9688073
vt 0.7074664 0.9688073
vt 0.7074664 0.9981651
vt 0.6878825 0.9981651
vt 0.3133415 0.9376147
vt 0.3329253 0.9376147
vt 0.3329253 0.9669725
vt 0.3133415 0.9669725
vt 0.6462668 0.7192661
vt 0.6658507 0.7192661
vt 0.6658507 0.7486238
vt 0.6462668 0.7486238

# Normal
vn 0 0 -1

# Mesh description
g waterTemple_3_mesh_0001

# Faces
f 1/1/1 2/2/1 3/3/1 4/4/1
f 5/5/1 6/6/1 7/7/1 8/8/1
f 9/9/1 10/10/1 11/11/1 12/12/1
f 13/9/1 14/10/1 15/11/1 16/12/1
f 17/13/1 18/14/1 19/15/1 20/16/1
f 21/5/1 22/6/1 23/7/1 24/8/1
f 25/9/1 26/10/1 27/11/1 28/12/1
f 29/9/1 30/10/1 31/11/1 32/12/1
f 33/9/1 34/10/1 35/11/1 36/12/1
f 37/13/1 38/14/1 39/15/1 40/16/1
f 41/5/1 42/6/1 43/7/1 44/8/1
f 45/9/1 46/10/1 47/11/1 48/12/1
f 49/9/1 50/10/1 51/11/1 52/12/1
f 53/13/1 54/14/1 55/15/1 56/16/1
f 57/5/1 58/6/1 59/7/1 60/8/1
f 61/17/1 62/18/1 63/19/1 64/20/1
f 65/21/1 66/22/1 67/23/1 68/24/1
f 69/25/1 70/26/1 71/27/1 72/28/1
f 73/25/1 74/26/1 75/27/1 76/28/1
f 77/29/1 78/30/1 79/31/1 80/32/1
f 81/21/1 82/22/1 83/23/1 84/24/1
f 85/25/1 86/26/1 87/27/1 88/28/1
f 89/25/1 90/26/1 91/27/1 92/28/1
f 93/25/1 94/26/1 95/27/1 96/28/1
f 97/29/1 98/30/1 99/31/1 100/32/1
f 101/21/1 102/22/1 103/23/1 104/24/1
f 105/25/1 106/26/1 107/27/1 108/28/1
f 109/25/1 110/26/1 111/27/1 112/28/1
f 113/29/1 114/30/1 115/31/1 116/32/1
f 117/21/1 118/22/1 119/23/1 120/24/1
f 121/33/1 122/34/1 123/35/1 124/36/1
f 125/37/1 126/38/1 127/39/1 128/40/1
f 129/41/1 130/42/1 131/43/1 132/44/1
f 133/41/1 134/42/1 135/43/1 136/44/1
f 137/45/1 138/46/1 139/47/1 140/48/1
f 141/37/1 142/38/1 143/39/1 144/40/1
f 145/41/1 146/42/1 147/43/1 148/44/1
f 149/41/1 150/42/1 151/43/1 152/44/1
f 153/41/1 154/42/1 155/43/1 156/44/1
f 157/45/1 158/46/1 159/47/1 160/48/1
f 161/37/1 162/38/1 163/39/1 164/40/1
f 165/41/1 166/42/1 167/43/1 168/44/1
f 169/41/1 170/42/1 171/43/1 172/44/1
f 173/45/1 174/46/1 175/47/1 176/48/1
f 177/37/1 178/38/1 179/39/1 180/40/1
f 181/49/1 182/50/1 183/51/1 184/52/1
f 185/49/1 186/50/1 187/51/1 188/52/1
f 189/49/1 190/50/1 191/51/1 192/52/1
f 193/49/1 194/50/1 195/51/1 196/52/1
f 197/49/1 198/50/1 199/51/1 200/52/1
f 201/49/1 202/50/1 203/51/1 204/52/1
f 205/49/1 206/50/1 207/51/1 208/52/1
f 209/49/1 210/50/1 211/51/1 212/52/1
f 213/49/1 214/50/1 215/51/1 216/52/1
f 217/49/1 218/50/1 219/51/1 220/52/1
f 221/49/1 222/50/1 223/51/1 224/52/1
f 225/49/1 226/50/1 227/51/1 228/52/1
f 229/49/1 230/50/1 231/51/1 232/52/1
f 233/49/1 234/50/1 235/51/1 236/52/1
f 237/49/1 238/50/1 239/51/1 240/52/1
f 241/49/1 242/50/1 243/51/1 244/52/1
f 245/49/1 246/50/1 247/51/1 248/52/1
f 249/49/1 250/50/1 251/51/1 252/52/1
f 253/49/1 254/50/1 255/51/1 256/52/1
f 257/49/1 258/50/1 259/51/1 260/52/1
f 261/49/1 262/50/1 263/51/1 264/52/1
f 265/53/1 266/54/1 267/55/1 268/56/1
f 269/53/1 270/54/1 271/55/1 272/56/1
f 273/53/1 274/54/1 275/55/1 276/56/1
f 277/53/1 278/54/1 279/55/1 280/56/1
f 281/53/1 282/54/1 283/55/1 284/56/1
f 285/53/1 286/54/1 287/55/1 288/56/1
f 289/53/1 290/54/1 291/55/1 292/56/1
f 293/53/1 294/54/1 295/55/1 296/56/1
f 297/53/1 298/54/1 299/55/1 300/56/1
f 301/49/1 302/50/1 303/51/1 304/52/1
f 305/49/1 306/50/1 307/51/1 308/52/1
f 309/49/1 310/50/1 311/51/1 312/52/1
f 313/49/1 314/50/1 315/51/1 316/52/1
f 317/53/1 318/54/1 319/55/1 320/56/1
f 321/53/1 322/54/1 323/55/1 324/56/1
f 325/53/1 326/54/1 327/55/1 328/56/1
f 329/53/1 330/54/1 331/55/1 332/56/1
f 333/53/1 334/54/1 335/55/1 336/56/1
f 337/53/1 338/54/1 339/55/1 340/56/1
f 341/53/1 342/54/1 343/55/1 344/56/1
f 345/53/1 346/54/1 347/55/1 348/56/1
f 349/53/1 350/54/1 351/55/1 352/56/1
f 353/49/1 354/50/1 355/51/1 356/52/1
f 357/49/1 358/50/1 359/51/1 360/52/1
f 361/49/1 362/50/1 363/51/1 364/52/1
f 365/49/1 366/50/1 367/51/1 368/52/1
f 369/53/1 370/54/1 371/55/1 372/56/1
f 373/53/1 374/54/1 375/55/1 376/56/1
f 377/53/1 378/54/1 379/55/1 380/56/1
f 381/53/1 382/54/1 383/55/1 384/56/1
f 385/53/1 386/54/1 387/55/1 388/56/1
f 389/53/1 390/54/1 391/55/1 392/56/1
f 393/53/1 394/54/1 395/55/1 396/56/1
f 397/53/1 398/54/1 399/55/1 400/56/1
f 401/53/1 402/54/1 403/55/1 404/56/1
f 405/49/1 406/50/1 407/51/1 408/52/1
f 409/49/1 410/50/1 411/51/1 412/52/1
f 413/49/1 414/50/1 415/51/1 416/52/1
f 417/49/1 418/50/1 419/51/1 420/52/1
f 421/53/1 422/54/1 423/55/1 424/56/1
f 425/53/1 426/54/1 427/55/1 428/56/1
f 429/53/1 430/54/1 431/55/1 432/56/1
f 433/53/1 434/54/1 435/55/1 436/56/1
f 437/53/1 438/54/1 439/55/1 440/56/1
f 441/53/1 442/54/1 443/55/1 444/56/1
f 445/53/1 446/54/1 447/55/1 448/56/1
f 449/53/1 450/54/1 451/55/1 452/56/1
f 453/53/1 454/54/1 455/55/1 456/56/1
f 457/49/1 458/50/1 459/51/1 460/52/1
f 461/49/1 462/50/1 463/51/1 464/52/1
f 465/49/1 466/50/1 467/51/1 468/52/1
f 469/49/1 470/50/1 471/51/1 472/52/1
f 473/53/1 474/54/1 475/55/1 476/56/1
f 477/53/1 478/54/1 479/55/1 480/56/1
f 481/53/1 482/54/1 483/55/1 484/56/1
f 485/53/1 486/54/1 487/55/1 488/56/1
f 489/53/1 490/54/1 491/55/1 492/56/1
f 493/53/1 494/54/1 495/55/1 496/56/1
f 497/53/1 498/54/1 499/55/1 500/56/1
f 501/53/1 502/54/1 503/55/1 504/56/1
f 505/53/1 506/54/1 507/55/1 508/56/1
f 509/49/1 510/50/1 511/51/1 512/52/1
f 513/49/1 514/50/1 515/51/1 516/52/1
f 517/49/1 518/50/1 519/51/1 520/52/1
f 521/49/1 522/50/1 523/51/1 524/52/1
f 525/53/1 526/54/1 527/55/1 528/56/1
f 529/49/1 530/50/1 531/51/1 532/52/1
f 533/49/1 534/50/1 535/51/1 536/52/1
f 537/49/1 538/50/1 539/51/1 540/52/1
f 541/49/1 542/50/1 543/51/1 544/52/1
f 545/49/1 546/50/1 547/51/1 548/52/1
f 549/49/1 550/50/1 551/51/1 552/52/1
f 553/49/1 554/50/1 555/51/1 556/52/1
f 557/49/1 558/50/1 559/51/1 560/52/1
f 561/49/1 562/50/1 563/51/1 564/52/1
f 565/49/1 566/50/1 567/51/1 568/52/1
f 569/49/1 570/50/1 571/51/1 572/52/1
f 573/49/1 574/50/1 575/51/1 576/52/1
f 577/49/1 578/50/1 579/51/1 580/52/1
f 581/49/1 582/50/1 583/51/1 584/52/1
f 585/49/1 586/50/1 587/51/1 588/52/1
f 589/49/1 590/50/1 591/51/1 592/52/1
f 593/49/1 594/50/1 595/51/1 596/52/1
f 597/49/1 598/50/1 599/51/1 600/52/1
f 601/49/1 602/50/1 603/51/1 604/52/1
f 605/49/1 606/50/1 607/51/1 608/52/1
f 609/49/1 610/50/1 611/51/1 612/52/1
f 613/49/1 614/50/1 615/51/1 616/52/1
f 617/49/1 618/50/1 619/51/1 620/52/1
f 621/49/1 622/50/1 623/51/1 624/52/1
f 625/49/1 626/50/1 627/51/1 628/52/1
f 629/49/1 630/50/1 631/51/1 632/52/1
f 633/49/1 634/50/1 635/51/1 636/52/1
f 637/49/1 638/50/1 639/51/1 640/52/1
f 641/49/1 642/50/1 643/51/1 644/52/1
f 645/49/1 646/50/1 647/51/1 648/52/1
f 649/49/1 650/50/1 651/51/1 652/52/1
f 653/49/1 654/50/1 655/51/1 656/52/1
f 657/49/1 658/50/1 659/51/1 660/52/1
f 661/49/1 662/50/1 663/51/1 664/52/1
f 665/49/1 666/50/1 667/51/1 668/52/1
f 669/49/1 670/50/1 671/51/1 672/52/1
f 673/49/1 674/50/1 675/51/1 676/52/1
f 677/49/1 678/50/1 679/51/1 680/52/1
f 681/49/1 682/50/1 683/51/1 684/52/1
f 685/49/1 686/50/1 687/51/1 688/52/1
f 689/49/1 690/50/1 691/51/1 692/52/1
f 693/49/1 694/50/1 695/51/1 696/52/1
f 697/49/1 698/50/1 699/51/1 700/52/1
f 701/49/1 702/50/1 703/51/1 704/52/1
f 705/49/1 706/50/1 707/51/1 708/52/1
f 709/49/1 710/50/1 711/51/1 712/52/1
f 713/49/1 714/50/1 715/51/1 716/52/1
f 717/49/1 718/50/1 719/51/1 720/52/1

