# Tiled2Unity generated file. Do not modify by hand.
# Wavefront file for 'merix1_mesh_0003.obj'

# Vertices (Count = 16)
v -24 -12 0
v -25 -12 0
v -25 -11 0
v -24 -11 0
v -24 -13 0
v -25 -13 0
v -25 -12 0
v -24 -12 0
v -5 -16 0
v -6 -16 0
v -6 -15 0
v -5 -15 0
v -5 -17 0
v -6 -17 0
v -6 -16 0
v -5 -16 0

# Texture cooridinates (Count = 16)
vt 0.5214198 0.7816514
vt 0.5410036 0.7816514
vt 0.5410036 0.8110092
vt 0.5214198 0.8110092
vt 0.5422277 0.7816514
vt 0.5618115 0.7816514
vt 0.5618115 0.8110092
vt 0.5422277 0.8110092
vt 0.02203182 0.812844
vt 0.04161567 0.812844
vt 0.04161567 0.8422018
vt 0.02203182 0.8422018
vt 0.6878825 0.7816514
vt 0.7074664 0.7816514
vt 0.7074664 0.8110092
vt 0.6878825 0.8110092

# Normal
vn 0 0 -1

# Mesh description
g merix1_mesh_0003

# Faces
f 1/1/1 2/2/1 3/3/1 4/4/1
f 5/5/1 6/6/1 7/7/1 8/8/1
f 9/9/1 10/10/1 11/11/1 12/12/1
f 13/13/1 14/14/1 15/15/1 16/16/1

