# Tiled2Unity generated file. Do not modify by hand.
# Wavefront file for 'merix1_mesh_0005.obj'

# Vertices (Count = 72)
v -11 -4 0
v -12 -4 0
v -12 -3 0
v -11 -3 0
v -11 -5 0
v -12 -5 0
v -12 -4 0
v -11 -4 0
v -11 -6 0
v -12 -6 0
v -12 -5 0
v -11 -5 0
v -11 -7 0
v -12 -7 0
v -12 -6 0
v -11 -6 0
v -25 -8 0
v -26 -8 0
v -26 -7 0
v -25 -7 0
v -28 -8 0
v -29 -8 0
v -29 -7 0
v -28 -7 0
v -24 -9 0
v -25 -9 0
v -25 -8 0
v -24 -8 0
v -25 -9 0
v -26 -9 0
v -26 -8 0
v -25 -8 0
v -26 -9 0
v -27 -9 0
v -27 -8 0
v -26 -8 0
v -27 -9 0
v -28 -9 0
v -28 -8 0
v -27 -8 0
v -28 -9 0
v -29 -9 0
v -29 -8 0
v -28 -8 0
v -29 -9 0
v -30 -9 0
v -30 -8 0
v -29 -8 0
v -24 -10 0
v -25 -10 0
v -25 -9 0
v -24 -9 0
v -25 -10 0
v -26 -10 0
v -26 -9 0
v -25 -9 0
v -26 -10 0
v -27 -10 0
v -27 -9 0
v -26 -9 0
v -27 -10 0
v -28 -10 0
v -28 -9 0
v -27 -9 0
v -28 -10 0
v -29 -10 0
v -29 -9 0
v -28 -9 0
v -29 -10 0
v -30 -10 0
v -30 -9 0
v -29 -9 0

# Texture cooridinates (Count = 44)
vt 0.2093023 0.8752294
vt 0.2288862 0.8752294
vt 0.2288862 0.9045871
vt 0.2093023 0.9045871
vt 0.3133415 0.8752294
vt 0.3329253 0.8752294
vt 0.3329253 0.9045871
vt 0.3133415 0.9045871
vt 0.4589963 0.8752294
vt 0.4785802 0.8752294
vt 0.4785802 0.9045871
vt 0.4589963 0.9045871
vt 0.625459 0.8752294
vt 0.6450428 0.8752294
vt 0.6450428 0.9045871
vt 0.625459 0.9045871
vt 0.4589963 0.9688073
vt 0.4785802 0.9688073
vt 0.4785802 0.9981651
vt 0.4589963 0.9981651
vt 0.5630355 0.9688073
vt 0.5826193 0.9688073
vt 0.5826193 0.9981651
vt 0.5630355 0.9981651
vt 0.5838434 0.9688073
vt 0.6034272 0.9688073
vt 0.6034272 0.9981651
vt 0.5838434 0.9981651
vt 0.6046512 0.9688073
vt 0.624235 0.9688073
vt 0.624235 0.9981651
vt 0.6046512 0.9981651
vt 0.750306 0.9688073
vt 0.7698898 0.9688073
vt 0.7698898 0.9981651
vt 0.750306 0.9981651
vt 0.7711138 0.9688073
vt 0.7906977 0.9688073
vt 0.7906977 0.9981651
vt 0.7711138 0.9981651
vt 0.7919217 0.9688073
vt 0.8115055 0.9688073
vt 0.8115055 0.9981651
vt 0.7919217 0.9981651

# Normal
vn 0 0 -1

# Mesh description
g merix1_mesh_0005

# Faces
f 1/1/1 2/2/1 3/3/1 4/4/1
f 5/5/1 6/6/1 7/7/1 8/8/1
f 9/9/1 10/10/1 11/11/1 12/12/1
f 13/13/1 14/14/1 15/15/1 16/16/1
f 17/17/1 18/18/1 19/19/1 20/20/1
f 21/17/1 22/18/1 23/19/1 24/20/1
f 25/21/1 26/22/1 27/23/1 28/24/1
f 29/25/1 30/26/1 31/27/1 32/28/1
f 33/29/1 34/30/1 35/31/1 36/32/1
f 37/21/1 38/22/1 39/23/1 40/24/1
f 41/25/1 42/26/1 43/27/1 44/28/1
f 45/29/1 46/30/1 47/31/1 48/32/1
f 49/33/1 50/34/1 51/35/1 52/36/1
f 53/37/1 54/38/1 55/39/1 56/40/1
f 57/41/1 58/42/1 59/43/1 60/44/1
f 61/33/1 62/34/1 63/35/1 64/36/1
f 65/37/1 66/38/1 67/39/1 68/40/1
f 69/41/1 70/42/1 71/43/1 72/44/1

