# Tiled2Unity generated file. Do not modify by hand.
# Wavefront file for 'emperorKingdom_1_mesh_0006.obj'

# Vertices (Count = 864)
v 0 -7 0
v -1 -7 0
v -1 -6 0
v 0 -6 0
v -1 -7 0
v -2 -7 0
v -2 -6 0
v -1 -6 0
v -2 -7 0
v -3 -7 0
v -3 -6 0
v -2 -6 0
v -3 -7 0
v -4 -7 0
v -4 -6 0
v -3 -6 0
v -4 -7 0
v -5 -7 0
v -5 -6 0
v -4 -6 0
v -5 -7 0
v -6 -7 0
v -6 -6 0
v -5 -6 0
v -6 -7 0
v -7 -7 0
v -7 -6 0
v -6 -6 0
v -7 -7 0
v -8 -7 0
v -8 -6 0
v -7 -6 0
v -8 -7 0
v -9 -7 0
v -9 -6 0
v -8 -6 0
v -9 -7 0
v -10 -7 0
v -10 -6 0
v -9 -6 0
v -10 -7 0
v -11 -7 0
v -11 -6 0
v -10 -6 0
v 0 -8 0
v -1 -8 0
v -1 -7 0
v 0 -7 0
v -1 -8 0
v -2 -8 0
v -2 -7 0
v -1 -7 0
v -2 -8 0
v -3 -8 0
v -3 -7 0
v -2 -7 0
v -3 -8 0
v -4 -8 0
v -4 -7 0
v -3 -7 0
v -4 -8 0
v -5 -8 0
v -5 -7 0
v -4 -7 0
v -5 -8 0
v -6 -8 0
v -6 -7 0
v -5 -7 0
v -6 -8 0
v -7 -8 0
v -7 -7 0
v -6 -7 0
v -7 -8 0
v -8 -8 0
v -8 -7 0
v -7 -7 0
v -8 -8 0
v -9 -8 0
v -9 -7 0
v -8 -7 0
v -9 -8 0
v -10 -8 0
v -10 -7 0
v -9 -7 0
v -10 -8 0
v -11 -8 0
v -11 -7 0
v -10 -7 0
v -18 -8 0
v -19 -8 0
v -19 -7 0
v -18 -7 0
v -19 -8 0
v -20 -8 0
v -20 -7 0
v -19 -7 0
v -20 -8 0
v -21 -8 0
v -21 -7 0
v -20 -7 0
v -21 -8 0
v -22 -8 0
v -22 -7 0
v -21 -7 0
v -22 -8 0
v -23 -8 0
v -23 -7 0
v -22 -7 0
v -23 -8 0
v -24 -8 0
v -24 -7 0
v -23 -7 0
v -24 -8 0
v -25 -8 0
v -25 -7 0
v -24 -7 0
v 0 -9 0
v -1 -9 0
v -1 -8 0
v 0 -8 0
v -1 -9 0
v -2 -9 0
v -2 -8 0
v -1 -8 0
v -2 -9 0
v -3 -9 0
v -3 -8 0
v -2 -8 0
v -3 -9 0
v -4 -9 0
v -4 -8 0
v -3 -8 0
v -4 -9 0
v -5 -9 0
v -5 -8 0
v -4 -8 0
v -5 -9 0
v -6 -9 0
v -6 -8 0
v -5 -8 0
v -6 -9 0
v -7 -9 0
v -7 -8 0
v -6 -8 0
v -7 -9 0
v -8 -9 0
v -8 -8 0
v -7 -8 0
v -8 -9 0
v -9 -9 0
v -9 -8 0
v -8 -8 0
v -9 -9 0
v -10 -9 0
v -10 -8 0
v -9 -8 0
v -10 -9 0
v -11 -9 0
v -11 -8 0
v -10 -8 0
v -18 -9 0
v -19 -9 0
v -19 -8 0
v -18 -8 0
v -19 -9 0
v -20 -9 0
v -20 -8 0
v -19 -8 0
v -20 -9 0
v -21 -9 0
v -21 -8 0
v -20 -8 0
v -21 -9 0
v -22 -9 0
v -22 -8 0
v -21 -8 0
v -22 -9 0
v -23 -9 0
v -23 -8 0
v -22 -8 0
v -23 -9 0
v -24 -9 0
v -24 -8 0
v -23 -8 0
v -24 -9 0
v -25 -9 0
v -25 -8 0
v -24 -8 0
v -25 -9 0
v -26 -9 0
v -26 -8 0
v -25 -8 0
v -27 -9 0
v -28 -9 0
v -28 -8 0
v -27 -8 0
v -28 -9 0
v -29 -9 0
v -29 -8 0
v -28 -8 0
v -29 -9 0
v -30 -9 0
v -30 -8 0
v -29 -8 0
v -30 -9 0
v -31 -9 0
v -31 -8 0
v -30 -8 0
v -31 -9 0
v -32 -9 0
v -32 -8 0
v -31 -8 0
v 0 -10 0
v -1 -10 0
v -1 -9 0
v 0 -9 0
v -1 -10 0
v -2 -10 0
v -2 -9 0
v -1 -9 0
v -2 -10 0
v -3 -10 0
v -3 -9 0
v -2 -9 0
v -3 -10 0
v -4 -10 0
v -4 -9 0
v -3 -9 0
v -4 -10 0
v -5 -10 0
v -5 -9 0
v -4 -9 0
v -5 -10 0
v -6 -10 0
v -6 -9 0
v -5 -9 0
v -7 -10 0
v -8 -10 0
v -8 -9 0
v -7 -9 0
v -8 -10 0
v -9 -10 0
v -9 -9 0
v -8 -9 0
v -9 -10 0
v -10 -10 0
v -10 -9 0
v -9 -9 0
v -18 -10 0
v -19 -10 0
v -19 -9 0
v -18 -9 0
v -19 -10 0
v -20 -10 0
v -20 -9 0
v -19 -9 0
v -20 -10 0
v -21 -10 0
v -21 -9 0
v -20 -9 0
v -21 -10 0
v -22 -10 0
v -22 -9 0
v -21 -9 0
v -22 -10 0
v -23 -10 0
v -23 -9 0
v -22 -9 0
v -23 -10 0
v -24 -10 0
v -24 -9 0
v -23 -9 0
v -24 -10 0
v -25 -10 0
v -25 -9 0
v -24 -9 0
v -25 -10 0
v -26 -10 0
v -26 -9 0
v -25 -9 0
v -27 -10 0
v -28 -10 0
v -28 -9 0
v -27 -9 0
v -28 -10 0
v -29 -10 0
v -29 -9 0
v -28 -9 0
v -29 -10 0
v -30 -10 0
v -30 -9 0
v -29 -9 0
v -30 -10 0
v -31 -10 0
v -31 -9 0
v -30 -9 0
v -31 -10 0
v -32 -10 0
v -32 -9 0
v -31 -9 0
v -4 -11 0
v -5 -11 0
v -5 -10 0
v -4 -10 0
v -7 -11 0
v -8 -11 0
v -8 -10 0
v -7 -10 0
v -8 -11 0
v -9 -11 0
v -9 -10 0
v -8 -10 0
v -9 -11 0
v -10 -11 0
v -10 -10 0
v -9 -10 0
v -12 -11 0
v -13 -11 0
v -13 -10 0
v -12 -10 0
v -13 -11 0
v -14 -11 0
v -14 -10 0
v -13 -10 0
v -19 -11 0
v -20 -11 0
v -20 -10 0
v -19 -10 0
v -20 -11 0
v -21 -11 0
v -21 -10 0
v -20 -10 0
v -21 -11 0
v -22 -11 0
v -22 -10 0
v -21 -10 0
v -22 -11 0
v -23 -11 0
v -23 -10 0
v -22 -10 0
v -23 -11 0
v -24 -11 0
v -24 -10 0
v -23 -10 0
v -24 -11 0
v -25 -11 0
v -25 -10 0
v -24 -10 0
v -25 -11 0
v -26 -11 0
v -26 -10 0
v -25 -10 0
v -26 -11 0
v -27 -11 0
v -27 -10 0
v -26 -10 0
v -27 -11 0
v -28 -11 0
v -28 -10 0
v -27 -10 0
v -28 -11 0
v -29 -11 0
v -29 -10 0
v -28 -10 0
v -29 -11 0
v -30 -11 0
v -30 -10 0
v -29 -10 0
v -30 -11 0
v -31 -11 0
v -31 -10 0
v -30 -10 0
v -31 -11 0
v -32 -11 0
v -32 -10 0
v -31 -10 0
v -8 -12 0
v -9 -12 0
v -9 -11 0
v -8 -11 0
v -12 -12 0
v -13 -12 0
v -13 -11 0
v -12 -11 0
v -13 -12 0
v -14 -12 0
v -14 -11 0
v -13 -11 0
v -20 -12 0
v -21 -12 0
v -21 -11 0
v -20 -11 0
v -22 -12 0
v -23 -12 0
v -23 -11 0
v -22 -11 0
v -23 -12 0
v -24 -12 0
v -24 -11 0
v -23 -11 0
v -24 -12 0
v -25 -12 0
v -25 -11 0
v -24 -11 0
v -25 -12 0
v -26 -12 0
v -26 -11 0
v -25 -11 0
v -26 -12 0
v -27 -12 0
v -27 -11 0
v -26 -11 0
v -28 -12 0
v -29 -12 0
v -29 -11 0
v -28 -11 0
v -29 -12 0
v -30 -12 0
v -30 -11 0
v -29 -11 0
v -30 -12 0
v -31 -12 0
v -31 -11 0
v -30 -11 0
v -8 -13 0
v -9 -13 0
v -9 -12 0
v -8 -12 0
v -22 -13 0
v -23 -13 0
v -23 -12 0
v -22 -12 0
v -23 -13 0
v -24 -13 0
v -24 -12 0
v -23 -12 0
v -24 -13 0
v -25 -13 0
v -25 -12 0
v -24 -12 0
v -25 -13 0
v -26 -13 0
v -26 -12 0
v -25 -12 0
v -26 -13 0
v -27 -13 0
v -27 -12 0
v -26 -12 0
v -27 -13 0
v -28 -13 0
v -28 -12 0
v -27 -12 0
v -28 -13 0
v -29 -13 0
v -29 -12 0
v -28 -12 0
v -29 -13 0
v -30 -13 0
v -30 -12 0
v -29 -12 0
v -30 -13 0
v -31 -13 0
v -31 -12 0
v -30 -12 0
v -31 -13 0
v -32 -13 0
v -32 -12 0
v -31 -12 0
v -8 -14 0
v -9 -14 0
v -9 -13 0
v -8 -13 0
v -23 -14 0
v -24 -14 0
v -24 -13 0
v -23 -13 0
v -24 -14 0
v -25 -14 0
v -25 -13 0
v -24 -13 0
v -25 -14 0
v -26 -14 0
v -26 -13 0
v -25 -13 0
v -27 -14 0
v -28 -14 0
v -28 -13 0
v -27 -13 0
v -28 -14 0
v -29 -14 0
v -29 -13 0
v -28 -13 0
v -29 -14 0
v -30 -14 0
v -30 -13 0
v -29 -13 0
v -30 -14 0
v -31 -14 0
v -31 -13 0
v -30 -13 0
v -31 -14 0
v -32 -14 0
v -32 -13 0
v -31 -13 0
v -24 -15 0
v -25 -15 0
v -25 -14 0
v -24 -14 0
v -27 -15 0
v -28 -15 0
v -28 -14 0
v -27 -14 0
v -28 -15 0
v -29 -15 0
v -29 -14 0
v -28 -14 0
v -29 -15 0
v -30 -15 0
v -30 -14 0
v -29 -14 0
v -30 -15 0
v -31 -15 0
v -31 -14 0
v -30 -14 0
v -31 -15 0
v -32 -15 0
v -32 -14 0
v -31 -14 0
v -28 -16 0
v -29 -16 0
v -29 -15 0
v -28 -15 0
v -29 -16 0
v -30 -16 0
v -30 -15 0
v -29 -15 0
v -30 -16 0
v -31 -16 0
v -31 -15 0
v -30 -15 0
v -29 -17 0
v -30 -17 0
v -30 -16 0
v -29 -16 0
v -7 -18 0
v -8 -18 0
v -8 -17 0
v -7 -17 0
v -8 -18 0
v -9 -18 0
v -9 -17 0
v -8 -17 0
v -7 -19 0
v -8 -19 0
v -8 -18 0
v -7 -18 0
v -8 -19 0
v -9 -19 0
v -9 -18 0
v -8 -18 0
v 0 -20 0
v -1 -20 0
v -1 -19 0
v 0 -19 0
v -1 -20 0
v -2 -20 0
v -2 -19 0
v -1 -19 0
v -2 -20 0
v -3 -20 0
v -3 -19 0
v -2 -19 0
v -3 -20 0
v -4 -20 0
v -4 -19 0
v -3 -19 0
v -4 -20 0
v -5 -20 0
v -5 -19 0
v -4 -19 0
v -5 -20 0
v -6 -20 0
v -6 -19 0
v -5 -19 0
v -6 -20 0
v -7 -20 0
v -7 -19 0
v -6 -19 0
v -23 -20 0
v -24 -20 0
v -24 -19 0
v -23 -19 0
v -24 -20 0
v -25 -20 0
v -25 -19 0
v -24 -19 0
v 0 -21 0
v -1 -21 0
v -1 -20 0
v 0 -20 0
v -1 -21 0
v -2 -21 0
v -2 -20 0
v -1 -20 0
v -2 -21 0
v -3 -21 0
v -3 -20 0
v -2 -20 0
v -3 -21 0
v -4 -21 0
v -4 -20 0
v -3 -20 0
v -4 -21 0
v -5 -21 0
v -5 -20 0
v -4 -20 0
v -5 -21 0
v -6 -21 0
v -6 -20 0
v -5 -20 0
v -6 -21 0
v -7 -21 0
v -7 -20 0
v -6 -20 0
v -23 -21 0
v -24 -21 0
v -24 -20 0
v -23 -20 0
v -24 -21 0
v -25 -21 0
v -25 -20 0
v -24 -20 0
v 0 -22 0
v -1 -22 0
v -1 -21 0
v 0 -21 0
v -1 -22 0
v -2 -22 0
v -2 -21 0
v -1 -21 0
v -2 -22 0
v -3 -22 0
v -3 -21 0
v -2 -21 0
v -3 -22 0
v -4 -22 0
v -4 -21 0
v -3 -21 0
v -4 -22 0
v -5 -22 0
v -5 -21 0
v -4 -21 0
v -5 -22 0
v -6 -22 0
v -6 -21 0
v -5 -21 0
v -6 -22 0
v -7 -22 0
v -7 -21 0
v -6 -21 0
v -7 -22 0
v -8 -22 0
v -8 -21 0
v -7 -21 0
v 0 -23 0
v -1 -23 0
v -1 -22 0
v 0 -22 0
v -1 -23 0
v -2 -23 0
v -2 -22 0
v -1 -22 0
v -2 -23 0
v -3 -23 0
v -3 -22 0
v -2 -22 0
v -3 -23 0
v -4 -23 0
v -4 -22 0
v -3 -22 0
v -4 -23 0
v -5 -23 0
v -5 -22 0
v -4 -22 0
v -5 -23 0
v -6 -23 0
v -6 -22 0
v -5 -22 0
v -4 -24 0
v -5 -24 0
v -5 -23 0
v -4 -23 0
v -9 -24 0
v -10 -24 0
v -10 -23 0
v -9 -23 0
v -10 -24 0
v -11 -24 0
v -11 -23 0
v -10 -23 0
v -19 -24 0
v -20 -24 0
v -20 -23 0
v -19 -23 0
v -20 -24 0
v -21 -24 0
v -21 -23 0
v -20 -23 0
v -27 -24 0
v -28 -24 0
v -28 -23 0
v -27 -23 0
v -28 -24 0
v -29 -24 0
v -29 -23 0
v -28 -23 0
v -29 -24 0
v -30 -24 0
v -30 -23 0
v -29 -23 0
v -30 -24 0
v -31 -24 0
v -31 -23 0
v -30 -23 0
v -31 -24 0
v -32 -24 0
v -32 -23 0
v -31 -23 0
v -9 -25 0
v -10 -25 0
v -10 -24 0
v -9 -24 0
v -10 -25 0
v -11 -25 0
v -11 -24 0
v -10 -24 0
v -19 -25 0
v -20 -25 0
v -20 -24 0
v -19 -24 0
v -20 -25 0
v -21 -25 0
v -21 -24 0
v -20 -24 0
v -22 -25 0
v -23 -25 0
v -23 -24 0
v -22 -24 0
v -23 -25 0
v -24 -25 0
v -24 -24 0
v -23 -24 0
v -24 -25 0
v -25 -25 0
v -25 -24 0
v -24 -24 0
v -25 -25 0
v -26 -25 0
v -26 -24 0
v -25 -24 0
v -26 -25 0
v -27 -25 0
v -27 -24 0
v -26 -24 0
v -27 -25 0
v -28 -25 0
v -28 -24 0
v -27 -24 0
v -28 -25 0
v -29 -25 0
v -29 -24 0
v -28 -24 0
v -29 -25 0
v -30 -25 0
v -30 -24 0
v -29 -24 0
v -30 -25 0
v -31 -25 0
v -31 -24 0
v -30 -24 0
v -31 -25 0
v -32 -25 0
v -32 -24 0
v -31 -24 0
v -22 -26 0
v -23 -26 0
v -23 -25 0
v -22 -25 0
v -23 -26 0
v -24 -26 0
v -24 -25 0
v -23 -25 0
v -24 -26 0
v -25 -26 0
v -25 -25 0
v -24 -25 0
v -25 -26 0
v -26 -26 0
v -26 -25 0
v -25 -25 0
v -26 -26 0
v -27 -26 0
v -27 -25 0
v -26 -25 0
v -27 -26 0
v -28 -26 0
v -28 -25 0
v -27 -25 0
v -28 -26 0
v -29 -26 0
v -29 -25 0
v -28 -25 0
v -29 -26 0
v -30 -26 0
v -30 -25 0
v -29 -25 0
v -30 -26 0
v -31 -26 0
v -31 -25 0
v -30 -25 0
v -31 -26 0
v -32 -26 0
v -32 -25 0
v -31 -25 0
v -22 -27 0
v -23 -27 0
v -23 -26 0
v -22 -26 0
v -23 -27 0
v -24 -27 0
v -24 -26 0
v -23 -26 0
v -24 -27 0
v -25 -27 0
v -25 -26 0
v -24 -26 0
v -25 -27 0
v -26 -27 0
v -26 -26 0
v -25 -26 0
v -26 -27 0
v -27 -27 0
v -27 -26 0
v -26 -26 0
v -28 -27 0
v -29 -27 0
v -29 -26 0
v -28 -26 0
v -29 -27 0
v -30 -27 0
v -30 -26 0
v -29 -26 0
v -30 -27 0
v -31 -27 0
v -31 -26 0
v -30 -26 0
v -23 -28 0
v -24 -28 0
v -24 -27 0
v -23 -27 0
v -24 -28 0
v -25 -28 0
v -25 -27 0
v -24 -27 0

# Texture cooridinates (Count = 96)
vt 0.3965728 0.8752294
vt 0.4161567 0.8752294
vt 0.4161567 0.9045871
vt 0.3965728 0.9045871
vt 0.4173807 0.8752294
vt 0.4369645 0.8752294
vt 0.4369645 0.9045871
vt 0.4173807 0.9045871
vt 0.4381885 0.8752294
vt 0.4577723 0.8752294
vt 0.4577723 0.9045871
vt 0.4381885 0.9045871
vt 0.4589963 0.9688073
vt 0.4785802 0.9688073
vt 0.4785802 0.9981651
vt 0.4589963 0.9981651
vt 0.500612 0.9688073
vt 0.5201958 0.9688073
vt 0.5201958 0.9981651
vt 0.500612 0.9981651
vt 0.4798042 0.9688073
vt 0.499388 0.9688073
vt 0.499388 0.9981651
vt 0.4798042 0.9981651
vt 0.5214198 0.9688073
vt 0.5410036 0.9688073
vt 0.5410036 0.9981651
vt 0.5214198 0.9981651
vt 0.9791921 0.812844
vt 0.998776 0.812844
vt 0.998776 0.8422018
vt 0.9791921 0.8422018
vt 0.5838434 0.9688073
vt 0.6034272 0.9688073
vt 0.6034272 0.9981651
vt 0.5838434 0.9981651
vt 0.5422277 0.9688073
vt 0.5618115 0.9688073
vt 0.5618115 0.9981651
vt 0.5422277 0.9981651
vt 0.4798042 0.8752294
vt 0.499388 0.8752294
vt 0.499388 0.9045871
vt 0.4798042 0.9045871
vt 0.5630355 0.9688073
vt 0.5826193 0.9688073
vt 0.5826193 0.9981651
vt 0.5630355 0.9981651
vt 0.3133415 0.8440367
vt 0.3329253 0.8440367
vt 0.3329253 0.8733945
vt 0.3133415 0.8733945
vt 0.625459 0.9688073
vt 0.6450428 0.9688073
vt 0.6450428 0.9981651
vt 0.625459 0.9981651
vt 0.7086903 0.9688073
vt 0.7282742 0.9688073
vt 0.7282742 0.9981651
vt 0.7086903 0.9981651
vt 0.7294981 0.9688073
vt 0.749082 0.9688073
vt 0.749082 0.9981651
vt 0.7294981 0.9981651
vt 0.500612 0.8440367
vt 0.5201958 0.8440367
vt 0.5201958 0.8733945
vt 0.500612 0.8733945
vt 0.875153 0.906422
vt 0.8947368 0.906422
vt 0.8947368 0.9357798
vt 0.875153 0.9357798
vt 0.875153 0.8440367
vt 0.8947368 0.8440367
vt 0.8947368 0.8733945
vt 0.875153 0.8733945
vt 0.8959608 0.8440367
vt 0.9155447 0.8440367
vt 0.9155447 0.8733945
vt 0.8959608 0.8733945
vt 0.9583843 0.9688073
vt 0.9779682 0.9688073
vt 0.9779682 0.9981651
vt 0.9583843 0.9981651
vt 0.5214198 0.8752294
vt 0.5410036 0.8752294
vt 0.5410036 0.9045871
vt 0.5214198 0.9045871
vt 0.5422277 0.8752294
vt 0.5618115 0.8752294
vt 0.5618115 0.9045871
vt 0.5422277 0.9045871
vt 0.9375765 0.8440367
vt 0.9571604 0.8440367
vt 0.9571604 0.8733945
vt 0.9375765 0.8733945

# Normal
vn 0 0 -1

# Mesh description
g emperorKingdom_1_mesh_0006

# Faces
f 1/1/1 2/2/1 3/3/1 4/4/1
f 5/1/1 6/2/1 7/3/1 8/4/1
f 9/1/1 10/2/1 11/3/1 12/4/1
f 13/5/1 14/6/1 15/7/1 16/8/1
f 17/5/1 18/6/1 19/7/1 20/8/1
f 21/5/1 22/6/1 23/7/1 24/8/1
f 25/5/1 26/6/1 27/7/1 28/8/1
f 29/5/1 30/6/1 31/7/1 32/8/1
f 33/5/1 34/6/1 35/7/1 36/8/1
f 37/5/1 38/6/1 39/7/1 40/8/1
f 41/9/1 42/10/1 43/11/1 44/12/1
f 45/13/1 46/14/1 47/15/1 48/16/1
f 49/13/1 50/14/1 51/15/1 52/16/1
f 53/13/1 54/14/1 55/15/1 56/16/1
f 57/17/1 58/18/1 59/19/1 60/20/1
f 61/21/1 62/22/1 63/23/1 64/24/1
f 65/17/1 66/18/1 67/19/1 68/20/1
f 69/21/1 70/22/1 71/23/1 72/24/1
f 73/13/1 74/14/1 75/15/1 76/16/1
f 77/13/1 78/14/1 79/15/1 80/16/1
f 81/13/1 82/14/1 83/15/1 84/16/1
f 85/25/1 86/26/1 87/27/1 88/28/1
f 89/1/1 90/2/1 91/3/1 92/4/1
f 93/5/1 94/6/1 95/7/1 96/8/1
f 97/9/1 98/10/1 99/11/1 100/12/1
f 101/9/1 102/10/1 103/11/1 104/12/1
f 105/9/1 106/10/1 107/11/1 108/12/1
f 109/29/1 110/30/1 111/31/1 112/32/1
f 113/29/1 114/30/1 115/31/1 116/32/1
f 117/13/1 118/14/1 119/15/1 120/16/1
f 121/13/1 122/14/1 123/15/1 124/16/1
f 125/13/1 126/14/1 127/15/1 128/16/1
f 129/33/1 130/34/1 131/35/1 132/36/1
f 133/21/1 134/22/1 135/23/1 136/24/1
f 137/33/1 138/34/1 139/35/1 140/36/1
f 141/21/1 142/22/1 143/23/1 144/24/1
f 145/37/1 146/38/1 147/39/1 148/40/1
f 149/41/1 150/42/1 151/43/1 152/44/1
f 153/45/1 154/46/1 155/47/1 156/48/1
f 157/25/1 158/26/1 159/27/1 160/28/1
f 161/13/1 162/14/1 163/15/1 164/16/1
f 165/17/1 166/18/1 167/19/1 168/20/1
f 169/21/1 170/22/1 171/23/1 172/24/1
f 173/17/1 174/18/1 175/19/1 176/20/1
f 177/25/1 178/26/1 179/27/1 180/28/1
f 181/49/1 182/50/1 183/51/1 184/52/1
f 185/49/1 186/50/1 187/51/1 188/52/1
f 189/29/1 190/30/1 191/31/1 192/32/1
f 193/1/1 194/2/1 195/3/1 196/4/1
f 197/5/1 198/6/1 199/7/1 200/8/1
f 201/9/1 202/10/1 203/11/1 204/12/1
f 205/9/1 206/10/1 207/11/1 208/12/1
f 209/9/1 210/10/1 211/11/1 212/12/1
f 213/37/1 214/38/1 215/39/1 216/40/1
f 217/53/1 218/54/1 219/55/1 220/56/1
f 221/45/1 222/46/1 223/47/1 224/48/1
f 225/57/1 226/58/1 227/59/1 228/60/1
f 229/61/1 230/62/1 231/63/1 232/64/1
f 233/61/1 234/62/1 235/63/1 236/64/1
f 237/37/1 238/38/1 239/39/1 240/40/1
f 241/41/1 242/42/1 243/43/1 244/44/1
f 245/45/1 246/46/1 247/47/1 248/48/1
f 249/21/1 250/22/1 251/23/1 252/24/1
f 253/33/1 254/34/1 255/35/1 256/36/1
f 257/21/1 258/22/1 259/23/1 260/24/1
f 261/33/1 262/34/1 263/35/1 264/36/1
f 265/25/1 266/26/1 267/27/1 268/28/1
f 269/65/1 270/66/1 271/67/1 272/68/1
f 273/49/1 274/50/1 275/51/1 276/52/1
f 277/49/1 278/50/1 279/51/1 280/52/1
f 281/13/1 282/14/1 283/15/1 284/16/1
f 285/17/1 286/18/1 287/19/1 288/20/1
f 289/21/1 290/22/1 291/23/1 292/24/1
f 293/17/1 294/18/1 295/19/1 296/20/1
f 297/25/1 298/26/1 299/27/1 300/28/1
f 301/69/1 302/70/1 303/71/1 304/72/1
f 305/37/1 306/38/1 307/39/1 308/40/1
f 309/53/1 310/54/1 311/55/1 312/56/1
f 313/45/1 314/46/1 315/47/1 316/48/1
f 317/73/1 318/74/1 319/75/1 320/76/1
f 321/77/1 322/78/1 323/79/1 324/80/1
f 325/57/1 326/58/1 327/59/1 328/60/1
f 329/61/1 330/62/1 331/63/1 332/64/1
f 333/61/1 334/62/1 335/63/1 336/64/1
f 337/1/1 338/2/1 339/3/1 340/4/1
f 341/5/1 342/6/1 343/7/1 344/8/1
f 345/9/1 346/10/1 347/11/1 348/12/1
f 349/9/1 350/10/1 351/11/1 352/12/1
f 353/9/1 354/10/1 355/11/1 356/12/1
f 357/21/1 358/22/1 359/23/1 360/24/1
f 361/33/1 362/34/1 363/35/1 364/36/1
f 365/21/1 366/22/1 367/23/1 368/24/1
f 369/33/1 370/34/1 371/35/1 372/36/1
f 373/25/1 374/26/1 375/27/1 376/28/1
f 377/81/1 378/82/1 379/83/1 380/84/1
f 381/85/1 382/86/1 383/87/1 384/88/1
f 385/89/1 386/90/1 387/91/1 388/92/1
f 389/69/1 390/70/1 391/71/1 392/72/1
f 393/13/1 394/14/1 395/15/1 396/16/1
f 397/17/1 398/18/1 399/19/1 400/20/1
f 401/21/1 402/22/1 403/23/1 404/24/1
f 405/17/1 406/18/1 407/19/1 408/20/1
f 409/25/1 410/26/1 411/27/1 412/28/1
f 413/57/1 414/58/1 415/59/1 416/60/1
f 417/61/1 418/62/1 419/63/1 420/64/1
f 421/61/1 422/62/1 423/63/1 424/64/1
f 425/61/1 426/62/1 427/63/1 428/64/1
f 429/21/1 430/22/1 431/23/1 432/24/1
f 433/33/1 434/34/1 435/35/1 436/36/1
f 437/21/1 438/22/1 439/23/1 440/24/1
f 441/33/1 442/34/1 443/35/1 444/36/1
f 445/25/1 446/26/1 447/27/1 448/28/1
f 449/1/1 450/2/1 451/3/1 452/4/1
f 453/5/1 454/6/1 455/7/1 456/8/1
f 457/9/1 458/10/1 459/11/1 460/12/1
f 461/9/1 462/10/1 463/11/1 464/12/1
f 465/9/1 466/10/1 467/11/1 468/12/1
f 469/69/1 470/70/1 471/71/1 472/72/1
f 473/57/1 474/58/1 475/59/1 476/60/1
f 477/61/1 478/62/1 479/63/1 480/64/1
f 481/61/1 482/62/1 483/63/1 484/64/1
f 485/13/1 486/14/1 487/15/1 488/16/1
f 489/17/1 490/18/1 491/19/1 492/20/1
f 493/21/1 494/22/1 495/23/1 496/24/1
f 497/17/1 498/18/1 499/19/1 500/20/1
f 501/25/1 502/26/1 503/27/1 504/28/1
f 505/69/1 506/70/1 507/71/1 508/72/1
f 509/21/1 510/22/1 511/23/1 512/24/1
f 513/33/1 514/34/1 515/35/1 516/36/1
f 517/21/1 518/22/1 519/23/1 520/24/1
f 521/33/1 522/34/1 523/35/1 524/36/1
f 525/25/1 526/26/1 527/27/1 528/28/1
f 529/57/1 530/58/1 531/59/1 532/60/1
f 533/61/1 534/62/1 535/63/1 536/64/1
f 537/61/1 538/62/1 539/63/1 540/64/1
f 541/69/1 542/70/1 543/71/1 544/72/1
f 545/73/1 546/74/1 547/75/1 548/76/1
f 549/77/1 550/78/1 551/79/1 552/80/1
f 553/85/1 554/86/1 555/87/1 556/88/1
f 557/89/1 558/90/1 559/91/1 560/92/1
f 561/1/1 562/2/1 563/3/1 564/4/1
f 565/1/1 566/2/1 567/3/1 568/4/1
f 569/1/1 570/2/1 571/3/1 572/4/1
f 573/5/1 574/6/1 575/7/1 576/8/1
f 577/9/1 578/10/1 579/11/1 580/12/1
f 581/9/1 582/10/1 583/11/1 584/12/1
f 585/9/1 586/10/1 587/11/1 588/12/1
f 589/73/1 590/74/1 591/75/1 592/76/1
f 593/77/1 594/78/1 595/79/1 596/80/1
f 597/13/1 598/14/1 599/15/1 600/16/1
f 601/13/1 602/14/1 603/15/1 604/16/1
f 605/13/1 606/14/1 607/15/1 608/16/1
f 609/17/1 610/18/1 611/19/1 612/20/1
f 613/21/1 614/22/1 615/23/1 616/24/1
f 617/17/1 618/18/1 619/19/1 620/20/1
f 621/25/1 622/26/1 623/27/1 624/28/1
f 625/85/1 626/86/1 627/87/1 628/88/1
f 629/89/1 630/90/1 631/91/1 632/92/1
f 633/13/1 634/14/1 635/15/1 636/16/1
f 637/13/1 638/14/1 639/15/1 640/16/1
f 641/13/1 642/14/1 643/15/1 644/16/1
f 645/33/1 646/34/1 647/35/1 648/36/1
f 649/21/1 650/22/1 651/23/1 652/24/1
f 653/33/1 654/34/1 655/35/1 656/36/1
f 657/25/1 658/26/1 659/27/1 660/28/1
f 661/93/1 662/94/1 663/95/1 664/96/1
f 665/37/1 666/38/1 667/39/1 668/40/1
f 669/53/1 670/54/1 671/55/1 672/56/1
f 673/45/1 674/46/1 675/47/1 676/48/1
f 677/57/1 678/58/1 679/59/1 680/60/1
f 681/61/1 682/62/1 683/63/1 684/64/1
f 685/61/1 686/62/1 687/63/1 688/64/1
f 689/69/1 690/70/1 691/71/1 692/72/1
f 693/73/1 694/74/1 695/75/1 696/76/1
f 697/77/1 698/78/1 699/79/1 700/80/1
f 701/73/1 702/74/1 703/75/1 704/76/1
f 705/77/1 706/78/1 707/79/1 708/80/1
f 709/1/1 710/2/1 711/3/1 712/4/1
f 713/5/1 714/6/1 715/7/1 716/8/1
f 717/9/1 718/10/1 719/11/1 720/12/1
f 721/9/1 722/10/1 723/11/1 724/12/1
f 725/9/1 726/10/1 727/11/1 728/12/1
f 729/85/1 730/86/1 731/87/1 732/88/1
f 733/89/1 734/90/1 735/91/1 736/92/1
f 737/85/1 738/86/1 739/87/1 740/88/1
f 741/89/1 742/90/1 743/91/1 744/92/1
f 745/1/1 746/2/1 747/3/1 748/4/1
f 749/5/1 750/6/1 751/7/1 752/8/1
f 753/9/1 754/10/1 755/11/1 756/12/1
f 757/9/1 758/10/1 759/11/1 760/12/1
f 761/9/1 762/10/1 763/11/1 764/12/1
f 765/13/1 766/14/1 767/15/1 768/16/1
f 769/17/1 770/18/1 771/19/1 772/20/1
f 773/21/1 774/22/1 775/23/1 776/24/1
f 777/17/1 778/18/1 779/19/1 780/20/1
f 781/25/1 782/26/1 783/27/1 784/28/1
f 785/13/1 786/14/1 787/15/1 788/16/1
f 789/17/1 790/18/1 791/19/1 792/20/1
f 793/21/1 794/22/1 795/23/1 796/24/1
f 797/17/1 798/18/1 799/19/1 800/20/1
f 801/25/1 802/26/1 803/27/1 804/28/1
f 805/21/1 806/22/1 807/23/1 808/24/1
f 809/33/1 810/34/1 811/35/1 812/36/1
f 813/21/1 814/22/1 815/23/1 816/24/1
f 817/33/1 818/34/1 819/35/1 820/36/1
f 821/25/1 822/26/1 823/27/1 824/28/1
f 825/21/1 826/22/1 827/23/1 828/24/1
f 829/33/1 830/34/1 831/35/1 832/36/1
f 833/21/1 834/22/1 835/23/1 836/24/1
f 837/33/1 838/34/1 839/35/1 840/36/1
f 841/25/1 842/26/1 843/27/1 844/28/1
f 845/57/1 846/58/1 847/59/1 848/60/1
f 849/61/1 850/62/1 851/63/1 852/64/1
f 853/61/1 854/62/1 855/63/1 856/64/1
f 857/57/1 858/58/1 859/59/1 860/60/1
f 861/61/1 862/62/1 863/63/1 864/64/1

