# Tiled2Unity generated file. Do not modify by hand.
# Wavefront file for 'cave6_mesh_0002.obj'

# Vertices (Count = 244)
v -12 -5 0
v -13 -5 0
v -13 -4 0
v -12 -4 0
v -12 -6 0
v -13 -6 0
v -13 -5 0
v -12 -5 0
v -13 -6 0
v -14 -6 0
v -14 -5 0
v -13 -5 0
v -14 -6 0
v -15 -6 0
v -15 -5 0
v -14 -5 0
v -10 -7 0
v -11 -7 0
v -11 -6 0
v -10 -6 0
v -13 -7 0
v -14 -7 0
v -14 -6 0
v -13 -6 0
v -14 -7 0
v -15 -7 0
v -15 -6 0
v -14 -6 0
v -2 -9 0
v -3 -9 0
v -3 -8 0
v -2 -8 0
v -3 -9 0
v -4 -9 0
v -4 -8 0
v -3 -8 0
v -4 -9 0
v -5 -9 0
v -5 -8 0
v -4 -8 0
v -13 -9 0
v -14 -9 0
v -14 -8 0
v -13 -8 0
v -15 -9 0
v -16 -9 0
v -16 -8 0
v -15 -8 0
v -20 -9 0
v -21 -9 0
v -21 -8 0
v -20 -8 0
v -21 -9 0
v -22 -9 0
v -22 -8 0
v -21 -8 0
v -22 -9 0
v -23 -9 0
v -23 -8 0
v -22 -8 0
v -3 -10 0
v -4 -10 0
v -4 -9 0
v -3 -9 0
v -4 -10 0
v -5 -10 0
v -5 -9 0
v -4 -9 0
v -5 -10 0
v -6 -10 0
v -6 -9 0
v -5 -9 0
v -10 -10 0
v -11 -10 0
v -11 -9 0
v -10 -9 0
v -15 -10 0
v -16 -10 0
v -16 -9 0
v -15 -9 0
v -20 -10 0
v -21 -10 0
v -21 -9 0
v -20 -9 0
v -21 -10 0
v -22 -10 0
v -22 -9 0
v -21 -9 0
v -22 -10 0
v -23 -10 0
v -23 -9 0
v -22 -9 0
v -4 -11 0
v -5 -11 0
v -5 -10 0
v -4 -10 0
v -5 -11 0
v -6 -11 0
v -6 -10 0
v -5 -10 0
v -3 -12 0
v -4 -12 0
v -4 -11 0
v -3 -11 0
v -4 -12 0
v -5 -12 0
v -5 -11 0
v -4 -11 0
v -5 -12 0
v -6 -12 0
v -6 -11 0
v -5 -11 0
v -10 -12 0
v -11 -12 0
v -11 -11 0
v -10 -11 0
v -14 -12 0
v -15 -12 0
v -15 -11 0
v -14 -11 0
v -18 -12 0
v -19 -12 0
v -19 -11 0
v -18 -11 0
v -21 -12 0
v -22 -12 0
v -22 -11 0
v -21 -11 0
v -5 -13 0
v -6 -13 0
v -6 -12 0
v -5 -12 0
v -8 -13 0
v -9 -13 0
v -9 -12 0
v -8 -12 0
v -9 -13 0
v -10 -13 0
v -10 -12 0
v -9 -12 0
v -10 -13 0
v -11 -13 0
v -11 -12 0
v -10 -12 0
v -14 -13 0
v -15 -13 0
v -15 -12 0
v -14 -12 0
v -15 -13 0
v -16 -13 0
v -16 -12 0
v -15 -12 0
v -16 -13 0
v -17 -13 0
v -17 -12 0
v -16 -12 0
v -17 -13 0
v -18 -13 0
v -18 -12 0
v -17 -12 0
v -18 -13 0
v -19 -13 0
v -19 -12 0
v -18 -12 0
v -19 -13 0
v -20 -13 0
v -20 -12 0
v -19 -12 0
v -22 -13 0
v -23 -13 0
v -23 -12 0
v -22 -12 0
v -2 -14 0
v -3 -14 0
v -3 -13 0
v -2 -13 0
v -6 -14 0
v -7 -14 0
v -7 -13 0
v -6 -13 0
v -8 -14 0
v -9 -14 0
v -9 -13 0
v -8 -13 0
v -9 -14 0
v -10 -14 0
v -10 -13 0
v -9 -13 0
v -14 -14 0
v -15 -14 0
v -15 -13 0
v -14 -13 0
v -17 -14 0
v -18 -14 0
v -18 -13 0
v -17 -13 0
v -18 -14 0
v -19 -14 0
v -19 -13 0
v -18 -13 0
v -19 -14 0
v -20 -14 0
v -20 -13 0
v -19 -13 0
v -9 -15 0
v -10 -15 0
v -10 -14 0
v -9 -14 0
v -10 -15 0
v -11 -15 0
v -11 -14 0
v -10 -14 0
v -11 -15 0
v -12 -15 0
v -12 -14 0
v -11 -14 0
v -16 -15 0
v -17 -15 0
v -17 -14 0
v -16 -14 0
v -17 -15 0
v -18 -15 0
v -18 -14 0
v -17 -14 0
v -18 -15 0
v -19 -15 0
v -19 -14 0
v -18 -14 0
v -19 -15 0
v -20 -15 0
v -20 -14 0
v -19 -14 0
v -20 -15 0
v -21 -15 0
v -21 -14 0
v -20 -14 0
v -6 -16 0
v -7 -16 0
v -7 -15 0
v -6 -15 0
v -15 -17 0
v -16 -17 0
v -16 -16 0
v -15 -16 0

# Texture cooridinates (Count = 64)
vt 0.126071 0.6568807
vt 0.1456548 0.6568807
vt 0.1456548 0.6862385
vt 0.126071 0.6862385
vt 0.3341493 0.906422
vt 0.3537332 0.906422
vt 0.3537332 0.9357798
vt 0.3341493 0.9357798
vt 0.7086903 0.9688073
vt 0.7282742 0.9688073
vt 0.7282742 0.9981651
vt 0.7086903 0.9981651
vt 0.7294981 0.9688073
vt 0.749082 0.9688073
vt 0.749082 0.9981651
vt 0.7294981 0.9981651
vt 0.7919217 0.9688073
vt 0.8115055 0.9688073
vt 0.8115055 0.9981651
vt 0.7919217 0.9981651
vt 0.3133415 0.7504587
vt 0.3329253 0.7504587
vt 0.3329253 0.7798165
vt 0.3133415 0.7798165
vt 0.6670747 0.9688073
vt 0.6866585 0.9688073
vt 0.6866585 0.9981651
vt 0.6670747 0.9981651
vt 0.6878825 0.9688073
vt 0.7074664 0.9688073
vt 0.7074664 0.9981651
vt 0.6878825 0.9981651
vt 0.1676867 0.6568807
vt 0.1872705 0.6568807
vt 0.1872705 0.6862385
vt 0.1676867 0.6862385
vt 0.6462668 0.9376147
vt 0.6658507 0.9376147
vt 0.6658507 0.9669725
vt 0.6462668 0.9669725
vt 0.6878825 0.9376147
vt 0.7074664 0.9376147
vt 0.7074664 0.9669725
vt 0.6878825 0.9669725
vt 0.7711138 0.8752294
vt 0.7906977 0.8752294
vt 0.7906977 0.9045871
vt 0.7711138 0.9045871
vt 0.6670747 0.9376147
vt 0.6866585 0.9376147
vt 0.6866585 0.9669725
vt 0.6670747 0.9669725
vt 0.1052632 0.6568807
vt 0.124847 0.6568807
vt 0.124847 0.6862385
vt 0.1052632 0.6862385
vt 0.7711138 0.9688073
vt 0.7906977 0.9688073
vt 0.7906977 0.9981651
vt 0.7711138 0.9981651
vt 0.2301102 0.6568807
vt 0.249694 0.6568807
vt 0.249694 0.6862385
vt 0.2301102 0.6862385

# Normal
vn 0 0 -1

# Mesh description
g cave6_mesh_0002

# Faces
f 1/1/1 2/2/1 3/3/1 4/4/1
f 5/5/1 6/6/1 7/7/1 8/8/1
f 9/9/1 10/10/1 11/11/1 12/12/1
f 13/13/1 14/14/1 15/15/1 16/16/1
f 17/1/1 18/2/1 19/3/1 20/4/1
f 21/13/1 22/14/1 23/15/1 24/16/1
f 25/17/1 26/18/1 27/19/1 28/20/1
f 29/21/1 30/22/1 31/23/1 32/24/1
f 33/25/1 34/26/1 35/27/1 36/28/1
f 37/29/1 38/30/1 39/31/1 40/32/1
f 41/33/1 42/34/1 43/35/1 44/36/1
f 45/21/1 46/22/1 47/23/1 48/24/1
f 49/37/1 50/38/1 51/39/1 52/40/1
f 53/41/1 54/42/1 55/43/1 56/44/1
f 57/45/1 58/46/1 59/47/1 60/48/1
f 61/37/1 62/38/1 63/39/1 64/40/1
f 65/9/1 66/10/1 67/11/1 68/12/1
f 69/33/1 70/34/1 71/35/1 72/36/1
f 73/21/1 74/22/1 75/23/1 76/24/1
f 77/29/1 78/30/1 79/31/1 80/32/1
f 81/41/1 82/42/1 83/43/1 84/44/1
f 85/49/1 86/50/1 87/51/1 88/52/1
f 89/13/1 90/14/1 91/15/1 92/16/1
f 93/41/1 94/42/1 95/43/1 96/44/1
f 97/25/1 98/26/1 99/27/1 100/28/1
f 101/53/1 102/54/1 103/55/1 104/56/1
f 105/25/1 106/26/1 107/27/1 108/28/1
f 109/25/1 110/26/1 111/27/1 112/28/1
f 113/49/1 114/50/1 115/51/1 116/52/1
f 117/33/1 118/34/1 119/35/1 120/36/1
f 121/37/1 122/38/1 123/39/1 124/40/1
f 125/5/1 126/6/1 127/7/1 128/8/1
f 129/9/1 130/10/1 131/11/1 132/12/1
f 133/37/1 134/38/1 135/39/1 136/40/1
f 137/13/1 138/14/1 139/15/1 140/16/1
f 141/37/1 142/38/1 143/39/1 144/40/1
f 145/25/1 146/26/1 147/27/1 148/28/1
f 149/57/1 150/58/1 151/59/1 152/60/1
f 153/37/1 154/38/1 155/39/1 156/40/1
f 157/13/1 158/14/1 159/15/1 160/16/1
f 161/37/1 162/38/1 163/39/1 164/40/1
f 165/17/1 166/18/1 167/19/1 168/20/1
f 169/21/1 170/22/1 171/23/1 172/24/1
f 173/21/1 174/22/1 175/23/1 176/24/1
f 177/1/1 178/2/1 179/3/1 180/4/1
f 181/37/1 182/38/1 183/39/1 184/40/1
f 185/13/1 186/14/1 187/15/1 188/16/1
f 189/49/1 190/50/1 191/51/1 192/52/1
f 193/41/1 194/42/1 195/43/1 196/44/1
f 197/25/1 198/26/1 199/27/1 200/28/1
f 201/25/1 202/26/1 203/27/1 204/28/1
f 205/41/1 206/42/1 207/43/1 208/44/1
f 209/25/1 210/26/1 211/27/1 212/28/1
f 213/21/1 214/22/1 215/23/1 216/24/1
f 217/33/1 218/34/1 219/35/1 220/36/1
f 221/13/1 222/14/1 223/15/1 224/16/1
f 225/37/1 226/38/1 227/39/1 228/40/1
f 229/57/1 230/58/1 231/59/1 232/60/1
f 233/61/1 234/62/1 235/63/1 236/64/1
f 237/21/1 238/22/1 239/23/1 240/24/1
f 241/21/1 242/22/1 243/23/1 244/24/1

