# Tiled2Unity generated file. Do not modify by hand.
# Wavefront file for 'cave6_mesh_0003.obj'

# Vertices (Count = 56)
v -2 -4 0
v -3 -4 0
v -3 -3 0
v -2 -3 0
v -3 -4 0
v -4 -4 0
v -4 -3 0
v -3 -3 0
v -4 -4 0
v -5 -4 0
v -5 -3 0
v -4 -3 0
v -20 -4 0
v -21 -4 0
v -21 -3 0
v -20 -3 0
v -21 -4 0
v -22 -4 0
v -22 -3 0
v -21 -3 0
v -22 -4 0
v -23 -4 0
v -23 -3 0
v -22 -3 0
v -2 -5 0
v -3 -5 0
v -3 -4 0
v -2 -4 0
v -3 -5 0
v -4 -5 0
v -4 -4 0
v -3 -4 0
v -4 -5 0
v -5 -5 0
v -5 -4 0
v -4 -4 0
v -20 -5 0
v -21 -5 0
v -21 -4 0
v -20 -4 0
v -21 -5 0
v -22 -5 0
v -22 -4 0
v -21 -4 0
v -22 -5 0
v -23 -5 0
v -23 -4 0
v -22 -4 0
v -3 -6 0
v -4 -6 0
v -4 -5 0
v -3 -5 0
v -21 -6 0
v -22 -6 0
v -22 -5 0
v -21 -5 0

# Texture cooridinates (Count = 12)
vt 0.00122399 0.9688073
vt 0.02080783 0.9688073
vt 0.02080783 0.9981651
vt 0.00122399 0.9981651
vt 0.126071 0.9688073
vt 0.1456548 0.9688073
vt 0.1456548 0.9981651
vt 0.126071 0.9981651
vt 0.3965728 0.7816514
vt 0.4161567 0.7816514
vt 0.4161567 0.8110092
vt 0.3965728 0.8110092

# Normal
vn 0 0 -1

# Mesh description
g cave6_mesh_0003

# Faces
f 1/1/1 2/2/1 3/3/1 4/4/1
f 5/1/1 6/2/1 7/3/1 8/4/1
f 9/1/1 10/2/1 11/3/1 12/4/1
f 13/1/1 14/2/1 15/3/1 16/4/1
f 17/1/1 18/2/1 19/3/1 20/4/1
f 21/1/1 22/2/1 23/3/1 24/4/1
f 25/5/1 26/6/1 27/7/1 28/8/1
f 29/5/1 30/6/1 31/7/1 32/8/1
f 33/5/1 34/6/1 35/7/1 36/8/1
f 37/5/1 38/6/1 39/7/1 40/8/1
f 41/5/1 42/6/1 43/7/1 44/8/1
f 45/5/1 46/6/1 47/7/1 48/8/1
f 49/9/1 50/10/1 51/11/1 52/12/1
f 53/9/1 54/10/1 55/11/1 56/12/1

