# Tiled2Unity generated file. Do not modify by hand.
# Wavefront file for 'moltenCave_10_mesh_0003.obj'

# Vertices (Count = 56)
v -8 -9 0
v -9 -9 0
v -9 -8 0
v -8 -8 0
v -10 -9 0
v -11 -9 0
v -11 -8 0
v -10 -8 0
v -8 -10 0
v -9 -10 0
v -9 -9 0
v -8 -9 0
v -10 -10 0
v -11 -10 0
v -11 -9 0
v -10 -9 0
v -6 -11 0
v -7 -11 0
v -7 -10 0
v -6 -10 0
v -7 -11 0
v -8 -11 0
v -8 -10 0
v -7 -10 0
v -11 -11 0
v -12 -11 0
v -12 -10 0
v -11 -10 0
v -12 -11 0
v -13 -11 0
v -13 -10 0
v -12 -10 0
v -6 -12 0
v -7 -12 0
v -7 -11 0
v -6 -11 0
v -12 -12 0
v -13 -12 0
v -13 -11 0
v -12 -11 0
v -9 -13 0
v -10 -13 0
v -10 -12 0
v -9 -12 0
v -7 -14 0
v -8 -14 0
v -8 -13 0
v -7 -13 0
v -10 -21 0
v -11 -21 0
v -11 -20 0
v -10 -20 0
v -8 -23 0
v -9 -23 0
v -9 -22 0
v -8 -22 0

# Texture cooridinates (Count = 20)
vt 0.7711138 0.7504587
vt 0.7906977 0.7504587
vt 0.7906977 0.7798165
vt 0.7711138 0.7798165
vt 0.8543451 0.7504587
vt 0.873929 0.7504587
vt 0.873929 0.7798165
vt 0.8543451 0.7798165
vt 0.1676867 0.6568807
vt 0.1872705 0.6568807
vt 0.1872705 0.6862385
vt 0.1676867 0.6862385
vt 0.126071 0.6568807
vt 0.1456548 0.6568807
vt 0.1456548 0.6862385
vt 0.126071 0.6862385
vt 0.1052632 0.6568807
vt 0.124847 0.6568807
vt 0.124847 0.6862385
vt 0.1052632 0.6862385

# Normal
vn 0 0 -1

# Mesh description
g moltenCave_10_mesh_0003

# Faces
f 1/1/1 2/2/1 3/3/1 4/4/1
f 5/1/1 6/2/1 7/3/1 8/4/1
f 9/5/1 10/6/1 11/7/1 12/8/1
f 13/5/1 14/6/1 15/7/1 16/8/1
f 17/1/1 18/2/1 19/3/1 20/4/1
f 21/9/1 22/10/1 23/11/1 24/12/1
f 25/13/1 26/14/1 27/15/1 28/16/1
f 29/1/1 30/2/1 31/3/1 32/4/1
f 33/5/1 34/6/1 35/7/1 36/8/1
f 37/5/1 38/6/1 39/7/1 40/8/1
f 41/13/1 42/14/1 43/15/1 44/16/1
f 45/17/1 46/18/1 47/19/1 48/20/1
f 49/13/1 50/14/1 51/15/1 52/16/1
f 53/9/1 54/10/1 55/11/1 56/12/1

