# Tiled2Unity generated file. Do not modify by hand.
# Wavefront file for 'lightWoods_5_mesh_0005.obj'

# Vertices (Count = 136)
v -25 -1 0
v -26 -1 0
v -26 0 0
v -25 0 0
v -26 -1 0
v -27 -1 0
v -27 0 0
v -26 0 0
v -31 -1 0
v -32 -1 0
v -32 0 0
v -31 0 0
v -19 -2 0
v -20 -2 0
v -20 -1 0
v -19 -1 0
v -20 -2 0
v -21 -2 0
v -21 -1 0
v -20 -1 0
v -31 -2 0
v -32 -2 0
v -32 -1 0
v -31 -1 0
v -19 -3 0
v -20 -3 0
v -20 -2 0
v -19 -2 0
v -20 -3 0
v -21 -3 0
v -21 -2 0
v -20 -2 0
v -28 -3 0
v -29 -3 0
v -29 -2 0
v -28 -2 0
v -29 -3 0
v -30 -3 0
v -30 -2 0
v -29 -2 0
v -28 -4 0
v -29 -4 0
v -29 -3 0
v -28 -3 0
v -29 -4 0
v -30 -4 0
v -30 -3 0
v -29 -3 0
v -30 -6 0
v -31 -6 0
v -31 -5 0
v -30 -5 0
v -31 -6 0
v -32 -6 0
v -32 -5 0
v -31 -5 0
v -30 -7 0
v -31 -7 0
v -31 -6 0
v -30 -6 0
v -31 -7 0
v -32 -7 0
v -32 -6 0
v -31 -6 0
v -15 -8 0
v -16 -8 0
v -16 -7 0
v -15 -7 0
v -16 -8 0
v -17 -8 0
v -17 -7 0
v -16 -7 0
v -15 -9 0
v -16 -9 0
v -16 -8 0
v -15 -8 0
v -16 -9 0
v -17 -9 0
v -17 -8 0
v -16 -8 0
v -31 -10 0
v -32 -10 0
v -32 -9 0
v -31 -9 0
v -31 -11 0
v -32 -11 0
v -32 -10 0
v -31 -10 0
v -28 -14 0
v -29 -14 0
v -29 -13 0
v -28 -13 0
v -29 -14 0
v -30 -14 0
v -30 -13 0
v -29 -13 0
v -28 -15 0
v -29 -15 0
v -29 -14 0
v -28 -14 0
v -29 -15 0
v -30 -15 0
v -30 -14 0
v -29 -14 0
v -16 -19 0
v -17 -19 0
v -17 -18 0
v -16 -18 0
v -17 -19 0
v -18 -19 0
v -18 -18 0
v -17 -18 0
v -16 -20 0
v -17 -20 0
v -17 -19 0
v -16 -19 0
v -17 -20 0
v -18 -20 0
v -18 -19 0
v -17 -19 0
v -18 -25 0
v -19 -25 0
v -19 -24 0
v -18 -24 0
v -19 -25 0
v -20 -25 0
v -20 -24 0
v -19 -24 0
v -18 -26 0
v -19 -26 0
v -19 -25 0
v -18 -25 0
v -19 -26 0
v -20 -26 0
v -20 -25 0
v -19 -25 0

# Texture cooridinates (Count = 16)
vt 0.5214198 0.8752294
vt 0.5410036 0.8752294
vt 0.5410036 0.9045871
vt 0.5214198 0.9045871
vt 0.5422277 0.8752294
vt 0.5618115 0.8752294
vt 0.5618115 0.9045871
vt 0.5422277 0.9045871
vt 0.875153 0.8440367
vt 0.8947368 0.8440367
vt 0.8947368 0.8733945
vt 0.875153 0.8733945
vt 0.8959608 0.8440367
vt 0.9155447 0.8440367
vt 0.9155447 0.8733945
vt 0.8959608 0.8733945

# Normal
vn 0 0 -1

# Mesh description
g lightWoods_5_mesh_0005

# Faces
f 1/1/1 2/2/1 3/3/1 4/4/1
f 5/5/1 6/6/1 7/7/1 8/8/1
f 9/9/1 10/10/1 11/11/1 12/12/1
f 13/9/1 14/10/1 15/11/1 16/12/1
f 17/13/1 18/14/1 19/15/1 20/16/1
f 21/1/1 22/2/1 23/3/1 24/4/1
f 25/1/1 26/2/1 27/3/1 28/4/1
f 29/5/1 30/6/1 31/7/1 32/8/1
f 33/9/1 34/10/1 35/11/1 36/12/1
f 37/13/1 38/14/1 39/15/1 40/16/1
f 41/1/1 42/2/1 43/3/1 44/4/1
f 45/5/1 46/6/1 47/7/1 48/8/1
f 49/9/1 50/10/1 51/11/1 52/12/1
f 53/13/1 54/14/1 55/15/1 56/16/1
f 57/1/1 58/2/1 59/3/1 60/4/1
f 61/5/1 62/6/1 63/7/1 64/8/1
f 65/9/1 66/10/1 67/11/1 68/12/1
f 69/13/1 70/14/1 71/15/1 72/16/1
f 73/1/1 74/2/1 75/3/1 76/4/1
f 77/5/1 78/6/1 79/7/1 80/8/1
f 81/9/1 82/10/1 83/11/1 84/12/1
f 85/1/1 86/2/1 87/3/1 88/4/1
f 89/9/1 90/10/1 91/11/1 92/12/1
f 93/13/1 94/14/1 95/15/1 96/16/1
f 97/1/1 98/2/1 99/3/1 100/4/1
f 101/5/1 102/6/1 103/7/1 104/8/1
f 105/9/1 106/10/1 107/11/1 108/12/1
f 109/13/1 110/14/1 111/15/1 112/16/1
f 113/1/1 114/2/1 115/3/1 116/4/1
f 117/5/1 118/6/1 119/7/1 120/8/1
f 121/9/1 122/10/1 123/11/1 124/12/1
f 125/13/1 126/14/1 127/15/1 128/16/1
f 129/1/1 130/2/1 131/3/1 132/4/1
f 133/5/1 134/6/1 135/7/1 136/8/1

