# Tiled2Unity generated file. Do not modify by hand.
# Wavefront file for 'palmacosta_1_mesh_0004.obj'

# Vertices (Count = 276)
v -50 -18 0
v -51 -18 0
v -51 -17 0
v -50 -17 0
v -51 -18 0
v -52 -18 0
v -52 -17 0
v -51 -17 0
v -1 -27 0
v -2 -27 0
v -2 -26 0
v -1 -26 0
v -2 -27 0
v -3 -27 0
v -3 -26 0
v -2 -26 0
v -3 -27 0
v -4 -27 0
v -4 -26 0
v -3 -26 0
v -4 -27 0
v -5 -27 0
v -5 -26 0
v -4 -26 0
v -5 -28 0
v -6 -28 0
v -6 -27 0
v -5 -27 0
v -6 -28 0
v -7 -28 0
v -7 -27 0
v -6 -27 0
v -12 -28 0
v -13 -28 0
v -13 -27 0
v -12 -27 0
v -13 -28 0
v -14 -28 0
v -14 -27 0
v -13 -27 0
v -14 -29 0
v -15 -29 0
v -15 -28 0
v -14 -28 0
v -15 -29 0
v -16 -29 0
v -16 -28 0
v -15 -28 0
v -16 -29 0
v -17 -29 0
v -17 -28 0
v -16 -28 0
v -17 -29 0
v -18 -29 0
v -18 -28 0
v -17 -28 0
v -18 -29 0
v -19 -29 0
v -19 -28 0
v -18 -28 0
v -19 -29 0
v -20 -29 0
v -20 -28 0
v -19 -28 0
v -20 -29 0
v -21 -29 0
v -21 -28 0
v -20 -28 0
v -21 -29 0
v -22 -29 0
v -22 -28 0
v -21 -28 0
v -22 -29 0
v -23 -29 0
v -23 -28 0
v -22 -28 0
v -23 -29 0
v -24 -29 0
v -24 -28 0
v -23 -28 0
v -24 -29 0
v -25 -29 0
v -25 -28 0
v -24 -28 0
v -25 -30 0
v -26 -30 0
v -26 -29 0
v -25 -29 0
v -26 -30 0
v -27 -30 0
v -27 -29 0
v -26 -29 0
v -27 -30 0
v -28 -30 0
v -28 -29 0
v -27 -29 0
v -28 -30 0
v -29 -30 0
v -29 -29 0
v -28 -29 0
v -29 -30 0
v -30 -30 0
v -30 -29 0
v -29 -29 0
v -30 -30 0
v -31 -30 0
v -31 -29 0
v -30 -29 0
v -31 -30 0
v -32 -30 0
v -32 -29 0
v -31 -29 0
v -32 -30 0
v -33 -30 0
v -33 -29 0
v -32 -29 0
v -43 -30 0
v -44 -30 0
v -44 -29 0
v -43 -29 0
v -44 -30 0
v -45 -30 0
v -45 -29 0
v -44 -29 0
v -33 -31 0
v -34 -31 0
v -34 -30 0
v -33 -30 0
v -34 -31 0
v -35 -31 0
v -35 -30 0
v -34 -30 0
v -35 -31 0
v -36 -31 0
v -36 -30 0
v -35 -30 0
v -41 -31 0
v -42 -31 0
v -42 -30 0
v -41 -30 0
v -42 -31 0
v -43 -31 0
v -43 -30 0
v -42 -30 0
v 0 -34 0
v -1 -34 0
v -1 -33 0
v 0 -33 0
v -1 -34 0
v -2 -34 0
v -2 -33 0
v -1 -33 0
v -2 -34 0
v -3 -34 0
v -3 -33 0
v -2 -33 0
v -3 -34 0
v -4 -34 0
v -4 -33 0
v -3 -33 0
v -4 -34 0
v -5 -34 0
v -5 -33 0
v -4 -33 0
v -6 -35 0
v -7 -35 0
v -7 -34 0
v -6 -34 0
v -12 -35 0
v -13 -35 0
v -13 -34 0
v -12 -34 0
v -13 -35 0
v -14 -35 0
v -14 -34 0
v -13 -34 0
v -15 -36 0
v -16 -36 0
v -16 -35 0
v -15 -35 0
v -16 -36 0
v -17 -36 0
v -17 -35 0
v -16 -35 0
v -17 -36 0
v -18 -36 0
v -18 -35 0
v -17 -35 0
v -18 -36 0
v -19 -36 0
v -19 -35 0
v -18 -35 0
v -19 -36 0
v -20 -36 0
v -20 -35 0
v -19 -35 0
v -20 -36 0
v -21 -36 0
v -21 -35 0
v -20 -35 0
v -21 -36 0
v -22 -36 0
v -22 -35 0
v -21 -35 0
v -22 -36 0
v -23 -36 0
v -23 -35 0
v -22 -35 0
v -23 -36 0
v -24 -36 0
v -24 -35 0
v -23 -35 0
v -25 -37 0
v -26 -37 0
v -26 -36 0
v -25 -36 0
v -26 -37 0
v -27 -37 0
v -27 -36 0
v -26 -36 0
v -27 -37 0
v -28 -37 0
v -28 -36 0
v -27 -36 0
v -28 -37 0
v -29 -37 0
v -29 -36 0
v -28 -36 0
v -29 -37 0
v -30 -37 0
v -30 -36 0
v -29 -36 0
v -30 -37 0
v -31 -37 0
v -31 -36 0
v -30 -36 0
v -31 -37 0
v -32 -37 0
v -32 -36 0
v -31 -36 0
v -32 -37 0
v -33 -37 0
v -33 -36 0
v -32 -36 0
v -34 -38 0
v -35 -38 0
v -35 -37 0
v -34 -37 0
v -35 -38 0
v -36 -38 0
v -36 -37 0
v -35 -37 0
v -41 -38 0
v -42 -38 0
v -42 -37 0
v -41 -37 0
v -42 -38 0
v -43 -38 0
v -43 -37 0
v -42 -37 0
v -44 -39 0
v -45 -39 0
v -45 -38 0
v -44 -38 0
v -45 -39 0
v -46 -39 0
v -46 -38 0
v -45 -38 0
v -46 -39 0
v -47 -39 0
v -47 -38 0
v -46 -38 0
v -48 -48 0
v -49 -48 0
v -49 -47 0
v -48 -47 0

# Texture cooridinates (Count = 8)
vt 0.7282742 0.8440367
vt 0.7086903 0.8440367
vt 0.7086903 0.8733945
vt 0.7282742 0.8733945
vt 0.4589963 0.7816514
vt 0.4785802 0.7816514
vt 0.4785802 0.8110092
vt 0.4589963 0.8110092

# Normal
vn 0 0 -1

# Mesh description
g palmacosta_1_mesh_0004

# Faces
f 1/1/1 2/2/1 3/3/1 4/4/1
f 5/1/1 6/2/1 7/3/1 8/4/1
f 9/1/1 10/2/1 11/3/1 12/4/1
f 13/1/1 14/2/1 15/3/1 16/4/1
f 17/1/1 18/2/1 19/3/1 20/4/1
f 21/1/1 22/2/1 23/3/1 24/4/1
f 25/1/1 26/2/1 27/3/1 28/4/1
f 29/1/1 30/2/1 31/3/1 32/4/1
f 33/1/1 34/2/1 35/3/1 36/4/1
f 37/1/1 38/2/1 39/3/1 40/4/1
f 41/1/1 42/2/1 43/3/1 44/4/1
f 45/1/1 46/2/1 47/3/1 48/4/1
f 49/1/1 50/2/1 51/3/1 52/4/1
f 53/1/1 54/2/1 55/3/1 56/4/1
f 57/1/1 58/2/1 59/3/1 60/4/1
f 61/1/1 62/2/1 63/3/1 64/4/1
f 65/1/1 66/2/1 67/3/1 68/4/1
f 69/1/1 70/2/1 71/3/1 72/4/1
f 73/1/1 74/2/1 75/3/1 76/4/1
f 77/1/1 78/2/1 79/3/1 80/4/1
f 81/1/1 82/2/1 83/3/1 84/4/1
f 85/1/1 86/2/1 87/3/1 88/4/1
f 89/1/1 90/2/1 91/3/1 92/4/1
f 93/1/1 94/2/1 95/3/1 96/4/1
f 97/1/1 98/2/1 99/3/1 100/4/1
f 101/1/1 102/2/1 103/3/1 104/4/1
f 105/1/1 106/2/1 107/3/1 108/4/1
f 109/1/1 110/2/1 111/3/1 112/4/1
f 113/1/1 114/2/1 115/3/1 116/4/1
f 117/1/1 118/2/1 119/3/1 120/4/1
f 121/1/1 122/2/1 123/3/1 124/4/1
f 125/1/1 126/2/1 127/3/1 128/4/1
f 129/1/1 130/2/1 131/3/1 132/4/1
f 133/1/1 134/2/1 135/3/1 136/4/1
f 137/1/1 138/2/1 139/3/1 140/4/1
f 141/1/1 142/2/1 143/3/1 144/4/1
f 145/4/1 146/3/1 147/2/1 148/1/1
f 149/4/1 150/3/1 151/2/1 152/1/1
f 153/4/1 154/3/1 155/2/1 156/1/1
f 157/4/1 158/3/1 159/2/1 160/1/1
f 161/4/1 162/3/1 163/2/1 164/1/1
f 165/5/1 166/6/1 167/7/1 168/8/1
f 169/4/1 170/3/1 171/2/1 172/1/1
f 173/4/1 174/3/1 175/2/1 176/1/1
f 177/5/1 178/6/1 179/7/1 180/8/1
f 181/4/1 182/3/1 183/2/1 184/1/1
f 185/4/1 186/3/1 187/2/1 188/1/1
f 189/4/1 190/3/1 191/2/1 192/1/1
f 193/4/1 194/3/1 195/2/1 196/1/1
f 197/4/1 198/3/1 199/2/1 200/1/1
f 201/4/1 202/3/1 203/2/1 204/1/1
f 205/4/1 206/3/1 207/2/1 208/1/1
f 209/4/1 210/3/1 211/2/1 212/1/1
f 213/5/1 214/6/1 215/7/1 216/8/1
f 217/4/1 218/3/1 219/2/1 220/1/1
f 221/4/1 222/3/1 223/2/1 224/1/1
f 225/4/1 226/3/1 227/2/1 228/1/1
f 229/4/1 230/3/1 231/2/1 232/1/1
f 233/4/1 234/3/1 235/2/1 236/1/1
f 237/4/1 238/3/1 239/2/1 240/1/1
f 241/4/1 242/3/1 243/2/1 244/1/1
f 245/5/1 246/6/1 247/7/1 248/8/1
f 249/4/1 250/3/1 251/2/1 252/1/1
f 253/4/1 254/3/1 255/2/1 256/1/1
f 257/4/1 258/3/1 259/2/1 260/1/1
f 261/5/1 262/6/1 263/7/1 264/8/1
f 265/4/1 266/3/1 267/2/1 268/1/1
f 269/4/1 270/3/1 271/2/1 272/1/1
f 273/5/1 274/6/1 275/7/1 276/8/1

