# Tiled2Unity generated file. Do not modify by hand.
# Wavefront file for 'lightWoods_3_mesh_0005.obj'

# Vertices (Count = 916)
v 0 -1 0
v -1 -1 0
v -1 0 0
v 0 0 0
v -1 -1 0
v -2 -1 0
v -2 0 0
v -1 0 0
v -2 -1 0
v -3 -1 0
v -3 0 0
v -2 0 0
v -3 -1 0
v -4 -1 0
v -4 0 0
v -3 0 0
v -4 -1 0
v -5 -1 0
v -5 0 0
v -4 0 0
v -5 -1 0
v -6 -1 0
v -6 0 0
v -5 0 0
v -6 -1 0
v -7 -1 0
v -7 0 0
v -6 0 0
v -7 -1 0
v -8 -1 0
v -8 0 0
v -7 0 0
v -8 -1 0
v -9 -1 0
v -9 0 0
v -8 0 0
v -11 -1 0
v -12 -1 0
v -12 0 0
v -11 0 0
v -12 -1 0
v -13 -1 0
v -13 0 0
v -12 0 0
v -22 -1 0
v -23 -1 0
v -23 0 0
v -22 0 0
v -23 -1 0
v -24 -1 0
v -24 0 0
v -23 0 0
v -24 -1 0
v -25 -1 0
v -25 0 0
v -24 0 0
v -26 -1 0
v -27 -1 0
v -27 0 0
v -26 0 0
v -28 -1 0
v -29 -1 0
v -29 0 0
v -28 0 0
v -31 -1 0
v -32 -1 0
v -32 0 0
v -31 0 0
v 0 -2 0
v -1 -2 0
v -1 -1 0
v 0 -1 0
v -1 -2 0
v -2 -2 0
v -2 -1 0
v -1 -1 0
v -2 -2 0
v -3 -2 0
v -3 -1 0
v -2 -1 0
v -3 -2 0
v -4 -2 0
v -4 -1 0
v -3 -1 0
v -4 -2 0
v -5 -2 0
v -5 -1 0
v -4 -1 0
v -11 -2 0
v -12 -2 0
v -12 -1 0
v -11 -1 0
v -12 -2 0
v -13 -2 0
v -13 -1 0
v -12 -1 0
v -13 -2 0
v -14 -2 0
v -14 -1 0
v -13 -1 0
v -14 -2 0
v -15 -2 0
v -15 -1 0
v -14 -1 0
v -21 -2 0
v -22 -2 0
v -22 -1 0
v -21 -1 0
v -22 -2 0
v -23 -2 0
v -23 -1 0
v -22 -1 0
v -23 -2 0
v -24 -2 0
v -24 -1 0
v -23 -1 0
v -25 -2 0
v -26 -2 0
v -26 -1 0
v -25 -1 0
v -26 -2 0
v -27 -2 0
v -27 -1 0
v -26 -1 0
v -28 -2 0
v -29 -2 0
v -29 -1 0
v -28 -1 0
v -31 -2 0
v -32 -2 0
v -32 -1 0
v -31 -1 0
v -11 -3 0
v -12 -3 0
v -12 -2 0
v -11 -2 0
v -13 -3 0
v -14 -3 0
v -14 -2 0
v -13 -2 0
v -14 -3 0
v -15 -3 0
v -15 -2 0
v -14 -2 0
v -15 -3 0
v -16 -3 0
v -16 -2 0
v -15 -2 0
v -16 -3 0
v -17 -3 0
v -17 -2 0
v -16 -2 0
v -17 -3 0
v -18 -3 0
v -18 -2 0
v -17 -2 0
v -18 -3 0
v -19 -3 0
v -19 -2 0
v -18 -2 0
v -19 -3 0
v -20 -3 0
v -20 -2 0
v -19 -2 0
v -20 -3 0
v -21 -3 0
v -21 -2 0
v -20 -2 0
v -21 -3 0
v -22 -3 0
v -22 -2 0
v -21 -2 0
v -23 -3 0
v -24 -3 0
v -24 -2 0
v -23 -2 0
v -25 -3 0
v -26 -3 0
v -26 -2 0
v -25 -2 0
v -29 -3 0
v -30 -3 0
v -30 -2 0
v -29 -2 0
v -13 -4 0
v -14 -4 0
v -14 -3 0
v -13 -3 0
v -14 -4 0
v -15 -4 0
v -15 -3 0
v -14 -3 0
v -15 -4 0
v -16 -4 0
v -16 -3 0
v -15 -3 0
v -16 -4 0
v -17 -4 0
v -17 -3 0
v -16 -3 0
v -17 -4 0
v -18 -4 0
v -18 -3 0
v -17 -3 0
v -18 -4 0
v -19 -4 0
v -19 -3 0
v -18 -3 0
v -19 -4 0
v -20 -4 0
v -20 -3 0
v -19 -3 0
v -20 -4 0
v -21 -4 0
v -21 -3 0
v -20 -3 0
v -22 -4 0
v -23 -4 0
v -23 -3 0
v -22 -3 0
v -23 -4 0
v -24 -4 0
v -24 -3 0
v -23 -3 0
v -29 -4 0
v -30 -4 0
v -30 -3 0
v -29 -3 0
v -14 -5 0
v -15 -5 0
v -15 -4 0
v -14 -4 0
v -16 -5 0
v -17 -5 0
v -17 -4 0
v -16 -4 0
v -19 -5 0
v -20 -5 0
v -20 -4 0
v -19 -4 0
v -22 -5 0
v -23 -5 0
v -23 -4 0
v -22 -4 0
v -29 -5 0
v -30 -5 0
v -30 -4 0
v -29 -4 0
v -2 -6 0
v -3 -6 0
v -3 -5 0
v -2 -5 0
v -3 -6 0
v -4 -6 0
v -4 -5 0
v -3 -5 0
v -4 -6 0
v -5 -6 0
v -5 -5 0
v -4 -5 0
v -5 -6 0
v -6 -6 0
v -6 -5 0
v -5 -5 0
v -6 -6 0
v -7 -6 0
v -7 -5 0
v -6 -5 0
v -16 -6 0
v -17 -6 0
v -17 -5 0
v -16 -5 0
v -19 -6 0
v -20 -6 0
v -20 -5 0
v -19 -5 0
v -28 -6 0
v -29 -6 0
v -29 -5 0
v -28 -5 0
v -29 -6 0
v -30 -6 0
v -30 -5 0
v -29 -5 0
v -31 -6 0
v -32 -6 0
v -32 -5 0
v -31 -5 0
v 0 -7 0
v -1 -7 0
v -1 -6 0
v 0 -6 0
v -1 -7 0
v -2 -7 0
v -2 -6 0
v -1 -6 0
v -2 -7 0
v -3 -7 0
v -3 -6 0
v -2 -6 0
v -3 -7 0
v -4 -7 0
v -4 -6 0
v -3 -6 0
v -4 -7 0
v -5 -7 0
v -5 -6 0
v -4 -6 0
v -5 -7 0
v -6 -7 0
v -6 -6 0
v -5 -6 0
v -6 -7 0
v -7 -7 0
v -7 -6 0
v -6 -6 0
v -7 -7 0
v -8 -7 0
v -8 -6 0
v -7 -6 0
v -27 -7 0
v -28 -7 0
v -28 -6 0
v -27 -6 0
v -28 -7 0
v -29 -7 0
v -29 -6 0
v -28 -6 0
v -31 -7 0
v -32 -7 0
v -32 -6 0
v -31 -6 0
v 0 -8 0
v -1 -8 0
v -1 -7 0
v 0 -7 0
v -1 -8 0
v -2 -8 0
v -2 -7 0
v -1 -7 0
v -2 -8 0
v -3 -8 0
v -3 -7 0
v -2 -7 0
v -3 -8 0
v -4 -8 0
v -4 -7 0
v -3 -7 0
v -7 -8 0
v -8 -8 0
v -8 -7 0
v -7 -7 0
v -27 -8 0
v -28 -8 0
v -28 -7 0
v -27 -7 0
v -3 -9 0
v -4 -9 0
v -4 -8 0
v -3 -8 0
v -4 -9 0
v -5 -9 0
v -5 -8 0
v -4 -8 0
v -7 -9 0
v -8 -9 0
v -8 -8 0
v -7 -8 0
v -8 -9 0
v -9 -9 0
v -9 -8 0
v -8 -8 0
v -27 -9 0
v -28 -9 0
v -28 -8 0
v -27 -8 0
v -29 -9 0
v -30 -9 0
v -30 -8 0
v -29 -8 0
v -8 -10 0
v -9 -10 0
v -9 -9 0
v -8 -9 0
v -27 -10 0
v -28 -10 0
v -28 -9 0
v -27 -9 0
v -29 -10 0
v -30 -10 0
v -30 -9 0
v -29 -9 0
v -8 -11 0
v -9 -11 0
v -9 -10 0
v -8 -10 0
v -27 -11 0
v -28 -11 0
v -28 -10 0
v -27 -10 0
v -28 -11 0
v -29 -11 0
v -29 -10 0
v -28 -10 0
v -29 -11 0
v -30 -11 0
v -30 -10 0
v -29 -10 0
v -30 -11 0
v -31 -11 0
v -31 -10 0
v -30 -10 0
v -31 -11 0
v -32 -11 0
v -32 -10 0
v -31 -10 0
v -5 -12 0
v -6 -12 0
v -6 -11 0
v -5 -11 0
v -7 -12 0
v -8 -12 0
v -8 -11 0
v -7 -11 0
v -8 -12 0
v -9 -12 0
v -9 -11 0
v -8 -11 0
v -28 -12 0
v -29 -12 0
v -29 -11 0
v -28 -11 0
v -29 -12 0
v -30 -12 0
v -30 -11 0
v -29 -11 0
v -30 -12 0
v -31 -12 0
v -31 -11 0
v -30 -11 0
v -31 -12 0
v -32 -12 0
v -32 -11 0
v -31 -11 0
v -4 -13 0
v -5 -13 0
v -5 -12 0
v -4 -12 0
v -5 -13 0
v -6 -13 0
v -6 -12 0
v -5 -12 0
v -7 -13 0
v -8 -13 0
v -8 -12 0
v -7 -12 0
v 0 -14 0
v -1 -14 0
v -1 -13 0
v 0 -13 0
v -3 -14 0
v -4 -14 0
v -4 -13 0
v -3 -13 0
v -4 -14 0
v -5 -14 0
v -5 -13 0
v -4 -13 0
v -7 -14 0
v -8 -14 0
v -8 -13 0
v -7 -13 0
v 0 -15 0
v -1 -15 0
v -1 -14 0
v 0 -14 0
v -1 -15 0
v -2 -15 0
v -2 -14 0
v -1 -14 0
v -2 -15 0
v -3 -15 0
v -3 -14 0
v -2 -14 0
v -3 -15 0
v -4 -15 0
v -4 -14 0
v -3 -14 0
v -6 -15 0
v -7 -15 0
v -7 -14 0
v -6 -14 0
v -7 -15 0
v -8 -15 0
v -8 -14 0
v -7 -14 0
v 0 -16 0
v -1 -16 0
v -1 -15 0
v 0 -15 0
v -1 -16 0
v -2 -16 0
v -2 -15 0
v -1 -15 0
v -2 -16 0
v -3 -16 0
v -3 -15 0
v -2 -15 0
v -4 -16 0
v -5 -16 0
v -5 -15 0
v -4 -15 0
v -5 -16 0
v -6 -16 0
v -6 -15 0
v -5 -15 0
v -6 -16 0
v -7 -16 0
v -7 -15 0
v -6 -15 0
v -7 -16 0
v -8 -16 0
v -8 -15 0
v -7 -15 0
v 0 -17 0
v -1 -17 0
v -1 -16 0
v 0 -16 0
v -3 -17 0
v -4 -17 0
v -4 -16 0
v -3 -16 0
v -4 -17 0
v -5 -17 0
v -5 -16 0
v -4 -16 0
v -5 -17 0
v -6 -17 0
v -6 -16 0
v -5 -16 0
v -7 -17 0
v -8 -17 0
v -8 -16 0
v -7 -16 0
v -3 -18 0
v -4 -18 0
v -4 -17 0
v -3 -17 0
v -5 -18 0
v -6 -18 0
v -6 -17 0
v -5 -17 0
v -7 -18 0
v -8 -18 0
v -8 -17 0
v -7 -17 0
v -8 -18 0
v -9 -18 0
v -9 -17 0
v -8 -17 0
v -27 -18 0
v -28 -18 0
v -28 -17 0
v -27 -17 0
v -28 -18 0
v -29 -18 0
v -29 -17 0
v -28 -17 0
v -29 -18 0
v -30 -18 0
v -30 -17 0
v -29 -17 0
v -30 -18 0
v -31 -18 0
v -31 -17 0
v -30 -17 0
v -31 -18 0
v -32 -18 0
v -32 -17 0
v -31 -17 0
v -5 -19 0
v -6 -19 0
v -6 -18 0
v -5 -18 0
v -7 -19 0
v -8 -19 0
v -8 -18 0
v -7 -18 0
v -8 -19 0
v -9 -19 0
v -9 -18 0
v -8 -18 0
v -26 -19 0
v -27 -19 0
v -27 -18 0
v -26 -18 0
v -27 -19 0
v -28 -19 0
v -28 -18 0
v -27 -18 0
v -28 -19 0
v -29 -19 0
v -29 -18 0
v -28 -18 0
v -29 -19 0
v -30 -19 0
v -30 -18 0
v -29 -18 0
v -30 -19 0
v -31 -19 0
v -31 -18 0
v -30 -18 0
v -31 -19 0
v -32 -19 0
v -32 -18 0
v -31 -18 0
v -7 -20 0
v -8 -20 0
v -8 -19 0
v -7 -19 0
v -8 -20 0
v -9 -20 0
v -9 -19 0
v -8 -19 0
v -26 -20 0
v -27 -20 0
v -27 -19 0
v -26 -19 0
v 0 -21 0
v -1 -21 0
v -1 -20 0
v 0 -20 0
v -1 -21 0
v -2 -21 0
v -2 -20 0
v -1 -20 0
v -2 -21 0
v -3 -21 0
v -3 -20 0
v -2 -20 0
v -3 -21 0
v -4 -21 0
v -4 -20 0
v -3 -20 0
v -4 -21 0
v -5 -21 0
v -5 -20 0
v -4 -20 0
v -26 -21 0
v -27 -21 0
v -27 -20 0
v -26 -20 0
v -29 -21 0
v -30 -21 0
v -30 -20 0
v -29 -20 0
v -31 -21 0
v -32 -21 0
v -32 -20 0
v -31 -20 0
v 0 -22 0
v -1 -22 0
v -1 -21 0
v 0 -21 0
v -1 -22 0
v -2 -22 0
v -2 -21 0
v -1 -21 0
v -2 -22 0
v -3 -22 0
v -3 -21 0
v -2 -21 0
v -3 -22 0
v -4 -22 0
v -4 -21 0
v -3 -21 0
v -4 -22 0
v -5 -22 0
v -5 -21 0
v -4 -21 0
v -6 -22 0
v -7 -22 0
v -7 -21 0
v -6 -21 0
v -7 -22 0
v -8 -22 0
v -8 -21 0
v -7 -21 0
v -8 -22 0
v -9 -22 0
v -9 -21 0
v -8 -21 0
v -9 -22 0
v -10 -22 0
v -10 -21 0
v -9 -21 0
v -26 -22 0
v -27 -22 0
v -27 -21 0
v -26 -21 0
v -27 -22 0
v -28 -22 0
v -28 -21 0
v -27 -21 0
v -29 -22 0
v -30 -22 0
v -30 -21 0
v -29 -21 0
v -31 -22 0
v -32 -22 0
v -32 -21 0
v -31 -21 0
v -6 -23 0
v -7 -23 0
v -7 -22 0
v -6 -22 0
v -7 -23 0
v -8 -23 0
v -8 -22 0
v -7 -22 0
v -8 -23 0
v -9 -23 0
v -9 -22 0
v -8 -22 0
v -9 -23 0
v -10 -23 0
v -10 -22 0
v -9 -22 0
v -27 -23 0
v -28 -23 0
v -28 -22 0
v -27 -22 0
v -30 -23 0
v -31 -23 0
v -31 -22 0
v -30 -22 0
v -27 -24 0
v -28 -24 0
v -28 -23 0
v -27 -23 0
v -29 -24 0
v -30 -24 0
v -30 -23 0
v -29 -23 0
v -30 -24 0
v -31 -24 0
v -31 -23 0
v -30 -23 0
v -26 -25 0
v -27 -25 0
v -27 -24 0
v -26 -24 0
v -27 -25 0
v -28 -25 0
v -28 -24 0
v -27 -24 0
v -29 -25 0
v -30 -25 0
v -30 -24 0
v -29 -24 0
v -30 -25 0
v -31 -25 0
v -31 -24 0
v -30 -24 0
v -31 -25 0
v -32 -25 0
v -32 -24 0
v -31 -24 0
v -19 -26 0
v -20 -26 0
v -20 -25 0
v -19 -25 0
v -25 -26 0
v -26 -26 0
v -26 -25 0
v -25 -25 0
v -26 -26 0
v -27 -26 0
v -27 -25 0
v -26 -25 0
v -30 -26 0
v -31 -26 0
v -31 -25 0
v -30 -25 0
v -31 -26 0
v -32 -26 0
v -32 -25 0
v -31 -25 0
v -19 -27 0
v -20 -27 0
v -20 -26 0
v -19 -26 0
v -25 -27 0
v -26 -27 0
v -26 -26 0
v -25 -26 0
v -28 -27 0
v -29 -27 0
v -29 -26 0
v -28 -26 0
v -30 -27 0
v -31 -27 0
v -31 -26 0
v -30 -26 0
v -19 -28 0
v -20 -28 0
v -20 -27 0
v -19 -27 0
v -24 -28 0
v -25 -28 0
v -25 -27 0
v -24 -27 0
v -25 -28 0
v -26 -28 0
v -26 -27 0
v -25 -27 0
v -28 -28 0
v -29 -28 0
v -29 -27 0
v -28 -27 0
v -29 -28 0
v -30 -28 0
v -30 -27 0
v -29 -27 0
v -30 -28 0
v -31 -28 0
v -31 -27 0
v -30 -27 0
v -19 -29 0
v -20 -29 0
v -20 -28 0
v -19 -28 0
v -24 -29 0
v -25 -29 0
v -25 -28 0
v -24 -28 0
v -25 -29 0
v -26 -29 0
v -26 -28 0
v -25 -28 0
v -27 -29 0
v -28 -29 0
v -28 -28 0
v -27 -28 0
v -29 -29 0
v -30 -29 0
v -30 -28 0
v -29 -28 0
v -31 -29 0
v -32 -29 0
v -32 -28 0
v -31 -28 0
v -19 -30 0
v -20 -30 0
v -20 -29 0
v -19 -29 0
v -24 -30 0
v -25 -30 0
v -25 -29 0
v -24 -29 0
v -27 -30 0
v -28 -30 0
v -28 -29 0
v -27 -29 0
v -30 -30 0
v -31 -30 0
v -31 -29 0
v -30 -29 0
v -31 -30 0
v -32 -30 0
v -32 -29 0
v -31 -29 0
v -19 -31 0
v -20 -31 0
v -20 -30 0
v -19 -30 0
v -24 -31 0
v -25 -31 0
v -25 -30 0
v -24 -30 0
v -25 -31 0
v -26 -31 0
v -26 -30 0
v -25 -30 0
v -28 -31 0
v -29 -31 0
v -29 -30 0
v -28 -30 0
v -30 -31 0
v -31 -31 0
v -31 -30 0
v -30 -30 0
v -31 -31 0
v -32 -31 0
v -32 -30 0
v -31 -30 0
v -19 -32 0
v -20 -32 0
v -20 -31 0
v -19 -31 0
v -24 -32 0
v -25 -32 0
v -25 -31 0
v -24 -31 0
v -25 -32 0
v -26 -32 0
v -26 -31 0
v -25 -31 0
v -28 -32 0
v -29 -32 0
v -29 -31 0
v -28 -31 0
v -31 -32 0
v -32 -32 0
v -32 -31 0
v -31 -31 0

# Texture cooridinates (Count = 24)
vt 0.4798042 0.906422
vt 0.499388 0.906422
vt 0.499388 0.9357798
vt 0.4798042 0.9357798
vt 0.500612 0.906422
vt 0.5201958 0.906422
vt 0.5201958 0.9357798
vt 0.500612 0.9357798
vt 0.5201958 0.9376147
vt 0.500612 0.9376147
vt 0.500612 0.9669725
vt 0.5201958 0.9669725
vt 0.4161567 0.8440367
vt 0.3965728 0.8440367
vt 0.3965728 0.8733945
vt 0.4161567 0.8733945
vt 0.6450428 0.9376147
vt 0.625459 0.9376147
vt 0.625459 0.9669725
vt 0.6450428 0.9669725
vt 0.9779682 0.9376147
vt 0.9583843 0.9376147
vt 0.9583843 0.9669725
vt 0.9779682 0.9669725

# Normal
vn 0 0 -1

# Mesh description
g lightWoods_3_mesh_0005

# Faces
f 1/1/1 2/2/1 3/3/1 4/4/1
f 5/1/1 6/2/1 7/3/1 8/4/1
f 9/1/1 10/2/1 11/3/1 12/4/1
f 13/1/1 14/2/1 15/3/1 16/4/1
f 17/1/1 18/2/1 19/3/1 20/4/1
f 21/5/1 22/6/1 23/7/1 24/8/1
f 25/5/1 26/6/1 27/7/1 28/8/1
f 29/5/1 30/6/1 31/7/1 32/8/1
f 33/5/1 34/6/1 35/7/1 36/8/1
f 37/5/1 38/6/1 39/7/1 40/8/1
f 41/1/1 42/2/1 43/3/1 44/4/1
f 45/1/1 46/2/1 47/3/1 48/4/1
f 49/1/1 50/2/1 51/3/1 52/4/1
f 53/5/1 54/6/1 55/7/1 56/8/1
f 57/1/1 58/2/1 59/3/1 60/4/1
f 61/1/1 62/2/1 63/3/1 64/4/1
f 65/1/1 66/2/1 67/3/1 68/4/1
f 69/5/1 70/6/1 71/7/1 72/8/1
f 73/5/1 74/6/1 75/7/1 76/8/1
f 77/5/1 78/6/1 79/7/1 80/8/1
f 81/5/1 82/6/1 83/7/1 84/8/1
f 85/5/1 86/6/1 87/7/1 88/8/1
f 89/1/1 90/2/1 91/3/1 92/4/1
f 93/5/1 94/6/1 95/7/1 96/8/1
f 97/1/1 98/2/1 99/3/1 100/4/1
f 101/1/1 102/2/1 103/3/1 104/4/1
f 105/1/1 106/2/1 107/3/1 108/4/1
f 109/5/1 110/6/1 111/7/1 112/8/1
f 113/5/1 114/6/1 115/7/1 116/8/1
f 117/1/1 118/2/1 119/3/1 120/4/1
f 121/5/1 122/6/1 123/7/1 124/8/1
f 125/5/1 126/6/1 127/7/1 128/8/1
f 129/5/1 130/6/1 131/7/1 132/8/1
f 133/5/1 134/6/1 135/7/1 136/8/1
f 137/5/1 138/6/1 139/7/1 140/8/1
f 141/5/1 142/6/1 143/7/1 144/8/1
f 145/1/1 146/2/1 147/3/1 148/4/1
f 149/1/1 150/2/1 151/3/1 152/4/1
f 153/1/1 154/2/1 155/3/1 156/4/1
f 157/1/1 158/2/1 159/3/1 160/4/1
f 161/1/1 162/2/1 163/3/1 164/4/1
f 165/1/1 166/2/1 167/3/1 168/4/1
f 169/5/1 170/6/1 171/7/1 172/8/1
f 173/1/1 174/2/1 175/3/1 176/4/1
f 177/5/1 178/6/1 179/7/1 180/8/1
f 181/1/1 182/2/1 183/3/1 184/4/1
f 185/5/1 186/6/1 187/7/1 188/8/1
f 189/1/1 190/2/1 191/3/1 192/4/1
f 193/5/1 194/6/1 195/7/1 196/8/1
f 197/5/1 198/6/1 199/7/1 200/8/1
f 201/5/1 202/6/1 203/7/1 204/8/1
f 205/5/1 206/6/1 207/7/1 208/8/1
f 209/5/1 210/6/1 211/7/1 212/8/1
f 213/5/1 214/6/1 215/7/1 216/8/1
f 217/1/1 218/2/1 219/3/1 220/4/1
f 221/5/1 222/6/1 223/7/1 224/8/1
f 225/5/1 226/6/1 227/7/1 228/8/1
f 229/5/1 230/6/1 231/7/1 232/8/1
f 233/1/1 234/2/1 235/3/1 236/4/1
f 237/1/1 238/2/1 239/3/1 240/4/1
f 241/5/1 242/6/1 243/7/1 244/8/1
f 245/1/1 246/2/1 247/3/1 248/4/1
f 249/1/1 250/2/1 251/3/1 252/4/1
f 253/1/1 254/2/1 255/3/1 256/4/1
f 257/1/1 258/2/1 259/3/1 260/4/1
f 261/1/1 262/2/1 263/3/1 264/4/1
f 265/1/1 266/2/1 267/3/1 268/4/1
f 269/5/1 270/6/1 271/7/1 272/8/1
f 273/5/1 274/6/1 275/7/1 276/8/1
f 277/1/1 278/2/1 279/3/1 280/4/1
f 281/5/1 282/6/1 283/7/1 284/8/1
f 285/1/1 286/2/1 287/3/1 288/4/1
f 289/1/1 290/2/1 291/3/1 292/4/1
f 293/1/1 294/2/1 295/3/1 296/4/1
f 297/5/1 298/6/1 299/7/1 300/8/1
f 301/5/1 302/6/1 303/7/1 304/8/1
f 305/5/1 306/6/1 307/7/1 308/8/1
f 309/5/1 310/6/1 311/7/1 312/8/1
f 313/5/1 314/6/1 315/7/1 316/8/1
f 317/1/1 318/2/1 319/3/1 320/4/1
f 321/1/1 322/2/1 323/3/1 324/4/1
f 325/5/1 326/6/1 327/7/1 328/8/1
f 329/5/1 330/6/1 331/7/1 332/8/1
f 333/5/1 334/6/1 335/7/1 336/8/1
f 337/5/1 338/6/1 339/7/1 340/8/1
f 341/5/1 342/6/1 343/7/1 344/8/1
f 345/1/1 346/2/1 347/3/1 348/4/1
f 349/5/1 350/6/1 351/7/1 352/8/1
f 353/5/1 354/6/1 355/7/1 356/8/1
f 357/5/1 358/6/1 359/7/1 360/8/1
f 361/1/1 362/2/1 363/3/1 364/4/1
f 365/5/1 366/6/1 367/7/1 368/8/1
f 369/1/1 370/2/1 371/3/1 372/4/1
f 373/5/1 374/6/1 375/7/1 376/8/1
f 377/1/1 378/2/1 379/3/1 380/4/1
f 381/5/1 382/6/1 383/7/1 384/8/1
f 385/1/1 386/2/1 387/3/1 388/4/1
f 389/5/1 390/6/1 391/7/1 392/8/1
f 393/1/1 394/2/1 395/3/1 396/4/1
f 397/5/1 398/6/1 399/7/1 400/8/1
f 401/1/1 402/2/1 403/3/1 404/4/1
f 405/1/1 406/2/1 407/3/1 408/4/1
f 409/1/1 410/2/1 411/3/1 412/4/1
f 413/1/1 414/2/1 415/3/1 416/4/1
f 417/1/1 418/2/1 419/3/1 420/4/1
f 421/1/1 422/2/1 423/3/1 424/4/1
f 425/5/1 426/6/1 427/7/1 428/8/1
f 429/5/1 430/6/1 431/7/1 432/8/1
f 433/5/1 434/6/1 435/7/1 436/8/1
f 437/5/1 438/6/1 439/7/1 440/8/1
f 441/5/1 442/6/1 443/7/1 444/8/1
f 445/1/1 446/2/1 447/3/1 448/4/1
f 449/5/1 450/6/1 451/7/1 452/8/1
f 453/5/1 454/6/1 455/7/1 456/8/1
f 457/1/1 458/2/1 459/3/1 460/4/1
f 461/1/1 462/2/1 463/3/1 464/4/1
f 465/5/1 466/6/1 467/7/1 468/8/1
f 469/5/1 470/6/1 471/7/1 472/8/1
f 473/5/1 474/6/1 475/7/1 476/8/1
f 477/1/1 478/2/1 479/3/1 480/4/1
f 481/1/1 482/2/1 483/3/1 484/4/1
f 485/5/1 486/6/1 487/7/1 488/8/1
f 489/1/1 490/2/1 491/3/1 492/4/1
f 493/1/1 494/2/1 495/3/1 496/4/1
f 497/1/1 498/2/1 499/3/1 500/4/1
f 501/5/1 502/6/1 503/7/1 504/8/1
f 505/5/1 506/6/1 507/7/1 508/8/1
f 509/1/1 510/2/1 511/3/1 512/4/1
f 513/1/1 514/2/1 515/3/1 516/4/1
f 517/5/1 518/6/1 519/7/1 520/8/1
f 521/5/1 522/6/1 523/7/1 524/8/1
f 525/5/1 526/6/1 527/7/1 528/8/1
f 529/1/1 530/2/1 531/3/1 532/4/1
f 533/5/1 534/6/1 535/7/1 536/8/1
f 537/5/1 538/6/1 539/7/1 540/8/1
f 541/1/1 542/2/1 543/3/1 544/4/1
f 545/5/1 546/6/1 547/7/1 548/8/1
f 549/1/1 550/2/1 551/3/1 552/4/1
f 553/5/1 554/6/1 555/7/1 556/8/1
f 557/1/1 558/2/1 559/3/1 560/4/1
f 561/1/1 562/2/1 563/3/1 564/4/1
f 565/1/1 566/2/1 567/3/1 568/4/1
f 569/1/1 570/2/1 571/3/1 572/4/1
f 573/1/1 574/2/1 575/3/1 576/4/1
f 577/1/1 578/2/1 579/3/1 580/4/1
f 581/5/1 582/6/1 583/7/1 584/8/1
f 585/1/1 586/2/1 587/3/1 588/4/1
f 589/5/1 590/6/1 591/7/1 592/8/1
f 593/1/1 594/2/1 595/3/1 596/4/1
f 597/5/1 598/6/1 599/7/1 600/8/1
f 601/5/1 602/6/1 603/7/1 604/8/1
f 605/5/1 606/6/1 607/7/1 608/8/1
f 609/5/1 610/6/1 611/7/1 612/8/1
f 613/5/1 614/6/1 615/7/1 616/8/1
f 617/5/1 618/6/1 619/7/1 620/8/1
f 621/5/1 622/6/1 623/7/1 624/8/1
f 625/5/1 626/6/1 627/7/1 628/8/1
f 629/9/1 630/10/1 631/11/1 632/12/1
f 633/9/1 634/10/1 635/11/1 636/12/1
f 637/9/1 638/10/1 639/11/1 640/12/1
f 641/9/1 642/10/1 643/11/1 644/12/1
f 645/9/1 646/10/1 647/11/1 648/12/1
f 649/1/1 650/2/1 651/3/1 652/4/1
f 653/1/1 654/2/1 655/3/1 656/4/1
f 657/1/1 658/2/1 659/3/1 660/4/1
f 661/13/1 662/14/1 663/15/1 664/16/1
f 665/13/1 666/14/1 667/15/1 668/16/1
f 669/13/1 670/14/1 671/15/1 672/16/1
f 673/13/1 674/14/1 675/15/1 676/16/1
f 677/13/1 678/14/1 679/15/1 680/16/1
f 681/9/1 682/10/1 683/11/1 684/12/1
f 685/9/1 686/10/1 687/11/1 688/12/1
f 689/9/1 690/10/1 691/11/1 692/12/1
f 693/9/1 694/10/1 695/11/1 696/12/1
f 697/5/1 698/6/1 699/7/1 700/8/1
f 701/1/1 702/2/1 703/3/1 704/4/1
f 705/5/1 706/6/1 707/7/1 708/8/1
f 709/5/1 710/6/1 711/7/1 712/8/1
f 713/13/1 714/14/1 715/15/1 716/16/1
f 717/13/1 718/14/1 719/15/1 720/16/1
f 721/13/1 722/14/1 723/15/1 724/16/1
f 725/13/1 726/14/1 727/15/1 728/16/1
f 729/5/1 730/6/1 731/7/1 732/8/1
f 733/1/1 734/2/1 735/3/1 736/4/1
f 737/1/1 738/2/1 739/3/1 740/4/1
f 741/1/1 742/2/1 743/3/1 744/4/1
f 745/5/1 746/6/1 747/7/1 748/8/1
f 749/1/1 750/2/1 751/3/1 752/4/1
f 753/5/1 754/6/1 755/7/1 756/8/1
f 757/5/1 758/6/1 759/7/1 760/8/1
f 761/1/1 762/2/1 763/3/1 764/4/1
f 765/1/1 766/2/1 767/3/1 768/4/1
f 769/17/1 770/18/1 771/19/1 772/20/1
f 773/1/1 774/2/1 775/3/1 776/4/1
f 777/5/1 778/6/1 779/7/1 780/8/1
f 781/5/1 782/6/1 783/7/1 784/8/1
f 785/5/1 786/6/1 787/7/1 788/8/1
f 789/21/1 790/22/1 791/23/1 792/24/1
f 793/5/1 794/6/1 795/7/1 796/8/1
f 797/1/1 798/2/1 799/3/1 800/4/1
f 801/1/1 802/2/1 803/3/1 804/4/1
f 805/21/1 806/22/1 807/23/1 808/24/1
f 809/1/1 810/2/1 811/3/1 812/4/1
f 813/1/1 814/2/1 815/3/1 816/4/1
f 817/5/1 818/6/1 819/7/1 820/8/1
f 821/1/1 822/2/1 823/3/1 824/4/1
f 825/5/1 826/6/1 827/7/1 828/8/1
f 829/21/1 830/22/1 831/23/1 832/24/1
f 833/5/1 834/6/1 835/7/1 836/8/1
f 837/5/1 838/6/1 839/7/1 840/8/1
f 841/1/1 842/2/1 843/3/1 844/4/1
f 845/5/1 846/6/1 847/7/1 848/8/1
f 849/1/1 850/2/1 851/3/1 852/4/1
f 853/21/1 854/22/1 855/23/1 856/24/1
f 857/1/1 858/2/1 859/3/1 860/4/1
f 861/5/1 862/6/1 863/7/1 864/8/1
f 865/1/1 866/2/1 867/3/1 868/4/1
f 869/5/1 870/6/1 871/7/1 872/8/1
f 873/21/1 874/22/1 875/23/1 876/24/1
f 877/5/1 878/6/1 879/7/1 880/8/1
f 881/1/1 882/2/1 883/3/1 884/4/1
f 885/1/1 886/2/1 887/3/1 888/4/1
f 889/5/1 890/6/1 891/7/1 892/8/1
f 893/1/1 894/2/1 895/3/1 896/4/1
f 897/21/1 898/22/1 899/23/1 900/24/1
f 901/5/1 902/6/1 903/7/1 904/8/1
f 905/5/1 906/6/1 907/7/1 908/8/1
f 909/5/1 910/6/1 911/7/1 912/8/1
f 913/5/1 914/6/1 915/7/1 916/8/1

