# Tiled2Unity generated file. Do not modify by hand.
# Wavefront file for 'moltenCave_9_mesh_0002.obj'

# Vertices (Count = 284)
v -13 -7 0
v -14 -7 0
v -14 -6 0
v -13 -6 0
v -17 -7 0
v -18 -7 0
v -18 -6 0
v -17 -6 0
v -25 -7 0
v -26 -7 0
v -26 -6 0
v -25 -6 0
v -3 -8 0
v -4 -8 0
v -4 -7 0
v -3 -7 0
v -5 -8 0
v -6 -8 0
v -6 -7 0
v -5 -7 0
v -13 -8 0
v -14 -8 0
v -14 -7 0
v -13 -7 0
v -14 -8 0
v -15 -8 0
v -15 -7 0
v -14 -7 0
v -16 -8 0
v -17 -8 0
v -17 -7 0
v -16 -7 0
v -17 -8 0
v -18 -8 0
v -18 -7 0
v -17 -7 0
v -25 -8 0
v -26 -8 0
v -26 -7 0
v -25 -7 0
v -26 -8 0
v -27 -8 0
v -27 -7 0
v -26 -7 0
v -2 -9 0
v -3 -9 0
v -3 -8 0
v -2 -8 0
v -5 -9 0
v -6 -9 0
v -6 -8 0
v -5 -8 0
v -26 -9 0
v -27 -9 0
v -27 -8 0
v -26 -8 0
v -27 -9 0
v -28 -9 0
v -28 -8 0
v -27 -8 0
v -2 -10 0
v -3 -10 0
v -3 -9 0
v -2 -9 0
v -3 -10 0
v -4 -10 0
v -4 -9 0
v -3 -9 0
v -2 -11 0
v -3 -11 0
v -3 -10 0
v -2 -10 0
v -3 -11 0
v -4 -11 0
v -4 -10 0
v -3 -10 0
v -4 -11 0
v -5 -11 0
v -5 -10 0
v -4 -10 0
v -27 -11 0
v -28 -11 0
v -28 -10 0
v -27 -10 0
v -2 -12 0
v -3 -12 0
v -3 -11 0
v -2 -11 0
v -3 -12 0
v -4 -12 0
v -4 -11 0
v -3 -11 0
v -6 -12 0
v -7 -12 0
v -7 -11 0
v -6 -11 0
v -7 -12 0
v -8 -12 0
v -8 -11 0
v -7 -11 0
v -24 -12 0
v -25 -12 0
v -25 -11 0
v -24 -11 0
v -25 -12 0
v -26 -12 0
v -26 -11 0
v -25 -11 0
v -4 -13 0
v -5 -13 0
v -5 -12 0
v -4 -12 0
v -5 -13 0
v -6 -13 0
v -6 -12 0
v -5 -12 0
v -8 -13 0
v -9 -13 0
v -9 -12 0
v -8 -12 0
v -9 -13 0
v -10 -13 0
v -10 -12 0
v -9 -12 0
v -23 -13 0
v -24 -13 0
v -24 -12 0
v -23 -12 0
v -24 -13 0
v -25 -13 0
v -25 -12 0
v -24 -12 0
v -4 -14 0
v -5 -14 0
v -5 -13 0
v -4 -13 0
v -6 -14 0
v -7 -14 0
v -7 -13 0
v -6 -13 0
v -8 -14 0
v -9 -14 0
v -9 -13 0
v -8 -13 0
v -11 -14 0
v -12 -14 0
v -12 -13 0
v -11 -13 0
v -20 -14 0
v -21 -14 0
v -21 -13 0
v -20 -13 0
v -23 -14 0
v -24 -14 0
v -24 -13 0
v -23 -13 0
v -24 -14 0
v -25 -14 0
v -25 -13 0
v -24 -13 0
v -25 -14 0
v -26 -14 0
v -26 -13 0
v -25 -13 0
v -26 -14 0
v -27 -14 0
v -27 -13 0
v -26 -13 0
v -5 -15 0
v -6 -15 0
v -6 -14 0
v -5 -14 0
v -6 -15 0
v -7 -15 0
v -7 -14 0
v -6 -14 0
v -7 -15 0
v -8 -15 0
v -8 -14 0
v -7 -14 0
v -17 -15 0
v -18 -15 0
v -18 -14 0
v -17 -14 0
v -18 -15 0
v -19 -15 0
v -19 -14 0
v -18 -14 0
v -22 -15 0
v -23 -15 0
v -23 -14 0
v -22 -14 0
v -6 -16 0
v -7 -16 0
v -7 -15 0
v -6 -15 0
v -7 -16 0
v -8 -16 0
v -8 -15 0
v -7 -15 0
v -8 -16 0
v -9 -16 0
v -9 -15 0
v -8 -15 0
v -9 -16 0
v -10 -16 0
v -10 -15 0
v -9 -15 0
v -10 -16 0
v -11 -16 0
v -11 -15 0
v -10 -15 0
v -12 -16 0
v -13 -16 0
v -13 -15 0
v -12 -15 0
v -13 -16 0
v -14 -16 0
v -14 -15 0
v -13 -15 0
v -17 -16 0
v -18 -16 0
v -18 -15 0
v -17 -15 0
v -18 -16 0
v -19 -16 0
v -19 -15 0
v -18 -15 0
v -23 -16 0
v -24 -16 0
v -24 -15 0
v -23 -15 0
v -25 -16 0
v -26 -16 0
v -26 -15 0
v -25 -15 0
v -11 -17 0
v -12 -17 0
v -12 -16 0
v -11 -16 0
v -12 -17 0
v -13 -17 0
v -13 -16 0
v -12 -16 0
v -13 -17 0
v -14 -17 0
v -14 -16 0
v -13 -16 0
v -15 -17 0
v -16 -17 0
v -16 -16 0
v -15 -16 0
v -19 -17 0
v -20 -17 0
v -20 -16 0
v -19 -16 0
v -22 -17 0
v -23 -17 0
v -23 -16 0
v -22 -16 0
v -23 -17 0
v -24 -17 0
v -24 -16 0
v -23 -16 0
v -11 -18 0
v -12 -18 0
v -12 -17 0
v -11 -17 0
v -12 -18 0
v -13 -18 0
v -13 -17 0
v -12 -17 0
v -14 -18 0
v -15 -18 0
v -15 -17 0
v -14 -17 0
v -15 -18 0
v -16 -18 0
v -16 -17 0
v -15 -17 0
v -16 -18 0
v -17 -18 0
v -17 -17 0
v -16 -17 0

# Texture cooridinates (Count = 44)
vt 0.8127295 0.9688073
vt 0.8323134 0.9688073
vt 0.8323134 0.9981651
vt 0.8127295 0.9981651
vt 0.8543451 0.9688073
vt 0.873929 0.9688073
vt 0.873929 0.9981651
vt 0.8543451 0.9981651
vt 0.6670747 0.9688073
vt 0.6866585 0.9688073
vt 0.6866585 0.9981651
vt 0.6670747 0.9981651
vt 0.875153 0.9688073
vt 0.8947368 0.9688073
vt 0.8947368 0.9981651
vt 0.875153 0.9981651
vt 0.8335373 0.9688073
vt 0.8531212 0.9688073
vt 0.8531212 0.9981651
vt 0.8335373 0.9981651
vt 0.7711138 0.9688073
vt 0.7906977 0.9688073
vt 0.7906977 0.9981651
vt 0.7711138 0.9981651
vt 0.625459 0.9688073
vt 0.6450428 0.9688073
vt 0.6450428 0.9981651
vt 0.625459 0.9981651
vt 0.7919217 0.9688073
vt 0.8115055 0.9688073
vt 0.8115055 0.9981651
vt 0.7919217 0.9981651
vt 0.8127295 0.7816514
vt 0.8323134 0.7816514
vt 0.8323134 0.8110092
vt 0.8127295 0.8110092
vt 0.9167687 0.9688073
vt 0.9363525 0.9688073
vt 0.9363525 0.9981651
vt 0.9167687 0.9981651
vt 0.7711138 0.9376147
vt 0.7906977 0.9376147
vt 0.7906977 0.9669725
vt 0.7711138 0.9669725

# Normal
vn 0 0 -1

# Mesh description
g moltenCave_9_mesh_0002

# Faces
f 1/1/1 2/2/1 3/3/1 4/4/1
f 5/5/1 6/6/1 7/7/1 8/8/1
f 9/9/1 10/10/1 11/11/1 12/12/1
f 13/13/1 14/14/1 15/15/1 16/16/1
f 17/17/1 18/18/1 19/19/1 20/20/1
f 21/9/1 22/10/1 23/11/1 24/12/1
f 25/13/1 26/14/1 27/15/1 28/16/1
f 29/21/1 30/22/1 31/23/1 32/24/1
f 33/9/1 34/10/1 35/11/1 36/12/1
f 37/21/1 38/22/1 39/23/1 40/24/1
f 41/25/1 42/26/1 43/27/1 44/28/1
f 45/21/1 46/22/1 47/23/1 48/24/1
f 49/29/1 50/30/1 51/31/1 52/32/1
f 53/17/1 54/18/1 55/19/1 56/20/1
f 57/33/1 58/34/1 59/35/1 60/36/1
f 61/21/1 62/22/1 63/23/1 64/24/1
f 65/1/1 66/2/1 67/3/1 68/4/1
f 69/13/1 70/14/1 71/15/1 72/16/1
f 73/37/1 74/38/1 75/39/1 76/40/1
f 77/25/1 78/26/1 79/27/1 80/28/1
f 81/41/1 82/42/1 83/43/1 84/44/1
f 85/5/1 86/6/1 87/7/1 88/8/1
f 89/9/1 90/10/1 91/11/1 92/12/1
f 93/33/1 94/34/1 95/35/1 96/36/1
f 97/5/1 98/6/1 99/7/1 100/8/1
f 101/17/1 102/18/1 103/19/1 104/20/1
f 105/33/1 106/34/1 107/35/1 108/36/1
f 109/33/1 110/34/1 111/35/1 112/36/1
f 113/33/1 114/34/1 115/35/1 116/36/1
f 117/9/1 118/10/1 119/11/1 120/12/1
f 121/25/1 122/26/1 123/27/1 124/28/1
f 125/1/1 126/2/1 127/3/1 128/4/1
f 129/29/1 130/30/1 131/31/1 132/32/1
f 133/33/1 134/34/1 135/35/1 136/36/1
f 137/21/1 138/22/1 139/23/1 140/24/1
f 141/33/1 142/34/1 143/35/1 144/36/1
f 145/5/1 146/6/1 147/7/1 148/8/1
f 149/33/1 150/34/1 151/35/1 152/36/1
f 153/21/1 154/22/1 155/23/1 156/24/1
f 157/41/1 158/42/1 159/43/1 160/44/1
f 161/41/1 162/42/1 163/43/1 164/44/1
f 165/17/1 166/18/1 167/19/1 168/20/1
f 169/41/1 170/42/1 171/43/1 172/44/1
f 173/21/1 174/22/1 175/23/1 176/24/1
f 177/13/1 178/14/1 179/15/1 180/16/1
f 181/17/1 182/18/1 183/19/1 184/20/1
f 185/5/1 186/6/1 187/7/1 188/8/1
f 189/33/1 190/34/1 191/35/1 192/36/1
f 193/41/1 194/42/1 195/43/1 196/44/1
f 197/9/1 198/10/1 199/11/1 200/12/1
f 201/41/1 202/42/1 203/43/1 204/44/1
f 205/1/1 206/2/1 207/3/1 208/4/1
f 209/33/1 210/34/1 211/35/1 212/36/1
f 213/41/1 214/42/1 215/43/1 216/44/1
f 217/21/1 218/22/1 219/23/1 220/24/1
f 221/1/1 222/2/1 223/3/1 224/4/1
f 225/13/1 226/14/1 227/15/1 228/16/1
f 229/5/1 230/6/1 231/7/1 232/8/1
f 233/33/1 234/34/1 235/35/1 236/36/1
f 237/13/1 238/14/1 239/15/1 240/16/1
f 241/1/1 242/2/1 243/3/1 244/4/1
f 245/37/1 246/38/1 247/39/1 248/40/1
f 249/33/1 250/34/1 251/35/1 252/36/1
f 253/33/1 254/34/1 255/35/1 256/36/1
f 257/41/1 258/42/1 259/43/1 260/44/1
f 261/17/1 262/18/1 263/19/1 264/20/1
f 265/13/1 266/14/1 267/15/1 268/16/1
f 269/25/1 270/26/1 271/27/1 272/28/1
f 273/33/1 274/34/1 275/35/1 276/36/1
f 277/33/1 278/34/1 279/35/1 280/36/1
f 281/33/1 282/34/1 283/35/1 284/36/1

