# Tiled2Unity generated file. Do not modify by hand.
# Wavefront file for 'merixHouse2_mesh_0002.obj'

# Vertices (Count = 132)
v -8 -3 0
v -9 -3 0
v -9 -2 0
v -8 -2 0
v -9 -3 0
v -10 -3 0
v -10 -2 0
v -9 -2 0
v -5 -4 0
v -6 -4 0
v -6 -3 0
v -5 -3 0
v -6 -4 0
v -7 -4 0
v -7 -3 0
v -6 -3 0
v -7 -4 0
v -8 -4 0
v -8 -3 0
v -7 -3 0
v -8 -4 0
v -9 -4 0
v -9 -3 0
v -8 -3 0
v -9 -4 0
v -10 -4 0
v -10 -3 0
v -9 -3 0
v -11 -4 0
v -12 -4 0
v -12 -3 0
v -11 -3 0
v -4 -5 0
v -5 -5 0
v -5 -4 0
v -4 -4 0
v -5 -5 0
v -6 -5 0
v -6 -4 0
v -5 -4 0
v -6 -5 0
v -7 -5 0
v -7 -4 0
v -6 -4 0
v -7 -5 0
v -8 -5 0
v -8 -4 0
v -7 -4 0
v -8 -5 0
v -9 -5 0
v -9 -4 0
v -8 -4 0
v -9 -5 0
v -10 -5 0
v -10 -4 0
v -9 -4 0
v -10 -5 0
v -11 -5 0
v -11 -4 0
v -10 -4 0
v -11 -5 0
v -12 -5 0
v -12 -4 0
v -11 -4 0
v -12 -5 0
v -13 -5 0
v -13 -4 0
v -12 -4 0
v -4 -6 0
v -5 -6 0
v -5 -5 0
v -4 -5 0
v -5 -6 0
v -6 -6 0
v -6 -5 0
v -5 -5 0
v -6 -6 0
v -7 -6 0
v -7 -5 0
v -6 -5 0
v -7 -6 0
v -8 -6 0
v -8 -5 0
v -7 -5 0
v -8 -6 0
v -9 -6 0
v -9 -5 0
v -8 -5 0
v -9 -6 0
v -10 -6 0
v -10 -5 0
v -9 -5 0
v -10 -6 0
v -11 -6 0
v -11 -5 0
v -10 -5 0
v -12 -6 0
v -13 -6 0
v -13 -5 0
v -12 -5 0
v -4 -7 0
v -5 -7 0
v -5 -6 0
v -4 -6 0
v -6 -9 0
v -7 -9 0
v -7 -8 0
v -6 -8 0
v -7 -9 0
v -8 -9 0
v -8 -8 0
v -7 -8 0
v -8 -9 0
v -9 -9 0
v -9 -8 0
v -8 -8 0
v -6 -10 0
v -7 -10 0
v -7 -9 0
v -6 -9 0
v -8 -10 0
v -9 -10 0
v -9 -9 0
v -8 -9 0
v -6 -11 0
v -7 -11 0
v -7 -10 0
v -6 -10 0
v -8 -11 0
v -9 -11 0
v -9 -10 0
v -8 -10 0

# Texture cooridinates (Count = 92)
vt 0.7919217 0.8752294
vt 0.8115055 0.8752294
vt 0.8115055 0.9045871
vt 0.7919217 0.9045871
vt 0.8335373 0.906422
vt 0.8531212 0.906422
vt 0.8531212 0.9357798
vt 0.8335373 0.9357798
vt 0.4589963 0.8440367
vt 0.4785802 0.8440367
vt 0.4785802 0.8733945
vt 0.4589963 0.8733945
vt 0.4798042 0.8440367
vt 0.499388 0.8440367
vt 0.499388 0.8733945
vt 0.4798042 0.8733945
vt 0.8127295 0.906422
vt 0.8323134 0.906422
vt 0.8323134 0.9357798
vt 0.8127295 0.9357798
vt 0.9791921 0.8752294
vt 0.998776 0.8752294
vt 0.998776 0.9045871
vt 0.9791921 0.9045871
vt 0.06364749 0.8440367
vt 0.08323134 0.8440367
vt 0.08323134 0.8733945
vt 0.06364749 0.8733945
vt 0.02203182 0.8752294
vt 0.04161567 0.8752294
vt 0.04161567 0.9045871
vt 0.02203182 0.9045871
vt 0.1052632 0.8440367
vt 0.124847 0.8440367
vt 0.124847 0.8733945
vt 0.1052632 0.8733945
vt 0.5214198 0.8440367
vt 0.5410036 0.8440367
vt 0.5410036 0.8733945
vt 0.5214198 0.8733945
vt 0.5422277 0.8440367
vt 0.5618115 0.8440367
vt 0.5618115 0.8733945
vt 0.5422277 0.8733945
vt 0.7294981 0.9688073
vt 0.749082 0.9688073
vt 0.749082 0.9981651
vt 0.7294981 0.9981651
vt 0.9791921 0.906422
vt 0.998776 0.906422
vt 0.998776 0.9357798
vt 0.9791921 0.9357798
vt 0.1468788 0.8440367
vt 0.1664627 0.8440367
vt 0.1664627 0.8733945
vt 0.1468788 0.8733945
vt 0.2925337 0.8752294
vt 0.3121175 0.8752294
vt 0.3121175 0.9045871
vt 0.2925337 0.9045871
vt 0.5630355 0.8440367
vt 0.5826193 0.8440367
vt 0.5826193 0.8733945
vt 0.5630355 0.8733945
vt 0.5838434 0.8440367
vt 0.6034272 0.8440367
vt 0.6034272 0.8733945
vt 0.5838434 0.8733945
vt 0.2717258 0.8752294
vt 0.2913097 0.8752294
vt 0.2913097 0.9045871
vt 0.2717258 0.9045871
vt 0.2093023 0.8752294
vt 0.2288862 0.8752294
vt 0.2288862 0.9045871
vt 0.2093023 0.9045871
vt 0.2301102 0.8752294
vt 0.249694 0.8752294
vt 0.249694 0.9045871
vt 0.2301102 0.9045871
vt 0.9583843 0.906422
vt 0.9779682 0.906422
vt 0.9779682 0.9357798
vt 0.9583843 0.9357798
vt 0.3133415 0.7816514
vt 0.3329253 0.7816514
vt 0.3329253 0.8110092
vt 0.3133415 0.8110092
vt 0.3549572 0.7816514
vt 0.374541 0.7816514
vt 0.374541 0.8110092
vt 0.3549572 0.8110092

# Normal
vn 0 0 -1

# Mesh description
g merixHouse2_mesh_0002

# Faces
f 1/1/1 2/2/1 3/3/1 4/4/1
f 5/1/1 6/2/1 7/3/1 8/4/1
f 9/5/1 10/6/1 11/7/1 12/8/1
f 13/5/1 14/6/1 15/7/1 16/8/1
f 17/5/1 18/6/1 19/7/1 20/8/1
f 21/9/1 22/10/1 23/11/1 24/12/1
f 25/13/1 26/14/1 27/15/1 28/16/1
f 29/17/1 30/18/1 31/19/1 32/20/1
f 33/21/1 34/22/1 35/23/1 36/24/1
f 37/25/1 38/26/1 39/27/1 40/28/1
f 41/29/1 42/30/1 43/31/1 44/32/1
f 45/33/1 46/34/1 47/35/1 48/36/1
f 49/37/1 50/38/1 51/39/1 52/40/1
f 53/41/1 54/42/1 55/43/1 56/44/1
f 57/45/1 58/46/1 59/47/1 60/48/1
f 61/49/1 62/50/1 63/51/1 64/52/1
f 65/45/1 66/46/1 67/47/1 68/48/1
f 69/53/1 70/54/1 71/55/1 72/56/1
f 73/57/1 74/58/1 75/59/1 76/60/1
f 77/57/1 78/58/1 79/59/1 80/60/1
f 81/57/1 82/58/1 83/59/1 84/60/1
f 85/61/1 86/62/1 87/63/1 88/64/1
f 89/65/1 90/66/1 91/67/1 92/68/1
f 93/69/1 94/70/1 95/71/1 96/72/1
f 97/69/1 98/70/1 99/71/1 100/72/1
f 101/73/1 102/74/1 103/75/1 104/76/1
f 105/77/1 106/78/1 107/79/1 108/80/1
f 109/81/1 110/82/1 111/83/1 112/84/1
f 113/77/1 114/78/1 115/79/1 116/80/1
f 117/85/1 118/86/1 119/87/1 120/88/1
f 121/89/1 122/90/1 123/91/1 124/92/1
f 125/77/1 126/78/1 127/79/1 128/80/1
f 129/77/1 130/78/1 131/79/1 132/80/1

