# Tiled2Unity generated file. Do not modify by hand.
# Wavefront file for 'merixHouse2_mesh_0001.obj'

# Vertices (Count = 332)
v -4 -4 0
v -5 -4 0
v -5 -3 0
v -4 -3 0
v -5 -4 0
v -6 -4 0
v -6 -3 0
v -5 -3 0
v -6 -4 0
v -7 -4 0
v -7 -3 0
v -6 -3 0
v -7 -4 0
v -8 -4 0
v -8 -3 0
v -7 -3 0
v -8 -4 0
v -9 -4 0
v -9 -3 0
v -8 -3 0
v -9 -4 0
v -10 -4 0
v -10 -3 0
v -9 -3 0
v -10 -4 0
v -11 -4 0
v -11 -3 0
v -10 -3 0
v -11 -4 0
v -12 -4 0
v -12 -3 0
v -11 -3 0
v -12 -4 0
v -13 -4 0
v -13 -3 0
v -12 -3 0
v -4 -5 0
v -5 -5 0
v -5 -4 0
v -4 -4 0
v -5 -5 0
v -6 -5 0
v -6 -4 0
v -5 -4 0
v -6 -5 0
v -7 -5 0
v -7 -4 0
v -6 -4 0
v -7 -5 0
v -8 -5 0
v -8 -4 0
v -7 -4 0
v -8 -5 0
v -9 -5 0
v -9 -4 0
v -8 -4 0
v -9 -5 0
v -10 -5 0
v -10 -4 0
v -9 -4 0
v -10 -5 0
v -11 -5 0
v -11 -4 0
v -10 -4 0
v -11 -5 0
v -12 -5 0
v -12 -4 0
v -11 -4 0
v -12 -5 0
v -13 -5 0
v -13 -4 0
v -12 -4 0
v -4 -6 0
v -5 -6 0
v -5 -5 0
v -4 -5 0
v -5 -6 0
v -6 -6 0
v -6 -5 0
v -5 -5 0
v -6 -6 0
v -7 -6 0
v -7 -5 0
v -6 -5 0
v -7 -6 0
v -8 -6 0
v -8 -5 0
v -7 -5 0
v -8 -6 0
v -9 -6 0
v -9 -5 0
v -8 -5 0
v -9 -6 0
v -10 -6 0
v -10 -5 0
v -9 -5 0
v -10 -6 0
v -11 -6 0
v -11 -5 0
v -10 -5 0
v -11 -6 0
v -12 -6 0
v -12 -5 0
v -11 -5 0
v -12 -6 0
v -13 -6 0
v -13 -5 0
v -12 -5 0
v -4 -7 0
v -5 -7 0
v -5 -6 0
v -4 -6 0
v -5 -7 0
v -6 -7 0
v -6 -6 0
v -5 -6 0
v -6 -7 0
v -7 -7 0
v -7 -6 0
v -6 -6 0
v -7 -7 0
v -8 -7 0
v -8 -6 0
v -7 -6 0
v -8 -7 0
v -9 -7 0
v -9 -6 0
v -8 -6 0
v -9 -7 0
v -10 -7 0
v -10 -6 0
v -9 -6 0
v -10 -7 0
v -11 -7 0
v -11 -6 0
v -10 -6 0
v -11 -7 0
v -12 -7 0
v -12 -6 0
v -11 -6 0
v -12 -7 0
v -13 -7 0
v -13 -6 0
v -12 -6 0
v -4 -8 0
v -5 -8 0
v -5 -7 0
v -4 -7 0
v -5 -8 0
v -6 -8 0
v -6 -7 0
v -5 -7 0
v -6 -8 0
v -7 -8 0
v -7 -7 0
v -6 -7 0
v -7 -8 0
v -8 -8 0
v -8 -7 0
v -7 -7 0
v -8 -8 0
v -9 -8 0
v -9 -7 0
v -8 -7 0
v -9 -8 0
v -10 -8 0
v -10 -7 0
v -9 -7 0
v -10 -8 0
v -11 -8 0
v -11 -7 0
v -10 -7 0
v -11 -8 0
v -12 -8 0
v -12 -7 0
v -11 -7 0
v -12 -8 0
v -13 -8 0
v -13 -7 0
v -12 -7 0
v -4 -9 0
v -5 -9 0
v -5 -8 0
v -4 -8 0
v -5 -9 0
v -6 -9 0
v -6 -8 0
v -5 -8 0
v -6 -9 0
v -7 -9 0
v -7 -8 0
v -6 -8 0
v -7 -9 0
v -8 -9 0
v -8 -8 0
v -7 -8 0
v -8 -9 0
v -9 -9 0
v -9 -8 0
v -8 -8 0
v -9 -9 0
v -10 -9 0
v -10 -8 0
v -9 -8 0
v -10 -9 0
v -11 -9 0
v -11 -8 0
v -10 -8 0
v -11 -9 0
v -12 -9 0
v -12 -8 0
v -11 -8 0
v -12 -9 0
v -13 -9 0
v -13 -8 0
v -12 -8 0
v -4 -10 0
v -5 -10 0
v -5 -9 0
v -4 -9 0
v -5 -10 0
v -6 -10 0
v -6 -9 0
v -5 -9 0
v -6 -10 0
v -7 -10 0
v -7 -9 0
v -6 -9 0
v -7 -10 0
v -8 -10 0
v -8 -9 0
v -7 -9 0
v -8 -10 0
v -9 -10 0
v -9 -9 0
v -8 -9 0
v -9 -10 0
v -10 -10 0
v -10 -9 0
v -9 -9 0
v -10 -10 0
v -11 -10 0
v -11 -9 0
v -10 -9 0
v -11 -10 0
v -12 -10 0
v -12 -9 0
v -11 -9 0
v -12 -10 0
v -13 -10 0
v -13 -9 0
v -12 -9 0
v -4 -11 0
v -5 -11 0
v -5 -10 0
v -4 -10 0
v -5 -11 0
v -6 -11 0
v -6 -10 0
v -5 -10 0
v -6 -11 0
v -7 -11 0
v -7 -10 0
v -6 -10 0
v -7 -11 0
v -8 -11 0
v -8 -10 0
v -7 -10 0
v -8 -11 0
v -9 -11 0
v -9 -10 0
v -8 -10 0
v -9 -11 0
v -10 -11 0
v -10 -10 0
v -9 -10 0
v -10 -11 0
v -11 -11 0
v -11 -10 0
v -10 -10 0
v -11 -11 0
v -12 -11 0
v -12 -10 0
v -11 -10 0
v -12 -11 0
v -13 -11 0
v -13 -10 0
v -12 -10 0
v -4 -12 0
v -5 -12 0
v -5 -11 0
v -4 -11 0
v -5 -12 0
v -6 -12 0
v -6 -11 0
v -5 -11 0
v -6 -12 0
v -7 -12 0
v -7 -11 0
v -6 -11 0
v -7 -12 0
v -8 -12 0
v -8 -11 0
v -7 -11 0
v -8 -12 0
v -9 -12 0
v -9 -11 0
v -8 -11 0
v -9 -12 0
v -10 -12 0
v -10 -11 0
v -9 -11 0
v -10 -12 0
v -11 -12 0
v -11 -11 0
v -10 -11 0
v -11 -12 0
v -12 -12 0
v -12 -11 0
v -11 -11 0
v -12 -12 0
v -13 -12 0
v -13 -11 0
v -12 -11 0
v -10 -13 0
v -11 -13 0
v -11 -12 0
v -10 -12 0
v -10 -14 0
v -11 -14 0
v -11 -13 0
v -10 -13 0

# Texture cooridinates (Count = 80)
vt 0.250918 0.9688073
vt 0.2705018 0.9688073
vt 0.2705018 0.9981651
vt 0.250918 0.9981651
vt 0.2717258 0.9688073
vt 0.2913097 0.9688073
vt 0.2913097 0.9981651
vt 0.2717258 0.9981651
vt 0.1884945 0.9688073
vt 0.2080783 0.9688073
vt 0.2080783 0.9981651
vt 0.1884945 0.9981651
vt 0.2093023 0.9688073
vt 0.2288862 0.9688073
vt 0.2288862 0.9981651
vt 0.2093023 0.9981651
vt 0.5630355 0.9688073
vt 0.5826193 0.9688073
vt 0.5826193 0.9981651
vt 0.5630355 0.9981651
vt 0.5838434 0.9688073
vt 0.6034272 0.9688073
vt 0.6034272 0.9981651
vt 0.5838434 0.9981651
vt 0.4798042 0.9688073
vt 0.499388 0.9688073
vt 0.499388 0.9981651
vt 0.4798042 0.9981651
vt 0.500612 0.9688073
vt 0.5201958 0.9688073
vt 0.5201958 0.9981651
vt 0.500612 0.9981651
vt 0.875153 0.9688073
vt 0.8947368 0.9688073
vt 0.8947368 0.9981651
vt 0.875153 0.9981651
vt 0.7919217 0.812844
vt 0.8115055 0.812844
vt 0.8115055 0.8422018
vt 0.7919217 0.8422018
vt 0.8127295 0.812844
vt 0.8323134 0.812844
vt 0.8323134 0.8422018
vt 0.8127295 0.8422018
vt 0.5214198 0.9376147
vt 0.5410036 0.9376147
vt 0.5410036 0.9669725
vt 0.5214198 0.9669725
vt 0.5630355 0.9376147
vt 0.5826193 0.9376147
vt 0.5826193 0.9669725
vt 0.5630355 0.9669725
vt 0.8335373 0.812844
vt 0.8531212 0.812844
vt 0.8531212 0.8422018
vt 0.8335373 0.8422018
vt 0.8335373 0.9688073
vt 0.8531212 0.9688073
vt 0.8531212 0.9981651
vt 0.8335373 0.9981651
vt 0.4381885 0.906422
vt 0.4577723 0.906422
vt 0.4577723 0.9357798
vt 0.4381885 0.9357798
vt 0.4589963 0.906422
vt 0.4785802 0.906422
vt 0.4785802 0.9357798
vt 0.4589963 0.9357798
vt 0.4798042 0.906422
vt 0.499388 0.906422
vt 0.499388 0.9357798
vt 0.4798042 0.9357798
vt 0.3341493 0.7816514
vt 0.3537332 0.7816514
vt 0.3537332 0.8110092
vt 0.3341493 0.8110092
vt 0.750306 0.9688073
vt 0.7698898 0.9688073
vt 0.7698898 0.9981651
vt 0.750306 0.9981651

# Normal
vn 0 0 -1

# Mesh description
g merixHouse2_mesh_0001

# Faces
f 1/1/1 2/2/1 3/3/1 4/4/1
f 5/5/1 6/6/1 7/7/1 8/8/1
f 9/5/1 10/6/1 11/7/1 12/8/1
f 13/5/1 14/6/1 15/7/1 16/8/1
f 17/5/1 18/6/1 19/7/1 20/8/1
f 21/5/1 22/6/1 23/7/1 24/8/1
f 25/9/1 26/10/1 27/11/1 28/12/1
f 29/13/1 30/14/1 31/15/1 32/16/1
f 33/1/1 34/2/1 35/3/1 36/4/1
f 37/17/1 38/18/1 39/19/1 40/20/1
f 41/21/1 42/22/1 43/23/1 44/24/1
f 45/21/1 46/22/1 47/23/1 48/24/1
f 49/21/1 50/22/1 51/23/1 52/24/1
f 53/21/1 54/22/1 55/23/1 56/24/1
f 57/21/1 58/22/1 59/23/1 60/24/1
f 61/25/1 62/26/1 63/27/1 64/28/1
f 65/29/1 66/30/1 67/31/1 68/32/1
f 69/17/1 70/18/1 71/19/1 72/20/1
f 73/33/1 74/34/1 75/35/1 76/36/1
f 77/37/1 78/38/1 79/39/1 80/40/1
f 81/41/1 82/42/1 83/43/1 84/44/1
f 85/41/1 86/42/1 87/43/1 88/44/1
f 89/45/1 90/46/1 91/47/1 92/48/1
f 93/49/1 94/50/1 95/51/1 96/52/1
f 97/41/1 98/42/1 99/43/1 100/44/1
f 101/53/1 102/54/1 103/55/1 104/56/1
f 105/57/1 106/58/1 107/59/1 108/60/1
f 109/33/1 110/34/1 111/35/1 112/36/1
f 113/61/1 114/62/1 115/63/1 116/64/1
f 117/65/1 118/66/1 119/67/1 120/68/1
f 121/65/1 122/66/1 123/67/1 124/68/1
f 125/65/1 126/66/1 127/67/1 128/68/1
f 129/65/1 130/66/1 131/67/1 132/68/1
f 133/65/1 134/66/1 135/67/1 136/68/1
f 137/69/1 138/70/1 139/71/1 140/72/1
f 141/57/1 142/58/1 143/59/1 144/60/1
f 145/33/1 146/34/1 147/35/1 148/36/1
f 149/57/1 150/58/1 151/59/1 152/60/1
f 153/57/1 154/58/1 155/59/1 156/60/1
f 157/57/1 158/58/1 159/59/1 160/60/1
f 161/57/1 162/58/1 163/59/1 164/60/1
f 165/57/1 166/58/1 167/59/1 168/60/1
f 169/57/1 170/58/1 171/59/1 172/60/1
f 173/57/1 174/58/1 175/59/1 176/60/1
f 177/57/1 178/58/1 179/59/1 180/60/1
f 181/33/1 182/34/1 183/35/1 184/36/1
f 185/57/1 186/58/1 187/59/1 188/60/1
f 189/57/1 190/58/1 191/59/1 192/60/1
f 193/57/1 194/58/1 195/59/1 196/60/1
f 197/57/1 198/58/1 199/59/1 200/60/1
f 201/57/1 202/58/1 203/59/1 204/60/1
f 205/57/1 206/58/1 207/59/1 208/60/1
f 209/57/1 210/58/1 211/59/1 212/60/1
f 213/57/1 214/58/1 215/59/1 216/60/1
f 217/33/1 218/34/1 219/35/1 220/36/1
f 221/57/1 222/58/1 223/59/1 224/60/1
f 225/57/1 226/58/1 227/59/1 228/60/1
f 229/73/1 230/74/1 231/75/1 232/76/1
f 233/57/1 234/58/1 235/59/1 236/60/1
f 237/57/1 238/58/1 239/59/1 240/60/1
f 241/57/1 242/58/1 243/59/1 244/60/1
f 245/57/1 246/58/1 247/59/1 248/60/1
f 249/57/1 250/58/1 251/59/1 252/60/1
f 253/33/1 254/34/1 255/35/1 256/36/1
f 257/57/1 258/58/1 259/59/1 260/60/1
f 261/57/1 262/58/1 263/59/1 264/60/1
f 265/57/1 266/58/1 267/59/1 268/60/1
f 269/57/1 270/58/1 271/59/1 272/60/1
f 273/57/1 274/58/1 275/59/1 276/60/1
f 277/57/1 278/58/1 279/59/1 280/60/1
f 281/57/1 282/58/1 283/59/1 284/60/1
f 285/57/1 286/58/1 287/59/1 288/60/1
f 289/33/1 290/34/1 291/35/1 292/36/1
f 293/33/1 294/34/1 295/35/1 296/36/1
f 297/33/1 298/34/1 299/35/1 300/36/1
f 301/33/1 302/34/1 303/35/1 304/36/1
f 305/33/1 306/34/1 307/35/1 308/36/1
f 309/33/1 310/34/1 311/35/1 312/36/1
f 313/33/1 314/34/1 315/35/1 316/36/1
f 317/33/1 318/34/1 319/35/1 320/36/1
f 321/33/1 322/34/1 323/35/1 324/36/1
f 325/77/1 326/78/1 327/79/1 328/80/1
f 329/57/1 330/58/1 331/59/1 332/60/1

