# Tiled2Unity generated file. Do not modify by hand.
# Wavefront file for 'greenCrossroad_1_mesh_0005.obj'

# Vertices (Count = 252)
v -27 -10 0
v -28 -10 0
v -28 -9 0
v -27 -9 0
v -27 -11 0
v -28 -11 0
v -28 -10 0
v -27 -10 0
v -28 -11 0
v -29 -11 0
v -29 -10 0
v -28 -10 0
v -28 -12 0
v -29 -12 0
v -29 -11 0
v -28 -11 0
v -28 -13 0
v -29 -13 0
v -29 -12 0
v -28 -12 0
v -28 -14 0
v -29 -14 0
v -29 -13 0
v -28 -13 0
v -28 -15 0
v -29 -15 0
v -29 -14 0
v -28 -14 0
v -27 -16 0
v -28 -16 0
v -28 -15 0
v -27 -15 0
v -28 -16 0
v -29 -16 0
v -29 -15 0
v -28 -15 0
v -27 -17 0
v -28 -17 0
v -28 -16 0
v -27 -16 0
v -28 -17 0
v -29 -17 0
v -29 -16 0
v -28 -16 0
v -6 -18 0
v -7 -18 0
v -7 -17 0
v -6 -17 0
v -27 -18 0
v -28 -18 0
v -28 -17 0
v -27 -17 0
v -6 -19 0
v -7 -19 0
v -7 -18 0
v -6 -18 0
v -7 -19 0
v -8 -19 0
v -8 -18 0
v -7 -18 0
v -26 -19 0
v -27 -19 0
v -27 -18 0
v -26 -18 0
v -27 -19 0
v -28 -19 0
v -28 -18 0
v -27 -18 0
v -7 -20 0
v -8 -20 0
v -8 -19 0
v -7 -19 0
v -26 -20 0
v -27 -20 0
v -27 -19 0
v -26 -19 0
v -27 -20 0
v -28 -20 0
v -28 -19 0
v -27 -19 0
v -7 -21 0
v -8 -21 0
v -8 -20 0
v -7 -20 0
v -26 -21 0
v -27 -21 0
v -27 -20 0
v -26 -20 0
v -7 -22 0
v -8 -22 0
v -8 -21 0
v -7 -21 0
v -26 -22 0
v -27 -22 0
v -27 -21 0
v -26 -21 0
v -7 -23 0
v -8 -23 0
v -8 -22 0
v -7 -22 0
v -8 -23 0
v -9 -23 0
v -9 -22 0
v -8 -22 0
v -25 -23 0
v -26 -23 0
v -26 -22 0
v -25 -22 0
v -26 -23 0
v -27 -23 0
v -27 -22 0
v -26 -22 0
v -8 -24 0
v -9 -24 0
v -9 -23 0
v -8 -23 0
v -25 -24 0
v -26 -24 0
v -26 -23 0
v -25 -23 0
v -26 -24 0
v -27 -24 0
v -27 -23 0
v -26 -23 0
v -25 -25 0
v -26 -25 0
v -26 -24 0
v -25 -24 0
v -24 -26 0
v -25 -26 0
v -25 -25 0
v -24 -25 0
v -25 -26 0
v -26 -26 0
v -26 -25 0
v -25 -25 0
v -24 -27 0
v -25 -27 0
v -25 -26 0
v -24 -26 0
v -8 -28 0
v -9 -28 0
v -9 -27 0
v -8 -27 0
v -9 -28 0
v -10 -28 0
v -10 -27 0
v -9 -27 0
v -22 -28 0
v -23 -28 0
v -23 -27 0
v -22 -27 0
v -23 -28 0
v -24 -28 0
v -24 -27 0
v -23 -27 0
v -8 -29 0
v -9 -29 0
v -9 -28 0
v -8 -28 0
v -9 -29 0
v -10 -29 0
v -10 -28 0
v -9 -28 0
v -10 -29 0
v -11 -29 0
v -11 -28 0
v -10 -28 0
v -11 -29 0
v -12 -29 0
v -12 -28 0
v -11 -28 0
v -19 -29 0
v -20 -29 0
v -20 -28 0
v -19 -28 0
v -20 -29 0
v -21 -29 0
v -21 -28 0
v -20 -28 0
v -21 -29 0
v -22 -29 0
v -22 -28 0
v -21 -28 0
v -22 -29 0
v -23 -29 0
v -23 -28 0
v -22 -28 0
v -23 -29 0
v -24 -29 0
v -24 -28 0
v -23 -28 0
v -9 -30 0
v -10 -30 0
v -10 -29 0
v -9 -29 0
v -10 -30 0
v -11 -30 0
v -11 -29 0
v -10 -29 0
v -11 -30 0
v -12 -30 0
v -12 -29 0
v -11 -29 0
v -12 -30 0
v -13 -30 0
v -13 -29 0
v -12 -29 0
v -13 -30 0
v -14 -30 0
v -14 -29 0
v -13 -29 0
v -18 -30 0
v -19 -30 0
v -19 -29 0
v -18 -29 0
v -19 -30 0
v -20 -30 0
v -20 -29 0
v -19 -29 0
v -20 -30 0
v -21 -30 0
v -21 -29 0
v -20 -29 0
v -21 -30 0
v -22 -30 0
v -22 -29 0
v -21 -29 0
v -22 -30 0
v -23 -30 0
v -23 -29 0
v -22 -29 0
v -11 -31 0
v -12 -31 0
v -12 -30 0
v -11 -30 0
v -12 -31 0
v -13 -31 0
v -13 -30 0
v -12 -30 0
v -13 -31 0
v -14 -31 0
v -14 -30 0
v -13 -30 0
v -18 -31 0
v -19 -31 0
v -19 -30 0
v -18 -30 0
v -19 -31 0
v -20 -31 0
v -20 -30 0
v -19 -30 0

# Texture cooridinates (Count = 8)
vt 0.4798042 0.906422
vt 0.499388 0.906422
vt 0.499388 0.9357798
vt 0.4798042 0.9357798
vt 0.500612 0.906422
vt 0.5201958 0.906422
vt 0.5201958 0.9357798
vt 0.500612 0.9357798

# Normal
vn 0 0 -1

# Mesh description
g greenCrossroad_1_mesh_0005

# Faces
f 1/1/1 2/2/1 3/3/1 4/4/1
f 5/5/1 6/6/1 7/7/1 8/8/1
f 9/1/1 10/2/1 11/3/1 12/4/1
f 13/5/1 14/6/1 15/7/1 16/8/1
f 17/1/1 18/2/1 19/3/1 20/4/1
f 21/5/1 22/6/1 23/7/1 24/8/1
f 25/1/1 26/2/1 27/3/1 28/4/1
f 29/1/1 30/2/1 31/3/1 32/4/1
f 33/5/1 34/6/1 35/7/1 36/8/1
f 37/5/1 38/6/1 39/7/1 40/8/1
f 41/5/1 42/6/1 43/7/1 44/8/1
f 45/1/1 46/2/1 47/3/1 48/4/1
f 49/5/1 50/6/1 51/7/1 52/8/1
f 53/5/1 54/6/1 55/7/1 56/8/1
f 57/1/1 58/2/1 59/3/1 60/4/1
f 61/1/1 62/2/1 63/3/1 64/4/1
f 65/1/1 66/2/1 67/3/1 68/4/1
f 69/5/1 70/6/1 71/7/1 72/8/1
f 73/5/1 74/6/1 75/7/1 76/8/1
f 77/5/1 78/6/1 79/7/1 80/8/1
f 81/5/1 82/6/1 83/7/1 84/8/1
f 85/5/1 86/6/1 87/7/1 88/8/1
f 89/1/1 90/2/1 91/3/1 92/4/1
f 93/5/1 94/6/1 95/7/1 96/8/1
f 97/5/1 98/6/1 99/7/1 100/8/1
f 101/1/1 102/2/1 103/3/1 104/4/1
f 105/1/1 106/2/1 107/3/1 108/4/1
f 109/1/1 110/2/1 111/3/1 112/4/1
f 113/5/1 114/6/1 115/7/1 116/8/1
f 117/5/1 118/6/1 119/7/1 120/8/1
f 121/5/1 122/6/1 123/7/1 124/8/1
f 125/1/1 126/2/1 127/3/1 128/4/1
f 129/1/1 130/2/1 131/3/1 132/4/1
f 133/5/1 134/6/1 135/7/1 136/8/1
f 137/5/1 138/6/1 139/7/1 140/8/1
f 141/1/1 142/2/1 143/3/1 144/4/1
f 145/1/1 146/2/1 147/3/1 148/4/1
f 149/1/1 150/2/1 151/3/1 152/4/1
f 153/1/1 154/2/1 155/3/1 156/4/1
f 157/5/1 158/6/1 159/7/1 160/8/1
f 161/5/1 162/6/1 163/7/1 164/8/1
f 165/1/1 166/2/1 167/3/1 168/4/1
f 169/1/1 170/2/1 171/3/1 172/4/1
f 173/1/1 174/2/1 175/3/1 176/4/1
f 177/1/1 178/2/1 179/3/1 180/4/1
f 181/1/1 182/2/1 183/3/1 184/4/1
f 185/5/1 186/6/1 187/7/1 188/8/1
f 189/5/1 190/6/1 191/7/1 192/8/1
f 193/5/1 194/6/1 195/7/1 196/8/1
f 197/5/1 198/6/1 199/7/1 200/8/1
f 201/5/1 202/6/1 203/7/1 204/8/1
f 205/1/1 206/2/1 207/3/1 208/4/1
f 209/1/1 210/2/1 211/3/1 212/4/1
f 213/1/1 214/2/1 215/3/1 216/4/1
f 217/5/1 218/6/1 219/7/1 220/8/1
f 221/5/1 222/6/1 223/7/1 224/8/1
f 225/5/1 226/6/1 227/7/1 228/8/1
f 229/5/1 230/6/1 231/7/1 232/8/1
f 233/5/1 234/6/1 235/7/1 236/8/1
f 237/5/1 238/6/1 239/7/1 240/8/1
f 241/5/1 242/6/1 243/7/1 244/8/1
f 245/5/1 246/6/1 247/7/1 248/8/1
f 249/5/1 250/6/1 251/7/1 252/8/1

