# Tiled2Unity generated file. Do not modify by hand.
# Wavefront file for 'darkWoods_4_mesh_0006.obj'

# Vertices (Count = 40)
v -11 -19 0
v -12 -19 0
v -12 -18 0
v -11 -18 0
v -12 -19 0
v -13 -19 0
v -13 -18 0
v -12 -18 0
v -13 -19 0
v -14 -19 0
v -14 -18 0
v -13 -18 0
v -14 -19 0
v -15 -19 0
v -15 -18 0
v -14 -18 0
v -15 -19 0
v -16 -19 0
v -16 -18 0
v -15 -18 0
v -11 -20 0
v -12 -20 0
v -12 -19 0
v -11 -19 0
v -12 -20 0
v -13 -20 0
v -13 -19 0
v -12 -19 0
v -13 -20 0
v -14 -20 0
v -14 -19 0
v -13 -19 0
v -14 -20 0
v -15 -20 0
v -15 -19 0
v -14 -19 0
v -15 -20 0
v -16 -20 0
v -16 -19 0
v -15 -19 0

# Texture cooridinates (Count = 40)
vt 0.4798042 0.8752294
vt 0.499388 0.8752294
vt 0.499388 0.9045871
vt 0.4798042 0.9045871
vt 0.500612 0.8752294
vt 0.5201958 0.8752294
vt 0.5201958 0.9045871
vt 0.500612 0.9045871
vt 0.5214198 0.8752294
vt 0.5410036 0.8752294
vt 0.5410036 0.9045871
vt 0.5214198 0.9045871
vt 0.5422277 0.8752294
vt 0.5618115 0.8752294
vt 0.5618115 0.9045871
vt 0.5422277 0.9045871
vt 0.5630355 0.8752294
vt 0.5826193 0.8752294
vt 0.5826193 0.9045871
vt 0.5630355 0.9045871
vt 0.6462668 0.8752294
vt 0.6658507 0.8752294
vt 0.6658507 0.9045871
vt 0.6462668 0.9045871
vt 0.6670747 0.8752294
vt 0.6866585 0.8752294
vt 0.6866585 0.9045871
vt 0.6670747 0.9045871
vt 0.6878825 0.8752294
vt 0.7074664 0.8752294
vt 0.7074664 0.9045871
vt 0.6878825 0.9045871
vt 0.7086903 0.8752294
vt 0.7282742 0.8752294
vt 0.7282742 0.9045871
vt 0.7086903 0.9045871
vt 0.7294981 0.8752294
vt 0.749082 0.8752294
vt 0.749082 0.9045871
vt 0.7294981 0.9045871

# Normal
vn 0 0 -1

# Mesh description
g darkWoods_4_mesh_0006

# Faces
f 1/1/1 2/2/1 3/3/1 4/4/1
f 5/5/1 6/6/1 7/7/1 8/8/1
f 9/9/1 10/10/1 11/11/1 12/12/1
f 13/13/1 14/14/1 15/15/1 16/16/1
f 17/17/1 18/18/1 19/19/1 20/20/1
f 21/21/1 22/22/1 23/23/1 24/24/1
f 25/25/1 26/26/1 27/27/1 28/28/1
f 29/29/1 30/30/1 31/31/1 32/32/1
f 33/33/1 34/34/1 35/35/1 36/36/1
f 37/37/1 38/38/1 39/39/1 40/40/1

