# Tiled2Unity generated file. Do not modify by hand.
# Wavefront file for 'darkWoods_4_mesh_0003.obj'

# Vertices (Count = 76)
v -12 -5 0
v -13 -5 0
v -13 -4 0
v -12 -4 0
v -13 -6 0
v -14 -6 0
v -14 -5 0
v -13 -5 0
v -14 -7 0
v -15 -7 0
v -15 -6 0
v -14 -6 0
v -9 -11 0
v -10 -11 0
v -10 -10 0
v -9 -10 0
v -19 -11 0
v -20 -11 0
v -20 -10 0
v -19 -10 0
v -10 -12 0
v -11 -12 0
v -11 -11 0
v -10 -11 0
v -20 -12 0
v -21 -12 0
v -21 -11 0
v -20 -11 0
v -12 -13 0
v -13 -13 0
v -13 -12 0
v -12 -12 0
v -22 -13 0
v -23 -13 0
v -23 -12 0
v -22 -12 0
v -14 -14 0
v -15 -14 0
v -15 -13 0
v -14 -13 0
v -24 -14 0
v -25 -14 0
v -25 -13 0
v -24 -13 0
v -15 -15 0
v -16 -15 0
v -16 -14 0
v -15 -14 0
v -26 -15 0
v -27 -15 0
v -27 -14 0
v -26 -14 0
v -17 -16 0
v -18 -16 0
v -18 -15 0
v -17 -15 0
v -19 -17 0
v -20 -17 0
v -20 -16 0
v -19 -16 0
v -20 -18 0
v -21 -18 0
v -21 -17 0
v -20 -17 0
v -22 -19 0
v -23 -19 0
v -23 -18 0
v -22 -18 0
v -23 -20 0
v -24 -20 0
v -24 -19 0
v -23 -19 0
v -25 -21 0
v -26 -21 0
v -26 -20 0
v -25 -20 0

# Texture cooridinates (Count = 4)
vt 0.2925337 0.9981651
vt 0.3121175 0.9981651
vt 0.3121175 0.9688073
vt 0.2925337 0.9688073

# Normal
vn 0 0 -1

# Mesh description
g darkWoods_4_mesh_0003

# Faces
f 1/1/1 2/2/1 3/3/1 4/4/1
f 5/1/1 6/2/1 7/3/1 8/4/1
f 9/1/1 10/2/1 11/3/1 12/4/1
f 13/3/1 14/4/1 15/1/1 16/2/1
f 17/1/1 18/2/1 19/3/1 20/4/1
f 21/3/1 22/4/1 23/1/1 24/2/1
f 25/1/1 26/2/1 27/3/1 28/4/1
f 29/3/1 30/4/1 31/1/1 32/2/1
f 33/1/1 34/2/1 35/3/1 36/4/1
f 37/3/1 38/4/1 39/1/1 40/2/1
f 41/1/1 42/2/1 43/3/1 44/4/1
f 45/3/1 46/4/1 47/1/1 48/2/1
f 49/1/1 50/2/1 51/3/1 52/4/1
f 53/3/1 54/4/1 55/1/1 56/2/1
f 57/3/1 58/4/1 59/1/1 60/2/1
f 61/3/1 62/4/1 63/1/1 64/2/1
f 65/3/1 66/4/1 67/1/1 68/2/1
f 69/3/1 70/4/1 71/1/1 72/2/1
f 73/3/1 74/4/1 75/1/1 76/2/1

