# Tiled2Unity generated file. Do not modify by hand.
# Wavefront file for 'darkWoods_4_mesh_0001.obj'

# Vertices (Count = 768)
v 0 -1 0
v -1 -1 0
v -1 0 0
v 0 0 0
v -1 -1 0
v -2 -1 0
v -2 0 0
v -1 0 0
v -2 -1 0
v -3 -1 0
v -3 0 0
v -2 0 0
v -3 -1 0
v -4 -1 0
v -4 0 0
v -3 0 0
v -4 -1 0
v -5 -1 0
v -5 0 0
v -4 0 0
v -5 -1 0
v -6 -1 0
v -6 0 0
v -5 0 0
v -6 -1 0
v -7 -1 0
v -7 0 0
v -6 0 0
v -7 -1 0
v -8 -1 0
v -8 0 0
v -7 0 0
v -8 -1 0
v -9 -1 0
v -9 0 0
v -8 0 0
v -9 -1 0
v -10 -1 0
v -10 0 0
v -9 0 0
v -10 -1 0
v -11 -1 0
v -11 0 0
v -10 0 0
v -11 -1 0
v -12 -1 0
v -12 0 0
v -11 0 0
v -15 -1 0
v -16 -1 0
v -16 0 0
v -15 0 0
v -16 -1 0
v -17 -1 0
v -17 0 0
v -16 0 0
v -17 -1 0
v -18 -1 0
v -18 0 0
v -17 0 0
v -18 -1 0
v -19 -1 0
v -19 0 0
v -18 0 0
v -19 -1 0
v -20 -1 0
v -20 0 0
v -19 0 0
v -20 -1 0
v -21 -1 0
v -21 0 0
v -20 0 0
v -21 -1 0
v -22 -1 0
v -22 0 0
v -21 0 0
v -22 -1 0
v -23 -1 0
v -23 0 0
v -22 0 0
v -23 -1 0
v -24 -1 0
v -24 0 0
v -23 0 0
v -24 -1 0
v -25 -1 0
v -25 0 0
v -24 0 0
v -25 -1 0
v -26 -1 0
v -26 0 0
v -25 0 0
v -26 -1 0
v -27 -1 0
v -27 0 0
v -26 0 0
v 0 -2 0
v -1 -2 0
v -1 -1 0
v 0 -1 0
v -1 -2 0
v -2 -2 0
v -2 -1 0
v -1 -1 0
v -2 -2 0
v -3 -2 0
v -3 -1 0
v -2 -1 0
v -3 -2 0
v -4 -2 0
v -4 -1 0
v -3 -1 0
v -4 -2 0
v -5 -2 0
v -5 -1 0
v -4 -1 0
v -5 -2 0
v -6 -2 0
v -6 -1 0
v -5 -1 0
v -6 -2 0
v -7 -2 0
v -7 -1 0
v -6 -1 0
v -7 -2 0
v -8 -2 0
v -8 -1 0
v -7 -1 0
v -8 -2 0
v -9 -2 0
v -9 -1 0
v -8 -1 0
v -9 -2 0
v -10 -2 0
v -10 -1 0
v -9 -1 0
v -10 -2 0
v -11 -2 0
v -11 -1 0
v -10 -1 0
v -11 -2 0
v -12 -2 0
v -12 -1 0
v -11 -1 0
v -15 -2 0
v -16 -2 0
v -16 -1 0
v -15 -1 0
v -16 -2 0
v -17 -2 0
v -17 -1 0
v -16 -1 0
v -17 -2 0
v -18 -2 0
v -18 -1 0
v -17 -1 0
v -18 -2 0
v -19 -2 0
v -19 -1 0
v -18 -1 0
v -19 -2 0
v -20 -2 0
v -20 -1 0
v -19 -1 0
v -20 -2 0
v -21 -2 0
v -21 -1 0
v -20 -1 0
v -21 -2 0
v -22 -2 0
v -22 -1 0
v -21 -1 0
v -22 -2 0
v -23 -2 0
v -23 -1 0
v -22 -1 0
v -23 -2 0
v -24 -2 0
v -24 -1 0
v -23 -1 0
v -24 -2 0
v -25 -2 0
v -25 -1 0
v -24 -1 0
v -25 -2 0
v -26 -2 0
v -26 -1 0
v -25 -1 0
v -26 -2 0
v -27 -2 0
v -27 -1 0
v -26 -1 0
v 0 -3 0
v -1 -3 0
v -1 -2 0
v 0 -2 0
v -1 -3 0
v -2 -3 0
v -2 -2 0
v -1 -2 0
v -2 -3 0
v -3 -3 0
v -3 -2 0
v -2 -2 0
v -3 -3 0
v -4 -3 0
v -4 -2 0
v -3 -2 0
v -4 -3 0
v -5 -3 0
v -5 -2 0
v -4 -2 0
v -5 -3 0
v -6 -3 0
v -6 -2 0
v -5 -2 0
v -6 -3 0
v -7 -3 0
v -7 -2 0
v -6 -2 0
v -7 -3 0
v -8 -3 0
v -8 -2 0
v -7 -2 0
v -8 -3 0
v -9 -3 0
v -9 -2 0
v -8 -2 0
v -9 -3 0
v -10 -3 0
v -10 -2 0
v -9 -2 0
v -10 -3 0
v -11 -3 0
v -11 -2 0
v -10 -2 0
v -11 -3 0
v -12 -3 0
v -12 -2 0
v -11 -2 0
v -15 -3 0
v -16 -3 0
v -16 -2 0
v -15 -2 0
v -16 -3 0
v -17 -3 0
v -17 -2 0
v -16 -2 0
v -17 -3 0
v -18 -3 0
v -18 -2 0
v -17 -2 0
v -18 -3 0
v -19 -3 0
v -19 -2 0
v -18 -2 0
v -19 -3 0
v -20 -3 0
v -20 -2 0
v -19 -2 0
v -20 -3 0
v -21 -3 0
v -21 -2 0
v -20 -2 0
v -21 -3 0
v -22 -3 0
v -22 -2 0
v -21 -2 0
v -22 -3 0
v -23 -3 0
v -23 -2 0
v -22 -2 0
v -23 -3 0
v -24 -3 0
v -24 -2 0
v -23 -2 0
v -24 -3 0
v -25 -3 0
v -25 -2 0
v -24 -2 0
v -25 -3 0
v -26 -3 0
v -26 -2 0
v -25 -2 0
v -26 -3 0
v -27 -3 0
v -27 -2 0
v -26 -2 0
v 0 -4 0
v -1 -4 0
v -1 -3 0
v 0 -3 0
v -1 -4 0
v -2 -4 0
v -2 -3 0
v -1 -3 0
v -2 -4 0
v -3 -4 0
v -3 -3 0
v -2 -3 0
v -3 -4 0
v -4 -4 0
v -4 -3 0
v -3 -3 0
v -4 -4 0
v -5 -4 0
v -5 -3 0
v -4 -3 0
v -5 -4 0
v -6 -4 0
v -6 -3 0
v -5 -3 0
v -6 -4 0
v -7 -4 0
v -7 -3 0
v -6 -3 0
v -7 -4 0
v -8 -4 0
v -8 -3 0
v -7 -3 0
v -8 -4 0
v -9 -4 0
v -9 -3 0
v -8 -3 0
v -9 -4 0
v -10 -4 0
v -10 -3 0
v -9 -3 0
v -10 -4 0
v -11 -4 0
v -11 -3 0
v -10 -3 0
v -11 -4 0
v -12 -4 0
v -12 -3 0
v -11 -3 0
v -15 -4 0
v -16 -4 0
v -16 -3 0
v -15 -3 0
v -16 -4 0
v -17 -4 0
v -17 -3 0
v -16 -3 0
v -17 -4 0
v -18 -4 0
v -18 -3 0
v -17 -3 0
v -18 -4 0
v -19 -4 0
v -19 -3 0
v -18 -3 0
v -19 -4 0
v -20 -4 0
v -20 -3 0
v -19 -3 0
v -20 -4 0
v -21 -4 0
v -21 -3 0
v -20 -3 0
v -21 -4 0
v -22 -4 0
v -22 -3 0
v -21 -3 0
v -22 -4 0
v -23 -4 0
v -23 -3 0
v -22 -3 0
v -23 -4 0
v -24 -4 0
v -24 -3 0
v -23 -3 0
v -24 -4 0
v -25 -4 0
v -25 -3 0
v -24 -3 0
v -25 -4 0
v -26 -4 0
v -26 -3 0
v -25 -3 0
v -26 -4 0
v -27 -4 0
v -27 -3 0
v -26 -3 0
v 0 -5 0
v -1 -5 0
v -1 -4 0
v 0 -4 0
v -1 -5 0
v -2 -5 0
v -2 -4 0
v -1 -4 0
v -2 -5 0
v -3 -5 0
v -3 -4 0
v -2 -4 0
v -3 -5 0
v -4 -5 0
v -4 -4 0
v -3 -4 0
v -4 -5 0
v -5 -5 0
v -5 -4 0
v -4 -4 0
v -5 -5 0
v -6 -5 0
v -6 -4 0
v -5 -4 0
v -6 -5 0
v -7 -5 0
v -7 -4 0
v -6 -4 0
v -7 -5 0
v -8 -5 0
v -8 -4 0
v -7 -4 0
v -8 -5 0
v -9 -5 0
v -9 -4 0
v -8 -4 0
v -9 -5 0
v -10 -5 0
v -10 -4 0
v -9 -4 0
v -10 -5 0
v -11 -5 0
v -11 -4 0
v -10 -4 0
v -11 -5 0
v -12 -5 0
v -12 -4 0
v -11 -4 0
v -15 -5 0
v -16 -5 0
v -16 -4 0
v -15 -4 0
v -16 -5 0
v -17 -5 0
v -17 -4 0
v -16 -4 0
v -17 -5 0
v -18 -5 0
v -18 -4 0
v -17 -4 0
v -18 -5 0
v -19 -5 0
v -19 -4 0
v -18 -4 0
v -19 -5 0
v -20 -5 0
v -20 -4 0
v -19 -4 0
v -20 -5 0
v -21 -5 0
v -21 -4 0
v -20 -4 0
v -21 -5 0
v -22 -5 0
v -22 -4 0
v -21 -4 0
v -22 -5 0
v -23 -5 0
v -23 -4 0
v -22 -4 0
v -23 -5 0
v -24 -5 0
v -24 -4 0
v -23 -4 0
v -24 -5 0
v -25 -5 0
v -25 -4 0
v -24 -4 0
v -25 -5 0
v -26 -5 0
v -26 -4 0
v -25 -4 0
v -26 -5 0
v -27 -5 0
v -27 -4 0
v -26 -4 0
v 0 -6 0
v -1 -6 0
v -1 -5 0
v 0 -5 0
v -1 -6 0
v -2 -6 0
v -2 -5 0
v -1 -5 0
v -2 -6 0
v -3 -6 0
v -3 -5 0
v -2 -5 0
v -3 -6 0
v -4 -6 0
v -4 -5 0
v -3 -5 0
v -4 -6 0
v -5 -6 0
v -5 -5 0
v -4 -5 0
v -5 -6 0
v -6 -6 0
v -6 -5 0
v -5 -5 0
v -6 -6 0
v -7 -6 0
v -7 -5 0
v -6 -5 0
v -7 -6 0
v -8 -6 0
v -8 -5 0
v -7 -5 0
v -8 -6 0
v -9 -6 0
v -9 -5 0
v -8 -5 0
v -9 -6 0
v -10 -6 0
v -10 -5 0
v -9 -5 0
v -10 -6 0
v -11 -6 0
v -11 -5 0
v -10 -5 0
v -11 -6 0
v -12 -6 0
v -12 -5 0
v -11 -5 0
v -15 -6 0
v -16 -6 0
v -16 -5 0
v -15 -5 0
v -16 -6 0
v -17 -6 0
v -17 -5 0
v -16 -5 0
v -17 -6 0
v -18 -6 0
v -18 -5 0
v -17 -5 0
v -18 -6 0
v -19 -6 0
v -19 -5 0
v -18 -5 0
v -19 -6 0
v -20 -6 0
v -20 -5 0
v -19 -5 0
v -20 -6 0
v -21 -6 0
v -21 -5 0
v -20 -5 0
v -21 -6 0
v -22 -6 0
v -22 -5 0
v -21 -5 0
v -22 -6 0
v -23 -6 0
v -23 -5 0
v -22 -5 0
v -23 -6 0
v -24 -6 0
v -24 -5 0
v -23 -5 0
v -24 -6 0
v -25 -6 0
v -25 -5 0
v -24 -5 0
v -25 -6 0
v -26 -6 0
v -26 -5 0
v -25 -5 0
v -26 -6 0
v -27 -6 0
v -27 -5 0
v -26 -5 0
v -3 -7 0
v -4 -7 0
v -4 -6 0
v -3 -6 0
v -4 -7 0
v -5 -7 0
v -5 -6 0
v -4 -6 0
v -5 -7 0
v -6 -7 0
v -6 -6 0
v -5 -6 0
v -6 -7 0
v -7 -7 0
v -7 -6 0
v -6 -6 0
v -7 -7 0
v -8 -7 0
v -8 -6 0
v -7 -6 0
v -8 -7 0
v -9 -7 0
v -9 -6 0
v -8 -6 0
v -9 -7 0
v -10 -7 0
v -10 -6 0
v -9 -6 0
v -10 -7 0
v -11 -7 0
v -11 -6 0
v -10 -6 0
v -11 -7 0
v -12 -7 0
v -12 -6 0
v -11 -6 0
v -15 -7 0
v -16 -7 0
v -16 -6 0
v -15 -6 0
v -16 -7 0
v -17 -7 0
v -17 -6 0
v -16 -6 0
v -17 -7 0
v -18 -7 0
v -18 -6 0
v -17 -6 0
v -18 -7 0
v -19 -7 0
v -19 -6 0
v -18 -6 0
v -19 -7 0
v -20 -7 0
v -20 -6 0
v -19 -6 0
v -20 -7 0
v -21 -7 0
v -21 -6 0
v -20 -6 0
v -21 -7 0
v -22 -7 0
v -22 -6 0
v -21 -6 0
v -22 -7 0
v -23 -7 0
v -23 -6 0
v -22 -6 0
v -23 -7 0
v -24 -7 0
v -24 -6 0
v -23 -6 0
v -6 -8 0
v -7 -8 0
v -7 -7 0
v -6 -7 0
v -7 -8 0
v -8 -8 0
v -8 -7 0
v -7 -7 0
v -8 -8 0
v -9 -8 0
v -9 -7 0
v -8 -7 0
v -9 -8 0
v -10 -8 0
v -10 -7 0
v -9 -7 0
v -10 -8 0
v -11 -8 0
v -11 -7 0
v -10 -7 0
v -11 -8 0
v -12 -8 0
v -12 -7 0
v -11 -7 0
v -15 -8 0
v -16 -8 0
v -16 -7 0
v -15 -7 0
v -16 -8 0
v -17 -8 0
v -17 -7 0
v -16 -7 0
v -17 -8 0
v -18 -8 0
v -18 -7 0
v -17 -7 0
v -18 -8 0
v -19 -8 0
v -19 -7 0
v -18 -7 0
v -19 -8 0
v -20 -8 0
v -20 -7 0
v -19 -7 0
v -20 -8 0
v -21 -8 0
v -21 -7 0
v -20 -7 0
v -6 -9 0
v -7 -9 0
v -7 -8 0
v -6 -8 0
v -7 -9 0
v -8 -9 0
v -8 -8 0
v -7 -8 0
v -8 -9 0
v -9 -9 0
v -9 -8 0
v -8 -8 0
v -9 -9 0
v -10 -9 0
v -10 -8 0
v -9 -8 0
v -10 -9 0
v -11 -9 0
v -11 -8 0
v -10 -8 0
v -11 -9 0
v -12 -9 0
v -12 -8 0
v -11 -8 0
v -15 -9 0
v -16 -9 0
v -16 -8 0
v -15 -8 0
v -16 -9 0
v -17 -9 0
v -17 -8 0
v -16 -8 0
v -17 -9 0
v -18 -9 0
v -18 -8 0
v -17 -8 0
v -18 -9 0
v -19 -9 0
v -19 -8 0
v -18 -8 0
v -19 -9 0
v -20 -9 0
v -20 -8 0
v -19 -8 0
v -20 -9 0
v -21 -9 0
v -21 -8 0
v -20 -8 0
v -9 -10 0
v -10 -10 0
v -10 -9 0
v -9 -9 0
v -10 -10 0
v -11 -10 0
v -11 -9 0
v -10 -9 0
v -11 -10 0
v -12 -10 0
v -12 -9 0
v -11 -9 0
v -15 -10 0
v -16 -10 0
v -16 -9 0
v -15 -9 0
v -16 -10 0
v -17 -10 0
v -17 -9 0
v -16 -9 0
v -17 -10 0
v -18 -10 0
v -18 -9 0
v -17 -9 0

# Texture cooridinates (Count = 32)
vt 0.4785802 0.8752294
vt 0.4589963 0.8752294
vt 0.4589963 0.9045871
vt 0.4785802 0.9045871
vt 0.6866585 0.812844
vt 0.6670747 0.812844
vt 0.6670747 0.8422018
vt 0.6866585 0.8422018
vt 0.7906977 0.8752294
vt 0.7711138 0.8752294
vt 0.7711138 0.9045871
vt 0.7906977 0.9045871
vt 0.1664627 0.906422
vt 0.1468788 0.906422
vt 0.1468788 0.9357798
vt 0.1664627 0.9357798
vt 0.624235 0.7816514
vt 0.6046512 0.7816514
vt 0.6046512 0.8110092
vt 0.624235 0.8110092
vt 0.2913097 0.8440367
vt 0.2717258 0.8440367
vt 0.2717258 0.8733945
vt 0.2913097 0.8733945
vt 0.7906977 0.8440367
vt 0.7711138 0.8440367
vt 0.7711138 0.8733945
vt 0.7906977 0.8733945
vt 0.6034272 0.812844
vt 0.5838434 0.812844
vt 0.5838434 0.8422018
vt 0.6034272 0.8422018

# Normal
vn 0 0 -1

# Mesh description
g darkWoods_4_mesh_0001

# Faces
f 1/1/1 2/2/1 3/3/1 4/4/1
f 5/5/1 6/6/1 7/7/1 8/8/1
f 9/5/1 10/6/1 11/7/1 12/8/1
f 13/5/1 14/6/1 15/7/1 16/8/1
f 17/5/1 18/6/1 19/7/1 20/8/1
f 21/5/1 22/6/1 23/7/1 24/8/1
f 25/5/1 26/6/1 27/7/1 28/8/1
f 29/5/1 30/6/1 31/7/1 32/8/1
f 33/5/1 34/6/1 35/7/1 36/8/1
f 37/5/1 38/6/1 39/7/1 40/8/1
f 41/5/1 42/6/1 43/7/1 44/8/1
f 45/5/1 46/6/1 47/7/1 48/8/1
f 49/5/1 50/6/1 51/7/1 52/8/1
f 53/5/1 54/6/1 55/7/1 56/8/1
f 57/5/1 58/6/1 59/7/1 60/8/1
f 61/5/1 62/6/1 63/7/1 64/8/1
f 65/5/1 66/6/1 67/7/1 68/8/1
f 69/5/1 70/6/1 71/7/1 72/8/1
f 73/5/1 74/6/1 75/7/1 76/8/1
f 77/5/1 78/6/1 79/7/1 80/8/1
f 81/5/1 82/6/1 83/7/1 84/8/1
f 85/6/1 86/5/1 87/8/1 88/7/1
f 89/6/1 90/5/1 91/8/1 92/7/1
f 93/2/1 94/1/1 95/4/1 96/3/1
f 97/9/1 98/10/1 99/11/1 100/12/1
f 101/13/1 102/14/1 103/15/1 104/16/1
f 105/13/1 106/14/1 107/15/1 108/16/1
f 109/1/1 110/2/1 111/3/1 112/4/1
f 113/5/1 114/6/1 115/7/1 116/8/1
f 117/5/1 118/6/1 119/7/1 120/8/1
f 121/5/1 122/6/1 123/7/1 124/8/1
f 125/5/1 126/6/1 127/7/1 128/8/1
f 129/5/1 130/6/1 131/7/1 132/8/1
f 133/5/1 134/6/1 135/7/1 136/8/1
f 137/5/1 138/6/1 139/7/1 140/8/1
f 141/5/1 142/6/1 143/7/1 144/8/1
f 145/5/1 146/6/1 147/7/1 148/8/1
f 149/5/1 150/6/1 151/7/1 152/8/1
f 153/5/1 154/6/1 155/7/1 156/8/1
f 157/5/1 158/6/1 159/7/1 160/8/1
f 161/6/1 162/5/1 163/8/1 164/7/1
f 165/6/1 166/5/1 167/8/1 168/7/1
f 169/6/1 170/5/1 171/8/1 172/7/1
f 173/6/1 174/5/1 175/8/1 176/7/1
f 177/2/1 178/1/1 179/4/1 180/3/1
f 181/14/1 182/13/1 183/16/1 184/15/1
f 185/14/1 186/13/1 187/16/1 188/15/1
f 189/10/1 190/9/1 191/12/1 192/11/1
f 193/17/1 194/18/1 195/19/1 196/20/1
f 197/21/1 198/22/1 199/23/1 200/24/1
f 201/21/1 202/22/1 203/23/1 204/24/1
f 205/9/1 206/10/1 207/11/1 208/12/1
f 209/13/1 210/14/1 211/15/1 212/16/1
f 213/13/1 214/14/1 215/15/1 216/16/1
f 217/1/1 218/2/1 219/3/1 220/4/1
f 221/5/1 222/6/1 223/7/1 224/8/1
f 225/5/1 226/6/1 227/7/1 228/8/1
f 229/5/1 230/6/1 231/7/1 232/8/1
f 233/5/1 234/6/1 235/7/1 236/8/1
f 237/6/1 238/5/1 239/8/1 240/7/1
f 241/5/1 242/6/1 243/7/1 244/8/1
f 245/6/1 246/5/1 247/8/1 248/7/1
f 249/6/1 250/5/1 251/8/1 252/7/1
f 253/6/1 254/5/1 255/8/1 256/7/1
f 257/6/1 258/5/1 259/8/1 260/7/1
f 261/2/1 262/1/1 263/4/1 264/3/1
f 265/14/1 266/13/1 267/16/1 268/15/1
f 269/14/1 270/13/1 271/16/1 272/15/1
f 273/10/1 274/9/1 275/12/1 276/11/1
f 277/22/1 278/21/1 279/24/1 280/23/1
f 281/22/1 282/21/1 283/24/1 284/23/1
f 285/18/1 286/17/1 287/20/1 288/19/1
f 289/25/1 290/26/1 291/27/1 292/28/1
f 293/29/1 294/30/1 295/31/1 296/32/1
f 297/29/1 298/30/1 299/31/1 300/32/1
f 301/17/1 302/18/1 303/19/1 304/20/1
f 305/21/1 306/22/1 307/23/1 308/24/1
f 309/21/1 310/22/1 311/23/1 312/24/1
f 313/9/1 314/10/1 315/11/1 316/12/1
f 317/13/1 318/14/1 319/15/1 320/16/1
f 321/13/1 322/14/1 323/15/1 324/16/1
f 325/1/1 326/2/1 327/3/1 328/4/1
f 329/5/1 330/6/1 331/7/1 332/8/1
f 333/2/1 334/1/1 335/4/1 336/3/1
f 337/1/1 338/2/1 339/3/1 340/4/1
f 341/6/1 342/5/1 343/8/1 344/7/1
f 345/2/1 346/1/1 347/4/1 348/3/1
f 349/14/1 350/13/1 351/16/1 352/15/1
f 353/14/1 354/13/1 355/16/1 356/15/1
f 357/10/1 358/9/1 359/12/1 360/11/1
f 361/22/1 362/21/1 363/24/1 364/23/1
f 365/22/1 366/21/1 367/24/1 368/23/1
f 369/18/1 370/17/1 371/20/1 372/19/1
f 373/30/1 374/29/1 375/32/1 376/31/1
f 377/30/1 378/29/1 379/32/1 380/31/1
f 381/26/1 382/25/1 383/28/1 384/27/1
f 385/17/1 386/18/1 387/19/1 388/20/1
f 389/21/1 390/22/1 391/23/1 392/24/1
f 393/21/1 394/22/1 395/23/1 396/24/1
f 397/25/1 398/26/1 399/27/1 400/28/1
f 401/29/1 402/30/1 403/31/1 404/32/1
f 405/29/1 406/30/1 407/31/1 408/32/1
f 409/17/1 410/18/1 411/19/1 412/20/1
f 413/21/1 414/22/1 415/23/1 416/24/1
f 417/21/1 418/22/1 419/23/1 420/24/1
f 421/9/1 422/10/1 423/11/1 424/12/1
f 425/13/1 426/14/1 427/15/1 428/16/1
f 429/10/1 430/9/1 431/12/1 432/11/1
f 433/9/1 434/10/1 435/11/1 436/12/1
f 437/14/1 438/13/1 439/16/1 440/15/1
f 441/10/1 442/9/1 443/12/1 444/11/1
f 445/22/1 446/21/1 447/24/1 448/23/1
f 449/22/1 450/21/1 451/24/1 452/23/1
f 453/18/1 454/17/1 455/20/1 456/19/1
f 457/30/1 458/29/1 459/32/1 460/31/1
f 461/30/1 462/29/1 463/32/1 464/31/1
f 465/26/1 466/25/1 467/28/1 468/27/1
f 469/22/1 470/21/1 471/24/1 472/23/1
f 473/22/1 474/21/1 475/24/1 476/23/1
f 477/18/1 478/17/1 479/20/1 480/19/1
f 481/17/1 482/18/1 483/19/1 484/20/1
f 485/21/1 486/22/1 487/23/1 488/24/1
f 489/21/1 490/22/1 491/23/1 492/24/1
f 493/17/1 494/18/1 495/19/1 496/20/1
f 497/21/1 498/22/1 499/23/1 500/24/1
f 501/21/1 502/22/1 503/23/1 504/24/1
f 505/25/1 506/26/1 507/27/1 508/28/1
f 509/29/1 510/30/1 511/31/1 512/32/1
f 513/29/1 514/30/1 515/31/1 516/32/1
f 517/17/1 518/18/1 519/19/1 520/20/1
f 521/21/1 522/22/1 523/23/1 524/24/1
f 525/18/1 526/17/1 527/20/1 528/19/1
f 529/17/1 530/18/1 531/19/1 532/20/1
f 533/22/1 534/21/1 535/24/1 536/23/1
f 537/18/1 538/17/1 539/20/1 540/19/1
f 541/30/1 542/29/1 543/32/1 544/31/1
f 545/30/1 546/29/1 547/32/1 548/31/1
f 549/26/1 550/25/1 551/28/1 552/27/1
f 553/22/1 554/21/1 555/24/1 556/23/1
f 557/22/1 558/21/1 559/24/1 560/23/1
f 561/18/1 562/17/1 563/20/1 564/19/1
f 565/22/1 566/21/1 567/24/1 568/23/1
f 569/22/1 570/21/1 571/24/1 572/23/1
f 573/18/1 574/17/1 575/20/1 576/19/1
f 577/17/1 578/18/1 579/19/1 580/20/1
f 581/21/1 582/22/1 583/23/1 584/24/1
f 585/21/1 586/22/1 587/23/1 588/24/1
f 589/17/1 590/18/1 591/19/1 592/20/1
f 593/21/1 594/22/1 595/23/1 596/24/1
f 597/21/1 598/22/1 599/23/1 600/24/1
f 601/25/1 602/26/1 603/27/1 604/28/1
f 605/29/1 606/30/1 607/31/1 608/32/1
f 609/26/1 610/25/1 611/28/1 612/27/1
f 613/25/1 614/26/1 615/27/1 616/28/1
f 617/30/1 618/29/1 619/32/1 620/31/1
f 621/26/1 622/25/1 623/28/1 624/27/1
f 625/22/1 626/21/1 627/24/1 628/23/1
f 629/22/1 630/21/1 631/24/1 632/23/1
f 633/18/1 634/17/1 635/20/1 636/19/1
f 637/22/1 638/21/1 639/24/1 640/23/1
f 641/22/1 642/21/1 643/24/1 644/23/1
f 645/18/1 646/17/1 647/20/1 648/19/1
f 649/17/1 650/18/1 651/19/1 652/20/1
f 653/21/1 654/22/1 655/23/1 656/24/1
f 657/21/1 658/22/1 659/23/1 660/24/1
f 661/17/1 662/18/1 663/19/1 664/20/1
f 665/21/1 666/22/1 667/23/1 668/24/1
f 669/18/1 670/17/1 671/20/1 672/19/1
f 673/17/1 674/18/1 675/19/1 676/20/1
f 677/22/1 678/21/1 679/24/1 680/23/1
f 681/18/1 682/17/1 683/20/1 684/19/1
f 685/22/1 686/21/1 687/24/1 688/23/1
f 689/22/1 690/21/1 691/24/1 692/23/1
f 693/18/1 694/17/1 695/20/1 696/19/1
f 697/17/1 698/18/1 699/19/1 700/20/1
f 701/21/1 702/22/1 703/23/1 704/24/1
f 705/21/1 706/22/1 707/23/1 708/24/1
f 709/17/1 710/18/1 711/19/1 712/20/1
f 713/22/1 714/21/1 715/24/1 716/23/1
f 717/18/1 718/17/1 719/20/1 720/19/1
f 721/17/1 722/18/1 723/19/1 724/20/1
f 725/22/1 726/21/1 727/24/1 728/23/1
f 729/18/1 730/17/1 731/20/1 732/19/1
f 733/22/1 734/21/1 735/24/1 736/23/1
f 737/22/1 738/21/1 739/24/1 740/23/1
f 741/18/1 742/17/1 743/20/1 744/19/1
f 745/17/1 746/18/1 747/19/1 748/20/1
f 749/22/1 750/21/1 751/24/1 752/23/1
f 753/18/1 754/17/1 755/20/1 756/19/1
f 757/17/1 758/18/1 759/19/1 760/20/1
f 761/22/1 762/21/1 763/24/1 764/23/1
f 765/18/1 766/17/1 767/20/1 768/19/1

