# Tiled2Unity generated file. Do not modify by hand.
# Wavefront file for 'darkWoods_2_mesh_0003.obj'

# Vertices (Count = 500)
v -18 -1 0
v -19 -1 0
v -19 0 0
v -18 0 0
v -22 -1 0
v -23 -1 0
v -23 0 0
v -22 0 0
v -13 -2 0
v -14 -2 0
v -14 -1 0
v -13 -1 0
v -18 -2 0
v -19 -2 0
v -19 -1 0
v -18 -1 0
v -22 -2 0
v -23 -2 0
v -23 -1 0
v -22 -1 0
v -9 -3 0
v -10 -3 0
v -10 -2 0
v -9 -2 0
v -15 -3 0
v -16 -3 0
v -16 -2 0
v -15 -2 0
v -17 -3 0
v -18 -3 0
v -18 -2 0
v -17 -2 0
v -21 -3 0
v -22 -3 0
v -22 -2 0
v -21 -2 0
v -8 -4 0
v -9 -4 0
v -9 -3 0
v -8 -3 0
v -15 -4 0
v -16 -4 0
v -16 -3 0
v -15 -3 0
v -17 -4 0
v -18 -4 0
v -18 -3 0
v -17 -3 0
v -21 -4 0
v -22 -4 0
v -22 -3 0
v -21 -3 0
v -23 -4 0
v -24 -4 0
v -24 -3 0
v -23 -3 0
v -24 -4 0
v -25 -4 0
v -25 -3 0
v -24 -3 0
v -7 -5 0
v -8 -5 0
v -8 -4 0
v -7 -4 0
v -15 -5 0
v -16 -5 0
v -16 -4 0
v -15 -4 0
v -16 -5 0
v -17 -5 0
v -17 -4 0
v -16 -4 0
v -20 -5 0
v -21 -5 0
v -21 -4 0
v -20 -4 0
v -22 -5 0
v -23 -5 0
v -23 -4 0
v -22 -4 0
v -6 -6 0
v -7 -6 0
v -7 -5 0
v -6 -5 0
v -14 -6 0
v -15 -6 0
v -15 -5 0
v -14 -5 0
v -16 -6 0
v -17 -6 0
v -17 -5 0
v -16 -5 0
v -19 -6 0
v -20 -6 0
v -20 -5 0
v -19 -5 0
v -21 -6 0
v -22 -6 0
v -22 -5 0
v -21 -5 0
v -2 -7 0
v -3 -7 0
v -3 -6 0
v -2 -6 0
v -3 -7 0
v -4 -7 0
v -4 -6 0
v -3 -6 0
v -6 -7 0
v -7 -7 0
v -7 -6 0
v -6 -6 0
v -14 -7 0
v -15 -7 0
v -15 -6 0
v -14 -6 0
v -15 -7 0
v -16 -7 0
v -16 -6 0
v -15 -6 0
v -19 -7 0
v -20 -7 0
v -20 -6 0
v -19 -6 0
v -21 -7 0
v -22 -7 0
v -22 -6 0
v -21 -6 0
v -1 -8 0
v -2 -8 0
v -2 -7 0
v -1 -7 0
v -3 -8 0
v -4 -8 0
v -4 -7 0
v -3 -7 0
v -7 -8 0
v -8 -8 0
v -8 -7 0
v -7 -7 0
v -14 -8 0
v -15 -8 0
v -15 -7 0
v -14 -7 0
v -15 -8 0
v -16 -8 0
v -16 -7 0
v -15 -7 0
v -19 -8 0
v -20 -8 0
v -20 -7 0
v -19 -7 0
v -21 -8 0
v -22 -8 0
v -22 -7 0
v -21 -7 0
v 0 -9 0
v -1 -9 0
v -1 -8 0
v 0 -8 0
v -8 -9 0
v -9 -9 0
v -9 -8 0
v -8 -8 0
v -14 -9 0
v -15 -9 0
v -15 -8 0
v -14 -8 0
v -15 -9 0
v -16 -9 0
v -16 -8 0
v -15 -8 0
v -19 -9 0
v -20 -9 0
v -20 -8 0
v -19 -8 0
v -21 -9 0
v -22 -9 0
v -22 -8 0
v -21 -8 0
v 0 -10 0
v -1 -10 0
v -1 -9 0
v 0 -9 0
v -4 -10 0
v -5 -10 0
v -5 -9 0
v -4 -9 0
v -9 -10 0
v -10 -10 0
v -10 -9 0
v -9 -9 0
v -14 -10 0
v -15 -10 0
v -15 -9 0
v -14 -9 0
v -15 -10 0
v -16 -10 0
v -16 -9 0
v -15 -9 0
v -19 -10 0
v -20 -10 0
v -20 -9 0
v -19 -9 0
v -22 -10 0
v -23 -10 0
v -23 -9 0
v -22 -9 0
v 0 -11 0
v -1 -11 0
v -1 -10 0
v 0 -10 0
v -5 -11 0
v -6 -11 0
v -6 -10 0
v -5 -10 0
v -10 -11 0
v -11 -11 0
v -11 -10 0
v -10 -10 0
v -14 -11 0
v -15 -11 0
v -15 -10 0
v -14 -10 0
v -15 -11 0
v -16 -11 0
v -16 -10 0
v -15 -10 0
v -19 -11 0
v -20 -11 0
v -20 -10 0
v -19 -10 0
v -22 -11 0
v -23 -11 0
v -23 -10 0
v -22 -10 0
v 0 -12 0
v -1 -12 0
v -1 -11 0
v 0 -11 0
v -6 -12 0
v -7 -12 0
v -7 -11 0
v -6 -11 0
v -10 -12 0
v -11 -12 0
v -11 -11 0
v -10 -11 0
v -14 -12 0
v -15 -12 0
v -15 -11 0
v -14 -11 0
v -16 -12 0
v -17 -12 0
v -17 -11 0
v -16 -11 0
v -20 -12 0
v -21 -12 0
v -21 -11 0
v -20 -11 0
v -23 -12 0
v -24 -12 0
v -24 -11 0
v -23 -11 0
v -1 -13 0
v -2 -13 0
v -2 -12 0
v -1 -12 0
v -7 -13 0
v -8 -13 0
v -8 -12 0
v -7 -12 0
v -8 -13 0
v -9 -13 0
v -9 -12 0
v -8 -12 0
v -9 -13 0
v -10 -13 0
v -10 -12 0
v -9 -12 0
v -14 -13 0
v -15 -13 0
v -15 -12 0
v -14 -12 0
v -17 -13 0
v -18 -13 0
v -18 -12 0
v -17 -12 0
v -21 -13 0
v -22 -13 0
v -22 -12 0
v -21 -12 0
v -1 -14 0
v -2 -14 0
v -2 -13 0
v -1 -13 0
v -14 -14 0
v -15 -14 0
v -15 -13 0
v -14 -13 0
v -18 -14 0
v -19 -14 0
v -19 -13 0
v -18 -13 0
v -22 -14 0
v -23 -14 0
v -23 -13 0
v -22 -13 0
v -1 -15 0
v -2 -15 0
v -2 -14 0
v -1 -14 0
v -4 -15 0
v -5 -15 0
v -5 -14 0
v -4 -14 0
v -5 -15 0
v -6 -15 0
v -6 -14 0
v -5 -14 0
v -18 -15 0
v -19 -15 0
v -19 -14 0
v -18 -14 0
v -2 -16 0
v -3 -16 0
v -3 -15 0
v -2 -15 0
v -4 -16 0
v -5 -16 0
v -5 -15 0
v -4 -15 0
v -5 -16 0
v -6 -16 0
v -6 -15 0
v -5 -15 0
v -19 -16 0
v -20 -16 0
v -20 -15 0
v -19 -15 0
v -23 -16 0
v -24 -16 0
v -24 -15 0
v -23 -15 0
v -24 -16 0
v -25 -16 0
v -25 -15 0
v -24 -15 0
v -2 -17 0
v -3 -17 0
v -3 -16 0
v -2 -16 0
v -4 -17 0
v -5 -17 0
v -5 -16 0
v -4 -16 0
v -6 -17 0
v -7 -17 0
v -7 -16 0
v -6 -16 0
v -19 -17 0
v -20 -17 0
v -20 -16 0
v -19 -16 0
v -24 -17 0
v -25 -17 0
v -25 -16 0
v -24 -16 0
v -2 -18 0
v -3 -18 0
v -3 -17 0
v -2 -17 0
v -6 -18 0
v -7 -18 0
v -7 -17 0
v -6 -17 0
v -13 -18 0
v -14 -18 0
v -14 -17 0
v -13 -17 0
v -14 -18 0
v -15 -18 0
v -15 -17 0
v -14 -17 0
v -20 -18 0
v -21 -18 0
v -21 -17 0
v -20 -17 0
v -24 -18 0
v -25 -18 0
v -25 -17 0
v -24 -17 0
v -2 -19 0
v -3 -19 0
v -3 -18 0
v -2 -18 0
v -5 -19 0
v -6 -19 0
v -6 -18 0
v -5 -18 0
v -7 -19 0
v -8 -19 0
v -8 -18 0
v -7 -18 0
v -11 -19 0
v -12 -19 0
v -12 -18 0
v -11 -18 0
v -12 -19 0
v -13 -19 0
v -13 -18 0
v -12 -18 0
v -15 -19 0
v -16 -19 0
v -16 -18 0
v -15 -18 0
v -21 -19 0
v -22 -19 0
v -22 -18 0
v -21 -18 0
v -23 -19 0
v -24 -19 0
v -24 -18 0
v -23 -18 0
v -6 -20 0
v -7 -20 0
v -7 -19 0
v -6 -19 0
v -8 -20 0
v -9 -20 0
v -9 -19 0
v -8 -19 0
v -19 -20 0
v -20 -20 0
v -20 -19 0
v -19 -19 0
v -20 -20 0
v -21 -20 0
v -21 -19 0
v -20 -19 0
v -21 -20 0
v -22 -20 0
v -22 -19 0
v -21 -19 0
v -23 -20 0
v -24 -20 0
v -24 -19 0
v -23 -19 0
v -1 -21 0
v -2 -21 0
v -2 -20 0
v -1 -20 0
v -6 -21 0
v -7 -21 0
v -7 -20 0
v -6 -20 0
v -9 -21 0
v -10 -21 0
v -10 -20 0
v -9 -20 0
v -16 -21 0
v -17 -21 0
v -17 -20 0
v -16 -20 0
v -17 -21 0
v -18 -21 0
v -18 -20 0
v -17 -20 0
v -18 -21 0
v -19 -21 0
v -19 -20 0
v -18 -20 0
v -23 -21 0
v -24 -21 0
v -24 -20 0
v -23 -20 0
v 0 -22 0
v -1 -22 0
v -1 -21 0
v 0 -21 0
v -5 -22 0
v -6 -22 0
v -6 -21 0
v -5 -21 0
v -12 -22 0
v -13 -22 0
v -13 -21 0
v -12 -21 0
v 0 -23 0
v -1 -23 0
v -1 -22 0
v 0 -22 0
v -3 -23 0
v -4 -23 0
v -4 -22 0
v -3 -22 0
v -14 -23 0
v -15 -23 0
v -15 -22 0
v -14 -22 0

# Texture cooridinates (Count = 20)
vt 0.1052632 0.8752294
vt 0.124847 0.8752294
vt 0.124847 0.9045871
vt 0.1052632 0.9045871
vt 0.08445533 0.8752294
vt 0.1040392 0.8752294
vt 0.1040392 0.9045871
vt 0.08445533 0.9045871
vt 0.126071 0.8752294
vt 0.1456548 0.8752294
vt 0.1456548 0.9045871
vt 0.126071 0.9045871
vt 0.1468788 0.8752294
vt 0.1664627 0.8752294
vt 0.1664627 0.9045871
vt 0.1468788 0.9045871
vt 0.06364749 0.8752294
vt 0.08323134 0.8752294
vt 0.08323134 0.9045871
vt 0.06364749 0.9045871

# Normal
vn 0 0 -1

# Mesh description
g darkWoods_2_mesh_0003

# Faces
f 1/1/1 2/2/1 3/3/1 4/4/1
f 5/5/1 6/6/1 7/7/1 8/8/1
f 9/9/1 10/10/1 11/11/1 12/12/1
f 13/13/1 14/14/1 15/15/1 16/16/1
f 17/5/1 18/6/1 19/7/1 20/8/1
f 21/13/1 22/14/1 23/15/1 24/16/1
f 25/5/1 26/6/1 27/7/1 28/8/1
f 29/1/1 30/2/1 31/3/1 32/4/1
f 33/5/1 34/6/1 35/7/1 36/8/1
f 37/13/1 38/14/1 39/15/1 40/16/1
f 41/5/1 42/6/1 43/7/1 44/8/1
f 45/13/1 46/14/1 47/15/1 48/16/1
f 49/5/1 50/6/1 51/7/1 52/8/1
f 53/17/1 54/18/1 55/19/1 56/20/1
f 57/17/1 58/18/1 59/19/1 60/20/1
f 61/13/1 62/14/1 63/15/1 64/16/1
f 65/5/1 66/6/1 67/7/1 68/8/1
f 69/1/1 70/2/1 71/3/1 72/4/1
f 73/5/1 74/6/1 75/7/1 76/8/1
f 77/1/1 78/2/1 79/3/1 80/4/1
f 81/1/1 82/2/1 83/3/1 84/4/1
f 85/5/1 86/6/1 87/7/1 88/8/1
f 89/13/1 90/14/1 91/15/1 92/16/1
f 93/5/1 94/6/1 95/7/1 96/8/1
f 97/1/1 98/2/1 99/3/1 100/4/1
f 101/17/1 102/18/1 103/19/1 104/20/1
f 105/17/1 106/18/1 107/19/1 108/20/1
f 109/1/1 110/2/1 111/3/1 112/4/1
f 113/5/1 114/6/1 115/7/1 116/8/1
f 117/1/1 118/2/1 119/3/1 120/4/1
f 121/5/1 122/6/1 123/7/1 124/8/1
f 125/1/1 126/2/1 127/3/1 128/4/1
f 129/13/1 130/14/1 131/15/1 132/16/1
f 133/9/1 134/10/1 135/11/1 136/12/1
f 137/1/1 138/2/1 139/3/1 140/4/1
f 141/5/1 142/6/1 143/7/1 144/8/1
f 145/1/1 146/2/1 147/3/1 148/4/1
f 149/5/1 150/6/1 151/7/1 152/8/1
f 153/1/1 154/2/1 155/3/1 156/4/1
f 157/1/1 158/2/1 159/3/1 160/4/1
f 161/1/1 162/2/1 163/3/1 164/4/1
f 165/5/1 166/6/1 167/7/1 168/8/1
f 169/1/1 170/2/1 171/3/1 172/4/1
f 173/5/1 174/6/1 175/7/1 176/8/1
f 177/1/1 178/2/1 179/3/1 180/4/1
f 181/1/1 182/2/1 183/3/1 184/4/1
f 185/9/1 186/10/1 187/11/1 188/12/1
f 189/1/1 190/2/1 191/3/1 192/4/1
f 193/5/1 194/6/1 195/7/1 196/8/1
f 197/1/1 198/2/1 199/3/1 200/4/1
f 201/5/1 202/6/1 203/7/1 204/8/1
f 205/1/1 206/2/1 207/3/1 208/4/1
f 209/1/1 210/2/1 211/3/1 212/4/1
f 213/9/1 214/10/1 215/11/1 216/12/1
f 217/1/1 218/2/1 219/3/1 220/4/1
f 221/5/1 222/6/1 223/7/1 224/8/1
f 225/1/1 226/2/1 227/3/1 228/4/1
f 229/9/1 230/10/1 231/11/1 232/12/1
f 233/1/1 234/2/1 235/3/1 236/4/1
f 237/1/1 238/2/1 239/3/1 240/4/1
f 241/9/1 242/10/1 243/11/1 244/12/1
f 245/13/1 246/14/1 247/15/1 248/16/1
f 249/5/1 250/6/1 251/7/1 252/8/1
f 253/1/1 254/2/1 255/3/1 256/4/1
f 257/9/1 258/10/1 259/11/1 260/12/1
f 261/1/1 262/2/1 263/3/1 264/4/1
f 265/1/1 266/2/1 267/3/1 268/4/1
f 269/9/1 270/10/1 271/11/1 272/12/1
f 273/17/1 274/18/1 275/19/1 276/20/1
f 277/13/1 278/14/1 279/15/1 280/16/1
f 281/5/1 282/6/1 283/7/1 284/8/1
f 285/1/1 286/2/1 287/3/1 288/4/1
f 289/9/1 290/10/1 291/11/1 292/12/1
f 293/1/1 294/2/1 295/3/1 296/4/1
f 297/5/1 298/6/1 299/7/1 300/8/1
f 301/1/1 302/2/1 303/3/1 304/4/1
f 305/9/1 306/10/1 307/11/1 308/12/1
f 309/1/1 310/2/1 311/3/1 312/4/1
f 313/5/1 314/6/1 315/7/1 316/8/1
f 317/1/1 318/2/1 319/3/1 320/4/1
f 321/1/1 322/2/1 323/3/1 324/4/1
f 325/1/1 326/2/1 327/3/1 328/4/1
f 329/5/1 330/6/1 331/7/1 332/8/1
f 333/1/1 334/2/1 335/3/1 336/4/1
f 337/1/1 338/2/1 339/3/1 340/4/1
f 341/9/1 342/10/1 343/11/1 344/12/1
f 345/5/1 346/6/1 347/7/1 348/8/1
f 349/1/1 350/2/1 351/3/1 352/4/1
f 353/9/1 354/10/1 355/11/1 356/12/1
f 357/1/1 358/2/1 359/3/1 360/4/1
f 361/1/1 362/2/1 363/3/1 364/4/1
f 365/5/1 366/6/1 367/7/1 368/8/1
f 369/1/1 370/2/1 371/3/1 372/4/1
f 373/1/1 374/2/1 375/3/1 376/4/1
f 377/17/1 378/18/1 379/19/1 380/20/1
f 381/17/1 382/18/1 383/19/1 384/20/1
f 385/1/1 386/2/1 387/3/1 388/4/1
f 389/5/1 390/6/1 391/7/1 392/8/1
f 393/13/1 394/14/1 395/15/1 396/16/1
f 397/9/1 398/10/1 399/11/1 400/12/1
f 401/1/1 402/2/1 403/3/1 404/4/1
f 405/9/1 406/10/1 407/11/1 408/12/1
f 409/17/1 410/18/1 411/19/1 412/20/1
f 413/9/1 414/10/1 415/11/1 416/12/1
f 417/1/1 418/2/1 419/3/1 420/4/1
f 421/5/1 422/6/1 423/7/1 424/8/1
f 425/5/1 426/6/1 427/7/1 428/8/1
f 429/1/1 430/2/1 431/3/1 432/4/1
f 433/17/1 434/18/1 435/19/1 436/20/1
f 437/17/1 438/18/1 439/19/1 440/20/1
f 441/17/1 442/18/1 443/19/1 444/20/1
f 445/5/1 446/6/1 447/7/1 448/8/1
f 449/13/1 450/14/1 451/15/1 452/16/1
f 453/5/1 454/6/1 455/7/1 456/8/1
f 457/1/1 458/2/1 459/3/1 460/4/1
f 461/9/1 462/10/1 463/11/1 464/12/1
f 465/17/1 466/18/1 467/19/1 468/20/1
f 469/17/1 470/18/1 471/19/1 472/20/1
f 473/5/1 474/6/1 475/7/1 476/8/1
f 477/1/1 478/2/1 479/3/1 480/4/1
f 481/5/1 482/6/1 483/7/1 484/8/1
f 485/1/1 486/2/1 487/3/1 488/4/1
f 489/1/1 490/2/1 491/3/1 492/4/1
f 493/5/1 494/6/1 495/7/1 496/8/1
f 497/1/1 498/2/1 499/3/1 500/4/1

