# Tiled2Unity generated file. Do not modify by hand.
# Wavefront file for 'toMerix2_mesh_0002.obj'

# Vertices (Count = 60)
v -11 -1 0
v -12 -1 0
v -12 0 0
v -11 0 0
v -24 -1 0
v -25 -1 0
v -25 0 0
v -24 0 0
v -18 -3 0
v -19 -3 0
v -19 -2 0
v -18 -2 0
v -19 -4 0
v -20 -4 0
v -20 -3 0
v -19 -3 0
v 0 -10 0
v -1 -10 0
v -1 -9 0
v 0 -9 0
v 0 -11 0
v -1 -11 0
v -1 -10 0
v 0 -10 0
v -1 -11 0
v -2 -11 0
v -2 -10 0
v -1 -10 0
v -16 -11 0
v -17 -11 0
v -17 -10 0
v -16 -10 0
v -20 -11 0
v -21 -11 0
v -21 -10 0
v -20 -10 0
v -1 -12 0
v -2 -12 0
v -2 -11 0
v -1 -11 0
v -2 -12 0
v -3 -12 0
v -3 -11 0
v -2 -11 0
v -2 -13 0
v -3 -13 0
v -3 -12 0
v -2 -12 0
v -3 -13 0
v -4 -13 0
v -4 -12 0
v -3 -12 0
v -8 -13 0
v -9 -13 0
v -9 -12 0
v -8 -12 0
v -2 -14 0
v -3 -14 0
v -3 -13 0
v -2 -13 0

# Texture cooridinates (Count = 4)
vt 0.9167687 0.9376147
vt 0.9363525 0.9376147
vt 0.9363525 0.9669725
vt 0.9167687 0.9669725

# Normal
vn 0 0 -1

# Mesh description
g toMerix2_mesh_0002

# Faces
f 1/1/1 2/2/1 3/3/1 4/4/1
f 5/1/1 6/2/1 7/3/1 8/4/1
f 9/1/1 10/2/1 11/3/1 12/4/1
f 13/1/1 14/2/1 15/3/1 16/4/1
f 17/1/1 18/2/1 19/3/1 20/4/1
f 21/1/1 22/2/1 23/3/1 24/4/1
f 25/1/1 26/2/1 27/3/1 28/4/1
f 29/1/1 30/2/1 31/3/1 32/4/1
f 33/1/1 34/2/1 35/3/1 36/4/1
f 37/1/1 38/2/1 39/3/1 40/4/1
f 41/1/1 42/2/1 43/3/1 44/4/1
f 45/1/1 46/2/1 47/3/1 48/4/1
f 49/1/1 50/2/1 51/3/1 52/4/1
f 53/1/1 54/2/1 55/3/1 56/4/1
f 57/1/1 58/2/1 59/3/1 60/4/1

