# Tiled2Unity generated file. Do not modify by hand.
# Wavefront file for 'moltenCave_4_mesh_0002.obj'

# Vertices (Count = 136)
v -6 -5 0
v -7 -5 0
v -7 -4 0
v -6 -4 0
v -7 -5 0
v -8 -5 0
v -8 -4 0
v -7 -4 0
v -8 -5 0
v -9 -5 0
v -9 -4 0
v -8 -4 0
v -6 -6 0
v -7 -6 0
v -7 -5 0
v -6 -5 0
v -7 -6 0
v -8 -6 0
v -8 -5 0
v -7 -5 0
v -8 -6 0
v -9 -6 0
v -9 -5 0
v -8 -5 0
v -6 -7 0
v -7 -7 0
v -7 -6 0
v -6 -6 0
v -7 -7 0
v -8 -7 0
v -8 -6 0
v -7 -6 0
v -8 -7 0
v -9 -7 0
v -9 -6 0
v -8 -6 0
v -5 -9 0
v -6 -9 0
v -6 -8 0
v -5 -8 0
v -6 -9 0
v -7 -9 0
v -7 -8 0
v -6 -8 0
v -7 -9 0
v -8 -9 0
v -8 -8 0
v -7 -8 0
v -8 -9 0
v -9 -9 0
v -9 -8 0
v -8 -8 0
v -9 -9 0
v -10 -9 0
v -10 -8 0
v -9 -8 0
v -5 -10 0
v -6 -10 0
v -6 -9 0
v -5 -9 0
v -9 -10 0
v -10 -10 0
v -10 -9 0
v -9 -9 0
v -5 -11 0
v -6 -11 0
v -6 -10 0
v -5 -10 0
v -9 -11 0
v -10 -11 0
v -10 -10 0
v -9 -10 0
v -5 -12 0
v -6 -12 0
v -6 -11 0
v -5 -11 0
v -9 -12 0
v -10 -12 0
v -10 -11 0
v -9 -11 0
v -5 -13 0
v -6 -13 0
v -6 -12 0
v -5 -12 0
v -6 -13 0
v -7 -13 0
v -7 -12 0
v -6 -12 0
v -7 -13 0
v -8 -13 0
v -8 -12 0
v -7 -12 0
v -8 -13 0
v -9 -13 0
v -9 -12 0
v -8 -12 0
v -9 -13 0
v -10 -13 0
v -10 -12 0
v -9 -12 0
v -6 -15 0
v -7 -15 0
v -7 -14 0
v -6 -14 0
v -7 -15 0
v -8 -15 0
v -8 -14 0
v -7 -14 0
v -8 -15 0
v -9 -15 0
v -9 -14 0
v -8 -14 0
v -6 -16 0
v -7 -16 0
v -7 -15 0
v -6 -15 0
v -7 -16 0
v -8 -16 0
v -8 -15 0
v -7 -15 0
v -8 -16 0
v -9 -16 0
v -9 -15 0
v -8 -15 0
v -6 -17 0
v -7 -17 0
v -7 -16 0
v -6 -16 0
v -7 -17 0
v -8 -17 0
v -8 -16 0
v -7 -16 0
v -8 -17 0
v -9 -17 0
v -9 -16 0
v -8 -16 0

# Texture cooridinates (Count = 24)
vt 0.04283966 0.7798165
vt 0.0624235 0.7798165
vt 0.0624235 0.7504587
vt 0.04283966 0.7504587
vt 0.5838434 0.9045871
vt 0.6034272 0.9045871
vt 0.6034272 0.8752294
vt 0.5838434 0.8752294
vt 0.6046512 0.9045871
vt 0.624235 0.9045871
vt 0.624235 0.8752294
vt 0.6046512 0.8752294
vt 0.9375765 0.7816514
vt 0.9571604 0.7816514
vt 0.9571604 0.8110092
vt 0.9375765 0.8110092
vt 0.8335373 0.9376147
vt 0.8531212 0.9376147
vt 0.8531212 0.9669725
vt 0.8335373 0.9669725
vt 0.9791921 0.7816514
vt 0.998776 0.7816514
vt 0.998776 0.8110092
vt 0.9791921 0.8110092

# Normal
vn 0 0 -1

# Mesh description
g moltenCave_4_mesh_0002

# Faces
f 1/1/1 2/2/1 3/3/1 4/4/1
f 5/5/1 6/6/1 7/7/1 8/8/1
f 9/9/1 10/10/1 11/11/1 12/12/1
f 13/13/1 14/14/1 15/15/1 16/16/1
f 17/17/1 18/18/1 19/19/1 20/20/1
f 21/21/1 22/22/1 23/23/1 24/24/1
f 25/4/1 26/3/1 27/2/1 28/1/1
f 29/8/1 30/7/1 31/6/1 32/5/1
f 33/12/1 34/11/1 35/10/1 36/9/1
f 37/1/1 38/2/1 39/3/1 40/4/1
f 41/5/1 42/6/1 43/7/1 44/8/1
f 45/5/1 46/6/1 47/7/1 48/8/1
f 49/5/1 50/6/1 51/7/1 52/8/1
f 53/9/1 54/10/1 55/11/1 56/12/1
f 57/13/1 58/14/1 59/15/1 60/16/1
f 61/21/1 62/22/1 63/23/1 64/24/1
f 65/13/1 66/14/1 67/15/1 68/16/1
f 69/21/1 70/22/1 71/23/1 72/24/1
f 73/13/1 74/14/1 75/15/1 76/16/1
f 77/21/1 78/22/1 79/23/1 80/24/1
f 81/4/1 82/3/1 83/2/1 84/1/1
f 85/8/1 86/7/1 87/6/1 88/5/1
f 89/8/1 90/7/1 91/6/1 92/5/1
f 93/8/1 94/7/1 95/6/1 96/5/1
f 97/12/1 98/11/1 99/10/1 100/9/1
f 101/1/1 102/2/1 103/3/1 104/4/1
f 105/5/1 106/6/1 107/7/1 108/8/1
f 109/9/1 110/10/1 111/11/1 112/12/1
f 113/13/1 114/14/1 115/15/1 116/16/1
f 117/17/1 118/18/1 119/19/1 120/20/1
f 121/21/1 122/22/1 123/23/1 124/24/1
f 125/4/1 126/3/1 127/2/1 128/1/1
f 129/8/1 130/7/1 131/6/1 132/5/1
f 133/12/1 134/11/1 135/10/1 136/9/1

