# Tiled2Unity generated file. Do not modify by hand.
# Wavefront file for 'cave5_mesh_0002.obj'

# Vertices (Count = 248)
v -11 -6 0
v -12 -6 0
v -12 -5 0
v -11 -5 0
v -12 -6 0
v -13 -6 0
v -13 -5 0
v -12 -5 0
v -13 -6 0
v -14 -6 0
v -14 -5 0
v -13 -5 0
v -14 -6 0
v -15 -6 0
v -15 -5 0
v -14 -5 0
v -15 -6 0
v -16 -6 0
v -16 -5 0
v -15 -5 0
v -9 -7 0
v -10 -7 0
v -10 -6 0
v -9 -6 0
v -10 -7 0
v -11 -7 0
v -11 -6 0
v -10 -6 0
v -11 -7 0
v -12 -7 0
v -12 -6 0
v -11 -6 0
v -12 -7 0
v -13 -7 0
v -13 -6 0
v -12 -6 0
v -13 -7 0
v -14 -7 0
v -14 -6 0
v -13 -6 0
v -14 -7 0
v -15 -7 0
v -15 -6 0
v -14 -6 0
v -15 -7 0
v -16 -7 0
v -16 -6 0
v -15 -6 0
v -16 -7 0
v -17 -7 0
v -17 -6 0
v -16 -6 0
v -10 -8 0
v -11 -8 0
v -11 -7 0
v -10 -7 0
v -11 -8 0
v -12 -8 0
v -12 -7 0
v -11 -7 0
v -12 -8 0
v -13 -8 0
v -13 -7 0
v -12 -7 0
v -13 -8 0
v -14 -8 0
v -14 -7 0
v -13 -7 0
v -15 -8 0
v -16 -8 0
v -16 -7 0
v -15 -7 0
v -16 -8 0
v -17 -8 0
v -17 -7 0
v -16 -7 0
v -9 -9 0
v -10 -9 0
v -10 -8 0
v -9 -8 0
v -11 -9 0
v -12 -9 0
v -12 -8 0
v -11 -8 0
v -12 -9 0
v -13 -9 0
v -13 -8 0
v -12 -8 0
v -13 -9 0
v -14 -9 0
v -14 -8 0
v -13 -8 0
v -14 -9 0
v -15 -9 0
v -15 -8 0
v -14 -8 0
v -15 -9 0
v -16 -9 0
v -16 -8 0
v -15 -8 0
v -16 -9 0
v -17 -9 0
v -17 -8 0
v -16 -8 0
v -5 -10 0
v -6 -10 0
v -6 -9 0
v -5 -9 0
v -8 -10 0
v -9 -10 0
v -9 -9 0
v -8 -9 0
v -10 -10 0
v -11 -10 0
v -11 -9 0
v -10 -9 0
v -12 -10 0
v -13 -10 0
v -13 -9 0
v -12 -9 0
v -13 -10 0
v -14 -10 0
v -14 -9 0
v -13 -9 0
v -14 -10 0
v -15 -10 0
v -15 -9 0
v -14 -9 0
v -15 -10 0
v -16 -10 0
v -16 -9 0
v -15 -9 0
v -16 -10 0
v -17 -10 0
v -17 -9 0
v -16 -9 0
v -17 -10 0
v -18 -10 0
v -18 -9 0
v -17 -9 0
v -7 -11 0
v -8 -11 0
v -8 -10 0
v -7 -10 0
v -13 -11 0
v -14 -11 0
v -14 -10 0
v -13 -10 0
v -14 -11 0
v -15 -11 0
v -15 -10 0
v -14 -10 0
v -15 -11 0
v -16 -11 0
v -16 -10 0
v -15 -10 0
v -16 -11 0
v -17 -11 0
v -17 -10 0
v -16 -10 0
v -17 -11 0
v -18 -11 0
v -18 -10 0
v -17 -10 0
v -4 -12 0
v -5 -12 0
v -5 -11 0
v -4 -11 0
v -6 -12 0
v -7 -12 0
v -7 -11 0
v -6 -11 0
v -8 -12 0
v -9 -12 0
v -9 -11 0
v -8 -11 0
v -10 -12 0
v -11 -12 0
v -11 -11 0
v -10 -11 0
v -12 -12 0
v -13 -12 0
v -13 -11 0
v -12 -11 0
v -15 -12 0
v -16 -12 0
v -16 -11 0
v -15 -11 0
v -16 -12 0
v -17 -12 0
v -17 -11 0
v -16 -11 0
v -17 -12 0
v -18 -12 0
v -18 -11 0
v -17 -11 0
v -4 -13 0
v -5 -13 0
v -5 -12 0
v -4 -12 0
v -8 -13 0
v -9 -13 0
v -9 -12 0
v -8 -12 0
v -10 -13 0
v -11 -13 0
v -11 -12 0
v -10 -12 0
v -13 -13 0
v -14 -13 0
v -14 -12 0
v -13 -12 0
v -3 -14 0
v -4 -14 0
v -4 -13 0
v -3 -13 0
v -5 -14 0
v -6 -14 0
v -6 -13 0
v -5 -13 0
v -7 -14 0
v -8 -14 0
v -8 -13 0
v -7 -13 0
v -9 -14 0
v -10 -14 0
v -10 -13 0
v -9 -13 0
v -12 -14 0
v -13 -14 0
v -13 -13 0
v -12 -13 0
v -15 -14 0
v -16 -14 0
v -16 -13 0
v -15 -13 0
v -6 -15 0
v -7 -15 0
v -7 -14 0
v -6 -14 0
v -10 -15 0
v -11 -15 0
v -11 -14 0
v -10 -14 0
v -8 -16 0
v -9 -16 0
v -9 -15 0
v -8 -15 0

# Texture cooridinates (Count = 24)
vt 0.9791921 0.8752294
vt 0.998776 0.8752294
vt 0.998776 0.9045871
vt 0.9791921 0.9045871
vt 0.6878825 0.906422
vt 0.7074664 0.906422
vt 0.7074664 0.9357798
vt 0.6878825 0.9357798
vt 0.1884945 0.6256881
vt 0.2080783 0.6256881
vt 0.2080783 0.6550459
vt 0.1884945 0.6550459
vt 0.4798042 0.906422
vt 0.499388 0.906422
vt 0.499388 0.9357798
vt 0.4798042 0.9357798
vt 0.7294981 0.8440367
vt 0.749082 0.8440367
vt 0.749082 0.8733945
vt 0.7294981 0.8733945
vt 0.6046512 0.906422
vt 0.624235 0.906422
vt 0.624235 0.9357798
vt 0.6046512 0.9357798

# Normal
vn 0 0 -1

# Mesh description
g cave5_mesh_0002

# Faces
f 1/1/1 2/2/1 3/3/1 4/4/1
f 5/1/1 6/2/1 7/3/1 8/4/1
f 9/1/1 10/2/1 11/3/1 12/4/1
f 13/1/1 14/2/1 15/3/1 16/4/1
f 17/1/1 18/2/1 19/3/1 20/4/1
f 21/5/1 22/6/1 23/7/1 24/8/1
f 25/1/1 26/2/1 27/3/1 28/4/1
f 29/1/1 30/2/1 31/3/1 32/4/1
f 33/1/1 34/2/1 35/3/1 36/4/1
f 37/1/1 38/2/1 39/3/1 40/4/1
f 41/9/1 42/10/1 43/11/1 44/12/1
f 45/1/1 46/2/1 47/3/1 48/4/1
f 49/1/1 50/2/1 51/3/1 52/4/1
f 53/1/1 54/2/1 55/3/1 56/4/1
f 57/1/1 58/2/1 59/3/1 60/4/1
f 61/1/1 62/2/1 63/3/1 64/4/1
f 65/9/1 66/10/1 67/11/1 68/12/1
f 69/9/1 70/10/1 71/11/1 72/12/1
f 73/1/1 74/2/1 75/3/1 76/4/1
f 77/13/1 78/14/1 79/15/1 80/16/1
f 81/1/1 82/2/1 83/3/1 84/4/1
f 85/1/1 86/2/1 87/3/1 88/4/1
f 89/1/1 90/2/1 91/3/1 92/4/1
f 93/9/1 94/10/1 95/11/1 96/12/1
f 97/1/1 98/2/1 99/3/1 100/4/1
f 101/1/1 102/2/1 103/3/1 104/4/1
f 105/17/1 106/18/1 107/19/1 108/20/1
f 109/1/1 110/2/1 111/3/1 112/4/1
f 113/13/1 114/14/1 115/15/1 116/16/1
f 117/1/1 118/2/1 119/3/1 120/4/1
f 121/1/1 122/2/1 123/3/1 124/4/1
f 125/1/1 126/2/1 127/3/1 128/4/1
f 129/1/1 130/2/1 131/3/1 132/4/1
f 133/1/1 134/2/1 135/3/1 136/4/1
f 137/1/1 138/2/1 139/3/1 140/4/1
f 141/21/1 142/22/1 143/23/1 144/24/1
f 145/1/1 146/2/1 147/3/1 148/4/1
f 149/1/1 150/2/1 151/3/1 152/4/1
f 153/1/1 154/2/1 155/3/1 156/4/1
f 157/1/1 158/2/1 159/3/1 160/4/1
f 161/1/1 162/2/1 163/3/1 164/4/1
f 165/1/1 166/2/1 167/3/1 168/4/1
f 169/1/1 170/2/1 171/3/1 172/4/1
f 173/21/1 174/22/1 175/23/1 176/24/1
f 177/1/1 178/2/1 179/3/1 180/4/1
f 181/17/1 182/18/1 183/19/1 184/20/1
f 185/1/1 186/2/1 187/3/1 188/4/1
f 189/1/1 190/2/1 191/3/1 192/4/1
f 193/1/1 194/2/1 195/3/1 196/4/1
f 197/17/1 198/18/1 199/19/1 200/20/1
f 201/1/1 202/2/1 203/3/1 204/4/1
f 205/21/1 206/22/1 207/23/1 208/24/1
f 209/1/1 210/2/1 211/3/1 212/4/1
f 213/5/1 214/6/1 215/7/1 216/8/1
f 217/1/1 218/2/1 219/3/1 220/4/1
f 221/1/1 222/2/1 223/3/1 224/4/1
f 225/1/1 226/2/1 227/3/1 228/4/1
f 229/1/1 230/2/1 231/3/1 232/4/1
f 233/17/1 234/18/1 235/19/1 236/20/1
f 237/13/1 238/14/1 239/15/1 240/16/1
f 241/1/1 242/2/1 243/3/1 244/4/1
f 245/21/1 246/22/1 247/23/1 248/24/1

