# Tiled2Unity generated file. Do not modify by hand.
# Wavefront file for 'moltenCave_2_mesh_0002.obj'

# Vertices (Count = 220)
v -10 -6 0
v -11 -6 0
v -11 -5 0
v -10 -5 0
v -12 -6 0
v -13 -6 0
v -13 -5 0
v -12 -5 0
v -15 -6 0
v -16 -6 0
v -16 -5 0
v -15 -5 0
v -16 -6 0
v -17 -6 0
v -17 -5 0
v -16 -5 0
v -17 -6 0
v -18 -6 0
v -18 -5 0
v -17 -5 0
v -7 -7 0
v -8 -7 0
v -8 -6 0
v -7 -6 0
v -8 -7 0
v -9 -7 0
v -9 -6 0
v -8 -6 0
v -10 -7 0
v -11 -7 0
v -11 -6 0
v -10 -6 0
v -11 -7 0
v -12 -7 0
v -12 -6 0
v -11 -6 0
v -16 -7 0
v -17 -7 0
v -17 -6 0
v -16 -6 0
v -17 -7 0
v -18 -7 0
v -18 -6 0
v -17 -6 0
v -7 -8 0
v -8 -8 0
v -8 -7 0
v -7 -7 0
v -8 -8 0
v -9 -8 0
v -9 -7 0
v -8 -7 0
v -11 -8 0
v -12 -8 0
v -12 -7 0
v -11 -7 0
v -12 -8 0
v -13 -8 0
v -13 -7 0
v -12 -7 0
v -13 -8 0
v -14 -8 0
v -14 -7 0
v -13 -7 0
v -18 -8 0
v -19 -8 0
v -19 -7 0
v -18 -7 0
v -19 -8 0
v -20 -8 0
v -20 -7 0
v -19 -7 0
v -16 -9 0
v -17 -9 0
v -17 -8 0
v -16 -8 0
v -18 -9 0
v -19 -9 0
v -19 -8 0
v -18 -8 0
v -19 -9 0
v -20 -9 0
v -20 -8 0
v -19 -8 0
v -22 -9 0
v -23 -9 0
v -23 -8 0
v -22 -8 0
v -23 -9 0
v -24 -9 0
v -24 -8 0
v -23 -8 0
v -6 -10 0
v -7 -10 0
v -7 -9 0
v -6 -9 0
v -7 -10 0
v -8 -10 0
v -8 -9 0
v -7 -9 0
v -10 -10 0
v -11 -10 0
v -11 -9 0
v -10 -9 0
v -12 -10 0
v -13 -10 0
v -13 -9 0
v -12 -9 0
v -13 -10 0
v -14 -10 0
v -14 -9 0
v -13 -9 0
v -22 -10 0
v -23 -10 0
v -23 -9 0
v -22 -9 0
v -23 -10 0
v -24 -10 0
v -24 -9 0
v -23 -9 0
v -7 -11 0
v -8 -11 0
v -8 -10 0
v -7 -10 0
v -8 -11 0
v -9 -11 0
v -9 -10 0
v -8 -10 0
v -9 -11 0
v -10 -11 0
v -10 -10 0
v -9 -10 0
v -12 -11 0
v -13 -11 0
v -13 -10 0
v -12 -10 0
v -13 -11 0
v -14 -11 0
v -14 -10 0
v -13 -10 0
v -17 -11 0
v -18 -11 0
v -18 -10 0
v -17 -10 0
v -20 -11 0
v -21 -11 0
v -21 -10 0
v -20 -10 0
v -22 -11 0
v -23 -11 0
v -23 -10 0
v -22 -10 0
v -17 -12 0
v -18 -12 0
v -18 -11 0
v -17 -11 0
v -18 -12 0
v -19 -12 0
v -19 -11 0
v -18 -11 0
v -6 -13 0
v -7 -13 0
v -7 -12 0
v -6 -12 0
v -7 -13 0
v -8 -13 0
v -8 -12 0
v -7 -12 0
v -12 -13 0
v -13 -13 0
v -13 -12 0
v -12 -12 0
v -15 -13 0
v -16 -13 0
v -16 -12 0
v -15 -12 0
v -18 -13 0
v -19 -13 0
v -19 -12 0
v -18 -12 0
v -19 -13 0
v -20 -13 0
v -20 -12 0
v -19 -12 0
v -6 -14 0
v -7 -14 0
v -7 -13 0
v -6 -13 0
v -7 -14 0
v -8 -14 0
v -8 -13 0
v -7 -13 0
v -10 -14 0
v -11 -14 0
v -11 -13 0
v -10 -13 0
v -12 -14 0
v -13 -14 0
v -13 -13 0
v -12 -13 0
v -13 -14 0
v -14 -14 0
v -14 -13 0
v -13 -13 0
v -17 -14 0
v -18 -14 0
v -18 -13 0
v -17 -13 0
v -18 -14 0
v -19 -14 0
v -19 -13 0
v -18 -13 0
v -19 -14 0
v -20 -14 0
v -20 -13 0
v -19 -13 0
v -13 -15 0
v -14 -15 0
v -14 -14 0
v -13 -14 0

# Texture cooridinates (Count = 48)
vt 0.7294981 0.9688073
vt 0.749082 0.9688073
vt 0.749082 0.9981651
vt 0.7294981 0.9981651
vt 0.500612 0.812844
vt 0.5201958 0.812844
vt 0.5201958 0.8422018
vt 0.500612 0.8422018
vt 0.6670747 0.9376147
vt 0.6866585 0.9376147
vt 0.6866585 0.9669725
vt 0.6670747 0.9669725
vt 0.1884945 0.812844
vt 0.2080783 0.812844
vt 0.2080783 0.8422018
vt 0.1884945 0.8422018
vt 0.2093023 0.812844
vt 0.2288862 0.812844
vt 0.2288862 0.8422018
vt 0.2093023 0.8422018
vt 0.6878825 0.9688073
vt 0.7074664 0.9688073
vt 0.7074664 0.9981651
vt 0.6878825 0.9981651
vt 0.2301102 0.812844
vt 0.249694 0.812844
vt 0.249694 0.8422018
vt 0.2301102 0.8422018
vt 0.250918 0.812844
vt 0.2705018 0.812844
vt 0.2705018 0.8422018
vt 0.250918 0.8422018
vt 0.7086903 0.9688073
vt 0.7282742 0.9688073
vt 0.7282742 0.9981651
vt 0.7086903 0.9981651
vt 0.6878825 0.9376147
vt 0.7074664 0.9376147
vt 0.7074664 0.9669725
vt 0.6878825 0.9669725
vt 0.6670747 0.9688073
vt 0.6866585 0.9688073
vt 0.6866585 0.9981651
vt 0.6670747 0.9981651
vt 0.6462668 0.9376147
vt 0.6658507 0.9376147
vt 0.6658507 0.9669725
vt 0.6462668 0.9669725

# Normal
vn 0 0 -1

# Mesh description
g moltenCave_2_mesh_0002

# Faces
f 1/1/1 2/2/1 3/3/1 4/4/1
f 5/5/1 6/6/1 7/7/1 8/8/1
f 9/1/1 10/2/1 11/3/1 12/4/1
f 13/9/1 14/10/1 15/11/1 16/12/1
f 17/9/1 18/10/1 19/11/1 20/12/1
f 21/13/1 22/14/1 23/15/1 24/16/1
f 25/17/1 26/18/1 27/19/1 28/20/1
f 29/1/1 30/2/1 31/3/1 32/4/1
f 33/21/1 34/22/1 35/23/1 36/24/1
f 37/9/1 38/10/1 39/11/1 40/12/1
f 41/9/1 42/10/1 43/11/1 44/12/1
f 45/25/1 46/26/1 47/27/1 48/28/1
f 49/29/1 50/30/1 51/31/1 52/32/1
f 53/33/1 54/34/1 55/35/1 56/36/1
f 57/21/1 58/22/1 59/23/1 60/24/1
f 61/1/1 62/2/1 63/3/1 64/4/1
f 65/13/1 66/14/1 67/15/1 68/16/1
f 69/17/1 70/18/1 71/19/1 72/20/1
f 73/5/1 74/6/1 75/7/1 76/8/1
f 77/25/1 78/26/1 79/27/1 80/28/1
f 81/29/1 82/30/1 83/31/1 84/32/1
f 85/1/1 86/2/1 87/3/1 88/4/1
f 89/9/1 90/10/1 91/11/1 92/12/1
f 93/21/1 94/22/1 95/23/1 96/24/1
f 97/37/1 98/38/1 99/39/1 100/40/1
f 101/5/1 102/6/1 103/7/1 104/8/1
f 105/13/1 106/14/1 107/15/1 108/16/1
f 109/17/1 110/18/1 111/19/1 112/20/1
f 113/41/1 114/42/1 115/43/1 116/44/1
f 117/21/1 118/22/1 119/23/1 120/24/1
f 121/41/1 122/42/1 123/43/1 124/44/1
f 125/45/1 126/46/1 127/47/1 128/48/1
f 129/45/1 130/46/1 131/47/1 132/48/1
f 133/25/1 134/26/1 135/27/1 136/28/1
f 137/29/1 138/30/1 139/31/1 140/32/1
f 141/21/1 142/22/1 143/23/1 144/24/1
f 145/5/1 146/6/1 147/7/1 148/8/1
f 149/21/1 150/22/1 151/23/1 152/24/1
f 153/1/1 154/2/1 155/3/1 156/4/1
f 157/45/1 158/46/1 159/47/1 160/48/1
f 161/13/1 162/14/1 163/15/1 164/16/1
f 165/17/1 166/18/1 167/19/1 168/20/1
f 169/41/1 170/42/1 171/43/1 172/44/1
f 173/5/1 174/6/1 175/7/1 176/8/1
f 177/41/1 178/42/1 179/43/1 180/44/1
f 181/41/1 182/42/1 183/43/1 184/44/1
f 185/25/1 186/26/1 187/27/1 188/28/1
f 189/29/1 190/30/1 191/31/1 192/32/1
f 193/5/1 194/6/1 195/7/1 196/8/1
f 197/9/1 198/10/1 199/11/1 200/12/1
f 201/45/1 202/46/1 203/47/1 204/48/1
f 205/21/1 206/22/1 207/23/1 208/24/1
f 209/1/1 210/2/1 211/3/1 212/4/1
f 213/45/1 214/46/1 215/47/1 216/48/1
f 217/41/1 218/42/1 219/43/1 220/44/1

