# Tiled2Unity generated file. Do not modify by hand.
# Wavefront file for 'lernaIsland_3_mesh_0003.obj'

# Vertices (Count = 424)
v -23 -1 0
v -24 -1 0
v -24 0 0
v -23 0 0
v -24 -1 0
v -25 -1 0
v -25 0 0
v -24 0 0
v -29 -1 0
v -30 -1 0
v -30 0 0
v -29 0 0
v -23 -2 0
v -24 -2 0
v -24 -1 0
v -23 -1 0
v -25 -2 0
v -26 -2 0
v -26 -1 0
v -25 -1 0
v -28 -2 0
v -29 -2 0
v -29 -1 0
v -28 -1 0
v -24 -3 0
v -25 -3 0
v -25 -2 0
v -24 -2 0
v -24 -4 0
v -25 -4 0
v -25 -3 0
v -24 -3 0
v -28 -4 0
v -29 -4 0
v -29 -3 0
v -28 -3 0
v -29 -4 0
v -30 -4 0
v -30 -3 0
v -29 -3 0
v -24 -5 0
v -25 -5 0
v -25 -4 0
v -24 -4 0
v -27 -5 0
v -28 -5 0
v -28 -4 0
v -27 -4 0
v -30 -5 0
v -31 -5 0
v -31 -4 0
v -30 -4 0
v -23 -6 0
v -24 -6 0
v -24 -5 0
v -23 -5 0
v -26 -6 0
v -27 -6 0
v -27 -5 0
v -26 -5 0
v -30 -6 0
v -31 -6 0
v -31 -5 0
v -30 -5 0
v -21 -7 0
v -22 -7 0
v -22 -6 0
v -21 -6 0
v -26 -7 0
v -27 -7 0
v -27 -6 0
v -26 -6 0
v -18 -8 0
v -19 -8 0
v -19 -7 0
v -18 -7 0
v -27 -8 0
v -28 -8 0
v -28 -7 0
v -27 -7 0
v -17 -9 0
v -18 -9 0
v -18 -8 0
v -17 -8 0
v -20 -9 0
v -21 -9 0
v -21 -8 0
v -20 -8 0
v -21 -9 0
v -22 -9 0
v -22 -8 0
v -21 -8 0
v -27 -9 0
v -28 -9 0
v -28 -8 0
v -27 -8 0
v -17 -10 0
v -18 -10 0
v -18 -9 0
v -17 -9 0
v -19 -10 0
v -20 -10 0
v -20 -9 0
v -19 -9 0
v -22 -10 0
v -23 -10 0
v -23 -9 0
v -22 -9 0
v -26 -10 0
v -27 -10 0
v -27 -9 0
v -26 -9 0
v -30 -10 0
v -31 -10 0
v -31 -9 0
v -30 -9 0
v -23 -11 0
v -24 -11 0
v -24 -10 0
v -23 -10 0
v -25 -11 0
v -26 -11 0
v -26 -10 0
v -25 -10 0
v -30 -11 0
v -31 -11 0
v -31 -10 0
v -30 -10 0
v -16 -12 0
v -17 -12 0
v -17 -11 0
v -16 -11 0
v -17 -12 0
v -18 -12 0
v -18 -11 0
v -17 -11 0
v -23 -12 0
v -24 -12 0
v -24 -11 0
v -23 -11 0
v -24 -12 0
v -25 -12 0
v -25 -11 0
v -24 -11 0
v -30 -12 0
v -31 -12 0
v -31 -11 0
v -30 -11 0
v -14 -13 0
v -15 -13 0
v -15 -12 0
v -14 -12 0
v -19 -13 0
v -20 -13 0
v -20 -12 0
v -19 -12 0
v -23 -13 0
v -24 -13 0
v -24 -12 0
v -23 -12 0
v -24 -13 0
v -25 -13 0
v -25 -12 0
v -24 -12 0
v -29 -13 0
v -30 -13 0
v -30 -12 0
v -29 -12 0
v -13 -14 0
v -14 -14 0
v -14 -13 0
v -13 -13 0
v -20 -14 0
v -21 -14 0
v -21 -13 0
v -20 -13 0
v -23 -14 0
v -24 -14 0
v -24 -13 0
v -23 -13 0
v -24 -14 0
v -25 -14 0
v -25 -13 0
v -24 -13 0
v -29 -14 0
v -30 -14 0
v -30 -13 0
v -29 -13 0
v -12 -15 0
v -13 -15 0
v -13 -14 0
v -12 -14 0
v -16 -15 0
v -17 -15 0
v -17 -14 0
v -16 -14 0
v -17 -15 0
v -18 -15 0
v -18 -14 0
v -17 -14 0
v -18 -15 0
v -19 -15 0
v -19 -14 0
v -18 -14 0
v -19 -15 0
v -20 -15 0
v -20 -14 0
v -19 -14 0
v -20 -15 0
v -21 -15 0
v -21 -14 0
v -20 -14 0
v -23 -15 0
v -24 -15 0
v -24 -14 0
v -23 -14 0
v -25 -15 0
v -26 -15 0
v -26 -14 0
v -25 -14 0
v -29 -15 0
v -30 -15 0
v -30 -14 0
v -29 -14 0
v -11 -16 0
v -12 -16 0
v -12 -15 0
v -11 -15 0
v -15 -16 0
v -16 -16 0
v -16 -15 0
v -15 -15 0
v -23 -16 0
v -24 -16 0
v -24 -15 0
v -23 -15 0
v -26 -16 0
v -27 -16 0
v -27 -15 0
v -26 -15 0
v -30 -16 0
v -31 -16 0
v -31 -15 0
v -30 -15 0
v -10 -17 0
v -11 -17 0
v -11 -16 0
v -10 -16 0
v -13 -17 0
v -14 -17 0
v -14 -16 0
v -13 -16 0
v -14 -17 0
v -15 -17 0
v -15 -16 0
v -14 -16 0
v -23 -17 0
v -24 -17 0
v -24 -16 0
v -23 -16 0
v -27 -17 0
v -28 -17 0
v -28 -16 0
v -27 -16 0
v -30 -17 0
v -31 -17 0
v -31 -16 0
v -30 -16 0
v -9 -18 0
v -10 -18 0
v -10 -17 0
v -9 -17 0
v -12 -18 0
v -13 -18 0
v -13 -17 0
v -12 -17 0
v -18 -18 0
v -19 -18 0
v -19 -17 0
v -18 -17 0
v -19 -18 0
v -20 -18 0
v -20 -17 0
v -19 -17 0
v -24 -18 0
v -25 -18 0
v -25 -17 0
v -24 -17 0
v -27 -18 0
v -28 -18 0
v -28 -17 0
v -27 -17 0
v -9 -19 0
v -10 -19 0
v -10 -18 0
v -9 -18 0
v -11 -19 0
v -12 -19 0
v -12 -18 0
v -11 -18 0
v -18 -19 0
v -19 -19 0
v -19 -18 0
v -18 -18 0
v -21 -19 0
v -22 -19 0
v -22 -18 0
v -21 -18 0
v -24 -19 0
v -25 -19 0
v -25 -18 0
v -24 -18 0
v -27 -19 0
v -28 -19 0
v -28 -18 0
v -27 -18 0
v -10 -20 0
v -11 -20 0
v -11 -19 0
v -10 -19 0
v -11 -20 0
v -12 -20 0
v -12 -19 0
v -11 -19 0
v -18 -20 0
v -19 -20 0
v -19 -19 0
v -18 -19 0
v -19 -20 0
v -20 -20 0
v -20 -19 0
v -19 -19 0
v -27 -20 0
v -28 -20 0
v -28 -19 0
v -27 -19 0
v -20 -21 0
v -21 -21 0
v -21 -20 0
v -20 -20 0
v -21 -21 0
v -22 -21 0
v -22 -20 0
v -21 -20 0
v -27 -21 0
v -28 -21 0
v -28 -20 0
v -27 -20 0
v -22 -22 0
v -23 -22 0
v -23 -21 0
v -22 -21 0
v -23 -22 0
v -24 -22 0
v -24 -21 0
v -23 -21 0
v -24 -22 0
v -25 -22 0
v -25 -21 0
v -24 -21 0
v -25 -22 0
v -26 -22 0
v -26 -21 0
v -25 -21 0
v -26 -22 0
v -27 -22 0
v -27 -21 0
v -26 -21 0
v -29 -24 0
v -30 -24 0
v -30 -23 0
v -29 -23 0
v -30 -24 0
v -31 -24 0
v -31 -23 0
v -30 -23 0
v -28 -25 0
v -29 -25 0
v -29 -24 0
v -28 -24 0
v -30 -25 0
v -31 -25 0
v -31 -24 0
v -30 -24 0
v -28 -26 0
v -29 -26 0
v -29 -25 0
v -28 -25 0
v -27 -27 0
v -28 -27 0
v -28 -26 0
v -27 -26 0
v -30 -27 0
v -31 -27 0
v -31 -26 0
v -30 -26 0
v -31 -27 0
v -32 -27 0
v -32 -26 0
v -31 -26 0
v -26 -28 0
v -27 -28 0
v -27 -27 0
v -26 -27 0
v -29 -28 0
v -30 -28 0
v -30 -27 0
v -29 -27 0
v -26 -29 0
v -27 -29 0
v -27 -28 0
v -26 -28 0
v -27 -29 0
v -28 -29 0
v -28 -28 0
v -27 -28 0
v -28 -29 0
v -29 -29 0
v -29 -28 0
v -28 -28 0
v -29 -29 0
v -30 -29 0
v -30 -28 0
v -29 -28 0

# Texture cooridinates (Count = 20)
vt 0.08445533 0.8752294
vt 0.1040392 0.8752294
vt 0.1040392 0.9045871
vt 0.08445533 0.9045871
vt 0.1052632 0.8752294
vt 0.124847 0.8752294
vt 0.124847 0.9045871
vt 0.1052632 0.9045871
vt 0.126071 0.8752294
vt 0.1456548 0.8752294
vt 0.1456548 0.9045871
vt 0.126071 0.9045871
vt 0.06364749 0.8752294
vt 0.08323134 0.8752294
vt 0.08323134 0.9045871
vt 0.06364749 0.9045871
vt 0.1468788 0.8752294
vt 0.1664627 0.8752294
vt 0.1664627 0.9045871
vt 0.1468788 0.9045871

# Normal
vn 0 0 -1

# Mesh description
g lernaIsland_3_mesh_0003

# Faces
f 1/1/1 2/2/1 3/3/1 4/4/1
f 5/5/1 6/6/1 7/7/1 8/8/1
f 9/1/1 10/2/1 11/3/1 12/4/1
f 13/9/1 14/10/1 15/11/1 16/12/1
f 17/5/1 18/6/1 19/7/1 20/8/1
f 21/1/1 22/2/1 23/3/1 24/4/1
f 25/1/1 26/2/1 27/3/1 28/4/1
f 29/1/1 30/2/1 31/3/1 32/4/1
f 33/13/1 34/14/1 35/15/1 36/16/1
f 37/13/1 38/14/1 39/15/1 40/16/1
f 41/1/1 42/2/1 43/3/1 44/4/1
f 45/5/1 46/6/1 47/7/1 48/8/1
f 49/1/1 50/2/1 51/3/1 52/4/1
f 53/1/1 54/2/1 55/3/1 56/4/1
f 57/5/1 58/6/1 59/7/1 60/8/1
f 61/9/1 62/10/1 63/11/1 64/12/1
f 65/1/1 66/2/1 67/3/1 68/4/1
f 69/5/1 70/6/1 71/7/1 72/8/1
f 73/1/1 74/2/1 75/3/1 76/4/1
f 77/5/1 78/6/1 79/7/1 80/8/1
f 81/1/1 82/2/1 83/3/1 84/4/1
f 85/13/1 86/14/1 87/15/1 88/16/1
f 89/13/1 90/14/1 91/15/1 92/16/1
f 93/17/1 94/18/1 95/19/1 96/20/1
f 97/9/1 98/10/1 99/11/1 100/12/1
f 101/17/1 102/18/1 103/19/1 104/20/1
f 105/9/1 106/10/1 107/11/1 108/12/1
f 109/17/1 110/18/1 111/19/1 112/20/1
f 113/1/1 114/2/1 115/3/1 116/4/1
f 117/1/1 118/2/1 119/3/1 120/4/1
f 121/17/1 122/18/1 123/19/1 124/20/1
f 125/1/1 126/2/1 127/3/1 128/4/1
f 129/1/1 130/2/1 131/3/1 132/4/1
f 133/5/1 134/6/1 135/7/1 136/8/1
f 137/1/1 138/2/1 139/3/1 140/4/1
f 141/5/1 142/6/1 143/7/1 144/8/1
f 145/1/1 146/2/1 147/3/1 148/4/1
f 149/1/1 150/2/1 151/3/1 152/4/1
f 153/5/1 154/6/1 155/7/1 156/8/1
f 157/1/1 158/2/1 159/3/1 160/4/1
f 161/5/1 162/6/1 163/7/1 164/8/1
f 165/1/1 166/2/1 167/3/1 168/4/1
f 169/1/1 170/2/1 171/3/1 172/4/1
f 173/5/1 174/6/1 175/7/1 176/8/1
f 177/1/1 178/2/1 179/3/1 180/4/1
f 181/5/1 182/6/1 183/7/1 184/8/1
f 185/1/1 186/2/1 187/3/1 188/4/1
f 189/1/1 190/2/1 191/3/1 192/4/1
f 193/13/1 194/14/1 195/15/1 196/16/1
f 197/13/1 198/14/1 199/15/1 200/16/1
f 201/13/1 202/14/1 203/15/1 204/16/1
f 205/13/1 206/14/1 207/15/1 208/16/1
f 209/17/1 210/18/1 211/19/1 212/20/1
f 213/1/1 214/2/1 215/3/1 216/4/1
f 217/5/1 218/6/1 219/7/1 220/8/1
f 221/9/1 222/10/1 223/11/1 224/12/1
f 225/1/1 226/2/1 227/3/1 228/4/1
f 229/17/1 230/18/1 231/19/1 232/20/1
f 233/1/1 234/2/1 235/3/1 236/4/1
f 237/5/1 238/6/1 239/7/1 240/8/1
f 241/1/1 242/2/1 243/3/1 244/4/1
f 245/1/1 246/2/1 247/3/1 248/4/1
f 249/13/1 250/14/1 251/15/1 252/16/1
f 253/17/1 254/18/1 255/19/1 256/20/1
f 257/9/1 258/10/1 259/11/1 260/12/1
f 261/5/1 262/6/1 263/7/1 264/8/1
f 265/9/1 266/10/1 267/11/1 268/12/1
f 269/1/1 270/2/1 271/3/1 272/4/1
f 273/17/1 274/18/1 275/19/1 276/20/1
f 277/1/1 278/2/1 279/3/1 280/4/1
f 281/5/1 282/6/1 283/7/1 284/8/1
f 285/1/1 286/2/1 287/3/1 288/4/1
f 289/5/1 290/6/1 291/7/1 292/8/1
f 293/9/1 294/10/1 295/11/1 296/12/1
f 297/5/1 298/6/1 299/7/1 300/8/1
f 301/1/1 302/2/1 303/3/1 304/4/1
f 305/5/1 306/6/1 307/7/1 308/8/1
f 309/1/1 310/2/1 311/3/1 312/4/1
f 313/5/1 314/6/1 315/7/1 316/8/1
f 317/9/1 318/10/1 319/11/1 320/12/1
f 321/17/1 322/18/1 323/19/1 324/20/1
f 325/9/1 326/10/1 327/11/1 328/12/1
f 329/13/1 330/14/1 331/15/1 332/16/1
f 333/5/1 334/6/1 335/7/1 336/8/1
f 337/9/1 338/10/1 339/11/1 340/12/1
f 341/13/1 342/14/1 343/15/1 344/16/1
f 345/17/1 346/18/1 347/19/1 348/20/1
f 349/9/1 350/10/1 351/11/1 352/12/1
f 353/13/1 354/14/1 355/15/1 356/16/1
f 357/13/1 358/14/1 359/15/1 360/16/1
f 361/13/1 362/14/1 363/15/1 364/16/1
f 365/17/1 366/18/1 367/19/1 368/20/1
f 369/1/1 370/2/1 371/3/1 372/4/1
f 373/5/1 374/6/1 375/7/1 376/8/1
f 377/1/1 378/2/1 379/3/1 380/4/1
f 381/5/1 382/6/1 383/7/1 384/8/1
f 385/1/1 386/2/1 387/3/1 388/4/1
f 389/1/1 390/2/1 391/3/1 392/4/1
f 393/13/1 394/14/1 395/15/1 396/16/1
f 397/13/1 398/14/1 399/15/1 400/16/1
f 401/1/1 402/2/1 403/3/1 404/4/1
f 405/5/1 406/6/1 407/7/1 408/8/1
f 409/9/1 410/10/1 411/11/1 412/12/1
f 413/13/1 414/14/1 415/15/1 416/16/1
f 417/13/1 418/14/1 419/15/1 420/16/1
f 421/17/1 422/18/1 423/19/1 424/20/1

