# Tiled2Unity generated file. Do not modify by hand.
# Wavefront file for 'lernaIsland_1_mesh_0003.obj'

# Vertices (Count = 564)
v -1 -1 0
v -2 -1 0
v -2 0 0
v -1 0 0
v -7 -1 0
v -8 -1 0
v -8 0 0
v -7 0 0
v -11 -1 0
v -12 -1 0
v -12 0 0
v -11 0 0
v -18 -1 0
v -19 -1 0
v -19 0 0
v -18 0 0
v -2 -2 0
v -3 -2 0
v -3 -1 0
v -2 -1 0
v -5 -2 0
v -6 -2 0
v -6 -1 0
v -5 -1 0
v -6 -2 0
v -7 -2 0
v -7 -1 0
v -6 -1 0
v -7 -2 0
v -8 -2 0
v -8 -1 0
v -7 -1 0
v -11 -2 0
v -12 -2 0
v -12 -1 0
v -11 -1 0
v -18 -2 0
v -19 -2 0
v -19 -1 0
v -18 -1 0
v -24 -2 0
v -25 -2 0
v -25 -1 0
v -24 -1 0
v -25 -2 0
v -26 -2 0
v -26 -1 0
v -25 -1 0
v -26 -2 0
v -27 -2 0
v -27 -1 0
v -26 -1 0
v -4 -3 0
v -5 -3 0
v -5 -2 0
v -4 -2 0
v -7 -3 0
v -8 -3 0
v -8 -2 0
v -7 -2 0
v -11 -3 0
v -12 -3 0
v -12 -2 0
v -11 -2 0
v -18 -3 0
v -19 -3 0
v -19 -2 0
v -18 -2 0
v -23 -3 0
v -24 -3 0
v -24 -2 0
v -23 -2 0
v -27 -3 0
v -28 -3 0
v -28 -2 0
v -27 -2 0
v -28 -3 0
v -29 -3 0
v -29 -2 0
v -28 -2 0
v 0 -4 0
v -1 -4 0
v -1 -3 0
v 0 -3 0
v -11 -4 0
v -12 -4 0
v -12 -3 0
v -11 -3 0
v -16 -4 0
v -17 -4 0
v -17 -3 0
v -16 -3 0
v -17 -4 0
v -18 -4 0
v -18 -3 0
v -17 -3 0
v -19 -4 0
v -20 -4 0
v -20 -3 0
v -19 -3 0
v -24 -4 0
v -25 -4 0
v -25 -3 0
v -24 -3 0
v -29 -4 0
v -30 -4 0
v -30 -3 0
v -29 -3 0
v -1 -5 0
v -2 -5 0
v -2 -4 0
v -1 -4 0
v -2 -5 0
v -3 -5 0
v -3 -4 0
v -2 -4 0
v -9 -5 0
v -10 -5 0
v -10 -4 0
v -9 -4 0
v -10 -5 0
v -11 -5 0
v -11 -4 0
v -10 -4 0
v -20 -5 0
v -21 -5 0
v -21 -4 0
v -20 -4 0
v -25 -5 0
v -26 -5 0
v -26 -4 0
v -25 -4 0
v -26 -5 0
v -27 -5 0
v -27 -4 0
v -26 -4 0
v -27 -5 0
v -28 -5 0
v -28 -4 0
v -27 -4 0
v -30 -5 0
v -31 -5 0
v -31 -4 0
v -30 -4 0
v -31 -5 0
v -32 -5 0
v -32 -4 0
v -31 -4 0
v -3 -6 0
v -4 -6 0
v -4 -5 0
v -3 -5 0
v -8 -6 0
v -9 -6 0
v -9 -5 0
v -8 -5 0
v -9 -6 0
v -10 -6 0
v -10 -5 0
v -9 -5 0
v -10 -6 0
v -11 -6 0
v -11 -5 0
v -10 -5 0
v -20 -6 0
v -21 -6 0
v -21 -5 0
v -20 -5 0
v -25 -6 0
v -26 -6 0
v -26 -5 0
v -25 -5 0
v -3 -7 0
v -4 -7 0
v -4 -6 0
v -3 -6 0
v -8 -7 0
v -9 -7 0
v -9 -6 0
v -8 -6 0
v -19 -7 0
v -20 -7 0
v -20 -6 0
v -19 -6 0
v -27 -7 0
v -28 -7 0
v -28 -6 0
v -27 -6 0
v -3 -8 0
v -4 -8 0
v -4 -7 0
v -3 -7 0
v -9 -8 0
v -10 -8 0
v -10 -7 0
v -9 -7 0
v -14 -8 0
v -15 -8 0
v -15 -7 0
v -14 -7 0
v -15 -8 0
v -16 -8 0
v -16 -7 0
v -15 -7 0
v -18 -8 0
v -19 -8 0
v -19 -7 0
v -18 -7 0
v -28 -8 0
v -29 -8 0
v -29 -7 0
v -28 -7 0
v -3 -9 0
v -4 -9 0
v -4 -8 0
v -3 -8 0
v -10 -9 0
v -11 -9 0
v -11 -8 0
v -10 -8 0
v -17 -9 0
v -18 -9 0
v -18 -8 0
v -17 -8 0
v -24 -9 0
v -25 -9 0
v -25 -8 0
v -24 -8 0
v -25 -9 0
v -26 -9 0
v -26 -8 0
v -25 -8 0
v -28 -9 0
v -29 -9 0
v -29 -8 0
v -28 -8 0
v -3 -10 0
v -4 -10 0
v -4 -9 0
v -3 -9 0
v -4 -10 0
v -5 -10 0
v -5 -9 0
v -4 -9 0
v -11 -10 0
v -12 -10 0
v -12 -9 0
v -11 -9 0
v -16 -10 0
v -17 -10 0
v -17 -9 0
v -16 -9 0
v -23 -10 0
v -24 -10 0
v -24 -9 0
v -23 -9 0
v -26 -10 0
v -27 -10 0
v -27 -9 0
v -26 -9 0
v -27 -10 0
v -28 -10 0
v -28 -9 0
v -27 -9 0
v -28 -10 0
v -29 -10 0
v -29 -9 0
v -28 -9 0
v -3 -11 0
v -4 -11 0
v -4 -10 0
v -3 -10 0
v -4 -11 0
v -5 -11 0
v -5 -10 0
v -4 -10 0
v -5 -11 0
v -6 -11 0
v -6 -10 0
v -5 -10 0
v -11 -11 0
v -12 -11 0
v -12 -10 0
v -11 -10 0
v -16 -11 0
v -17 -11 0
v -17 -10 0
v -16 -10 0
v -22 -11 0
v -23 -11 0
v -23 -10 0
v -22 -10 0
v -5 -12 0
v -6 -12 0
v -6 -11 0
v -5 -11 0
v -11 -12 0
v -12 -12 0
v -12 -11 0
v -11 -11 0
v -16 -12 0
v -17 -12 0
v -17 -11 0
v -16 -11 0
v -22 -12 0
v -23 -12 0
v -23 -11 0
v -22 -11 0
v -24 -12 0
v -25 -12 0
v -25 -11 0
v -24 -11 0
v -25 -12 0
v -26 -12 0
v -26 -11 0
v -25 -11 0
v -5 -13 0
v -6 -13 0
v -6 -12 0
v -5 -12 0
v -11 -13 0
v -12 -13 0
v -12 -12 0
v -11 -12 0
v -16 -13 0
v -17 -13 0
v -17 -12 0
v -16 -12 0
v -21 -13 0
v -22 -13 0
v -22 -12 0
v -21 -12 0
v -5 -14 0
v -6 -14 0
v -6 -13 0
v -5 -13 0
v -10 -14 0
v -11 -14 0
v -11 -13 0
v -10 -13 0
v -17 -14 0
v -18 -14 0
v -18 -13 0
v -17 -13 0
v -20 -14 0
v -21 -14 0
v -21 -13 0
v -20 -13 0
v -6 -15 0
v -7 -15 0
v -7 -14 0
v -6 -14 0
v -9 -15 0
v -10 -15 0
v -10 -14 0
v -9 -14 0
v -18 -15 0
v -19 -15 0
v -19 -14 0
v -18 -14 0
v -19 -15 0
v -20 -15 0
v -20 -14 0
v -19 -14 0
v -7 -16 0
v -8 -16 0
v -8 -15 0
v -7 -15 0
v -8 -16 0
v -9 -16 0
v -9 -15 0
v -8 -15 0
v -9 -16 0
v -10 -16 0
v -10 -15 0
v -9 -15 0
v -11 -17 0
v -12 -17 0
v -12 -16 0
v -11 -16 0
v -12 -17 0
v -13 -17 0
v -13 -16 0
v -12 -16 0
v -5 -18 0
v -6 -18 0
v -6 -17 0
v -5 -17 0
v -6 -18 0
v -7 -18 0
v -7 -17 0
v -6 -17 0
v -20 -19 0
v -21 -19 0
v -21 -18 0
v -20 -18 0
v -21 -19 0
v -22 -19 0
v -22 -18 0
v -21 -18 0
v -15 -20 0
v -16 -20 0
v -16 -19 0
v -15 -19 0
v -16 -20 0
v -17 -20 0
v -17 -19 0
v -16 -19 0
v -15 -21 0
v -16 -21 0
v -16 -20 0
v -15 -20 0
v -16 -21 0
v -17 -21 0
v -17 -20 0
v -16 -20 0
v -15 -22 0
v -16 -22 0
v -16 -21 0
v -15 -21 0
v -16 -22 0
v -17 -22 0
v -17 -21 0
v -16 -21 0
v -15 -23 0
v -16 -23 0
v -16 -22 0
v -15 -22 0
v -16 -23 0
v -17 -23 0
v -17 -22 0
v -16 -22 0
v -15 -24 0
v -16 -24 0
v -16 -23 0
v -15 -23 0
v -16 -24 0
v -17 -24 0
v -17 -23 0
v -16 -23 0
v -15 -25 0
v -16 -25 0
v -16 -24 0
v -15 -24 0
v -16 -25 0
v -17 -25 0
v -17 -24 0
v -16 -24 0
v -9 -26 0
v -10 -26 0
v -10 -25 0
v -9 -25 0
v -10 -26 0
v -11 -26 0
v -11 -25 0
v -10 -25 0
v -11 -26 0
v -12 -26 0
v -12 -25 0
v -11 -25 0
v -12 -26 0
v -13 -26 0
v -13 -25 0
v -12 -25 0
v -13 -26 0
v -14 -26 0
v -14 -25 0
v -13 -25 0
v -14 -26 0
v -15 -26 0
v -15 -25 0
v -14 -25 0
v -15 -26 0
v -16 -26 0
v -16 -25 0
v -15 -25 0
v -16 -26 0
v -17 -26 0
v -17 -25 0
v -16 -25 0
v -17 -26 0
v -18 -26 0
v -18 -25 0
v -17 -25 0
v -18 -26 0
v -19 -26 0
v -19 -25 0
v -18 -25 0
v -9 -27 0
v -10 -27 0
v -10 -26 0
v -9 -26 0
v -10 -27 0
v -11 -27 0
v -11 -26 0
v -10 -26 0
v -11 -27 0
v -12 -27 0
v -12 -26 0
v -11 -26 0
v -12 -27 0
v -13 -27 0
v -13 -26 0
v -12 -26 0
v -13 -27 0
v -14 -27 0
v -14 -26 0
v -13 -26 0
v -14 -27 0
v -15 -27 0
v -15 -26 0
v -14 -26 0
v -15 -27 0
v -16 -27 0
v -16 -26 0
v -15 -26 0
v -16 -27 0
v -17 -27 0
v -17 -26 0
v -16 -26 0
v -17 -27 0
v -18 -27 0
v -18 -26 0
v -17 -26 0
v -18 -27 0
v -19 -27 0
v -19 -26 0
v -18 -26 0
v -9 -28 0
v -10 -28 0
v -10 -27 0
v -9 -27 0
v -13 -28 0
v -14 -28 0
v -14 -27 0
v -13 -27 0
v -15 -28 0
v -16 -28 0
v -16 -27 0
v -15 -27 0
v -16 -28 0
v -17 -28 0
v -17 -27 0
v -16 -27 0
v -18 -28 0
v -19 -28 0
v -19 -27 0
v -18 -27 0
v -15 -29 0
v -16 -29 0
v -16 -28 0
v -15 -28 0
v -16 -29 0
v -17 -29 0
v -17 -28 0
v -16 -28 0
v -15 -30 0
v -16 -30 0
v -16 -29 0
v -15 -29 0
v -16 -30 0
v -17 -30 0
v -17 -29 0
v -16 -29 0

# Texture cooridinates (Count = 44)
vt 0.1052632 0.8752294
vt 0.124847 0.8752294
vt 0.124847 0.9045871
vt 0.1052632 0.9045871
vt 0.08445533 0.8752294
vt 0.1040392 0.8752294
vt 0.1040392 0.9045871
vt 0.08445533 0.9045871
vt 0.625459 0.8440367
vt 0.6450428 0.8440367
vt 0.6450428 0.8733945
vt 0.625459 0.8733945
vt 0.6462668 0.8440367
vt 0.6658507 0.8440367
vt 0.6658507 0.8733945
vt 0.6462668 0.8733945
vt 0.06364749 0.8752294
vt 0.08323134 0.8752294
vt 0.08323134 0.9045871
vt 0.06364749 0.9045871
vt 0.126071 0.8752294
vt 0.1456548 0.8752294
vt 0.1456548 0.9045871
vt 0.126071 0.9045871
vt 0.1468788 0.8752294
vt 0.1664627 0.8752294
vt 0.1664627 0.9045871
vt 0.1468788 0.9045871
vt 0.5201958 0.7192661
vt 0.5201958 0.7486238
vt 0.500612 0.7486238
vt 0.500612 0.7192661
vt 0.5214198 0.7192661
vt 0.5214198 0.7486238
vt 0.5410036 0.7486238
vt 0.5410036 0.7192661
vt 0.0624235 0.6880734
vt 0.04283966 0.6880734
vt 0.04283966 0.7174312
vt 0.0624235 0.7174312
vt 0.02203182 0.6880734
vt 0.04161567 0.6880734
vt 0.04161567 0.7174312
vt 0.02203182 0.7174312

# Normal
vn 0 0 -1

# Mesh description
g lernaIsland_1_mesh_0003

# Faces
f 1/1/1 2/2/1 3/3/1 4/4/1
f 5/5/1 6/6/1 7/7/1 8/8/1
f 9/1/1 10/2/1 11/3/1 12/4/1
f 13/5/1 14/6/1 15/7/1 16/8/1
f 17/1/1 18/2/1 19/3/1 20/4/1
f 21/9/1 22/10/1 23/11/1 24/12/1
f 25/13/1 26/14/1 27/15/1 28/16/1
f 29/5/1 30/6/1 31/7/1 32/8/1
f 33/1/1 34/2/1 35/3/1 36/4/1
f 37/5/1 38/6/1 39/7/1 40/8/1
f 41/17/1 42/18/1 43/19/1 44/20/1
f 45/17/1 46/18/1 47/19/1 48/20/1
f 49/17/1 50/18/1 51/19/1 52/20/1
f 53/1/1 54/2/1 55/3/1 56/4/1
f 57/5/1 58/6/1 59/7/1 60/8/1
f 61/1/1 62/2/1 63/3/1 64/4/1
f 65/5/1 66/6/1 67/7/1 68/8/1
f 69/1/1 70/2/1 71/3/1 72/4/1
f 73/21/1 74/22/1 75/23/1 76/24/1
f 77/17/1 78/18/1 79/19/1 80/20/1
f 81/17/1 82/18/1 83/19/1 84/20/1
f 85/25/1 86/26/1 87/27/1 88/28/1
f 89/9/1 90/10/1 91/11/1 92/12/1
f 93/13/1 94/14/1 95/15/1 96/16/1
f 97/21/1 98/22/1 99/23/1 100/24/1
f 101/1/1 102/2/1 103/3/1 104/4/1
f 105/21/1 106/22/1 107/23/1 108/24/1
f 109/21/1 110/22/1 111/23/1 112/24/1
f 113/17/1 114/18/1 115/19/1 116/20/1
f 117/17/1 118/18/1 119/19/1 120/20/1
f 121/25/1 122/26/1 123/27/1 124/28/1
f 125/5/1 126/6/1 127/7/1 128/8/1
f 129/1/1 130/2/1 131/3/1 132/4/1
f 133/9/1 134/10/1 135/11/1 136/12/1
f 137/13/1 138/14/1 139/15/1 140/16/1
f 141/21/1 142/22/1 143/23/1 144/24/1
f 145/17/1 146/18/1 147/19/1 148/20/1
f 149/5/1 150/6/1 151/7/1 152/8/1
f 153/1/1 154/2/1 155/3/1 156/4/1
f 157/9/1 158/10/1 159/11/1 160/12/1
f 161/13/1 162/14/1 163/15/1 164/16/1
f 165/5/1 166/6/1 167/7/1 168/8/1
f 169/1/1 170/2/1 171/3/1 172/4/1
f 173/5/1 174/6/1 175/7/1 176/8/1
f 177/1/1 178/2/1 179/3/1 180/4/1
f 181/5/1 182/6/1 183/7/1 184/8/1
f 185/1/1 186/2/1 187/3/1 188/4/1
f 189/5/1 190/6/1 191/7/1 192/8/1
f 193/1/1 194/2/1 195/3/1 196/4/1
f 197/9/1 198/10/1 199/11/1 200/12/1
f 201/13/1 202/14/1 203/15/1 204/16/1
f 205/5/1 206/6/1 207/7/1 208/8/1
f 209/1/1 210/2/1 211/3/1 212/4/1
f 213/5/1 214/6/1 215/7/1 216/8/1
f 217/1/1 218/2/1 219/3/1 220/4/1
f 221/5/1 222/6/1 223/7/1 224/8/1
f 225/17/1 226/18/1 227/19/1 228/20/1
f 229/17/1 230/18/1 231/19/1 232/20/1
f 233/1/1 234/2/1 235/3/1 236/4/1
f 237/21/1 238/22/1 239/23/1 240/24/1
f 241/17/1 242/18/1 243/19/1 244/20/1
f 245/1/1 246/2/1 247/3/1 248/4/1
f 249/5/1 250/6/1 251/7/1 252/8/1
f 253/25/1 254/26/1 255/27/1 256/28/1
f 257/21/1 258/22/1 259/23/1 260/24/1
f 261/17/1 262/18/1 263/19/1 264/20/1
f 265/25/1 266/26/1 267/27/1 268/28/1
f 269/9/1 270/10/1 271/11/1 272/12/1
f 273/13/1 274/14/1 275/15/1 276/16/1
f 277/5/1 278/6/1 279/7/1 280/8/1
f 281/1/1 282/2/1 283/3/1 284/4/1
f 285/5/1 286/6/1 287/7/1 288/8/1
f 289/1/1 290/2/1 291/3/1 292/4/1
f 293/5/1 294/6/1 295/7/1 296/8/1
f 297/1/1 298/2/1 299/3/1 300/4/1
f 301/5/1 302/6/1 303/7/1 304/8/1
f 305/25/1 306/26/1 307/27/1 308/28/1
f 309/9/1 310/10/1 311/11/1 312/12/1
f 313/13/1 314/14/1 315/15/1 316/16/1
f 317/5/1 318/6/1 319/7/1 320/8/1
f 321/25/1 322/26/1 323/27/1 324/28/1
f 325/21/1 326/22/1 327/23/1 328/24/1
f 329/25/1 330/26/1 331/27/1 332/28/1
f 333/21/1 334/22/1 335/23/1 336/24/1
f 337/25/1 338/26/1 339/27/1 340/28/1
f 341/21/1 342/22/1 343/23/1 344/24/1
f 345/25/1 346/26/1 347/27/1 348/28/1
f 349/21/1 350/22/1 351/23/1 352/24/1
f 353/1/1 354/2/1 355/3/1 356/4/1
f 357/21/1 358/22/1 359/23/1 360/24/1
f 361/25/1 362/26/1 363/27/1 364/28/1
f 365/21/1 366/22/1 367/23/1 368/24/1
f 369/17/1 370/18/1 371/19/1 372/20/1
f 373/25/1 374/26/1 375/27/1 376/28/1
f 377/9/1 378/10/1 379/11/1 380/12/1
f 381/13/1 382/14/1 383/15/1 384/16/1
f 385/9/1 386/10/1 387/11/1 388/12/1
f 389/13/1 390/14/1 391/15/1 392/16/1
f 393/9/1 394/10/1 395/11/1 396/12/1
f 397/13/1 398/14/1 399/15/1 400/16/1
f 401/29/1 402/30/1 403/31/1 404/32/1
f 405/30/1 406/29/1 407/32/1 408/31/1
f 409/33/1 410/34/1 411/35/1 412/36/1
f 413/34/1 414/33/1 415/36/1 416/35/1
f 417/33/1 418/34/1 419/35/1 420/36/1
f 421/34/1 422/33/1 423/36/1 424/35/1
f 425/33/1 426/34/1 427/35/1 428/36/1
f 429/34/1 430/33/1 431/36/1 432/35/1
f 433/33/1 434/34/1 435/35/1 436/36/1
f 437/34/1 438/33/1 439/36/1 440/35/1
f 441/33/1 442/34/1 443/35/1 444/36/1
f 445/34/1 446/33/1 447/36/1 448/35/1
f 449/31/1 450/30/1 451/29/1 452/32/1
f 453/34/1 454/35/1 455/36/1 456/33/1
f 457/34/1 458/35/1 459/36/1 460/33/1
f 461/34/1 462/35/1 463/36/1 464/33/1
f 465/34/1 466/35/1 467/36/1 468/33/1
f 469/34/1 470/35/1 471/36/1 472/33/1
f 473/34/1 474/35/1 475/36/1 476/33/1
f 477/34/1 478/35/1 479/36/1 480/33/1
f 481/34/1 482/35/1 483/36/1 484/33/1
f 485/30/1 486/31/1 487/32/1 488/29/1
f 489/32/1 490/29/1 491/30/1 492/31/1
f 493/33/1 494/36/1 495/35/1 496/34/1
f 497/33/1 498/36/1 499/35/1 500/34/1
f 501/33/1 502/36/1 503/35/1 504/34/1
f 505/33/1 506/36/1 507/35/1 508/34/1
f 509/33/1 510/36/1 511/35/1 512/34/1
f 513/33/1 514/36/1 515/35/1 516/34/1
f 517/33/1 518/36/1 519/35/1 520/34/1
f 521/33/1 522/36/1 523/35/1 524/34/1
f 525/29/1 526/32/1 527/31/1 528/30/1
f 529/37/1 530/38/1 531/39/1 532/40/1
f 533/37/1 534/38/1 535/39/1 536/40/1
f 537/33/1 538/34/1 539/35/1 540/36/1
f 541/34/1 542/33/1 543/36/1 544/35/1
f 545/38/1 546/37/1 547/40/1 548/39/1
f 549/32/1 550/31/1 551/30/1 552/29/1
f 553/31/1 554/32/1 555/29/1 556/30/1
f 557/41/1 558/42/1 559/43/1 560/44/1
f 561/38/1 562/37/1 563/40/1 564/39/1

