# Tiled2Unity generated file. Do not modify by hand.
# Wavefront file for 'lernaIsland_1_mesh_0005.obj'

# Vertices (Count = 152)
v -5 -1 0
v -6 -1 0
v -6 0 0
v -5 0 0
v -6 -1 0
v -7 -1 0
v -7 0 0
v -6 0 0
v -16 -2 0
v -17 -2 0
v -17 -1 0
v -16 -1 0
v -17 -2 0
v -18 -2 0
v -18 -1 0
v -17 -1 0
v -16 -3 0
v -17 -3 0
v -17 -2 0
v -16 -2 0
v -17 -3 0
v -18 -3 0
v -18 -2 0
v -17 -2 0
v -26 -3 0
v -27 -3 0
v -27 -2 0
v -26 -2 0
v -27 -3 0
v -28 -3 0
v -28 -2 0
v -27 -2 0
v -9 -4 0
v -10 -4 0
v -10 -3 0
v -9 -3 0
v -10 -4 0
v -11 -4 0
v -11 -3 0
v -10 -3 0
v -26 -4 0
v -27 -4 0
v -27 -3 0
v -26 -3 0
v -27 -4 0
v -28 -4 0
v -28 -3 0
v -27 -3 0
v -9 -5 0
v -10 -5 0
v -10 -4 0
v -9 -4 0
v -10 -5 0
v -11 -5 0
v -11 -4 0
v -10 -4 0
v -14 -6 0
v -15 -6 0
v -15 -5 0
v -14 -5 0
v -15 -6 0
v -16 -6 0
v -16 -5 0
v -15 -5 0
v -14 -7 0
v -15 -7 0
v -15 -6 0
v -14 -6 0
v -15 -7 0
v -16 -7 0
v -16 -6 0
v -15 -6 0
v -3 -9 0
v -4 -9 0
v -4 -8 0
v -3 -8 0
v -4 -9 0
v -5 -9 0
v -5 -8 0
v -4 -8 0
v -3 -10 0
v -4 -10 0
v -4 -9 0
v -3 -9 0
v -4 -10 0
v -5 -10 0
v -5 -9 0
v -4 -9 0
v -24 -10 0
v -25 -10 0
v -25 -9 0
v -24 -9 0
v -25 -10 0
v -26 -10 0
v -26 -9 0
v -25 -9 0
v -24 -11 0
v -25 -11 0
v -25 -10 0
v -24 -10 0
v -25 -11 0
v -26 -11 0
v -26 -10 0
v -25 -10 0
v -11 -15 0
v -12 -15 0
v -12 -14 0
v -11 -14 0
v -12 -15 0
v -13 -15 0
v -13 -14 0
v -12 -14 0
v -5 -16 0
v -6 -16 0
v -6 -15 0
v -5 -15 0
v -6 -16 0
v -7 -16 0
v -7 -15 0
v -6 -15 0
v -11 -16 0
v -12 -16 0
v -12 -15 0
v -11 -15 0
v -12 -16 0
v -13 -16 0
v -13 -15 0
v -12 -15 0
v -5 -17 0
v -6 -17 0
v -6 -16 0
v -5 -16 0
v -6 -17 0
v -7 -17 0
v -7 -16 0
v -6 -16 0
v -20 -17 0
v -21 -17 0
v -21 -16 0
v -20 -16 0
v -21 -17 0
v -22 -17 0
v -22 -16 0
v -21 -16 0
v -20 -18 0
v -21 -18 0
v -21 -17 0
v -20 -17 0
v -21 -18 0
v -22 -18 0
v -22 -17 0
v -21 -17 0

# Texture cooridinates (Count = 16)
vt 0.5214198 0.8752294
vt 0.5410036 0.8752294
vt 0.5410036 0.9045871
vt 0.5214198 0.9045871
vt 0.5422277 0.8752294
vt 0.5618115 0.8752294
vt 0.5618115 0.9045871
vt 0.5422277 0.9045871
vt 0.875153 0.8440367
vt 0.8947368 0.8440367
vt 0.8947368 0.8733945
vt 0.875153 0.8733945
vt 0.8959608 0.8440367
vt 0.9155447 0.8440367
vt 0.9155447 0.8733945
vt 0.8959608 0.8733945

# Normal
vn 0 0 -1

# Mesh description
g lernaIsland_1_mesh_0005

# Faces
f 1/1/1 2/2/1 3/3/1 4/4/1
f 5/5/1 6/6/1 7/7/1 8/8/1
f 9/9/1 10/10/1 11/11/1 12/12/1
f 13/13/1 14/14/1 15/15/1 16/16/1
f 17/1/1 18/2/1 19/3/1 20/4/1
f 21/5/1 22/6/1 23/7/1 24/8/1
f 25/9/1 26/10/1 27/11/1 28/12/1
f 29/13/1 30/14/1 31/15/1 32/16/1
f 33/9/1 34/10/1 35/11/1 36/12/1
f 37/13/1 38/14/1 39/15/1 40/16/1
f 41/1/1 42/2/1 43/3/1 44/4/1
f 45/5/1 46/6/1 47/7/1 48/8/1
f 49/1/1 50/2/1 51/3/1 52/4/1
f 53/5/1 54/6/1 55/7/1 56/8/1
f 57/9/1 58/10/1 59/11/1 60/12/1
f 61/13/1 62/14/1 63/15/1 64/16/1
f 65/1/1 66/2/1 67/3/1 68/4/1
f 69/5/1 70/6/1 71/7/1 72/8/1
f 73/9/1 74/10/1 75/11/1 76/12/1
f 77/13/1 78/14/1 79/15/1 80/16/1
f 81/1/1 82/2/1 83/3/1 84/4/1
f 85/5/1 86/6/1 87/7/1 88/8/1
f 89/9/1 90/10/1 91/11/1 92/12/1
f 93/13/1 94/14/1 95/15/1 96/16/1
f 97/1/1 98/2/1 99/3/1 100/4/1
f 101/5/1 102/6/1 103/7/1 104/8/1
f 105/9/1 106/10/1 107/11/1 108/12/1
f 109/13/1 110/14/1 111/15/1 112/16/1
f 113/9/1 114/10/1 115/11/1 116/12/1
f 117/13/1 118/14/1 119/15/1 120/16/1
f 121/1/1 122/2/1 123/3/1 124/4/1
f 125/5/1 126/6/1 127/7/1 128/8/1
f 129/1/1 130/2/1 131/3/1 132/4/1
f 133/5/1 134/6/1 135/7/1 136/8/1
f 137/9/1 138/10/1 139/11/1 140/12/1
f 141/13/1 142/14/1 143/15/1 144/16/1
f 145/1/1 146/2/1 147/3/1 148/4/1
f 149/5/1 150/6/1 151/7/1 152/8/1

