# Tiled2Unity generated file. Do not modify by hand.
# Wavefront file for 'greenCrossroad_5_mesh_0001.obj'

# Vertices (Count = 560)
v 0 -1 0
v -1 -1 0
v -1 0 0
v 0 0 0
v -1 -1 0
v -2 -1 0
v -2 0 0
v -1 0 0
v -2 -1 0
v -3 -1 0
v -3 0 0
v -2 0 0
v -3 -1 0
v -4 -1 0
v -4 0 0
v -3 0 0
v -4 -1 0
v -5 -1 0
v -5 0 0
v -4 0 0
v -5 -1 0
v -6 -1 0
v -6 0 0
v -5 0 0
v -6 -1 0
v -7 -1 0
v -7 0 0
v -6 0 0
v -7 -1 0
v -8 -1 0
v -8 0 0
v -7 0 0
v -8 -1 0
v -9 -1 0
v -9 0 0
v -8 0 0
v -9 -1 0
v -10 -1 0
v -10 0 0
v -9 0 0
v -10 -1 0
v -11 -1 0
v -11 0 0
v -10 0 0
v -11 -1 0
v -12 -1 0
v -12 0 0
v -11 0 0
v -12 -1 0
v -13 -1 0
v -13 0 0
v -12 0 0
v -13 -1 0
v -14 -1 0
v -14 0 0
v -13 0 0
v -14 -1 0
v -15 -1 0
v -15 0 0
v -14 0 0
v -15 -1 0
v -16 -1 0
v -16 0 0
v -15 0 0
v -16 -1 0
v -17 -1 0
v -17 0 0
v -16 0 0
v -17 -1 0
v -18 -1 0
v -18 0 0
v -17 0 0
v -18 -1 0
v -19 -1 0
v -19 0 0
v -18 0 0
v -19 -1 0
v -20 -1 0
v -20 0 0
v -19 0 0
v -20 -1 0
v -21 -1 0
v -21 0 0
v -20 0 0
v -21 -1 0
v -22 -1 0
v -22 0 0
v -21 0 0
v -22 -1 0
v -23 -1 0
v -23 0 0
v -22 0 0
v -23 -1 0
v -24 -1 0
v -24 0 0
v -23 0 0
v -24 -1 0
v -25 -1 0
v -25 0 0
v -24 0 0
v -25 -1 0
v -26 -1 0
v -26 0 0
v -25 0 0
v -26 -1 0
v -27 -1 0
v -27 0 0
v -26 0 0
v -27 -1 0
v -28 -1 0
v -28 0 0
v -27 0 0
v -28 -1 0
v -29 -1 0
v -29 0 0
v -28 0 0
v -29 -1 0
v -30 -1 0
v -30 0 0
v -29 0 0
v -30 -1 0
v -31 -1 0
v -31 0 0
v -30 0 0
v -31 -1 0
v -32 -1 0
v -32 0 0
v -31 0 0
v 0 -2 0
v -1 -2 0
v -1 -1 0
v 0 -1 0
v -1 -2 0
v -2 -2 0
v -2 -1 0
v -1 -1 0
v -2 -2 0
v -3 -2 0
v -3 -1 0
v -2 -1 0
v -3 -2 0
v -4 -2 0
v -4 -1 0
v -3 -1 0
v -4 -2 0
v -5 -2 0
v -5 -1 0
v -4 -1 0
v -5 -2 0
v -6 -2 0
v -6 -1 0
v -5 -1 0
v -6 -2 0
v -7 -2 0
v -7 -1 0
v -6 -1 0
v -7 -2 0
v -8 -2 0
v -8 -1 0
v -7 -1 0
v -8 -2 0
v -9 -2 0
v -9 -1 0
v -8 -1 0
v -9 -2 0
v -10 -2 0
v -10 -1 0
v -9 -1 0
v -10 -2 0
v -11 -2 0
v -11 -1 0
v -10 -1 0
v -11 -2 0
v -12 -2 0
v -12 -1 0
v -11 -1 0
v -12 -2 0
v -13 -2 0
v -13 -1 0
v -12 -1 0
v -13 -2 0
v -14 -2 0
v -14 -1 0
v -13 -1 0
v -14 -2 0
v -15 -2 0
v -15 -1 0
v -14 -1 0
v -15 -2 0
v -16 -2 0
v -16 -1 0
v -15 -1 0
v -16 -2 0
v -17 -2 0
v -17 -1 0
v -16 -1 0
v -17 -2 0
v -18 -2 0
v -18 -1 0
v -17 -1 0
v -18 -2 0
v -19 -2 0
v -19 -1 0
v -18 -1 0
v -19 -2 0
v -20 -2 0
v -20 -1 0
v -19 -1 0
v -20 -2 0
v -21 -2 0
v -21 -1 0
v -20 -1 0
v -21 -2 0
v -22 -2 0
v -22 -1 0
v -21 -1 0
v -22 -2 0
v -23 -2 0
v -23 -1 0
v -22 -1 0
v -23 -2 0
v -24 -2 0
v -24 -1 0
v -23 -1 0
v -24 -2 0
v -25 -2 0
v -25 -1 0
v -24 -1 0
v -25 -2 0
v -26 -2 0
v -26 -1 0
v -25 -1 0
v -26 -2 0
v -27 -2 0
v -27 -1 0
v -26 -1 0
v -27 -2 0
v -28 -2 0
v -28 -1 0
v -27 -1 0
v -28 -2 0
v -29 -2 0
v -29 -1 0
v -28 -1 0
v -29 -2 0
v -30 -2 0
v -30 -1 0
v -29 -1 0
v -30 -2 0
v -31 -2 0
v -31 -1 0
v -30 -1 0
v -31 -2 0
v -32 -2 0
v -32 -1 0
v -31 -1 0
v 0 -3 0
v -1 -3 0
v -1 -2 0
v 0 -2 0
v -1 -3 0
v -2 -3 0
v -2 -2 0
v -1 -2 0
v -2 -3 0
v -3 -3 0
v -3 -2 0
v -2 -2 0
v -3 -3 0
v -4 -3 0
v -4 -2 0
v -3 -2 0
v -4 -3 0
v -5 -3 0
v -5 -2 0
v -4 -2 0
v -5 -3 0
v -6 -3 0
v -6 -2 0
v -5 -2 0
v -6 -3 0
v -7 -3 0
v -7 -2 0
v -6 -2 0
v -7 -3 0
v -8 -3 0
v -8 -2 0
v -7 -2 0
v -8 -3 0
v -9 -3 0
v -9 -2 0
v -8 -2 0
v -9 -3 0
v -10 -3 0
v -10 -2 0
v -9 -2 0
v -10 -3 0
v -11 -3 0
v -11 -2 0
v -10 -2 0
v -11 -3 0
v -12 -3 0
v -12 -2 0
v -11 -2 0
v -12 -3 0
v -13 -3 0
v -13 -2 0
v -12 -2 0
v -13 -3 0
v -14 -3 0
v -14 -2 0
v -13 -2 0
v -14 -3 0
v -15 -3 0
v -15 -2 0
v -14 -2 0
v -15 -3 0
v -16 -3 0
v -16 -2 0
v -15 -2 0
v -16 -3 0
v -17 -3 0
v -17 -2 0
v -16 -2 0
v -17 -3 0
v -18 -3 0
v -18 -2 0
v -17 -2 0
v -18 -3 0
v -19 -3 0
v -19 -2 0
v -18 -2 0
v -19 -3 0
v -20 -3 0
v -20 -2 0
v -19 -2 0
v -20 -3 0
v -21 -3 0
v -21 -2 0
v -20 -2 0
v -21 -3 0
v -22 -3 0
v -22 -2 0
v -21 -2 0
v -22 -3 0
v -23 -3 0
v -23 -2 0
v -22 -2 0
v -23 -3 0
v -24 -3 0
v -24 -2 0
v -23 -2 0
v -24 -3 0
v -25 -3 0
v -25 -2 0
v -24 -2 0
v -25 -3 0
v -26 -3 0
v -26 -2 0
v -25 -2 0
v -26 -3 0
v -27 -3 0
v -27 -2 0
v -26 -2 0
v -27 -3 0
v -28 -3 0
v -28 -2 0
v -27 -2 0
v -28 -3 0
v -29 -3 0
v -29 -2 0
v -28 -2 0
v -29 -3 0
v -30 -3 0
v -30 -2 0
v -29 -2 0
v -30 -3 0
v -31 -3 0
v -31 -2 0
v -30 -2 0
v -31 -3 0
v -32 -3 0
v -32 -2 0
v -31 -2 0
v -6 -4 0
v -7 -4 0
v -7 -3 0
v -6 -3 0
v -7 -4 0
v -8 -4 0
v -8 -3 0
v -7 -3 0
v -8 -4 0
v -9 -4 0
v -9 -3 0
v -8 -3 0
v -9 -4 0
v -10 -4 0
v -10 -3 0
v -9 -3 0
v -10 -4 0
v -11 -4 0
v -11 -3 0
v -10 -3 0
v -11 -4 0
v -12 -4 0
v -12 -3 0
v -11 -3 0
v -12 -4 0
v -13 -4 0
v -13 -3 0
v -12 -3 0
v -13 -4 0
v -14 -4 0
v -14 -3 0
v -13 -3 0
v -14 -4 0
v -15 -4 0
v -15 -3 0
v -14 -3 0
v -15 -4 0
v -16 -4 0
v -16 -3 0
v -15 -3 0
v -16 -4 0
v -17 -4 0
v -17 -3 0
v -16 -3 0
v -17 -4 0
v -18 -4 0
v -18 -3 0
v -17 -3 0
v -18 -4 0
v -19 -4 0
v -19 -3 0
v -18 -3 0
v -19 -4 0
v -20 -4 0
v -20 -3 0
v -19 -3 0
v -20 -4 0
v -21 -4 0
v -21 -3 0
v -20 -3 0
v -21 -4 0
v -22 -4 0
v -22 -3 0
v -21 -3 0
v -22 -4 0
v -23 -4 0
v -23 -3 0
v -22 -3 0
v -23 -4 0
v -24 -4 0
v -24 -3 0
v -23 -3 0
v -24 -4 0
v -25 -4 0
v -25 -3 0
v -24 -3 0
v -13 -5 0
v -14 -5 0
v -14 -4 0
v -13 -4 0
v -14 -5 0
v -15 -5 0
v -15 -4 0
v -14 -4 0
v -15 -5 0
v -16 -5 0
v -16 -4 0
v -15 -4 0
v -16 -5 0
v -17 -5 0
v -17 -4 0
v -16 -4 0
v -17 -5 0
v -18 -5 0
v -18 -4 0
v -17 -4 0
v -13 -6 0
v -14 -6 0
v -14 -5 0
v -13 -5 0
v -14 -6 0
v -15 -6 0
v -15 -5 0
v -14 -5 0
v -15 -6 0
v -16 -6 0
v -16 -5 0
v -15 -5 0
v -16 -6 0
v -17 -6 0
v -17 -5 0
v -16 -5 0
v -17 -6 0
v -18 -6 0
v -18 -5 0
v -17 -5 0
v -13 -7 0
v -14 -7 0
v -14 -6 0
v -13 -6 0
v -14 -7 0
v -15 -7 0
v -15 -6 0
v -14 -6 0
v -15 -7 0
v -16 -7 0
v -16 -6 0
v -15 -6 0
v -16 -7 0
v -17 -7 0
v -17 -6 0
v -16 -6 0
v -17 -7 0
v -18 -7 0
v -18 -6 0
v -17 -6 0
v -13 -8 0
v -14 -8 0
v -14 -7 0
v -13 -7 0
v -14 -8 0
v -15 -8 0
v -15 -7 0
v -14 -7 0
v -15 -8 0
v -16 -8 0
v -16 -7 0
v -15 -7 0
v -16 -8 0
v -17 -8 0
v -17 -7 0
v -16 -7 0
v -17 -8 0
v -18 -8 0
v -18 -7 0
v -17 -7 0
v -13 -9 0
v -14 -9 0
v -14 -8 0
v -13 -8 0
v -14 -9 0
v -15 -9 0
v -15 -8 0
v -14 -8 0
v -15 -9 0
v -16 -9 0
v -16 -8 0
v -15 -8 0
v -16 -9 0
v -17 -9 0
v -17 -8 0
v -16 -8 0
v -17 -9 0
v -18 -9 0
v -18 -8 0
v -17 -8 0

# Texture cooridinates (Count = 20)
vt 0.500612 0.9376147
vt 0.5201958 0.9376147
vt 0.5201958 0.9669725
vt 0.500612 0.9669725
vt 0.6878825 0.9376147
vt 0.7074664 0.9376147
vt 0.7074664 0.9669725
vt 0.6878825 0.9669725
vt 0.8127295 0.8440367
vt 0.8323134 0.8440367
vt 0.8323134 0.8733945
vt 0.8127295 0.8733945
vt 0.4589963 0.812844
vt 0.4785802 0.812844
vt 0.4785802 0.8422018
vt 0.4589963 0.8422018
vt 0.4798042 0.812844
vt 0.499388 0.812844
vt 0.499388 0.8422018
vt 0.4798042 0.8422018

# Normal
vn 0 0 -1

# Mesh description
g greenCrossroad_5_mesh_0001

# Faces
f 1/1/1 2/2/1 3/3/1 4/4/1
f 5/1/1 6/2/1 7/3/1 8/4/1
f 9/1/1 10/2/1 11/3/1 12/4/1
f 13/1/1 14/2/1 15/3/1 16/4/1
f 17/1/1 18/2/1 19/3/1 20/4/1
f 21/1/1 22/2/1 23/3/1 24/4/1
f 25/1/1 26/2/1 27/3/1 28/4/1
f 29/1/1 30/2/1 31/3/1 32/4/1
f 33/1/1 34/2/1 35/3/1 36/4/1
f 37/1/1 38/2/1 39/3/1 40/4/1
f 41/1/1 42/2/1 43/3/1 44/4/1
f 45/1/1 46/2/1 47/3/1 48/4/1
f 49/1/1 50/2/1 51/3/1 52/4/1
f 53/1/1 54/2/1 55/3/1 56/4/1
f 57/5/1 58/6/1 59/7/1 60/8/1
f 61/9/1 62/10/1 63/11/1 64/12/1
f 65/9/1 66/10/1 67/11/1 68/12/1
f 69/9/1 70/10/1 71/11/1 72/12/1
f 73/1/1 74/2/1 75/3/1 76/4/1
f 77/1/1 78/2/1 79/3/1 80/4/1
f 81/1/1 82/2/1 83/3/1 84/4/1
f 85/1/1 86/2/1 87/3/1 88/4/1
f 89/1/1 90/2/1 91/3/1 92/4/1
f 93/1/1 94/2/1 95/3/1 96/4/1
f 97/1/1 98/2/1 99/3/1 100/4/1
f 101/1/1 102/2/1 103/3/1 104/4/1
f 105/1/1 106/2/1 107/3/1 108/4/1
f 109/1/1 110/2/1 111/3/1 112/4/1
f 113/1/1 114/2/1 115/3/1 116/4/1
f 117/1/1 118/2/1 119/3/1 120/4/1
f 121/1/1 122/2/1 123/3/1 124/4/1
f 125/1/1 126/2/1 127/3/1 128/4/1
f 129/1/1 130/2/1 131/3/1 132/4/1
f 133/1/1 134/2/1 135/3/1 136/4/1
f 137/1/1 138/2/1 139/3/1 140/4/1
f 141/1/1 142/2/1 143/3/1 144/4/1
f 145/1/1 146/2/1 147/3/1 148/4/1
f 149/1/1 150/2/1 151/3/1 152/4/1
f 153/1/1 154/2/1 155/3/1 156/4/1
f 157/1/1 158/2/1 159/3/1 160/4/1
f 161/1/1 162/2/1 163/3/1 164/4/1
f 165/1/1 166/2/1 167/3/1 168/4/1
f 169/1/1 170/2/1 171/3/1 172/4/1
f 173/1/1 174/2/1 175/3/1 176/4/1
f 177/1/1 178/2/1 179/3/1 180/4/1
f 181/5/1 182/6/1 183/7/1 184/8/1
f 185/9/1 186/10/1 187/11/1 188/12/1
f 189/9/1 190/10/1 191/11/1 192/12/1
f 193/9/1 194/10/1 195/11/1 196/12/1
f 197/9/1 198/10/1 199/11/1 200/12/1
f 201/1/1 202/2/1 203/3/1 204/4/1
f 205/1/1 206/2/1 207/3/1 208/4/1
f 209/1/1 210/2/1 211/3/1 212/4/1
f 213/1/1 214/2/1 215/3/1 216/4/1
f 217/1/1 218/2/1 219/3/1 220/4/1
f 221/1/1 222/2/1 223/3/1 224/4/1
f 225/1/1 226/2/1 227/3/1 228/4/1
f 229/1/1 230/2/1 231/3/1 232/4/1
f 233/1/1 234/2/1 235/3/1 236/4/1
f 237/1/1 238/2/1 239/3/1 240/4/1
f 241/1/1 242/2/1 243/3/1 244/4/1
f 245/1/1 246/2/1 247/3/1 248/4/1
f 249/1/1 250/2/1 251/3/1 252/4/1
f 253/1/1 254/2/1 255/3/1 256/4/1
f 257/1/1 258/2/1 259/3/1 260/4/1
f 261/1/1 262/2/1 263/3/1 264/4/1
f 265/1/1 266/2/1 267/3/1 268/4/1
f 269/1/1 270/2/1 271/3/1 272/4/1
f 273/1/1 274/2/1 275/3/1 276/4/1
f 277/1/1 278/2/1 279/3/1 280/4/1
f 281/1/1 282/2/1 283/3/1 284/4/1
f 285/1/1 286/2/1 287/3/1 288/4/1
f 289/1/1 290/2/1 291/3/1 292/4/1
f 293/1/1 294/2/1 295/3/1 296/4/1
f 297/1/1 298/2/1 299/3/1 300/4/1
f 301/1/1 302/2/1 303/3/1 304/4/1
f 305/1/1 306/2/1 307/3/1 308/4/1
f 309/9/1 310/10/1 311/11/1 312/12/1
f 313/9/1 314/10/1 315/11/1 316/12/1
f 317/9/1 318/10/1 319/11/1 320/12/1
f 321/9/1 322/10/1 323/11/1 324/12/1
f 325/9/1 326/10/1 327/11/1 328/12/1
f 329/1/1 330/2/1 331/3/1 332/4/1
f 333/1/1 334/2/1 335/3/1 336/4/1
f 337/1/1 338/2/1 339/3/1 340/4/1
f 341/1/1 342/2/1 343/3/1 344/4/1
f 345/1/1 346/2/1 347/3/1 348/4/1
f 349/1/1 350/2/1 351/3/1 352/4/1
f 353/1/1 354/2/1 355/3/1 356/4/1
f 357/1/1 358/2/1 359/3/1 360/4/1
f 361/1/1 362/2/1 363/3/1 364/4/1
f 365/1/1 366/2/1 367/3/1 368/4/1
f 369/1/1 370/2/1 371/3/1 372/4/1
f 373/1/1 374/2/1 375/3/1 376/4/1
f 377/1/1 378/2/1 379/3/1 380/4/1
f 381/1/1 382/2/1 383/3/1 384/4/1
f 385/1/1 386/2/1 387/3/1 388/4/1
f 389/1/1 390/2/1 391/3/1 392/4/1
f 393/1/1 394/2/1 395/3/1 396/4/1
f 397/1/1 398/2/1 399/3/1 400/4/1
f 401/1/1 402/2/1 403/3/1 404/4/1
f 405/1/1 406/2/1 407/3/1 408/4/1
f 409/1/1 410/2/1 411/3/1 412/4/1
f 413/9/1 414/10/1 415/11/1 416/12/1
f 417/9/1 418/10/1 419/11/1 420/12/1
f 421/9/1 422/10/1 423/11/1 424/12/1
f 425/9/1 426/10/1 427/11/1 428/12/1
f 429/9/1 430/10/1 431/11/1 432/12/1
f 433/1/1 434/2/1 435/3/1 436/4/1
f 437/1/1 438/2/1 439/3/1 440/4/1
f 441/1/1 442/2/1 443/3/1 444/4/1
f 445/1/1 446/2/1 447/3/1 448/4/1
f 449/1/1 450/2/1 451/3/1 452/4/1
f 453/1/1 454/2/1 455/3/1 456/4/1
f 457/1/1 458/2/1 459/3/1 460/4/1
f 461/9/1 462/10/1 463/11/1 464/12/1
f 465/9/1 466/10/1 467/11/1 468/12/1
f 469/9/1 470/10/1 471/11/1 472/12/1
f 473/13/1 474/14/1 475/15/1 476/16/1
f 477/17/1 478/18/1 479/19/1 480/20/1
f 481/9/1 482/10/1 483/11/1 484/12/1
f 485/9/1 486/10/1 487/11/1 488/12/1
f 489/13/1 490/14/1 491/15/1 492/16/1
f 493/17/1 494/18/1 495/19/1 496/20/1
f 497/1/1 498/2/1 499/3/1 500/4/1
f 501/9/1 502/10/1 503/11/1 504/12/1
f 505/13/1 506/14/1 507/15/1 508/16/1
f 509/17/1 510/18/1 511/19/1 512/20/1
f 513/1/1 514/2/1 515/3/1 516/4/1
f 517/1/1 518/2/1 519/3/1 520/4/1
f 521/13/1 522/14/1 523/15/1 524/16/1
f 525/17/1 526/18/1 527/19/1 528/20/1
f 529/1/1 530/2/1 531/3/1 532/4/1
f 533/1/1 534/2/1 535/3/1 536/4/1
f 537/1/1 538/2/1 539/3/1 540/4/1
f 541/17/1 542/18/1 543/19/1 544/20/1
f 545/1/1 546/2/1 547/3/1 548/4/1
f 549/1/1 550/2/1 551/3/1 552/4/1
f 553/1/1 554/2/1 555/3/1 556/4/1
f 557/1/1 558/2/1 559/3/1 560/4/1

