# Tiled2Unity generated file. Do not modify by hand.
# Wavefront file for 'greenCrossroad_5_mesh_0006.obj'

# Vertices (Count = 720)
v 0 -2 0
v -1 -2 0
v -1 -1 0
v 0 -1 0
v -1 -2 0
v -2 -2 0
v -2 -1 0
v -1 -1 0
v -4 -2 0
v -5 -2 0
v -5 -1 0
v -4 -1 0
v -5 -2 0
v -6 -2 0
v -6 -1 0
v -5 -1 0
v -9 -2 0
v -10 -2 0
v -10 -1 0
v -9 -1 0
v -10 -2 0
v -11 -2 0
v -11 -1 0
v -10 -1 0
v -11 -2 0
v -12 -2 0
v -12 -1 0
v -11 -1 0
v -19 -2 0
v -20 -2 0
v -20 -1 0
v -19 -1 0
v -20 -2 0
v -21 -2 0
v -21 -1 0
v -20 -1 0
v -21 -2 0
v -22 -2 0
v -22 -1 0
v -21 -1 0
v -25 -2 0
v -26 -2 0
v -26 -1 0
v -25 -1 0
v -26 -2 0
v -27 -2 0
v -27 -1 0
v -26 -1 0
v -30 -2 0
v -31 -2 0
v -31 -1 0
v -30 -1 0
v -31 -2 0
v -32 -2 0
v -32 -1 0
v -31 -1 0
v 0 -3 0
v -1 -3 0
v -1 -2 0
v 0 -2 0
v -1 -3 0
v -2 -3 0
v -2 -2 0
v -1 -2 0
v -2 -3 0
v -3 -3 0
v -3 -2 0
v -2 -2 0
v -3 -3 0
v -4 -3 0
v -4 -2 0
v -3 -2 0
v -4 -3 0
v -5 -3 0
v -5 -2 0
v -4 -2 0
v -5 -3 0
v -6 -3 0
v -6 -2 0
v -5 -2 0
v -9 -3 0
v -10 -3 0
v -10 -2 0
v -9 -2 0
v -10 -3 0
v -11 -3 0
v -11 -2 0
v -10 -2 0
v -11 -3 0
v -12 -3 0
v -12 -2 0
v -11 -2 0
v -12 -3 0
v -13 -3 0
v -13 -2 0
v -12 -2 0
v -13 -3 0
v -14 -3 0
v -14 -2 0
v -13 -2 0
v -14 -3 0
v -15 -3 0
v -15 -2 0
v -14 -2 0
v -15 -3 0
v -16 -3 0
v -16 -2 0
v -15 -2 0
v -16 -3 0
v -17 -3 0
v -17 -2 0
v -16 -2 0
v -17 -3 0
v -18 -3 0
v -18 -2 0
v -17 -2 0
v -18 -3 0
v -19 -3 0
v -19 -2 0
v -18 -2 0
v -19 -3 0
v -20 -3 0
v -20 -2 0
v -19 -2 0
v -20 -3 0
v -21 -3 0
v -21 -2 0
v -20 -2 0
v -21 -3 0
v -22 -3 0
v -22 -2 0
v -21 -2 0
v -25 -3 0
v -26 -3 0
v -26 -2 0
v -25 -2 0
v -26 -3 0
v -27 -3 0
v -27 -2 0
v -26 -2 0
v -27 -3 0
v -28 -3 0
v -28 -2 0
v -27 -2 0
v -28 -3 0
v -29 -3 0
v -29 -2 0
v -28 -2 0
v -29 -3 0
v -30 -3 0
v -30 -2 0
v -29 -2 0
v -30 -3 0
v -31 -3 0
v -31 -2 0
v -30 -2 0
v -31 -3 0
v -32 -3 0
v -32 -2 0
v -31 -2 0
v 0 -4 0
v -1 -4 0
v -1 -3 0
v 0 -3 0
v -1 -4 0
v -2 -4 0
v -2 -3 0
v -1 -3 0
v -2 -4 0
v -3 -4 0
v -3 -3 0
v -2 -3 0
v -3 -4 0
v -4 -4 0
v -4 -3 0
v -3 -3 0
v -4 -4 0
v -5 -4 0
v -5 -3 0
v -4 -3 0
v -5 -4 0
v -6 -4 0
v -6 -3 0
v -5 -3 0
v -6 -4 0
v -7 -4 0
v -7 -3 0
v -6 -3 0
v -7 -4 0
v -8 -4 0
v -8 -3 0
v -7 -3 0
v -8 -4 0
v -9 -4 0
v -9 -3 0
v -8 -3 0
v -9 -4 0
v -10 -4 0
v -10 -3 0
v -9 -3 0
v -10 -4 0
v -11 -4 0
v -11 -3 0
v -10 -3 0
v -11 -4 0
v -12 -4 0
v -12 -3 0
v -11 -3 0
v -12 -4 0
v -13 -4 0
v -13 -3 0
v -12 -3 0
v -13 -4 0
v -14 -4 0
v -14 -3 0
v -13 -3 0
v -14 -4 0
v -15 -4 0
v -15 -3 0
v -14 -3 0
v -15 -4 0
v -16 -4 0
v -16 -3 0
v -15 -3 0
v -16 -4 0
v -17 -4 0
v -17 -3 0
v -16 -3 0
v -17 -4 0
v -18 -4 0
v -18 -3 0
v -17 -3 0
v -18 -4 0
v -19 -4 0
v -19 -3 0
v -18 -3 0
v -19 -4 0
v -20 -4 0
v -20 -3 0
v -19 -3 0
v -20 -4 0
v -21 -4 0
v -21 -3 0
v -20 -3 0
v -21 -4 0
v -22 -4 0
v -22 -3 0
v -21 -3 0
v -22 -4 0
v -23 -4 0
v -23 -3 0
v -22 -3 0
v -23 -4 0
v -24 -4 0
v -24 -3 0
v -23 -3 0
v -24 -4 0
v -25 -4 0
v -25 -3 0
v -24 -3 0
v -25 -4 0
v -26 -4 0
v -26 -3 0
v -25 -3 0
v -26 -4 0
v -27 -4 0
v -27 -3 0
v -26 -3 0
v -27 -4 0
v -28 -4 0
v -28 -3 0
v -27 -3 0
v -28 -4 0
v -29 -4 0
v -29 -3 0
v -28 -3 0
v -29 -4 0
v -30 -4 0
v -30 -3 0
v -29 -3 0
v -30 -4 0
v -31 -4 0
v -31 -3 0
v -30 -3 0
v -31 -4 0
v -32 -4 0
v -32 -3 0
v -31 -3 0
v 0 -5 0
v -1 -5 0
v -1 -4 0
v 0 -4 0
v -1 -5 0
v -2 -5 0
v -2 -4 0
v -1 -4 0
v -2 -5 0
v -3 -5 0
v -3 -4 0
v -2 -4 0
v -3 -5 0
v -4 -5 0
v -4 -4 0
v -3 -4 0
v -4 -5 0
v -5 -5 0
v -5 -4 0
v -4 -4 0
v -5 -5 0
v -6 -5 0
v -6 -4 0
v -5 -4 0
v -6 -5 0
v -7 -5 0
v -7 -4 0
v -6 -4 0
v -7 -5 0
v -8 -5 0
v -8 -4 0
v -7 -4 0
v -8 -5 0
v -9 -5 0
v -9 -4 0
v -8 -4 0
v -9 -5 0
v -10 -5 0
v -10 -4 0
v -9 -4 0
v -10 -5 0
v -11 -5 0
v -11 -4 0
v -10 -4 0
v -11 -5 0
v -12 -5 0
v -12 -4 0
v -11 -4 0
v -12 -5 0
v -13 -5 0
v -13 -4 0
v -12 -4 0
v -13 -5 0
v -14 -5 0
v -14 -4 0
v -13 -4 0
v -14 -5 0
v -15 -5 0
v -15 -4 0
v -14 -4 0
v -15 -5 0
v -16 -5 0
v -16 -4 0
v -15 -4 0
v -16 -5 0
v -17 -5 0
v -17 -4 0
v -16 -4 0
v -17 -5 0
v -18 -5 0
v -18 -4 0
v -17 -4 0
v -18 -5 0
v -19 -5 0
v -19 -4 0
v -18 -4 0
v -19 -5 0
v -20 -5 0
v -20 -4 0
v -19 -4 0
v -20 -5 0
v -21 -5 0
v -21 -4 0
v -20 -4 0
v -21 -5 0
v -22 -5 0
v -22 -4 0
v -21 -4 0
v -22 -5 0
v -23 -5 0
v -23 -4 0
v -22 -4 0
v -23 -5 0
v -24 -5 0
v -24 -4 0
v -23 -4 0
v -24 -5 0
v -25 -5 0
v -25 -4 0
v -24 -4 0
v -25 -5 0
v -26 -5 0
v -26 -4 0
v -25 -4 0
v -26 -5 0
v -27 -5 0
v -27 -4 0
v -26 -4 0
v -27 -5 0
v -28 -5 0
v -28 -4 0
v -27 -4 0
v -28 -5 0
v -29 -5 0
v -29 -4 0
v -28 -4 0
v -29 -5 0
v -30 -5 0
v -30 -4 0
v -29 -4 0
v -30 -5 0
v -31 -5 0
v -31 -4 0
v -30 -4 0
v -31 -5 0
v -32 -5 0
v -32 -4 0
v -31 -4 0
v 0 -6 0
v -1 -6 0
v -1 -5 0
v 0 -5 0
v -1 -6 0
v -2 -6 0
v -2 -5 0
v -1 -5 0
v -2 -6 0
v -3 -6 0
v -3 -5 0
v -2 -5 0
v -3 -6 0
v -4 -6 0
v -4 -5 0
v -3 -5 0
v -4 -6 0
v -5 -6 0
v -5 -5 0
v -4 -5 0
v -5 -6 0
v -6 -6 0
v -6 -5 0
v -5 -5 0
v -6 -6 0
v -7 -6 0
v -7 -5 0
v -6 -5 0
v -7 -6 0
v -8 -6 0
v -8 -5 0
v -7 -5 0
v -8 -6 0
v -9 -6 0
v -9 -5 0
v -8 -5 0
v -9 -6 0
v -10 -6 0
v -10 -5 0
v -9 -5 0
v -10 -6 0
v -11 -6 0
v -11 -5 0
v -10 -5 0
v -11 -6 0
v -12 -6 0
v -12 -5 0
v -11 -5 0
v -12 -6 0
v -13 -6 0
v -13 -5 0
v -12 -5 0
v -13 -6 0
v -14 -6 0
v -14 -5 0
v -13 -5 0
v -14 -6 0
v -15 -6 0
v -15 -5 0
v -14 -5 0
v -15 -6 0
v -16 -6 0
v -16 -5 0
v -15 -5 0
v -16 -6 0
v -17 -6 0
v -17 -5 0
v -16 -5 0
v -17 -6 0
v -18 -6 0
v -18 -5 0
v -17 -5 0
v -18 -6 0
v -19 -6 0
v -19 -5 0
v -18 -5 0
v -19 -6 0
v -20 -6 0
v -20 -5 0
v -19 -5 0
v -20 -6 0
v -21 -6 0
v -21 -5 0
v -20 -5 0
v -21 -6 0
v -22 -6 0
v -22 -5 0
v -21 -5 0
v -22 -6 0
v -23 -6 0
v -23 -5 0
v -22 -5 0
v -23 -6 0
v -24 -6 0
v -24 -5 0
v -23 -5 0
v -24 -6 0
v -25 -6 0
v -25 -5 0
v -24 -5 0
v -25 -6 0
v -26 -6 0
v -26 -5 0
v -25 -5 0
v -26 -6 0
v -27 -6 0
v -27 -5 0
v -26 -5 0
v -27 -6 0
v -28 -6 0
v -28 -5 0
v -27 -5 0
v -28 -6 0
v -29 -6 0
v -29 -5 0
v -28 -5 0
v -29 -6 0
v -30 -6 0
v -30 -5 0
v -29 -5 0
v -30 -6 0
v -31 -6 0
v -31 -5 0
v -30 -5 0
v -31 -6 0
v -32 -6 0
v -32 -5 0
v -31 -5 0
v 0 -7 0
v -1 -7 0
v -1 -6 0
v 0 -6 0
v -1 -7 0
v -2 -7 0
v -2 -6 0
v -1 -6 0
v -2 -7 0
v -3 -7 0
v -3 -6 0
v -2 -6 0
v -3 -7 0
v -4 -7 0
v -4 -6 0
v -3 -6 0
v -4 -7 0
v -5 -7 0
v -5 -6 0
v -4 -6 0
v -5 -7 0
v -6 -7 0
v -6 -6 0
v -5 -6 0
v -6 -7 0
v -7 -7 0
v -7 -6 0
v -6 -6 0
v -7 -7 0
v -8 -7 0
v -8 -6 0
v -7 -6 0
v -8 -7 0
v -9 -7 0
v -9 -6 0
v -8 -6 0
v -9 -7 0
v -10 -7 0
v -10 -6 0
v -9 -6 0
v -10 -7 0
v -11 -7 0
v -11 -6 0
v -10 -6 0
v -11 -7 0
v -12 -7 0
v -12 -6 0
v -11 -6 0
v -19 -7 0
v -20 -7 0
v -20 -6 0
v -19 -6 0
v -20 -7 0
v -21 -7 0
v -21 -6 0
v -20 -6 0
v -21 -7 0
v -22 -7 0
v -22 -6 0
v -21 -6 0
v -22 -7 0
v -23 -7 0
v -23 -6 0
v -22 -6 0
v -23 -7 0
v -24 -7 0
v -24 -6 0
v -23 -6 0
v -24 -7 0
v -25 -7 0
v -25 -6 0
v -24 -6 0
v -25 -7 0
v -26 -7 0
v -26 -6 0
v -25 -6 0
v -26 -7 0
v -27 -7 0
v -27 -6 0
v -26 -6 0
v -27 -7 0
v -28 -7 0
v -28 -6 0
v -27 -6 0
v -28 -7 0
v -29 -7 0
v -29 -6 0
v -28 -6 0
v -29 -7 0
v -30 -7 0
v -30 -6 0
v -29 -6 0
v -30 -7 0
v -31 -7 0
v -31 -6 0
v -30 -6 0
v -31 -7 0
v -32 -7 0
v -32 -6 0
v -31 -6 0
v 0 -8 0
v -1 -8 0
v -1 -7 0
v 0 -7 0
v -1 -8 0
v -2 -8 0
v -2 -7 0
v -1 -7 0
v -2 -8 0
v -3 -8 0
v -3 -7 0
v -2 -7 0
v -3 -8 0
v -4 -8 0
v -4 -7 0
v -3 -7 0
v -4 -8 0
v -5 -8 0
v -5 -7 0
v -4 -7 0
v -5 -8 0
v -6 -8 0
v -6 -7 0
v -5 -7 0
v -9 -8 0
v -10 -8 0
v -10 -7 0
v -9 -7 0
v -10 -8 0
v -11 -8 0
v -11 -7 0
v -10 -7 0
v -11 -8 0
v -12 -8 0
v -12 -7 0
v -11 -7 0
v -19 -8 0
v -20 -8 0
v -20 -7 0
v -19 -7 0
v -20 -8 0
v -21 -8 0
v -21 -7 0
v -20 -7 0
v -21 -8 0
v -22 -8 0
v -22 -7 0
v -21 -7 0
v -25 -8 0
v -26 -8 0
v -26 -7 0
v -25 -7 0
v -26 -8 0
v -27 -8 0
v -27 -7 0
v -26 -7 0
v -27 -8 0
v -28 -8 0
v -28 -7 0
v -27 -7 0
v -28 -8 0
v -29 -8 0
v -29 -7 0
v -28 -7 0
v -29 -8 0
v -30 -8 0
v -30 -7 0
v -29 -7 0
v -30 -8 0
v -31 -8 0
v -31 -7 0
v -30 -7 0
v -31 -8 0
v -32 -8 0
v -32 -7 0
v -31 -7 0

# Texture cooridinates (Count = 164)
vt 0.00122399 0.7816514
vt 0.02080783 0.7816514
vt 0.02080783 0.8110092
vt 0.00122399 0.8110092
vt 0.02203182 0.7816514
vt 0.04161567 0.7816514
vt 0.04161567 0.8110092
vt 0.02203182 0.8110092
vt 0.6670747 0.8752294
vt 0.6866585 0.8752294
vt 0.6866585 0.9045871
vt 0.6670747 0.9045871
vt 0.6878825 0.8752294
vt 0.7074664 0.8752294
vt 0.7074664 0.9045871
vt 0.6878825 0.9045871
vt 0.7086903 0.8752294
vt 0.7282742 0.8752294
vt 0.7282742 0.9045871
vt 0.7086903 0.9045871
vt 0.8127295 0.7816514
vt 0.8323134 0.7816514
vt 0.8323134 0.8110092
vt 0.8127295 0.8110092
vt 0.8335373 0.7816514
vt 0.8531212 0.7816514
vt 0.8531212 0.8110092
vt 0.8335373 0.8110092
vt 0.2301102 0.906422
vt 0.249694 0.906422
vt 0.249694 0.9357798
vt 0.2301102 0.9357798
vt 0.7919217 0.8752294
vt 0.8115055 0.8752294
vt 0.8115055 0.9045871
vt 0.7919217 0.9045871
vt 0.6462668 0.812844
vt 0.6658507 0.812844
vt 0.6658507 0.8422018
vt 0.6462668 0.8422018
vt 0.8127295 0.8752294
vt 0.8323134 0.8752294
vt 0.8323134 0.9045871
vt 0.8127295 0.9045871
vt 0.1052632 0.8752294
vt 0.124847 0.8752294
vt 0.124847 0.9045871
vt 0.1052632 0.9045871
vt 0.7294981 0.9688073
vt 0.749082 0.9688073
vt 0.749082 0.9981651
vt 0.7294981 0.9981651
vt 0.08445533 0.8752294
vt 0.1040392 0.8752294
vt 0.1040392 0.9045871
vt 0.08445533 0.9045871
vt 0.1676867 0.9688073
vt 0.1872705 0.9688073
vt 0.1872705 0.9981651
vt 0.1676867 0.9981651
vt 0.8959608 0.8752294
vt 0.9155447 0.8752294
vt 0.9155447 0.9045871
vt 0.8959608 0.9045871
vt 0.9167687 0.8752294
vt 0.9363525 0.8752294
vt 0.9363525 0.9045871
vt 0.9167687 0.9045871
vt 0.9375765 0.8752294
vt 0.9571604 0.8752294
vt 0.9571604 0.9045871
vt 0.9375765 0.9045871
vt 0.6462668 0.7192661
vt 0.6658507 0.7192661
vt 0.6658507 0.7486238
vt 0.6462668 0.7486238
vt 0.500612 0.9688073
vt 0.5201958 0.9688073
vt 0.5201958 0.9981651
vt 0.500612 0.9981651
vt 0.8543451 0.9688073
vt 0.873929 0.9688073
vt 0.873929 0.9981651
vt 0.8543451 0.9981651
vt 0.6670747 0.7192661
vt 0.6866585 0.7192661
vt 0.6866585 0.7486238
vt 0.6670747 0.7486238
vt 0.02203182 0.8440367
vt 0.04161567 0.8440367
vt 0.04161567 0.8733945
vt 0.02203182 0.8733945
vt 0.04283966 0.8440367
vt 0.0624235 0.8440367
vt 0.0624235 0.8733945
vt 0.04283966 0.8733945
vt 0.06364749 0.8440367
vt 0.08323134 0.8440367
vt 0.08323134 0.8733945
vt 0.06364749 0.8733945
vt 0.6878825 0.7192661
vt 0.7074664 0.7192661
vt 0.7074664 0.7486238
vt 0.6878825 0.7486238
vt 0.9583843 0.9688073
vt 0.9779682 0.9688073
vt 0.9779682 0.9981651
vt 0.9583843 0.9981651
vt 0.8959608 0.9688073
vt 0.9155447 0.9688073
vt 0.9155447 0.9981651
vt 0.8959608 0.9981651
vt 0.7086903 0.7192661
vt 0.7282742 0.7192661
vt 0.7282742 0.7486238
vt 0.7086903 0.7486238
vt 0.250918 0.7816514
vt 0.2705018 0.7816514
vt 0.2705018 0.8110092
vt 0.250918 0.8110092
vt 0.126071 0.8440367
vt 0.1456548 0.8440367
vt 0.1456548 0.8733945
vt 0.126071 0.8733945
vt 0.2925337 0.9376147
vt 0.3121175 0.9376147
vt 0.3121175 0.9669725
vt 0.2925337 0.9669725
vt 0.1468788 0.8440367
vt 0.1664627 0.8440367
vt 0.1664627 0.8733945
vt 0.1468788 0.8733945
vt 0.7294981 0.7192661
vt 0.749082 0.7192661
vt 0.749082 0.7486238
vt 0.7294981 0.7486238
vt 0.1676867 0.8440367
vt 0.1872705 0.8440367
vt 0.1872705 0.8733945
vt 0.1676867 0.8733945
vt 0.1884945 0.8440367
vt 0.2080783 0.8440367
vt 0.2080783 0.8733945
vt 0.1884945 0.8733945
vt 0.2093023 0.8440367
vt 0.2288862 0.8440367
vt 0.2288862 0.8733945
vt 0.2093023 0.8733945
vt 0.750306 0.7192661
vt 0.7698898 0.7192661
vt 0.7698898 0.7486238
vt 0.750306 0.7486238
vt 0.3133415 0.9376147
vt 0.3329253 0.9376147
vt 0.3329253 0.9669725
vt 0.3133415 0.9669725
vt 0.375765 0.9376147
vt 0.3953488 0.9376147
vt 0.3953488 0.9669725
vt 0.375765 0.9669725
vt 0.2717258 0.8440367
vt 0.2913097 0.8440367
vt 0.2913097 0.8733945
vt 0.2717258 0.8733945

# Normal
vn 0 0 -1

# Mesh description
g greenCrossroad_5_mesh_0006

# Faces
f 1/1/1 2/2/1 3/3/1 4/4/1
f 5/5/1 6/6/1 7/7/1 8/8/1
f 9/1/1 10/2/1 11/3/1 12/4/1
f 13/5/1 14/6/1 15/7/1 16/8/1
f 17/9/1 18/10/1 19/11/1 20/12/1
f 21/13/1 22/14/1 23/15/1 24/16/1
f 25/17/1 26/18/1 27/19/1 28/20/1
f 29/9/1 30/10/1 31/11/1 32/12/1
f 33/13/1 34/14/1 35/15/1 36/16/1
f 37/17/1 38/18/1 39/19/1 40/20/1
f 41/1/1 42/2/1 43/3/1 44/4/1
f 45/5/1 46/6/1 47/7/1 48/8/1
f 49/1/1 50/2/1 51/3/1 52/4/1
f 53/5/1 54/6/1 55/7/1 56/8/1
f 57/21/1 58/22/1 59/23/1 60/24/1
f 61/25/1 62/26/1 63/27/1 64/28/1
f 65/29/1 66/30/1 67/31/1 68/32/1
f 69/29/1 70/30/1 71/31/1 72/32/1
f 73/21/1 74/22/1 75/23/1 76/24/1
f 77/25/1 78/26/1 79/27/1 80/28/1
f 81/33/1 82/34/1 83/35/1 84/36/1
f 85/37/1 86/38/1 87/39/1 88/40/1
f 89/41/1 90/42/1 91/43/1 92/44/1
f 93/45/1 94/46/1 95/47/1 96/48/1
f 97/49/1 98/50/1 99/51/1 100/52/1
f 101/49/1 102/50/1 103/51/1 104/52/1
f 105/49/1 106/50/1 107/51/1 108/52/1
f 109/49/1 110/50/1 111/51/1 112/52/1
f 113/49/1 114/50/1 115/51/1 116/52/1
f 117/53/1 118/54/1 119/55/1 120/56/1
f 121/33/1 122/34/1 123/35/1 124/36/1
f 125/37/1 126/38/1 127/39/1 128/40/1
f 129/41/1 130/42/1 131/43/1 132/44/1
f 133/21/1 134/22/1 135/23/1 136/24/1
f 137/25/1 138/26/1 139/27/1 140/28/1
f 141/29/1 142/30/1 143/31/1 144/32/1
f 145/29/1 146/30/1 147/31/1 148/32/1
f 149/29/1 150/30/1 151/31/1 152/32/1
f 153/21/1 154/22/1 155/23/1 156/24/1
f 157/25/1 158/26/1 159/27/1 160/28/1
f 161/29/1 162/30/1 163/31/1 164/32/1
f 165/29/1 166/30/1 167/31/1 168/32/1
f 169/57/1 170/58/1 171/59/1 172/60/1
f 173/57/1 174/58/1 175/59/1 176/60/1
f 177/29/1 178/30/1 179/31/1 180/32/1
f 181/29/1 182/30/1 183/31/1 184/32/1
f 185/29/1 186/30/1 187/31/1 188/32/1
f 189/29/1 190/30/1 191/31/1 192/32/1
f 193/29/1 194/30/1 195/31/1 196/32/1
f 197/61/1 198/62/1 199/63/1 200/64/1
f 201/65/1 202/66/1 203/67/1 204/68/1
f 205/69/1 206/70/1 207/71/1 208/72/1
f 209/73/1 210/74/1 211/75/1 212/76/1
f 213/77/1 214/78/1 215/79/1 216/80/1
f 217/81/1 218/82/1 219/83/1 220/84/1
f 221/77/1 222/78/1 223/79/1 224/80/1
f 225/81/1 226/82/1 227/83/1 228/84/1
f 229/77/1 230/78/1 231/79/1 232/80/1
f 233/85/1 234/86/1 235/87/1 236/88/1
f 237/61/1 238/62/1 239/63/1 240/64/1
f 241/65/1 242/66/1 243/67/1 244/68/1
f 245/69/1 246/70/1 247/71/1 248/72/1
f 249/29/1 250/30/1 251/31/1 252/32/1
f 253/29/1 254/30/1 255/31/1 256/32/1
f 257/29/1 258/30/1 259/31/1 260/32/1
f 261/29/1 262/30/1 263/31/1 264/32/1
f 265/29/1 266/30/1 267/31/1 268/32/1
f 269/57/1 270/58/1 271/59/1 272/60/1
f 273/57/1 274/58/1 275/59/1 276/60/1
f 277/57/1 278/58/1 279/59/1 280/60/1
f 281/29/1 282/30/1 283/31/1 284/32/1
f 285/29/1 286/30/1 287/31/1 288/32/1
f 289/1/1 290/2/1 291/3/1 292/4/1
f 293/5/1 294/6/1 295/7/1 296/8/1
f 297/57/1 298/58/1 299/59/1 300/60/1
f 301/57/1 302/58/1 303/59/1 304/60/1
f 305/1/1 306/2/1 307/3/1 308/4/1
f 309/5/1 310/6/1 311/7/1 312/8/1
f 313/57/1 314/58/1 315/59/1 316/60/1
f 317/57/1 318/58/1 319/59/1 320/60/1
f 321/57/1 322/58/1 323/59/1 324/60/1
f 325/89/1 326/90/1 327/91/1 328/92/1
f 329/93/1 330/94/1 331/95/1 332/96/1
f 333/97/1 334/98/1 335/99/1 336/100/1
f 337/101/1 338/102/1 339/103/1 340/104/1
f 341/105/1 342/106/1 343/107/1 344/108/1
f 345/109/1 346/110/1 347/111/1 348/112/1
f 349/105/1 350/106/1 351/107/1 352/108/1
f 353/109/1 354/110/1 355/111/1 356/112/1
f 357/105/1 358/106/1 359/107/1 360/108/1
f 361/113/1 362/114/1 363/115/1 364/116/1
f 365/89/1 366/90/1 367/91/1 368/92/1
f 369/93/1 370/94/1 371/95/1 372/96/1
f 373/97/1 374/98/1 375/99/1 376/100/1
f 377/57/1 378/58/1 379/59/1 380/60/1
f 381/57/1 382/58/1 383/59/1 384/60/1
f 385/57/1 386/58/1 387/59/1 388/60/1
f 389/1/1 390/2/1 391/3/1 392/4/1
f 393/5/1 394/6/1 395/7/1 396/8/1
f 397/57/1 398/58/1 399/59/1 400/60/1
f 401/57/1 402/58/1 403/59/1 404/60/1
f 405/57/1 406/58/1 407/59/1 408/60/1
f 409/1/1 410/2/1 411/3/1 412/4/1
f 413/5/1 414/6/1 415/7/1 416/8/1
f 417/21/1 418/22/1 419/23/1 420/24/1
f 421/25/1 422/26/1 423/27/1 424/28/1
f 425/57/1 426/58/1 427/59/1 428/60/1
f 429/57/1 430/58/1 431/59/1 432/60/1
f 433/21/1 434/22/1 435/23/1 436/24/1
f 437/25/1 438/26/1 439/27/1 440/28/1
f 441/117/1 442/118/1 443/119/1 444/120/1
f 445/117/1 446/118/1 447/119/1 448/120/1
f 449/117/1 450/118/1 451/119/1 452/120/1
f 453/121/1 454/122/1 455/123/1 456/124/1
f 457/125/1 458/126/1 459/127/1 460/128/1
f 461/129/1 462/130/1 463/131/1 464/132/1
f 465/133/1 466/134/1 467/135/1 468/136/1
f 469/137/1 470/138/1 471/139/1 472/140/1
f 473/141/1 474/142/1 475/143/1 476/144/1
f 477/142/1 478/141/1 479/144/1 480/143/1
f 481/142/1 482/141/1 483/144/1 484/143/1
f 485/145/1 486/146/1 487/147/1 488/148/1
f 489/149/1 490/150/1 491/151/1 492/152/1
f 493/121/1 494/122/1 495/123/1 496/124/1
f 497/125/1 498/126/1 499/127/1 500/128/1
f 501/129/1 502/130/1 503/131/1 504/132/1
f 505/117/1 506/118/1 507/119/1 508/120/1
f 509/117/1 510/118/1 511/119/1 512/120/1
f 513/117/1 514/118/1 515/119/1 516/120/1
f 517/21/1 518/22/1 519/23/1 520/24/1
f 521/25/1 522/26/1 523/27/1 524/28/1
f 525/57/1 526/58/1 527/59/1 528/60/1
f 529/57/1 530/58/1 531/59/1 532/60/1
f 533/57/1 534/58/1 535/59/1 536/60/1
f 537/21/1 538/22/1 539/23/1 540/24/1
f 541/25/1 542/26/1 543/27/1 544/28/1
f 545/121/1 546/122/1 547/123/1 548/124/1
f 549/129/1 550/130/1 551/131/1 552/132/1
f 553/117/1 554/118/1 555/119/1 556/120/1
f 557/117/1 558/118/1 559/119/1 560/120/1
f 561/121/1 562/122/1 563/123/1 564/124/1
f 565/129/1 566/130/1 567/131/1 568/132/1
f 569/153/1 570/154/1 571/155/1 572/156/1
f 573/125/1 574/126/1 575/127/1 576/128/1
f 577/153/1 578/154/1 579/155/1 580/156/1
f 581/121/1 582/122/1 583/123/1 584/124/1
f 585/157/1 586/158/1 587/159/1 588/160/1
f 589/129/1 590/130/1 591/131/1 592/132/1
f 593/121/1 594/122/1 595/123/1 596/124/1
f 597/157/1 598/158/1 599/159/1 600/160/1
f 601/129/1 602/130/1 603/131/1 604/132/1
f 605/153/1 606/154/1 607/155/1 608/156/1
f 609/125/1 610/126/1 611/127/1 612/128/1
f 613/153/1 614/154/1 615/155/1 616/156/1
f 617/121/1 618/122/1 619/123/1 620/124/1
f 621/129/1 622/130/1 623/131/1 624/132/1
f 625/117/1 626/118/1 627/119/1 628/120/1
f 629/117/1 630/118/1 631/119/1 632/120/1
f 633/117/1 634/118/1 635/119/1 636/120/1
f 637/121/1 638/122/1 639/123/1 640/124/1
f 641/129/1 642/130/1 643/131/1 644/132/1
f 645/121/1 646/122/1 647/123/1 648/124/1
f 649/129/1 650/130/1 651/131/1 652/132/1
f 653/153/1 654/154/1 655/155/1 656/156/1
f 657/153/1 658/154/1 659/155/1 660/156/1
f 661/121/1 662/122/1 663/123/1 664/124/1
f 665/129/1 666/130/1 667/131/1 668/132/1
f 669/121/1 670/122/1 671/123/1 672/124/1
f 673/161/1 674/162/1 675/163/1 676/164/1
f 677/129/1 678/130/1 679/131/1 680/132/1
f 681/121/1 682/122/1 683/123/1 684/124/1
f 685/161/1 686/162/1 687/163/1 688/164/1
f 689/129/1 690/130/1 691/131/1 692/132/1
f 693/121/1 694/122/1 695/123/1 696/124/1
f 697/129/1 698/130/1 699/131/1 700/132/1
f 701/153/1 702/154/1 703/155/1 704/156/1
f 705/153/1 706/154/1 707/155/1 708/156/1
f 709/153/1 710/154/1 711/155/1 712/156/1
f 713/121/1 714/122/1 715/123/1 716/124/1
f 717/129/1 718/130/1 719/131/1 720/132/1

