# Tiled2Unity generated file. Do not modify by hand.
# Wavefront file for 'greenCrossroad_5_mesh_0008.obj'

# Vertices (Count = 208)
v -31 -17 0
v -32 -17 0
v -32 -16 0
v -31 -16 0
v -31 -18 0
v -32 -18 0
v -32 -17 0
v -31 -17 0
v -31 -19 0
v -32 -19 0
v -32 -18 0
v -31 -18 0
v 0 -20 0
v -1 -20 0
v -1 -19 0
v 0 -19 0
v -1 -20 0
v -2 -20 0
v -2 -19 0
v -1 -19 0
v -30 -20 0
v -31 -20 0
v -31 -19 0
v -30 -19 0
v 0 -21 0
v -1 -21 0
v -1 -20 0
v 0 -20 0
v -1 -21 0
v -2 -21 0
v -2 -20 0
v -1 -20 0
v -30 -21 0
v -31 -21 0
v -31 -20 0
v -30 -20 0
v -30 -22 0
v -31 -22 0
v -31 -21 0
v -30 -21 0
v -1 -24 0
v -2 -24 0
v -2 -23 0
v -1 -23 0
v -1 -25 0
v -2 -25 0
v -2 -24 0
v -1 -24 0
v -1 -26 0
v -2 -26 0
v -2 -25 0
v -1 -25 0
v -14 -26 0
v -15 -26 0
v -15 -25 0
v -14 -25 0
v -15 -26 0
v -16 -26 0
v -16 -25 0
v -15 -25 0
v -16 -26 0
v -17 -26 0
v -17 -25 0
v -16 -25 0
v -13 -27 0
v -14 -27 0
v -14 -26 0
v -13 -26 0
v -14 -27 0
v -15 -27 0
v -15 -26 0
v -14 -26 0
v -15 -27 0
v -16 -27 0
v -16 -26 0
v -15 -26 0
v -16 -27 0
v -17 -27 0
v -17 -26 0
v -16 -26 0
v -17 -27 0
v -18 -27 0
v -18 -26 0
v -17 -26 0
v -12 -28 0
v -13 -28 0
v -13 -27 0
v -12 -27 0
v -13 -28 0
v -14 -28 0
v -14 -27 0
v -13 -27 0
v -14 -28 0
v -15 -28 0
v -15 -27 0
v -14 -27 0
v -15 -28 0
v -16 -28 0
v -16 -27 0
v -15 -27 0
v -16 -28 0
v -17 -28 0
v -17 -27 0
v -16 -27 0
v -17 -28 0
v -18 -28 0
v -18 -27 0
v -17 -27 0
v -18 -28 0
v -19 -28 0
v -19 -27 0
v -18 -27 0
v -29 -28 0
v -30 -28 0
v -30 -27 0
v -29 -27 0
v -2 -29 0
v -3 -29 0
v -3 -28 0
v -2 -28 0
v -11 -29 0
v -12 -29 0
v -12 -28 0
v -11 -28 0
v -12 -29 0
v -13 -29 0
v -13 -28 0
v -12 -28 0
v -18 -29 0
v -19 -29 0
v -19 -28 0
v -18 -28 0
v -19 -29 0
v -20 -29 0
v -20 -28 0
v -19 -28 0
v -28 -29 0
v -29 -29 0
v -29 -28 0
v -28 -28 0
v -29 -29 0
v -30 -29 0
v -30 -28 0
v -29 -28 0
v -2 -30 0
v -3 -30 0
v -3 -29 0
v -2 -29 0
v -10 -30 0
v -11 -30 0
v -11 -29 0
v -10 -29 0
v -11 -30 0
v -12 -30 0
v -12 -29 0
v -11 -29 0
v -19 -30 0
v -20 -30 0
v -20 -29 0
v -19 -29 0
v -20 -30 0
v -21 -30 0
v -21 -29 0
v -20 -29 0
v -27 -30 0
v -28 -30 0
v -28 -29 0
v -27 -29 0
v -28 -30 0
v -29 -30 0
v -29 -29 0
v -28 -29 0
v -2 -31 0
v -3 -31 0
v -3 -30 0
v -2 -30 0
v -3 -31 0
v -4 -31 0
v -4 -30 0
v -3 -30 0
v -10 -31 0
v -11 -31 0
v -11 -30 0
v -10 -30 0
v -20 -31 0
v -21 -31 0
v -21 -30 0
v -20 -30 0
v -27 -31 0
v -28 -31 0
v -28 -30 0
v -27 -30 0
v -3 -32 0
v -4 -32 0
v -4 -31 0
v -3 -31 0
v -10 -32 0
v -11 -32 0
v -11 -31 0
v -10 -31 0
v -20 -32 0
v -21 -32 0
v -21 -31 0
v -20 -31 0
v -27 -32 0
v -28 -32 0
v -28 -31 0
v -27 -31 0

# Texture cooridinates (Count = 8)
vt 0.4798042 0.906422
vt 0.499388 0.906422
vt 0.499388 0.9357798
vt 0.4798042 0.9357798
vt 0.500612 0.906422
vt 0.5201958 0.906422
vt 0.5201958 0.9357798
vt 0.500612 0.9357798

# Normal
vn 0 0 -1

# Mesh description
g greenCrossroad_5_mesh_0008

# Faces
f 1/1/1 2/2/1 3/3/1 4/4/1
f 5/5/1 6/6/1 7/7/1 8/8/1
f 9/5/1 10/6/1 11/7/1 12/8/1
f 13/1/1 14/2/1 15/3/1 16/4/1
f 17/1/1 18/2/1 19/3/1 20/4/1
f 21/1/1 22/2/1 23/3/1 24/4/1
f 25/5/1 26/6/1 27/7/1 28/8/1
f 29/5/1 30/6/1 31/7/1 32/8/1
f 33/5/1 34/6/1 35/7/1 36/8/1
f 37/5/1 38/6/1 39/7/1 40/8/1
f 41/1/1 42/2/1 43/3/1 44/4/1
f 45/5/1 46/6/1 47/7/1 48/8/1
f 49/5/1 50/6/1 51/7/1 52/8/1
f 53/1/1 54/2/1 55/3/1 56/4/1
f 57/1/1 58/2/1 59/3/1 60/4/1
f 61/1/1 62/2/1 63/3/1 64/4/1
f 65/1/1 66/2/1 67/3/1 68/4/1
f 69/5/1 70/6/1 71/7/1 72/8/1
f 73/5/1 74/6/1 75/7/1 76/8/1
f 77/5/1 78/6/1 79/7/1 80/8/1
f 81/1/1 82/2/1 83/3/1 84/4/1
f 85/1/1 86/2/1 87/3/1 88/4/1
f 89/5/1 90/6/1 91/7/1 92/8/1
f 93/5/1 94/6/1 95/7/1 96/8/1
f 97/5/1 98/6/1 99/7/1 100/8/1
f 101/5/1 102/6/1 103/7/1 104/8/1
f 105/5/1 106/6/1 107/7/1 108/8/1
f 109/1/1 110/2/1 111/3/1 112/4/1
f 113/1/1 114/2/1 115/3/1 116/4/1
f 117/1/1 118/2/1 119/3/1 120/4/1
f 121/1/1 122/2/1 123/3/1 124/4/1
f 125/5/1 126/6/1 127/7/1 128/8/1
f 129/5/1 130/6/1 131/7/1 132/8/1
f 133/1/1 134/2/1 135/3/1 136/4/1
f 137/1/1 138/2/1 139/3/1 140/4/1
f 141/5/1 142/6/1 143/7/1 144/8/1
f 145/5/1 146/6/1 147/7/1 148/8/1
f 149/1/1 150/2/1 151/3/1 152/4/1
f 153/5/1 154/6/1 155/7/1 156/8/1
f 157/5/1 158/6/1 159/7/1 160/8/1
f 161/1/1 162/2/1 163/3/1 164/4/1
f 165/1/1 166/2/1 167/3/1 168/4/1
f 169/5/1 170/6/1 171/7/1 172/8/1
f 173/5/1 174/6/1 175/7/1 176/8/1
f 177/1/1 178/2/1 179/3/1 180/4/1
f 181/5/1 182/6/1 183/7/1 184/8/1
f 185/5/1 186/6/1 187/7/1 188/8/1
f 189/5/1 190/6/1 191/7/1 192/8/1
f 193/5/1 194/6/1 195/7/1 196/8/1
f 197/5/1 198/6/1 199/7/1 200/8/1
f 201/5/1 202/6/1 203/7/1 204/8/1
f 205/5/1 206/6/1 207/7/1 208/8/1

