# Tiled2Unity generated file. Do not modify by hand.
# Wavefront file for 'darkWoods_5_mesh_0005.obj'

# Vertices (Count = 268)
v -3 -1 0
v -4 -1 0
v -4 0 0
v -3 0 0
v -7 -1 0
v -8 -1 0
v -8 0 0
v -7 0 0
v -15 -1 0
v -16 -1 0
v -16 0 0
v -15 0 0
v -21 -1 0
v -22 -1 0
v -22 0 0
v -21 0 0
v -2 -2 0
v -3 -2 0
v -3 -1 0
v -2 -1 0
v -5 -2 0
v -6 -2 0
v -6 -1 0
v -5 -1 0
v -16 -2 0
v -17 -2 0
v -17 -1 0
v -16 -1 0
v -23 -2 0
v -24 -2 0
v -24 -1 0
v -23 -1 0
v -1 -3 0
v -2 -3 0
v -2 -2 0
v -1 -2 0
v -6 -3 0
v -7 -3 0
v -7 -2 0
v -6 -2 0
v -17 -3 0
v -18 -3 0
v -18 -2 0
v -17 -2 0
v 0 -4 0
v -1 -4 0
v -1 -3 0
v 0 -3 0
v -18 -4 0
v -19 -4 0
v -19 -3 0
v -18 -3 0
v -5 -5 0
v -6 -5 0
v -6 -4 0
v -5 -4 0
v -1 -6 0
v -2 -6 0
v -2 -5 0
v -1 -5 0
v -4 -6 0
v -5 -6 0
v -5 -5 0
v -4 -5 0
v -19 -6 0
v -20 -6 0
v -20 -5 0
v -19 -5 0
v 0 -7 0
v -1 -7 0
v -1 -6 0
v 0 -6 0
v -20 -7 0
v -21 -7 0
v -21 -6 0
v -20 -6 0
v -21 -8 0
v -22 -8 0
v -22 -7 0
v -21 -7 0
v -22 -8 0
v -23 -8 0
v -23 -7 0
v -22 -7 0
v -1 -9 0
v -2 -9 0
v -2 -8 0
v -1 -8 0
v -3 -9 0
v -4 -9 0
v -4 -8 0
v -3 -8 0
v -4 -9 0
v -5 -9 0
v -5 -8 0
v -4 -8 0
v -23 -9 0
v -24 -9 0
v -24 -8 0
v -23 -8 0
v -24 -9 0
v -25 -9 0
v -25 -8 0
v -24 -8 0
v 0 -10 0
v -1 -10 0
v -1 -9 0
v 0 -9 0
v -1 -11 0
v -2 -11 0
v -2 -10 0
v -1 -10 0
v 0 -13 0
v -1 -13 0
v -1 -12 0
v 0 -12 0
v -1 -14 0
v -2 -14 0
v -2 -13 0
v -1 -13 0
v -22 -15 0
v -23 -15 0
v -23 -14 0
v -22 -14 0
v -23 -15 0
v -24 -15 0
v -24 -14 0
v -23 -14 0
v -24 -15 0
v -25 -15 0
v -25 -14 0
v -24 -14 0
v 0 -16 0
v -1 -16 0
v -1 -15 0
v 0 -15 0
v -21 -16 0
v -22 -16 0
v -22 -15 0
v -21 -15 0
v -1 -17 0
v -2 -17 0
v -2 -16 0
v -1 -16 0
v -6 -17 0
v -7 -17 0
v -7 -16 0
v -6 -16 0
v -7 -17 0
v -8 -17 0
v -8 -16 0
v -7 -16 0
v -19 -17 0
v -20 -17 0
v -20 -16 0
v -19 -16 0
v -20 -17 0
v -21 -17 0
v -21 -16 0
v -20 -16 0
v -24 -17 0
v -25 -17 0
v -25 -16 0
v -24 -16 0
v -5 -18 0
v -6 -18 0
v -6 -17 0
v -5 -17 0
v -8 -18 0
v -9 -18 0
v -9 -17 0
v -8 -17 0
v -18 -18 0
v -19 -18 0
v -19 -17 0
v -18 -17 0
v -23 -18 0
v -24 -18 0
v -24 -17 0
v -23 -17 0
v -2 -19 0
v -3 -19 0
v -3 -18 0
v -2 -18 0
v -21 -19 0
v -22 -19 0
v -22 -18 0
v -21 -18 0
v -9 -20 0
v -10 -20 0
v -10 -19 0
v -9 -19 0
v -17 -20 0
v -18 -20 0
v -18 -19 0
v -17 -19 0
v -22 -20 0
v -23 -20 0
v -23 -19 0
v -22 -19 0
v -24 -20 0
v -25 -20 0
v -25 -19 0
v -24 -19 0
v -2 -21 0
v -3 -21 0
v -3 -20 0
v -2 -20 0
v -16 -21 0
v -17 -21 0
v -17 -20 0
v -16 -20 0
v -1 -22 0
v -2 -22 0
v -2 -21 0
v -1 -21 0
v -3 -22 0
v -4 -22 0
v -4 -21 0
v -3 -21 0
v -7 -22 0
v -8 -22 0
v -8 -21 0
v -7 -21 0
v -10 -22 0
v -11 -22 0
v -11 -21 0
v -10 -21 0
v -23 -22 0
v -24 -22 0
v -24 -21 0
v -23 -21 0
v -24 -22 0
v -25 -22 0
v -25 -21 0
v -24 -21 0
v 0 -23 0
v -1 -23 0
v -1 -22 0
v 0 -22 0
v -4 -23 0
v -5 -23 0
v -5 -22 0
v -4 -22 0
v -5 -23 0
v -6 -23 0
v -6 -22 0
v -5 -22 0
v -6 -23 0
v -7 -23 0
v -7 -22 0
v -6 -22 0
v -11 -23 0
v -12 -23 0
v -12 -22 0
v -11 -22 0
v -15 -23 0
v -16 -23 0
v -16 -22 0
v -15 -22 0
v -2 -24 0
v -3 -24 0
v -3 -23 0
v -2 -23 0
v -9 -24 0
v -10 -24 0
v -10 -23 0
v -9 -23 0

# Texture cooridinates (Count = 4)
vt 0.4798042 0.906422
vt 0.499388 0.906422
vt 0.499388 0.9357798
vt 0.4798042 0.9357798

# Normal
vn 0 0 -1

# Mesh description
g darkWoods_5_mesh_0005

# Faces
f 1/1/1 2/2/1 3/3/1 4/4/1
f 5/1/1 6/2/1 7/3/1 8/4/1
f 9/1/1 10/2/1 11/3/1 12/4/1
f 13/1/1 14/2/1 15/3/1 16/4/1
f 17/1/1 18/2/1 19/3/1 20/4/1
f 21/1/1 22/2/1 23/3/1 24/4/1
f 25/1/1 26/2/1 27/3/1 28/4/1
f 29/1/1 30/2/1 31/3/1 32/4/1
f 33/1/1 34/2/1 35/3/1 36/4/1
f 37/1/1 38/2/1 39/3/1 40/4/1
f 41/1/1 42/2/1 43/3/1 44/4/1
f 45/1/1 46/2/1 47/3/1 48/4/1
f 49/1/1 50/2/1 51/3/1 52/4/1
f 53/1/1 54/2/1 55/3/1 56/4/1
f 57/1/1 58/2/1 59/3/1 60/4/1
f 61/1/1 62/2/1 63/3/1 64/4/1
f 65/1/1 66/2/1 67/3/1 68/4/1
f 69/1/1 70/2/1 71/3/1 72/4/1
f 73/1/1 74/2/1 75/3/1 76/4/1
f 77/1/1 78/2/1 79/3/1 80/4/1
f 81/1/1 82/2/1 83/3/1 84/4/1
f 85/1/1 86/2/1 87/3/1 88/4/1
f 89/1/1 90/2/1 91/3/1 92/4/1
f 93/1/1 94/2/1 95/3/1 96/4/1
f 97/1/1 98/2/1 99/3/1 100/4/1
f 101/1/1 102/2/1 103/3/1 104/4/1
f 105/1/1 106/2/1 107/3/1 108/4/1
f 109/1/1 110/2/1 111/3/1 112/4/1
f 113/1/1 114/2/1 115/3/1 116/4/1
f 117/1/1 118/2/1 119/3/1 120/4/1
f 121/1/1 122/2/1 123/3/1 124/4/1
f 125/1/1 126/2/1 127/3/1 128/4/1
f 129/1/1 130/2/1 131/3/1 132/4/1
f 133/1/1 134/2/1 135/3/1 136/4/1
f 137/1/1 138/2/1 139/3/1 140/4/1
f 141/1/1 142/2/1 143/3/1 144/4/1
f 145/1/1 146/2/1 147/3/1 148/4/1
f 149/1/1 150/2/1 151/3/1 152/4/1
f 153/1/1 154/2/1 155/3/1 156/4/1
f 157/1/1 158/2/1 159/3/1 160/4/1
f 161/1/1 162/2/1 163/3/1 164/4/1
f 165/1/1 166/2/1 167/3/1 168/4/1
f 169/1/1 170/2/1 171/3/1 172/4/1
f 173/1/1 174/2/1 175/3/1 176/4/1
f 177/1/1 178/2/1 179/3/1 180/4/1
f 181/1/1 182/2/1 183/3/1 184/4/1
f 185/1/1 186/2/1 187/3/1 188/4/1
f 189/1/1 190/2/1 191/3/1 192/4/1
f 193/1/1 194/2/1 195/3/1 196/4/1
f 197/1/1 198/2/1 199/3/1 200/4/1
f 201/1/1 202/2/1 203/3/1 204/4/1
f 205/1/1 206/2/1 207/3/1 208/4/1
f 209/1/1 210/2/1 211/3/1 212/4/1
f 213/1/1 214/2/1 215/3/1 216/4/1
f 217/1/1 218/2/1 219/3/1 220/4/1
f 221/1/1 222/2/1 223/3/1 224/4/1
f 225/1/1 226/2/1 227/3/1 228/4/1
f 229/1/1 230/2/1 231/3/1 232/4/1
f 233/1/1 234/2/1 235/3/1 236/4/1
f 237/1/1 238/2/1 239/3/1 240/4/1
f 241/1/1 242/2/1 243/3/1 244/4/1
f 245/1/1 246/2/1 247/3/1 248/4/1
f 249/1/1 250/2/1 251/3/1 252/4/1
f 253/1/1 254/2/1 255/3/1 256/4/1
f 257/1/1 258/2/1 259/3/1 260/4/1
f 261/1/1 262/2/1 263/3/1 264/4/1
f 265/1/1 266/2/1 267/3/1 268/4/1

