# Tiled2Unity generated file. Do not modify by hand.
# Wavefront file for 'lernaIsland_2_mesh_0002.obj'

# Vertices (Count = 216)
v -21 -18 0
v -22 -18 0
v -22 -17 0
v -21 -17 0
v -22 -18 0
v -23 -18 0
v -23 -17 0
v -22 -17 0
v -24 -18 0
v -25 -18 0
v -25 -17 0
v -24 -17 0
v -25 -18 0
v -26 -18 0
v -26 -17 0
v -25 -17 0
v -21 -19 0
v -22 -19 0
v -22 -18 0
v -21 -18 0
v -22 -19 0
v -23 -19 0
v -23 -18 0
v -22 -18 0
v -23 -19 0
v -24 -19 0
v -24 -18 0
v -23 -18 0
v -24 -19 0
v -25 -19 0
v -25 -18 0
v -24 -18 0
v -25 -19 0
v -26 -19 0
v -26 -18 0
v -25 -18 0
v -21 -20 0
v -22 -20 0
v -22 -19 0
v -21 -19 0
v -22 -20 0
v -23 -20 0
v -23 -19 0
v -22 -19 0
v -23 -20 0
v -24 -20 0
v -24 -19 0
v -23 -19 0
v -24 -20 0
v -25 -20 0
v -25 -19 0
v -24 -19 0
v -25 -20 0
v -26 -20 0
v -26 -19 0
v -25 -19 0
v -14 -21 0
v -15 -21 0
v -15 -20 0
v -14 -20 0
v -15 -21 0
v -16 -21 0
v -16 -20 0
v -15 -20 0
v -17 -21 0
v -18 -21 0
v -18 -20 0
v -17 -20 0
v -18 -21 0
v -19 -21 0
v -19 -20 0
v -18 -20 0
v -28 -21 0
v -29 -21 0
v -29 -20 0
v -28 -20 0
v -29 -21 0
v -30 -21 0
v -30 -20 0
v -29 -20 0
v -31 -21 0
v -32 -21 0
v -32 -20 0
v -31 -20 0
v -32 -21 0
v -33 -21 0
v -33 -20 0
v -32 -20 0
v -14 -22 0
v -15 -22 0
v -15 -21 0
v -14 -21 0
v -15 -22 0
v -16 -22 0
v -16 -21 0
v -15 -21 0
v -17 -22 0
v -18 -22 0
v -18 -21 0
v -17 -21 0
v -18 -22 0
v -19 -22 0
v -19 -21 0
v -18 -21 0
v -28 -22 0
v -29 -22 0
v -29 -21 0
v -28 -21 0
v -29 -22 0
v -30 -22 0
v -30 -21 0
v -29 -21 0
v -31 -22 0
v -32 -22 0
v -32 -21 0
v -31 -21 0
v -32 -22 0
v -33 -22 0
v -33 -21 0
v -32 -21 0
v -14 -23 0
v -15 -23 0
v -15 -22 0
v -14 -22 0
v -15 -23 0
v -16 -23 0
v -16 -22 0
v -15 -22 0
v -17 -23 0
v -18 -23 0
v -18 -22 0
v -17 -22 0
v -18 -23 0
v -19 -23 0
v -19 -22 0
v -18 -22 0
v -28 -23 0
v -29 -23 0
v -29 -22 0
v -28 -22 0
v -29 -23 0
v -30 -23 0
v -30 -22 0
v -29 -22 0
v -31 -23 0
v -32 -23 0
v -32 -22 0
v -31 -22 0
v -32 -23 0
v -33 -23 0
v -33 -22 0
v -32 -22 0
v -14 -24 0
v -15 -24 0
v -15 -23 0
v -14 -23 0
v -15 -24 0
v -16 -24 0
v -16 -23 0
v -15 -23 0
v -17 -24 0
v -18 -24 0
v -18 -23 0
v -17 -23 0
v -18 -24 0
v -19 -24 0
v -19 -23 0
v -18 -23 0
v -28 -24 0
v -29 -24 0
v -29 -23 0
v -28 -23 0
v -29 -24 0
v -30 -24 0
v -30 -23 0
v -29 -23 0
v -31 -24 0
v -32 -24 0
v -32 -23 0
v -31 -23 0
v -32 -24 0
v -33 -24 0
v -33 -23 0
v -32 -23 0
v -14 -25 0
v -15 -25 0
v -15 -24 0
v -14 -24 0
v -15 -25 0
v -16 -25 0
v -16 -24 0
v -15 -24 0
v -17 -25 0
v -18 -25 0
v -18 -24 0
v -17 -24 0
v -18 -25 0
v -19 -25 0
v -19 -24 0
v -18 -24 0
v -28 -25 0
v -29 -25 0
v -29 -24 0
v -28 -24 0
v -29 -25 0
v -30 -25 0
v -30 -24 0
v -29 -24 0
v -31 -25 0
v -32 -25 0
v -32 -24 0
v -31 -24 0
v -32 -25 0
v -33 -25 0
v -33 -24 0
v -32 -24 0

# Texture cooridinates (Count = 56)
vt 0.8127295 0.8752294
vt 0.8323134 0.8752294
vt 0.8323134 0.9045871
vt 0.8127295 0.9045871
vt 0.2301102 0.7504587
vt 0.249694 0.7504587
vt 0.249694 0.7798165
vt 0.2301102 0.7798165
vt 0.2717258 0.7504587
vt 0.2913097 0.7504587
vt 0.2913097 0.7798165
vt 0.2717258 0.7798165
vt 0.8959608 0.8752294
vt 0.9155447 0.8752294
vt 0.9155447 0.9045871
vt 0.8959608 0.9045871
vt 0.9583843 0.8752294
vt 0.9779682 0.8752294
vt 0.9779682 0.9045871
vt 0.9583843 0.9045871
vt 0.9791921 0.8752294
vt 0.998776 0.8752294
vt 0.998776 0.9045871
vt 0.9791921 0.9045871
vt 0.00122399 0.8440367
vt 0.02080783 0.8440367
vt 0.02080783 0.8733945
vt 0.00122399 0.8733945
vt 0.02203182 0.8440367
vt 0.04161567 0.8440367
vt 0.04161567 0.8733945
vt 0.02203182 0.8733945
vt 0.04283966 0.8440367
vt 0.0624235 0.8440367
vt 0.0624235 0.8733945
vt 0.04283966 0.8733945
vt 0.1884945 0.8440367
vt 0.2080783 0.8440367
vt 0.2080783 0.8733945
vt 0.1884945 0.8733945
vt 0.2093023 0.8440367
vt 0.2288862 0.8440367
vt 0.2288862 0.8733945
vt 0.2093023 0.8733945
vt 0.2301102 0.8440367
vt 0.249694 0.8440367
vt 0.249694 0.8733945
vt 0.2301102 0.8733945
vt 0.250918 0.8440367
vt 0.2705018 0.8440367
vt 0.2705018 0.8733945
vt 0.250918 0.8733945
vt 0.2717258 0.8440367
vt 0.2913097 0.8440367
vt 0.2913097 0.8733945
vt 0.2717258 0.8733945

# Normal
vn 0 0 -1

# Mesh description
g lernaIsland_2_mesh_0002

# Faces
f 1/1/1 2/2/1 3/3/1 4/4/1
f 5/5/1 6/6/1 7/7/1 8/8/1
f 9/9/1 10/10/1 11/11/1 12/12/1
f 13/13/1 14/14/1 15/15/1 16/16/1
f 17/17/1 18/18/1 19/19/1 20/20/1
f 21/21/1 22/22/1 23/23/1 24/24/1
f 25/25/1 26/26/1 27/27/1 28/28/1
f 29/29/1 30/30/1 31/31/1 32/32/1
f 33/33/1 34/34/1 35/35/1 36/36/1
f 37/37/1 38/38/1 39/39/1 40/40/1
f 41/41/1 42/42/1 43/43/1 44/44/1
f 45/45/1 46/46/1 47/47/1 48/48/1
f 49/49/1 50/50/1 51/51/1 52/52/1
f 53/53/1 54/54/1 55/55/1 56/56/1
f 57/1/1 58/2/1 59/3/1 60/4/1
f 61/5/1 62/6/1 63/7/1 64/8/1
f 65/9/1 66/10/1 67/11/1 68/12/1
f 69/13/1 70/14/1 71/15/1 72/16/1
f 73/1/1 74/2/1 75/3/1 76/4/1
f 77/5/1 78/6/1 79/7/1 80/8/1
f 81/9/1 82/10/1 83/11/1 84/12/1
f 85/13/1 86/14/1 87/15/1 88/16/1
f 89/17/1 90/18/1 91/19/1 92/20/1
f 93/21/1 94/22/1 95/23/1 96/24/1
f 97/29/1 98/30/1 99/31/1 100/32/1
f 101/33/1 102/34/1 103/35/1 104/36/1
f 105/17/1 106/18/1 107/19/1 108/20/1
f 109/21/1 110/22/1 111/23/1 112/24/1
f 113/29/1 114/30/1 115/31/1 116/32/1
f 117/33/1 118/34/1 119/35/1 120/36/1
f 121/1/1 122/2/1 123/3/1 124/4/1
f 125/5/1 126/6/1 127/7/1 128/8/1
f 129/9/1 130/10/1 131/11/1 132/12/1
f 133/13/1 134/14/1 135/15/1 136/16/1
f 137/1/1 138/2/1 139/3/1 140/4/1
f 141/5/1 142/6/1 143/7/1 144/8/1
f 145/9/1 146/10/1 147/11/1 148/12/1
f 149/13/1 150/14/1 151/15/1 152/16/1
f 153/17/1 154/18/1 155/19/1 156/20/1
f 157/21/1 158/22/1 159/23/1 160/24/1
f 161/29/1 162/30/1 163/31/1 164/32/1
f 165/33/1 166/34/1 167/35/1 168/36/1
f 169/17/1 170/18/1 171/19/1 172/20/1
f 173/21/1 174/22/1 175/23/1 176/24/1
f 177/29/1 178/30/1 179/31/1 180/32/1
f 181/33/1 182/34/1 183/35/1 184/36/1
f 185/37/1 186/38/1 187/39/1 188/40/1
f 189/41/1 190/42/1 191/43/1 192/44/1
f 193/49/1 194/50/1 195/51/1 196/52/1
f 197/53/1 198/54/1 199/55/1 200/56/1
f 201/37/1 202/38/1 203/39/1 204/40/1
f 205/41/1 206/42/1 207/43/1 208/44/1
f 209/49/1 210/50/1 211/51/1 212/52/1
f 213/53/1 214/54/1 215/55/1 216/56/1

