# Tiled2Unity generated file. Do not modify by hand.
# Wavefront file for 'lernaIsland_2_mesh_0006.obj'

# Vertices (Count = 276)
v -20 -19 0
v -21 -19 0
v -21 -18 0
v -20 -18 0
v -26 -19 0
v -27 -19 0
v -27 -18 0
v -26 -18 0
v -19 -20 0
v -20 -20 0
v -20 -19 0
v -19 -19 0
v -20 -20 0
v -21 -20 0
v -21 -19 0
v -20 -19 0
v -26 -20 0
v -27 -20 0
v -27 -19 0
v -26 -19 0
v -27 -20 0
v -28 -20 0
v -28 -19 0
v -27 -19 0
v -19 -21 0
v -20 -21 0
v -20 -20 0
v -19 -20 0
v -20 -21 0
v -21 -21 0
v -21 -20 0
v -20 -20 0
v -23 -21 0
v -24 -21 0
v -24 -20 0
v -23 -20 0
v -26 -21 0
v -27 -21 0
v -27 -20 0
v -26 -20 0
v -27 -21 0
v -28 -21 0
v -28 -20 0
v -27 -20 0
v -13 -22 0
v -14 -22 0
v -14 -21 0
v -13 -21 0
v -19 -22 0
v -20 -22 0
v -20 -21 0
v -19 -21 0
v -20 -22 0
v -21 -22 0
v -21 -21 0
v -20 -21 0
v -21 -22 0
v -22 -22 0
v -22 -21 0
v -21 -21 0
v -22 -22 0
v -23 -22 0
v -23 -21 0
v -22 -21 0
v -24 -22 0
v -25 -22 0
v -25 -21 0
v -24 -21 0
v -26 -22 0
v -27 -22 0
v -27 -21 0
v -26 -21 0
v -27 -22 0
v -28 -22 0
v -28 -21 0
v -27 -21 0
v -33 -22 0
v -34 -22 0
v -34 -21 0
v -33 -21 0
v -13 -23 0
v -14 -23 0
v -14 -22 0
v -13 -22 0
v -19 -23 0
v -20 -23 0
v -20 -22 0
v -19 -22 0
v -20 -23 0
v -21 -23 0
v -21 -22 0
v -20 -22 0
v -21 -23 0
v -22 -23 0
v -22 -22 0
v -21 -22 0
v -22 -23 0
v -23 -23 0
v -23 -22 0
v -22 -22 0
v -23 -23 0
v -24 -23 0
v -24 -22 0
v -23 -22 0
v -24 -23 0
v -25 -23 0
v -25 -22 0
v -24 -22 0
v -25 -23 0
v -26 -23 0
v -26 -22 0
v -25 -22 0
v -26 -23 0
v -27 -23 0
v -27 -22 0
v -26 -22 0
v -27 -23 0
v -28 -23 0
v -28 -22 0
v -27 -22 0
v -33 -23 0
v -34 -23 0
v -34 -22 0
v -33 -22 0
v -13 -24 0
v -14 -24 0
v -14 -23 0
v -13 -23 0
v -19 -24 0
v -20 -24 0
v -20 -23 0
v -19 -23 0
v -20 -24 0
v -21 -24 0
v -21 -23 0
v -20 -23 0
v -21 -24 0
v -22 -24 0
v -22 -23 0
v -21 -23 0
v -22 -24 0
v -23 -24 0
v -23 -23 0
v -22 -23 0
v -23 -24 0
v -24 -24 0
v -24 -23 0
v -23 -23 0
v -24 -24 0
v -25 -24 0
v -25 -23 0
v -24 -23 0
v -27 -24 0
v -28 -24 0
v -28 -23 0
v -27 -23 0
v -33 -24 0
v -34 -24 0
v -34 -23 0
v -33 -23 0
v -13 -25 0
v -14 -25 0
v -14 -24 0
v -13 -24 0
v -19 -25 0
v -20 -25 0
v -20 -24 0
v -19 -24 0
v -20 -25 0
v -21 -25 0
v -21 -24 0
v -20 -24 0
v -21 -25 0
v -22 -25 0
v -22 -24 0
v -21 -24 0
v -22 -25 0
v -23 -25 0
v -23 -24 0
v -22 -24 0
v -24 -25 0
v -25 -25 0
v -25 -24 0
v -24 -24 0
v -26 -25 0
v -27 -25 0
v -27 -24 0
v -26 -24 0
v -33 -25 0
v -34 -25 0
v -34 -24 0
v -33 -24 0
v -16 -26 0
v -17 -26 0
v -17 -25 0
v -16 -25 0
v -19 -26 0
v -20 -26 0
v -20 -25 0
v -19 -25 0
v -21 -26 0
v -22 -26 0
v -22 -25 0
v -21 -25 0
v -22 -26 0
v -23 -26 0
v -23 -25 0
v -22 -25 0
v -24 -26 0
v -25 -26 0
v -25 -25 0
v -24 -25 0
v -25 -26 0
v -26 -26 0
v -26 -25 0
v -25 -25 0
v -26 -26 0
v -27 -26 0
v -27 -25 0
v -26 -25 0
v -30 -26 0
v -31 -26 0
v -31 -25 0
v -30 -25 0
v -16 -27 0
v -17 -27 0
v -17 -26 0
v -16 -26 0
v -17 -27 0
v -18 -27 0
v -18 -26 0
v -17 -26 0
v -18 -27 0
v -19 -27 0
v -19 -26 0
v -18 -26 0
v -21 -27 0
v -22 -27 0
v -22 -26 0
v -21 -26 0
v -23 -27 0
v -24 -27 0
v -24 -26 0
v -23 -26 0
v -25 -27 0
v -26 -27 0
v -26 -26 0
v -25 -26 0
v -26 -27 0
v -27 -27 0
v -27 -26 0
v -26 -26 0
v -27 -27 0
v -28 -27 0
v -28 -26 0
v -27 -26 0
v -28 -27 0
v -29 -27 0
v -29 -26 0
v -28 -26 0
v -29 -27 0
v -30 -27 0
v -30 -26 0
v -29 -26 0
v -30 -27 0
v -31 -27 0
v -31 -26 0
v -30 -26 0
v -20 -28 0
v -21 -28 0
v -21 -27 0
v -20 -27 0
v -23 -28 0
v -24 -28 0
v -24 -27 0
v -23 -27 0

# Texture cooridinates (Count = 92)
vt 0.6462668 0.8752294
vt 0.6658507 0.8752294
vt 0.6658507 0.9045871
vt 0.6462668 0.9045871
vt 0.1676867 0.6568807
vt 0.1872705 0.6568807
vt 0.1872705 0.6862385
vt 0.1676867 0.6862385
vt 0.5838434 0.5944954
vt 0.6034272 0.5944954
vt 0.6034272 0.6238532
vt 0.5838434 0.6238532
vt 0.00122399 0.906422
vt 0.02080783 0.906422
vt 0.02080783 0.9357798
vt 0.00122399 0.9357798
vt 0.6878825 0.5944954
vt 0.7074664 0.5944954
vt 0.7074664 0.6238532
vt 0.6878825 0.6238532
vt 0.7294981 0.5944954
vt 0.749082 0.5944954
vt 0.749082 0.6238532
vt 0.7294981 0.6238532
vt 0.4589963 0.5944954
vt 0.4785802 0.5944954
vt 0.4785802 0.6238532
vt 0.4589963 0.6238532
vt 0.5630355 0.5944954
vt 0.5826193 0.5944954
vt 0.5826193 0.6238532
vt 0.5630355 0.6238532
vt 0.6046512 0.5944954
vt 0.624235 0.5944954
vt 0.624235 0.6238532
vt 0.6046512 0.6238532
vt 0.6670747 0.5944954
vt 0.6866585 0.5944954
vt 0.6866585 0.6238532
vt 0.6670747 0.6238532
vt 0.4173807 0.5944954
vt 0.4369645 0.5944954
vt 0.4369645 0.6238532
vt 0.4173807 0.6238532
vt 0.5422277 0.5944954
vt 0.5618115 0.5944954
vt 0.5618115 0.6238532
vt 0.5422277 0.6238532
vt 0.7919217 0.5944954
vt 0.8115055 0.5944954
vt 0.8115055 0.6238532
vt 0.7919217 0.6238532
vt 0.4381885 0.5944954
vt 0.4577723 0.5944954
vt 0.4577723 0.6238532
vt 0.4381885 0.6238532
vt 0.5214198 0.5944954
vt 0.5410036 0.5944954
vt 0.5410036 0.6238532
vt 0.5214198 0.6238532
vt 0.500612 0.5944954
vt 0.5201958 0.5944954
vt 0.5201958 0.6238532
vt 0.500612 0.6238532
vt 0.7711138 0.5944954
vt 0.7906977 0.5944954
vt 0.7906977 0.6238532
vt 0.7711138 0.6238532
vt 0.3965728 0.5944954
vt 0.4161567 0.5944954
vt 0.4161567 0.6238532
vt 0.3965728 0.6238532
vt 0.6462668 0.5944954
vt 0.6658507 0.5944954
vt 0.6658507 0.6238532
vt 0.6462668 0.6238532
vt 0.8127295 0.5944954
vt 0.8323134 0.5944954
vt 0.8323134 0.6238532
vt 0.8127295 0.6238532
vt 0.3549572 0.5944954
vt 0.374541 0.5944954
vt 0.374541 0.6238532
vt 0.3549572 0.6238532
vt 0.750306 0.5944954
vt 0.7698898 0.5944954
vt 0.7698898 0.6238532
vt 0.750306 0.6238532
vt 0.625459 0.5944954
vt 0.6450428 0.5944954
vt 0.6450428 0.6238532
vt 0.625459 0.6238532

# Normal
vn 0 0 -1

# Mesh description
g lernaIsland_2_mesh_0006

# Faces
f 1/1/1 2/2/1 3/3/1 4/4/1
f 5/1/1 6/2/1 7/3/1 8/4/1
f 9/1/1 10/2/1 11/3/1 12/4/1
f 13/5/1 14/6/1 15/7/1 16/8/1
f 17/5/1 18/6/1 19/7/1 20/8/1
f 21/1/1 22/2/1 23/3/1 24/4/1
f 25/5/1 26/6/1 27/7/1 28/8/1
f 29/5/1 30/6/1 31/7/1 32/8/1
f 33/9/1 34/10/1 35/11/1 36/12/1
f 37/5/1 38/6/1 39/7/1 40/8/1
f 41/5/1 42/6/1 43/7/1 44/8/1
f 45/1/1 46/2/1 47/3/1 48/4/1
f 49/5/1 50/6/1 51/7/1 52/8/1
f 53/13/1 54/14/1 55/15/1 56/16/1
f 57/17/1 58/18/1 59/19/1 60/20/1
f 61/21/1 62/22/1 63/23/1 64/24/1
f 65/25/1 66/26/1 67/27/1 68/28/1
f 69/13/1 70/14/1 71/15/1 72/16/1
f 73/5/1 74/6/1 75/7/1 76/8/1
f 77/1/1 78/2/1 79/3/1 80/4/1
f 81/5/1 82/6/1 83/7/1 84/8/1
f 85/13/1 86/14/1 87/15/1 88/16/1
f 89/29/1 90/30/1 91/31/1 92/32/1
f 93/33/1 94/34/1 95/35/1 96/36/1
f 97/9/1 98/10/1 99/11/1 100/12/1
f 101/37/1 102/38/1 103/39/1 104/40/1
f 105/41/1 106/42/1 107/43/1 108/44/1
f 109/33/1 110/34/1 111/35/1 112/36/1
f 113/25/1 114/26/1 115/27/1 116/28/1
f 117/13/1 118/14/1 119/15/1 120/16/1
f 121/5/1 122/6/1 123/7/1 124/8/1
f 125/5/1 126/6/1 127/7/1 128/8/1
f 129/17/1 130/18/1 131/19/1 132/20/1
f 133/41/1 134/42/1 135/43/1 136/44/1
f 137/45/1 138/46/1 139/47/1 140/48/1
f 141/49/1 142/50/1 143/51/1 144/52/1
f 145/53/1 146/54/1 147/55/1 148/56/1
f 149/57/1 150/58/1 151/59/1 152/60/1
f 153/49/1 154/50/1 155/51/1 156/52/1
f 157/5/1 158/6/1 159/7/1 160/8/1
f 161/13/1 162/14/1 163/15/1 164/16/1
f 165/61/1 166/62/1 167/63/1 168/64/1
f 169/25/1 170/26/1 171/27/1 172/28/1
f 173/45/1 174/46/1 175/47/1 176/48/1
f 177/21/1 178/22/1 179/23/1 180/24/1
f 181/65/1 182/66/1 183/67/1 184/68/1
f 185/41/1 186/42/1 187/43/1 188/44/1
f 189/13/1 190/14/1 191/15/1 192/16/1
f 193/69/1 194/70/1 195/71/1 196/72/1
f 197/41/1 198/42/1 199/43/1 200/44/1
f 201/49/1 202/50/1 203/51/1 204/52/1
f 205/37/1 206/38/1 207/39/1 208/40/1
f 209/73/1 210/74/1 211/75/1 212/76/1
f 213/45/1 214/46/1 215/47/1 216/48/1
f 217/77/1 218/78/1 219/79/1 220/80/1
f 221/45/1 222/46/1 223/47/1 224/48/1
f 225/33/1 226/34/1 227/35/1 228/36/1
f 229/73/1 230/74/1 231/75/1 232/76/1
f 233/29/1 234/30/1 235/31/1 236/32/1
f 237/25/1 238/26/1 239/27/1 240/28/1
f 241/49/1 242/50/1 243/51/1 244/52/1
f 245/81/1 246/82/1 247/83/1 248/84/1
f 249/85/1 250/86/1 251/87/1 252/88/1
f 253/77/1 254/78/1 255/79/1 256/80/1
f 257/69/1 258/70/1 259/71/1 260/72/1
f 261/89/1 262/90/1 263/91/1 264/92/1
f 265/29/1 266/30/1 267/31/1 268/32/1
f 269/65/1 270/66/1 271/67/1 272/68/1
f 273/81/1 274/82/1 275/83/1 276/84/1

