# Tiled2Unity generated file. Do not modify by hand.
# Wavefront file for 'lernaIsland_2_mesh_0009.obj'

# Vertices (Count = 72)
v -15 -16 0
v -16 -16 0
v -16 -15 0
v -15 -15 0
v -16 -16 0
v -17 -16 0
v -17 -15 0
v -16 -15 0
v -17 -16 0
v -18 -16 0
v -18 -15 0
v -17 -15 0
v -29 -16 0
v -30 -16 0
v -30 -15 0
v -29 -15 0
v -30 -16 0
v -31 -16 0
v -31 -15 0
v -30 -15 0
v -31 -16 0
v -32 -16 0
v -32 -15 0
v -31 -15 0
v -15 -17 0
v -16 -17 0
v -16 -16 0
v -15 -16 0
v -16 -17 0
v -17 -17 0
v -17 -16 0
v -16 -16 0
v -17 -17 0
v -18 -17 0
v -18 -16 0
v -17 -16 0
v -29 -17 0
v -30 -17 0
v -30 -16 0
v -29 -16 0
v -30 -17 0
v -31 -17 0
v -31 -16 0
v -30 -16 0
v -31 -17 0
v -32 -17 0
v -32 -16 0
v -31 -16 0
v -15 -18 0
v -16 -18 0
v -16 -17 0
v -15 -17 0
v -16 -18 0
v -17 -18 0
v -17 -17 0
v -16 -17 0
v -17 -18 0
v -18 -18 0
v -18 -17 0
v -17 -17 0
v -29 -18 0
v -30 -18 0
v -30 -17 0
v -29 -17 0
v -30 -18 0
v -31 -18 0
v -31 -17 0
v -30 -17 0
v -31 -18 0
v -32 -18 0
v -32 -17 0
v -31 -17 0

# Texture cooridinates (Count = 36)
vt 0.6462668 0.4385321
vt 0.6658507 0.4385321
vt 0.6658507 0.4678899
vt 0.6462668 0.4678899
vt 0.6670747 0.4385321
vt 0.6866585 0.4385321
vt 0.6866585 0.4678899
vt 0.6670747 0.4678899
vt 0.6878825 0.4385321
vt 0.7074664 0.4385321
vt 0.7074664 0.4678899
vt 0.6878825 0.4678899
vt 0.7711138 0.4385321
vt 0.7906977 0.4385321
vt 0.7906977 0.4678899
vt 0.7711138 0.4678899
vt 0.7919217 0.4385321
vt 0.8115055 0.4385321
vt 0.8115055 0.4678899
vt 0.7919217 0.4678899
vt 0.8127295 0.4385321
vt 0.8323134 0.4385321
vt 0.8323134 0.4678899
vt 0.8127295 0.4678899
vt 0.8959608 0.4385321
vt 0.9155447 0.4385321
vt 0.9155447 0.4678899
vt 0.8959608 0.4678899
vt 0.9167687 0.4385321
vt 0.9363525 0.4385321
vt 0.9363525 0.4678899
vt 0.9167687 0.4678899
vt 0.9375765 0.4385321
vt 0.9571604 0.4385321
vt 0.9571604 0.4678899
vt 0.9375765 0.4678899

# Normal
vn 0 0 -1

# Mesh description
g lernaIsland_2_mesh_0009

# Faces
f 1/1/1 2/2/1 3/3/1 4/4/1
f 5/5/1 6/6/1 7/7/1 8/8/1
f 9/9/1 10/10/1 11/11/1 12/12/1
f 13/10/1 14/9/1 15/12/1 16/11/1
f 17/6/1 18/5/1 19/8/1 20/7/1
f 21/2/1 22/1/1 23/4/1 24/3/1
f 25/13/1 26/14/1 27/15/1 28/16/1
f 29/17/1 30/18/1 31/19/1 32/20/1
f 33/21/1 34/22/1 35/23/1 36/24/1
f 37/22/1 38/21/1 39/24/1 40/23/1
f 41/18/1 42/17/1 43/20/1 44/19/1
f 45/14/1 46/13/1 47/16/1 48/15/1
f 49/25/1 50/26/1 51/27/1 52/28/1
f 53/29/1 54/30/1 55/31/1 56/32/1
f 57/33/1 58/34/1 59/35/1 60/36/1
f 61/34/1 62/33/1 63/36/1 64/35/1
f 65/30/1 66/29/1 67/32/1 68/31/1
f 69/26/1 70/25/1 71/28/1 72/27/1

