# Tiled2Unity generated file. Do not modify by hand.
# Wavefront file for 'lufia1_mesh_0003.obj'

# Vertices (Count = 40)
v -64 -96 0
v -80 -96 0
v -80 -80 0
v -64 -80 0
v -160 -112 0
v -176 -112 0
v -176 -96 0
v -160 -96 0
v -96 -128 0
v -112 -128 0
v -112 -112 0
v -96 -112 0
v -192 -144 0
v -208 -144 0
v -208 -128 0
v -192 -128 0
v -208 -144 0
v -224 -144 0
v -224 -128 0
v -208 -128 0
v -192 -160 0
v -208 -160 0
v -208 -144 0
v -192 -144 0
v -208 -160 0
v -224 -160 0
v -224 -144 0
v -208 -144 0
v -64 -176 0
v -80 -176 0
v -80 -160 0
v -64 -160 0
v -208 -176 0
v -224 -176 0
v -224 -160 0
v -208 -160 0
v -64 -224 0
v -80 -224 0
v -80 -208 0
v -64 -208 0

# Texture cooridinates (Count = 16)
vt 0.3549572 0.812844
vt 0.374541 0.812844
vt 0.374541 0.8422018
vt 0.3549572 0.8422018
vt 0.04283966 0.8752294
vt 0.0624235 0.8752294
vt 0.0624235 0.9045871
vt 0.04283966 0.9045871
vt 0.126071 0.5321101
vt 0.1456548 0.5321101
vt 0.1456548 0.5614679
vt 0.126071 0.5614679
vt 0.3341493 0.812844
vt 0.3537332 0.812844
vt 0.3537332 0.8422018
vt 0.3341493 0.8422018

# Normal
vn 0 0 -1

# Mesh description
g lufia1_mesh_0003

# Faces
f 1/1/1 2/2/1 3/3/1 4/4/1
f 5/5/1 6/6/1 7/7/1 8/8/1
f 9/9/1 10/10/1 11/11/1 12/12/1
f 13/13/1 14/14/1 15/15/1 16/16/1
f 17/13/1 18/14/1 19/15/1 20/16/1
f 21/13/1 22/14/1 23/15/1 24/16/1
f 25/13/1 26/14/1 27/15/1 28/16/1
f 29/1/1 30/2/1 31/3/1 32/4/1
f 33/13/1 34/14/1 35/15/1 36/16/1
f 37/9/1 38/10/1 39/11/1 40/12/1

