# Tiled2Unity generated file. Do not modify by hand.
# Wavefront file for 'lufia1_mesh_0002.obj'

# Vertices (Count = 8)
v -128 -48 0
v -144 -48 0
v -144 -32 0
v -128 -32 0
v -128 -64 0
v -144 -64 0
v -144 -48 0
v -128 -48 0

# Texture cooridinates (Count = 8)
vt 0.1676867 0.8440367
vt 0.1872705 0.8440367
vt 0.1872705 0.8733945
vt 0.1676867 0.8733945
vt 0.3133415 0.8440367
vt 0.3329253 0.8440367
vt 0.3329253 0.8733945
vt 0.3133415 0.8733945

# Normal
vn 0 0 -1

# Mesh description
g lufia1_mesh_0002

# Faces
f 1/1/1 2/2/1 3/3/1 4/4/1
f 5/5/1 6/6/1 7/7/1 8/8/1

