# Tiled2Unity generated file. Do not modify by hand.
# Wavefront file for 'emperorKingdom_2_mesh_0006.obj'

# Vertices (Count = 656)
v -21 -4 0
v -22 -4 0
v -22 -3 0
v -21 -3 0
v -22 -4 0
v -23 -4 0
v -23 -3 0
v -22 -3 0
v -23 -4 0
v -24 -4 0
v -24 -3 0
v -23 -3 0
v -24 -4 0
v -25 -4 0
v -25 -3 0
v -24 -3 0
v -25 -4 0
v -26 -4 0
v -26 -3 0
v -25 -3 0
v -21 -5 0
v -22 -5 0
v -22 -4 0
v -21 -4 0
v -22 -5 0
v -23 -5 0
v -23 -4 0
v -22 -4 0
v -23 -5 0
v -24 -5 0
v -24 -4 0
v -23 -4 0
v -24 -5 0
v -25 -5 0
v -25 -4 0
v -24 -4 0
v -25 -5 0
v -26 -5 0
v -26 -4 0
v -25 -4 0
v -21 -6 0
v -22 -6 0
v -22 -5 0
v -21 -5 0
v -22 -6 0
v -23 -6 0
v -23 -5 0
v -22 -5 0
v -23 -6 0
v -24 -6 0
v -24 -5 0
v -23 -5 0
v -24 -6 0
v -25 -6 0
v -25 -5 0
v -24 -5 0
v -25 -6 0
v -26 -6 0
v -26 -5 0
v -25 -5 0
v -21 -7 0
v -22 -7 0
v -22 -6 0
v -21 -6 0
v -22 -7 0
v -23 -7 0
v -23 -6 0
v -22 -6 0
v -23 -7 0
v -24 -7 0
v -24 -6 0
v -23 -6 0
v -24 -7 0
v -25 -7 0
v -25 -6 0
v -24 -6 0
v -25 -7 0
v -26 -7 0
v -26 -6 0
v -25 -6 0
v -21 -8 0
v -22 -8 0
v -22 -7 0
v -21 -7 0
v -22 -8 0
v -23 -8 0
v -23 -7 0
v -22 -7 0
v -23 -8 0
v -24 -8 0
v -24 -7 0
v -23 -7 0
v -24 -8 0
v -25 -8 0
v -25 -7 0
v -24 -7 0
v -25 -8 0
v -26 -8 0
v -26 -7 0
v -25 -7 0
v -21 -9 0
v -22 -9 0
v -22 -8 0
v -21 -8 0
v -22 -9 0
v -23 -9 0
v -23 -8 0
v -22 -8 0
v -23 -9 0
v -24 -9 0
v -24 -8 0
v -23 -8 0
v -24 -9 0
v -25 -9 0
v -25 -8 0
v -24 -8 0
v -25 -9 0
v -26 -9 0
v -26 -8 0
v -25 -8 0
v -23 -10 0
v -24 -10 0
v -24 -9 0
v -23 -9 0
v 0 -11 0
v -1 -11 0
v -1 -10 0
v 0 -10 0
v -1 -11 0
v -2 -11 0
v -2 -10 0
v -1 -10 0
v -2 -11 0
v -3 -11 0
v -3 -10 0
v -2 -10 0
v -3 -11 0
v -4 -11 0
v -4 -10 0
v -3 -10 0
v -4 -11 0
v -5 -11 0
v -5 -10 0
v -4 -10 0
v -5 -11 0
v -6 -11 0
v -6 -10 0
v -5 -10 0
v -6 -11 0
v -7 -11 0
v -7 -10 0
v -6 -10 0
v 0 -12 0
v -1 -12 0
v -1 -11 0
v 0 -11 0
v -1 -12 0
v -2 -12 0
v -2 -11 0
v -1 -11 0
v -2 -12 0
v -3 -12 0
v -3 -11 0
v -2 -11 0
v -3 -12 0
v -4 -12 0
v -4 -11 0
v -3 -11 0
v -4 -12 0
v -5 -12 0
v -5 -11 0
v -4 -11 0
v -5 -12 0
v -6 -12 0
v -6 -11 0
v -5 -11 0
v -6 -12 0
v -7 -12 0
v -7 -11 0
v -6 -11 0
v -9 -12 0
v -10 -12 0
v -10 -11 0
v -9 -11 0
v -10 -12 0
v -11 -12 0
v -11 -11 0
v -10 -11 0
v -11 -12 0
v -12 -12 0
v -12 -11 0
v -11 -11 0
v -12 -12 0
v -13 -12 0
v -13 -11 0
v -12 -11 0
v -14 -12 0
v -15 -12 0
v -15 -11 0
v -14 -11 0
v -15 -12 0
v -16 -12 0
v -16 -11 0
v -15 -11 0
v -16 -12 0
v -17 -12 0
v -17 -11 0
v -16 -11 0
v -17 -12 0
v -18 -12 0
v -18 -11 0
v -17 -11 0
v 0 -13 0
v -1 -13 0
v -1 -12 0
v 0 -12 0
v -1 -13 0
v -2 -13 0
v -2 -12 0
v -1 -12 0
v -2 -13 0
v -3 -13 0
v -3 -12 0
v -2 -12 0
v -3 -13 0
v -4 -13 0
v -4 -12 0
v -3 -12 0
v -4 -13 0
v -5 -13 0
v -5 -12 0
v -4 -12 0
v -5 -13 0
v -6 -13 0
v -6 -12 0
v -5 -12 0
v -6 -13 0
v -7 -13 0
v -7 -12 0
v -6 -12 0
v -7 -13 0
v -8 -13 0
v -8 -12 0
v -7 -12 0
v -9 -13 0
v -10 -13 0
v -10 -12 0
v -9 -12 0
v -10 -13 0
v -11 -13 0
v -11 -12 0
v -10 -12 0
v -11 -13 0
v -12 -13 0
v -12 -12 0
v -11 -12 0
v -12 -13 0
v -13 -13 0
v -13 -12 0
v -12 -12 0
v -14 -13 0
v -15 -13 0
v -15 -12 0
v -14 -12 0
v -15 -13 0
v -16 -13 0
v -16 -12 0
v -15 -12 0
v -16 -13 0
v -17 -13 0
v -17 -12 0
v -16 -12 0
v -17 -13 0
v -18 -13 0
v -18 -12 0
v -17 -12 0
v 0 -14 0
v -1 -14 0
v -1 -13 0
v 0 -13 0
v -1 -14 0
v -2 -14 0
v -2 -13 0
v -1 -13 0
v -2 -14 0
v -3 -14 0
v -3 -13 0
v -2 -13 0
v -3 -14 0
v -4 -14 0
v -4 -13 0
v -3 -13 0
v -4 -14 0
v -5 -14 0
v -5 -13 0
v -4 -13 0
v -5 -14 0
v -6 -14 0
v -6 -13 0
v -5 -13 0
v -9 -14 0
v -10 -14 0
v -10 -13 0
v -9 -13 0
v -10 -14 0
v -11 -14 0
v -11 -13 0
v -10 -13 0
v -11 -14 0
v -12 -14 0
v -12 -13 0
v -11 -13 0
v -12 -14 0
v -13 -14 0
v -13 -13 0
v -12 -13 0
v -14 -14 0
v -15 -14 0
v -15 -13 0
v -14 -13 0
v -15 -14 0
v -16 -14 0
v -16 -13 0
v -15 -13 0
v -16 -14 0
v -17 -14 0
v -17 -13 0
v -16 -13 0
v -17 -14 0
v -18 -14 0
v -18 -13 0
v -17 -13 0
v -4 -15 0
v -5 -15 0
v -5 -14 0
v -4 -14 0
v -10 -15 0
v -11 -15 0
v -11 -14 0
v -10 -14 0
v -15 -15 0
v -16 -15 0
v -16 -14 0
v -15 -14 0
v -23 -15 0
v -24 -15 0
v -24 -14 0
v -23 -14 0
v -24 -15 0
v -25 -15 0
v -25 -14 0
v -24 -14 0
v -10 -16 0
v -11 -16 0
v -11 -15 0
v -10 -15 0
v -15 -16 0
v -16 -16 0
v -16 -15 0
v -15 -15 0
v -23 -16 0
v -24 -16 0
v -24 -15 0
v -23 -15 0
v -24 -16 0
v -25 -16 0
v -25 -15 0
v -24 -15 0
v -5 -19 0
v -6 -19 0
v -6 -18 0
v -5 -18 0
v -6 -19 0
v -7 -19 0
v -7 -18 0
v -6 -18 0
v -17 -19 0
v -18 -19 0
v -18 -18 0
v -17 -18 0
v -18 -19 0
v -19 -19 0
v -19 -18 0
v -18 -18 0
v -5 -20 0
v -6 -20 0
v -6 -19 0
v -5 -19 0
v -6 -20 0
v -7 -20 0
v -7 -19 0
v -6 -19 0
v -17 -20 0
v -18 -20 0
v -18 -19 0
v -17 -19 0
v -18 -20 0
v -19 -20 0
v -19 -19 0
v -18 -19 0
v -21 -20 0
v -22 -20 0
v -22 -19 0
v -21 -19 0
v -22 -20 0
v -23 -20 0
v -23 -19 0
v -22 -19 0
v -23 -20 0
v -24 -20 0
v -24 -19 0
v -23 -19 0
v -24 -20 0
v -25 -20 0
v -25 -19 0
v -24 -19 0
v -25 -20 0
v -26 -20 0
v -26 -19 0
v -25 -19 0
v -21 -21 0
v -22 -21 0
v -22 -20 0
v -21 -20 0
v -22 -21 0
v -23 -21 0
v -23 -20 0
v -22 -20 0
v -23 -21 0
v -24 -21 0
v -24 -20 0
v -23 -20 0
v -24 -21 0
v -25 -21 0
v -25 -20 0
v -24 -20 0
v -25 -21 0
v -26 -21 0
v -26 -20 0
v -25 -20 0
v -11 -22 0
v -12 -22 0
v -12 -21 0
v -11 -21 0
v -12 -22 0
v -13 -22 0
v -13 -21 0
v -12 -21 0
v -21 -22 0
v -22 -22 0
v -22 -21 0
v -21 -21 0
v -22 -22 0
v -23 -22 0
v -23 -21 0
v -22 -21 0
v -23 -22 0
v -24 -22 0
v -24 -21 0
v -23 -21 0
v -24 -22 0
v -25 -22 0
v -25 -21 0
v -24 -21 0
v -25 -22 0
v -26 -22 0
v -26 -21 0
v -25 -21 0
v -10 -23 0
v -11 -23 0
v -11 -22 0
v -10 -22 0
v -11 -23 0
v -12 -23 0
v -12 -22 0
v -11 -22 0
v -12 -23 0
v -13 -23 0
v -13 -22 0
v -12 -22 0
v -22 -23 0
v -23 -23 0
v -23 -22 0
v -22 -22 0
v -23 -23 0
v -24 -23 0
v -24 -22 0
v -23 -22 0
v -24 -23 0
v -25 -23 0
v -25 -22 0
v -24 -22 0
v -23 -24 0
v -24 -24 0
v -24 -23 0
v -23 -23 0
v 0 -25 0
v -1 -25 0
v -1 -24 0
v 0 -24 0
v -1 -25 0
v -2 -25 0
v -2 -24 0
v -1 -24 0
v -2 -25 0
v -3 -25 0
v -3 -24 0
v -2 -24 0
v -3 -25 0
v -4 -25 0
v -4 -24 0
v -3 -24 0
v -4 -25 0
v -5 -25 0
v -5 -24 0
v -4 -24 0
v -16 -25 0
v -17 -25 0
v -17 -24 0
v -16 -24 0
v -17 -25 0
v -18 -25 0
v -18 -24 0
v -17 -24 0
v 0 -26 0
v -1 -26 0
v -1 -25 0
v 0 -25 0
v -1 -26 0
v -2 -26 0
v -2 -25 0
v -1 -25 0
v -2 -26 0
v -3 -26 0
v -3 -25 0
v -2 -25 0
v -3 -26 0
v -4 -26 0
v -4 -25 0
v -3 -25 0
v -4 -26 0
v -5 -26 0
v -5 -25 0
v -4 -25 0
v -5 -26 0
v -6 -26 0
v -6 -25 0
v -5 -25 0
v -6 -26 0
v -7 -26 0
v -7 -25 0
v -6 -25 0
v -7 -26 0
v -8 -26 0
v -8 -25 0
v -7 -25 0
v -8 -26 0
v -9 -26 0
v -9 -25 0
v -8 -25 0
v -9 -26 0
v -10 -26 0
v -10 -25 0
v -9 -25 0
v -16 -26 0
v -17 -26 0
v -17 -25 0
v -16 -25 0
v -17 -26 0
v -18 -26 0
v -18 -25 0
v -17 -25 0
v 0 -27 0
v -1 -27 0
v -1 -26 0
v 0 -26 0
v -1 -27 0
v -2 -27 0
v -2 -26 0
v -1 -26 0
v -2 -27 0
v -3 -27 0
v -3 -26 0
v -2 -26 0
v -3 -27 0
v -4 -27 0
v -4 -26 0
v -3 -26 0
v -4 -27 0
v -5 -27 0
v -5 -26 0
v -4 -26 0
v -5 -27 0
v -6 -27 0
v -6 -26 0
v -5 -26 0
v -6 -27 0
v -7 -27 0
v -7 -26 0
v -6 -26 0
v -7 -27 0
v -8 -27 0
v -8 -26 0
v -7 -26 0
v -8 -27 0
v -9 -27 0
v -9 -26 0
v -8 -26 0
v -9 -27 0
v -10 -27 0
v -10 -26 0
v -9 -26 0
v -1 -28 0
v -2 -28 0
v -2 -27 0
v -1 -27 0
v -2 -28 0
v -3 -28 0
v -3 -27 0
v -2 -27 0
v -3 -28 0
v -4 -28 0
v -4 -27 0
v -3 -27 0
v -5 -28 0
v -6 -28 0
v -6 -27 0
v -5 -27 0
v -6 -28 0
v -7 -28 0
v -7 -27 0
v -6 -27 0
v -7 -28 0
v -8 -28 0
v -8 -27 0
v -7 -27 0
v -8 -28 0
v -9 -28 0
v -9 -27 0
v -8 -27 0
v -9 -28 0
v -10 -28 0
v -10 -27 0
v -9 -27 0
v -15 -28 0
v -16 -28 0
v -16 -27 0
v -15 -27 0
v -7 -29 0
v -8 -29 0
v -8 -28 0
v -7 -28 0
v -8 -29 0
v -9 -29 0
v -9 -28 0
v -8 -28 0

# Texture cooridinates (Count = 140)
vt 0.1676867 0.8752294
vt 0.1872705 0.8752294
vt 0.1872705 0.9045871
vt 0.1676867 0.9045871
vt 0.1884945 0.8752294
vt 0.2080783 0.8752294
vt 0.2080783 0.9045871
vt 0.1884945 0.9045871
vt 0.2093023 0.8752294
vt 0.2288862 0.8752294
vt 0.2288862 0.9045871
vt 0.2093023 0.9045871
vt 0.2301102 0.8752294
vt 0.249694 0.8752294
vt 0.249694 0.9045871
vt 0.2301102 0.9045871
vt 0.250918 0.8752294
vt 0.2705018 0.8752294
vt 0.2705018 0.9045871
vt 0.250918 0.9045871
vt 0.3341493 0.8752294
vt 0.3537332 0.8752294
vt 0.3537332 0.9045871
vt 0.3341493 0.9045871
vt 0.06364749 0.7504587
vt 0.08323134 0.7504587
vt 0.08323134 0.7798165
vt 0.06364749 0.7798165
vt 0.3549572 0.8752294
vt 0.374541 0.8752294
vt 0.374541 0.9045871
vt 0.3549572 0.9045871
vt 0.08445533 0.7504587
vt 0.1040392 0.7504587
vt 0.1040392 0.7798165
vt 0.08445533 0.7798165
vt 0.375765 0.8752294
vt 0.3953488 0.8752294
vt 0.3953488 0.9045871
vt 0.375765 0.9045871
vt 0.3965728 0.9688073
vt 0.4161567 0.9688073
vt 0.4161567 0.9981651
vt 0.3965728 0.9981651
vt 0.4381885 0.9688073
vt 0.4577723 0.9688073
vt 0.4577723 0.9981651
vt 0.4381885 0.9981651
vt 0.250918 0.7504587
vt 0.2705018 0.7504587
vt 0.2705018 0.7798165
vt 0.250918 0.7798165
vt 0.3965728 0.8752294
vt 0.4161567 0.8752294
vt 0.4161567 0.9045871
vt 0.3965728 0.9045871
vt 0.4173807 0.8752294
vt 0.4369645 0.8752294
vt 0.4369645 0.9045871
vt 0.4173807 0.9045871
vt 0.4381885 0.8752294
vt 0.4577723 0.8752294
vt 0.4577723 0.9045871
vt 0.4381885 0.9045871
vt 0.4589963 0.9688073
vt 0.4785802 0.9688073
vt 0.4785802 0.9981651
vt 0.4589963 0.9981651
vt 0.500612 0.9688073
vt 0.5201958 0.9688073
vt 0.5201958 0.9981651
vt 0.500612 0.9981651
vt 0.4798042 0.9688073
vt 0.499388 0.9688073
vt 0.499388 0.9981651
vt 0.4798042 0.9981651
vt 0.5214198 0.9688073
vt 0.5410036 0.9688073
vt 0.5410036 0.9981651
vt 0.5214198 0.9981651
vt 0.5838434 0.9688073
vt 0.6034272 0.9688073
vt 0.6034272 0.9981651
vt 0.5838434 0.9981651
vt 0.9375765 0.8440367
vt 0.9571604 0.8440367
vt 0.9571604 0.8733945
vt 0.9375765 0.8733945
vt 0.5422277 0.9688073
vt 0.5618115 0.9688073
vt 0.5618115 0.9981651
vt 0.5422277 0.9981651
vt 0.625459 0.9688073
vt 0.6450428 0.9688073
vt 0.6450428 0.9981651
vt 0.625459 0.9981651
vt 0.5630355 0.9688073
vt 0.5826193 0.9688073
vt 0.5826193 0.9981651
vt 0.5630355 0.9981651
vt 0.7086903 0.9688073
vt 0.7282742 0.9688073
vt 0.7282742 0.9981651
vt 0.7086903 0.9981651
vt 0.7294981 0.9688073
vt 0.749082 0.9688073
vt 0.749082 0.9981651
vt 0.7294981 0.9981651
vt 0.875153 0.906422
vt 0.8947368 0.906422
vt 0.8947368 0.9357798
vt 0.875153 0.9357798
vt 0.9583843 0.9688073
vt 0.9779682 0.9688073
vt 0.9779682 0.9981651
vt 0.9583843 0.9981651
vt 0.875153 0.8440367
vt 0.8947368 0.8440367
vt 0.8947368 0.8733945
vt 0.875153 0.8733945
vt 0.8959608 0.8440367
vt 0.9155447 0.8440367
vt 0.9155447 0.8733945
vt 0.8959608 0.8733945
vt 0.5214198 0.8752294
vt 0.5410036 0.8752294
vt 0.5410036 0.9045871
vt 0.5214198 0.9045871
vt 0.5422277 0.8752294
vt 0.5618115 0.8752294
vt 0.5618115 0.9045871
vt 0.5422277 0.9045871
vt 0.06364749 0.8440367
vt 0.08323134 0.8440367
vt 0.08323134 0.8733945
vt 0.06364749 0.8733945
vt 0.4798042 0.7816514
vt 0.499388 0.7816514
vt 0.499388 0.8110092
vt 0.4798042 0.8110092

# Normal
vn 0 0 -1

# Mesh description
g emperorKingdom_2_mesh_0006

# Faces
f 1/1/1 2/2/1 3/3/1 4/4/1
f 5/5/1 6/6/1 7/7/1 8/8/1
f 9/9/1 10/10/1 11/11/1 12/12/1
f 13/13/1 14/14/1 15/15/1 16/16/1
f 17/17/1 18/18/1 19/19/1 20/20/1
f 21/21/1 22/22/1 23/23/1 24/24/1
f 25/25/1 26/26/1 27/27/1 28/28/1
f 29/29/1 30/30/1 31/31/1 32/32/1
f 33/33/1 34/34/1 35/35/1 36/36/1
f 37/37/1 38/38/1 39/39/1 40/40/1
f 41/41/1 42/42/1 43/43/1 44/44/1
f 45/25/1 46/26/1 47/27/1 48/28/1
f 49/29/1 50/30/1 51/31/1 52/32/1
f 53/33/1 54/34/1 55/35/1 56/36/1
f 57/45/1 58/46/1 59/47/1 60/48/1
f 61/41/1 62/42/1 63/43/1 64/44/1
f 65/25/1 66/26/1 67/27/1 68/28/1
f 69/29/1 70/30/1 71/31/1 72/32/1
f 73/33/1 74/34/1 75/35/1 76/36/1
f 77/45/1 78/46/1 79/47/1 80/48/1
f 81/41/1 82/42/1 83/43/1 84/44/1
f 85/25/1 86/26/1 87/27/1 88/28/1
f 89/29/1 90/30/1 91/31/1 92/32/1
f 93/33/1 94/34/1 95/35/1 96/36/1
f 97/45/1 98/46/1 99/47/1 100/48/1
f 101/41/1 102/42/1 103/43/1 104/44/1
f 105/25/1 106/26/1 107/27/1 108/28/1
f 109/29/1 110/30/1 111/31/1 112/32/1
f 113/33/1 114/34/1 115/35/1 116/36/1
f 117/45/1 118/46/1 119/47/1 120/48/1
f 121/49/1 122/50/1 123/51/1 124/52/1
f 125/53/1 126/54/1 127/55/1 128/56/1
f 129/53/1 130/54/1 131/55/1 132/56/1
f 133/53/1 134/54/1 135/55/1 136/56/1
f 137/57/1 138/58/1 139/59/1 140/60/1
f 141/61/1 142/62/1 143/63/1 144/64/1
f 145/61/1 146/62/1 147/63/1 148/64/1
f 149/61/1 150/62/1 151/63/1 152/64/1
f 153/65/1 154/66/1 155/67/1 156/68/1
f 157/65/1 158/66/1 159/67/1 160/68/1
f 161/65/1 162/66/1 163/67/1 164/68/1
f 165/69/1 166/70/1 167/71/1 168/72/1
f 169/73/1 170/74/1 171/75/1 172/76/1
f 173/69/1 174/70/1 175/71/1 176/72/1
f 177/77/1 178/78/1 179/79/1 180/80/1
f 181/53/1 182/54/1 183/55/1 184/56/1
f 185/57/1 186/58/1 187/59/1 188/60/1
f 189/61/1 190/62/1 191/63/1 192/64/1
f 193/61/1 194/62/1 195/63/1 196/64/1
f 197/53/1 198/54/1 199/55/1 200/56/1
f 201/57/1 202/58/1 203/59/1 204/60/1
f 205/61/1 206/62/1 207/63/1 208/64/1
f 209/61/1 210/62/1 211/63/1 212/64/1
f 213/65/1 214/66/1 215/67/1 216/68/1
f 217/65/1 218/66/1 219/67/1 220/68/1
f 221/65/1 222/66/1 223/67/1 224/68/1
f 225/81/1 226/82/1 227/83/1 228/84/1
f 229/73/1 230/74/1 231/75/1 232/76/1
f 233/81/1 234/82/1 235/83/1 236/84/1
f 237/77/1 238/78/1 239/79/1 240/80/1
f 241/85/1 242/86/1 243/87/1 244/88/1
f 245/65/1 246/66/1 247/67/1 248/68/1
f 249/73/1 250/74/1 251/75/1 252/76/1
f 253/69/1 254/70/1 255/71/1 256/72/1
f 257/73/1 258/74/1 259/75/1 260/76/1
f 261/65/1 262/66/1 263/67/1 264/68/1
f 265/73/1 266/74/1 267/75/1 268/76/1
f 269/69/1 270/70/1 271/71/1 272/72/1
f 273/73/1 274/74/1 275/75/1 276/76/1
f 277/89/1 278/90/1 279/91/1 280/92/1
f 281/93/1 282/94/1 283/95/1 284/96/1
f 285/97/1 286/98/1 287/99/1 288/100/1
f 289/101/1 290/102/1 291/103/1 292/104/1
f 293/105/1 294/106/1 295/107/1 296/108/1
f 297/105/1 298/106/1 299/107/1 300/108/1
f 301/73/1 302/74/1 303/75/1 304/76/1
f 305/73/1 306/74/1 307/75/1 308/76/1
f 309/81/1 310/82/1 311/83/1 312/84/1
f 313/73/1 314/74/1 315/75/1 316/76/1
f 317/73/1 318/74/1 319/75/1 320/76/1
f 321/73/1 322/74/1 323/75/1 324/76/1
f 325/81/1 326/82/1 327/83/1 328/84/1
f 329/73/1 330/74/1 331/75/1 332/76/1
f 333/109/1 334/110/1 335/111/1 336/112/1
f 337/113/1 338/114/1 339/115/1 340/116/1
f 341/113/1 342/114/1 343/115/1 344/116/1
f 345/117/1 346/118/1 347/119/1 348/120/1
f 349/121/1 350/122/1 351/123/1 352/124/1
f 353/109/1 354/110/1 355/111/1 356/112/1
f 357/109/1 358/110/1 359/111/1 360/112/1
f 361/125/1 362/126/1 363/127/1 364/128/1
f 365/129/1 366/130/1 367/131/1 368/132/1
f 369/117/1 370/118/1 371/119/1 372/120/1
f 373/121/1 374/122/1 375/123/1 376/124/1
f 377/117/1 378/118/1 379/119/1 380/120/1
f 381/121/1 382/122/1 383/123/1 384/124/1
f 385/125/1 386/126/1 387/127/1 388/128/1
f 389/129/1 390/130/1 391/131/1 392/132/1
f 393/125/1 394/126/1 395/127/1 396/128/1
f 397/129/1 398/130/1 399/131/1 400/132/1
f 401/53/1 402/54/1 403/55/1 404/56/1
f 405/57/1 406/58/1 407/59/1 408/60/1
f 409/61/1 410/62/1 411/63/1 412/64/1
f 413/61/1 414/62/1 415/63/1 416/64/1
f 417/61/1 418/62/1 419/63/1 420/64/1
f 421/65/1 422/66/1 423/67/1 424/68/1
f 425/69/1 426/70/1 427/71/1 428/72/1
f 429/73/1 430/74/1 431/75/1 432/76/1
f 433/69/1 434/70/1 435/71/1 436/72/1
f 437/77/1 438/78/1 439/79/1 440/80/1
f 441/117/1 442/118/1 443/119/1 444/120/1
f 445/121/1 446/122/1 447/123/1 448/124/1
f 449/73/1 450/74/1 451/75/1 452/76/1
f 453/81/1 454/82/1 455/83/1 456/84/1
f 457/73/1 458/74/1 459/75/1 460/76/1
f 461/81/1 462/82/1 463/83/1 464/84/1
f 465/77/1 466/78/1 467/79/1 468/80/1
f 469/133/1 470/134/1 471/135/1 472/136/1
f 473/125/1 474/126/1 475/127/1 476/128/1
f 477/129/1 478/130/1 479/131/1 480/132/1
f 481/101/1 482/102/1 483/103/1 484/104/1
f 485/105/1 486/106/1 487/107/1 488/108/1
f 489/105/1 490/106/1 491/107/1 492/108/1
f 493/109/1 494/110/1 495/111/1 496/112/1
f 497/62/1 498/61/1 499/64/1 500/63/1
f 501/62/1 502/61/1 503/64/1 504/63/1
f 505/62/1 506/61/1 507/64/1 508/63/1
f 509/58/1 510/57/1 511/60/1 512/59/1
f 513/54/1 514/53/1 515/56/1 516/55/1
f 517/117/1 518/118/1 519/119/1 520/120/1
f 521/121/1 522/122/1 523/123/1 524/124/1
f 525/78/1 526/77/1 527/80/1 528/79/1
f 529/70/1 530/69/1 531/72/1 532/71/1
f 533/74/1 534/73/1 535/76/1 536/75/1
f 537/70/1 538/69/1 539/72/1 540/71/1
f 541/66/1 542/65/1 543/68/1 544/67/1
f 545/62/1 546/61/1 547/64/1 548/63/1
f 549/62/1 550/61/1 551/64/1 552/63/1
f 553/62/1 554/61/1 555/64/1 556/63/1
f 557/58/1 558/57/1 559/60/1 560/59/1
f 561/54/1 562/53/1 563/56/1 564/55/1
f 565/125/1 566/126/1 567/127/1 568/128/1
f 569/129/1 570/130/1 571/131/1 572/132/1
f 573/78/1 574/77/1 575/80/1 576/79/1
f 577/82/1 578/81/1 579/84/1 580/83/1
f 581/74/1 582/73/1 583/76/1 584/75/1
f 585/82/1 586/81/1 587/84/1 588/83/1
f 589/74/1 590/73/1 591/76/1 592/75/1
f 593/78/1 594/77/1 595/80/1 596/79/1
f 597/70/1 598/69/1 599/72/1 600/71/1
f 601/74/1 602/73/1 603/76/1 604/75/1
f 605/70/1 606/69/1 607/72/1 608/71/1
f 609/66/1 610/65/1 611/68/1 612/67/1
f 613/106/1 614/105/1 615/108/1 616/107/1
f 617/106/1 618/105/1 619/108/1 620/107/1
f 621/102/1 622/101/1 623/104/1 624/103/1
f 625/78/1 626/77/1 627/80/1 628/79/1
f 629/82/1 630/81/1 631/84/1 632/83/1
f 633/74/1 634/73/1 635/76/1 636/75/1
f 637/82/1 638/81/1 639/84/1 640/83/1
f 641/74/1 642/73/1 643/76/1 644/75/1
f 645/137/1 646/138/1 647/139/1 648/140/1
f 649/106/1 650/105/1 651/108/1 652/107/1
f 653/102/1 654/101/1 655/104/1 656/103/1

