# Tiled2Unity generated file. Do not modify by hand.
# Wavefront file for 'emperorKingdom_5_mesh_0002.obj'

# Vertices (Count = 240)
v -4 -4 0
v -5 -4 0
v -5 -3 0
v -4 -3 0
v -6 -4 0
v -7 -4 0
v -7 -3 0
v -6 -3 0
v -4 -5 0
v -5 -5 0
v -5 -4 0
v -4 -4 0
v -6 -5 0
v -7 -5 0
v -7 -4 0
v -6 -4 0
v -20 -5 0
v -21 -5 0
v -21 -4 0
v -20 -4 0
v -21 -5 0
v -22 -5 0
v -22 -4 0
v -21 -4 0
v -22 -5 0
v -23 -5 0
v -23 -4 0
v -22 -4 0
v -3 -6 0
v -4 -6 0
v -4 -5 0
v -3 -5 0
v -4 -6 0
v -5 -6 0
v -5 -5 0
v -4 -5 0
v -5 -6 0
v -6 -6 0
v -6 -5 0
v -5 -5 0
v -6 -6 0
v -7 -6 0
v -7 -5 0
v -6 -5 0
v -7 -6 0
v -8 -6 0
v -8 -5 0
v -7 -5 0
v -19 -6 0
v -20 -6 0
v -20 -5 0
v -19 -5 0
v -20 -6 0
v -21 -6 0
v -21 -5 0
v -20 -5 0
v -21 -6 0
v -22 -6 0
v -22 -5 0
v -21 -5 0
v -22 -6 0
v -23 -6 0
v -23 -5 0
v -22 -5 0
v -23 -6 0
v -24 -6 0
v -24 -5 0
v -23 -5 0
v -5 -7 0
v -6 -7 0
v -6 -6 0
v -5 -6 0
v -7 -7 0
v -8 -7 0
v -8 -6 0
v -7 -6 0
v -21 -7 0
v -22 -7 0
v -22 -6 0
v -21 -6 0
v -7 -8 0
v -8 -8 0
v -8 -7 0
v -7 -7 0
v -11 -8 0
v -12 -8 0
v -12 -7 0
v -11 -7 0
v -13 -8 0
v -14 -8 0
v -14 -7 0
v -13 -7 0
v -15 -8 0
v -16 -8 0
v -16 -7 0
v -15 -7 0
v -10 -9 0
v -11 -9 0
v -11 -8 0
v -10 -8 0
v -11 -9 0
v -12 -9 0
v -12 -8 0
v -11 -8 0
v -12 -9 0
v -13 -9 0
v -13 -8 0
v -12 -8 0
v -14 -9 0
v -15 -9 0
v -15 -8 0
v -14 -8 0
v -15 -9 0
v -16 -9 0
v -16 -8 0
v -15 -8 0
v -16 -9 0
v -17 -9 0
v -17 -8 0
v -16 -8 0
v -5 -11 0
v -6 -11 0
v -6 -10 0
v -5 -10 0
v -21 -11 0
v -22 -11 0
v -22 -10 0
v -21 -10 0
v -3 -12 0
v -4 -12 0
v -4 -11 0
v -3 -11 0
v -5 -12 0
v -6 -12 0
v -6 -11 0
v -5 -11 0
v -7 -12 0
v -8 -12 0
v -8 -11 0
v -7 -11 0
v -10 -12 0
v -11 -12 0
v -11 -11 0
v -10 -11 0
v -16 -12 0
v -17 -12 0
v -17 -11 0
v -16 -11 0
v -19 -12 0
v -20 -12 0
v -20 -11 0
v -19 -11 0
v -21 -12 0
v -22 -12 0
v -22 -11 0
v -21 -11 0
v -23 -12 0
v -24 -12 0
v -24 -11 0
v -23 -11 0
v -2 -13 0
v -3 -13 0
v -3 -12 0
v -2 -12 0
v -3 -13 0
v -4 -13 0
v -4 -12 0
v -3 -12 0
v -4 -13 0
v -5 -13 0
v -5 -12 0
v -4 -12 0
v -6 -13 0
v -7 -13 0
v -7 -12 0
v -6 -12 0
v -7 -13 0
v -8 -13 0
v -8 -12 0
v -7 -12 0
v -8 -13 0
v -9 -13 0
v -9 -12 0
v -8 -12 0
v -9 -13 0
v -10 -13 0
v -10 -12 0
v -9 -12 0
v -17 -13 0
v -18 -13 0
v -18 -12 0
v -17 -12 0
v -18 -13 0
v -19 -13 0
v -19 -12 0
v -18 -12 0
v -19 -13 0
v -20 -13 0
v -20 -12 0
v -19 -12 0
v -20 -13 0
v -21 -13 0
v -21 -12 0
v -20 -12 0
v -22 -13 0
v -23 -13 0
v -23 -12 0
v -22 -12 0
v -23 -13 0
v -24 -13 0
v -24 -12 0
v -23 -12 0
v -24 -13 0
v -25 -13 0
v -25 -12 0
v -24 -12 0
v -10 -18 0
v -11 -18 0
v -11 -17 0
v -10 -17 0
v -16 -18 0
v -17 -18 0
v -17 -17 0
v -16 -17 0
v -20 -18 0
v -21 -18 0
v -21 -17 0
v -20 -17 0
v -8 -19 0
v -9 -19 0
v -9 -18 0
v -8 -18 0
v -20 -19 0
v -21 -19 0
v -21 -18 0
v -20 -18 0
v -20 -20 0
v -21 -20 0
v -21 -19 0
v -20 -19 0

# Texture cooridinates (Count = 96)
vt 0.7086903 0.812844
vt 0.7282742 0.812844
vt 0.7282742 0.8422018
vt 0.7086903 0.8422018
vt 0.6878825 0.8440367
vt 0.7074664 0.8440367
vt 0.7074664 0.8733945
vt 0.6878825 0.8733945
vt 0.5630355 0.7192661
vt 0.5826193 0.7192661
vt 0.5826193 0.7486238
vt 0.5630355 0.7486238
vt 0.5838434 0.7192661
vt 0.6034272 0.7192661
vt 0.6034272 0.7486238
vt 0.5838434 0.7486238
vt 0.6878825 0.812844
vt 0.7074664 0.812844
vt 0.7074664 0.8422018
vt 0.6878825 0.8422018
vt 0.3329253 0.906422
vt 0.3133415 0.906422
vt 0.3133415 0.9357798
vt 0.3329253 0.9357798
vt 0.7294981 0.8440367
vt 0.749082 0.8440367
vt 0.749082 0.8733945
vt 0.7294981 0.8733945
vt 0.750306 0.906422
vt 0.7698898 0.906422
vt 0.7698898 0.9357798
vt 0.750306 0.9357798
vt 0.6046512 0.7192661
vt 0.624235 0.7192661
vt 0.624235 0.7486238
vt 0.6046512 0.7486238
vt 0.625459 0.7192661
vt 0.6450428 0.7192661
vt 0.6450428 0.7486238
vt 0.625459 0.7486238
vt 0.7711138 0.812844
vt 0.7906977 0.812844
vt 0.7906977 0.8422018
vt 0.7711138 0.8422018
vt 0.8959608 0.9688073
vt 0.9155447 0.9688073
vt 0.9155447 0.9981651
vt 0.8959608 0.9981651
vt 0.8543451 0.9688073
vt 0.873929 0.9688073
vt 0.873929 0.9981651
vt 0.8543451 0.9981651
vt 0.3341493 0.906422
vt 0.3537332 0.906422
vt 0.3537332 0.9357798
vt 0.3341493 0.9357798
vt 0.250918 0.906422
vt 0.2705018 0.906422
vt 0.2705018 0.9357798
vt 0.250918 0.9357798
vt 0.3965728 0.906422
vt 0.4161567 0.906422
vt 0.4161567 0.9357798
vt 0.3965728 0.9357798
vt 0.2925337 0.8752294
vt 0.3121175 0.8752294
vt 0.3121175 0.9045871
vt 0.2925337 0.9045871
vt 0.1468788 0.906422
vt 0.1664627 0.906422
vt 0.1664627 0.9357798
vt 0.1468788 0.9357798
vt 0.2093023 0.906422
vt 0.2288862 0.906422
vt 0.2288862 0.9357798
vt 0.2093023 0.9357798
vt 0.4589963 0.8440367
vt 0.4785802 0.8440367
vt 0.4785802 0.8733945
vt 0.4589963 0.8733945
vt 0.2717258 0.906422
vt 0.2913097 0.906422
vt 0.2913097 0.9357798
vt 0.2717258 0.9357798
vt 0.8127295 0.812844
vt 0.8323134 0.812844
vt 0.8323134 0.8422018
vt 0.8127295 0.8422018
vt 0.8127295 0.8440367
vt 0.8323134 0.8440367
vt 0.8323134 0.8733945
vt 0.8127295 0.8733945
vt 0.8959608 0.812844
vt 0.9155447 0.812844
vt 0.9155447 0.8422018
vt 0.8959608 0.8422018

# Normal
vn 0 0 -1

# Mesh description
g emperorKingdom_5_mesh_0002

# Faces
f 1/1/1 2/2/1 3/3/1 4/4/1
f 5/1/1 6/2/1 7/3/1 8/4/1
f 9/5/1 10/6/1 11/7/1 12/8/1
f 13/5/1 14/6/1 15/7/1 16/8/1
f 17/9/1 18/10/1 19/11/1 20/12/1
f 21/13/1 22/14/1 23/15/1 24/16/1
f 25/17/1 26/18/1 27/19/1 28/20/1
f 29/21/1 30/22/1 31/23/1 32/24/1
f 33/25/1 34/26/1 35/27/1 36/28/1
f 37/29/1 38/30/1 39/31/1 40/32/1
f 41/25/1 42/26/1 43/27/1 44/28/1
f 45/17/1 46/18/1 47/19/1 48/20/1
f 49/21/1 50/22/1 51/23/1 52/24/1
f 53/33/1 54/34/1 55/35/1 56/36/1
f 57/37/1 58/38/1 59/39/1 60/40/1
f 61/41/1 62/42/1 63/43/1 64/44/1
f 65/22/1 66/21/1 67/24/1 68/23/1
f 69/45/1 70/46/1 71/47/1 72/48/1
f 73/17/1 74/18/1 75/19/1 76/20/1
f 77/49/1 78/50/1 79/51/1 80/52/1
f 81/41/1 82/42/1 83/43/1 84/44/1
f 85/53/1 86/54/1 87/55/1 88/56/1
f 89/57/1 90/58/1 91/59/1 92/60/1
f 93/53/1 94/54/1 95/55/1 96/56/1
f 97/21/1 98/22/1 99/23/1 100/24/1
f 101/61/1 102/62/1 103/63/1 104/64/1
f 105/65/1 106/66/1 107/67/1 108/68/1
f 109/65/1 110/66/1 111/67/1 112/68/1
f 113/61/1 114/62/1 115/63/1 116/64/1
f 117/22/1 118/21/1 119/24/1 120/23/1
f 121/69/1 122/70/1 123/71/1 124/72/1
f 125/69/1 126/70/1 127/71/1 128/72/1
f 129/53/1 130/54/1 131/55/1 132/56/1
f 133/73/1 134/74/1 135/75/1 136/76/1
f 137/53/1 138/54/1 139/55/1 140/56/1
f 141/77/1 142/78/1 143/79/1 144/80/1
f 145/77/1 146/78/1 147/79/1 148/80/1
f 149/53/1 150/54/1 151/55/1 152/56/1
f 153/73/1 154/74/1 155/75/1 156/76/1
f 157/53/1 158/54/1 159/55/1 160/56/1
f 161/21/1 162/22/1 163/23/1 164/24/1
f 165/61/1 166/62/1 167/63/1 168/64/1
f 169/65/1 170/66/1 171/67/1 172/68/1
f 173/65/1 174/66/1 175/67/1 176/68/1
f 177/61/1 178/62/1 179/63/1 180/64/1
f 181/22/1 182/21/1 183/24/1 184/23/1
f 185/81/1 186/82/1 187/83/1 188/84/1
f 189/82/1 190/81/1 191/84/1 192/83/1
f 193/21/1 194/22/1 195/23/1 196/24/1
f 197/61/1 198/62/1 199/63/1 200/64/1
f 201/66/1 202/65/1 203/68/1 204/67/1
f 205/66/1 206/65/1 207/68/1 208/67/1
f 209/61/1 210/62/1 211/63/1 212/64/1
f 213/22/1 214/21/1 215/24/1 216/23/1
f 217/77/1 218/78/1 219/79/1 220/80/1
f 221/77/1 222/78/1 223/79/1 224/80/1
f 225/85/1 226/86/1 227/87/1 228/88/1
f 229/89/1 230/90/1 231/91/1 232/92/1
f 233/93/1 234/94/1 235/95/1 236/96/1
f 237/93/1 238/94/1 239/95/1 240/96/1

