# Tiled2Unity generated file. Do not modify by hand.
# Wavefront file for 'lernaIsland_5_mesh_0004.obj'

# Vertices (Count = 420)
v -2 -1 0
v -3 -1 0
v -3 0 0
v -2 0 0
v -7 -1 0
v -8 -1 0
v -8 0 0
v -7 0 0
v -8 -1 0
v -9 -1 0
v -9 0 0
v -8 0 0
v -3 -2 0
v -4 -2 0
v -4 -1 0
v -3 -1 0
v -6 -2 0
v -7 -2 0
v -7 -1 0
v -6 -1 0
v -8 -2 0
v -9 -2 0
v -9 -1 0
v -8 -1 0
v -7 -3 0
v -8 -3 0
v -8 -2 0
v -7 -2 0
v -2 -4 0
v -3 -4 0
v -3 -3 0
v -2 -3 0
v -3 -4 0
v -4 -4 0
v -4 -3 0
v -3 -3 0
v -7 -4 0
v -8 -4 0
v -8 -3 0
v -7 -3 0
v -1 -5 0
v -2 -5 0
v -2 -4 0
v -1 -4 0
v -4 -5 0
v -5 -5 0
v -5 -4 0
v -4 -4 0
v -7 -5 0
v -8 -5 0
v -8 -4 0
v -7 -4 0
v -1 -6 0
v -2 -6 0
v -2 -5 0
v -1 -5 0
v -5 -6 0
v -6 -6 0
v -6 -5 0
v -5 -5 0
v -8 -6 0
v -9 -6 0
v -9 -5 0
v -8 -5 0
v -5 -7 0
v -6 -7 0
v -6 -6 0
v -5 -6 0
v -10 -7 0
v -11 -7 0
v -11 -6 0
v -10 -6 0
v -4 -8 0
v -5 -8 0
v -5 -7 0
v -4 -7 0
v -13 -8 0
v -14 -8 0
v -14 -7 0
v -13 -7 0
v -4 -9 0
v -5 -9 0
v -5 -8 0
v -4 -8 0
v -10 -9 0
v -11 -9 0
v -11 -8 0
v -10 -8 0
v -11 -9 0
v -12 -9 0
v -12 -8 0
v -11 -8 0
v -14 -9 0
v -15 -9 0
v -15 -8 0
v -14 -8 0
v -1 -10 0
v -2 -10 0
v -2 -9 0
v -1 -9 0
v -5 -10 0
v -6 -10 0
v -6 -9 0
v -5 -9 0
v -9 -10 0
v -10 -10 0
v -10 -9 0
v -9 -9 0
v -12 -10 0
v -13 -10 0
v -13 -9 0
v -12 -9 0
v -14 -10 0
v -15 -10 0
v -15 -9 0
v -14 -9 0
v -1 -11 0
v -2 -11 0
v -2 -10 0
v -1 -10 0
v -6 -11 0
v -7 -11 0
v -7 -10 0
v -6 -10 0
v -8 -11 0
v -9 -11 0
v -9 -10 0
v -8 -10 0
v -1 -12 0
v -2 -12 0
v -2 -11 0
v -1 -11 0
v -7 -12 0
v -8 -12 0
v -8 -11 0
v -7 -11 0
v -8 -12 0
v -9 -12 0
v -9 -11 0
v -8 -11 0
v -14 -12 0
v -15 -12 0
v -15 -11 0
v -14 -11 0
v -15 -12 0
v -16 -12 0
v -16 -11 0
v -15 -11 0
v -2 -13 0
v -3 -13 0
v -3 -12 0
v -2 -12 0
v -7 -13 0
v -8 -13 0
v -8 -12 0
v -7 -12 0
v -8 -13 0
v -9 -13 0
v -9 -12 0
v -8 -12 0
v -12 -13 0
v -13 -13 0
v -13 -12 0
v -12 -12 0
v -17 -13 0
v -18 -13 0
v -18 -12 0
v -17 -12 0
v -2 -14 0
v -3 -14 0
v -3 -13 0
v -2 -13 0
v -7 -14 0
v -8 -14 0
v -8 -13 0
v -7 -13 0
v -8 -14 0
v -9 -14 0
v -9 -13 0
v -8 -13 0
v -11 -14 0
v -12 -14 0
v -12 -13 0
v -11 -13 0
v -18 -14 0
v -19 -14 0
v -19 -13 0
v -18 -13 0
v -2 -15 0
v -3 -15 0
v -3 -14 0
v -2 -14 0
v -6 -15 0
v -7 -15 0
v -7 -14 0
v -6 -14 0
v -8 -15 0
v -9 -15 0
v -9 -14 0
v -8 -14 0
v -11 -15 0
v -12 -15 0
v -12 -14 0
v -11 -14 0
v -12 -15 0
v -13 -15 0
v -13 -14 0
v -12 -14 0
v -13 -15 0
v -14 -15 0
v -14 -14 0
v -13 -14 0
v -14 -15 0
v -15 -15 0
v -15 -14 0
v -14 -14 0
v -15 -15 0
v -16 -15 0
v -16 -14 0
v -15 -14 0
v -19 -15 0
v -20 -15 0
v -20 -14 0
v -19 -14 0
v -1 -16 0
v -2 -16 0
v -2 -15 0
v -1 -15 0
v -5 -16 0
v -6 -16 0
v -6 -15 0
v -5 -15 0
v -8 -16 0
v -9 -16 0
v -9 -15 0
v -8 -15 0
v -16 -16 0
v -17 -16 0
v -17 -15 0
v -16 -15 0
v -20 -16 0
v -21 -16 0
v -21 -15 0
v -20 -15 0
v 0 -17 0
v -1 -17 0
v -1 -16 0
v 0 -16 0
v -1 -17 0
v -2 -17 0
v -2 -16 0
v -1 -16 0
v -4 -17 0
v -5 -17 0
v -5 -16 0
v -4 -16 0
v -8 -17 0
v -9 -17 0
v -9 -16 0
v -8 -16 0
v -17 -17 0
v -18 -17 0
v -18 -16 0
v -17 -16 0
v -18 -17 0
v -19 -17 0
v -19 -16 0
v -18 -16 0
v -21 -17 0
v -22 -17 0
v -22 -16 0
v -21 -16 0
v -4 -18 0
v -5 -18 0
v -5 -17 0
v -4 -17 0
v -7 -18 0
v -8 -18 0
v -8 -17 0
v -7 -17 0
v -12 -18 0
v -13 -18 0
v -13 -17 0
v -12 -17 0
v -13 -18 0
v -14 -18 0
v -14 -17 0
v -13 -17 0
v -19 -18 0
v -20 -18 0
v -20 -17 0
v -19 -17 0
v -22 -18 0
v -23 -18 0
v -23 -17 0
v -22 -17 0
v -4 -19 0
v -5 -19 0
v -5 -18 0
v -4 -18 0
v -7 -19 0
v -8 -19 0
v -8 -18 0
v -7 -18 0
v -10 -19 0
v -11 -19 0
v -11 -18 0
v -10 -18 0
v -13 -19 0
v -14 -19 0
v -14 -18 0
v -13 -18 0
v -20 -19 0
v -21 -19 0
v -21 -18 0
v -20 -18 0
v -22 -19 0
v -23 -19 0
v -23 -18 0
v -22 -18 0
v -4 -20 0
v -5 -20 0
v -5 -19 0
v -4 -19 0
v -12 -20 0
v -13 -20 0
v -13 -19 0
v -12 -19 0
v -13 -20 0
v -14 -20 0
v -14 -19 0
v -13 -19 0
v -20 -20 0
v -21 -20 0
v -21 -19 0
v -20 -19 0
v -21 -20 0
v -22 -20 0
v -22 -19 0
v -21 -19 0
v -4 -21 0
v -5 -21 0
v -5 -20 0
v -4 -20 0
v -10 -21 0
v -11 -21 0
v -11 -20 0
v -10 -20 0
v -11 -21 0
v -12 -21 0
v -12 -20 0
v -11 -20 0
v -5 -22 0
v -6 -22 0
v -6 -21 0
v -5 -21 0
v -6 -22 0
v -7 -22 0
v -7 -21 0
v -6 -21 0
v -7 -22 0
v -8 -22 0
v -8 -21 0
v -7 -21 0
v -8 -22 0
v -9 -22 0
v -9 -21 0
v -8 -21 0
v -9 -22 0
v -10 -22 0
v -10 -21 0
v -9 -21 0
v -2 -24 0
v -3 -24 0
v -3 -23 0
v -2 -23 0
v -3 -25 0
v -4 -25 0
v -4 -24 0
v -3 -24 0
v -3 -26 0
v -4 -26 0
v -4 -25 0
v -3 -25 0
v 0 -27 0
v -1 -27 0
v -1 -26 0
v 0 -26 0
v -1 -27 0
v -2 -27 0
v -2 -26 0
v -1 -26 0
v -4 -27 0
v -5 -27 0
v -5 -26 0
v -4 -26 0
v -2 -28 0
v -3 -28 0
v -3 -27 0
v -2 -27 0
v -5 -28 0
v -6 -28 0
v -6 -27 0
v -5 -27 0
v -2 -29 0
v -3 -29 0
v -3 -28 0
v -2 -28 0
v -3 -29 0
v -4 -29 0
v -4 -28 0
v -3 -28 0
v -4 -29 0
v -5 -29 0
v -5 -28 0
v -4 -28 0
v -5 -29 0
v -6 -29 0
v -6 -28 0
v -5 -28 0

# Texture cooridinates (Count = 20)
vt 0.1040392 0.8752294
vt 0.08445533 0.8752294
vt 0.08445533 0.9045871
vt 0.1040392 0.9045871
vt 0.124847 0.8752294
vt 0.1052632 0.8752294
vt 0.1052632 0.9045871
vt 0.124847 0.9045871
vt 0.1456548 0.8752294
vt 0.126071 0.8752294
vt 0.126071 0.9045871
vt 0.1456548 0.9045871
vt 0.08323134 0.8752294
vt 0.06364749 0.8752294
vt 0.06364749 0.9045871
vt 0.08323134 0.9045871
vt 0.1664627 0.8752294
vt 0.1468788 0.8752294
vt 0.1468788 0.9045871
vt 0.1664627 0.9045871

# Normal
vn 0 0 -1

# Mesh description
g lernaIsland_5_mesh_0004

# Faces
f 1/1/1 2/2/1 3/3/1 4/4/1
f 5/5/1 6/6/1 7/7/1 8/8/1
f 9/1/1 10/2/1 11/3/1 12/4/1
f 13/1/1 14/2/1 15/3/1 16/4/1
f 17/5/1 18/6/1 19/7/1 20/8/1
f 21/9/1 22/10/1 23/11/1 24/12/1
f 25/1/1 26/2/1 27/3/1 28/4/1
f 29/13/1 30/14/1 31/15/1 32/16/1
f 33/13/1 34/14/1 35/15/1 36/16/1
f 37/1/1 38/2/1 39/3/1 40/4/1
f 41/1/1 42/2/1 43/3/1 44/4/1
f 45/5/1 46/6/1 47/7/1 48/8/1
f 49/1/1 50/2/1 51/3/1 52/4/1
f 53/9/1 54/10/1 55/11/1 56/12/1
f 57/5/1 58/6/1 59/7/1 60/8/1
f 61/1/1 62/2/1 63/3/1 64/4/1
f 65/5/1 66/6/1 67/7/1 68/8/1
f 69/1/1 70/2/1 71/3/1 72/4/1
f 73/5/1 74/6/1 75/7/1 76/8/1
f 77/1/1 78/2/1 79/3/1 80/4/1
f 81/17/1 82/18/1 83/19/1 84/20/1
f 85/13/1 86/14/1 87/15/1 88/16/1
f 89/13/1 90/14/1 91/15/1 92/16/1
f 93/1/1 94/2/1 95/3/1 96/4/1
f 97/1/1 98/2/1 99/3/1 100/4/1
f 101/17/1 102/18/1 103/19/1 104/20/1
f 105/9/1 106/10/1 107/11/1 108/12/1
f 109/17/1 110/18/1 111/19/1 112/20/1
f 113/9/1 114/10/1 115/11/1 116/12/1
f 117/1/1 118/2/1 119/3/1 120/4/1
f 121/17/1 122/18/1 123/19/1 124/20/1
f 125/1/1 126/2/1 127/3/1 128/4/1
f 129/1/1 130/2/1 131/3/1 132/4/1
f 133/5/1 134/6/1 135/7/1 136/8/1
f 137/1/1 138/2/1 139/3/1 140/4/1
f 141/5/1 142/6/1 143/7/1 144/8/1
f 145/1/1 146/2/1 147/3/1 148/4/1
f 149/1/1 150/2/1 151/3/1 152/4/1
f 153/5/1 154/6/1 155/7/1 156/8/1
f 157/1/1 158/2/1 159/3/1 160/4/1
f 161/5/1 162/6/1 163/7/1 164/8/1
f 165/1/1 166/2/1 167/3/1 168/4/1
f 169/1/1 170/2/1 171/3/1 172/4/1
f 173/5/1 174/6/1 175/7/1 176/8/1
f 177/1/1 178/2/1 179/3/1 180/4/1
f 181/5/1 182/6/1 183/7/1 184/8/1
f 185/1/1 186/2/1 187/3/1 188/4/1
f 189/9/1 190/10/1 191/11/1 192/12/1
f 193/5/1 194/6/1 195/7/1 196/8/1
f 197/1/1 198/2/1 199/3/1 200/4/1
f 201/17/1 202/18/1 203/19/1 204/20/1
f 205/13/1 206/14/1 207/15/1 208/16/1
f 209/13/1 210/14/1 211/15/1 212/16/1
f 213/13/1 214/14/1 215/15/1 216/16/1
f 217/13/1 218/14/1 219/15/1 220/16/1
f 221/1/1 222/2/1 223/3/1 224/4/1
f 225/1/1 226/2/1 227/3/1 228/4/1
f 229/5/1 230/6/1 231/7/1 232/8/1
f 233/1/1 234/2/1 235/3/1 236/4/1
f 237/17/1 238/18/1 239/19/1 240/20/1
f 241/1/1 242/2/1 243/3/1 244/4/1
f 245/13/1 246/14/1 247/15/1 248/16/1
f 249/9/1 250/10/1 251/11/1 252/12/1
f 253/5/1 254/6/1 255/7/1 256/8/1
f 257/9/1 258/10/1 259/11/1 260/12/1
f 261/17/1 262/18/1 263/19/1 264/20/1
f 265/13/1 266/14/1 267/15/1 268/16/1
f 269/1/1 270/2/1 271/3/1 272/4/1
f 273/5/1 274/6/1 275/7/1 276/8/1
f 277/1/1 278/2/1 279/3/1 280/4/1
f 281/5/1 282/6/1 283/7/1 284/8/1
f 285/1/1 286/2/1 287/3/1 288/4/1
f 289/17/1 290/18/1 291/19/1 292/20/1
f 293/1/1 294/2/1 295/3/1 296/4/1
f 297/5/1 298/6/1 299/7/1 300/8/1
f 301/1/1 302/2/1 303/3/1 304/4/1
f 305/5/1 306/6/1 307/7/1 308/8/1
f 309/1/1 310/2/1 311/3/1 312/4/1
f 313/5/1 314/6/1 315/7/1 316/8/1
f 317/9/1 318/10/1 319/11/1 320/12/1
f 321/5/1 322/6/1 323/7/1 324/8/1
f 325/13/1 326/14/1 327/15/1 328/16/1
f 329/9/1 330/10/1 331/11/1 332/12/1
f 333/17/1 334/18/1 335/19/1 336/20/1
f 337/9/1 338/10/1 339/11/1 340/12/1
f 341/17/1 342/18/1 343/19/1 344/20/1
f 345/13/1 346/14/1 347/15/1 348/16/1
f 349/9/1 350/10/1 351/11/1 352/12/1
f 353/17/1 354/18/1 355/19/1 356/20/1
f 357/13/1 358/14/1 359/15/1 360/16/1
f 361/13/1 362/14/1 363/15/1 364/16/1
f 365/13/1 366/14/1 367/15/1 368/16/1
f 369/9/1 370/10/1 371/11/1 372/12/1
f 373/1/1 374/2/1 375/3/1 376/4/1
f 377/1/1 378/2/1 379/3/1 380/4/1
f 381/1/1 382/2/1 383/3/1 384/4/1
f 385/13/1 386/14/1 387/15/1 388/16/1
f 389/13/1 390/14/1 391/15/1 392/16/1
f 393/1/1 394/2/1 395/3/1 396/4/1
f 397/5/1 398/6/1 399/7/1 400/8/1
f 401/1/1 402/2/1 403/3/1 404/4/1
f 405/17/1 406/18/1 407/19/1 408/20/1
f 409/13/1 410/14/1 411/15/1 412/16/1
f 413/13/1 414/14/1 415/15/1 416/16/1
f 417/9/1 418/10/1 419/11/1 420/12/1

