# Tiled2Unity generated file. Do not modify by hand.
# Wavefront file for 'cave9_mesh_0002.obj'

# Vertices (Count = 84)
v -9 -6 0
v -10 -6 0
v -10 -5 0
v -9 -5 0
v -11 -6 0
v -12 -6 0
v -12 -5 0
v -11 -5 0
v -9 -8 0
v -10 -8 0
v -10 -7 0
v -9 -7 0
v -7 -9 0
v -8 -9 0
v -8 -8 0
v -7 -8 0
v -9 -11 0
v -10 -11 0
v -10 -10 0
v -9 -10 0
v -11 -11 0
v -12 -11 0
v -12 -10 0
v -11 -10 0
v -12 -12 0
v -13 -12 0
v -13 -11 0
v -12 -11 0
v -9 -13 0
v -10 -13 0
v -10 -12 0
v -9 -12 0
v -13 -13 0
v -14 -13 0
v -14 -12 0
v -13 -12 0
v -4 -14 0
v -5 -14 0
v -5 -13 0
v -4 -13 0
v -6 -14 0
v -7 -14 0
v -7 -13 0
v -6 -13 0
v -15 -14 0
v -16 -14 0
v -16 -13 0
v -15 -13 0
v -16 -14 0
v -17 -14 0
v -17 -13 0
v -16 -13 0
v -5 -15 0
v -6 -15 0
v -6 -14 0
v -5 -14 0
v -16 -15 0
v -17 -15 0
v -17 -14 0
v -16 -14 0
v -5 -16 0
v -6 -16 0
v -6 -15 0
v -5 -15 0
v -6 -16 0
v -7 -16 0
v -7 -15 0
v -6 -15 0
v -14 -16 0
v -15 -16 0
v -15 -15 0
v -14 -15 0
v -7 -17 0
v -8 -17 0
v -8 -16 0
v -7 -16 0
v -12 -17 0
v -13 -17 0
v -13 -16 0
v -12 -16 0
v -9 -18 0
v -10 -18 0
v -10 -17 0
v -9 -17 0

# Texture cooridinates (Count = 12)
vt 0.6878825 0.906422
vt 0.7074664 0.906422
vt 0.7074664 0.9357798
vt 0.6878825 0.9357798
vt 0.500612 0.7504587
vt 0.5201958 0.7504587
vt 0.5201958 0.7798165
vt 0.500612 0.7798165
vt 0.6670747 0.8440367
vt 0.6866585 0.8440367
vt 0.6866585 0.8733945
vt 0.6670747 0.8733945

# Normal
vn 0 0 -1

# Mesh description
g cave9_mesh_0002

# Faces
f 1/1/1 2/2/1 3/3/1 4/4/1
f 5/5/1 6/6/1 7/7/1 8/8/1
f 9/9/1 10/10/1 11/11/1 12/12/1
f 13/1/1 14/2/1 15/3/1 16/4/1
f 17/1/1 18/2/1 19/3/1 20/4/1
f 21/5/1 22/6/1 23/7/1 24/8/1
f 25/9/1 26/10/1 27/11/1 28/12/1
f 29/9/1 30/10/1 31/11/1 32/12/1
f 33/5/1 34/6/1 35/7/1 36/8/1
f 37/1/1 38/2/1 39/3/1 40/4/1
f 41/1/1 42/2/1 43/3/1 44/4/1
f 45/1/1 46/2/1 47/3/1 48/4/1
f 49/5/1 50/6/1 51/7/1 52/8/1
f 53/5/1 54/6/1 55/7/1 56/8/1
f 57/1/1 58/2/1 59/3/1 60/4/1
f 61/1/1 62/2/1 63/3/1 64/4/1
f 65/9/1 66/10/1 67/11/1 68/12/1
f 69/1/1 70/2/1 71/3/1 72/4/1
f 73/5/1 74/6/1 75/7/1 76/8/1
f 77/1/1 78/2/1 79/3/1 80/4/1
f 81/1/1 82/2/1 83/3/1 84/4/1

