# Tiled2Unity generated file. Do not modify by hand.
# Wavefront file for 'cave9_mesh_0003.obj'

# Vertices (Count = 24)
v -9 -20 0
v -10 -20 0
v -10 -19 0
v -9 -19 0
v -10 -20 0
v -11 -20 0
v -11 -19 0
v -10 -19 0
v -11 -20 0
v -12 -20 0
v -12 -19 0
v -11 -19 0
v -9 -21 0
v -10 -21 0
v -10 -20 0
v -9 -20 0
v -10 -21 0
v -11 -21 0
v -11 -20 0
v -10 -20 0
v -11 -21 0
v -12 -21 0
v -12 -20 0
v -11 -20 0

# Texture cooridinates (Count = 16)
vt 0.1052632 0.9376147
vt 0.124847 0.9376147
vt 0.124847 0.9669725
vt 0.1052632 0.9669725
vt 0.625459 0.9376147
vt 0.6450428 0.9376147
vt 0.6450428 0.9669725
vt 0.625459 0.9669725
vt 0.4798042 0.9376147
vt 0.499388 0.9376147
vt 0.499388 0.9669725
vt 0.4798042 0.9669725
vt 0.00122399 0.9688073
vt 0.02080783 0.9688073
vt 0.02080783 0.9981651
vt 0.00122399 0.9981651

# Normal
vn 0 0 -1

# Mesh description
g cave9_mesh_0003

# Faces
f 1/1/1 2/2/1 3/3/1 4/4/1
f 5/5/1 6/6/1 7/7/1 8/8/1
f 9/9/1 10/10/1 11/11/1 12/12/1
f 13/13/1 14/14/1 15/15/1 16/16/1
f 17/13/1 18/14/1 19/15/1 20/16/1
f 21/13/1 22/14/1 23/15/1 24/16/1

