# Tiled2Unity generated file. Do not modify by hand.
# Wavefront file for 'darkWoods_9_mesh_0006.obj'

# Vertices (Count = 16)
v -4 -4 0
v -5 -4 0
v -5 -3 0
v -4 -3 0
v -5 -4 0
v -6 -4 0
v -6 -3 0
v -5 -3 0
v -6 -4 0
v -7 -4 0
v -7 -3 0
v -6 -3 0
v -7 -4 0
v -8 -4 0
v -8 -3 0
v -7 -3 0

# Texture cooridinates (Count = 12)
vt 0.250918 0.906422
vt 0.2705018 0.906422
vt 0.2705018 0.9357798
vt 0.250918 0.9357798
vt 0.7711138 0.7816514
vt 0.7906977 0.7816514
vt 0.7906977 0.8110092
vt 0.7711138 0.8110092
vt 0.2717258 0.906422
vt 0.2913097 0.906422
vt 0.2913097 0.9357798
vt 0.2717258 0.9357798

# Normal
vn 0 0 -1

# Mesh description
g darkWoods_9_mesh_0006

# Faces
f 1/1/1 2/2/1 3/3/1 4/4/1
f 5/5/1 6/6/1 7/7/1 8/8/1
f 9/5/1 10/6/1 11/7/1 12/8/1
f 13/9/1 14/10/1 15/11/1 16/12/1

