# Tiled2Unity generated file. Do not modify by hand.
# Wavefront file for 'darkWoods_6_mesh_0003.obj'

# Vertices (Count = 432)
v -14 -1 0
v -15 -1 0
v -15 0 0
v -14 0 0
v -18 -1 0
v -19 -1 0
v -19 0 0
v -18 0 0
v -20 -1 0
v -21 -1 0
v -21 0 0
v -20 0 0
v -3 -2 0
v -4 -2 0
v -4 -1 0
v -3 -1 0
v -7 -2 0
v -8 -2 0
v -8 -1 0
v -7 -1 0
v -12 -2 0
v -13 -2 0
v -13 -1 0
v -12 -1 0
v -19 -2 0
v -20 -2 0
v -20 -1 0
v -19 -1 0
v -21 -2 0
v -22 -2 0
v -22 -1 0
v -21 -1 0
v -1 -3 0
v -2 -3 0
v -2 -2 0
v -1 -2 0
v -6 -3 0
v -7 -3 0
v -7 -2 0
v -6 -2 0
v -10 -3 0
v -11 -3 0
v -11 -2 0
v -10 -2 0
v -19 -3 0
v -20 -3 0
v -20 -2 0
v -19 -2 0
v -21 -3 0
v -22 -3 0
v -22 -2 0
v -21 -2 0
v -1 -4 0
v -2 -4 0
v -2 -3 0
v -1 -3 0
v -5 -4 0
v -6 -4 0
v -6 -3 0
v -5 -3 0
v -9 -4 0
v -10 -4 0
v -10 -3 0
v -9 -3 0
v -13 -4 0
v -14 -4 0
v -14 -3 0
v -13 -3 0
v -20 -4 0
v -21 -4 0
v -21 -3 0
v -20 -3 0
v -22 -4 0
v -23 -4 0
v -23 -3 0
v -22 -3 0
v -1 -5 0
v -2 -5 0
v -2 -4 0
v -1 -4 0
v -5 -5 0
v -6 -5 0
v -6 -4 0
v -5 -4 0
v -7 -5 0
v -8 -5 0
v -8 -4 0
v -7 -4 0
v -12 -5 0
v -13 -5 0
v -13 -4 0
v -12 -4 0
v -15 -5 0
v -16 -5 0
v -16 -4 0
v -15 -4 0
v -21 -5 0
v -22 -5 0
v -22 -4 0
v -21 -4 0
v -23 -5 0
v -24 -5 0
v -24 -4 0
v -23 -4 0
v -2 -6 0
v -3 -6 0
v -3 -5 0
v -2 -5 0
v -11 -6 0
v -12 -6 0
v -12 -5 0
v -11 -5 0
v -15 -6 0
v -16 -6 0
v -16 -5 0
v -15 -5 0
v -22 -6 0
v -23 -6 0
v -23 -5 0
v -22 -5 0
v -24 -6 0
v -25 -6 0
v -25 -5 0
v -24 -5 0
v -4 -7 0
v -5 -7 0
v -5 -6 0
v -4 -6 0
v -11 -7 0
v -12 -7 0
v -12 -6 0
v -11 -6 0
v -14 -7 0
v -15 -7 0
v -15 -6 0
v -14 -6 0
v -23 -7 0
v -24 -7 0
v -24 -6 0
v -23 -6 0
v -24 -7 0
v -25 -7 0
v -25 -6 0
v -24 -6 0
v -4 -8 0
v -5 -8 0
v -5 -7 0
v -4 -7 0
v -10 -8 0
v -11 -8 0
v -11 -7 0
v -10 -7 0
v -13 -8 0
v -14 -8 0
v -14 -7 0
v -13 -7 0
v -18 -8 0
v -19 -8 0
v -19 -7 0
v -18 -7 0
v -23 -8 0
v -24 -8 0
v -24 -7 0
v -23 -7 0
v -24 -8 0
v -25 -8 0
v -25 -7 0
v -24 -7 0
v -3 -9 0
v -4 -9 0
v -4 -8 0
v -3 -8 0
v -9 -9 0
v -10 -9 0
v -10 -8 0
v -9 -8 0
v -12 -9 0
v -13 -9 0
v -13 -8 0
v -12 -8 0
v -18 -9 0
v -19 -9 0
v -19 -8 0
v -18 -8 0
v -22 -9 0
v -23 -9 0
v -23 -8 0
v -22 -8 0
v -24 -9 0
v -25 -9 0
v -25 -8 0
v -24 -8 0
v -2 -10 0
v -3 -10 0
v -3 -9 0
v -2 -9 0
v -8 -10 0
v -9 -10 0
v -9 -9 0
v -8 -9 0
v -11 -10 0
v -12 -10 0
v -12 -9 0
v -11 -9 0
v -17 -10 0
v -18 -10 0
v -18 -9 0
v -17 -9 0
v -19 -10 0
v -20 -10 0
v -20 -9 0
v -19 -9 0
v -22 -10 0
v -23 -10 0
v -23 -9 0
v -22 -9 0
v -24 -10 0
v -25 -10 0
v -25 -9 0
v -24 -9 0
v -2 -11 0
v -3 -11 0
v -3 -10 0
v -2 -10 0
v -7 -11 0
v -8 -11 0
v -8 -10 0
v -7 -10 0
v -10 -11 0
v -11 -11 0
v -11 -10 0
v -10 -10 0
v -16 -11 0
v -17 -11 0
v -17 -10 0
v -16 -10 0
v -22 -11 0
v -23 -11 0
v -23 -10 0
v -22 -10 0
v -3 -12 0
v -4 -12 0
v -4 -11 0
v -3 -11 0
v -6 -12 0
v -7 -12 0
v -7 -11 0
v -6 -11 0
v -8 -12 0
v -9 -12 0
v -9 -11 0
v -8 -11 0
v -15 -12 0
v -16 -12 0
v -16 -11 0
v -15 -11 0
v -18 -12 0
v -19 -12 0
v -19 -11 0
v -18 -11 0
v -22 -12 0
v -23 -12 0
v -23 -11 0
v -22 -11 0
v -7 -13 0
v -8 -13 0
v -8 -12 0
v -7 -12 0
v -13 -13 0
v -14 -13 0
v -14 -12 0
v -13 -12 0
v -17 -13 0
v -18 -13 0
v -18 -12 0
v -17 -12 0
v -22 -13 0
v -23 -13 0
v -23 -12 0
v -22 -12 0
v -23 -13 0
v -24 -13 0
v -24 -12 0
v -23 -12 0
v -6 -14 0
v -7 -14 0
v -7 -13 0
v -6 -13 0
v -12 -14 0
v -13 -14 0
v -13 -13 0
v -12 -13 0
v -16 -14 0
v -17 -14 0
v -17 -13 0
v -16 -13 0
v -21 -14 0
v -22 -14 0
v -22 -13 0
v -21 -13 0
v -22 -14 0
v -23 -14 0
v -23 -13 0
v -22 -13 0
v -5 -15 0
v -6 -15 0
v -6 -14 0
v -5 -14 0
v -10 -15 0
v -11 -15 0
v -11 -14 0
v -10 -14 0
v -15 -15 0
v -16 -15 0
v -16 -14 0
v -15 -14 0
v -21 -15 0
v -22 -15 0
v -22 -14 0
v -21 -14 0
v -22 -15 0
v -23 -15 0
v -23 -14 0
v -22 -14 0
v -5 -16 0
v -6 -16 0
v -6 -15 0
v -5 -15 0
v -8 -16 0
v -9 -16 0
v -9 -15 0
v -8 -15 0
v -14 -16 0
v -15 -16 0
v -15 -15 0
v -14 -15 0
v -20 -16 0
v -21 -16 0
v -21 -15 0
v -20 -15 0
v -22 -16 0
v -23 -16 0
v -23 -15 0
v -22 -15 0
v -13 -17 0
v -14 -17 0
v -14 -16 0
v -13 -16 0
v -19 -17 0
v -20 -17 0
v -20 -16 0
v -19 -16 0
v -21 -17 0
v -22 -17 0
v -22 -16 0
v -21 -16 0
v -3 -18 0
v -4 -18 0
v -4 -17 0
v -3 -17 0
v -12 -18 0
v -13 -18 0
v -13 -17 0
v -12 -17 0
v -18 -18 0
v -19 -18 0
v -19 -17 0
v -18 -17 0
v -20 -18 0
v -21 -18 0
v -21 -17 0
v -20 -17 0
v -4 -19 0
v -5 -19 0
v -5 -18 0
v -4 -18 0
v -10 -19 0
v -11 -19 0
v -11 -18 0
v -10 -18 0
v -17 -19 0
v -18 -19 0
v -18 -18 0
v -17 -18 0
v -15 -20 0
v -16 -20 0
v -16 -19 0
v -15 -19 0
v -19 -20 0
v -20 -20 0
v -20 -19 0
v -19 -19 0
v -1 -21 0
v -2 -21 0
v -2 -20 0
v -1 -20 0
v -13 -21 0
v -14 -21 0
v -14 -20 0
v -13 -20 0
v -17 -21 0
v -18 -21 0
v -18 -20 0
v -17 -20 0
v -2 -22 0
v -3 -22 0
v -3 -21 0
v -2 -21 0
v -11 -22 0
v -12 -22 0
v -12 -21 0
v -11 -21 0
v -19 -22 0
v -20 -22 0
v -20 -21 0
v -19 -21 0
v -3 -23 0
v -4 -23 0
v -4 -22 0
v -3 -22 0
v -8 -23 0
v -9 -23 0
v -9 -22 0
v -8 -22 0
v -20 -23 0
v -21 -23 0
v -21 -22 0
v -20 -22 0
v -22 -24 0
v -23 -24 0
v -23 -23 0
v -22 -23 0

# Texture cooridinates (Count = 16)
vt 0.1468788 0.8752294
vt 0.1664627 0.8752294
vt 0.1664627 0.9045871
vt 0.1468788 0.9045871
vt 0.126071 0.8752294
vt 0.1456548 0.8752294
vt 0.1456548 0.9045871
vt 0.126071 0.9045871
vt 0.1052632 0.8752294
vt 0.124847 0.8752294
vt 0.124847 0.9045871
vt 0.1052632 0.9045871
vt 0.08445533 0.8752294
vt 0.1040392 0.8752294
vt 0.1040392 0.9045871
vt 0.08445533 0.9045871

# Normal
vn 0 0 -1

# Mesh description
g darkWoods_6_mesh_0003

# Faces
f 1/1/1 2/2/1 3/3/1 4/4/1
f 5/5/1 6/6/1 7/7/1 8/8/1
f 9/9/1 10/10/1 11/11/1 12/12/1
f 13/1/1 14/2/1 15/3/1 16/4/1
f 17/13/1 18/14/1 19/15/1 20/16/1
f 21/1/1 22/2/1 23/3/1 24/4/1
f 25/13/1 26/14/1 27/15/1 28/16/1
f 29/9/1 30/10/1 31/11/1 32/12/1
f 33/9/1 34/10/1 35/11/1 36/12/1
f 37/13/1 38/14/1 39/15/1 40/16/1
f 41/1/1 42/2/1 43/3/1 44/4/1
f 45/5/1 46/6/1 47/7/1 48/8/1
f 49/9/1 50/10/1 51/11/1 52/12/1
f 53/9/1 54/10/1 55/11/1 56/12/1
f 57/13/1 58/14/1 59/15/1 60/16/1
f 61/1/1 62/2/1 63/3/1 64/4/1
f 65/13/1 66/14/1 67/15/1 68/16/1
f 69/5/1 70/6/1 71/7/1 72/8/1
f 73/9/1 74/10/1 75/11/1 76/12/1
f 77/9/1 78/10/1 79/11/1 80/12/1
f 81/5/1 82/6/1 83/7/1 84/8/1
f 85/1/1 86/2/1 87/3/1 88/4/1
f 89/13/1 90/14/1 91/15/1 92/16/1
f 93/9/1 94/10/1 95/11/1 96/12/1
f 97/5/1 98/6/1 99/7/1 100/8/1
f 101/9/1 102/10/1 103/11/1 104/12/1
f 105/9/1 106/10/1 107/11/1 108/12/1
f 109/13/1 110/14/1 111/15/1 112/16/1
f 113/1/1 114/2/1 115/3/1 116/4/1
f 117/5/1 118/6/1 119/7/1 120/8/1
f 121/9/1 122/10/1 123/11/1 124/12/1
f 125/9/1 126/10/1 127/11/1 128/12/1
f 129/13/1 130/14/1 131/15/1 132/16/1
f 133/1/1 134/2/1 135/3/1 136/4/1
f 137/13/1 138/14/1 139/15/1 140/16/1
f 141/9/1 142/10/1 143/11/1 144/12/1
f 145/1/1 146/2/1 147/3/1 148/4/1
f 149/13/1 150/14/1 151/15/1 152/16/1
f 153/1/1 154/2/1 155/3/1 156/4/1
f 157/13/1 158/14/1 159/15/1 160/16/1
f 161/13/1 162/14/1 163/15/1 164/16/1
f 165/9/1 166/10/1 167/11/1 168/12/1
f 169/1/1 170/2/1 171/3/1 172/4/1
f 173/13/1 174/14/1 175/15/1 176/16/1
f 177/1/1 178/2/1 179/3/1 180/4/1
f 181/13/1 182/14/1 183/15/1 184/16/1
f 185/13/1 186/14/1 187/15/1 188/16/1
f 189/9/1 190/10/1 191/11/1 192/12/1
f 193/9/1 194/10/1 195/11/1 196/12/1
f 197/13/1 198/14/1 199/15/1 200/16/1
f 201/1/1 202/2/1 203/3/1 204/4/1
f 205/13/1 206/14/1 207/15/1 208/16/1
f 209/1/1 210/2/1 211/3/1 212/4/1
f 213/13/1 214/14/1 215/15/1 216/16/1
f 217/1/1 218/2/1 219/3/1 220/4/1
f 221/9/1 222/10/1 223/11/1 224/12/1
f 225/13/1 226/14/1 227/15/1 228/16/1
f 229/1/1 230/2/1 231/3/1 232/4/1
f 233/13/1 234/14/1 235/15/1 236/16/1
f 237/13/1 238/14/1 239/15/1 240/16/1
f 241/9/1 242/10/1 243/11/1 244/12/1
f 245/13/1 246/14/1 247/15/1 248/16/1
f 249/1/1 250/2/1 251/3/1 252/4/1
f 253/13/1 254/14/1 255/15/1 256/16/1
f 257/1/1 258/2/1 259/3/1 260/4/1
f 261/13/1 262/14/1 263/15/1 264/16/1
f 265/1/1 266/2/1 267/3/1 268/4/1
f 269/13/1 270/14/1 271/15/1 272/16/1
f 273/1/1 274/2/1 275/3/1 276/4/1
f 277/13/1 278/14/1 279/15/1 280/16/1
f 281/1/1 282/2/1 283/3/1 284/4/1
f 285/1/1 286/2/1 287/3/1 288/4/1
f 289/13/1 290/14/1 291/15/1 292/16/1
f 293/1/1 294/2/1 295/3/1 296/4/1
f 297/13/1 298/14/1 299/15/1 300/16/1
f 301/9/1 302/10/1 303/11/1 304/12/1
f 305/9/1 306/10/1 307/11/1 308/12/1
f 309/13/1 310/14/1 311/15/1 312/16/1
f 313/1/1 314/2/1 315/3/1 316/4/1
f 317/13/1 318/14/1 319/15/1 320/16/1
f 321/9/1 322/10/1 323/11/1 324/12/1
f 325/9/1 326/10/1 327/11/1 328/12/1
f 329/13/1 330/14/1 331/15/1 332/16/1
f 333/1/1 334/2/1 335/3/1 336/4/1
f 337/13/1 338/14/1 339/15/1 340/16/1
f 341/1/1 342/2/1 343/3/1 344/4/1
f 345/1/1 346/2/1 347/3/1 348/4/1
f 349/13/1 350/14/1 351/15/1 352/16/1
f 353/1/1 354/2/1 355/3/1 356/4/1
f 357/5/1 358/6/1 359/7/1 360/8/1
f 361/1/1 362/2/1 363/3/1 364/4/1
f 365/13/1 366/14/1 367/15/1 368/16/1
f 369/1/1 370/2/1 371/3/1 372/4/1
f 373/5/1 374/6/1 375/7/1 376/8/1
f 377/1/1 378/2/1 379/3/1 380/4/1
f 381/13/1 382/14/1 383/15/1 384/16/1
f 385/13/1 386/14/1 387/15/1 388/16/1
f 389/1/1 390/2/1 391/3/1 392/4/1
f 393/9/1 394/10/1 395/11/1 396/12/1
f 397/13/1 398/14/1 399/15/1 400/16/1
f 401/9/1 402/10/1 403/11/1 404/12/1
f 405/9/1 406/10/1 407/11/1 408/12/1
f 409/13/1 410/14/1 411/15/1 412/16/1
f 413/9/1 414/10/1 415/11/1 416/12/1
f 417/9/1 418/10/1 419/11/1 420/12/1
f 421/13/1 422/14/1 423/15/1 424/16/1
f 425/9/1 426/10/1 427/11/1 428/12/1
f 429/9/1 430/10/1 431/11/1 432/12/1

