# Tiled2Unity generated file. Do not modify by hand.
# Wavefront file for 'cave4_mesh_0002.obj'

# Vertices (Count = 372)
v -4 -3 0
v -5 -3 0
v -5 -2 0
v -4 -2 0
v -6 -3 0
v -7 -3 0
v -7 -2 0
v -6 -2 0
v -7 -3 0
v -8 -3 0
v -8 -2 0
v -7 -2 0
v -8 -3 0
v -9 -3 0
v -9 -2 0
v -8 -2 0
v -9 -3 0
v -10 -3 0
v -10 -2 0
v -9 -2 0
v -10 -3 0
v -11 -3 0
v -11 -2 0
v -10 -2 0
v -4 -4 0
v -5 -4 0
v -5 -3 0
v -4 -3 0
v -6 -4 0
v -7 -4 0
v -7 -3 0
v -6 -3 0
v -7 -4 0
v -8 -4 0
v -8 -3 0
v -7 -3 0
v -8 -4 0
v -9 -4 0
v -9 -3 0
v -8 -3 0
v -9 -4 0
v -10 -4 0
v -10 -3 0
v -9 -3 0
v -10 -4 0
v -11 -4 0
v -11 -3 0
v -10 -3 0
v -23 -4 0
v -24 -4 0
v -24 -3 0
v -23 -3 0
v -24 -4 0
v -25 -4 0
v -25 -3 0
v -24 -3 0
v -28 -4 0
v -29 -4 0
v -29 -3 0
v -28 -3 0
v -31 -4 0
v -32 -4 0
v -32 -3 0
v -31 -3 0
v -4 -5 0
v -5 -5 0
v -5 -4 0
v -4 -4 0
v -6 -5 0
v -7 -5 0
v -7 -4 0
v -6 -4 0
v -7 -5 0
v -8 -5 0
v -8 -4 0
v -7 -4 0
v -8 -5 0
v -9 -5 0
v -9 -4 0
v -8 -4 0
v -9 -5 0
v -10 -5 0
v -10 -4 0
v -9 -4 0
v -10 -5 0
v -11 -5 0
v -11 -4 0
v -10 -4 0
v -11 -5 0
v -12 -5 0
v -12 -4 0
v -11 -4 0
v -23 -5 0
v -24 -5 0
v -24 -4 0
v -23 -4 0
v -24 -5 0
v -25 -5 0
v -25 -4 0
v -24 -4 0
v -28 -5 0
v -29 -5 0
v -29 -4 0
v -28 -4 0
v -31 -5 0
v -32 -5 0
v -32 -4 0
v -31 -4 0
v -4 -6 0
v -5 -6 0
v -5 -5 0
v -4 -5 0
v -9 -6 0
v -10 -6 0
v -10 -5 0
v -9 -5 0
v -10 -6 0
v -11 -6 0
v -11 -5 0
v -10 -5 0
v -11 -6 0
v -12 -6 0
v -12 -5 0
v -11 -5 0
v -12 -6 0
v -13 -6 0
v -13 -5 0
v -12 -5 0
v -13 -6 0
v -14 -6 0
v -14 -5 0
v -13 -5 0
v -24 -6 0
v -25 -6 0
v -25 -5 0
v -24 -5 0
v -28 -6 0
v -29 -6 0
v -29 -5 0
v -28 -5 0
v -31 -6 0
v -32 -6 0
v -32 -5 0
v -31 -5 0
v -5 -7 0
v -6 -7 0
v -6 -6 0
v -5 -6 0
v -7 -7 0
v -8 -7 0
v -8 -6 0
v -7 -6 0
v -9 -7 0
v -10 -7 0
v -10 -6 0
v -9 -6 0
v -10 -7 0
v -11 -7 0
v -11 -6 0
v -10 -6 0
v -11 -7 0
v -12 -7 0
v -12 -6 0
v -11 -6 0
v -13 -7 0
v -14 -7 0
v -14 -6 0
v -13 -6 0
v -17 -7 0
v -18 -7 0
v -18 -6 0
v -17 -6 0
v -22 -7 0
v -23 -7 0
v -23 -6 0
v -22 -6 0
v -23 -7 0
v -24 -7 0
v -24 -6 0
v -23 -6 0
v -25 -7 0
v -26 -7 0
v -26 -6 0
v -25 -6 0
v -28 -7 0
v -29 -7 0
v -29 -6 0
v -28 -6 0
v -31 -7 0
v -32 -7 0
v -32 -6 0
v -31 -6 0
v -4 -8 0
v -5 -8 0
v -5 -7 0
v -4 -7 0
v -5 -8 0
v -6 -8 0
v -6 -7 0
v -5 -7 0
v -6 -8 0
v -7 -8 0
v -7 -7 0
v -6 -7 0
v -7 -8 0
v -8 -8 0
v -8 -7 0
v -7 -7 0
v -9 -8 0
v -10 -8 0
v -10 -7 0
v -9 -7 0
v -12 -8 0
v -13 -8 0
v -13 -7 0
v -12 -7 0
v -13 -8 0
v -14 -8 0
v -14 -7 0
v -13 -7 0
v -33 -8 0
v -34 -8 0
v -34 -7 0
v -33 -7 0
v -3 -9 0
v -4 -9 0
v -4 -8 0
v -3 -8 0
v -4 -9 0
v -5 -9 0
v -5 -8 0
v -4 -8 0
v -5 -9 0
v -6 -9 0
v -6 -8 0
v -5 -8 0
v -6 -9 0
v -7 -9 0
v -7 -8 0
v -6 -8 0
v -22 -9 0
v -23 -9 0
v -23 -8 0
v -22 -8 0
v -23 -9 0
v -24 -9 0
v -24 -8 0
v -23 -8 0
v -28 -9 0
v -29 -9 0
v -29 -8 0
v -28 -8 0
v -30 -9 0
v -31 -9 0
v -31 -8 0
v -30 -8 0
v -32 -9 0
v -33 -9 0
v -33 -8 0
v -32 -8 0
v -33 -9 0
v -34 -9 0
v -34 -8 0
v -33 -8 0
v -4 -10 0
v -5 -10 0
v -5 -9 0
v -4 -9 0
v -5 -10 0
v -6 -10 0
v -6 -9 0
v -5 -9 0
v -10 -10 0
v -11 -10 0
v -11 -9 0
v -10 -9 0
v -14 -10 0
v -15 -10 0
v -15 -9 0
v -14 -9 0
v -25 -10 0
v -26 -10 0
v -26 -9 0
v -25 -9 0
v -33 -10 0
v -34 -10 0
v -34 -9 0
v -33 -9 0
v -34 -10 0
v -35 -10 0
v -35 -9 0
v -34 -9 0
v -3 -11 0
v -4 -11 0
v -4 -10 0
v -3 -10 0
v -5 -11 0
v -6 -11 0
v -6 -10 0
v -5 -10 0
v -13 -11 0
v -14 -11 0
v -14 -10 0
v -13 -10 0
v -15 -11 0
v -16 -11 0
v -16 -10 0
v -15 -10 0
v -16 -11 0
v -17 -11 0
v -17 -10 0
v -16 -10 0
v -21 -11 0
v -22 -11 0
v -22 -10 0
v -21 -10 0
v -6 -12 0
v -7 -12 0
v -7 -11 0
v -6 -11 0
v -11 -12 0
v -12 -12 0
v -12 -11 0
v -11 -11 0
v -23 -12 0
v -24 -12 0
v -24 -11 0
v -23 -11 0
v -30 -12 0
v -31 -12 0
v -31 -11 0
v -30 -11 0
v -32 -12 0
v -33 -12 0
v -33 -11 0
v -32 -11 0
v -34 -12 0
v -35 -12 0
v -35 -11 0
v -34 -11 0
v -14 -13 0
v -15 -13 0
v -15 -12 0
v -14 -12 0
v -22 -13 0
v -23 -13 0
v -23 -12 0
v -22 -12 0
v -23 -13 0
v -24 -13 0
v -24 -12 0
v -23 -12 0
v -24 -13 0
v -25 -13 0
v -25 -12 0
v -24 -12 0
v -25 -13 0
v -26 -13 0
v -26 -12 0
v -25 -12 0
v -29 -13 0
v -30 -13 0
v -30 -12 0
v -29 -12 0
v -13 -14 0
v -14 -14 0
v -14 -13 0
v -13 -13 0
v -24 -14 0
v -25 -14 0
v -25 -13 0
v -24 -13 0

# Texture cooridinates (Count = 140)
vt 0.9791921 0.9376147
vt 0.998776 0.9376147
vt 0.998776 0.9669725
vt 0.9791921 0.9669725
vt 0.02203182 0.906422
vt 0.04161567 0.906422
vt 0.04161567 0.9357798
vt 0.02203182 0.9357798
vt 0.04283966 0.906422
vt 0.0624235 0.906422
vt 0.0624235 0.9357798
vt 0.04283966 0.9357798
vt 0.06364749 0.906422
vt 0.08323134 0.906422
vt 0.08323134 0.9357798
vt 0.06364749 0.9357798
vt 0.08445533 0.906422
vt 0.1040392 0.906422
vt 0.1040392 0.9357798
vt 0.08445533 0.9357798
vt 0.126071 0.906422
vt 0.1456548 0.906422
vt 0.1456548 0.9357798
vt 0.126071 0.9357798
vt 0.1468788 0.906422
vt 0.1664627 0.906422
vt 0.1664627 0.9357798
vt 0.1468788 0.9357798
vt 0.1676867 0.906422
vt 0.1872705 0.906422
vt 0.1872705 0.9357798
vt 0.1676867 0.9357798
vt 0.6670747 0.9688073
vt 0.6866585 0.9688073
vt 0.6866585 0.9981651
vt 0.6670747 0.9981651
vt 0.2301102 0.906422
vt 0.249694 0.906422
vt 0.249694 0.9357798
vt 0.2301102 0.9357798
vt 0.250918 0.906422
vt 0.2705018 0.906422
vt 0.2705018 0.9357798
vt 0.250918 0.9357798
vt 0.7711138 0.9688073
vt 0.7906977 0.9688073
vt 0.7906977 0.9981651
vt 0.7711138 0.9981651
vt 0.7294981 0.9688073
vt 0.749082 0.9688073
vt 0.749082 0.9981651
vt 0.7294981 0.9981651
vt 0.7294981 0.8440367
vt 0.749082 0.8440367
vt 0.749082 0.8733945
vt 0.7294981 0.8733945
vt 0.625459 0.7816514
vt 0.6450428 0.7816514
vt 0.6450428 0.8110092
vt 0.625459 0.8110092
vt 0.6878825 0.9688073
vt 0.7074664 0.9688073
vt 0.7074664 0.9981651
vt 0.6878825 0.9981651
vt 0.8127295 0.8752294
vt 0.8323134 0.8752294
vt 0.8323134 0.9045871
vt 0.8127295 0.9045871
vt 0.6462668 0.7504587
vt 0.6658507 0.7504587
vt 0.6658507 0.7798165
vt 0.6462668 0.7798165
vt 0.7086903 0.7816514
vt 0.7282742 0.7816514
vt 0.7282742 0.8110092
vt 0.7086903 0.8110092
vt 0.02203182 0.7192661
vt 0.04161567 0.7192661
vt 0.04161567 0.7486238
vt 0.02203182 0.7486238
vt 0.6878825 0.906422
vt 0.7074664 0.906422
vt 0.7074664 0.9357798
vt 0.6878825 0.9357798
vt 0.8335373 0.8752294
vt 0.8531212 0.8752294
vt 0.8531212 0.9045871
vt 0.8335373 0.9045871
vt 0.7919217 0.8752294
vt 0.8115055 0.8752294
vt 0.8115055 0.9045871
vt 0.7919217 0.9045871
vt 0.7711138 0.8752294
vt 0.7906977 0.8752294
vt 0.7906977 0.9045871
vt 0.7711138 0.9045871
vt 0.625459 0.906422
vt 0.6450428 0.906422
vt 0.6450428 0.9357798
vt 0.625459 0.9357798
vt 0.625459 0.7504587
vt 0.6450428 0.7504587
vt 0.6450428 0.7798165
vt 0.625459 0.7798165
vt 0.875153 0.9688073
vt 0.8947368 0.9688073
vt 0.8947368 0.9981651
vt 0.875153 0.9981651
vt 0.7919217 0.9688073
vt 0.8115055 0.9688073
vt 0.8115055 0.9981651
vt 0.7919217 0.9981651
vt 0.9375765 0.9688073
vt 0.9571604 0.9688073
vt 0.9571604 0.9981651
vt 0.9375765 0.9981651
vt 0.7086903 0.9376147
vt 0.7282742 0.9376147
vt 0.7282742 0.9669725
vt 0.7086903 0.9669725
vt 0.08445533 0.5321101
vt 0.1040392 0.5321101
vt 0.1040392 0.5614679
vt 0.08445533 0.5614679
vt 0.9167687 0.8440367
vt 0.9363525 0.8440367
vt 0.9363525 0.8733945
vt 0.9167687 0.8733945
vt 0.6670747 0.9376147
vt 0.6866585 0.9376147
vt 0.6866585 0.9669725
vt 0.6670747 0.9669725
vt 0.8959608 0.8440367
vt 0.9155447 0.8440367
vt 0.9155447 0.8733945
vt 0.8959608 0.8733945
vt 0.6878825 0.9376147
vt 0.7074664 0.9376147
vt 0.7074664 0.9669725
vt 0.6878825 0.9669725

# Normal
vn 0 0 -1

# Mesh description
g cave4_mesh_0002

# Faces
f 1/1/1 2/2/1 3/3/1 4/4/1
f 5/5/1 6/6/1 7/7/1 8/8/1
f 9/9/1 10/10/1 11/11/1 12/12/1
f 13/13/1 14/14/1 15/15/1 16/16/1
f 17/5/1 18/6/1 19/7/1 20/8/1
f 21/9/1 22/10/1 23/11/1 24/12/1
f 25/17/1 26/18/1 27/19/1 28/20/1
f 29/21/1 30/22/1 31/23/1 32/24/1
f 33/25/1 34/26/1 35/27/1 36/28/1
f 37/29/1 38/30/1 39/31/1 40/32/1
f 41/21/1 42/22/1 43/23/1 44/24/1
f 45/25/1 46/26/1 47/27/1 48/28/1
f 49/1/1 50/2/1 51/3/1 52/4/1
f 53/1/1 54/2/1 55/3/1 56/4/1
f 57/1/1 58/2/1 59/3/1 60/4/1
f 61/1/1 62/2/1 63/3/1 64/4/1
f 65/33/1 66/34/1 67/35/1 68/36/1
f 69/37/1 70/38/1 71/39/1 72/40/1
f 73/41/1 74/42/1 75/43/1 76/44/1
f 77/45/1 78/46/1 79/47/1 80/48/1
f 81/37/1 82/38/1 83/39/1 84/40/1
f 85/41/1 86/42/1 87/43/1 88/44/1
f 89/49/1 90/50/1 91/51/1 92/52/1
f 93/17/1 94/18/1 95/19/1 96/20/1
f 97/17/1 98/18/1 99/19/1 100/20/1
f 101/17/1 102/18/1 103/19/1 104/20/1
f 105/17/1 106/18/1 107/19/1 108/20/1
f 109/53/1 110/54/1 111/55/1 112/56/1
f 113/57/1 114/58/1 115/59/1 116/60/1
f 117/57/1 118/58/1 119/59/1 120/60/1
f 121/57/1 122/58/1 123/59/1 124/60/1
f 125/57/1 126/58/1 127/59/1 128/60/1
f 129/57/1 130/58/1 131/59/1 132/60/1
f 133/61/1 134/62/1 135/63/1 136/64/1
f 137/1/1 138/2/1 139/3/1 140/4/1
f 141/61/1 142/62/1 143/63/1 144/64/1
f 145/65/1 146/66/1 147/67/1 148/68/1
f 149/69/1 150/70/1 151/71/1 152/72/1
f 153/1/1 154/2/1 155/3/1 156/4/1
f 157/73/1 158/74/1 159/75/1 160/76/1
f 161/73/1 162/74/1 163/75/1 164/76/1
f 165/1/1 166/2/1 167/3/1 168/4/1
f 169/57/1 170/58/1 171/59/1 172/60/1
f 173/33/1 174/34/1 175/35/1 176/36/1
f 177/69/1 178/70/1 179/71/1 180/72/1
f 181/77/1 182/78/1 183/79/1 184/80/1
f 185/17/1 186/18/1 187/19/1 188/20/1
f 189/81/1 190/82/1 191/83/1 192/84/1
f 193/85/1 194/86/1 195/87/1 196/88/1
f 197/89/1 198/90/1 199/91/1 200/92/1
f 201/93/1 202/94/1 203/95/1 204/96/1
f 205/97/1 206/98/1 207/99/1 208/100/1
f 209/17/1 210/18/1 211/19/1 212/20/1
f 213/17/1 214/18/1 215/19/1 216/20/1
f 217/17/1 218/18/1 219/19/1 220/20/1
f 221/101/1 222/102/1 223/103/1 224/104/1
f 225/61/1 226/62/1 227/63/1 228/64/1
f 229/105/1 230/106/1 231/107/1 232/108/1
f 233/69/1 234/70/1 235/71/1 236/72/1
f 237/109/1 238/110/1 239/111/1 240/112/1
f 241/81/1 242/82/1 243/83/1 244/84/1
f 245/33/1 246/34/1 247/35/1 248/36/1
f 249/81/1 250/82/1 251/83/1 252/84/1
f 253/77/1 254/78/1 255/79/1 256/80/1
f 257/49/1 258/50/1 259/51/1 260/52/1
f 261/65/1 262/66/1 263/67/1 264/68/1
f 265/113/1 266/114/1 267/115/1 268/116/1
f 269/33/1 270/34/1 271/35/1 272/36/1
f 273/69/1 274/70/1 275/71/1 276/72/1
f 277/117/1 278/118/1 279/119/1 280/120/1
f 281/121/1 282/122/1 283/123/1 284/124/1
f 285/89/1 286/90/1 287/91/1 288/92/1
f 289/93/1 290/94/1 291/95/1 292/96/1
f 293/69/1 294/70/1 295/71/1 296/72/1
f 297/65/1 298/66/1 299/67/1 300/68/1
f 301/77/1 302/78/1 303/79/1 304/80/1
f 305/125/1 306/126/1 307/127/1 308/128/1
f 309/129/1 310/130/1 311/131/1 312/132/1
f 313/33/1 314/34/1 315/35/1 316/36/1
f 317/53/1 318/54/1 319/55/1 320/56/1
f 321/69/1 322/70/1 323/71/1 324/72/1
f 325/65/1 326/66/1 327/67/1 328/68/1
f 329/121/1 330/122/1 331/123/1 332/124/1
f 333/69/1 334/70/1 335/71/1 336/72/1
f 337/133/1 338/134/1 339/135/1 340/136/1
f 341/17/1 342/18/1 343/19/1 344/20/1
f 345/109/1 346/110/1 347/111/1 348/112/1
f 349/89/1 350/90/1 351/91/1 352/92/1
f 353/93/1 354/94/1 355/95/1 356/96/1
f 357/137/1 358/138/1 359/139/1 360/140/1
f 361/81/1 362/82/1 363/83/1 364/84/1
f 365/121/1 366/122/1 367/123/1 368/124/1
f 369/81/1 370/82/1 371/83/1 372/84/1

