# Tiled2Unity generated file. Do not modify by hand.
# Wavefront file for 'cave8_mesh_0002.obj'

# Vertices (Count = 256)
v -7 -3 0
v -8 -3 0
v -8 -2 0
v -7 -2 0
v -11 -3 0
v -12 -3 0
v -12 -2 0
v -11 -2 0
v -12 -3 0
v -13 -3 0
v -13 -2 0
v -12 -2 0
v -5 -4 0
v -6 -4 0
v -6 -3 0
v -5 -3 0
v -7 -4 0
v -8 -4 0
v -8 -3 0
v -7 -3 0
v -11 -4 0
v -12 -4 0
v -12 -3 0
v -11 -3 0
v -12 -4 0
v -13 -4 0
v -13 -3 0
v -12 -3 0
v -3 -5 0
v -4 -5 0
v -4 -4 0
v -3 -4 0
v -5 -5 0
v -6 -5 0
v -6 -4 0
v -5 -4 0
v -7 -5 0
v -8 -5 0
v -8 -4 0
v -7 -4 0
v -11 -5 0
v -12 -5 0
v -12 -4 0
v -11 -4 0
v -12 -5 0
v -13 -5 0
v -13 -4 0
v -12 -4 0
v -13 -5 0
v -14 -5 0
v -14 -4 0
v -13 -4 0
v -14 -5 0
v -15 -5 0
v -15 -4 0
v -14 -4 0
v -16 -5 0
v -17 -5 0
v -17 -4 0
v -16 -4 0
v -3 -6 0
v -4 -6 0
v -4 -5 0
v -3 -5 0
v -5 -6 0
v -6 -6 0
v -6 -5 0
v -5 -5 0
v -6 -6 0
v -7 -6 0
v -7 -5 0
v -6 -5 0
v -7 -6 0
v -8 -6 0
v -8 -5 0
v -7 -5 0
v -10 -6 0
v -11 -6 0
v -11 -5 0
v -10 -5 0
v -12 -6 0
v -13 -6 0
v -13 -5 0
v -12 -5 0
v -13 -6 0
v -14 -6 0
v -14 -5 0
v -13 -5 0
v -14 -6 0
v -15 -6 0
v -15 -5 0
v -14 -5 0
v -15 -6 0
v -16 -6 0
v -16 -5 0
v -15 -5 0
v -16 -6 0
v -17 -6 0
v -17 -5 0
v -16 -5 0
v -3 -7 0
v -4 -7 0
v -4 -6 0
v -3 -6 0
v -4 -7 0
v -5 -7 0
v -5 -6 0
v -4 -6 0
v -5 -7 0
v -6 -7 0
v -6 -6 0
v -5 -6 0
v -6 -7 0
v -7 -7 0
v -7 -6 0
v -6 -6 0
v -11 -7 0
v -12 -7 0
v -12 -6 0
v -11 -6 0
v -14 -7 0
v -15 -7 0
v -15 -6 0
v -14 -6 0
v -15 -7 0
v -16 -7 0
v -16 -6 0
v -15 -6 0
v -16 -7 0
v -17 -7 0
v -17 -6 0
v -16 -6 0
v -2 -8 0
v -3 -8 0
v -3 -7 0
v -2 -7 0
v -3 -8 0
v -4 -8 0
v -4 -7 0
v -3 -7 0
v -4 -8 0
v -5 -8 0
v -5 -7 0
v -4 -7 0
v -5 -8 0
v -6 -8 0
v -6 -7 0
v -5 -7 0
v -8 -8 0
v -9 -8 0
v -9 -7 0
v -8 -7 0
v -12 -8 0
v -13 -8 0
v -13 -7 0
v -12 -7 0
v -13 -8 0
v -14 -8 0
v -14 -7 0
v -13 -7 0
v -15 -8 0
v -16 -8 0
v -16 -7 0
v -15 -7 0
v -2 -9 0
v -3 -9 0
v -3 -8 0
v -2 -8 0
v -3 -9 0
v -4 -9 0
v -4 -8 0
v -3 -8 0
v -4 -9 0
v -5 -9 0
v -5 -8 0
v -4 -8 0
v -6 -9 0
v -7 -9 0
v -7 -8 0
v -6 -8 0
v -10 -9 0
v -11 -9 0
v -11 -8 0
v -10 -8 0
v -12 -9 0
v -13 -9 0
v -13 -8 0
v -12 -8 0
v -13 -9 0
v -14 -9 0
v -14 -8 0
v -13 -8 0
v -15 -9 0
v -16 -9 0
v -16 -8 0
v -15 -8 0
v -16 -9 0
v -17 -9 0
v -17 -8 0
v -16 -8 0
v -2 -10 0
v -3 -10 0
v -3 -9 0
v -2 -9 0
v -3 -10 0
v -4 -10 0
v -4 -9 0
v -3 -9 0
v -5 -10 0
v -6 -10 0
v -6 -9 0
v -5 -9 0
v -12 -10 0
v -13 -10 0
v -13 -9 0
v -12 -9 0
v -13 -10 0
v -14 -10 0
v -14 -9 0
v -13 -9 0
v -14 -10 0
v -15 -10 0
v -15 -9 0
v -14 -9 0
v -15 -10 0
v -16 -10 0
v -16 -9 0
v -15 -9 0
v -7 -11 0
v -8 -11 0
v -8 -10 0
v -7 -10 0
v -8 -11 0
v -9 -11 0
v -9 -10 0
v -8 -10 0
v -10 -11 0
v -11 -11 0
v -11 -10 0
v -10 -10 0
v -3 -12 0
v -4 -12 0
v -4 -11 0
v -3 -11 0
v -5 -12 0
v -6 -12 0
v -6 -11 0
v -5 -11 0
v -7 -12 0
v -8 -12 0
v -8 -11 0
v -7 -11 0
v -8 -12 0
v -9 -12 0
v -9 -11 0
v -8 -11 0

# Texture cooridinates (Count = 60)
vt 0.9791921 0.9376147
vt 0.998776 0.9376147
vt 0.998776 0.9669725
vt 0.9791921 0.9669725
vt 0.08445533 0.906422
vt 0.1040392 0.906422
vt 0.1040392 0.9357798
vt 0.08445533 0.9357798
vt 0.250918 0.6568807
vt 0.2705018 0.6568807
vt 0.2705018 0.6862385
vt 0.250918 0.6862385
vt 0.4381885 0.7504587
vt 0.4577723 0.7504587
vt 0.4577723 0.7798165
vt 0.4381885 0.7798165
vt 0.2301102 0.8752294
vt 0.249694 0.8752294
vt 0.249694 0.9045871
vt 0.2301102 0.9045871
vt 0.375765 0.812844
vt 0.3953488 0.812844
vt 0.3953488 0.8422018
vt 0.375765 0.8422018
vt 0.1884945 0.812844
vt 0.2080783 0.812844
vt 0.2080783 0.8422018
vt 0.1884945 0.8422018
vt 0.2093023 0.812844
vt 0.2288862 0.812844
vt 0.2288862 0.8422018
vt 0.2093023 0.8422018
vt 0.3133415 0.906422
vt 0.3329253 0.906422
vt 0.3329253 0.9357798
vt 0.3133415 0.9357798
vt 0.3133415 0.7504587
vt 0.3329253 0.7504587
vt 0.3329253 0.7798165
vt 0.3133415 0.7798165
vt 0.2301102 0.812844
vt 0.249694 0.812844
vt 0.249694 0.8422018
vt 0.2301102 0.8422018
vt 0.250918 0.812844
vt 0.2705018 0.812844
vt 0.2705018 0.8422018
vt 0.250918 0.8422018
vt 0.500612 0.7504587
vt 0.5201958 0.7504587
vt 0.5201958 0.7798165
vt 0.500612 0.7798165
vt 0.3341493 0.6568807
vt 0.3537332 0.6568807
vt 0.3537332 0.6862385
vt 0.3341493 0.6862385
vt 0.3341493 0.906422
vt 0.3537332 0.906422
vt 0.3537332 0.9357798
vt 0.3341493 0.9357798

# Normal
vn 0 0 -1

# Mesh description
g cave8_mesh_0002

# Faces
f 1/1/1 2/2/1 3/3/1 4/4/1
f 5/1/1 6/2/1 7/3/1 8/4/1
f 9/1/1 10/2/1 11/3/1 12/4/1
f 13/1/1 14/2/1 15/3/1 16/4/1
f 17/5/1 18/6/1 19/7/1 20/8/1
f 21/5/1 22/6/1 23/7/1 24/8/1
f 25/5/1 26/6/1 27/7/1 28/8/1
f 29/1/1 30/2/1 31/3/1 32/4/1
f 33/5/1 34/6/1 35/7/1 36/8/1
f 37/9/1 38/10/1 39/11/1 40/12/1
f 41/13/1 42/14/1 43/15/1 44/16/1
f 45/17/1 46/18/1 47/19/1 48/20/1
f 49/21/1 50/22/1 51/23/1 52/24/1
f 53/21/1 54/22/1 55/23/1 56/24/1
f 57/1/1 58/2/1 59/3/1 60/4/1
f 61/5/1 62/6/1 63/7/1 64/8/1
f 65/25/1 66/26/1 67/27/1 68/28/1
f 69/29/1 70/30/1 71/31/1 72/32/1
f 73/33/1 74/34/1 75/35/1 76/36/1
f 77/37/1 78/38/1 79/39/1 80/40/1
f 81/9/1 82/10/1 83/11/1 84/12/1
f 85/21/1 86/22/1 87/23/1 88/24/1
f 89/21/1 90/22/1 91/23/1 92/24/1
f 93/21/1 94/22/1 95/23/1 96/24/1
f 97/5/1 98/6/1 99/7/1 100/8/1
f 101/21/1 102/22/1 103/23/1 104/24/1
f 105/17/1 106/18/1 107/19/1 108/20/1
f 109/41/1 110/42/1 111/43/1 112/44/1
f 113/45/1 114/46/1 115/47/1 116/48/1
f 117/13/1 118/14/1 119/15/1 120/16/1
f 121/9/1 122/10/1 123/11/1 124/12/1
f 125/17/1 126/18/1 127/19/1 128/20/1
f 129/17/1 130/18/1 131/19/1 132/20/1
f 133/13/1 134/14/1 135/15/1 136/16/1
f 137/21/1 138/22/1 139/23/1 140/24/1
f 141/49/1 142/50/1 143/51/1 144/52/1
f 145/13/1 146/14/1 147/15/1 148/16/1
f 149/33/1 150/34/1 151/35/1 152/36/1
f 153/25/1 154/26/1 155/27/1 156/28/1
f 157/29/1 158/30/1 159/31/1 160/32/1
f 161/13/1 162/14/1 163/15/1 164/16/1
f 165/21/1 166/22/1 167/23/1 168/24/1
f 169/21/1 170/22/1 171/23/1 172/24/1
f 173/9/1 174/10/1 175/11/1 176/12/1
f 177/37/1 178/38/1 179/39/1 180/40/1
f 181/53/1 182/54/1 183/55/1 184/56/1
f 185/41/1 186/42/1 187/43/1 188/44/1
f 189/45/1 190/46/1 191/47/1 192/48/1
f 193/21/1 194/22/1 195/23/1 196/24/1
f 197/21/1 198/22/1 199/23/1 200/24/1
f 201/21/1 202/22/1 203/23/1 204/24/1
f 205/9/1 206/10/1 207/11/1 208/12/1
f 209/49/1 210/50/1 211/51/1 212/52/1
f 213/9/1 214/10/1 215/11/1 216/12/1
f 217/21/1 218/22/1 219/23/1 220/24/1
f 221/21/1 222/22/1 223/23/1 224/24/1
f 225/21/1 226/22/1 227/23/1 228/24/1
f 229/25/1 230/26/1 231/27/1 232/28/1
f 233/29/1 234/30/1 235/31/1 236/32/1
f 237/13/1 238/14/1 239/15/1 240/16/1
f 241/33/1 242/34/1 243/35/1 244/36/1
f 245/57/1 246/58/1 247/59/1 248/60/1
f 249/41/1 250/42/1 251/43/1 252/44/1
f 253/45/1 254/46/1 255/47/1 256/48/1

