# Tiled2Unity generated file. Do not modify by hand.
# Wavefront file for 'toMerix1_mesh_0005.obj'

# Vertices (Count = 168)
v -9 -4 0
v -10 -4 0
v -10 -3 0
v -9 -3 0
v -10 -4 0
v -11 -4 0
v -11 -3 0
v -10 -3 0
v -11 -4 0
v -12 -4 0
v -12 -3 0
v -11 -3 0
v -12 -4 0
v -13 -4 0
v -13 -3 0
v -12 -3 0
v -8 -5 0
v -9 -5 0
v -9 -4 0
v -8 -4 0
v -9 -5 0
v -10 -5 0
v -10 -4 0
v -9 -4 0
v -10 -5 0
v -11 -5 0
v -11 -4 0
v -10 -4 0
v -11 -5 0
v -12 -5 0
v -12 -4 0
v -11 -4 0
v -12 -5 0
v -13 -5 0
v -13 -4 0
v -12 -4 0
v -13 -5 0
v -14 -5 0
v -14 -4 0
v -13 -4 0
v -8 -6 0
v -9 -6 0
v -9 -5 0
v -8 -5 0
v -9 -6 0
v -10 -6 0
v -10 -5 0
v -9 -5 0
v -10 -6 0
v -11 -6 0
v -11 -5 0
v -10 -5 0
v -11 -6 0
v -12 -6 0
v -12 -5 0
v -11 -5 0
v -12 -6 0
v -13 -6 0
v -13 -5 0
v -12 -5 0
v -13 -6 0
v -14 -6 0
v -14 -5 0
v -13 -5 0
v -8 -7 0
v -9 -7 0
v -9 -6 0
v -8 -6 0
v -9 -7 0
v -10 -7 0
v -10 -6 0
v -9 -6 0
v -10 -7 0
v -11 -7 0
v -11 -6 0
v -10 -6 0
v -11 -7 0
v -12 -7 0
v -12 -6 0
v -11 -6 0
v -12 -7 0
v -13 -7 0
v -13 -6 0
v -12 -6 0
v -13 -7 0
v -14 -7 0
v -14 -6 0
v -13 -6 0
v -8 -8 0
v -9 -8 0
v -9 -7 0
v -8 -7 0
v -9 -8 0
v -10 -8 0
v -10 -7 0
v -9 -7 0
v -10 -8 0
v -11 -8 0
v -11 -7 0
v -10 -7 0
v -11 -8 0
v -12 -8 0
v -12 -7 0
v -11 -7 0
v -12 -8 0
v -13 -8 0
v -13 -7 0
v -12 -7 0
v -13 -8 0
v -14 -8 0
v -14 -7 0
v -13 -7 0
v -8 -9 0
v -9 -9 0
v -9 -8 0
v -8 -8 0
v -9 -9 0
v -10 -9 0
v -10 -8 0
v -9 -8 0
v -10 -9 0
v -11 -9 0
v -11 -8 0
v -10 -8 0
v -11 -9 0
v -12 -9 0
v -12 -8 0
v -11 -8 0
v -12 -9 0
v -13 -9 0
v -13 -8 0
v -12 -8 0
v -13 -9 0
v -14 -9 0
v -14 -8 0
v -13 -8 0
v -6 -18 0
v -7 -18 0
v -7 -17 0
v -6 -17 0
v -7 -18 0
v -8 -18 0
v -8 -17 0
v -7 -17 0
v -8 -18 0
v -9 -18 0
v -9 -17 0
v -8 -17 0
v -9 -18 0
v -10 -18 0
v -10 -17 0
v -9 -17 0
v -12 -18 0
v -13 -18 0
v -13 -17 0
v -12 -17 0
v -13 -18 0
v -14 -18 0
v -14 -17 0
v -13 -17 0
v -14 -18 0
v -15 -18 0
v -15 -17 0
v -14 -17 0
v -15 -18 0
v -16 -18 0
v -16 -17 0
v -15 -17 0

# Texture cooridinates (Count = 72)
vt 0.8127295 0.7816514
vt 0.8323134 0.7816514
vt 0.8323134 0.8110092
vt 0.8127295 0.8110092
vt 0.8335373 0.7816514
vt 0.8531212 0.7816514
vt 0.8531212 0.8110092
vt 0.8335373 0.8110092
vt 0.8543451 0.7816514
vt 0.873929 0.7816514
vt 0.873929 0.8110092
vt 0.8543451 0.8110092
vt 0.2301102 0.8440367
vt 0.249694 0.8440367
vt 0.249694 0.8733945
vt 0.2301102 0.8733945
vt 0.1884945 0.8440367
vt 0.2080783 0.8440367
vt 0.2080783 0.8733945
vt 0.1884945 0.8733945
vt 0.04161567 0.906422
vt 0.02203182 0.906422
vt 0.02203182 0.9357798
vt 0.04161567 0.9357798
vt 0.2705018 0.7816514
vt 0.250918 0.7816514
vt 0.250918 0.8110092
vt 0.2705018 0.8110092
vt 0.126071 0.906422
vt 0.1456548 0.906422
vt 0.1456548 0.9357798
vt 0.126071 0.9357798
vt 0.1468788 0.906422
vt 0.1664627 0.906422
vt 0.1664627 0.9357798
vt 0.1468788 0.9357798
vt 0.02203182 0.8440367
vt 0.04161567 0.8440367
vt 0.04161567 0.8733945
vt 0.02203182 0.8733945
vt 0.2705018 0.812844
vt 0.250918 0.812844
vt 0.250918 0.8422018
vt 0.2705018 0.8422018
vt 0.250918 0.906422
vt 0.2705018 0.906422
vt 0.2705018 0.9357798
vt 0.250918 0.9357798
vt 0.7711138 0.7816514
vt 0.7906977 0.7816514
vt 0.7906977 0.8110092
vt 0.7711138 0.8110092
vt 0.2717258 0.906422
vt 0.2913097 0.906422
vt 0.2913097 0.9357798
vt 0.2717258 0.9357798
vt 0.7711138 0.9376147
vt 0.7906977 0.9376147
vt 0.7906977 0.9669725
vt 0.7711138 0.9669725
vt 0.7919217 0.9376147
vt 0.8115055 0.9376147
vt 0.8115055 0.9669725
vt 0.7919217 0.9669725
vt 0.8127295 0.9376147
vt 0.8323134 0.9376147
vt 0.8323134 0.9669725
vt 0.8127295 0.9669725
vt 0.8335373 0.9376147
vt 0.8531212 0.9376147
vt 0.8531212 0.9669725
vt 0.8335373 0.9669725

# Normal
vn 0 0 -1

# Mesh description
g toMerix1_mesh_0005

# Faces
f 1/1/1 2/2/1 3/3/1 4/4/1
f 5/5/1 6/6/1 7/7/1 8/8/1
f 9/5/1 10/6/1 11/7/1 12/8/1
f 13/9/1 14/10/1 15/11/1 16/12/1
f 17/1/1 18/2/1 19/3/1 20/4/1
f 21/13/1 22/14/1 23/15/1 24/16/1
f 25/13/1 26/14/1 27/15/1 28/16/1
f 29/13/1 30/14/1 31/15/1 32/16/1
f 33/13/1 34/14/1 35/15/1 36/16/1
f 37/2/1 38/1/1 39/4/1 40/3/1
f 41/17/1 42/18/1 43/19/1 44/20/1
f 45/13/1 46/14/1 47/15/1 48/16/1
f 49/13/1 50/14/1 51/15/1 52/16/1
f 53/13/1 54/14/1 55/15/1 56/16/1
f 57/13/1 58/14/1 59/15/1 60/16/1
f 61/18/1 62/17/1 63/20/1 64/19/1
f 65/21/1 66/22/1 67/23/1 68/24/1
f 69/13/1 70/14/1 71/15/1 72/16/1
f 73/13/1 74/14/1 75/15/1 76/16/1
f 77/13/1 78/14/1 79/15/1 80/16/1
f 81/13/1 82/14/1 83/15/1 84/16/1
f 85/22/1 86/21/1 87/24/1 88/23/1
f 89/25/1 90/26/1 91/27/1 92/28/1
f 93/29/1 94/30/1 95/31/1 96/32/1
f 97/33/1 98/34/1 99/35/1 100/36/1
f 101/29/1 102/30/1 103/31/1 104/32/1
f 105/37/1 106/38/1 107/39/1 108/40/1
f 109/26/1 110/25/1 111/28/1 112/27/1
f 113/41/1 114/42/1 115/43/1 116/44/1
f 117/45/1 118/46/1 119/47/1 120/48/1
f 121/49/1 122/50/1 123/51/1 124/52/1
f 125/49/1 126/50/1 127/51/1 128/52/1
f 129/53/1 130/54/1 131/55/1 132/56/1
f 133/42/1 134/41/1 135/44/1 136/43/1
f 137/57/1 138/58/1 139/59/1 140/60/1
f 141/61/1 142/62/1 143/63/1 144/64/1
f 145/65/1 146/66/1 147/67/1 148/68/1
f 149/69/1 150/70/1 151/71/1 152/72/1
f 153/57/1 154/58/1 155/59/1 156/60/1
f 157/61/1 158/62/1 159/63/1 160/64/1
f 161/65/1 162/66/1 163/67/1 164/68/1
f 165/69/1 166/70/1 167/71/1 168/72/1

