# Tiled2Unity generated file. Do not modify by hand.
# Wavefront file for 'toMerix1_mesh_0006.obj'

# Vertices (Count = 8)
v -10 -10 0
v -11 -10 0
v -11 -9 0
v -10 -9 0
v -11 -10 0
v -12 -10 0
v -12 -9 0
v -11 -9 0

# Texture cooridinates (Count = 8)
vt 0.3549572 0.812844
vt 0.374541 0.812844
vt 0.374541 0.8422018
vt 0.3549572 0.8422018
vt 0.375765 0.812844
vt 0.3953488 0.812844
vt 0.3953488 0.8422018
vt 0.375765 0.8422018

# Normal
vn 0 0 -1

# Mesh description
g toMerix1_mesh_0006

# Faces
f 1/1/1 2/2/1 3/3/1 4/4/1
f 5/5/1 6/6/1 7/7/1 8/8/1

