# Tiled2Unity generated file. Do not modify by hand.
# Wavefront file for 'darkWoods_7_mesh_0008.obj'

# Vertices (Count = 312)
v -11 -4 0
v -12 -4 0
v -12 -3 0
v -11 -3 0
v -12 -4 0
v -13 -4 0
v -13 -3 0
v -12 -3 0
v -13 -4 0
v -14 -4 0
v -14 -3 0
v -13 -3 0
v -10 -5 0
v -11 -5 0
v -11 -4 0
v -10 -4 0
v -11 -5 0
v -12 -5 0
v -12 -4 0
v -11 -4 0
v -12 -5 0
v -13 -5 0
v -13 -4 0
v -12 -4 0
v -13 -5 0
v -14 -5 0
v -14 -4 0
v -13 -4 0
v -14 -5 0
v -15 -5 0
v -15 -4 0
v -14 -4 0
v -10 -6 0
v -11 -6 0
v -11 -5 0
v -10 -5 0
v -11 -6 0
v -12 -6 0
v -12 -5 0
v -11 -5 0
v -12 -6 0
v -13 -6 0
v -13 -5 0
v -12 -5 0
v -13 -6 0
v -14 -6 0
v -14 -5 0
v -13 -5 0
v -14 -6 0
v -15 -6 0
v -15 -5 0
v -14 -5 0
v -5 -7 0
v -6 -7 0
v -6 -6 0
v -5 -6 0
v -6 -7 0
v -7 -7 0
v -7 -6 0
v -6 -6 0
v -7 -7 0
v -8 -7 0
v -8 -6 0
v -7 -6 0
v -17 -7 0
v -18 -7 0
v -18 -6 0
v -17 -6 0
v -18 -7 0
v -19 -7 0
v -19 -6 0
v -18 -6 0
v -19 -7 0
v -20 -7 0
v -20 -6 0
v -19 -6 0
v -4 -8 0
v -5 -8 0
v -5 -7 0
v -4 -7 0
v -5 -8 0
v -6 -8 0
v -6 -7 0
v -5 -7 0
v -6 -8 0
v -7 -8 0
v -7 -7 0
v -6 -7 0
v -7 -8 0
v -8 -8 0
v -8 -7 0
v -7 -7 0
v -8 -8 0
v -9 -8 0
v -9 -7 0
v -8 -7 0
v -16 -8 0
v -17 -8 0
v -17 -7 0
v -16 -7 0
v -17 -8 0
v -18 -8 0
v -18 -7 0
v -17 -7 0
v -18 -8 0
v -19 -8 0
v -19 -7 0
v -18 -7 0
v -19 -8 0
v -20 -8 0
v -20 -7 0
v -19 -7 0
v -20 -8 0
v -21 -8 0
v -21 -7 0
v -20 -7 0
v -4 -9 0
v -5 -9 0
v -5 -8 0
v -4 -8 0
v -5 -9 0
v -6 -9 0
v -6 -8 0
v -5 -8 0
v -6 -9 0
v -7 -9 0
v -7 -8 0
v -6 -8 0
v -7 -9 0
v -8 -9 0
v -8 -8 0
v -7 -8 0
v -8 -9 0
v -9 -9 0
v -9 -8 0
v -8 -8 0
v -16 -9 0
v -17 -9 0
v -17 -8 0
v -16 -8 0
v -17 -9 0
v -18 -9 0
v -18 -8 0
v -17 -8 0
v -18 -9 0
v -19 -9 0
v -19 -8 0
v -18 -8 0
v -19 -9 0
v -20 -9 0
v -20 -8 0
v -19 -8 0
v -20 -9 0
v -21 -9 0
v -21 -8 0
v -20 -8 0
v -5 -13 0
v -6 -13 0
v -6 -12 0
v -5 -12 0
v -6 -13 0
v -7 -13 0
v -7 -12 0
v -6 -12 0
v -7 -13 0
v -8 -13 0
v -8 -12 0
v -7 -12 0
v -17 -13 0
v -18 -13 0
v -18 -12 0
v -17 -12 0
v -18 -13 0
v -19 -13 0
v -19 -12 0
v -18 -12 0
v -19 -13 0
v -20 -13 0
v -20 -12 0
v -19 -12 0
v -4 -14 0
v -5 -14 0
v -5 -13 0
v -4 -13 0
v -5 -14 0
v -6 -14 0
v -6 -13 0
v -5 -13 0
v -6 -14 0
v -7 -14 0
v -7 -13 0
v -6 -13 0
v -7 -14 0
v -8 -14 0
v -8 -13 0
v -7 -13 0
v -8 -14 0
v -9 -14 0
v -9 -13 0
v -8 -13 0
v -16 -14 0
v -17 -14 0
v -17 -13 0
v -16 -13 0
v -17 -14 0
v -18 -14 0
v -18 -13 0
v -17 -13 0
v -18 -14 0
v -19 -14 0
v -19 -13 0
v -18 -13 0
v -19 -14 0
v -20 -14 0
v -20 -13 0
v -19 -13 0
v -20 -14 0
v -21 -14 0
v -21 -13 0
v -20 -13 0
v -4 -15 0
v -5 -15 0
v -5 -14 0
v -4 -14 0
v -5 -15 0
v -6 -15 0
v -6 -14 0
v -5 -14 0
v -6 -15 0
v -7 -15 0
v -7 -14 0
v -6 -14 0
v -7 -15 0
v -8 -15 0
v -8 -14 0
v -7 -14 0
v -8 -15 0
v -9 -15 0
v -9 -14 0
v -8 -14 0
v -16 -15 0
v -17 -15 0
v -17 -14 0
v -16 -14 0
v -17 -15 0
v -18 -15 0
v -18 -14 0
v -17 -14 0
v -18 -15 0
v -19 -15 0
v -19 -14 0
v -18 -14 0
v -19 -15 0
v -20 -15 0
v -20 -14 0
v -19 -14 0
v -20 -15 0
v -21 -15 0
v -21 -14 0
v -20 -14 0
v -11 -17 0
v -12 -17 0
v -12 -16 0
v -11 -16 0
v -12 -17 0
v -13 -17 0
v -13 -16 0
v -12 -16 0
v -13 -17 0
v -14 -17 0
v -14 -16 0
v -13 -16 0
v -10 -18 0
v -11 -18 0
v -11 -17 0
v -10 -17 0
v -11 -18 0
v -12 -18 0
v -12 -17 0
v -11 -17 0
v -12 -18 0
v -13 -18 0
v -13 -17 0
v -12 -17 0
v -13 -18 0
v -14 -18 0
v -14 -17 0
v -13 -17 0
v -14 -18 0
v -15 -18 0
v -15 -17 0
v -14 -17 0
v -10 -19 0
v -11 -19 0
v -11 -18 0
v -10 -18 0
v -11 -19 0
v -12 -19 0
v -12 -18 0
v -11 -18 0
v -12 -19 0
v -13 -19 0
v -13 -18 0
v -12 -18 0
v -13 -19 0
v -14 -19 0
v -14 -18 0
v -13 -18 0
v -14 -19 0
v -15 -19 0
v -15 -18 0
v -14 -18 0

# Texture cooridinates (Count = 52)
vt 0.8543451 0.906422
vt 0.873929 0.906422
vt 0.873929 0.9357798
vt 0.8543451 0.9357798
vt 0.875153 0.906422
vt 0.8947368 0.906422
vt 0.8947368 0.9357798
vt 0.875153 0.9357798
vt 0.8959608 0.906422
vt 0.9155447 0.906422
vt 0.9155447 0.9357798
vt 0.8959608 0.9357798
vt 0.04283966 0.8752294
vt 0.0624235 0.8752294
vt 0.0624235 0.9045871
vt 0.04283966 0.9045871
vt 0.06364749 0.8752294
vt 0.08323134 0.8752294
vt 0.08323134 0.9045871
vt 0.06364749 0.9045871
vt 0.08445533 0.8752294
vt 0.1040392 0.8752294
vt 0.1040392 0.9045871
vt 0.08445533 0.9045871
vt 0.1052632 0.8752294
vt 0.124847 0.8752294
vt 0.124847 0.9045871
vt 0.1052632 0.9045871
vt 0.126071 0.8752294
vt 0.1456548 0.8752294
vt 0.1456548 0.9045871
vt 0.126071 0.9045871
vt 0.2717258 0.8752294
vt 0.2913097 0.8752294
vt 0.2913097 0.9045871
vt 0.2717258 0.9045871
vt 0.2925337 0.8752294
vt 0.3121175 0.8752294
vt 0.3121175 0.9045871
vt 0.2925337 0.9045871
vt 0.3133415 0.8752294
vt 0.3329253 0.8752294
vt 0.3329253 0.9045871
vt 0.3133415 0.9045871
vt 0.3341493 0.8752294
vt 0.3537332 0.8752294
vt 0.3537332 0.9045871
vt 0.3341493 0.9045871
vt 0.3549572 0.8752294
vt 0.374541 0.8752294
vt 0.374541 0.9045871
vt 0.3549572 0.9045871

# Normal
vn 0 0 -1

# Mesh description
g darkWoods_7_mesh_0008

# Faces
f 1/1/1 2/2/1 3/3/1 4/4/1
f 5/5/1 6/6/1 7/7/1 8/8/1
f 9/9/1 10/10/1 11/11/1 12/12/1
f 13/13/1 14/14/1 15/15/1 16/16/1
f 17/17/1 18/18/1 19/19/1 20/20/1
f 21/21/1 22/22/1 23/23/1 24/24/1
f 25/25/1 26/26/1 27/27/1 28/28/1
f 29/29/1 30/30/1 31/31/1 32/32/1
f 33/33/1 34/34/1 35/35/1 36/36/1
f 37/37/1 38/38/1 39/39/1 40/40/1
f 41/41/1 42/42/1 43/43/1 44/44/1
f 45/45/1 46/46/1 47/47/1 48/48/1
f 49/49/1 50/50/1 51/51/1 52/52/1
f 53/1/1 54/2/1 55/3/1 56/4/1
f 57/5/1 58/6/1 59/7/1 60/8/1
f 61/9/1 62/10/1 63/11/1 64/12/1
f 65/1/1 66/2/1 67/3/1 68/4/1
f 69/5/1 70/6/1 71/7/1 72/8/1
f 73/9/1 74/10/1 75/11/1 76/12/1
f 77/13/1 78/14/1 79/15/1 80/16/1
f 81/17/1 82/18/1 83/19/1 84/20/1
f 85/21/1 86/22/1 87/23/1 88/24/1
f 89/25/1 90/26/1 91/27/1 92/28/1
f 93/29/1 94/30/1 95/31/1 96/32/1
f 97/13/1 98/14/1 99/15/1 100/16/1
f 101/17/1 102/18/1 103/19/1 104/20/1
f 105/21/1 106/22/1 107/23/1 108/24/1
f 109/25/1 110/26/1 111/27/1 112/28/1
f 113/29/1 114/30/1 115/31/1 116/32/1
f 117/33/1 118/34/1 119/35/1 120/36/1
f 121/37/1 122/38/1 123/39/1 124/40/1
f 125/41/1 126/42/1 127/43/1 128/44/1
f 129/45/1 130/46/1 131/47/1 132/48/1
f 133/49/1 134/50/1 135/51/1 136/52/1
f 137/33/1 138/34/1 139/35/1 140/36/1
f 141/37/1 142/38/1 143/39/1 144/40/1
f 145/41/1 146/42/1 147/43/1 148/44/1
f 149/45/1 150/46/1 151/47/1 152/48/1
f 153/49/1 154/50/1 155/51/1 156/52/1
f 157/1/1 158/2/1 159/3/1 160/4/1
f 161/5/1 162/6/1 163/7/1 164/8/1
f 165/9/1 166/10/1 167/11/1 168/12/1
f 169/1/1 170/2/1 171/3/1 172/4/1
f 173/5/1 174/6/1 175/7/1 176/8/1
f 177/9/1 178/10/1 179/11/1 180/12/1
f 181/13/1 182/14/1 183/15/1 184/16/1
f 185/17/1 186/18/1 187/19/1 188/20/1
f 189/21/1 190/22/1 191/23/1 192/24/1
f 193/25/1 194/26/1 195/27/1 196/28/1
f 197/29/1 198/30/1 199/31/1 200/32/1
f 201/13/1 202/14/1 203/15/1 204/16/1
f 205/17/1 206/18/1 207/19/1 208/20/1
f 209/21/1 210/22/1 211/23/1 212/24/1
f 213/25/1 214/26/1 215/27/1 216/28/1
f 217/29/1 218/30/1 219/31/1 220/32/1
f 221/33/1 222/34/1 223/35/1 224/36/1
f 225/37/1 226/38/1 227/39/1 228/40/1
f 229/41/1 230/42/1 231/43/1 232/44/1
f 233/45/1 234/46/1 235/47/1 236/48/1
f 237/49/1 238/50/1 239/51/1 240/52/1
f 241/33/1 242/34/1 243/35/1 244/36/1
f 245/37/1 246/38/1 247/39/1 248/40/1
f 249/41/1 250/42/1 251/43/1 252/44/1
f 253/45/1 254/46/1 255/47/1 256/48/1
f 257/49/1 258/50/1 259/51/1 260/52/1
f 261/1/1 262/2/1 263/3/1 264/4/1
f 265/5/1 266/6/1 267/7/1 268/8/1
f 269/9/1 270/10/1 271/11/1 272/12/1
f 273/13/1 274/14/1 275/15/1 276/16/1
f 277/17/1 278/18/1 279/19/1 280/20/1
f 281/21/1 282/22/1 283/23/1 284/24/1
f 285/25/1 286/26/1 287/27/1 288/28/1
f 289/29/1 290/30/1 291/31/1 292/32/1
f 293/33/1 294/34/1 295/35/1 296/36/1
f 297/37/1 298/38/1 299/39/1 300/40/1
f 301/41/1 302/42/1 303/43/1 304/44/1
f 305/45/1 306/46/1 307/47/1 308/48/1
f 309/49/1 310/50/1 311/51/1 312/52/1

