# Tiled2Unity generated file. Do not modify by hand.
# Wavefront file for 'darkWoods_3_mesh_0003.obj'

# Vertices (Count = 88)
v -9 -1 0
v -10 -1 0
v -10 0 0
v -9 0 0
v -8 -2 0
v -9 -2 0
v -9 -1 0
v -8 -1 0
v -8 -3 0
v -9 -3 0
v -9 -2 0
v -8 -2 0
v -7 -4 0
v -8 -4 0
v -8 -3 0
v -7 -3 0
v -6 -5 0
v -7 -5 0
v -7 -4 0
v -6 -4 0
v -5 -6 0
v -6 -6 0
v -6 -5 0
v -5 -5 0
v -4 -7 0
v -5 -7 0
v -5 -6 0
v -4 -6 0
v -3 -8 0
v -4 -8 0
v -4 -7 0
v -3 -7 0
v -1 -9 0
v -2 -9 0
v -2 -8 0
v -1 -8 0
v -2 -9 0
v -3 -9 0
v -3 -8 0
v -2 -8 0
v -1 -10 0
v -2 -10 0
v -2 -9 0
v -1 -9 0
v 0 -11 0
v -1 -11 0
v -1 -10 0
v 0 -10 0
v 0 -15 0
v -1 -15 0
v -1 -14 0
v 0 -14 0
v -1 -16 0
v -2 -16 0
v -2 -15 0
v -1 -15 0
v -2 -17 0
v -3 -17 0
v -3 -16 0
v -2 -16 0
v -3 -18 0
v -4 -18 0
v -4 -17 0
v -3 -17 0
v -5 -19 0
v -6 -19 0
v -6 -18 0
v -5 -18 0
v -6 -20 0
v -7 -20 0
v -7 -19 0
v -6 -19 0
v -8 -21 0
v -9 -21 0
v -9 -20 0
v -8 -20 0
v -11 -22 0
v -12 -22 0
v -12 -21 0
v -11 -21 0
v -13 -23 0
v -14 -23 0
v -14 -22 0
v -13 -22 0
v -14 -24 0
v -15 -24 0
v -15 -23 0
v -14 -23 0

# Texture cooridinates (Count = 8)
vt 0.3133415 0.9688073
vt 0.3329253 0.9688073
vt 0.3329253 0.9981651
vt 0.3133415 0.9981651
vt 0.3121175 0.9688073
vt 0.2925337 0.9688073
vt 0.2925337 0.9981651
vt 0.3121175 0.9981651

# Normal
vn 0 0 -1

# Mesh description
g darkWoods_3_mesh_0003

# Faces
f 1/1/1 2/2/1 3/3/1 4/4/1
f 5/1/1 6/2/1 7/3/1 8/4/1
f 9/1/1 10/2/1 11/3/1 12/4/1
f 13/1/1 14/2/1 15/3/1 16/4/1
f 17/1/1 18/2/1 19/3/1 20/4/1
f 21/1/1 22/2/1 23/3/1 24/4/1
f 25/1/1 26/2/1 27/3/1 28/4/1
f 29/1/1 30/2/1 31/3/1 32/4/1
f 33/1/1 34/2/1 35/3/1 36/4/1
f 37/1/1 38/2/1 39/3/1 40/4/1
f 41/1/1 42/2/1 43/3/1 44/4/1
f 45/1/1 46/2/1 47/3/1 48/4/1
f 49/5/1 50/6/1 51/7/1 52/8/1
f 53/5/1 54/6/1 55/7/1 56/8/1
f 57/5/1 58/6/1 59/7/1 60/8/1
f 61/5/1 62/6/1 63/7/1 64/8/1
f 65/5/1 66/6/1 67/7/1 68/8/1
f 69/5/1 70/6/1 71/7/1 72/8/1
f 73/5/1 74/6/1 75/7/1 76/8/1
f 77/5/1 78/6/1 79/7/1 80/8/1
f 81/5/1 82/6/1 83/7/1 84/8/1
f 85/5/1 86/6/1 87/7/1 88/8/1

