# Tiled2Unity generated file. Do not modify by hand.
# Wavefront file for 'darkWoods_3_mesh_0005.obj'

# Vertices (Count = 260)
v -7 -2 0
v -8 -2 0
v -8 -1 0
v -7 -1 0
v -8 -2 0
v -9 -2 0
v -9 -1 0
v -8 -1 0
v -9 -2 0
v -10 -2 0
v -10 -1 0
v -9 -1 0
v -10 -2 0
v -11 -2 0
v -11 -1 0
v -10 -1 0
v -11 -2 0
v -12 -2 0
v -12 -1 0
v -11 -1 0
v -12 -2 0
v -13 -2 0
v -13 -1 0
v -12 -1 0
v -13 -2 0
v -14 -2 0
v -14 -1 0
v -13 -1 0
v -14 -2 0
v -15 -2 0
v -15 -1 0
v -14 -1 0
v -15 -2 0
v -16 -2 0
v -16 -1 0
v -15 -1 0
v -16 -3 0
v -17 -3 0
v -17 -2 0
v -16 -2 0
v -6 -4 0
v -7 -4 0
v -7 -3 0
v -6 -3 0
v -7 -4 0
v -8 -4 0
v -8 -3 0
v -7 -3 0
v -18 -4 0
v -19 -4 0
v -19 -3 0
v -18 -3 0
v -4 -5 0
v -5 -5 0
v -5 -4 0
v -4 -4 0
v -5 -5 0
v -6 -5 0
v -6 -4 0
v -5 -4 0
v -11 -5 0
v -12 -5 0
v -12 -4 0
v -11 -4 0
v -19 -5 0
v -20 -5 0
v -20 -4 0
v -19 -4 0
v -2 -6 0
v -3 -6 0
v -3 -5 0
v -2 -5 0
v -3 -6 0
v -4 -6 0
v -4 -5 0
v -3 -5 0
v -11 -6 0
v -12 -6 0
v -12 -5 0
v -11 -5 0
v -20 -6 0
v -21 -6 0
v -21 -5 0
v -20 -5 0
v 0 -7 0
v -1 -7 0
v -1 -6 0
v 0 -6 0
v -1 -7 0
v -2 -7 0
v -2 -6 0
v -1 -6 0
v -20 -7 0
v -21 -7 0
v -21 -6 0
v -20 -6 0
v -15 -8 0
v -16 -8 0
v -16 -7 0
v -15 -7 0
v -16 -8 0
v -17 -8 0
v -17 -7 0
v -16 -7 0
v -20 -8 0
v -21 -8 0
v -21 -7 0
v -20 -7 0
v 0 -9 0
v -1 -9 0
v -1 -8 0
v 0 -8 0
v -1 -9 0
v -2 -9 0
v -2 -8 0
v -1 -8 0
v -20 -9 0
v -21 -9 0
v -21 -8 0
v -20 -8 0
v -4 -10 0
v -5 -10 0
v -5 -9 0
v -4 -9 0
v -5 -10 0
v -6 -10 0
v -6 -9 0
v -5 -9 0
v -21 -10 0
v -22 -10 0
v -22 -9 0
v -21 -9 0
v 0 -11 0
v -1 -11 0
v -1 -10 0
v 0 -10 0
v -21 -11 0
v -22 -11 0
v -22 -10 0
v -21 -10 0
v -21 -12 0
v -22 -12 0
v -22 -11 0
v -21 -11 0
v -21 -13 0
v -22 -13 0
v -22 -12 0
v -21 -12 0
v -18 -14 0
v -19 -14 0
v -19 -13 0
v -18 -13 0
v -19 -14 0
v -20 -14 0
v -20 -13 0
v -19 -13 0
v -21 -14 0
v -22 -14 0
v -22 -13 0
v -21 -13 0
v -21 -15 0
v -22 -15 0
v -22 -14 0
v -21 -14 0
v -21 -16 0
v -22 -16 0
v -22 -15 0
v -21 -15 0
v 0 -17 0
v -1 -17 0
v -1 -16 0
v 0 -16 0
v -20 -17 0
v -21 -17 0
v -21 -16 0
v -20 -16 0
v -1 -18 0
v -2 -18 0
v -2 -17 0
v -1 -17 0
v -19 -18 0
v -20 -18 0
v -20 -17 0
v -19 -17 0
v -2 -19 0
v -3 -19 0
v -3 -18 0
v -2 -18 0
v -7 -19 0
v -8 -19 0
v -8 -18 0
v -7 -18 0
v -8 -19 0
v -9 -19 0
v -9 -18 0
v -8 -18 0
v -14 -19 0
v -15 -19 0
v -15 -18 0
v -14 -18 0
v -15 -19 0
v -16 -19 0
v -16 -18 0
v -15 -18 0
v -19 -19 0
v -20 -19 0
v -20 -18 0
v -19 -18 0
v -3 -20 0
v -4 -20 0
v -4 -19 0
v -3 -19 0
v -18 -20 0
v -19 -20 0
v -19 -19 0
v -18 -19 0
v -5 -21 0
v -6 -21 0
v -6 -20 0
v -5 -20 0
v -17 -21 0
v -18 -21 0
v -18 -20 0
v -17 -20 0
v -7 -22 0
v -8 -22 0
v -8 -21 0
v -7 -21 0
v -16 -22 0
v -17 -22 0
v -17 -21 0
v -16 -21 0
v -9 -23 0
v -10 -23 0
v -10 -22 0
v -9 -22 0
v -15 -23 0
v -16 -23 0
v -16 -22 0
v -15 -22 0
v -16 -23 0
v -17 -23 0
v -17 -22 0
v -16 -22 0
v -10 -24 0
v -11 -24 0
v -11 -23 0
v -10 -23 0
v -14 -24 0
v -15 -24 0
v -15 -23 0
v -14 -23 0
v -10 -25 0
v -11 -25 0
v -11 -24 0
v -10 -24 0
v -14 -25 0
v -15 -25 0
v -15 -24 0
v -14 -24 0

# Texture cooridinates (Count = 32)
vt 0.06364749 0.8752294
vt 0.08323134 0.8752294
vt 0.08323134 0.9045871
vt 0.06364749 0.9045871
vt 0.126071 0.8752294
vt 0.1456548 0.8752294
vt 0.1456548 0.9045871
vt 0.126071 0.9045871
vt 0.625459 0.8440367
vt 0.6450428 0.8440367
vt 0.6450428 0.8733945
vt 0.625459 0.8733945
vt 0.6462668 0.8440367
vt 0.6658507 0.8440367
vt 0.6658507 0.8733945
vt 0.6462668 0.8733945
vt 0.02203182 0.812844
vt 0.04161567 0.812844
vt 0.04161567 0.8422018
vt 0.02203182 0.8422018
vt 0.126071 0.812844
vt 0.1456548 0.812844
vt 0.1456548 0.8422018
vt 0.126071 0.8422018
vt 0.08445533 0.8752294
vt 0.1040392 0.8752294
vt 0.1040392 0.9045871
vt 0.08445533 0.9045871
vt 0.1052632 0.8752294
vt 0.124847 0.8752294
vt 0.124847 0.9045871
vt 0.1052632 0.9045871

# Normal
vn 0 0 -1

# Mesh description
g darkWoods_3_mesh_0005

# Faces
f 1/1/1 2/2/1 3/3/1 4/4/1
f 5/1/1 6/2/1 7/3/1 8/4/1
f 9/1/1 10/2/1 11/3/1 12/4/1
f 13/1/1 14/2/1 15/3/1 16/4/1
f 17/1/1 18/2/1 19/3/1 20/4/1
f 21/1/1 22/2/1 23/3/1 24/4/1
f 25/1/1 26/2/1 27/3/1 28/4/1
f 29/1/1 30/2/1 31/3/1 32/4/1
f 33/1/1 34/2/1 35/3/1 36/4/1
f 37/5/1 38/6/1 39/7/1 40/8/1
f 41/9/1 42/10/1 43/11/1 44/12/1
f 45/13/1 46/14/1 47/15/1 48/16/1
f 49/5/1 50/6/1 51/7/1 52/8/1
f 53/9/1 54/10/1 55/11/1 56/12/1
f 57/13/1 58/14/1 59/15/1 60/16/1
f 61/17/1 62/18/1 63/19/1 64/20/1
f 65/5/1 66/6/1 67/7/1 68/8/1
f 69/9/1 70/10/1 71/11/1 72/12/1
f 73/13/1 74/14/1 75/15/1 76/16/1
f 77/21/1 78/22/1 79/23/1 80/24/1
f 81/25/1 82/26/1 83/27/1 84/28/1
f 85/9/1 86/10/1 87/11/1 88/12/1
f 89/13/1 90/14/1 91/15/1 92/16/1
f 93/25/1 94/26/1 95/27/1 96/28/1
f 97/9/1 98/10/1 99/11/1 100/12/1
f 101/13/1 102/14/1 103/15/1 104/16/1
f 105/25/1 106/26/1 107/27/1 108/28/1
f 109/9/1 110/10/1 111/11/1 112/12/1
f 113/13/1 114/14/1 115/15/1 116/16/1
f 117/5/1 118/6/1 119/7/1 120/8/1
f 121/9/1 122/10/1 123/11/1 124/12/1
f 125/13/1 126/14/1 127/15/1 128/16/1
f 129/25/1 130/26/1 131/27/1 132/28/1
f 133/13/1 134/14/1 135/15/1 136/16/1
f 137/25/1 138/26/1 139/27/1 140/28/1
f 141/25/1 142/26/1 143/27/1 144/28/1
f 145/25/1 146/26/1 147/27/1 148/28/1
f 149/9/1 150/10/1 151/11/1 152/12/1
f 153/13/1 154/14/1 155/15/1 156/16/1
f 157/25/1 158/26/1 159/27/1 160/28/1
f 161/25/1 162/26/1 163/27/1 164/28/1
f 165/25/1 166/26/1 167/27/1 168/28/1
f 169/29/1 170/30/1 171/31/1 172/32/1
f 173/25/1 174/26/1 175/27/1 176/28/1
f 177/29/1 178/30/1 179/31/1 180/32/1
f 181/25/1 182/26/1 183/27/1 184/28/1
f 185/29/1 186/30/1 187/31/1 188/32/1
f 189/9/1 190/10/1 191/11/1 192/12/1
f 193/13/1 194/14/1 195/15/1 196/16/1
f 197/9/1 198/10/1 199/11/1 200/12/1
f 201/13/1 202/14/1 203/15/1 204/16/1
f 205/25/1 206/26/1 207/27/1 208/28/1
f 209/29/1 210/30/1 211/31/1 212/32/1
f 213/25/1 214/26/1 215/27/1 216/28/1
f 217/29/1 218/30/1 219/31/1 220/32/1
f 221/25/1 222/26/1 223/27/1 224/28/1
f 225/29/1 226/30/1 227/31/1 228/32/1
f 229/25/1 230/26/1 231/27/1 232/28/1
f 233/29/1 234/30/1 235/31/1 236/32/1
f 237/25/1 238/26/1 239/27/1 240/28/1
f 241/25/1 242/26/1 243/27/1 244/28/1
f 245/29/1 246/30/1 247/31/1 248/32/1
f 249/25/1 250/26/1 251/27/1 252/28/1
f 253/29/1 254/30/1 255/31/1 256/32/1
f 257/25/1 258/26/1 259/27/1 260/28/1

