# Tiled2Unity generated file. Do not modify by hand.
# Wavefront file for 'moltenCave_3_mesh_0002.obj'

# Vertices (Count = 172)
v -7 -6 0
v -8 -6 0
v -8 -5 0
v -7 -5 0
v -8 -6 0
v -9 -6 0
v -9 -5 0
v -8 -5 0
v -7 -7 0
v -8 -7 0
v -8 -6 0
v -7 -6 0
v -8 -7 0
v -9 -7 0
v -9 -6 0
v -8 -6 0
v -9 -7 0
v -10 -7 0
v -10 -6 0
v -9 -6 0
v -10 -7 0
v -11 -7 0
v -11 -6 0
v -10 -6 0
v -7 -8 0
v -8 -8 0
v -8 -7 0
v -7 -7 0
v -8 -8 0
v -9 -8 0
v -9 -7 0
v -8 -7 0
v -9 -8 0
v -10 -8 0
v -10 -7 0
v -9 -7 0
v -6 -9 0
v -7 -9 0
v -7 -8 0
v -6 -8 0
v -7 -9 0
v -8 -9 0
v -8 -8 0
v -7 -8 0
v -6 -10 0
v -7 -10 0
v -7 -9 0
v -6 -9 0
v -9 -10 0
v -10 -10 0
v -10 -9 0
v -9 -9 0
v -5 -11 0
v -6 -11 0
v -6 -10 0
v -5 -10 0
v -6 -11 0
v -7 -11 0
v -7 -10 0
v -6 -10 0
v -9 -11 0
v -10 -11 0
v -10 -10 0
v -9 -10 0
v -10 -11 0
v -11 -11 0
v -11 -10 0
v -10 -10 0
v -2 -12 0
v -3 -12 0
v -3 -11 0
v -2 -11 0
v -3 -12 0
v -4 -12 0
v -4 -11 0
v -3 -11 0
v -4 -12 0
v -5 -12 0
v -5 -11 0
v -4 -11 0
v -5 -12 0
v -6 -12 0
v -6 -11 0
v -5 -11 0
v -6 -12 0
v -7 -12 0
v -7 -11 0
v -6 -11 0
v -7 -12 0
v -8 -12 0
v -8 -11 0
v -7 -11 0
v -10 -12 0
v -11 -12 0
v -11 -11 0
v -10 -11 0
v -2 -13 0
v -3 -13 0
v -3 -12 0
v -2 -12 0
v -4 -13 0
v -5 -13 0
v -5 -12 0
v -4 -12 0
v -5 -13 0
v -6 -13 0
v -6 -12 0
v -5 -12 0
v -6 -13 0
v -7 -13 0
v -7 -12 0
v -6 -12 0
v -7 -13 0
v -8 -13 0
v -8 -12 0
v -7 -12 0
v -2 -14 0
v -3 -14 0
v -3 -13 0
v -2 -13 0
v -3 -14 0
v -4 -14 0
v -4 -13 0
v -3 -13 0
v -4 -14 0
v -5 -14 0
v -5 -13 0
v -4 -13 0
v -5 -14 0
v -6 -14 0
v -6 -13 0
v -5 -13 0
v -6 -14 0
v -7 -14 0
v -7 -13 0
v -6 -13 0
v -5 -15 0
v -6 -15 0
v -6 -14 0
v -5 -14 0
v -6 -15 0
v -7 -15 0
v -7 -14 0
v -6 -14 0
v -7 -15 0
v -8 -15 0
v -8 -14 0
v -7 -14 0
v -8 -15 0
v -9 -15 0
v -9 -14 0
v -8 -14 0
v -6 -16 0
v -7 -16 0
v -7 -15 0
v -6 -15 0
v -7 -16 0
v -8 -16 0
v -8 -15 0
v -7 -15 0
v -8 -16 0
v -9 -16 0
v -9 -15 0
v -8 -15 0
v -6 -17 0
v -7 -17 0
v -7 -16 0
v -6 -16 0
v -7 -17 0
v -8 -17 0
v -8 -16 0
v -7 -16 0

# Texture cooridinates (Count = 88)
vt 0.8543451 0.9688073
vt 0.873929 0.9688073
vt 0.873929 0.9981651
vt 0.8543451 0.9981651
vt 0.8127295 0.8752294
vt 0.8323134 0.8752294
vt 0.8323134 0.9045871
vt 0.8127295 0.9045871
vt 0.1884945 0.812844
vt 0.2080783 0.812844
vt 0.2080783 0.8422018
vt 0.1884945 0.8422018
vt 0.2093023 0.812844
vt 0.2288862 0.812844
vt 0.2288862 0.8422018
vt 0.2093023 0.8422018
vt 0.7919217 0.9688073
vt 0.8115055 0.9688073
vt 0.8115055 0.9981651
vt 0.7919217 0.9981651
vt 0.2301102 0.812844
vt 0.249694 0.812844
vt 0.249694 0.8422018
vt 0.2301102 0.8422018
vt 0.250918 0.812844
vt 0.2705018 0.812844
vt 0.2705018 0.8422018
vt 0.250918 0.8422018
vt 0.6670747 0.9688073
vt 0.6866585 0.9688073
vt 0.6866585 0.9981651
vt 0.6670747 0.9981651
vt 0.875153 0.8752294
vt 0.8947368 0.8752294
vt 0.8947368 0.9045871
vt 0.875153 0.9045871
vt 0.7711138 0.9688073
vt 0.7906977 0.9688073
vt 0.7906977 0.9981651
vt 0.7711138 0.9981651
vt 0.7086903 0.9376147
vt 0.7282742 0.9376147
vt 0.7282742 0.9669725
vt 0.7086903 0.9669725
vt 0.6878825 0.9376147
vt 0.7074664 0.9376147
vt 0.7074664 0.9669725
vt 0.6878825 0.9669725
vt 0.04283966 0.7798165
vt 0.0624235 0.7798165
vt 0.0624235 0.7504587
vt 0.04283966 0.7504587
vt 0.5838434 0.9045871
vt 0.6034272 0.9045871
vt 0.6034272 0.8752294
vt 0.5838434 0.8752294
vt 0.6046512 0.9045871
vt 0.624235 0.9045871
vt 0.624235 0.8752294
vt 0.6046512 0.8752294
vt 0.9375765 0.7816514
vt 0.9571604 0.7816514
vt 0.9571604 0.8110092
vt 0.9375765 0.8110092
vt 0.9791921 0.7816514
vt 0.998776 0.7816514
vt 0.998776 0.8110092
vt 0.9791921 0.8110092
vt 0.7294981 0.9688073
vt 0.749082 0.9688073
vt 0.749082 0.9981651
vt 0.7294981 0.9981651
vt 0.875153 0.9688073
vt 0.8947368 0.9688073
vt 0.8947368 0.9981651
vt 0.875153 0.9981651
vt 0.7711138 0.8752294
vt 0.7906977 0.8752294
vt 0.7906977 0.9045871
vt 0.7711138 0.9045871
vt 0.8127295 0.9688073
vt 0.8323134 0.9688073
vt 0.8323134 0.9981651
vt 0.8127295 0.9981651
vt 0.8335373 0.8752294
vt 0.8531212 0.8752294
vt 0.8531212 0.9045871
vt 0.8335373 0.9045871

# Normal
vn 0 0 -1

# Mesh description
g moltenCave_3_mesh_0002

# Faces
f 1/1/1 2/2/1 3/3/1 4/4/1
f 5/5/1 6/6/1 7/7/1 8/8/1
f 9/1/1 10/2/1 11/3/1 12/4/1
f 13/9/1 14/10/1 15/11/1 16/12/1
f 17/13/1 18/14/1 19/15/1 20/16/1
f 21/17/1 22/18/1 23/19/1 24/20/1
f 25/1/1 26/2/1 27/3/1 28/4/1
f 29/21/1 30/22/1 31/23/1 32/24/1
f 33/25/1 34/26/1 35/27/1 36/28/1
f 37/29/1 38/30/1 39/31/1 40/32/1
f 41/33/1 42/34/1 43/35/1 44/36/1
f 45/37/1 46/38/1 47/39/1 48/40/1
f 49/41/1 50/42/1 51/43/1 52/44/1
f 53/9/1 54/10/1 55/11/1 56/12/1
f 57/13/1 58/14/1 59/15/1 60/16/1
f 61/45/1 62/46/1 63/47/1 64/48/1
f 65/17/1 66/18/1 67/19/1 68/20/1
f 69/49/1 70/50/1 71/51/1 72/52/1
f 73/53/1 74/54/1 75/55/1 76/56/1
f 77/57/1 78/58/1 79/59/1 80/60/1
f 81/21/1 82/22/1 83/23/1 84/24/1
f 85/25/1 86/26/1 87/27/1 88/28/1
f 89/37/1 90/38/1 91/39/1 92/40/1
f 93/5/1 94/6/1 95/7/1 96/8/1
f 97/61/1 98/62/1 99/63/1 100/64/1
f 101/65/1 102/66/1 103/67/1 104/68/1
f 105/41/1 106/42/1 107/43/1 108/44/1
f 109/69/1 110/70/1 111/71/1 112/72/1
f 113/73/1 114/74/1 115/75/1 116/76/1
f 117/52/1 118/51/1 119/50/1 120/49/1
f 121/56/1 122/55/1 123/54/1 124/53/1
f 125/60/1 126/59/1 127/58/1 128/57/1
f 129/77/1 130/78/1 131/79/1 132/80/1
f 133/41/1 134/42/1 135/43/1 136/44/1
f 137/81/1 138/82/1 139/83/1 140/84/1
f 141/29/1 142/30/1 143/31/1 144/32/1
f 145/81/1 146/82/1 147/83/1 148/84/1
f 149/81/1 150/82/1 151/83/1 152/84/1
f 153/9/1 154/10/1 155/11/1 156/12/1
f 157/13/1 158/14/1 159/15/1 160/16/1
f 161/85/1 162/86/1 163/87/1 164/88/1
f 165/21/1 166/22/1 167/23/1 168/24/1
f 169/25/1 170/26/1 171/27/1 172/28/1

