# Tiled2Unity generated file. Do not modify by hand.
# Wavefront file for 'shop_1_mesh_0004.obj'

# Vertices (Count = 172)
v -4 -4 0
v -5 -4 0
v -5 -3 0
v -4 -3 0
v -5 -4 0
v -6 -4 0
v -6 -3 0
v -5 -3 0
v -6 -4 0
v -7 -4 0
v -7 -3 0
v -6 -3 0
v -7 -4 0
v -8 -4 0
v -8 -3 0
v -7 -3 0
v -8 -4 0
v -9 -4 0
v -9 -3 0
v -8 -3 0
v -9 -4 0
v -10 -4 0
v -10 -3 0
v -9 -3 0
v -4 -5 0
v -5 -5 0
v -5 -4 0
v -4 -4 0
v -9 -5 0
v -10 -5 0
v -10 -4 0
v -9 -4 0
v -10 -5 0
v -11 -5 0
v -11 -4 0
v -10 -4 0
v -11 -5 0
v -12 -5 0
v -12 -4 0
v -11 -4 0
v -12 -5 0
v -13 -5 0
v -13 -4 0
v -12 -4 0
v -4 -6 0
v -5 -6 0
v -5 -5 0
v -4 -5 0
v -12 -6 0
v -13 -6 0
v -13 -5 0
v -12 -5 0
v -4 -7 0
v -5 -7 0
v -5 -6 0
v -4 -6 0
v -12 -7 0
v -13 -7 0
v -13 -6 0
v -12 -6 0
v -4 -8 0
v -5 -8 0
v -5 -7 0
v -4 -7 0
v -5 -8 0
v -6 -8 0
v -6 -7 0
v -5 -7 0
v -6 -8 0
v -7 -8 0
v -7 -7 0
v -6 -7 0
v -7 -8 0
v -8 -8 0
v -8 -7 0
v -7 -7 0
v -10 -8 0
v -11 -8 0
v -11 -7 0
v -10 -7 0
v -11 -8 0
v -12 -8 0
v -12 -7 0
v -11 -7 0
v -12 -8 0
v -13 -8 0
v -13 -7 0
v -12 -7 0
v -4 -9 0
v -5 -9 0
v -5 -8 0
v -4 -8 0
v -12 -9 0
v -13 -9 0
v -13 -8 0
v -12 -8 0
v -4 -10 0
v -5 -10 0
v -5 -9 0
v -4 -9 0
v -5 -10 0
v -6 -10 0
v -6 -9 0
v -5 -9 0
v -10 -10 0
v -11 -10 0
v -11 -9 0
v -10 -9 0
v -11 -10 0
v -12 -10 0
v -12 -9 0
v -11 -9 0
v -12 -10 0
v -13 -10 0
v -13 -9 0
v -12 -9 0
v -4 -11 0
v -5 -11 0
v -5 -10 0
v -4 -10 0
v -5 -11 0
v -6 -11 0
v -6 -10 0
v -5 -10 0
v -12 -11 0
v -13 -11 0
v -13 -10 0
v -12 -10 0
v -4 -12 0
v -5 -12 0
v -5 -11 0
v -4 -11 0
v -5 -12 0
v -6 -12 0
v -6 -11 0
v -5 -11 0
v -6 -12 0
v -7 -12 0
v -7 -11 0
v -6 -11 0
v -8 -12 0
v -9 -12 0
v -9 -11 0
v -8 -11 0
v -9 -12 0
v -10 -12 0
v -10 -11 0
v -9 -11 0
v -10 -12 0
v -11 -12 0
v -11 -11 0
v -10 -11 0
v -11 -12 0
v -12 -12 0
v -12 -11 0
v -11 -11 0
v -12 -12 0
v -13 -12 0
v -13 -11 0
v -12 -11 0
v -6 -13 0
v -7 -13 0
v -7 -12 0
v -6 -12 0
v -7 -13 0
v -8 -13 0
v -8 -12 0
v -7 -12 0
v -8 -13 0
v -9 -13 0
v -9 -12 0
v -8 -12 0

# Texture cooridinates (Count = 56)
vt 0.500612 0.906422
vt 0.5201958 0.906422
vt 0.5201958 0.9357798
vt 0.500612 0.9357798
vt 0.6046512 0.906422
vt 0.624235 0.906422
vt 0.624235 0.9357798
vt 0.6046512 0.9357798
vt 0.7919217 0.8752294
vt 0.8115055 0.8752294
vt 0.8115055 0.9045871
vt 0.7919217 0.9045871
vt 0.7711138 0.8752294
vt 0.7906977 0.8752294
vt 0.7906977 0.9045871
vt 0.7711138 0.9045871
vt 0.2705018 0.8440367
vt 0.2705018 0.8733945
vt 0.250918 0.8733945
vt 0.250918 0.8440367
vt 0.8543451 0.8752294
vt 0.873929 0.8752294
vt 0.873929 0.9045871
vt 0.8543451 0.9045871
vt 0.1676867 0.9376147
vt 0.1872705 0.9376147
vt 0.1872705 0.9669725
vt 0.1676867 0.9669725
vt 0.02203182 0.8440367
vt 0.04161567 0.8440367
vt 0.04161567 0.8733945
vt 0.02203182 0.8733945
vt 0.9791921 0.8752294
vt 0.998776 0.8752294
vt 0.998776 0.9045871
vt 0.9791921 0.9045871
vt 0.00122399 0.8440367
vt 0.02080783 0.8440367
vt 0.02080783 0.8733945
vt 0.00122399 0.8733945
vt 0.1468788 0.8440367
vt 0.1664627 0.8440367
vt 0.1664627 0.8733945
vt 0.1468788 0.8733945
vt 0.1456548 0.8440367
vt 0.126071 0.8440367
vt 0.126071 0.8733945
vt 0.1456548 0.8733945
vt 0.08323134 0.7816514
vt 0.06364749 0.7816514
vt 0.06364749 0.8110092
vt 0.08323134 0.8110092
vt 0.2093023 0.8440367
vt 0.2288862 0.8440367
vt 0.2288862 0.8733945
vt 0.2093023 0.8733945

# Normal
vn 0 0 -1

# Mesh description
g shop_1_mesh_0004

# Faces
f 1/1/1 2/2/1 3/3/1 4/4/1
f 5/5/1 6/6/1 7/7/1 8/8/1
f 9/9/1 10/10/1 11/11/1 12/12/1
f 13/13/1 14/14/1 15/15/1 16/16/1
f 17/5/1 18/6/1 19/7/1 20/8/1
f 21/2/1 22/1/1 23/4/1 24/3/1
f 25/17/1 26/18/1 27/19/1 28/20/1
f 29/21/1 30/22/1 31/23/1 32/24/1
f 33/9/1 34/10/1 35/11/1 36/12/1
f 37/5/1 38/6/1 39/7/1 40/8/1
f 41/2/1 42/1/1 43/4/1 44/3/1
f 45/17/1 46/18/1 47/19/1 48/20/1
f 49/18/1 50/17/1 51/20/1 52/19/1
f 53/17/1 54/18/1 55/19/1 56/20/1
f 57/18/1 58/17/1 59/20/1 60/19/1
f 61/17/1 62/18/1 63/19/1 64/20/1
f 65/25/1 66/26/1 67/27/1 68/28/1
f 69/25/1 70/26/1 71/27/1 72/28/1
f 73/25/1 74/26/1 75/27/1 76/28/1
f 77/29/1 78/30/1 79/31/1 80/32/1
f 81/29/1 82/30/1 83/31/1 84/32/1
f 85/18/1 86/17/1 87/20/1 88/19/1
f 89/17/1 90/18/1 91/19/1 92/20/1
f 93/18/1 94/17/1 95/20/1 96/19/1
f 97/17/1 98/18/1 99/19/1 100/20/1
f 101/33/1 102/34/1 103/35/1 104/36/1
f 105/37/1 106/38/1 107/39/1 108/40/1
f 109/37/1 110/38/1 111/39/1 112/40/1
f 113/18/1 114/17/1 115/20/1 116/19/1
f 117/17/1 118/18/1 119/19/1 120/20/1
f 121/41/1 122/42/1 123/43/1 124/44/1
f 125/18/1 126/17/1 127/20/1 128/19/1
f 129/45/1 130/46/1 131/47/1 132/48/1
f 133/20/1 134/17/1 135/18/1 136/19/1
f 137/49/1 138/50/1 139/51/1 140/52/1
f 141/50/1 142/49/1 143/52/1 144/51/1
f 145/20/1 146/17/1 147/18/1 148/19/1
f 149/20/1 150/17/1 151/18/1 152/19/1
f 153/20/1 154/17/1 155/18/1 156/19/1
f 157/46/1 158/45/1 159/48/1 160/47/1
f 161/45/1 162/46/1 163/47/1 164/48/1
f 165/53/1 166/54/1 167/55/1 168/56/1
f 169/46/1 170/45/1 171/48/1 172/47/1

