# Tiled2Unity generated file. Do not modify by hand.
# Wavefront file for 'shop_1_mesh_0002.obj'

# Vertices (Count = 84)
v -5 -5 0
v -6 -5 0
v -6 -4 0
v -5 -4 0
v -6 -5 0
v -7 -5 0
v -7 -4 0
v -6 -4 0
v -7 -5 0
v -8 -5 0
v -8 -4 0
v -7 -4 0
v -5 -6 0
v -6 -6 0
v -6 -5 0
v -5 -5 0
v -6 -6 0
v -7 -6 0
v -7 -5 0
v -6 -5 0
v -7 -6 0
v -8 -6 0
v -8 -5 0
v -7 -5 0
v -8 -6 0
v -9 -6 0
v -9 -5 0
v -8 -5 0
v -5 -7 0
v -6 -7 0
v -6 -6 0
v -5 -6 0
v -6 -7 0
v -7 -7 0
v -7 -6 0
v -6 -6 0
v -7 -7 0
v -8 -7 0
v -8 -6 0
v -7 -6 0
v -9 -7 0
v -10 -7 0
v -10 -6 0
v -9 -6 0
v -9 -8 0
v -10 -8 0
v -10 -7 0
v -9 -7 0
v -5 -9 0
v -6 -9 0
v -6 -8 0
v -5 -8 0
v -6 -9 0
v -7 -9 0
v -7 -8 0
v -6 -8 0
v -7 -9 0
v -8 -9 0
v -8 -8 0
v -7 -8 0
v -8 -9 0
v -9 -9 0
v -9 -8 0
v -8 -8 0
v -10 -9 0
v -11 -9 0
v -11 -8 0
v -10 -8 0
v -11 -9 0
v -12 -9 0
v -12 -8 0
v -11 -8 0
v -5 -11 0
v -6 -11 0
v -6 -10 0
v -5 -10 0
v -10 -11 0
v -11 -11 0
v -11 -10 0
v -10 -10 0
v -11 -11 0
v -12 -11 0
v -12 -10 0
v -11 -10 0

# Texture cooridinates (Count = 52)
vt 0.8335373 0.906422
vt 0.8531212 0.906422
vt 0.8531212 0.9357798
vt 0.8335373 0.9357798
vt 0.06364749 0.8440367
vt 0.08323134 0.8440367
vt 0.08323134 0.8733945
vt 0.06364749 0.8733945
vt 0.1052632 0.8440367
vt 0.124847 0.8440367
vt 0.124847 0.8733945
vt 0.1052632 0.8733945
vt 0.08445533 0.8440367
vt 0.1040392 0.8440367
vt 0.1040392 0.8733945
vt 0.08445533 0.8733945
vt 0.00122399 0.8752294
vt 0.02080783 0.8752294
vt 0.02080783 0.9045871
vt 0.00122399 0.9045871
vt 0.2925337 0.8752294
vt 0.3121175 0.8752294
vt 0.3121175 0.9045871
vt 0.2925337 0.9045871
vt 0.9167687 0.906422
vt 0.9363525 0.906422
vt 0.9363525 0.9357798
vt 0.9167687 0.9357798
vt 0.2093023 0.8752294
vt 0.2288862 0.8752294
vt 0.2288862 0.9045871
vt 0.2093023 0.9045871
vt 0.6670747 0.8752294
vt 0.6866585 0.8752294
vt 0.6866585 0.9045871
vt 0.6670747 0.9045871
vt 0.6878825 0.8752294
vt 0.7074664 0.8752294
vt 0.7074664 0.9045871
vt 0.6878825 0.9045871
vt 0.1884945 0.8440367
vt 0.2080783 0.8440367
vt 0.2080783 0.8733945
vt 0.1884945 0.8733945
vt 0.1468788 0.8440367
vt 0.1664627 0.8440367
vt 0.1664627 0.8733945
vt 0.1468788 0.8733945
vt 0.1676867 0.8440367
vt 0.1872705 0.8440367
vt 0.1872705 0.8733945
vt 0.1676867 0.8733945

# Normal
vn 0 0 -1

# Mesh description
g shop_1_mesh_0002

# Faces
f 1/1/1 2/2/1 3/3/1 4/4/1
f 5/1/1 6/2/1 7/3/1 8/4/1
f 9/1/1 10/2/1 11/3/1 12/4/1
f 13/5/1 14/6/1 15/7/1 16/8/1
f 17/9/1 18/10/1 19/11/1 20/12/1
f 21/13/1 22/14/1 23/15/1 24/16/1
f 25/17/1 26/18/1 27/19/1 28/20/1
f 29/21/1 30/22/1 31/23/1 32/24/1
f 33/21/1 34/22/1 35/23/1 36/24/1
f 37/21/1 38/22/1 39/23/1 40/24/1
f 41/25/1 42/26/1 43/27/1 44/28/1
f 45/29/1 46/30/1 47/31/1 48/32/1
f 49/33/1 50/34/1 51/35/1 52/36/1
f 53/33/1 54/34/1 55/35/1 56/36/1
f 57/33/1 58/34/1 59/35/1 60/36/1
f 61/37/1 62/38/1 63/39/1 64/40/1
f 65/41/1 66/42/1 67/43/1 68/44/1
f 69/41/1 70/42/1 71/43/1 72/44/1
f 73/45/1 74/46/1 75/47/1 76/48/1
f 77/49/1 78/50/1 79/51/1 80/52/1
f 81/49/1 82/50/1 83/51/1 84/52/1

