# Tiled2Unity generated file. Do not modify by hand.
# Wavefront file for 'cave2_mesh_0002.obj'

# Vertices (Count = 24)
v -8 -13 0
v -9 -13 0
v -9 -12 0
v -8 -12 0
v -10 -13 0
v -11 -13 0
v -11 -12 0
v -10 -12 0
v -8 -14 0
v -9 -14 0
v -9 -13 0
v -8 -13 0
v -10 -14 0
v -11 -14 0
v -11 -13 0
v -10 -13 0
v -8 -15 0
v -9 -15 0
v -9 -14 0
v -8 -14 0
v -10 -15 0
v -11 -15 0
v -11 -14 0
v -10 -14 0

# Texture cooridinates (Count = 12)
vt 0.9583843 0.6568807
vt 0.9779682 0.6568807
vt 0.9779682 0.6862385
vt 0.9583843 0.6862385
vt 0.126071 0.6256881
vt 0.1456548 0.6256881
vt 0.1456548 0.6550459
vt 0.126071 0.6550459
vt 0.1676867 0.6256881
vt 0.1872705 0.6256881
vt 0.1872705 0.6550459
vt 0.1676867 0.6550459

# Normal
vn 0 0 -1

# Mesh description
g cave2_mesh_0002

# Faces
f 1/1/1 2/2/1 3/3/1 4/4/1
f 5/1/1 6/2/1 7/3/1 8/4/1
f 9/5/1 10/6/1 11/7/1 12/8/1
f 13/5/1 14/6/1 15/7/1 16/8/1
f 17/9/1 18/10/1 19/11/1 20/12/1
f 21/9/1 22/10/1 23/11/1 24/12/1

