# Tiled2Unity generated file. Do not modify by hand.
# Wavefront file for 'waterTemple_8_mesh_0002.obj'

# Vertices (Count = 24)
v -6 -15 0
v -7 -15 0
v -7 -14 0
v -6 -14 0
v -14 -15 0
v -15 -15 0
v -15 -14 0
v -14 -14 0
v -6 -18 0
v -7 -18 0
v -7 -17 0
v -6 -17 0
v -14 -18 0
v -15 -18 0
v -15 -17 0
v -14 -17 0
v -6 -21 0
v -7 -21 0
v -7 -20 0
v -6 -20 0
v -14 -21 0
v -15 -21 0
v -15 -20 0
v -14 -20 0

# Texture cooridinates (Count = 4)
vt 0.2301102 0.3761468
vt 0.249694 0.3761468
vt 0.249694 0.4055046
vt 0.2301102 0.4055046

# Normal
vn 0 0 -1

# Mesh description
g waterTemple_8_mesh_0002

# Faces
f 1/1/1 2/2/1 3/3/1 4/4/1
f 5/1/1 6/2/1 7/3/1 8/4/1
f 9/1/1 10/2/1 11/3/1 12/4/1
f 13/1/1 14/2/1 15/3/1 16/4/1
f 17/1/1 18/2/1 19/3/1 20/4/1
f 21/1/1 22/2/1 23/3/1 24/4/1

