# Tiled2Unity generated file. Do not modify by hand.
# Wavefront file for 'emperorKingdom_3_mesh_0007.obj'

# Vertices (Count = 632)
v -7 -3 0
v -8 -3 0
v -8 -2 0
v -7 -2 0
v -10 -3 0
v -11 -3 0
v -11 -2 0
v -10 -2 0
v -6 -4 0
v -7 -4 0
v -7 -3 0
v -6 -3 0
v -7 -4 0
v -8 -4 0
v -8 -3 0
v -7 -3 0
v -8 -4 0
v -9 -4 0
v -9 -3 0
v -8 -3 0
v -9 -4 0
v -10 -4 0
v -10 -3 0
v -9 -3 0
v -10 -4 0
v -11 -4 0
v -11 -3 0
v -10 -3 0
v -11 -4 0
v -12 -4 0
v -12 -3 0
v -11 -3 0
v -6 -5 0
v -7 -5 0
v -7 -4 0
v -6 -4 0
v -7 -5 0
v -8 -5 0
v -8 -4 0
v -7 -4 0
v -8 -5 0
v -9 -5 0
v -9 -4 0
v -8 -4 0
v -9 -5 0
v -10 -5 0
v -10 -4 0
v -9 -4 0
v -10 -5 0
v -11 -5 0
v -11 -4 0
v -10 -4 0
v -11 -5 0
v -12 -5 0
v -12 -4 0
v -11 -4 0
v -6 -6 0
v -7 -6 0
v -7 -5 0
v -6 -5 0
v -7 -6 0
v -8 -6 0
v -8 -5 0
v -7 -5 0
v -8 -6 0
v -9 -6 0
v -9 -5 0
v -8 -5 0
v -9 -6 0
v -10 -6 0
v -10 -5 0
v -9 -5 0
v -10 -6 0
v -11 -6 0
v -11 -5 0
v -10 -5 0
v -11 -6 0
v -12 -6 0
v -12 -5 0
v -11 -5 0
v -7 -8 0
v -8 -8 0
v -8 -7 0
v -7 -7 0
v -10 -8 0
v -11 -8 0
v -11 -7 0
v -10 -7 0
v -7 -9 0
v -8 -9 0
v -8 -8 0
v -7 -8 0
v -10 -9 0
v -11 -9 0
v -11 -8 0
v -10 -8 0
v -12 -11 0
v -13 -11 0
v -13 -10 0
v -12 -10 0
v -13 -11 0
v -14 -11 0
v -14 -10 0
v -13 -10 0
v -17 -11 0
v -18 -11 0
v -18 -10 0
v -17 -10 0
v -18 -11 0
v -19 -11 0
v -19 -10 0
v -18 -10 0
v -19 -11 0
v -20 -11 0
v -20 -10 0
v -19 -10 0
v -20 -11 0
v -21 -11 0
v -21 -10 0
v -20 -10 0
v -21 -11 0
v -22 -11 0
v -22 -10 0
v -21 -10 0
v -23 -11 0
v -24 -11 0
v -24 -10 0
v -23 -10 0
v -24 -11 0
v -25 -11 0
v -25 -10 0
v -24 -10 0
v -25 -11 0
v -26 -11 0
v -26 -10 0
v -25 -10 0
v -26 -11 0
v -27 -11 0
v -27 -10 0
v -26 -10 0
v -27 -11 0
v -28 -11 0
v -28 -10 0
v -27 -10 0
v -29 -11 0
v -30 -11 0
v -30 -10 0
v -29 -10 0
v -30 -11 0
v -31 -11 0
v -31 -10 0
v -30 -10 0
v -31 -11 0
v -32 -11 0
v -32 -10 0
v -31 -10 0
v -12 -12 0
v -13 -12 0
v -13 -11 0
v -12 -11 0
v -13 -12 0
v -14 -12 0
v -14 -11 0
v -13 -11 0
v -17 -12 0
v -18 -12 0
v -18 -11 0
v -17 -11 0
v -18 -12 0
v -19 -12 0
v -19 -11 0
v -18 -11 0
v -19 -12 0
v -20 -12 0
v -20 -11 0
v -19 -11 0
v -20 -12 0
v -21 -12 0
v -21 -11 0
v -20 -11 0
v -21 -12 0
v -22 -12 0
v -22 -11 0
v -21 -11 0
v -23 -12 0
v -24 -12 0
v -24 -11 0
v -23 -11 0
v -24 -12 0
v -25 -12 0
v -25 -11 0
v -24 -11 0
v -25 -12 0
v -26 -12 0
v -26 -11 0
v -25 -11 0
v -26 -12 0
v -27 -12 0
v -27 -11 0
v -26 -11 0
v -27 -12 0
v -28 -12 0
v -28 -11 0
v -27 -11 0
v -29 -12 0
v -30 -12 0
v -30 -11 0
v -29 -11 0
v -30 -12 0
v -31 -12 0
v -31 -11 0
v -30 -11 0
v -31 -12 0
v -32 -12 0
v -32 -11 0
v -31 -11 0
v -17 -13 0
v -18 -13 0
v -18 -12 0
v -17 -12 0
v -18 -13 0
v -19 -13 0
v -19 -12 0
v -18 -12 0
v -19 -13 0
v -20 -13 0
v -20 -12 0
v -19 -12 0
v -20 -13 0
v -21 -13 0
v -21 -12 0
v -20 -12 0
v -21 -13 0
v -22 -13 0
v -22 -12 0
v -21 -12 0
v -23 -13 0
v -24 -13 0
v -24 -12 0
v -23 -12 0
v -24 -13 0
v -25 -13 0
v -25 -12 0
v -24 -12 0
v -25 -13 0
v -26 -13 0
v -26 -12 0
v -25 -12 0
v -26 -13 0
v -27 -13 0
v -27 -12 0
v -26 -12 0
v -27 -13 0
v -28 -13 0
v -28 -12 0
v -27 -12 0
v -29 -13 0
v -30 -13 0
v -30 -12 0
v -29 -12 0
v -30 -13 0
v -31 -13 0
v -31 -12 0
v -30 -12 0
v -31 -13 0
v -32 -13 0
v -32 -12 0
v -31 -12 0
v -18 -14 0
v -19 -14 0
v -19 -13 0
v -18 -13 0
v -19 -14 0
v -20 -14 0
v -20 -13 0
v -19 -13 0
v -20 -14 0
v -21 -14 0
v -21 -13 0
v -20 -13 0
v -24 -14 0
v -25 -14 0
v -25 -13 0
v -24 -13 0
v -25 -14 0
v -26 -14 0
v -26 -13 0
v -25 -13 0
v -26 -14 0
v -27 -14 0
v -27 -13 0
v -26 -13 0
v -29 -14 0
v -30 -14 0
v -30 -13 0
v -29 -13 0
v -30 -14 0
v -31 -14 0
v -31 -13 0
v -30 -13 0
v -31 -14 0
v -32 -14 0
v -32 -13 0
v -31 -13 0
v -19 -15 0
v -20 -15 0
v -20 -14 0
v -19 -14 0
v -25 -15 0
v -26 -15 0
v -26 -14 0
v -25 -14 0
v -7 -16 0
v -8 -16 0
v -8 -15 0
v -7 -15 0
v -8 -16 0
v -9 -16 0
v -9 -15 0
v -8 -15 0
v -7 -17 0
v -8 -17 0
v -8 -16 0
v -7 -16 0
v -8 -17 0
v -9 -17 0
v -9 -16 0
v -8 -16 0
v -16 -18 0
v -17 -18 0
v -17 -17 0
v -16 -17 0
v -17 -18 0
v -18 -18 0
v -18 -17 0
v -17 -17 0
v -16 -19 0
v -17 -19 0
v -17 -18 0
v -16 -18 0
v -17 -19 0
v -18 -19 0
v -18 -18 0
v -17 -18 0
v -6 -20 0
v -7 -20 0
v -7 -19 0
v -6 -19 0
v -7 -20 0
v -8 -20 0
v -8 -19 0
v -7 -19 0
v -8 -20 0
v -9 -20 0
v -9 -19 0
v -8 -19 0
v -9 -20 0
v -10 -20 0
v -10 -19 0
v -9 -19 0
v -10 -20 0
v -11 -20 0
v -11 -19 0
v -10 -19 0
v -11 -20 0
v -12 -20 0
v -12 -19 0
v -11 -19 0
v -12 -20 0
v -13 -20 0
v -13 -19 0
v -12 -19 0
v -6 -21 0
v -7 -21 0
v -7 -20 0
v -6 -20 0
v -7 -21 0
v -8 -21 0
v -8 -20 0
v -7 -20 0
v -8 -21 0
v -9 -21 0
v -9 -20 0
v -8 -20 0
v -9 -21 0
v -10 -21 0
v -10 -20 0
v -9 -20 0
v -10 -21 0
v -11 -21 0
v -11 -20 0
v -10 -20 0
v -11 -21 0
v -12 -21 0
v -12 -20 0
v -11 -20 0
v -12 -21 0
v -13 -21 0
v -13 -20 0
v -12 -20 0
v -22 -21 0
v -23 -21 0
v -23 -20 0
v -22 -20 0
v -23 -21 0
v -24 -21 0
v -24 -20 0
v -23 -20 0
v -6 -22 0
v -7 -22 0
v -7 -21 0
v -6 -21 0
v -7 -22 0
v -8 -22 0
v -8 -21 0
v -7 -21 0
v -8 -22 0
v -9 -22 0
v -9 -21 0
v -8 -21 0
v -9 -22 0
v -10 -22 0
v -10 -21 0
v -9 -21 0
v -10 -22 0
v -11 -22 0
v -11 -21 0
v -10 -21 0
v -11 -22 0
v -12 -22 0
v -12 -21 0
v -11 -21 0
v -12 -22 0
v -13 -22 0
v -13 -21 0
v -12 -21 0
v -13 -22 0
v -14 -22 0
v -14 -21 0
v -13 -21 0
v -22 -22 0
v -23 -22 0
v -23 -21 0
v -22 -21 0
v -23 -22 0
v -24 -22 0
v -24 -21 0
v -23 -21 0
v -6 -23 0
v -7 -23 0
v -7 -22 0
v -6 -22 0
v -7 -23 0
v -8 -23 0
v -8 -22 0
v -7 -22 0
v -8 -23 0
v -9 -23 0
v -9 -22 0
v -8 -22 0
v -9 -23 0
v -10 -23 0
v -10 -22 0
v -9 -22 0
v -10 -23 0
v -11 -23 0
v -11 -22 0
v -10 -22 0
v -11 -23 0
v -12 -23 0
v -12 -22 0
v -11 -22 0
v -10 -24 0
v -11 -24 0
v -11 -23 0
v -10 -23 0
v -27 -25 0
v -28 -25 0
v -28 -24 0
v -27 -24 0
v -28 -25 0
v -29 -25 0
v -29 -24 0
v -28 -24 0
v -29 -25 0
v -30 -25 0
v -30 -24 0
v -29 -24 0
v -30 -25 0
v -31 -25 0
v -31 -24 0
v -30 -24 0
v -31 -25 0
v -32 -25 0
v -32 -24 0
v -31 -24 0
v -16 -26 0
v -17 -26 0
v -17 -25 0
v -16 -25 0
v -17 -26 0
v -18 -26 0
v -18 -25 0
v -17 -25 0
v -22 -26 0
v -23 -26 0
v -23 -25 0
v -22 -25 0
v -23 -26 0
v -24 -26 0
v -24 -25 0
v -23 -25 0
v -24 -26 0
v -25 -26 0
v -25 -25 0
v -24 -25 0
v -25 -26 0
v -26 -26 0
v -26 -25 0
v -25 -25 0
v -26 -26 0
v -27 -26 0
v -27 -25 0
v -26 -25 0
v -27 -26 0
v -28 -26 0
v -28 -25 0
v -27 -25 0
v -28 -26 0
v -29 -26 0
v -29 -25 0
v -28 -25 0
v -29 -26 0
v -30 -26 0
v -30 -25 0
v -29 -25 0
v -30 -26 0
v -31 -26 0
v -31 -25 0
v -30 -25 0
v -31 -26 0
v -32 -26 0
v -32 -25 0
v -31 -25 0
v -16 -27 0
v -17 -27 0
v -17 -26 0
v -16 -26 0
v -17 -27 0
v -18 -27 0
v -18 -26 0
v -17 -26 0
v -22 -27 0
v -23 -27 0
v -23 -26 0
v -22 -26 0
v -23 -27 0
v -24 -27 0
v -24 -26 0
v -23 -26 0
v -24 -27 0
v -25 -27 0
v -25 -26 0
v -24 -26 0
v -25 -27 0
v -26 -27 0
v -26 -26 0
v -25 -26 0
v -26 -27 0
v -27 -27 0
v -27 -26 0
v -26 -26 0
v -27 -27 0
v -28 -27 0
v -28 -26 0
v -27 -26 0
v -28 -27 0
v -29 -27 0
v -29 -26 0
v -28 -26 0
v -29 -27 0
v -30 -27 0
v -30 -26 0
v -29 -26 0
v -30 -27 0
v -31 -27 0
v -31 -26 0
v -30 -26 0
v -31 -27 0
v -32 -27 0
v -32 -26 0
v -31 -26 0
v -22 -28 0
v -23 -28 0
v -23 -27 0
v -22 -27 0
v -23 -28 0
v -24 -28 0
v -24 -27 0
v -23 -27 0
v -24 -28 0
v -25 -28 0
v -25 -27 0
v -24 -27 0
v -25 -28 0
v -26 -28 0
v -26 -27 0
v -25 -27 0
v -26 -28 0
v -27 -28 0
v -27 -27 0
v -26 -27 0
v -28 -28 0
v -29 -28 0
v -29 -27 0
v -28 -27 0
v -29 -28 0
v -30 -28 0
v -30 -27 0
v -29 -27 0
v -30 -28 0
v -31 -28 0
v -31 -27 0
v -30 -27 0
v -23 -29 0
v -24 -29 0
v -24 -28 0
v -23 -28 0
v -24 -29 0
v -25 -29 0
v -25 -28 0
v -24 -28 0

# Texture cooridinates (Count = 96)
vt 0.2717258 0.8752294
vt 0.2913097 0.8752294
vt 0.2913097 0.9045871
vt 0.2717258 0.9045871
vt 0.4589963 0.8752294
vt 0.4785802 0.8752294
vt 0.4785802 0.9045871
vt 0.4589963 0.9045871
vt 0.4798042 0.8752294
vt 0.499388 0.8752294
vt 0.499388 0.9045871
vt 0.4798042 0.9045871
vt 0.500612 0.8752294
vt 0.5201958 0.8752294
vt 0.5201958 0.9045871
vt 0.500612 0.9045871
vt 0.5422277 0.9688073
vt 0.5618115 0.9688073
vt 0.5618115 0.9981651
vt 0.5422277 0.9981651
vt 0.5630355 0.9688073
vt 0.5826193 0.9688073
vt 0.5826193 0.9981651
vt 0.5630355 0.9981651
vt 0.625459 0.9688073
vt 0.6450428 0.9688073
vt 0.6450428 0.9981651
vt 0.625459 0.9981651
vt 0.9583843 0.9688073
vt 0.9779682 0.9688073
vt 0.9779682 0.9981651
vt 0.9583843 0.9981651
vt 0.875153 0.906422
vt 0.8947368 0.906422
vt 0.8947368 0.9357798
vt 0.875153 0.9357798
vt 0.875153 0.8440367
vt 0.8947368 0.8440367
vt 0.8947368 0.8733945
vt 0.875153 0.8733945
vt 0.8959608 0.8440367
vt 0.9155447 0.8440367
vt 0.9155447 0.8733945
vt 0.8959608 0.8733945
vt 0.3965728 0.8752294
vt 0.4161567 0.8752294
vt 0.4161567 0.9045871
vt 0.3965728 0.9045871
vt 0.4173807 0.8752294
vt 0.4369645 0.8752294
vt 0.4369645 0.9045871
vt 0.4173807 0.9045871
vt 0.4381885 0.8752294
vt 0.4577723 0.8752294
vt 0.4577723 0.9045871
vt 0.4381885 0.9045871
vt 0.5214198 0.8752294
vt 0.5410036 0.8752294
vt 0.5410036 0.9045871
vt 0.5214198 0.9045871
vt 0.5422277 0.8752294
vt 0.5618115 0.8752294
vt 0.5618115 0.9045871
vt 0.5422277 0.9045871
vt 0.4589963 0.9688073
vt 0.4785802 0.9688073
vt 0.4785802 0.9981651
vt 0.4589963 0.9981651
vt 0.500612 0.9688073
vt 0.5201958 0.9688073
vt 0.5201958 0.9981651
vt 0.500612 0.9981651
vt 0.4798042 0.9688073
vt 0.499388 0.9688073
vt 0.499388 0.9981651
vt 0.4798042 0.9981651
vt 0.5214198 0.9688073
vt 0.5410036 0.9688073
vt 0.5410036 0.9981651
vt 0.5214198 0.9981651
vt 0.5838434 0.9688073
vt 0.6034272 0.9688073
vt 0.6034272 0.9981651
vt 0.5838434 0.9981651
vt 0.7086903 0.9688073
vt 0.7282742 0.9688073
vt 0.7282742 0.9981651
vt 0.7086903 0.9981651
vt 0.7294981 0.9688073
vt 0.749082 0.9688073
vt 0.749082 0.9981651
vt 0.7294981 0.9981651
vt 0.9375765 0.8440367
vt 0.9571604 0.8440367
vt 0.9571604 0.8733945
vt 0.9375765 0.8733945

# Normal
vn 0 0 -1

# Mesh description
g emperorKingdom_3_mesh_0007

# Faces
f 1/1/1 2/2/1 3/3/1 4/4/1
f 5/1/1 6/2/1 7/3/1 8/4/1
f 9/5/1 10/6/1 11/7/1 12/8/1
f 13/9/1 14/10/1 15/11/1 16/12/1
f 17/13/1 18/14/1 19/15/1 20/16/1
f 21/5/1 22/6/1 23/7/1 24/8/1
f 25/9/1 26/10/1 27/11/1 28/12/1
f 29/13/1 30/14/1 31/15/1 32/16/1
f 33/17/1 34/18/1 35/19/1 36/20/1
f 37/9/1 38/10/1 39/11/1 40/12/1
f 41/21/1 42/22/1 43/23/1 44/24/1
f 45/17/1 46/18/1 47/19/1 48/20/1
f 49/9/1 50/10/1 51/11/1 52/12/1
f 53/21/1 54/22/1 55/23/1 56/24/1
f 57/17/1 58/18/1 59/19/1 60/20/1
f 61/25/1 62/26/1 63/27/1 64/28/1
f 65/21/1 66/22/1 67/23/1 68/24/1
f 69/17/1 70/18/1 71/19/1 72/20/1
f 73/25/1 74/26/1 75/27/1 76/28/1
f 77/21/1 78/22/1 79/23/1 80/24/1
f 81/29/1 82/30/1 83/31/1 84/32/1
f 85/29/1 86/30/1 87/31/1 88/32/1
f 89/33/1 90/34/1 91/35/1 92/36/1
f 93/33/1 94/34/1 95/35/1 96/36/1
f 97/37/1 98/38/1 99/39/1 100/40/1
f 101/41/1 102/42/1 103/43/1 104/44/1
f 105/45/1 106/46/1 107/47/1 108/48/1
f 109/49/1 110/50/1 111/51/1 112/52/1
f 113/53/1 114/54/1 115/55/1 116/56/1
f 117/53/1 118/54/1 119/55/1 120/56/1
f 121/53/1 122/54/1 123/55/1 124/56/1
f 125/45/1 126/46/1 127/47/1 128/48/1
f 129/49/1 130/50/1 131/51/1 132/52/1
f 133/53/1 134/54/1 135/55/1 136/56/1
f 137/53/1 138/54/1 139/55/1 140/56/1
f 141/53/1 142/54/1 143/55/1 144/56/1
f 145/45/1 146/46/1 147/47/1 148/48/1
f 149/45/1 150/46/1 151/47/1 152/48/1
f 153/45/1 154/46/1 155/47/1 156/48/1
f 157/57/1 158/58/1 159/59/1 160/60/1
f 161/61/1 162/62/1 163/63/1 164/64/1
f 165/65/1 166/66/1 167/67/1 168/68/1
f 169/69/1 170/70/1 171/71/1 172/72/1
f 173/73/1 174/74/1 175/75/1 176/76/1
f 177/69/1 178/70/1 179/71/1 180/72/1
f 181/77/1 182/78/1 183/79/1 184/80/1
f 185/65/1 186/66/1 187/67/1 188/68/1
f 189/69/1 190/70/1 191/71/1 192/72/1
f 193/73/1 194/74/1 195/75/1 196/76/1
f 197/69/1 198/70/1 199/71/1 200/72/1
f 201/77/1 202/78/1 203/79/1 204/80/1
f 205/65/1 206/66/1 207/67/1 208/68/1
f 209/65/1 210/66/1 211/67/1 212/68/1
f 213/65/1 214/66/1 215/67/1 216/68/1
f 217/73/1 218/74/1 219/75/1 220/76/1
f 221/81/1 222/82/1 223/83/1 224/84/1
f 225/73/1 226/74/1 227/75/1 228/76/1
f 229/81/1 230/82/1 231/83/1 232/84/1
f 233/77/1 234/78/1 235/79/1 236/80/1
f 237/73/1 238/74/1 239/75/1 240/76/1
f 241/81/1 242/82/1 243/83/1 244/84/1
f 245/73/1 246/74/1 247/75/1 248/76/1
f 249/81/1 250/82/1 251/83/1 252/84/1
f 253/77/1 254/78/1 255/79/1 256/80/1
f 257/65/1 258/66/1 259/67/1 260/68/1
f 261/65/1 262/66/1 263/67/1 264/68/1
f 265/65/1 266/66/1 267/67/1 268/68/1
f 269/85/1 270/86/1 271/87/1 272/88/1
f 273/89/1 274/90/1 275/91/1 276/92/1
f 277/89/1 278/90/1 279/91/1 280/92/1
f 281/85/1 282/86/1 283/87/1 284/88/1
f 285/89/1 286/90/1 287/91/1 288/92/1
f 289/85/1 290/86/1 291/87/1 292/88/1
f 293/17/1 294/18/1 295/19/1 296/20/1
f 297/25/1 298/26/1 299/27/1 300/28/1
f 301/21/1 302/22/1 303/23/1 304/24/1
f 305/33/1 306/34/1 307/35/1 308/36/1
f 309/33/1 310/34/1 311/35/1 312/36/1
f 313/37/1 314/38/1 315/39/1 316/40/1
f 317/41/1 318/42/1 319/43/1 320/44/1
f 321/57/1 322/58/1 323/59/1 324/60/1
f 325/61/1 326/62/1 327/63/1 328/64/1
f 329/37/1 330/38/1 331/39/1 332/40/1
f 333/41/1 334/42/1 335/43/1 336/44/1
f 337/57/1 338/58/1 339/59/1 340/60/1
f 341/61/1 342/62/1 343/63/1 344/64/1
f 345/45/1 346/46/1 347/47/1 348/48/1
f 349/45/1 350/46/1 351/47/1 352/48/1
f 353/45/1 354/46/1 355/47/1 356/48/1
f 357/49/1 358/50/1 359/51/1 360/52/1
f 361/53/1 362/54/1 363/55/1 364/56/1
f 365/53/1 366/54/1 367/55/1 368/56/1
f 369/53/1 370/54/1 371/55/1 372/56/1
f 373/65/1 374/66/1 375/67/1 376/68/1
f 377/65/1 378/66/1 379/67/1 380/68/1
f 381/65/1 382/66/1 383/67/1 384/68/1
f 385/69/1 386/70/1 387/71/1 388/72/1
f 389/73/1 390/74/1 391/75/1 392/76/1
f 393/69/1 394/70/1 395/71/1 396/72/1
f 397/77/1 398/78/1 399/79/1 400/80/1
f 401/37/1 402/38/1 403/39/1 404/40/1
f 405/41/1 406/42/1 407/43/1 408/44/1
f 409/65/1 410/66/1 411/67/1 412/68/1
f 413/65/1 414/66/1 415/67/1 416/68/1
f 417/65/1 418/66/1 419/67/1 420/68/1
f 421/81/1 422/82/1 423/83/1 424/84/1
f 425/73/1 426/74/1 427/75/1 428/76/1
f 429/81/1 430/82/1 431/83/1 432/84/1
f 433/77/1 434/78/1 435/79/1 436/80/1
f 437/93/1 438/94/1 439/95/1 440/96/1
f 441/57/1 442/58/1 443/59/1 444/60/1
f 445/61/1 446/62/1 447/63/1 448/64/1
f 449/17/1 450/18/1 451/19/1 452/20/1
f 453/25/1 454/26/1 455/27/1 456/28/1
f 457/21/1 458/22/1 459/23/1 460/24/1
f 461/85/1 462/86/1 463/87/1 464/88/1
f 465/89/1 466/90/1 467/91/1 468/92/1
f 469/89/1 470/90/1 471/91/1 472/92/1
f 473/33/1 474/34/1 475/35/1 476/36/1
f 477/45/1 478/46/1 479/47/1 480/48/1
f 481/49/1 482/50/1 483/51/1 484/52/1
f 485/53/1 486/54/1 487/55/1 488/56/1
f 489/53/1 490/54/1 491/55/1 492/56/1
f 493/53/1 494/54/1 495/55/1 496/56/1
f 497/37/1 498/38/1 499/39/1 500/40/1
f 501/41/1 502/42/1 503/43/1 504/44/1
f 505/45/1 506/46/1 507/47/1 508/48/1
f 509/49/1 510/50/1 511/51/1 512/52/1
f 513/53/1 514/54/1 515/55/1 516/56/1
f 517/53/1 518/54/1 519/55/1 520/56/1
f 521/53/1 522/54/1 523/55/1 524/56/1
f 525/65/1 526/66/1 527/67/1 528/68/1
f 529/69/1 530/70/1 531/71/1 532/72/1
f 533/73/1 534/74/1 535/75/1 536/76/1
f 537/69/1 538/70/1 539/71/1 540/72/1
f 541/77/1 542/78/1 543/79/1 544/80/1
f 545/57/1 546/58/1 547/59/1 548/60/1
f 549/61/1 550/62/1 551/63/1 552/64/1
f 553/65/1 554/66/1 555/67/1 556/68/1
f 557/69/1 558/70/1 559/71/1 560/72/1
f 561/73/1 562/74/1 563/75/1 564/76/1
f 565/69/1 566/70/1 567/71/1 568/72/1
f 569/77/1 570/78/1 571/79/1 572/80/1
f 573/73/1 574/74/1 575/75/1 576/76/1
f 577/81/1 578/82/1 579/83/1 580/84/1
f 581/73/1 582/74/1 583/75/1 584/76/1
f 585/81/1 586/82/1 587/83/1 588/84/1
f 589/77/1 590/78/1 591/79/1 592/80/1
f 593/73/1 594/74/1 595/75/1 596/76/1
f 597/81/1 598/82/1 599/83/1 600/84/1
f 601/73/1 602/74/1 603/75/1 604/76/1
f 605/81/1 606/82/1 607/83/1 608/84/1
f 609/77/1 610/78/1 611/79/1 612/80/1
f 613/85/1 614/86/1 615/87/1 616/88/1
f 617/89/1 618/90/1 619/91/1 620/92/1
f 621/89/1 622/90/1 623/91/1 624/92/1
f 625/85/1 626/86/1 627/87/1 628/88/1
f 629/89/1 630/90/1 631/91/1 632/92/1

