# Tiled2Unity generated file. Do not modify by hand.
# Wavefront file for 'emperorKingdom_4_mesh_0002.obj'

# Vertices (Count = 548)
v -7 -6 0
v -8 -6 0
v -8 -5 0
v -7 -5 0
v -9 -6 0
v -10 -6 0
v -10 -5 0
v -9 -5 0
v -21 -6 0
v -22 -6 0
v -22 -5 0
v -21 -5 0
v -23 -6 0
v -24 -6 0
v -24 -5 0
v -23 -5 0
v -7 -7 0
v -8 -7 0
v -8 -6 0
v -7 -6 0
v -9 -7 0
v -10 -7 0
v -10 -6 0
v -9 -6 0
v -11 -7 0
v -12 -7 0
v -12 -6 0
v -11 -6 0
v -12 -7 0
v -13 -7 0
v -13 -6 0
v -12 -6 0
v -18 -7 0
v -19 -7 0
v -19 -6 0
v -18 -6 0
v -19 -7 0
v -20 -7 0
v -20 -6 0
v -19 -6 0
v -21 -7 0
v -22 -7 0
v -22 -6 0
v -21 -6 0
v -23 -7 0
v -24 -7 0
v -24 -6 0
v -23 -6 0
v -7 -8 0
v -8 -8 0
v -8 -7 0
v -7 -7 0
v -9 -8 0
v -10 -8 0
v -10 -7 0
v -9 -7 0
v -11 -8 0
v -12 -8 0
v -12 -7 0
v -11 -7 0
v -19 -8 0
v -20 -8 0
v -20 -7 0
v -19 -7 0
v -21 -8 0
v -22 -8 0
v -22 -7 0
v -21 -7 0
v -23 -8 0
v -24 -8 0
v -24 -7 0
v -23 -7 0
v -7 -9 0
v -8 -9 0
v -8 -8 0
v -7 -8 0
v -9 -9 0
v -10 -9 0
v -10 -8 0
v -9 -8 0
v -21 -9 0
v -22 -9 0
v -22 -8 0
v -21 -8 0
v -23 -9 0
v -24 -9 0
v -24 -8 0
v -23 -8 0
v -7 -10 0
v -8 -10 0
v -8 -9 0
v -7 -9 0
v -11 -10 0
v -12 -10 0
v -12 -9 0
v -11 -9 0
v -12 -10 0
v -13 -10 0
v -13 -9 0
v -12 -9 0
v -18 -10 0
v -19 -10 0
v -19 -9 0
v -18 -9 0
v -19 -10 0
v -20 -10 0
v -20 -9 0
v -19 -9 0
v -23 -10 0
v -24 -10 0
v -24 -9 0
v -23 -9 0
v -7 -11 0
v -8 -11 0
v -8 -10 0
v -7 -10 0
v -11 -11 0
v -12 -11 0
v -12 -10 0
v -11 -10 0
v -12 -11 0
v -13 -11 0
v -13 -10 0
v -12 -10 0
v -13 -11 0
v -14 -11 0
v -14 -10 0
v -13 -10 0
v -17 -11 0
v -18 -11 0
v -18 -10 0
v -17 -10 0
v -18 -11 0
v -19 -11 0
v -19 -10 0
v -18 -10 0
v -19 -11 0
v -20 -11 0
v -20 -10 0
v -19 -10 0
v -23 -11 0
v -24 -11 0
v -24 -10 0
v -23 -10 0
v -7 -12 0
v -8 -12 0
v -8 -11 0
v -7 -11 0
v -11 -12 0
v -12 -12 0
v -12 -11 0
v -11 -11 0
v -12 -12 0
v -13 -12 0
v -13 -11 0
v -12 -11 0
v -13 -12 0
v -14 -12 0
v -14 -11 0
v -13 -11 0
v -14 -12 0
v -15 -12 0
v -15 -11 0
v -14 -11 0
v -15 -12 0
v -16 -12 0
v -16 -11 0
v -15 -11 0
v -16 -12 0
v -17 -12 0
v -17 -11 0
v -16 -11 0
v -17 -12 0
v -18 -12 0
v -18 -11 0
v -17 -11 0
v -18 -12 0
v -19 -12 0
v -19 -11 0
v -18 -11 0
v -19 -12 0
v -20 -12 0
v -20 -11 0
v -19 -11 0
v -23 -12 0
v -24 -12 0
v -24 -11 0
v -23 -11 0
v -7 -13 0
v -8 -13 0
v -8 -12 0
v -7 -12 0
v -11 -13 0
v -12 -13 0
v -12 -12 0
v -11 -12 0
v -12 -13 0
v -13 -13 0
v -13 -12 0
v -12 -12 0
v -13 -13 0
v -14 -13 0
v -14 -12 0
v -13 -12 0
v -14 -13 0
v -15 -13 0
v -15 -12 0
v -14 -12 0
v -15 -13 0
v -16 -13 0
v -16 -12 0
v -15 -12 0
v -16 -13 0
v -17 -13 0
v -17 -12 0
v -16 -12 0
v -17 -13 0
v -18 -13 0
v -18 -12 0
v -17 -12 0
v -18 -13 0
v -19 -13 0
v -19 -12 0
v -18 -12 0
v -19 -13 0
v -20 -13 0
v -20 -12 0
v -19 -12 0
v -23 -13 0
v -24 -13 0
v -24 -12 0
v -23 -12 0
v -7 -14 0
v -8 -14 0
v -8 -13 0
v -7 -13 0
v -23 -14 0
v -24 -14 0
v -24 -13 0
v -23 -13 0
v -7 -15 0
v -8 -15 0
v -8 -14 0
v -7 -14 0
v -23 -15 0
v -24 -15 0
v -24 -14 0
v -23 -14 0
v -7 -16 0
v -8 -16 0
v -8 -15 0
v -7 -15 0
v -23 -16 0
v -24 -16 0
v -24 -15 0
v -23 -15 0
v -7 -20 0
v -8 -20 0
v -8 -19 0
v -7 -19 0
v -8 -20 0
v -9 -20 0
v -9 -19 0
v -8 -19 0
v -9 -20 0
v -10 -20 0
v -10 -19 0
v -9 -19 0
v -10 -20 0
v -11 -20 0
v -11 -19 0
v -10 -19 0
v -11 -20 0
v -12 -20 0
v -12 -19 0
v -11 -19 0
v -19 -20 0
v -20 -20 0
v -20 -19 0
v -19 -19 0
v -20 -20 0
v -21 -20 0
v -21 -19 0
v -20 -19 0
v -21 -20 0
v -22 -20 0
v -22 -19 0
v -21 -19 0
v -22 -20 0
v -23 -20 0
v -23 -19 0
v -22 -19 0
v -23 -20 0
v -24 -20 0
v -24 -19 0
v -23 -19 0
v -7 -21 0
v -8 -21 0
v -8 -20 0
v -7 -20 0
v -8 -21 0
v -9 -21 0
v -9 -20 0
v -8 -20 0
v -9 -21 0
v -10 -21 0
v -10 -20 0
v -9 -20 0
v -10 -21 0
v -11 -21 0
v -11 -20 0
v -10 -20 0
v -11 -21 0
v -12 -21 0
v -12 -20 0
v -11 -20 0
v -12 -21 0
v -13 -21 0
v -13 -20 0
v -12 -20 0
v -13 -21 0
v -14 -21 0
v -14 -20 0
v -13 -20 0
v -17 -21 0
v -18 -21 0
v -18 -20 0
v -17 -20 0
v -18 -21 0
v -19 -21 0
v -19 -20 0
v -18 -20 0
v -19 -21 0
v -20 -21 0
v -20 -20 0
v -19 -20 0
v -20 -21 0
v -21 -21 0
v -21 -20 0
v -20 -20 0
v -21 -21 0
v -22 -21 0
v -22 -20 0
v -21 -20 0
v -22 -21 0
v -23 -21 0
v -23 -20 0
v -22 -20 0
v -23 -21 0
v -24 -21 0
v -24 -20 0
v -23 -20 0
v -7 -22 0
v -8 -22 0
v -8 -21 0
v -7 -21 0
v -8 -22 0
v -9 -22 0
v -9 -21 0
v -8 -21 0
v -9 -22 0
v -10 -22 0
v -10 -21 0
v -9 -21 0
v -10 -22 0
v -11 -22 0
v -11 -21 0
v -10 -21 0
v -11 -22 0
v -12 -22 0
v -12 -21 0
v -11 -21 0
v -12 -22 0
v -13 -22 0
v -13 -21 0
v -12 -21 0
v -13 -22 0
v -14 -22 0
v -14 -21 0
v -13 -21 0
v -17 -22 0
v -18 -22 0
v -18 -21 0
v -17 -21 0
v -18 -22 0
v -19 -22 0
v -19 -21 0
v -18 -21 0
v -19 -22 0
v -20 -22 0
v -20 -21 0
v -19 -21 0
v -20 -22 0
v -21 -22 0
v -21 -21 0
v -20 -21 0
v -21 -22 0
v -22 -22 0
v -22 -21 0
v -21 -21 0
v -22 -22 0
v -23 -22 0
v -23 -21 0
v -22 -21 0
v -23 -22 0
v -24 -22 0
v -24 -21 0
v -23 -21 0
v -7 -23 0
v -8 -23 0
v -8 -22 0
v -7 -22 0
v -8 -23 0
v -9 -23 0
v -9 -22 0
v -8 -22 0
v -9 -23 0
v -10 -23 0
v -10 -22 0
v -9 -22 0
v -10 -23 0
v -11 -23 0
v -11 -22 0
v -10 -22 0
v -11 -23 0
v -12 -23 0
v -12 -22 0
v -11 -22 0
v -12 -23 0
v -13 -23 0
v -13 -22 0
v -12 -22 0
v -13 -23 0
v -14 -23 0
v -14 -22 0
v -13 -22 0
v -14 -23 0
v -15 -23 0
v -15 -22 0
v -14 -22 0
v -15 -23 0
v -16 -23 0
v -16 -22 0
v -15 -22 0
v -16 -23 0
v -17 -23 0
v -17 -22 0
v -16 -22 0
v -17 -23 0
v -18 -23 0
v -18 -22 0
v -17 -22 0
v -18 -23 0
v -19 -23 0
v -19 -22 0
v -18 -22 0
v -19 -23 0
v -20 -23 0
v -20 -22 0
v -19 -22 0
v -20 -23 0
v -21 -23 0
v -21 -22 0
v -20 -22 0
v -21 -23 0
v -22 -23 0
v -22 -22 0
v -21 -22 0
v -22 -23 0
v -23 -23 0
v -23 -22 0
v -22 -22 0
v -23 -23 0
v -24 -23 0
v -24 -22 0
v -23 -22 0
v -7 -24 0
v -8 -24 0
v -8 -23 0
v -7 -23 0
v -8 -24 0
v -9 -24 0
v -9 -23 0
v -8 -23 0
v -12 -24 0
v -13 -24 0
v -13 -23 0
v -12 -23 0
v -13 -24 0
v -14 -24 0
v -14 -23 0
v -13 -23 0
v -14 -24 0
v -15 -24 0
v -15 -23 0
v -14 -23 0
v -16 -24 0
v -17 -24 0
v -17 -23 0
v -16 -23 0
v -17 -24 0
v -18 -24 0
v -18 -23 0
v -17 -23 0
v -18 -24 0
v -19 -24 0
v -19 -23 0
v -18 -23 0
v -22 -24 0
v -23 -24 0
v -23 -23 0
v -22 -23 0
v -23 -24 0
v -24 -24 0
v -24 -23 0
v -23 -23 0
v -13 -25 0
v -14 -25 0
v -14 -24 0
v -13 -24 0
v -14 -25 0
v -15 -25 0
v -15 -24 0
v -14 -24 0
v -15 -25 0
v -16 -25 0
v -16 -24 0
v -15 -24 0
v -16 -25 0
v -17 -25 0
v -17 -24 0
v -16 -24 0
v -17 -25 0
v -18 -25 0
v -18 -24 0
v -17 -24 0
v -14 -26 0
v -15 -26 0
v -15 -25 0
v -14 -25 0
v -15 -26 0
v -16 -26 0
v -16 -25 0
v -15 -25 0
v -16 -26 0
v -17 -26 0
v -17 -25 0
v -16 -25 0

# Texture cooridinates (Count = 120)
vt 0.3133415 0.9376147
vt 0.3329253 0.9376147
vt 0.3329253 0.9669725
vt 0.3133415 0.9669725
vt 0.4798042 0.7816514
vt 0.499388 0.7816514
vt 0.499388 0.8110092
vt 0.4798042 0.8110092
vt 0.126071 0.8440367
vt 0.1456548 0.8440367
vt 0.1456548 0.8733945
vt 0.126071 0.8733945
vt 0.1468788 0.8440367
vt 0.1664627 0.8440367
vt 0.1664627 0.8733945
vt 0.1468788 0.8733945
vt 0.8335373 0.8440367
vt 0.8531212 0.8440367
vt 0.8531212 0.8733945
vt 0.8335373 0.8733945
vt 0.9375765 0.9688073
vt 0.9571604 0.9688073
vt 0.9571604 0.9981651
vt 0.9375765 0.9981651
vt 0.2301102 0.812844
vt 0.249694 0.812844
vt 0.249694 0.8422018
vt 0.2301102 0.8422018
vt 0.00122399 0.9376147
vt 0.02080783 0.9376147
vt 0.02080783 0.9669725
vt 0.00122399 0.9669725
vt 0.02203182 0.9376147
vt 0.04161567 0.9376147
vt 0.04161567 0.9669725
vt 0.02203182 0.9669725
vt 0.250918 0.8752294
vt 0.2705018 0.8752294
vt 0.2705018 0.9045871
vt 0.250918 0.9045871
vt 0.2717258 0.8752294
vt 0.2913097 0.8752294
vt 0.2913097 0.9045871
vt 0.2717258 0.9045871
vt 0.2925337 0.8752294
vt 0.3121175 0.8752294
vt 0.3121175 0.9045871
vt 0.2925337 0.9045871
vt 0.06364749 0.9376147
vt 0.08323134 0.9376147
vt 0.08323134 0.9669725
vt 0.06364749 0.9669725
vt 0.7086903 0.7816514
vt 0.7282742 0.7816514
vt 0.7282742 0.8110092
vt 0.7086903 0.8110092
vt 0.3133415 0.8752294
vt 0.3329253 0.8752294
vt 0.3329253 0.9045871
vt 0.3133415 0.9045871
vt 0.3341493 0.8752294
vt 0.3537332 0.8752294
vt 0.3537332 0.9045871
vt 0.3341493 0.9045871
vt 0.3549572 0.8752294
vt 0.374541 0.8752294
vt 0.374541 0.9045871
vt 0.3549572 0.9045871
vt 0.250918 0.9688073
vt 0.2705018 0.9688073
vt 0.2705018 0.9981651
vt 0.250918 0.9981651
vt 0.2925337 0.9376147
vt 0.3121175 0.9376147
vt 0.3121175 0.9669725
vt 0.2925337 0.9669725
vt 0.375765 0.9376147
vt 0.3953488 0.9376147
vt 0.3953488 0.9669725
vt 0.375765 0.9669725
vt 0.4589963 0.8440367
vt 0.4785802 0.8440367
vt 0.4785802 0.8733945
vt 0.4589963 0.8733945
vt 0.5838434 0.812844
vt 0.6034272 0.812844
vt 0.6034272 0.8422018
vt 0.5838434 0.8422018
vt 0.4798042 0.8440367
vt 0.499388 0.8440367
vt 0.499388 0.8733945
vt 0.4798042 0.8733945
vt 0.5630355 0.8440367
vt 0.5826193 0.8440367
vt 0.5826193 0.8733945
vt 0.5630355 0.8733945
vt 0.6046512 0.8440367
vt 0.624235 0.8440367
vt 0.624235 0.8733945
vt 0.6046512 0.8733945
vt 0.3341493 0.8440367
vt 0.3537332 0.8440367
vt 0.3537332 0.8733945
vt 0.3341493 0.8733945
vt 0.625459 0.9376147
vt 0.6450428 0.9376147
vt 0.6450428 0.9669725
vt 0.625459 0.9669725
vt 0.6462668 0.9376147
vt 0.6658507 0.9376147
vt 0.6658507 0.9669725
vt 0.6462668 0.9669725
vt 0.6670747 0.9376147
vt 0.6866585 0.9376147
vt 0.6866585 0.9669725
vt 0.6670747 0.9669725
vt 0.2925337 0.8440367
vt 0.3121175 0.8440367
vt 0.3121175 0.8733945
vt 0.2925337 0.8733945

# Normal
vn 0 0 -1

# Mesh description
g emperorKingdom_4_mesh_0002

# Faces
f 1/1/1 2/2/1 3/3/1 4/4/1
f 5/1/1 6/2/1 7/3/1 8/4/1
f 9/1/1 10/2/1 11/3/1 12/4/1
f 13/1/1 14/2/1 15/3/1 16/4/1
f 17/1/1 18/2/1 19/3/1 20/4/1
f 21/1/1 22/2/1 23/3/1 24/4/1
f 25/1/1 26/2/1 27/3/1 28/4/1
f 29/1/1 30/2/1 31/3/1 32/4/1
f 33/1/1 34/2/1 35/3/1 36/4/1
f 37/1/1 38/2/1 39/3/1 40/4/1
f 41/1/1 42/2/1 43/3/1 44/4/1
f 45/1/1 46/2/1 47/3/1 48/4/1
f 49/1/1 50/2/1 51/3/1 52/4/1
f 53/5/1 54/6/1 55/7/1 56/8/1
f 57/1/1 58/2/1 59/3/1 60/4/1
f 61/1/1 62/2/1 63/3/1 64/4/1
f 65/5/1 66/6/1 67/7/1 68/8/1
f 69/1/1 70/2/1 71/3/1 72/4/1
f 73/1/1 74/2/1 75/3/1 76/4/1
f 77/5/1 78/6/1 79/7/1 80/8/1
f 81/5/1 82/6/1 83/7/1 84/8/1
f 85/1/1 86/2/1 87/3/1 88/4/1
f 89/1/1 90/2/1 91/3/1 92/4/1
f 93/9/1 94/10/1 95/11/1 96/12/1
f 97/13/1 98/14/1 99/15/1 100/16/1
f 101/9/1 102/10/1 103/11/1 104/12/1
f 105/13/1 106/14/1 107/15/1 108/16/1
f 109/17/1 110/18/1 111/19/1 112/20/1
f 113/21/1 114/22/1 115/23/1 116/24/1
f 117/9/1 118/10/1 119/11/1 120/12/1
f 121/13/1 122/14/1 123/15/1 124/16/1
f 125/25/1 126/26/1 127/27/1 128/28/1
f 129/1/1 130/2/1 131/3/1 132/4/1
f 133/9/1 134/10/1 135/11/1 136/12/1
f 137/13/1 138/14/1 139/15/1 140/16/1
f 141/29/1 142/30/1 143/31/1 144/32/1
f 145/33/1 146/34/1 147/35/1 148/36/1
f 149/9/1 150/10/1 151/11/1 152/12/1
f 153/13/1 154/14/1 155/15/1 156/16/1
f 157/25/1 158/26/1 159/27/1 160/28/1
f 161/37/1 162/38/1 163/39/1 164/40/1
f 165/41/1 166/42/1 167/43/1 168/44/1
f 169/45/1 170/46/1 171/47/1 172/48/1
f 173/1/1 174/2/1 175/3/1 176/4/1
f 177/9/1 178/10/1 179/11/1 180/12/1
f 181/13/1 182/14/1 183/15/1 184/16/1
f 185/49/1 186/50/1 187/51/1 188/52/1
f 189/21/1 190/22/1 191/23/1 192/24/1
f 193/9/1 194/10/1 195/11/1 196/12/1
f 197/13/1 198/14/1 199/15/1 200/16/1
f 201/53/1 202/54/1 203/55/1 204/56/1
f 205/57/1 206/58/1 207/59/1 208/60/1
f 209/61/1 210/62/1 211/63/1 212/64/1
f 213/65/1 214/66/1 215/67/1 216/68/1
f 217/17/1 218/18/1 219/19/1 220/20/1
f 221/9/1 222/10/1 223/11/1 224/12/1
f 225/13/1 226/14/1 227/15/1 228/16/1
f 229/29/1 230/30/1 231/31/1 232/32/1
f 233/33/1 234/34/1 235/35/1 236/36/1
f 237/49/1 238/50/1 239/51/1 240/52/1
f 241/21/1 242/22/1 243/23/1 244/24/1
f 245/29/1 246/30/1 247/31/1 248/32/1
f 249/21/1 250/22/1 251/23/1 252/24/1
f 253/29/1 254/30/1 255/31/1 256/32/1
f 257/9/1 258/10/1 259/11/1 260/12/1
f 261/13/1 262/14/1 263/15/1 264/16/1
f 265/69/1 266/70/1 267/71/1 268/72/1
f 269/69/1 270/70/1 271/71/1 272/72/1
f 273/69/1 274/70/1 275/71/1 276/72/1
f 277/69/1 278/70/1 279/71/1 280/72/1
f 281/69/1 282/70/1 283/71/1 284/72/1
f 285/69/1 286/70/1 287/71/1 288/72/1
f 289/9/1 290/10/1 291/11/1 292/12/1
f 293/13/1 294/14/1 295/15/1 296/16/1
f 297/9/1 298/10/1 299/11/1 300/12/1
f 301/13/1 302/14/1 303/15/1 304/16/1
f 305/25/1 306/26/1 307/27/1 308/28/1
f 309/73/1 310/74/1 311/75/1 312/76/1
f 313/1/1 314/2/1 315/3/1 316/4/1
f 317/9/1 318/10/1 319/11/1 320/12/1
f 321/13/1 322/14/1 323/15/1 324/16/1
f 325/9/1 326/10/1 327/11/1 328/12/1
f 329/13/1 330/14/1 331/15/1 332/16/1
f 333/25/1 334/26/1 335/27/1 336/28/1
f 337/73/1 338/74/1 339/75/1 340/76/1
f 341/1/1 342/2/1 343/3/1 344/4/1
f 345/9/1 346/10/1 347/11/1 348/12/1
f 349/13/1 350/14/1 351/15/1 352/16/1
f 353/9/1 354/10/1 355/11/1 356/12/1
f 357/13/1 358/14/1 359/15/1 360/16/1
f 361/25/1 362/26/1 363/27/1 364/28/1
f 365/77/1 366/78/1 367/79/1 368/80/1
f 369/1/1 370/2/1 371/3/1 372/4/1
f 373/9/1 374/10/1 375/11/1 376/12/1
f 377/13/1 378/14/1 379/15/1 380/16/1
f 381/9/1 382/10/1 383/11/1 384/12/1
f 385/13/1 386/14/1 387/15/1 388/16/1
f 389/25/1 390/26/1 391/27/1 392/28/1
f 393/77/1 394/78/1 395/79/1 396/80/1
f 397/1/1 398/2/1 399/3/1 400/4/1
f 401/9/1 402/10/1 403/11/1 404/12/1
f 405/13/1 406/14/1 407/15/1 408/16/1
f 409/9/1 410/10/1 411/11/1 412/12/1
f 413/13/1 414/14/1 415/15/1 416/16/1
f 417/53/1 418/54/1 419/55/1 420/56/1
f 421/17/1 422/18/1 423/19/1 424/20/1
f 425/17/1 426/18/1 427/19/1 428/20/1
f 429/9/1 430/10/1 431/11/1 432/12/1
f 433/13/1 434/14/1 435/15/1 436/16/1
f 437/81/1 438/82/1 439/83/1 440/84/1
f 441/85/1 442/86/1 443/87/1 444/88/1
f 445/89/1 446/90/1 447/91/1 448/92/1
f 449/9/1 450/10/1 451/11/1 452/12/1
f 453/13/1 454/14/1 455/15/1 456/16/1
f 457/53/1 458/54/1 459/55/1 460/56/1
f 461/17/1 462/18/1 463/19/1 464/20/1
f 465/17/1 466/18/1 467/19/1 468/20/1
f 469/9/1 470/10/1 471/11/1 472/12/1
f 473/13/1 474/14/1 475/15/1 476/16/1
f 477/9/1 478/10/1 479/11/1 480/12/1
f 481/13/1 482/14/1 483/15/1 484/16/1
f 485/9/1 486/10/1 487/11/1 488/12/1
f 489/13/1 490/14/1 491/15/1 492/16/1
f 493/93/1 494/94/1 495/95/1 496/96/1
f 497/97/1 498/98/1 499/99/1 500/100/1
f 501/9/1 502/10/1 503/11/1 504/12/1
f 505/13/1 506/14/1 507/15/1 508/16/1
f 509/9/1 510/10/1 511/11/1 512/12/1
f 513/13/1 514/14/1 515/15/1 516/16/1
f 517/101/1 518/102/1 519/103/1 520/104/1
f 521/105/1 522/106/1 523/107/1 524/108/1
f 525/109/1 526/110/1 527/111/1 528/112/1
f 529/113/1 530/114/1 531/115/1 532/116/1
f 533/117/1 534/118/1 535/119/1 536/120/1
f 537/105/1 538/106/1 539/107/1 540/108/1
f 541/109/1 542/110/1 543/111/1 544/112/1
f 545/113/1 546/114/1 547/115/1 548/116/1

