# Tiled2Unity generated file. Do not modify by hand.
# Wavefront file for 'emperorKingdom_4_mesh_0006.obj'

# Vertices (Count = 304)
v -7 -4 0
v -8 -4 0
v -8 -3 0
v -7 -3 0
v -8 -4 0
v -9 -4 0
v -9 -3 0
v -8 -3 0
v -22 -4 0
v -23 -4 0
v -23 -3 0
v -22 -3 0
v -23 -4 0
v -24 -4 0
v -24 -3 0
v -23 -3 0
v -7 -5 0
v -8 -5 0
v -8 -4 0
v -7 -4 0
v -8 -5 0
v -9 -5 0
v -9 -4 0
v -8 -4 0
v -22 -5 0
v -23 -5 0
v -23 -4 0
v -22 -4 0
v -23 -5 0
v -24 -5 0
v -24 -4 0
v -23 -4 0
v -7 -6 0
v -8 -6 0
v -8 -5 0
v -7 -5 0
v -8 -6 0
v -9 -6 0
v -9 -5 0
v -8 -5 0
v -22 -6 0
v -23 -6 0
v -23 -5 0
v -22 -5 0
v -23 -6 0
v -24 -6 0
v -24 -5 0
v -23 -5 0
v -7 -7 0
v -8 -7 0
v -8 -6 0
v -7 -6 0
v -8 -7 0
v -9 -7 0
v -9 -6 0
v -8 -6 0
v -22 -7 0
v -23 -7 0
v -23 -6 0
v -22 -6 0
v -23 -7 0
v -24 -7 0
v -24 -6 0
v -23 -6 0
v -7 -8 0
v -8 -8 0
v -8 -7 0
v -7 -7 0
v -8 -8 0
v -9 -8 0
v -9 -7 0
v -8 -7 0
v -22 -8 0
v -23 -8 0
v -23 -7 0
v -22 -7 0
v -23 -8 0
v -24 -8 0
v -24 -7 0
v -23 -7 0
v -7 -9 0
v -8 -9 0
v -8 -8 0
v -7 -8 0
v -8 -9 0
v -9 -9 0
v -9 -8 0
v -8 -8 0
v -22 -9 0
v -23 -9 0
v -23 -8 0
v -22 -8 0
v -23 -9 0
v -24 -9 0
v -24 -8 0
v -23 -8 0
v -7 -10 0
v -8 -10 0
v -8 -9 0
v -7 -9 0
v -8 -10 0
v -9 -10 0
v -9 -9 0
v -8 -9 0
v -13 -10 0
v -14 -10 0
v -14 -9 0
v -13 -9 0
v -14 -10 0
v -15 -10 0
v -15 -9 0
v -14 -9 0
v -15 -10 0
v -16 -10 0
v -16 -9 0
v -15 -9 0
v -16 -10 0
v -17 -10 0
v -17 -9 0
v -16 -9 0
v -17 -10 0
v -18 -10 0
v -18 -9 0
v -17 -9 0
v -22 -10 0
v -23 -10 0
v -23 -9 0
v -22 -9 0
v -23 -10 0
v -24 -10 0
v -24 -9 0
v -23 -9 0
v -23 -13 0
v -24 -13 0
v -24 -12 0
v -23 -12 0
v -24 -13 0
v -25 -13 0
v -25 -12 0
v -24 -12 0
v -6 -14 0
v -7 -14 0
v -7 -13 0
v -6 -13 0
v -7 -14 0
v -8 -14 0
v -8 -13 0
v -7 -13 0
v -23 -14 0
v -24 -14 0
v -24 -13 0
v -23 -13 0
v -24 -14 0
v -25 -14 0
v -25 -13 0
v -24 -13 0
v -6 -15 0
v -7 -15 0
v -7 -14 0
v -6 -14 0
v -7 -15 0
v -8 -15 0
v -8 -14 0
v -7 -14 0
v -23 -15 0
v -24 -15 0
v -24 -14 0
v -23 -14 0
v -24 -15 0
v -25 -15 0
v -25 -14 0
v -24 -14 0
v -6 -16 0
v -7 -16 0
v -7 -15 0
v -6 -15 0
v -7 -16 0
v -8 -16 0
v -8 -15 0
v -7 -15 0
v -23 -16 0
v -24 -16 0
v -24 -15 0
v -23 -15 0
v -24 -16 0
v -25 -16 0
v -25 -15 0
v -24 -15 0
v -6 -17 0
v -7 -17 0
v -7 -16 0
v -6 -16 0
v -7 -17 0
v -8 -17 0
v -8 -16 0
v -7 -16 0
v -23 -17 0
v -24 -17 0
v -24 -16 0
v -23 -16 0
v -24 -17 0
v -25 -17 0
v -25 -16 0
v -24 -16 0
v -6 -18 0
v -7 -18 0
v -7 -17 0
v -6 -17 0
v -7 -18 0
v -8 -18 0
v -8 -17 0
v -7 -17 0
v -23 -18 0
v -24 -18 0
v -24 -17 0
v -23 -17 0
v -24 -18 0
v -25 -18 0
v -25 -17 0
v -24 -17 0
v -6 -19 0
v -7 -19 0
v -7 -18 0
v -6 -18 0
v -7 -19 0
v -8 -19 0
v -8 -18 0
v -7 -18 0
v -8 -19 0
v -9 -19 0
v -9 -18 0
v -8 -18 0
v -9 -19 0
v -10 -19 0
v -10 -18 0
v -9 -18 0
v -10 -19 0
v -11 -19 0
v -11 -18 0
v -10 -18 0
v -11 -19 0
v -12 -19 0
v -12 -18 0
v -11 -18 0
v -19 -19 0
v -20 -19 0
v -20 -18 0
v -19 -18 0
v -20 -19 0
v -21 -19 0
v -21 -18 0
v -20 -18 0
v -21 -19 0
v -22 -19 0
v -22 -18 0
v -21 -18 0
v -22 -19 0
v -23 -19 0
v -23 -18 0
v -22 -18 0
v -23 -19 0
v -24 -19 0
v -24 -18 0
v -23 -18 0
v -24 -19 0
v -25 -19 0
v -25 -18 0
v -24 -18 0
v -6 -20 0
v -7 -20 0
v -7 -19 0
v -6 -19 0
v -7 -20 0
v -8 -20 0
v -8 -19 0
v -7 -19 0
v -12 -20 0
v -13 -20 0
v -13 -19 0
v -12 -19 0
v -18 -20 0
v -19 -20 0
v -19 -19 0
v -18 -19 0
v -13 -21 0
v -14 -21 0
v -14 -20 0
v -13 -20 0
v -14 -21 0
v -15 -21 0
v -15 -20 0
v -14 -20 0
v -15 -21 0
v -16 -21 0
v -16 -20 0
v -15 -20 0
v -16 -21 0
v -17 -21 0
v -17 -20 0
v -16 -20 0
v -17 -21 0
v -18 -21 0
v -18 -20 0
v -17 -20 0

# Texture cooridinates (Count = 60)
vt 0.4381885 0.7504587
vt 0.4577723 0.7504587
vt 0.4577723 0.7798165
vt 0.4381885 0.7798165
vt 0.4589963 0.7504587
vt 0.4785802 0.7504587
vt 0.4785802 0.7798165
vt 0.4589963 0.7798165
vt 0.4798042 0.7504587
vt 0.499388 0.7504587
vt 0.499388 0.7798165
vt 0.4798042 0.7798165
vt 0.500612 0.7504587
vt 0.5201958 0.7504587
vt 0.5201958 0.7798165
vt 0.500612 0.7798165
vt 0.4798042 0.7192661
vt 0.499388 0.7192661
vt 0.499388 0.7486238
vt 0.4798042 0.7486238
vt 0.500612 0.7192661
vt 0.5201958 0.7192661
vt 0.5201958 0.7486238
vt 0.500612 0.7486238
vt 0.9375765 0.906422
vt 0.9571604 0.906422
vt 0.9571604 0.9357798
vt 0.9375765 0.9357798
vt 0.9583843 0.906422
vt 0.9779682 0.906422
vt 0.9779682 0.9357798
vt 0.9583843 0.9357798
vt 0.02203182 0.8752294
vt 0.04161567 0.8752294
vt 0.04161567 0.9045871
vt 0.02203182 0.9045871
vt 0.04283966 0.8752294
vt 0.0624235 0.8752294
vt 0.0624235 0.9045871
vt 0.04283966 0.9045871
vt 0.126071 0.8752294
vt 0.1456548 0.8752294
vt 0.1456548 0.9045871
vt 0.126071 0.9045871
vt 0.1468788 0.8752294
vt 0.1664627 0.8752294
vt 0.1664627 0.9045871
vt 0.1468788 0.9045871
vt 0.7294981 0.906422
vt 0.749082 0.906422
vt 0.749082 0.9357798
vt 0.7294981 0.9357798
vt 0.6878825 0.7192661
vt 0.7074664 0.7192661
vt 0.7074664 0.7486238
vt 0.6878825 0.7486238
vt 0.7086903 0.7192661
vt 0.7282742 0.7192661
vt 0.7282742 0.7486238
vt 0.7086903 0.7486238

# Normal
vn 0 0 -1

# Mesh description
g emperorKingdom_4_mesh_0006

# Faces
f 1/1/1 2/2/1 3/3/1 4/4/1
f 5/5/1 6/6/1 7/7/1 8/8/1
f 9/1/1 10/2/1 11/3/1 12/4/1
f 13/5/1 14/6/1 15/7/1 16/8/1
f 17/9/1 18/10/1 19/11/1 20/12/1
f 21/13/1 22/14/1 23/15/1 24/16/1
f 25/9/1 26/10/1 27/11/1 28/12/1
f 29/13/1 30/14/1 31/15/1 32/16/1
f 33/17/1 34/18/1 35/19/1 36/20/1
f 37/21/1 38/22/1 39/23/1 40/24/1
f 41/17/1 42/18/1 43/19/1 44/20/1
f 45/21/1 46/22/1 47/23/1 48/24/1
f 49/25/1 50/26/1 51/27/1 52/28/1
f 53/29/1 54/30/1 55/31/1 56/32/1
f 57/25/1 58/26/1 59/27/1 60/28/1
f 61/29/1 62/30/1 63/31/1 64/32/1
f 65/33/1 66/34/1 67/35/1 68/36/1
f 69/37/1 70/38/1 71/39/1 72/40/1
f 73/33/1 74/34/1 75/35/1 76/36/1
f 77/37/1 78/38/1 79/39/1 80/40/1
f 81/25/1 82/26/1 83/27/1 84/28/1
f 85/29/1 86/30/1 87/31/1 88/32/1
f 89/25/1 90/26/1 91/27/1 92/28/1
f 93/29/1 94/30/1 95/31/1 96/32/1
f 97/41/1 98/42/1 99/43/1 100/44/1
f 101/45/1 102/46/1 103/47/1 104/48/1
f 105/49/1 106/50/1 107/51/1 108/52/1
f 109/49/1 110/50/1 111/51/1 112/52/1
f 113/49/1 114/50/1 115/51/1 116/52/1
f 117/49/1 118/50/1 119/51/1 120/52/1
f 121/49/1 122/50/1 123/51/1 124/52/1
f 125/41/1 126/42/1 127/43/1 128/44/1
f 129/45/1 130/46/1 131/47/1 132/48/1
f 133/1/1 134/2/1 135/3/1 136/4/1
f 137/5/1 138/6/1 139/7/1 140/8/1
f 141/1/1 142/2/1 143/3/1 144/4/1
f 145/5/1 146/6/1 147/7/1 148/8/1
f 149/9/1 150/10/1 151/11/1 152/12/1
f 153/13/1 154/14/1 155/15/1 156/16/1
f 157/9/1 158/10/1 159/11/1 160/12/1
f 161/13/1 162/14/1 163/15/1 164/16/1
f 165/17/1 166/18/1 167/19/1 168/20/1
f 169/21/1 170/22/1 171/23/1 172/24/1
f 173/17/1 174/18/1 175/19/1 176/20/1
f 177/21/1 178/22/1 179/23/1 180/24/1
f 181/25/1 182/26/1 183/27/1 184/28/1
f 185/29/1 186/30/1 187/31/1 188/32/1
f 189/25/1 190/26/1 191/27/1 192/28/1
f 193/29/1 194/30/1 195/31/1 196/32/1
f 197/33/1 198/34/1 199/35/1 200/36/1
f 201/37/1 202/38/1 203/39/1 204/40/1
f 205/33/1 206/34/1 207/35/1 208/36/1
f 209/37/1 210/38/1 211/39/1 212/40/1
f 213/25/1 214/26/1 215/27/1 216/28/1
f 217/29/1 218/30/1 219/31/1 220/32/1
f 221/25/1 222/26/1 223/27/1 224/28/1
f 225/29/1 226/30/1 227/31/1 228/32/1
f 229/53/1 230/54/1 231/55/1 232/56/1
f 233/49/1 234/50/1 235/51/1 236/52/1
f 237/49/1 238/50/1 239/51/1 240/52/1
f 241/49/1 242/50/1 243/51/1 244/52/1
f 245/49/1 246/50/1 247/51/1 248/52/1
f 249/49/1 250/50/1 251/51/1 252/52/1
f 253/49/1 254/50/1 255/51/1 256/52/1
f 257/57/1 258/58/1 259/59/1 260/60/1
f 261/41/1 262/42/1 263/43/1 264/44/1
f 265/45/1 266/46/1 267/47/1 268/48/1
f 269/41/1 270/42/1 271/43/1 272/44/1
f 273/45/1 274/46/1 275/47/1 276/48/1
f 277/57/1 278/58/1 279/59/1 280/60/1
f 281/53/1 282/54/1 283/55/1 284/56/1
f 285/49/1 286/50/1 287/51/1 288/52/1
f 289/49/1 290/50/1 291/51/1 292/52/1
f 293/49/1 294/50/1 295/51/1 296/52/1
f 297/49/1 298/50/1 299/51/1 300/52/1
f 301/49/1 302/50/1 303/51/1 304/52/1

