# Tiled2Unity generated file. Do not modify by hand.
# Wavefront file for 'cave3_mesh_0002.obj'

# Vertices (Count = 16)
v -4 -3 0
v -5 -3 0
v -5 -2 0
v -4 -2 0
v -9 -3 0
v -10 -3 0
v -10 -2 0
v -9 -2 0
v -4 -4 0
v -5 -4 0
v -5 -3 0
v -4 -3 0
v -9 -4 0
v -10 -4 0
v -10 -3 0
v -9 -3 0

# Texture cooridinates (Count = 8)
vt 0.9791921 0.9376147
vt 0.998776 0.9376147
vt 0.998776 0.9669725
vt 0.9791921 0.9669725
vt 0.08445533 0.906422
vt 0.1040392 0.906422
vt 0.1040392 0.9357798
vt 0.08445533 0.9357798

# Normal
vn 0 0 -1

# Mesh description
g cave3_mesh_0002

# Faces
f 1/1/1 2/2/1 3/3/1 4/4/1
f 5/1/1 6/2/1 7/3/1 8/4/1
f 9/5/1 10/6/1 11/7/1 12/8/1
f 13/5/1 14/6/1 15/7/1 16/8/1

