# Tiled2Unity generated file. Do not modify by hand.
# Wavefront file for 'cave3_mesh_0003.obj'

# Vertices (Count = 52)
v -5 -1 0
v -6 -1 0
v -6 0 0
v -5 0 0
v -6 -1 0
v -7 -1 0
v -7 0 0
v -6 0 0
v -7 -1 0
v -8 -1 0
v -8 0 0
v -7 0 0
v -5 -2 0
v -6 -2 0
v -6 -1 0
v -5 -1 0
v -6 -2 0
v -7 -2 0
v -7 -1 0
v -6 -1 0
v -7 -2 0
v -8 -2 0
v -8 -1 0
v -7 -1 0
v -6 -3 0
v -7 -3 0
v -7 -2 0
v -6 -2 0
v -7 -14 0
v -8 -14 0
v -8 -13 0
v -7 -13 0
v -8 -14 0
v -9 -14 0
v -9 -13 0
v -8 -13 0
v -9 -14 0
v -10 -14 0
v -10 -13 0
v -9 -13 0
v -7 -15 0
v -8 -15 0
v -8 -14 0
v -7 -14 0
v -8 -15 0
v -9 -15 0
v -9 -14 0
v -8 -14 0
v -9 -15 0
v -10 -15 0
v -10 -14 0
v -9 -14 0

# Texture cooridinates (Count = 24)
vt 0.00122399 0.9688073
vt 0.02080783 0.9688073
vt 0.02080783 0.9981651
vt 0.00122399 0.9981651
vt 0.126071 0.9688073
vt 0.1456548 0.9688073
vt 0.1456548 0.9981651
vt 0.126071 0.9981651
vt 0.3965728 0.7816514
vt 0.4161567 0.7816514
vt 0.4161567 0.8110092
vt 0.3965728 0.8110092
vt 0.1052632 0.9376147
vt 0.124847 0.9376147
vt 0.124847 0.9669725
vt 0.1052632 0.9669725
vt 0.625459 0.9376147
vt 0.6450428 0.9376147
vt 0.6450428 0.9669725
vt 0.625459 0.9669725
vt 0.4798042 0.9376147
vt 0.499388 0.9376147
vt 0.499388 0.9669725
vt 0.4798042 0.9669725

# Normal
vn 0 0 -1

# Mesh description
g cave3_mesh_0003

# Faces
f 1/1/1 2/2/1 3/3/1 4/4/1
f 5/1/1 6/2/1 7/3/1 8/4/1
f 9/1/1 10/2/1 11/3/1 12/4/1
f 13/5/1 14/6/1 15/7/1 16/8/1
f 17/5/1 18/6/1 19/7/1 20/8/1
f 21/5/1 22/6/1 23/7/1 24/8/1
f 25/9/1 26/10/1 27/11/1 28/12/1
f 29/13/1 30/14/1 31/15/1 32/16/1
f 33/17/1 34/18/1 35/19/1 36/20/1
f 37/21/1 38/22/1 39/23/1 40/24/1
f 41/1/1 42/2/1 43/3/1 44/4/1
f 45/1/1 46/2/1 47/3/1 48/4/1
f 49/1/1 50/2/1 51/3/1 52/4/1

