# Tiled2Unity generated file. Do not modify by hand.
# Wavefront file for 'prueba_mesh_0002.obj'

# Vertices (Count = 144)
v -7 -1 0
v -8 -1 0
v -8 0 0
v -7 0 0
v -8 -1 0
v -9 -1 0
v -9 0 0
v -8 0 0
v -9 -1 0
v -10 -1 0
v -10 0 0
v -9 0 0
v -1 -2 0
v -2 -2 0
v -2 -1 0
v -1 -1 0
v -9 -2 0
v -10 -2 0
v -10 -1 0
v -9 -1 0
v -4 -3 0
v -5 -3 0
v -5 -2 0
v -4 -2 0
v -9 -3 0
v -10 -3 0
v -10 -2 0
v -9 -2 0
v -8 -4 0
v -9 -4 0
v -9 -3 0
v -8 -3 0
v -9 -4 0
v -10 -4 0
v -10 -3 0
v -9 -3 0
v 0 -5 0
v -1 -5 0
v -1 -4 0
v 0 -4 0
v -1 -5 0
v -2 -5 0
v -2 -4 0
v -1 -4 0
v -2 -5 0
v -3 -5 0
v -3 -4 0
v -2 -4 0
v -9 -5 0
v -10 -5 0
v -10 -4 0
v -9 -4 0
v 0 -6 0
v -1 -6 0
v -1 -5 0
v 0 -5 0
v -1 -6 0
v -2 -6 0
v -2 -5 0
v -1 -5 0
v -2 -6 0
v -3 -6 0
v -3 -5 0
v -2 -5 0
v -6 -6 0
v -7 -6 0
v -7 -5 0
v -6 -5 0
v -7 -6 0
v -8 -6 0
v -8 -5 0
v -7 -5 0
v -9 -6 0
v -10 -6 0
v -10 -5 0
v -9 -5 0
v 0 -7 0
v -1 -7 0
v -1 -6 0
v 0 -6 0
v -1 -7 0
v -2 -7 0
v -2 -6 0
v -1 -6 0
v -2 -7 0
v -3 -7 0
v -3 -6 0
v -2 -6 0
v -6 -7 0
v -7 -7 0
v -7 -6 0
v -6 -6 0
v -7 -7 0
v -8 -7 0
v -8 -6 0
v -7 -6 0
v -9 -7 0
v -10 -7 0
v -10 -6 0
v -9 -6 0
v -9 -8 0
v -10 -8 0
v -10 -7 0
v -9 -7 0
v -5 -9 0
v -6 -9 0
v -6 -8 0
v -5 -8 0
v -6 -9 0
v -7 -9 0
v -7 -8 0
v -6 -8 0
v -7 -9 0
v -8 -9 0
v -8 -8 0
v -7 -8 0
v -8 -9 0
v -9 -9 0
v -9 -8 0
v -8 -8 0
v -9 -9 0
v -10 -9 0
v -10 -8 0
v -9 -8 0
v -5 -10 0
v -6 -10 0
v -6 -9 0
v -5 -9 0
v -6 -10 0
v -7 -10 0
v -7 -9 0
v -6 -9 0
v -7 -10 0
v -8 -10 0
v -8 -9 0
v -7 -9 0
v -8 -10 0
v -9 -10 0
v -9 -9 0
v -8 -9 0
v -9 -10 0
v -10 -10 0
v -10 -9 0
v -9 -9 0

# Texture cooridinates (Count = 51)
vt 0.125 0.5
vt 0.15 0.5
vt 0.15 0.5277778
vt 0.125 0.5277778
vt 0.125 0.4444444
vt 0.15 0.4444444
vt 0.15 0.4722222
vt 0.125 0.4722222
vt 0.175 0.5
vt 0.2 0.5
vt 0.2 0.5277778
vt 0.175 0.5277778
vt 0.075 0.9722222
vt 0.1 0.9722222
vt 0.1 1
vt 0.075 1
vt 0.175 0.4722222
vt 0.225 0.8333333
vt 0.25 0.8333333
vt 0.25 0.8611111
vt 0.225 0.8611111
vt 0.2 0.8055556
vt 0.225 0.8055556
vt 0.2 0.8333333
vt 0.25 0.8055556
vt 0.275 0.8055556
vt 0.275 0.8333333
vt 0.2 0.7777778
vt 0.225 0.7777778
vt 0.25 0.7777778
vt 0.275 0.7777778
vt 0.1 0.9444444
vt 0.125 0.9444444
vt 0.125 0.9722222
vt 0.15 0.9444444
vt 0.15 0.9722222
vt 0.2 0.75
vt 0.225 0.75
vt 0.25 0.75
vt 0.275 0.75
vt 0.1 0.9166667
vt 0.125 0.9166667
vt 0.15 0.9166667
vt 0.15 0.5555556
vt 0.125 0.5555556
vt 0.075 0.5277778
vt 0.1 0.5277778
vt 0.1 0.5555556
vt 0.075 0.5555556
vt 0.05 0.5277778
vt 0.05 0.5555556

# Normal
vn 0 0 -1

# Mesh description
g prueba_mesh_0002

# Faces
f 1/1/1 2/2/1 3/3/1 4/4/1
f 5/5/1 6/6/1 7/7/1 8/8/1
f 9/9/1 10/10/1 11/11/1 12/12/1
f 13/13/1 14/14/1 15/15/1 16/16/1
f 17/7/1 18/17/1 19/9/1 20/2/1
f 21/18/1 22/19/1 23/20/1 24/21/1
f 25/7/1 26/17/1 27/9/1 28/2/1
f 29/18/1 30/19/1 31/20/1 32/21/1
f 33/7/1 34/17/1 35/9/1 36/2/1
f 37/22/1 38/23/1 39/18/1 40/24/1
f 41/23/1 42/25/1 43/19/1 44/18/1
f 45/25/1 46/26/1 47/27/1 48/19/1
f 49/7/1 50/17/1 51/9/1 52/2/1
f 53/28/1 54/29/1 55/23/1 56/22/1
f 57/29/1 58/30/1 59/25/1 60/23/1
f 61/30/1 62/31/1 63/26/1 64/25/1
f 65/32/1 66/33/1 67/34/1 68/14/1
f 69/33/1 70/35/1 71/36/1 72/34/1
f 73/7/1 74/17/1 75/9/1 76/2/1
f 77/37/1 78/38/1 79/29/1 80/28/1
f 81/38/1 82/39/1 83/30/1 84/29/1
f 85/39/1 86/40/1 87/31/1 88/30/1
f 89/41/1 90/42/1 91/33/1 92/32/1
f 93/42/1 94/43/1 95/35/1 96/33/1
f 97/7/1 98/17/1 99/9/1 100/2/1
f 101/7/1 102/17/1 103/9/1 104/2/1
f 105/4/1 106/3/1 107/44/1 108/45/1
f 109/8/1 110/7/1 111/2/1 112/1/1
f 113/8/1 114/7/1 115/2/1 116/1/1
f 117/8/1 118/7/1 119/2/1 120/1/1
f 121/46/1 122/47/1 123/48/1 124/49/1
f 125/7/1 126/17/1 127/9/1 128/2/1
f 129/50/1 130/46/1 131/49/1 132/51/1
f 133/50/1 134/46/1 135/49/1 136/51/1
f 137/50/1 138/46/1 139/49/1 140/51/1
f 141/50/1 142/46/1 143/49/1 144/51/1

