# Tiled2Unity generated file. Do not modify by hand.
# Wavefront file for 'toMerix5_mesh_0004.obj'

# Vertices (Count = 336)
v -1 -9 0
v -2 -9 0
v -2 -8 0
v -1 -8 0
v -2 -9 0
v -3 -9 0
v -3 -8 0
v -2 -8 0
v -4 -9 0
v -5 -9 0
v -5 -8 0
v -4 -8 0
v 0 -10 0
v -1 -10 0
v -1 -9 0
v 0 -9 0
v -1 -10 0
v -2 -10 0
v -2 -9 0
v -1 -9 0
v -2 -10 0
v -3 -10 0
v -3 -9 0
v -2 -9 0
v -3 -10 0
v -4 -10 0
v -4 -9 0
v -3 -9 0
v -4 -10 0
v -5 -10 0
v -5 -9 0
v -4 -9 0
v 0 -11 0
v -1 -11 0
v -1 -10 0
v 0 -10 0
v -2 -11 0
v -3 -11 0
v -3 -10 0
v -2 -10 0
v -3 -11 0
v -4 -11 0
v -4 -10 0
v -3 -10 0
v -1 -12 0
v -2 -12 0
v -2 -11 0
v -1 -11 0
v -2 -12 0
v -3 -12 0
v -3 -11 0
v -2 -11 0
v -4 -12 0
v -5 -12 0
v -5 -11 0
v -4 -11 0
v -1 -13 0
v -2 -13 0
v -2 -12 0
v -1 -12 0
v -2 -13 0
v -3 -13 0
v -3 -12 0
v -2 -12 0
v -4 -13 0
v -5 -13 0
v -5 -12 0
v -4 -12 0
v -2 -14 0
v -3 -14 0
v -3 -13 0
v -2 -13 0
v 0 -15 0
v -1 -15 0
v -1 -14 0
v 0 -14 0
v 0 -16 0
v -1 -16 0
v -1 -15 0
v 0 -15 0
v -1 -18 0
v -2 -18 0
v -2 -17 0
v -1 -17 0
v -2 -18 0
v -3 -18 0
v -3 -17 0
v -2 -17 0
v -3 -18 0
v -4 -18 0
v -4 -17 0
v -3 -17 0
v -4 -18 0
v -5 -18 0
v -5 -17 0
v -4 -17 0
v -1 -19 0
v -2 -19 0
v -2 -18 0
v -1 -18 0
v -2 -19 0
v -3 -19 0
v -3 -18 0
v -2 -18 0
v -3 -19 0
v -4 -19 0
v -4 -18 0
v -3 -18 0
v -4 -19 0
v -5 -19 0
v -5 -18 0
v -4 -18 0
v -5 -19 0
v -6 -19 0
v -6 -18 0
v -5 -18 0
v -2 -20 0
v -3 -20 0
v -3 -19 0
v -2 -19 0
v -5 -20 0
v -6 -20 0
v -6 -19 0
v -5 -19 0
v -6 -20 0
v -7 -20 0
v -7 -19 0
v -6 -19 0
v -2 -21 0
v -3 -21 0
v -3 -20 0
v -2 -20 0
v -6 -21 0
v -7 -21 0
v -7 -20 0
v -6 -20 0
v -7 -21 0
v -8 -21 0
v -8 -20 0
v -7 -20 0
v -7 -22 0
v -8 -22 0
v -8 -21 0
v -7 -21 0
v -8 -22 0
v -9 -22 0
v -9 -21 0
v -8 -21 0
v -9 -22 0
v -10 -22 0
v -10 -21 0
v -9 -21 0
v -10 -22 0
v -11 -22 0
v -11 -21 0
v -10 -21 0
v -3 -23 0
v -4 -23 0
v -4 -22 0
v -3 -22 0
v -8 -23 0
v -9 -23 0
v -9 -22 0
v -8 -22 0
v -9 -23 0
v -10 -23 0
v -10 -22 0
v -9 -22 0
v -10 -23 0
v -11 -23 0
v -11 -22 0
v -10 -22 0
v -11 -23 0
v -12 -23 0
v -12 -22 0
v -11 -22 0
v -12 -23 0
v -13 -23 0
v -13 -22 0
v -12 -22 0
v -13 -23 0
v -14 -23 0
v -14 -22 0
v -13 -22 0
v -15 -23 0
v -16 -23 0
v -16 -22 0
v -15 -22 0
v -16 -23 0
v -17 -23 0
v -17 -22 0
v -16 -22 0
v -3 -24 0
v -4 -24 0
v -4 -23 0
v -3 -23 0
v -6 -24 0
v -7 -24 0
v -7 -23 0
v -6 -23 0
v -11 -24 0
v -12 -24 0
v -12 -23 0
v -11 -23 0
v -12 -24 0
v -13 -24 0
v -13 -23 0
v -12 -23 0
v -13 -24 0
v -14 -24 0
v -14 -23 0
v -13 -23 0
v -14 -24 0
v -15 -24 0
v -15 -23 0
v -14 -23 0
v -15 -24 0
v -16 -24 0
v -16 -23 0
v -15 -23 0
v -16 -24 0
v -17 -24 0
v -17 -23 0
v -16 -23 0
v -17 -24 0
v -18 -24 0
v -18 -23 0
v -17 -23 0
v -20 -24 0
v -21 -24 0
v -21 -23 0
v -20 -23 0
v -28 -24 0
v -29 -24 0
v -29 -23 0
v -28 -23 0
v -6 -25 0
v -7 -25 0
v -7 -24 0
v -6 -24 0
v -12 -25 0
v -13 -25 0
v -13 -24 0
v -12 -24 0
v -13 -25 0
v -14 -25 0
v -14 -24 0
v -13 -24 0
v -14 -25 0
v -15 -25 0
v -15 -24 0
v -14 -24 0
v -15 -25 0
v -16 -25 0
v -16 -24 0
v -15 -24 0
v -16 -25 0
v -17 -25 0
v -17 -24 0
v -16 -24 0
v -17 -25 0
v -18 -25 0
v -18 -24 0
v -17 -24 0
v -18 -25 0
v -19 -25 0
v -19 -24 0
v -18 -24 0
v -19 -25 0
v -20 -25 0
v -20 -24 0
v -19 -24 0
v -20 -25 0
v -21 -25 0
v -21 -24 0
v -20 -24 0
v -21 -25 0
v -22 -25 0
v -22 -24 0
v -21 -24 0
v -24 -25 0
v -25 -25 0
v -25 -24 0
v -24 -24 0
v -26 -25 0
v -27 -25 0
v -27 -24 0
v -26 -24 0
v -28 -25 0
v -29 -25 0
v -29 -24 0
v -28 -24 0
v -30 -25 0
v -31 -25 0
v -31 -24 0
v -30 -24 0
v -13 -26 0
v -14 -26 0
v -14 -25 0
v -13 -25 0
v -15 -26 0
v -16 -26 0
v -16 -25 0
v -15 -25 0
v -16 -26 0
v -17 -26 0
v -17 -25 0
v -16 -25 0
v -18 -26 0
v -19 -26 0
v -19 -25 0
v -18 -25 0
v -19 -26 0
v -20 -26 0
v -20 -25 0
v -19 -25 0
v -21 -26 0
v -22 -26 0
v -22 -25 0
v -21 -25 0
v -24 -26 0
v -25 -26 0
v -25 -25 0
v -24 -25 0
v -26 -26 0
v -27 -26 0
v -27 -25 0
v -26 -25 0
v -28 -26 0
v -29 -26 0
v -29 -25 0
v -28 -25 0
v -30 -26 0
v -31 -26 0
v -31 -25 0
v -30 -25 0

# Texture cooridinates (Count = 8)
vt 0.02203182 0.7504587
vt 0.04161567 0.7504587
vt 0.04161567 0.7798165
vt 0.02203182 0.7798165
vt 0.04283966 0.8752294
vt 0.0624235 0.8752294
vt 0.0624235 0.9045871
vt 0.04283966 0.9045871

# Normal
vn 0 0 -1

# Mesh description
g toMerix5_mesh_0004

# Faces
f 1/1/1 2/2/1 3/3/1 4/4/1
f 5/1/1 6/2/1 7/3/1 8/4/1
f 9/1/1 10/2/1 11/3/1 12/4/1
f 13/1/1 14/2/1 15/3/1 16/4/1
f 17/5/1 18/6/1 19/7/1 20/8/1
f 21/5/1 22/6/1 23/7/1 24/8/1
f 25/1/1 26/2/1 27/3/1 28/4/1
f 29/5/1 30/6/1 31/7/1 32/8/1
f 33/5/1 34/6/1 35/7/1 36/8/1
f 37/1/1 38/2/1 39/3/1 40/4/1
f 41/5/1 42/6/1 43/7/1 44/8/1
f 45/1/1 46/2/1 47/3/1 48/4/1
f 49/5/1 50/6/1 51/7/1 52/8/1
f 53/1/1 54/2/1 55/3/1 56/4/1
f 57/5/1 58/6/1 59/7/1 60/8/1
f 61/1/1 62/2/1 63/3/1 64/4/1
f 65/5/1 66/6/1 67/7/1 68/8/1
f 69/5/1 70/6/1 71/7/1 72/8/1
f 73/1/1 74/2/1 75/3/1 76/4/1
f 77/5/1 78/6/1 79/7/1 80/8/1
f 81/1/1 82/2/1 83/3/1 84/4/1
f 85/1/1 86/2/1 87/3/1 88/4/1
f 89/1/1 90/2/1 91/3/1 92/4/1
f 93/1/1 94/2/1 95/3/1 96/4/1
f 97/5/1 98/6/1 99/7/1 100/8/1
f 101/5/1 102/6/1 103/7/1 104/8/1
f 105/5/1 106/6/1 107/7/1 108/8/1
f 109/5/1 110/6/1 111/7/1 112/8/1
f 113/1/1 114/2/1 115/3/1 116/4/1
f 117/1/1 118/2/1 119/3/1 120/4/1
f 121/5/1 122/6/1 123/7/1 124/8/1
f 125/1/1 126/2/1 127/3/1 128/4/1
f 129/5/1 130/6/1 131/7/1 132/8/1
f 133/5/1 134/6/1 135/7/1 136/8/1
f 137/1/1 138/2/1 139/3/1 140/4/1
f 141/5/1 142/6/1 143/7/1 144/8/1
f 145/1/1 146/2/1 147/3/1 148/4/1
f 149/1/1 150/2/1 151/3/1 152/4/1
f 153/1/1 154/2/1 155/3/1 156/4/1
f 157/1/1 158/2/1 159/3/1 160/4/1
f 161/5/1 162/6/1 163/7/1 164/8/1
f 165/5/1 166/6/1 167/7/1 168/8/1
f 169/5/1 170/6/1 171/7/1 172/8/1
f 173/1/1 174/2/1 175/3/1 176/4/1
f 177/1/1 178/2/1 179/3/1 180/4/1
f 181/1/1 182/2/1 183/3/1 184/4/1
f 185/1/1 186/2/1 187/3/1 188/4/1
f 189/1/1 190/2/1 191/3/1 192/4/1
f 193/5/1 194/6/1 195/7/1 196/8/1
f 197/1/1 198/2/1 199/3/1 200/4/1
f 201/5/1 202/6/1 203/7/1 204/8/1
f 205/5/1 206/6/1 207/7/1 208/8/1
f 209/5/1 210/6/1 211/7/1 212/8/1
f 213/1/1 214/2/1 215/3/1 216/4/1
f 217/5/1 218/6/1 219/7/1 220/8/1
f 221/5/1 222/6/1 223/7/1 224/8/1
f 225/1/1 226/2/1 227/3/1 228/4/1
f 229/1/1 230/2/1 231/3/1 232/4/1
f 233/1/1 234/2/1 235/3/1 236/4/1
f 237/5/1 238/6/1 239/7/1 240/8/1
f 241/5/1 242/6/1 243/7/1 244/8/1
f 245/1/1 246/2/1 247/3/1 248/4/1
f 249/5/1 250/6/1 251/7/1 252/8/1
f 253/1/1 254/2/1 255/3/1 256/4/1
f 257/1/1 258/2/1 259/3/1 260/4/1
f 261/5/1 262/6/1 263/7/1 264/8/1
f 265/1/1 266/2/1 267/3/1 268/4/1
f 269/1/1 270/2/1 271/3/1 272/4/1
f 273/5/1 274/6/1 275/7/1 276/8/1
f 277/1/1 278/2/1 279/3/1 280/4/1
f 281/1/1 282/2/1 283/3/1 284/4/1
f 285/1/1 286/2/1 287/3/1 288/4/1
f 289/5/1 290/6/1 291/7/1 292/8/1
f 293/1/1 294/2/1 295/3/1 296/4/1
f 297/5/1 298/6/1 299/7/1 300/8/1
f 301/5/1 302/6/1 303/7/1 304/8/1
f 305/5/1 306/6/1 307/7/1 308/8/1
f 309/5/1 310/6/1 311/7/1 312/8/1
f 313/5/1 314/6/1 315/7/1 316/8/1
f 317/5/1 318/6/1 319/7/1 320/8/1
f 321/5/1 322/6/1 323/7/1 324/8/1
f 325/5/1 326/6/1 327/7/1 328/8/1
f 329/5/1 330/6/1 331/7/1 332/8/1
f 333/5/1 334/6/1 335/7/1 336/8/1

