# Tiled2Unity generated file. Do not modify by hand.
# Wavefront file for 'moltenCave_6_mesh_0002.obj'

# Vertices (Count = 300)
v -12 -5 0
v -13 -5 0
v -13 -4 0
v -12 -4 0
v -13 -5 0
v -14 -5 0
v -14 -4 0
v -13 -4 0
v -14 -5 0
v -15 -5 0
v -15 -4 0
v -14 -4 0
v -12 -6 0
v -13 -6 0
v -13 -5 0
v -12 -5 0
v -13 -6 0
v -14 -6 0
v -14 -5 0
v -13 -5 0
v -14 -6 0
v -15 -6 0
v -15 -5 0
v -14 -5 0
v -16 -6 0
v -17 -6 0
v -17 -5 0
v -16 -5 0
v -17 -6 0
v -18 -6 0
v -18 -5 0
v -17 -5 0
v -8 -7 0
v -9 -7 0
v -9 -6 0
v -8 -6 0
v -13 -7 0
v -14 -7 0
v -14 -6 0
v -13 -6 0
v -14 -7 0
v -15 -7 0
v -15 -6 0
v -14 -6 0
v -15 -7 0
v -16 -7 0
v -16 -6 0
v -15 -6 0
v -16 -7 0
v -17 -7 0
v -17 -6 0
v -16 -6 0
v -17 -7 0
v -18 -7 0
v -18 -6 0
v -17 -6 0
v -19 -7 0
v -20 -7 0
v -20 -6 0
v -19 -6 0
v -6 -8 0
v -7 -8 0
v -7 -7 0
v -6 -7 0
v -7 -8 0
v -8 -8 0
v -8 -7 0
v -7 -7 0
v -8 -8 0
v -9 -8 0
v -9 -7 0
v -8 -7 0
v -13 -8 0
v -14 -8 0
v -14 -7 0
v -13 -7 0
v -14 -8 0
v -15 -8 0
v -15 -7 0
v -14 -7 0
v -15 -8 0
v -16 -8 0
v -16 -7 0
v -15 -7 0
v -18 -8 0
v -19 -8 0
v -19 -7 0
v -18 -7 0
v -19 -8 0
v -20 -8 0
v -20 -7 0
v -19 -7 0
v -20 -8 0
v -21 -8 0
v -21 -7 0
v -20 -7 0
v -4 -9 0
v -5 -9 0
v -5 -8 0
v -4 -8 0
v -5 -9 0
v -6 -9 0
v -6 -8 0
v -5 -8 0
v -6 -9 0
v -7 -9 0
v -7 -8 0
v -6 -8 0
v -7 -9 0
v -8 -9 0
v -8 -8 0
v -7 -8 0
v -8 -9 0
v -9 -9 0
v -9 -8 0
v -8 -8 0
v -13 -9 0
v -14 -9 0
v -14 -8 0
v -13 -8 0
v -14 -9 0
v -15 -9 0
v -15 -8 0
v -14 -8 0
v -15 -9 0
v -16 -9 0
v -16 -8 0
v -15 -8 0
v -17 -9 0
v -18 -9 0
v -18 -8 0
v -17 -8 0
v -18 -9 0
v -19 -9 0
v -19 -8 0
v -18 -8 0
v -19 -9 0
v -20 -9 0
v -20 -8 0
v -19 -8 0
v -20 -9 0
v -21 -9 0
v -21 -8 0
v -20 -8 0
v -21 -9 0
v -22 -9 0
v -22 -8 0
v -21 -8 0
v -22 -9 0
v -23 -9 0
v -23 -8 0
v -22 -8 0
v -4 -10 0
v -5 -10 0
v -5 -9 0
v -4 -9 0
v -5 -10 0
v -6 -10 0
v -6 -9 0
v -5 -9 0
v -7 -10 0
v -8 -10 0
v -8 -9 0
v -7 -9 0
v -8 -10 0
v -9 -10 0
v -9 -9 0
v -8 -9 0
v -9 -10 0
v -10 -10 0
v -10 -9 0
v -9 -9 0
v -14 -10 0
v -15 -10 0
v -15 -9 0
v -14 -9 0
v -15 -10 0
v -16 -10 0
v -16 -9 0
v -15 -9 0
v -16 -10 0
v -17 -10 0
v -17 -9 0
v -16 -9 0
v -18 -10 0
v -19 -10 0
v -19 -9 0
v -18 -9 0
v -19 -10 0
v -20 -10 0
v -20 -9 0
v -19 -9 0
v -20 -10 0
v -21 -10 0
v -21 -9 0
v -20 -9 0
v -21 -10 0
v -22 -10 0
v -22 -9 0
v -21 -9 0
v -22 -10 0
v -23 -10 0
v -23 -9 0
v -22 -9 0
v -23 -10 0
v -24 -10 0
v -24 -9 0
v -23 -9 0
v -24 -10 0
v -25 -10 0
v -25 -9 0
v -24 -9 0
v -2 -11 0
v -3 -11 0
v -3 -10 0
v -2 -10 0
v -5 -11 0
v -6 -11 0
v -6 -10 0
v -5 -10 0
v -7 -11 0
v -8 -11 0
v -8 -10 0
v -7 -10 0
v -16 -11 0
v -17 -11 0
v -17 -10 0
v -16 -10 0
v -17 -11 0
v -18 -11 0
v -18 -10 0
v -17 -10 0
v -19 -11 0
v -20 -11 0
v -20 -10 0
v -19 -10 0
v -20 -11 0
v -21 -11 0
v -21 -10 0
v -20 -10 0
v -21 -11 0
v -22 -11 0
v -22 -10 0
v -21 -10 0
v -22 -11 0
v -23 -11 0
v -23 -10 0
v -22 -10 0
v -2 -12 0
v -3 -12 0
v -3 -11 0
v -2 -11 0
v -3 -12 0
v -4 -12 0
v -4 -11 0
v -3 -11 0
v -4 -12 0
v -5 -12 0
v -5 -11 0
v -4 -11 0
v -6 -12 0
v -7 -12 0
v -7 -11 0
v -6 -11 0
v -19 -12 0
v -20 -12 0
v -20 -11 0
v -19 -11 0
v -20 -12 0
v -21 -12 0
v -21 -11 0
v -20 -11 0
v -22 -12 0
v -23 -12 0
v -23 -11 0
v -22 -11 0
v -23 -12 0
v -24 -12 0
v -24 -11 0
v -23 -11 0
v -4 -13 0
v -5 -13 0
v -5 -12 0
v -4 -12 0
v -5 -13 0
v -6 -13 0
v -6 -12 0
v -5 -12 0
v -6 -13 0
v -7 -13 0
v -7 -12 0
v -6 -12 0
v -20 -13 0
v -21 -13 0
v -21 -12 0
v -20 -12 0
v -22 -13 0
v -23 -13 0
v -23 -12 0
v -22 -12 0

# Texture cooridinates (Count = 40)
vt 0.6878825 0.9376147
vt 0.7074664 0.9376147
vt 0.7074664 0.9669725
vt 0.6878825 0.9669725
vt 0.7086903 0.9688073
vt 0.7282742 0.9688073
vt 0.7282742 0.9981651
vt 0.7086903 0.9981651
vt 0.5630355 0.9376147
vt 0.5826193 0.9376147
vt 0.5826193 0.9669725
vt 0.5630355 0.9669725
vt 0.6670747 0.9376147
vt 0.6866585 0.9376147
vt 0.6866585 0.9669725
vt 0.6670747 0.9669725
vt 0.6462668 0.9376147
vt 0.6658507 0.9376147
vt 0.6658507 0.9669725
vt 0.6462668 0.9669725
vt 0.6878825 0.9688073
vt 0.7074664 0.9688073
vt 0.7074664 0.9981651
vt 0.6878825 0.9981651
vt 0.6670747 0.9688073
vt 0.6866585 0.9688073
vt 0.6866585 0.9981651
vt 0.6670747 0.9981651
vt 0.7086903 0.9376147
vt 0.7282742 0.9376147
vt 0.7282742 0.9669725
vt 0.7086903 0.9669725
vt 0.625459 0.9688073
vt 0.6450428 0.9688073
vt 0.6450428 0.9981651
vt 0.625459 0.9981651
vt 0.7294981 0.9688073
vt 0.749082 0.9688073
vt 0.749082 0.9981651
vt 0.7294981 0.9981651

# Normal
vn 0 0 -1

# Mesh description
g moltenCave_6_mesh_0002

# Faces
f 1/1/1 2/2/1 3/3/1 4/4/1
f 5/5/1 6/6/1 7/7/1 8/8/1
f 9/9/1 10/10/1 11/11/1 12/12/1
f 13/9/1 14/10/1 15/11/1 16/12/1
f 17/13/1 18/14/1 19/15/1 20/16/1
f 21/5/1 22/6/1 23/7/1 24/8/1
f 25/17/1 26/18/1 27/19/1 28/20/1
f 29/13/1 30/14/1 31/15/1 32/16/1
f 33/21/1 34/22/1 35/23/1 36/24/1
f 37/25/1 38/26/1 39/27/1 40/28/1
f 41/29/1 42/30/1 43/31/1 44/32/1
f 45/1/1 46/2/1 47/3/1 48/4/1
f 49/5/1 50/6/1 51/7/1 52/8/1
f 53/21/1 54/22/1 55/23/1 56/24/1
f 57/9/1 58/10/1 59/11/1 60/12/1
f 61/29/1 62/30/1 63/31/1 64/32/1
f 65/17/1 66/18/1 67/19/1 68/20/1
f 69/21/1 70/22/1 71/23/1 72/24/1
f 73/25/1 74/26/1 75/27/1 76/28/1
f 77/29/1 78/30/1 79/31/1 80/32/1
f 81/17/1 82/18/1 83/19/1 84/20/1
f 85/5/1 86/6/1 87/7/1 88/8/1
f 89/1/1 90/2/1 91/3/1 92/4/1
f 93/1/1 94/2/1 95/3/1 96/4/1
f 97/1/1 98/2/1 99/3/1 100/4/1
f 101/33/1 102/34/1 103/35/1 104/36/1
f 105/37/1 106/38/1 107/39/1 108/40/1
f 109/33/1 110/34/1 111/35/1 112/36/1
f 113/37/1 114/38/1 115/39/1 116/40/1
f 117/9/1 118/10/1 119/11/1 120/12/1
f 121/29/1 122/30/1 123/31/1 124/32/1
f 125/37/1 126/38/1 127/39/1 128/40/1
f 129/33/1 130/34/1 131/35/1 132/36/1
f 133/37/1 134/38/1 135/39/1 136/40/1
f 137/9/1 138/10/1 139/11/1 140/12/1
f 141/1/1 142/2/1 143/3/1 144/4/1
f 145/25/1 146/26/1 147/27/1 148/28/1
f 149/17/1 150/18/1 151/19/1 152/20/1
f 153/21/1 154/22/1 155/23/1 156/24/1
f 157/17/1 158/18/1 159/19/1 160/20/1
f 161/29/1 162/30/1 163/31/1 164/32/1
f 165/13/1 166/14/1 167/15/1 168/16/1
f 169/5/1 170/6/1 171/7/1 172/8/1
f 173/25/1 174/26/1 175/27/1 176/28/1
f 177/9/1 178/10/1 179/11/1 180/12/1
f 181/5/1 182/6/1 183/7/1 184/8/1
f 185/21/1 186/22/1 187/23/1 188/24/1
f 189/25/1 190/26/1 191/27/1 192/28/1
f 193/17/1 194/18/1 195/19/1 196/20/1
f 197/33/1 198/34/1 199/35/1 200/36/1
f 201/29/1 202/30/1 203/31/1 204/32/1
f 205/9/1 206/10/1 207/11/1 208/12/1
f 209/25/1 210/26/1 211/27/1 212/28/1
f 213/17/1 214/18/1 215/19/1 216/20/1
f 217/25/1 218/26/1 219/27/1 220/28/1
f 221/37/1 222/38/1 223/39/1 224/40/1
f 225/25/1 226/26/1 227/27/1 228/28/1
f 229/33/1 230/34/1 231/35/1 232/36/1
f 233/37/1 234/38/1 235/39/1 236/40/1
f 237/25/1 238/26/1 239/27/1 240/28/1
f 241/17/1 242/18/1 243/19/1 244/20/1
f 245/9/1 246/10/1 247/11/1 248/12/1
f 249/9/1 250/10/1 251/11/1 252/12/1
f 253/21/1 254/22/1 255/23/1 256/24/1
f 257/1/1 258/2/1 259/3/1 260/4/1
f 261/29/1 262/30/1 263/31/1 264/32/1
f 265/1/1 266/2/1 267/3/1 268/4/1
f 269/13/1 270/14/1 271/15/1 272/16/1
f 273/5/1 274/6/1 275/7/1 276/8/1
f 277/1/1 278/2/1 279/3/1 280/4/1
f 281/17/1 282/18/1 283/19/1 284/20/1
f 285/1/1 286/2/1 287/3/1 288/4/1
f 289/29/1 290/30/1 291/31/1 292/32/1
f 293/21/1 294/22/1 295/23/1 296/24/1
f 297/25/1 298/26/1 299/27/1 300/28/1

