# Tiled2Unity generated file. Do not modify by hand.
# Wavefront file for 'waterTemple_2_mesh_0001.obj'

# Vertices (Count = 708)
v -6 -4 0
v -7 -4 0
v -7 -3 0
v -6 -3 0
v -8 -4 0
v -9 -4 0
v -9 -3 0
v -8 -3 0
v -4 -5 0
v -5 -5 0
v -5 -4 0
v -4 -4 0
v -5 -5 0
v -6 -5 0
v -6 -4 0
v -5 -4 0
v -6 -5 0
v -7 -5 0
v -7 -4 0
v -6 -4 0
v -7 -5 0
v -8 -5 0
v -8 -4 0
v -7 -4 0
v -8 -5 0
v -9 -5 0
v -9 -4 0
v -8 -4 0
v -9 -5 0
v -10 -5 0
v -10 -4 0
v -9 -4 0
v -10 -5 0
v -11 -5 0
v -11 -4 0
v -10 -4 0
v -2 -6 0
v -3 -6 0
v -3 -5 0
v -2 -5 0
v -3 -6 0
v -4 -6 0
v -4 -5 0
v -3 -5 0
v -4 -6 0
v -5 -6 0
v -5 -5 0
v -4 -5 0
v -5 -6 0
v -6 -6 0
v -6 -5 0
v -5 -5 0
v -6 -6 0
v -7 -6 0
v -7 -5 0
v -6 -5 0
v -7 -6 0
v -8 -6 0
v -8 -5 0
v -7 -5 0
v -8 -6 0
v -9 -6 0
v -9 -5 0
v -8 -5 0
v -9 -6 0
v -10 -6 0
v -10 -5 0
v -9 -5 0
v -10 -6 0
v -11 -6 0
v -11 -5 0
v -10 -5 0
v -11 -6 0
v -12 -6 0
v -12 -5 0
v -11 -5 0
v -12 -6 0
v -13 -6 0
v -13 -5 0
v -12 -5 0
v -13 -6 0
v -14 -6 0
v -14 -5 0
v -13 -5 0
v -14 -6 0
v -15 -6 0
v -15 -5 0
v -14 -5 0
v -15 -6 0
v -16 -6 0
v -16 -5 0
v -15 -5 0
v -16 -6 0
v -17 -6 0
v -17 -5 0
v -16 -5 0
v -17 -6 0
v -18 -6 0
v -18 -5 0
v -17 -5 0
v -18 -6 0
v -19 -6 0
v -19 -5 0
v -18 -5 0
v -19 -6 0
v -20 -6 0
v -20 -5 0
v -19 -5 0
v -2 -7 0
v -3 -7 0
v -3 -6 0
v -2 -6 0
v -3 -7 0
v -4 -7 0
v -4 -6 0
v -3 -6 0
v -4 -7 0
v -5 -7 0
v -5 -6 0
v -4 -6 0
v -5 -7 0
v -6 -7 0
v -6 -6 0
v -5 -6 0
v -6 -7 0
v -7 -7 0
v -7 -6 0
v -6 -6 0
v -7 -7 0
v -8 -7 0
v -8 -6 0
v -7 -6 0
v -8 -7 0
v -9 -7 0
v -9 -6 0
v -8 -6 0
v -9 -7 0
v -10 -7 0
v -10 -6 0
v -9 -6 0
v -10 -7 0
v -11 -7 0
v -11 -6 0
v -10 -6 0
v -11 -7 0
v -12 -7 0
v -12 -6 0
v -11 -6 0
v -12 -7 0
v -13 -7 0
v -13 -6 0
v -12 -6 0
v -13 -7 0
v -14 -7 0
v -14 -6 0
v -13 -6 0
v -14 -7 0
v -15 -7 0
v -15 -6 0
v -14 -6 0
v -15 -7 0
v -16 -7 0
v -16 -6 0
v -15 -6 0
v -16 -7 0
v -17 -7 0
v -17 -6 0
v -16 -6 0
v -17 -7 0
v -18 -7 0
v -18 -6 0
v -17 -6 0
v -18 -7 0
v -19 -7 0
v -19 -6 0
v -18 -6 0
v -19 -7 0
v -20 -7 0
v -20 -6 0
v -19 -6 0
v -2 -8 0
v -3 -8 0
v -3 -7 0
v -2 -7 0
v -3 -8 0
v -4 -8 0
v -4 -7 0
v -3 -7 0
v -4 -8 0
v -5 -8 0
v -5 -7 0
v -4 -7 0
v -5 -8 0
v -6 -8 0
v -6 -7 0
v -5 -7 0
v -6 -8 0
v -7 -8 0
v -7 -7 0
v -6 -7 0
v -7 -8 0
v -8 -8 0
v -8 -7 0
v -7 -7 0
v -8 -8 0
v -9 -8 0
v -9 -7 0
v -8 -7 0
v -9 -8 0
v -10 -8 0
v -10 -7 0
v -9 -7 0
v -10 -8 0
v -11 -8 0
v -11 -7 0
v -10 -7 0
v -11 -8 0
v -12 -8 0
v -12 -7 0
v -11 -7 0
v -12 -8 0
v -13 -8 0
v -13 -7 0
v -12 -7 0
v -13 -8 0
v -14 -8 0
v -14 -7 0
v -13 -7 0
v -14 -8 0
v -15 -8 0
v -15 -7 0
v -14 -7 0
v -15 -8 0
v -16 -8 0
v -16 -7 0
v -15 -7 0
v -16 -8 0
v -17 -8 0
v -17 -7 0
v -16 -7 0
v -17 -8 0
v -18 -8 0
v -18 -7 0
v -17 -7 0
v -18 -8 0
v -19 -8 0
v -19 -7 0
v -18 -7 0
v -19 -8 0
v -20 -8 0
v -20 -7 0
v -19 -7 0
v -2 -9 0
v -3 -9 0
v -3 -8 0
v -2 -8 0
v -3 -9 0
v -4 -9 0
v -4 -8 0
v -3 -8 0
v -4 -9 0
v -5 -9 0
v -5 -8 0
v -4 -8 0
v -5 -9 0
v -6 -9 0
v -6 -8 0
v -5 -8 0
v -6 -9 0
v -7 -9 0
v -7 -8 0
v -6 -8 0
v -7 -9 0
v -8 -9 0
v -8 -8 0
v -7 -8 0
v -8 -9 0
v -9 -9 0
v -9 -8 0
v -8 -8 0
v -9 -9 0
v -10 -9 0
v -10 -8 0
v -9 -8 0
v -10 -9 0
v -11 -9 0
v -11 -8 0
v -10 -8 0
v -11 -9 0
v -12 -9 0
v -12 -8 0
v -11 -8 0
v -12 -9 0
v -13 -9 0
v -13 -8 0
v -12 -8 0
v -13 -9 0
v -14 -9 0
v -14 -8 0
v -13 -8 0
v -14 -9 0
v -15 -9 0
v -15 -8 0
v -14 -8 0
v -15 -9 0
v -16 -9 0
v -16 -8 0
v -15 -8 0
v -16 -9 0
v -17 -9 0
v -17 -8 0
v -16 -8 0
v -17 -9 0
v -18 -9 0
v -18 -8 0
v -17 -8 0
v -18 -9 0
v -19 -9 0
v -19 -8 0
v -18 -8 0
v -19 -9 0
v -20 -9 0
v -20 -8 0
v -19 -8 0
v -2 -10 0
v -3 -10 0
v -3 -9 0
v -2 -9 0
v -3 -10 0
v -4 -10 0
v -4 -9 0
v -3 -9 0
v -4 -10 0
v -5 -10 0
v -5 -9 0
v -4 -9 0
v -5 -10 0
v -6 -10 0
v -6 -9 0
v -5 -9 0
v -6 -10 0
v -7 -10 0
v -7 -9 0
v -6 -9 0
v -7 -10 0
v -8 -10 0
v -8 -9 0
v -7 -9 0
v -8 -10 0
v -9 -10 0
v -9 -9 0
v -8 -9 0
v -9 -10 0
v -10 -10 0
v -10 -9 0
v -9 -9 0
v -10 -10 0
v -11 -10 0
v -11 -9 0
v -10 -9 0
v -11 -10 0
v -12 -10 0
v -12 -9 0
v -11 -9 0
v -12 -10 0
v -13 -10 0
v -13 -9 0
v -12 -9 0
v -13 -10 0
v -14 -10 0
v -14 -9 0
v -13 -9 0
v -14 -10 0
v -15 -10 0
v -15 -9 0
v -14 -9 0
v -15 -10 0
v -16 -10 0
v -16 -9 0
v -15 -9 0
v -16 -10 0
v -17 -10 0
v -17 -9 0
v -16 -9 0
v -17 -10 0
v -18 -10 0
v -18 -9 0
v -17 -9 0
v -18 -10 0
v -19 -10 0
v -19 -9 0
v -18 -9 0
v -19 -10 0
v -20 -10 0
v -20 -9 0
v -19 -9 0
v -2 -11 0
v -3 -11 0
v -3 -10 0
v -2 -10 0
v -3 -11 0
v -4 -11 0
v -4 -10 0
v -3 -10 0
v -4 -11 0
v -5 -11 0
v -5 -10 0
v -4 -10 0
v -5 -11 0
v -6 -11 0
v -6 -10 0
v -5 -10 0
v -6 -11 0
v -7 -11 0
v -7 -10 0
v -6 -10 0
v -7 -11 0
v -8 -11 0
v -8 -10 0
v -7 -10 0
v -8 -11 0
v -9 -11 0
v -9 -10 0
v -8 -10 0
v -9 -11 0
v -10 -11 0
v -10 -10 0
v -9 -10 0
v -10 -11 0
v -11 -11 0
v -11 -10 0
v -10 -10 0
v -11 -11 0
v -12 -11 0
v -12 -10 0
v -11 -10 0
v -12 -11 0
v -13 -11 0
v -13 -10 0
v -12 -10 0
v -13 -11 0
v -14 -11 0
v -14 -10 0
v -13 -10 0
v -14 -11 0
v -15 -11 0
v -15 -10 0
v -14 -10 0
v -15 -11 0
v -16 -11 0
v -16 -10 0
v -15 -10 0
v -16 -11 0
v -17 -11 0
v -17 -10 0
v -16 -10 0
v -17 -11 0
v -18 -11 0
v -18 -10 0
v -17 -10 0
v -18 -11 0
v -19 -11 0
v -19 -10 0
v -18 -10 0
v -19 -11 0
v -20 -11 0
v -20 -10 0
v -19 -10 0
v -2 -12 0
v -3 -12 0
v -3 -11 0
v -2 -11 0
v -3 -12 0
v -4 -12 0
v -4 -11 0
v -3 -11 0
v -4 -12 0
v -5 -12 0
v -5 -11 0
v -4 -11 0
v -5 -12 0
v -6 -12 0
v -6 -11 0
v -5 -11 0
v -6 -12 0
v -7 -12 0
v -7 -11 0
v -6 -11 0
v -7 -12 0
v -8 -12 0
v -8 -11 0
v -7 -11 0
v -8 -12 0
v -9 -12 0
v -9 -11 0
v -8 -11 0
v -9 -12 0
v -10 -12 0
v -10 -11 0
v -9 -11 0
v -10 -12 0
v -11 -12 0
v -11 -11 0
v -10 -11 0
v -11 -12 0
v -12 -12 0
v -12 -11 0
v -11 -11 0
v -12 -12 0
v -13 -12 0
v -13 -11 0
v -12 -11 0
v -13 -12 0
v -14 -12 0
v -14 -11 0
v -13 -11 0
v -14 -12 0
v -15 -12 0
v -15 -11 0
v -14 -11 0
v -15 -12 0
v -16 -12 0
v -16 -11 0
v -15 -11 0
v -16 -12 0
v -17 -12 0
v -17 -11 0
v -16 -11 0
v -17 -12 0
v -18 -12 0
v -18 -11 0
v -17 -11 0
v -18 -12 0
v -19 -12 0
v -19 -11 0
v -18 -11 0
v -19 -12 0
v -20 -12 0
v -20 -11 0
v -19 -11 0
v -3 -13 0
v -4 -13 0
v -4 -12 0
v -3 -12 0
v -4 -13 0
v -5 -13 0
v -5 -12 0
v -4 -12 0
v -5 -13 0
v -6 -13 0
v -6 -12 0
v -5 -12 0
v -6 -13 0
v -7 -13 0
v -7 -12 0
v -6 -12 0
v -7 -13 0
v -8 -13 0
v -8 -12 0
v -7 -12 0
v -8 -13 0
v -9 -13 0
v -9 -12 0
v -8 -12 0
v -9 -13 0
v -10 -13 0
v -10 -12 0
v -9 -12 0
v -10 -13 0
v -11 -13 0
v -11 -12 0
v -10 -12 0
v -11 -13 0
v -12 -13 0
v -12 -12 0
v -11 -12 0
v -12 -13 0
v -13 -13 0
v -13 -12 0
v -12 -12 0
v -13 -13 0
v -14 -13 0
v -14 -12 0
v -13 -12 0
v -14 -13 0
v -15 -13 0
v -15 -12 0
v -14 -12 0
v -15 -13 0
v -16 -13 0
v -16 -12 0
v -15 -12 0
v -16 -13 0
v -17 -13 0
v -17 -12 0
v -16 -12 0
v -17 -13 0
v -18 -13 0
v -18 -12 0
v -17 -12 0
v -18 -13 0
v -19 -13 0
v -19 -12 0
v -18 -12 0
v -19 -13 0
v -20 -13 0
v -20 -12 0
v -19 -12 0
v -4 -14 0
v -5 -14 0
v -5 -13 0
v -4 -13 0
v -5 -14 0
v -6 -14 0
v -6 -13 0
v -5 -13 0
v -6 -14 0
v -7 -14 0
v -7 -13 0
v -6 -13 0
v -7 -14 0
v -8 -14 0
v -8 -13 0
v -7 -13 0
v -8 -14 0
v -9 -14 0
v -9 -13 0
v -8 -13 0
v -9 -14 0
v -10 -14 0
v -10 -13 0
v -9 -13 0
v -10 -14 0
v -11 -14 0
v -11 -13 0
v -10 -13 0
v -11 -14 0
v -12 -14 0
v -12 -13 0
v -11 -13 0
v -12 -14 0
v -13 -14 0
v -13 -13 0
v -12 -13 0
v -13 -14 0
v -14 -14 0
v -14 -13 0
v -13 -13 0
v -14 -14 0
v -15 -14 0
v -15 -13 0
v -14 -13 0
v -15 -14 0
v -16 -14 0
v -16 -13 0
v -15 -13 0
v -16 -14 0
v -17 -14 0
v -17 -13 0
v -16 -13 0
v -17 -14 0
v -18 -14 0
v -18 -13 0
v -17 -13 0
v -18 -14 0
v -19 -14 0
v -19 -13 0
v -18 -13 0
v -5 -15 0
v -6 -15 0
v -6 -14 0
v -5 -14 0
v -6 -15 0
v -7 -15 0
v -7 -14 0
v -6 -14 0
v -7 -15 0
v -8 -15 0
v -8 -14 0
v -7 -14 0
v -8 -15 0
v -9 -15 0
v -9 -14 0
v -8 -14 0
v -9 -15 0
v -10 -15 0
v -10 -14 0
v -9 -14 0
v -10 -15 0
v -11 -15 0
v -11 -14 0
v -10 -14 0
v -11 -15 0
v -12 -15 0
v -12 -14 0
v -11 -14 0
v -12 -15 0
v -13 -15 0
v -13 -14 0
v -12 -14 0
v -13 -15 0
v -14 -15 0
v -14 -14 0
v -13 -14 0
v -9 -16 0
v -10 -16 0
v -10 -15 0
v -9 -15 0

# Texture cooridinates (Count = 72)
vt 0.7294981 0.9376147
vt 0.749082 0.9376147
vt 0.749082 0.9669725
vt 0.7294981 0.9669725
vt 0.750306 0.9376147
vt 0.7698898 0.9376147
vt 0.7698898 0.9669725
vt 0.750306 0.9669725
vt 0.1676867 0.9688073
vt 0.1872705 0.9688073
vt 0.1872705 0.9981651
vt 0.1676867 0.9981651
vt 0.1884945 0.9688073
vt 0.2080783 0.9688073
vt 0.2080783 0.9981651
vt 0.1884945 0.9981651
vt 0.7919217 0.9376147
vt 0.8115055 0.9376147
vt 0.8115055 0.9669725
vt 0.7919217 0.9669725
vt 0.00122399 0.9688073
vt 0.02080783 0.9688073
vt 0.02080783 0.9981651
vt 0.00122399 0.9981651
vt 0.8127295 0.9376147
vt 0.8323134 0.9376147
vt 0.8323134 0.9669725
vt 0.8127295 0.9669725
vt 0.3549572 0.9688073
vt 0.374541 0.9688073
vt 0.374541 0.9981651
vt 0.3549572 0.9981651
vt 0.375765 0.9688073
vt 0.3953488 0.9688073
vt 0.3953488 0.9981651
vt 0.375765 0.9981651
vt 0.8543451 0.9376147
vt 0.873929 0.9376147
vt 0.873929 0.9669725
vt 0.8543451 0.9669725
vt 0.8543451 0.9688073
vt 0.873929 0.9688073
vt 0.873929 0.9981651
vt 0.8543451 0.9981651
vt 0.875153 0.9376147
vt 0.8947368 0.9376147
vt 0.8947368 0.9669725
vt 0.875153 0.9669725
vt 0.126071 0.812844
vt 0.1456548 0.812844
vt 0.1456548 0.8422018
vt 0.126071 0.8422018
vt 0.625459 0.9688073
vt 0.6450428 0.9688073
vt 0.6450428 0.9981651
vt 0.625459 0.9981651
vt 0.6462668 0.9688073
vt 0.6658507 0.9688073
vt 0.6658507 0.9981651
vt 0.6462668 0.9981651
vt 0.3133415 0.9376147
vt 0.3329253 0.9376147
vt 0.3329253 0.9669725
vt 0.3133415 0.9669725
vt 0.3965728 0.9688073
vt 0.4161567 0.9688073
vt 0.4161567 0.9981651
vt 0.3965728 0.9981651
vt 0.6670747 0.9688073
vt 0.6866585 0.9688073
vt 0.6866585 0.9981651
vt 0.6670747 0.9981651

# Normal
vn 0 0 -1

# Mesh description
g waterTemple_2_mesh_0001

# Faces
f 1/1/1 2/2/1 3/3/1 4/4/1
f 5/5/1 6/6/1 7/7/1 8/8/1
f 9/9/1 10/10/1 11/11/1 12/12/1
f 13/13/1 14/14/1 15/15/1 16/16/1
f 17/17/1 18/18/1 19/19/1 20/20/1
f 21/21/1 22/22/1 23/23/1 24/24/1
f 25/25/1 26/26/1 27/27/1 28/28/1
f 29/14/1 30/13/1 31/16/1 32/15/1
f 33/10/1 34/9/1 35/12/1 36/11/1
f 37/9/1 38/10/1 39/11/1 40/12/1
f 41/13/1 42/14/1 43/15/1 44/16/1
f 45/29/1 46/30/1 47/31/1 48/32/1
f 49/33/1 50/34/1 51/35/1 52/36/1
f 53/37/1 54/38/1 55/39/1 56/40/1
f 57/41/1 58/42/1 59/43/1 60/44/1
f 61/45/1 62/46/1 63/47/1 64/48/1
f 65/34/1 66/33/1 67/36/1 68/35/1
f 69/30/1 70/29/1 71/32/1 72/31/1
f 73/14/1 74/13/1 75/16/1 76/15/1
f 77/13/1 78/14/1 79/15/1 80/16/1
f 81/49/1 82/50/1 83/51/1 84/52/1
f 85/49/1 86/50/1 87/51/1 88/52/1
f 89/49/1 90/50/1 91/51/1 92/52/1
f 93/49/1 94/50/1 95/51/1 96/52/1
f 97/49/1 98/50/1 99/51/1 100/52/1
f 101/49/1 102/50/1 103/51/1 104/52/1
f 105/49/1 106/50/1 107/51/1 108/52/1
f 109/29/1 110/30/1 111/31/1 112/32/1
f 113/33/1 114/34/1 115/35/1 116/36/1
f 117/53/1 118/54/1 119/55/1 120/56/1
f 121/57/1 122/58/1 123/59/1 124/60/1
f 125/61/1 126/62/1 127/63/1 128/64/1
f 129/61/1 130/62/1 131/63/1 132/64/1
f 133/61/1 134/62/1 135/63/1 136/64/1
f 137/58/1 138/57/1 139/60/1 140/59/1
f 141/54/1 142/53/1 143/56/1 144/55/1
f 145/34/1 146/33/1 147/36/1 148/35/1
f 149/33/1 150/34/1 151/35/1 152/36/1
f 153/65/1 154/66/1 155/67/1 156/68/1
f 157/65/1 158/66/1 159/67/1 160/68/1
f 161/65/1 162/66/1 163/67/1 164/68/1
f 165/65/1 166/66/1 167/67/1 168/68/1
f 169/65/1 170/66/1 171/67/1 172/68/1
f 173/65/1 174/66/1 175/67/1 176/68/1
f 177/65/1 178/66/1 179/67/1 180/68/1
f 181/53/1 182/54/1 183/55/1 184/56/1
f 185/57/1 186/58/1 187/59/1 188/60/1
f 189/61/1 190/62/1 191/63/1 192/64/1
f 193/61/1 194/62/1 195/63/1 196/64/1
f 197/61/1 198/62/1 199/63/1 200/64/1
f 201/61/1 202/62/1 203/63/1 204/64/1
f 205/61/1 206/62/1 207/63/1 208/64/1
f 209/61/1 210/62/1 211/63/1 212/64/1
f 213/61/1 214/62/1 215/63/1 216/64/1
f 217/58/1 218/57/1 219/60/1 220/59/1
f 221/57/1 222/58/1 223/59/1 224/60/1
f 225/69/1 226/70/1 227/71/1 228/72/1
f 229/69/1 230/70/1 231/71/1 232/72/1
f 233/69/1 234/70/1 235/71/1 236/72/1
f 237/69/1 238/70/1 239/71/1 240/72/1
f 241/69/1 242/70/1 243/71/1 244/72/1
f 245/69/1 246/70/1 247/71/1 248/72/1
f 249/69/1 250/70/1 251/71/1 252/72/1
f 253/61/1 254/62/1 255/63/1 256/64/1
f 257/61/1 258/62/1 259/63/1 260/64/1
f 261/61/1 262/62/1 263/63/1 264/64/1
f 265/61/1 266/62/1 267/63/1 268/64/1
f 269/61/1 270/62/1 271/63/1 272/64/1
f 273/61/1 274/62/1 275/63/1 276/64/1
f 277/61/1 278/62/1 279/63/1 280/64/1
f 281/61/1 282/62/1 283/63/1 284/64/1
f 285/61/1 286/62/1 287/63/1 288/64/1
f 289/61/1 290/62/1 291/63/1 292/64/1
f 293/61/1 294/62/1 295/63/1 296/64/1
f 297/61/1 298/62/1 299/63/1 300/64/1
f 301/61/1 302/62/1 303/63/1 304/64/1
f 305/61/1 306/62/1 307/63/1 308/64/1
f 309/61/1 310/62/1 311/63/1 312/64/1
f 313/61/1 314/62/1 315/63/1 316/64/1
f 317/61/1 318/62/1 319/63/1 320/64/1
f 321/61/1 322/62/1 323/63/1 324/64/1
f 325/61/1 326/62/1 327/63/1 328/64/1
f 329/61/1 330/62/1 331/63/1 332/64/1
f 333/61/1 334/62/1 335/63/1 336/64/1
f 337/61/1 338/62/1 339/63/1 340/64/1
f 341/61/1 342/62/1 343/63/1 344/64/1
f 345/61/1 346/62/1 347/63/1 348/64/1
f 349/61/1 350/62/1 351/63/1 352/64/1
f 353/61/1 354/62/1 355/63/1 356/64/1
f 357/61/1 358/62/1 359/63/1 360/64/1
f 361/61/1 362/62/1 363/63/1 364/64/1
f 365/61/1 366/62/1 367/63/1 368/64/1
f 369/61/1 370/62/1 371/63/1 372/64/1
f 373/61/1 374/62/1 375/63/1 376/64/1
f 377/61/1 378/62/1 379/63/1 380/64/1
f 381/61/1 382/62/1 383/63/1 384/64/1
f 385/61/1 386/62/1 387/63/1 388/64/1
f 389/61/1 390/62/1 391/63/1 392/64/1
f 393/61/1 394/62/1 395/63/1 396/64/1
f 397/61/1 398/62/1 399/63/1 400/64/1
f 401/61/1 402/62/1 403/63/1 404/64/1
f 405/61/1 406/62/1 407/63/1 408/64/1
f 409/61/1 410/62/1 411/63/1 412/64/1
f 413/61/1 414/62/1 415/63/1 416/64/1
f 417/61/1 418/62/1 419/63/1 420/64/1
f 421/61/1 422/62/1 423/63/1 424/64/1
f 425/61/1 426/62/1 427/63/1 428/64/1
f 429/61/1 430/62/1 431/63/1 432/64/1
f 433/61/1 434/62/1 435/63/1 436/64/1
f 437/61/1 438/62/1 439/63/1 440/64/1
f 441/61/1 442/62/1 443/63/1 444/64/1
f 445/61/1 446/62/1 447/63/1 448/64/1
f 449/61/1 450/62/1 451/63/1 452/64/1
f 453/61/1 454/62/1 455/63/1 456/64/1
f 457/61/1 458/62/1 459/63/1 460/64/1
f 461/61/1 462/62/1 463/63/1 464/64/1
f 465/61/1 466/62/1 467/63/1 468/64/1
f 469/61/1 470/62/1 471/63/1 472/64/1
f 473/61/1 474/62/1 475/63/1 476/64/1
f 477/61/1 478/62/1 479/63/1 480/64/1
f 481/61/1 482/62/1 483/63/1 484/64/1
f 485/61/1 486/62/1 487/63/1 488/64/1
f 489/61/1 490/62/1 491/63/1 492/64/1
f 493/61/1 494/62/1 495/63/1 496/64/1
f 497/61/1 498/62/1 499/63/1 500/64/1
f 501/61/1 502/62/1 503/63/1 504/64/1
f 505/61/1 506/62/1 507/63/1 508/64/1
f 509/61/1 510/62/1 511/63/1 512/64/1
f 513/61/1 514/62/1 515/63/1 516/64/1
f 517/61/1 518/62/1 519/63/1 520/64/1
f 521/61/1 522/62/1 523/63/1 524/64/1
f 525/61/1 526/62/1 527/63/1 528/64/1
f 529/61/1 530/62/1 531/63/1 532/64/1
f 533/61/1 534/62/1 535/63/1 536/64/1
f 537/61/1 538/62/1 539/63/1 540/64/1
f 541/61/1 542/62/1 543/63/1 544/64/1
f 545/61/1 546/62/1 547/63/1 548/64/1
f 549/61/1 550/62/1 551/63/1 552/64/1
f 553/61/1 554/62/1 555/63/1 556/64/1
f 557/61/1 558/62/1 559/63/1 560/64/1
f 561/61/1 562/62/1 563/63/1 564/64/1
f 565/61/1 566/62/1 567/63/1 568/64/1
f 569/61/1 570/62/1 571/63/1 572/64/1
f 573/61/1 574/62/1 575/63/1 576/64/1
f 577/61/1 578/62/1 579/63/1 580/64/1
f 581/61/1 582/62/1 583/63/1 584/64/1
f 585/61/1 586/62/1 587/63/1 588/64/1
f 589/61/1 590/62/1 591/63/1 592/64/1
f 593/61/1 594/62/1 595/63/1 596/64/1
f 597/61/1 598/62/1 599/63/1 600/64/1
f 601/61/1 602/62/1 603/63/1 604/64/1
f 605/61/1 606/62/1 607/63/1 608/64/1
f 609/61/1 610/62/1 611/63/1 612/64/1
f 613/61/1 614/62/1 615/63/1 616/64/1
f 617/61/1 618/62/1 619/63/1 620/64/1
f 621/61/1 622/62/1 623/63/1 624/64/1
f 625/61/1 626/62/1 627/63/1 628/64/1
f 629/61/1 630/62/1 631/63/1 632/64/1
f 633/61/1 634/62/1 635/63/1 636/64/1
f 637/61/1 638/62/1 639/63/1 640/64/1
f 641/61/1 642/62/1 643/63/1 644/64/1
f 645/61/1 646/62/1 647/63/1 648/64/1
f 649/61/1 650/62/1 651/63/1 652/64/1
f 653/61/1 654/62/1 655/63/1 656/64/1
f 657/61/1 658/62/1 659/63/1 660/64/1
f 661/61/1 662/62/1 663/63/1 664/64/1
f 665/61/1 666/62/1 667/63/1 668/64/1
f 669/61/1 670/62/1 671/63/1 672/64/1
f 673/61/1 674/62/1 675/63/1 676/64/1
f 677/61/1 678/62/1 679/63/1 680/64/1
f 681/61/1 682/62/1 683/63/1 684/64/1
f 685/61/1 686/62/1 687/63/1 688/64/1
f 689/61/1 690/62/1 691/63/1 692/64/1
f 693/61/1 694/62/1 695/63/1 696/64/1
f 697/61/1 698/62/1 699/63/1 700/64/1
f 701/61/1 702/62/1 703/63/1 704/64/1
f 705/61/1 706/62/1 707/63/1 708/64/1

